<svg id="Calque_1" data-name="Calque 1" xmlns="http://www.w3.org/2000/svg" viewBox="0 0 2000 2000"><defs><style>.cls-1{fill:#000;}.cls-2{fill:#000;}</style></defs><path class="cls-1" d="M1548.93,1789.54a1394.54,1394.54,0,0,0,201.84-174.82c112.1-126.71,187.59-361.55,195.64-515.2l.26-1.93c8.94-38.88,1.41-144.6-3.09-207.77-1.22-17-2.26-31.63-2.81-42.26-14.49-140.39-42.15-233.86-167.7-415.12C1659,267.66,1510.3,162.85,1276,82c-103.84-35.84-199.16-50.64-283.14-44-20.16,1.6-43.95,1.11-69.14.6-12.36-.25-24.88-.5-37-.5-27.58,0-53.22,1.31-71,6.93-6.64,2.11-14.62,4.75-23.64,7.72-23.88,7.9-56.59,18.71-89.19,27.65-64.75,13-123,46.64-231.75,115.17-143.79,90.59-184.46,118.82-258.72,228.7C119,561.94,66.9,696.67,57.78,824.72l-.27,1.72c-14.63,63.75-1,230.83,9.2,302C80,1217.92,124.28,1341.16,182.34,1450c129.17,253.56,301.49,395.15,576.29,473.66,118.75,34,287.17,49.36,375.47,34.28C1252.2,1937.73,1381.53,1908.12,1548.93,1789.54ZM1085.47,1925.8l-1.27,0c-27.53-.75-53.17-.38-78,0-13.81.2-27.34.4-40.76.4-73.46,0-143.39-5.87-238.27-49C441.79,1747.42,276.67,1596,175.1,1371c-120-266-131.94-503-35.51-704.48C245.34,445.59,417.38,252.26,577.88,174c214.35-104.52,435-133,621.17-80.33,270.45,76.58,494.24,238.17,614,443.34,113.94,193.24,143.7,438.52,83.76,690.6-55,232.25-176.3,411.09-360.55,531.55-114.43,74.81-257.29,127.68-449.56,166.4Z"/><path class="cls-2" d="M454.31,1534.35a11.26,11.26,0,0,1-7.95-19.21L1522.49,439a11.25,11.25,0,1,1,15.91,15.92L462.27,1531.05A11.2,11.2,0,0,1,454.31,1534.35Z"/><path class="cls-2" d="M856.83,1027.9c2.09.08,4.17.14,6.26.14l6.27-.06c2.09,0,4.18-.09,6.27-.19s4.17-.3,6.26-.46,4.16-.35,6.24-.45,4.17-.2,6.26-.21,4.17,0,6.26.11,4.19.12,6.28.11a109,109,0,0,0,12.49-1.05c1-.13,2.07-.3,3.1-.47s2.07-.33,3.1-.53c2-.4,4.1-.84,6.13-1.39l0-.33c-2.11-.08-4.2-.07-6.29,0-1,0-2.08,0-3.12.08s-2.08.06-3.12.13l-3.11.13-3.11.2c-2.08.09-4.14.28-6.21.52s-4.13.51-6.2.8-4.14.49-6.21.64-4.16.16-6.24.16-4.17-.12-6.25-.23c-4.16-.28-8.31-.52-12.46-.65l-6.23-.27c-2.07-.11-4.15-.17-6.22-.21s-4.16-.09-6.24-.08-4.15,0-6.24,0-4.16,0-6.25.08-4.18.1-6.27.25l0,.32c4.12.86,8.26,1.43,12.41,1.92S852.66,1027.69,856.83,1027.9Z"/><path class="cls-2" d="M840,1054.58c3,.28,6,.54,9,.77s6,.36,9,.5,6,.14,9,.14l9-.13c3-.1,6-.2,9-.35s6-.45,9-.68,6-.56,9-.75,6-.46,9-.6,6-.28,9-.34,6-.22,9-.4,6-.54,8.94-.93l4.45-.64,4.44-.7c1.48-.26,2.95-.55,4.42-.83s2.94-.57,4.41-.88c2.93-.66,5.85-1.36,8.74-2.16l-.06-.33c-3,.18-6,.45-9,.77-1.49.13-3,.26-4.46.43s-3,.3-4.45.48l-4.45.46-4.44.52c-3,.28-5.92.66-8.87,1.1s-5.91.86-8.86,1.32-5.93.78-8.9,1.08-6,.41-8.94.54-6,.07-9,.07-6-.14-9-.15-6-.1-8.94-.12l-8.94-.2c-3-.11-6-.17-8.94-.22s-6-.14-8.93-.16-6-.15-8.95-.18-6-.16-9-.18-6-.13-9-.1l0,.32c2.95.54,5.92,1,8.88,1.45S837.05,1054.24,840,1054.58Z"/><path class="cls-2" d="M952.28,1075.07l-9.62,1.19c-3.21.37-6.41.81-9.6,1.27-6.4.93-12.79,2.07-19.23,2.65a193.32,193.32,0,0,1-19.4.74l-19.39-.27c-6.46-.1-12.91-.35-19.37-.51l-4.84-.13-4.84-.18c-3.23-.12-6.46-.22-9.69-.28s-6.51-.16-9.74-.14-6.46,0-9.7-.16l-.05.32a93,93,0,0,0,9.65,1.51l4.83.53c1.61.18,3.21.37,4.83.51,3.23.32,6.47.6,9.71.87l4.85.39c1.63.1,3.25.18,4.87.25,6.49.27,13,.25,19.49.11,3.25-.06,6.5-.16,9.74-.33s6.48-.44,9.72-.71c6.47-.55,12.93-1.08,19.4-1.47s13-.47,19.46-1c3.24-.26,6.47-.61,9.68-1.1l4.82-.72c1.6-.26,3.2-.55,4.8-.83a190.55,190.55,0,0,0,19-4.38l-.06-.32C965.11,1073.48,958.7,1074.31,952.28,1075.07Z"/><path class="cls-2" d="M959.86,1102.2c-1.63.17-3.26.35-4.89.55s-3.25.38-4.87.61l-4.88.56-4.87.61c-3.26.33-6.5.76-9.74,1.25s-6.48.92-9.73,1.42-6.51.82-9.77,1.15-6.54.43-9.82.56-6.56.08-9.84.07-6.55-.16-9.83-.19-6.55-.14-9.82-.18l-9.81-.29c-3.27-.16-6.54-.26-9.81-.34l-19.64-.64c-3.27-.14-6.55-.26-9.83-.34s-6.56-.25-9.86-.28l0,.32c3.24.6,6.49,1.13,9.74,1.63s6.53.86,9.8,1.24,6.55.65,9.83.93,6.56.45,9.85.63,6.58.22,9.87.26l9.88,0c3.29-.08,6.58-.16,9.87-.29s6.57-.43,9.85-.64,6.56-.56,9.84-.75,6.55-.48,9.83-.62,6.57-.32,9.86-.4,6.58-.3,9.87-.52,6.55-.63,9.81-1.07l4.88-.74,4.87-.8c1.62-.3,3.24-.63,4.85-.95s3.23-.65,4.83-1c3.21-.76,6.41-1.55,9.58-2.45l-.06-.32C966.38,1101.41,963.11,1101.79,959.86,1102.2Z"/><path class="cls-2" d="M705.66,946.71a16.38,16.38,0,0,0,2.78,2.14,43.16,43.16,0,0,0,6.07,3,96.73,96.73,0,0,0,12.67,4.06,113.55,113.55,0,0,0,13,2.47l0-.2a122.06,122.06,0,0,1-12.79-3.22,95.26,95.26,0,0,1-12.3-4.55,36.72,36.72,0,0,1-5.63-3.16,15.51,15.51,0,0,1-2.4-2,5.33,5.33,0,0,1-1.48-2.26,2.66,2.66,0,0,1,.55-2.32,9.3,9.3,0,0,1,2.22-2,42.42,42.42,0,0,1,5.72-3.13l-.06-.19a24.08,24.08,0,0,0-6.38,2.13,10.11,10.11,0,0,0-2.85,2.14,5,5,0,0,0-1,1.73,4.16,4.16,0,0,0-.12,2.1A6.72,6.72,0,0,0,705.66,946.71Z"/><path class="cls-2" d="M758.33,948.18a12.43,12.43,0,0,0,2.16,1.91,13.7,13.7,0,0,0,1.16.77c.39.26.79.48,1.19.7a46.18,46.18,0,0,0,4.94,2.33,87.62,87.62,0,0,0,10.28,3.27c13.91,3.51,28.16,4.91,42.37,5.6q10.67.42,21.34.23c7.1-.17,14.2-.45,21.28-1a398.51,398.51,0,0,0,42.22-5.32c-14.15.92-28.26,1.8-42.38,2.26-7,.19-14.11.39-21.16.34s-14.1-.09-21.13-.43-14.06-.77-21-1.5a203.77,203.77,0,0,1-20.8-3.15,98.59,98.59,0,0,1-10.09-2.7,43.49,43.49,0,0,1-4.79-1.92,15.56,15.56,0,0,1-4.14-2.69,3.44,3.44,0,0,1-1.09-1.76,2.1,2.1,0,0,1,.59-1.78,6.42,6.42,0,0,1,.84-.8,12.4,12.4,0,0,1,1-.68c.36-.21.74-.4,1.13-.58s.79-.34,1.19-.51a36.86,36.86,0,0,1,5-1.52c1.71-.43,3.46-.74,5.2-1a46.53,46.53,0,0,0-10.57,1.54c-.43.13-.87.25-1.3.42a10.81,10.81,0,0,0-1.28.53,8.16,8.16,0,0,0-2.39,1.62,3,3,0,0,0-.5.6,3.19,3.19,0,0,0-.41.72,3.43,3.43,0,0,0-.26,1.71A5.19,5.19,0,0,0,758.33,948.18Z"/><path class="cls-2" d="M1128.1,1290.66q-.25-70.22-1.47-140.4c-.83-46.8-1.87-93.6-3.59-140.41q-.61-17.55-1.43-35.11c-.52-11.71-1.1-23.42-1.82-35.15q-.52-8.8-1.18-17.63c-.23-3-.46-5.9-.74-8.87l-.45-4.48-.13-1.13-.06-.57-.1-.75a25,25,0,0,0-.64-3.12,34.77,34.77,0,0,0-4.84-10.15,62.44,62.44,0,0,0-6.31-7.76,120.13,120.13,0,0,0-14-12.38,309.23,309.23,0,0,0-29.91-19.85c-10.18-6-20.5-11.72-30.84-17.28s-20.71-11-30.9-16.54c-3.22-1.77-6.44-3.56-9.58-5.4q2.4-1.51,4.76-3.28A51.06,51.06,0,0,0,1000,806a33.57,33.57,0,0,0,4.79-5.86,24,24,0,0,0,2-4c.48-1.32.78-2.35,1.08-3.42.59-2.11,1-4.14,1.44-6.21a69.67,69.67,0,0,0,1.35-12.88,37,37,0,0,0-.69-7.41,23,23,0,0,0-1.36-4.37,16.69,16.69,0,0,0-3.18-4.94l-.31.3a32.39,32.39,0,0,0-3.92-9.71,55.44,55.44,0,0,0-5.83-8q-1.61-1.84-3.27-3.54c.14-.8.25-1.6.31-2.41,0-.57.08-1.14.06-1.71V731l0-.62c0-1.49,0-3.29-.14-5.16a40.05,40.05,0,0,0-.72-6,22.5,22.5,0,0,0-2.43-6.57,17,17,0,0,0-2-2.82,27.57,27.57,0,0,0,3.7-7.15,20,20,0,0,0,1-5.59v-.74a5.69,5.69,0,0,0,0-.6l0-1.14q-.06-1.16-.18-2.31a32.13,32.13,0,0,0-2.39-9.54,26.12,26.12,0,0,0-6-8.51h0c.06-.27.11-.54.17-.81.1-.55.18-1.12.25-1.68s.1-1.15.12-1.73v-1.63c0-.87.05-2.14.09-3.72a30.57,30.57,0,0,0-.3-5.71,19.55,19.55,0,0,0-2.57-7.19c0-.09-.11-.17-.16-.25a21.1,21.1,0,0,0-1.07-1.94,31.34,31.34,0,0,0-6.55-7.46,52.38,52.38,0,0,0-7.16-5,74.61,74.61,0,0,0-7.3-3.79A122.52,122.52,0,0,0,944,627.92q-7.46-2.25-15-3.81c-5-1-10-1.89-15-2.61s-10-1.3-15.07-1.7c-10-.83-20.11-1.23-30.15-1.08-5,.06-10,.21-15,.5s-10,.7-15,1.23-10,1.2-14.93,2-9.91,1.7-14.82,2.82a170.41,170.41,0,0,0-28.94,9,87.67,87.67,0,0,0-13.63,7.14,48.46,48.46,0,0,0-6.21,4.84,26,26,0,0,0-5.1,6.34,14.51,14.51,0,0,0-2,8.2,13.47,13.47,0,0,0,.27,1.8,14.75,14.75,0,0,0,2.78,5.75,25.13,25.13,0,0,0,5.66,5.17,41.2,41.2,0,0,0,6.5,3.65h0a50.48,50.48,0,0,1-5.7-4.63,23.43,23.43,0,0,1-4.41-5.55,11.4,11.4,0,0,1-1.57-6.25,10.8,10.8,0,0,1,2.26-5.72,22,22,0,0,1,4.77-4.55,42.58,42.58,0,0,1,5.91-3.54,84.45,84.45,0,0,1,13.17-5.14c4.55-1.39,9.2-2.55,13.9-3.5s9.44-1.78,14.2-2.44,9.56-1.19,14.36-1.62,9.62-.7,14.44-.93a372.68,372.68,0,0,1,57.7,2,263.37,263.37,0,0,1,28.21,4.67c4.62,1,9.18,2.21,13.62,3.59A105,105,0,0,1,952,648.27a61.73,61.73,0,0,1,5.8,3,35.66,35.66,0,0,1,4.94,3.4,15.09,15.09,0,0,1,3.22,3.51,5.78,5.78,0,0,1,.67,1.4,3.65,3.65,0,0,1,.17,1.07,3.82,3.82,0,0,1-.21,1.18,7.42,7.42,0,0,1-.78,1.59,17.6,17.6,0,0,1-3.4,3.76,52.3,52.3,0,0,1-10.72,6.79A106.75,106.75,0,0,1,939,679.17c-4.42,1.51-8.94,2.88-13.54,4.06s-9.25,2.21-14,3.12-9.43,1.72-14.19,2.38-9.55,1.24-14.36,1.69-9.63.79-14.46,1.07l-3.63.17-3.62.12c-2.41.1-4.82.07-7.24.12s-4.84,0-7.26,0-4.85-.13-7.27-.26a281.81,281.81,0,0,1-57.93-8.51h0a181.92,181.92,0,0,0,27.91,10.23c4.78,1.4,9.63,2.52,14.5,3.61,2.44.51,4.88,1,7.34,1.43,1.23.22,2.46.46,3.69.65l3.71.59c1.23.21,2.47.36,3.71.52l3.72.48c2.49.26,5,.56,7.48.77s5,.42,7.5.53l3.76.2,3.75.13c5,.16,10,.16,15,0s10-.35,15.06-.76,10-.94,15-1.62,10-1.57,15-2.62c2.89-.61,5.79-1.28,8.67-2l-.06,0a188.91,188.91,0,0,1-30.48,11.1,244.29,244.29,0,0,1-32.21,6.5c-21.78,2.88-44.1,3.49-66.06.58-5.49-.74-10.94-1.71-16.33-3a117,117,0,0,1-15.86-4.85,61.26,61.26,0,0,1-14.54-7.83A28.26,28.26,0,0,1,756,692a17.16,17.16,0,0,1-2.3-4.31c.15-.23.3-.47.44-.72l-.25-.38-.52.06a14.38,14.38,0,0,1-.43-2.3,13.83,13.83,0,0,0,.24,2.23s0,.07,0,.11a13.69,13.69,0,0,0-3.31,1,16.19,16.19,0,0,0-3.51,2.16,11.18,11.18,0,0,0-2.73,3.25,19,19,0,0,0-1.63,4.08,12.53,12.53,0,0,0-.47,3.38c-.05.25-.1.5-.14.75a25.12,25.12,0,0,0,0,7.14c.13,1.16.32,2.29.5,3.4l.29,1.66c0,.27.1.56.17.86s.15.59.23.88a29.67,29.67,0,0,0,5.15,9.84c.57.75,1.18,1.46,1.81,2.15.18.2.37.39.56.58a30.07,30.07,0,0,0-3.16,1.77,14.88,14.88,0,0,0-3.16,2.72,10.34,10.34,0,0,0-.67.89,8.89,8.89,0,0,0-1.19,2.59,7,7,0,0,0-.07,3,8.44,8.44,0,0,0,.6,1.84c-.82.6-1.63,1.21-2.42,1.86a36.25,36.25,0,0,0-6.43,6.71,25.77,25.77,0,0,0-4.09,8.47,24.27,24.27,0,0,0-.76,4.6c0,.19,0,.37,0,.56-.16.74-.3,1.49-.42,2.24a77.75,77.75,0,0,0-.87,11.3,99.76,99.76,0,0,0,.48,11.33,30.34,30.34,0,0,0,1,5.62,20.79,20.79,0,0,0,2.47,5.19,37.6,37.6,0,0,0,7.81,8.41,68.87,68.87,0,0,0,8.51,5.88c-2.22,1.48-4.47,2.9-6.74,4.32-7.67,4.78-15.49,9.35-23.28,14s-15.58,9.24-23.33,13.94-15.46,9.47-23,14.44-15.1,10.08-22.35,15.57c-3.62,2.75-7.18,5.6-10.61,8.61a101.09,101.09,0,0,0-9.77,9.65,52.17,52.17,0,0,0-4.22,5.54,27,27,0,0,0-3.12,6.4,19.06,19.06,0,0,0-.73,3.54c-.15,1.14-.28,2.28-.4,3.42-.23,2.27-.42,4.53-.58,6.8-.67,9.06-1.13,18.12-1.55,27.17s-.77,18.11-1.09,27.17q-.94,27.17-1.7,54.34-1.51,54.33-2.52,108.68l-.91,54.35q-.41,27.18-.72,54.35-.63,54.35-.78,108.71t0,108.73q.15,27.2.53,54.4.21,13.61.58,27.24c.14,4.56.29,9.11.5,13.69.11,2.29.24,4.59.4,6.92.08,1.17.17,2.35.29,3.56.06.6.13,1.23.21,1.87l.14,1,.2,1.13.1.57.3.68a45.86,45.86,0,0,0,5,8.46,69.27,69.27,0,0,0,6,7.08,117.25,117.25,0,0,0,13.44,11.82,217.85,217.85,0,0,0,29.52,18.62,340.62,340.62,0,0,0,31.35,14.55c10.65,4.34,21.48,8.18,32.43,11.6a450.06,450.06,0,0,0,67,15.38,415.73,415.73,0,0,0,68.74,4.7,650.19,650.19,0,0,0,68.41-4.63c11.36-1.4,22.69-3.12,34-5.24s22.51-4.59,33.64-7.56,22.17-6.4,33.05-10.45a259.55,259.55,0,0,0,31.93-14.29c5.18-2.78,10.27-5.8,15.22-9.09a142.5,142.5,0,0,0,14.35-10.81,111.65,111.65,0,0,0,12.93-13q3-3.57,5.64-7.45a89.5,89.5,0,0,0,4.86-8.13l.27-.52.17-.5a17.75,17.75,0,0,0,.58-2l.19-.8.13-.7.13-.69.1-.64c.07-.43.14-.86.19-1.26.24-1.64.39-3.16.56-4.71.3-3.06.52-6,.72-9,.4-5.95.7-11.84,1-17.73.51-11.77.87-23.49,1.17-35.22.6-23.45,1-46.86,1.26-70.28s.44-46.82.53-70.23S1128.18,1314.06,1128.1,1290.66ZM744.85,736.44a5.9,5.9,0,0,1,.69-1.74,10.47,10.47,0,0,1,2.91-3,23.7,23.7,0,0,1,2.26-1.47l.16-.09,1-.6a37.33,37.33,0,0,0,8.55,5.71q-.76-.48-1.5-1a34.91,34.91,0,0,1-8.32-7.94,28.73,28.73,0,0,1-5.29-11.73q-.08-.39-.12-.78c0-.25-.06-.51-.11-.79l-.27-1.66c-.13-.87-.25-1.73-.36-2.59.09.12.17.24.26.35a21.47,21.47,0,0,0,1.88,2.14l.58.57a.46.46,0,0,0,.33.08l0,0,.19-.15a32.62,32.62,0,0,1-1.78-3.34,16.26,16.26,0,0,1-1.13-3.46,10.71,10.71,0,0,1-.21-3.41,9.15,9.15,0,0,1,.85-3.15,10.2,10.2,0,0,1,1.89-2.7c.75-.83,1.5-1.66,2.23-2.58s1.5-1.86,2.27-2.86c.55-.72,1.11-1.46,1.64-2.28a18,18,0,0,0,2,4.36,29.29,29.29,0,0,0,5.55,6.46A62.6,62.6,0,0,0,775.38,708a119.38,119.38,0,0,0,15.86,6.22c5.41,1.72,10.92,3.13,16.47,4.32A233.9,233.9,0,0,0,841.49,723q8.52.54,17.08.53c5.69,0,11.4-.2,17.1-.61a254.9,254.9,0,0,0,34-4.71A200.68,200.68,0,0,0,943,708.35a129.07,129.07,0,0,0,16.09-7.68,86.1,86.1,0,0,0,7.76-5,59.1,59.1,0,0,0,7.4-6.25,45.12,45.12,0,0,0,3-3.36l-.12.49a15.76,15.76,0,0,1-3.31,5.91,33.36,33.36,0,0,1-5.31,4.93,76.19,76.19,0,0,1-13,7.68,152.06,152.06,0,0,1-14.25,5.85,291.34,291.34,0,0,1-29.94,8.54c-10.14,2.37-20.4,4.51-30.79,6-5.19.76-10.4,1.41-15.64,1.87s-10.51.89-15.77,1.18-10.55.45-15.82.51-10.56.06-15.84-.11A256.28,256.28,0,0,1,786,726.16a145.69,145.69,0,0,1-15.48-3.24,77.26,77.26,0,0,1-14.82-5.46l-.56,1a64.37,64.37,0,0,0,7.12,3.86c2.44,1.14,4.94,2.19,7.48,3.09a144.39,144.39,0,0,0,15.5,4.62,240.49,240.49,0,0,0,31.88,5.24q8,.81,16.11,1.22c5.39.25,10.78.37,16.17.39s10.78-.1,16.17-.28,10.8-.55,16.2-1A237.93,237.93,0,0,0,914,730.76q8-1.8,15.79-4.31c5.2-1.7,10.34-3.63,15.38-5.83a123,123,0,0,0,14.74-7.6,82.35,82.35,0,0,0,7-4.71,58.38,58.38,0,0,0,6.44-5.58,37.53,37.53,0,0,0,2.91-3.23,31.11,31.11,0,0,0,2.54-3.61c.23-.38.45-.77.66-1.16l.06.69,0,.85c0,.12,0,.31,0,.39v.24a7.3,7.3,0,0,1-.31,2.21,17,17,0,0,1-2.68,5.2,38.3,38.3,0,0,1-4.54,5.13,76,76,0,0,1-11.73,8.93,127.53,127.53,0,0,1-13.37,7.31q-6.95,3.32-14.22,6a227.75,227.75,0,0,1-29.84,8.8,262.72,262.72,0,0,1-30.88,5c-5.19.49-10.42,1-15.65,1.37-2.61.2-5.23.29-7.86.44s-5.24.2-7.87.22l-3.94.05c-1.31,0-2.63,0-3.94,0-2.63,0-5.26-.1-7.89-.17-5.25-.23-10.51-.52-15.75-1.06a200.65,200.65,0,0,1-31.19-5.38,196.53,196.53,0,0,0,26.47,6.93c1.46.28,2.93.55,4.4.8,5.23.94,10.51,1.64,15.8,2.26,2.65.28,5.3.58,8,.78,1.33.11,2.66.24,4,.33l4,.25c2.66.18,5.33.25,8,.38s5.34.15,8,.15c1.9,0,3.8,0,5.71,0,.77,0,1.54,0,2.3,0,1.34,0,2.68,0,4-.08s2.67-.13,4-.22a270.94,270.94,0,0,0,32-3.85,236.81,236.81,0,0,0,31.37-7.89C941,739,946.1,737.15,951.12,735a140.7,140.7,0,0,0,14.77-7.32c2.82-1.63,5.6-3.38,8.31-5.33a19.74,19.74,0,0,1-4.59,6,45.4,45.4,0,0,1-7,5.23,101.74,101.74,0,0,1-16.31,7.85q-4.27,1.66-8.65,3.09c-2.92,1-5.87,1.86-8.83,2.7-11.88,3.33-24,6-36.23,8.36a292.86,292.86,0,0,1-37.14,4.66,298.75,298.75,0,0,1-37.49-.21,252.72,252.72,0,0,1-37.17-5,145.08,145.08,0,0,1-18-5,72.9,72.9,0,0,1-8.51-3.61,28.42,28.42,0,0,1-7.32-5,7.83,7.83,0,0,1-2.06-3.27A3.91,3.91,0,0,1,744.85,736.44Zm-.37,7.24a23.54,23.54,0,0,0,3.79,3.44,42.36,42.36,0,0,0,4.15,2.73,77.24,77.24,0,0,0,8.76,4.31,148.33,148.33,0,0,0,18.31,6.21c24.85,6.6,50.59,9.14,76.29,8.73a379,379,0,0,0,38.5-2.7,193.48,193.48,0,0,0,37.85-8.48c3.09-1,6.14-2.18,9.18-3.39s6-2.56,9-4,5.86-3,8.69-4.74a74.86,74.86,0,0,0,8.23-5.73,48.59,48.59,0,0,0,3.82-3.38,37.6,37.6,0,0,0,3.5-3.83,30.33,30.33,0,0,0,2.94-4.45,20.3,20.3,0,0,0,1.89-5.18c0-.05,0-.11,0-.16a29,29,0,0,1,.42,3.06c.13,1.49.18,3,.3,4.92l.07,1a7.12,7.12,0,0,1,0,.8,11.38,11.38,0,0,1-.16,1.64,13.51,13.51,0,0,1-1.06,3.35,24.3,24.3,0,0,1-4.68,6.62,63.22,63.22,0,0,1-14.83,10.9,135.67,135.67,0,0,1-17.65,8A239.11,239.11,0,0,1,903.7,774a341.65,341.65,0,0,1-39.5,5.3,307.37,307.37,0,0,1-39.92.42,227.86,227.86,0,0,1-39.53-5.51,128.88,128.88,0,0,1-19-6,72.65,72.65,0,0,1-8.9-4.37,38.2,38.2,0,0,1-7.83-5.9,20.65,20.65,0,0,1-3-3.8,13.5,13.5,0,0,1-1.68-4.45c-.11-.76-.18-1.63-.27-2.47l-.3-2.5c-.09-.74-.17-1.47-.24-2.21C743.84,742.9,744.15,743.3,744.48,743.68Zm228.73,16.21a5.57,5.57,0,0,1-.44,1,10.83,10.83,0,0,1-1.76,2.26,31.19,31.19,0,0,1-6.12,4.7c-.81.49-1.64,1-2.49,1.43l0-.3c-.07-.93-.06-2,0-3.07.71-.33,1.41-.68,2.11-1A94.55,94.55,0,0,0,973.21,759.89Zm-61.74,24.4a369.91,369.91,0,0,1-38.62,4.07c-13,.69-26,.83-39.07.45a359.56,359.56,0,0,1-38.95-3.15c-6.45-.91-12.86-2-19.18-3.53-3-.71-5.92-1.49-8.83-2.38q-1.91-.57-3.78-1.23.26-3,.46-5.92c0-.9.06-1.79,0-2.66l1.2.56c.87.4,1.75.79,2.63,1.17a137,137,0,0,0,16.53,5.76,231.11,231.11,0,0,0,40,7.26,311.83,311.83,0,0,0,40.67,1.23,348.18,348.18,0,0,0,40.58-3.77,249.17,249.17,0,0,0,40-9.37c3.2-1.06,6.4-2.22,9.56-3.5v.13c.05,1.16.16,2.29.3,3.41-2.1.89-4.26,1.71-6.45,2.48a181.44,181.44,0,0,1-18.18,5.26C924.13,782,917.82,783.25,911.47,784.29ZM761.55,772.48q-.16,2.68-.36,5.37c-1.35-.5-2.68-1-4-1.6a46.71,46.71,0,0,1-8.36-4.6l-1-.72a16.26,16.26,0,0,1-5.11-6.08,10.33,10.33,0,0,1-.83-4.38,6.92,6.92,0,0,1,1.29-4.22,8.38,8.38,0,0,1,1.43-1.49l.05.09a21.84,21.84,0,0,0,3.06,4.23,34.25,34.25,0,0,0,3.08,2.95,46.15,46.15,0,0,0,4.89,3.59c1.86,1.2,3.79,2.29,5.76,3.31C761.57,770.13,761.6,771.32,761.55,772.48Zm-21.32,33.19a36,36,0,0,1-8-7.69,19.79,19.79,0,0,1-2.66-4.86,23.17,23.17,0,0,1-1.15-5.46,101.14,101.14,0,0,1-.64-11.28,78.6,78.6,0,0,1,.7-11.27l.24-1.46v.93c0,.38,0,.76,0,1.13s.05.8.11,1.2a18,18,0,0,0,3.56,8.48,31.24,31.24,0,0,0,6.27,6.11,65.54,65.54,0,0,0,14.37,7.81c-9.54-4.45-19.07-10.57-20.56-17.72a18.43,18.43,0,0,1,.71-9.48,19.09,19.09,0,0,1,3.69-7.41,40.71,40.71,0,0,1,6-6.94c0,.68.07,1.35.14,2.09a14.28,14.28,0,0,0,1.21,4.09,9.45,9.45,0,0,0-1.93,1.55,7.24,7.24,0,0,0-1.47,2.25,10,10,0,0,0-.68,2.59,11,11,0,0,0,.6,5.3,15.59,15.59,0,0,0,2.67,4.57,25.89,25.89,0,0,0,3.7,3.63,49.21,49.21,0,0,0,8.58,5.47,115.17,115.17,0,0,0,18.7,7.3c6.39,1.93,12.87,3.5,19.38,4.85a369.79,369.79,0,0,0,39.44,5.71c13.24,1.22,26.49,1.91,39.83,2.06a378.94,378.94,0,0,0,40.09-1.65c6.69-.65,13.38-1.5,20.07-2.64a194.29,194.29,0,0,0,20.06-4.44c3.34-.94,6.68-2,10-3.24a83.85,83.85,0,0,0,10-4.42,48.41,48.41,0,0,0,9.91-6.71,29.45,29.45,0,0,0,4.66-5.21,22.37,22.37,0,0,0,3.42-7.51c.1-.42.19-.85.26-1.28q.51.35,1,.72a8.22,8.22,0,0,1,2.85,4.13,11.44,11.44,0,0,1-.22,6.34,26.61,26.61,0,0,1-3.29,6.89l.9-.41c-.14,1.19-.33,2.4-.54,3.6-.29,1.65-.65,3.31-1,4.84-.2.75-.43,1.53-.59,2a7,7,0,0,1-.47,1.12,16.1,16.1,0,0,1-2.2,3,34.5,34.5,0,0,1-3.29,3.17,64.84,64.84,0,0,1-8.2,5.84c-3,1.81-6.08,3.48-9.29,5A170,170,0,0,1,947,816.48a259,259,0,0,1-43,10,336.58,336.58,0,0,1-44.49,3.46,372.47,372.47,0,0,1-44.8-2,248.29,248.29,0,0,1-44-8.43,129.13,129.13,0,0,1-20.88-8.07A69.09,69.09,0,0,1,740.23,805.67Zm159,48.63q8.61-.18,17.22-.61t17.2-1.21q8.6-.69,17.19-1.58,7.33-.78,14.58-2.11c7.05,5,14.28,9.6,21.53,14.14q3.6,2.25,7.22,4.48l-5,1-5,1-5,1c-3.35.62-6.68,1.3-10,2l-10,1.93L949,876q-12.53,1.93-25.14,3.26l-1.18-.08c-19.22-1.13-38.46-1.49-57.68-1.22s-38.41,1.23-57.55,2.94-38.19,4.15-57.08,7.63c-7.78,1.44-15.52,3.06-23.22,4.91Q721,891.29,714.85,889q-5.9-2.21-11.72-4.55,4.77-3,9.58-6l15.77-9.71q7.6,1.56,15.21,2.79c9.57,1.58,19.15,2.88,28.72,4.23-9.33-2.53-18.68-5-27.92-7.73q-5-1.47-9.89-3.06c6.87-4.23,13.72-8.5,20.47-12.94q2.83-1.87,5.66-3.8c3.9.43,7.79.75,11.66,1,9.17.64,18.28,1,27.4,1.58-8.86-2.22-17.82-4.19-26.62-6.42-1.72-.44-3.43-.88-5.13-1.34,2.48-1.83,4.92-3.72,7.3-5.7a54.44,54.44,0,0,0,8.85-9l.55-.81a284.13,284.13,0,0,0,29.14,6.3,378.63,378.63,0,0,0,45.49,4.57,347.1,347.1,0,0,0,45.92-.91,275.18,275.18,0,0,0,40.4-6.51,35.84,35.84,0,0,0,4.53,5.42,92.12,92.12,0,0,0,9.09,7.83q-4.59.71-9.18,1.47-4.21.72-8.45,1.36c-2.82.41-5.65.82-8.48,1.19q-8.49,1.08-17,1.9t-17.08,1.47q-8.55.64-17.13,1c-5.71.25-11.44.44-17.16.57v.52C876.26,854.38,887.74,854.47,899.22,854.3Zm112.08,154.07c1.86-.23,3.71-.53,5.55-.84s3.67-.72,5.5-1.12,3.62-.88,5.44-1.33l5.39-1.51c1.78-.56,3.56-1.13,5.33-1.73,1-.34,1.94-.7,2.91-1.06q3.42-.87,6.77-2c1.75-.61,3.46-1.3,5.16-2l1.11-.24q7.33-1.68,14.64-3.62,3.81-1,7.62-2.11.09,7.23.17,14.47c-11.23,6.91-22.79,13.36-34.73,19.23l-5,1.54-6.73,1.94q-3.37.94-6.72,2c-2.24.66-4.46,1.37-6.68,2.08-4.44,1.44-8.89,2.87-13.32,4.39-2.22.73-4.44,1.51-6.65,2.3s-4.43,1.58-6.62,2.47l.11.45c2.35-.23,4.68-.56,7-.89s4.65-.77,7-1.21,4.61-1,6.91-1.45l6.86-1.66c2.27-.62,4.54-1.24,6.8-1.92s4.47-1.44,6.7-2.2l6.64-2.41.9-.33c12.63-2.52,25.21-5.69,37.68-9.4q.06,6.51.11,13-11.55,6.64-23.59,12.58-10,4.9-20.24,9.36a14.13,14.13,0,0,0-1.43.35h0l-.11,0c-2.11.87-4.25,1.65-6.42,2.41-4.92,1.25-9.82,2.54-14.72,3.91l-7.41,2.08c-2.47.73-5,1.39-7.43,2.13-4.94,1.43-9.89,2.89-14.81,4.56l.09.44c5.18-.37,10.32-1,15.43-1.86,2.56-.38,5.1-.87,7.65-1.33s5.07-1,7.6-1.58q7.57-1.7,15-4,4.71-1.52,9.38-3.09,10.34-2.33,20.59-5.16t20.56-6.2c0,.58,0,1.16,0,1.74l.06,11a450.53,450.53,0,0,1-66,30l-1.13.28h0l-.19,0-.39.11-.53.14-1.1.27-2.25.54-4.5,1.11c-3,.71-6,1.51-9,2.25s-6,1.58-9,2.42-6,1.68-9,2.59l.08.45c3.13-.15,6.23-.48,9.32-.83s6.18-.78,9.26-1.22,6.15-.93,9.21-1.49l4.6-.83,2.3-.45,1.16-.25.61-.14.73-.18-.23.06c1.94-.46,3.89-.9,5.82-1.39s3.85-1.08,5.76-1.63l5.69-1.84,5.65-2,3.54-1.29q20-4.9,39.74-11.67l.06,12.57c-2.87,1.59-5.75,3.16-8.68,4.66-9.07,4.67-18.41,8.93-27.94,12.84q-7.15,2.92-14.43,5.62c-2.41.91-4.92,1.78-7.37,2.68s-4.84,2-7.27,2.92q-4.78,1.88-9.66,3.59l-2.09.58c-5.66,1.57-11.34,3-17,4.5l-6.19,1.53c-5.95,1.06-11.93,2-17.91,2.81L949.7,1131c-1.53.2-3.06.35-4.6.5l-4.59.47c-6.12.69-12.27,1.13-18.4,1.68-12.29.88-24.59,1.32-36.93,1.77s-24.63.69-36.95.56-24.64-.71-37-1.76l0,.33a312.64,312.64,0,0,0,36.91,4c12.37.66,24.77.66,37.14.35,6.19-.18,12.36-.46,18.55-.8l4.63-.26,4.64-.37c3.08-.25,6.17-.47,9.26-.75,12.33-1.18,24.61-2.85,36.79-5.08,1.52-.24,3-.54,4.56-.84l4.55-.89.44-.09c4.94-.5,9.85-1.2,14.75-2,2.91-.48,5.81-1.07,8.71-1.65s5.78-1.27,8.66-1.93q4.89-1.18,9.71-2.54l2.55-.58c2.53-.6,5.13-1.25,7.56-1.86s5-1,7.61-1.6c5.13-1.1,10.23-2.31,15.34-3.6,10.2-2.57,20.35-5.55,30.38-9,1.18-.41,2.36-.82,3.54-1.25l0,9.34a440.52,440.52,0,0,1-43.2,21.15A487,487,0,0,1,975,1154.91l-.31.07-1.51.33c-2.66.52-5.33,1-8,1.43-11.7,2-23.48,3.38-35.26,4.6s-23.61,2-35.44,2.32a648,648,0,0,1-71-1.47h-.08c-2,0-4,.09-5.94.17-2.2-.23-4.37-.3-6.53-.44a39.32,39.32,0,0,1-6.49-.82l-.09.31a35.34,35.34,0,0,0,6.49,1.36c2.19.3,4.38.52,6.51.9h.09c2,.08,3.93.13,5.9.18,11.79,1.5,23.66,2.61,35.56,3.16,3,.11,6,.29,8.93.34l8.94.14q8.94,0,17.88-.36c11.91-.56,23.8-1.52,35.63-3,11.36-1.44,22.63-3.49,33.83-5.76,8.83-1.13,17.62-2.68,26.34-4.53,15.85-2.35,31.66-5.46,47.33-9.4q20.09-5.06,39.81-12c0,2.91,0,5.81,0,8.72a441.05,441.05,0,0,1-44.89,22.15q-18.69,8-38.18,14.3l-11.28,2.78c-3.34.85-6.7,1.65-10,2.44s-6.72,1.56-10.08,2.33c-4.14.93-8.29,1.82-12.45,2.72q-7.23.94-14.48,1.69c-16.26,1.67-32.55,2.95-48.88,3.21-4.08.1-8.16.14-12.24.17s-8.16,0-12.23-.09l-3.05,0-3-.14-6.12-.28q-6.14-.27-12.25-.63c-4.09-.22-8.17-.46-12.24-.75s-8.16-.56-12.24-.91-8.14-.75-12.22-1.13-8.13-.88-12.21-1.33l-.05.32q12.06,2.42,24.28,4,6.11.81,12.22,1.49c4.08.44,8.16.82,12.25,1.19s8.18.65,12.27.94c2.05.15,4.09.28,6.15.4l3.08.18,3.09.08c8.23.28,16.44.22,24.66,0s16.42-.77,24.6-1.5,16.35-1.61,24.47-2.81q7-1,13.91-2.24,6.66-.46,13.29-1.34c3.45-.42,6.88-1,10.32-1.54s6.85-1.25,10.26-1.93,6.8-1.47,10.17-2.32q1.3-.31,2.61-.66,19.66-3.35,39.13-8.35,20.92-5.38,41.43-12.79,0,3.67,0,7.35v.61c-2,1.17-4.06,2.31-6.11,3.41l-8.41,4.47c-5.59,2.93-11.21,5.74-16.89,8.37q-4.28,2-8.59,3.8c-1.42.61-2.9,1.2-4.37,1.79l-4.42,1.76c-11.83,4.68-23.78,9-35.92,12.89q-2.61.82-5.22,1.61c-2.11.46-4.23.92-6.34,1.4q-5.62,1.14-11.24,2.38l-11.27,2.28c-3.77.71-7.54,1.38-11.31,2.15s-7.29,1.29-10.94,2l-3.94.4c-11.69,1.16-23.4,2.11-35.14,2.47s-23.47.48-35.2.23-23.47-.87-35.19-1.78H827l-5.92.14c-3.24-.21-6.49-.57-9.75-.94s-6.57-.72-9.88-.9l-5.31-.72-5.35-.68,0,.32,5.28,1.1,5.28,1.08h0c3.26.41,6.51,1,9.77,1.48s6.53,1,9.84,1.43h.1l5.86.14c11.73,1.33,23.5,2.28,35.3,2.71l8.86.24c3,0,5.91,0,8.87,0s5.91-.08,8.86-.19l4.43-.14c1.48,0,2.95-.16,4.43-.23,11.8-.59,23.58-1.64,35.29-3.26q3.36-.46,6.72-1c2.77-.21,5.54-.43,8.31-.68,3.85-.41,7.68-.9,11.52-1.36l11.46-1.76c3.8-.72,7.6-1.44,11.39-2.22q3.47-.8,6.92-1.63c1.64-.26,3.27-.52,4.9-.8,12.71-2.13,25.35-4.82,37.9-7.83l4.71-1.15c1.57-.39,3.14-.77,4.74-1.2,3.18-.84,6.32-1.74,9.45-2.68,6.27-1.89,12.47-4,18.6-6.15l8-2.91c0,2.25,0,4.51,0,6.76a474.76,474.76,0,0,1-59.38,27A492.73,492.73,0,0,1,969,1237.87c-6,1.07-12,2.08-17.95,3.12-8,1.29-16,2.57-24.08,3.73l-5.59.82-2.74,0h-.14q-15.75,1.41-31.55,1.76l-7.9.16-7.9,0-7.9,0-7.9-.15c-10.54-.23-21.07-.79-31.59-1.53l-7.89-.62-7.89-.72-7.89-.77c-2.62-.3-5.25-.57-7.88-.84l0,.32q3.9.75,7.81,1.44l7.83,1.29,7.87,1.12,7.88,1c10.52,1.26,21.09,2.08,31.69,2.58l8,.26,7.95.14,8,0,8-.18q15.87-.6,31.68-2.29l5.87-.07h.14c2.49-.28,5-.59,7.48-.93,6.51-.52,13-1.25,19.49-2,7.91-1.06,15.82-2.3,23.65-4q23.08-3.3,45.94-8.78a492.42,492.42,0,0,0,56.17-17.09l0,7.38a428.45,428.45,0,0,1-66.49,29.6,464.78,464.78,0,0,1-47.55,13.76c-4.45.75-8.91,1.43-13.37,2.07-4.75.71-9.5,1.4-14.27,2s-9.53,1.25-14.3,1.8-9.56,1-14.35,1.54l-3.38.31-1,.06c-1.45.08-2.91.1-4.37.15l-8.74.26c-2.92.13-5.83.13-8.75.15l-8.75.08c-2.91,0-5.83-.06-8.75-.08-23.33-.28-46.64-1.86-69.93-4.33l0,.32a446.51,446.51,0,0,0,69.92,7.37c2.93.07,5.86.19,8.8.21l8.8-.08c5.88,0,11.74-.34,17.6-.6,1.47-.08,2.94-.12,4.4-.23l4.39-.33,1.14-.09c4.45-.14,8.91-.4,13.36-.69,4.83-.34,9.66-.78,14.48-1.27,2.41-.26,4.82-.55,7.22-.85s4.81-.65,7.2-1l4.37-.7a475.81,475.81,0,0,0,58.81-9.47,444.83,444.83,0,0,0,63.44-19.37l0,5.44a419.17,419.17,0,0,1-67.93,30.55,491.14,491.14,0,0,1-51.79,14.91h0l-14.94,2.11-7.48.92-7.49,1-15,1.64c-5,.45-10,.85-15.05,1.35l-6.59.46-9.87.21c-3.3,0-6.6.06-9.91.06a675.6,675.6,0,0,1-79.21-4.71l0,.32a430.6,430.6,0,0,0,79.25,7.88c12.3.08,24.59-.43,36.85-1.36l4.89-.19,15.17-1.11c5.05-.54,10.09-1.09,15.13-1.71l2.76-.44a503.74,503.74,0,0,0,66.62-9.66,441.45,441.45,0,0,0,64.54-19l0,3.66c-8.84,5-17.65,9.76-26.64,13.94l-2.7,1.25-2.94,1.21-6.09,2.55-6,2.55c-2,.83-4,1.67-5.85,2.43-7.84,3-16,5.88-24.13,8.55a514.43,514.43,0,0,1-49.8,13.54q-8.09,1.77-16.24,3.28l-3.55.44-7.92.94-7.92.86-7.93.77c-2.64.26-5.3.41-8,.64s-5.3.38-7.95.56l-.75,0q-8.08.25-16.18.25l-10.57-.07c-3.52,0-7-.14-10.56-.24a647,647,0,0,1-84.16-8.09l-.07.33a438.6,438.6,0,0,0,84.12,11.24c8.63.32,17.27.35,25.91.15,1.45,0,2.9,0,4.36.06l4,0c1.34,0,2.68,0,4,0,2.68-.06,5.36-.06,8-.19s5.36-.2,8-.37l8-.51,8-.72c2.67-.27,5.33-.61,8-.91,1.34-.14,2.66-.34,4-.53l4-.58c1.35-.19,2.7-.4,4-.62,2.71-.23,5.43-.47,8.14-.74a523.67,523.67,0,0,0,51.92-7.81c8.62-1.77,17.12-3.68,25.81-5.89,2.23-.62,4.3-1.22,6.43-1.84l6.26-1.85,6.17-1.78,3.2-.89,3.37-1.1c6.74-2.22,13.33-4.7,19.82-7.3l0,4.08c-1.57.86-3.14,1.71-4.73,2.56l-5.91,3.19-1.54.83-.78.43c-.11,0-.36.18-.17.09s.28-.1.07,0l-1.4.64-1.47.67c-4,1.76-8,3.49-12.12,5.18q-24.48,10.13-49.74,18.59c-16.82,5.61-33.86,10.62-51.16,14.64q-5.17,1.2-10.36,2.28l-15.51,1.62q-8.45.66-16.89,1.41l-16.92,1c-5.65.22-11.3.37-17,.63l-4.35,0-6.76-.09c-3.12-.13-6.24-.24-9.37-.42l-9.39-.51c-3.12-.21-6.25-.39-9.37-.65q-18.74-1.41-37.39-3.88c-6.22-.8-12.42-1.75-18.62-2.77s-12.37-2.13-18.55-3.27l-.07.32c3,.79,6.08,1.6,9.14,2.31s6.13,1.45,9.2,2.13c6.16,1.29,12.34,2.51,18.54,3.59q18.63,3.2,37.48,4.89c6.27.54,12.56,1.06,18.85,1.34,3.14.17,6.3.27,9.46.4s6.31,0,9.46,0c3,0,6-.07,9-.13l9.84.09,17.09-.5c5.68-.39,11.37-.78,17.05-1.24l8-1c6.15-.43,12.28-1,18.41-1.73,17.89-2.08,35.66-5.18,53.3-8.93s35.15-8.14,52.55-13.13c4.36-1.26,8.69-2.55,13.07-3.92l1.65-.53,1.72-.57,3.67-1.47,1.72-.68c0,1.39,0,2.78,0,4.18l-3,1.77c-3.37,1.94-6.7,3.72-10.07,5.28l-1.26.57-1.35.59-2.75,1.17-5.59,2.29c-15,6-30.41,11.64-45.85,16.9s-31,10.13-46.81,14.3c-7.87,2.07-15.81,4-23.79,5.5l-3,.55c-1,.19-2,.3-3,.47-2.06.32-4.1.69-6.13,1.06l-1.18.22-17.27,1.37c-6.13.28-12.25.62-18.38,1l-18.41.45c-5,0-10-.09-15-.1-6-.26-12-.63-17.94-1-15.11-1.09-30.17-2.83-45.18-5s-29.94-5-44.83-8.07l-.07.32c14.64,4.14,29.5,7.53,44.48,10.29s30.13,4.68,45.33,5.94l5.71.39,2.85.19,2.86.14,5.71.28c1.19,0,2.37.08,3.56.1l12.44.61,18.58.09c6.19-.24,12.38-.49,18.57-.79l18.51-1.7,6.22-.85h0c1-.05,2-.06,3.09-.14l3.14-.24c8.3-.68,16.52-1.72,24.72-3,16.39-2.49,32.64-5.71,48.81-9.3s32.22-7.58,48.27-12.08l6-1.74,3-.92,1.54-.48,1.61-.53c1.82-.61,3.61-1.27,5.37-2l0,3.22c-3.11,1.59-6.26,3.14-9.42,4.67-9.44,4.52-19.1,8.76-28.86,12.81s-19.63,7.92-29.57,11.56c-5,1.81-10,3.6-15,5.28-2.5.84-5,1.67-7.5,2.42s-5,1.58-7.55,2.28a384.41,384.41,0,0,1-57.33,11.86l-5.74.53q-8.73.57-17.45,1.23l-17.48.82c-4.88.11-9.77.19-14.66.31l-6.61-.15c-3.77-.18-7.53-.32-11.3-.47l-11.29-.67a632.43,632.43,0,0,1-89.67-12.54l-.08.32a449.8,449.8,0,0,0,89.5,15.7l11.37.67c3.79.15,7.58.29,11.38.4l3.62,0h.18c5.87.19,11.75.29,17.63.43l7.66-.12c9.5.32,19,.39,28.55.15a396.85,396.85,0,0,0,64.51-6.74c2.68-.48,5.33-1.08,8-1.61s5.33-1.15,8-1.77c5.29-1.23,10.52-2.57,15.76-3.94q15.67-4.12,31.19-8.91c10.35-3.19,20.66-6.6,30.93-10.38l.8-.3c0,.68,0,1.35,0,2q-8.49,4.41-17.23,8.5c-11.8,5.52-23.82,10.74-36,15.48q-9.12,3.57-18.32,6.72l-4.6,1.52-4.58,1.42c-1.54.49-3,.87-4.56,1.31l-1.14.32-1.2.31-2.4.61c-12.79,3.29-25.61,6.34-38.5,8.93q-9.68,2-19.4,3.55l-4.87.77-4.84.72c-3.25.38-6.5.8-9.78,1.14-13.11,1.42-26.29,2.43-39.5,2.91s-26.46.47-39.71-.09l-3.84-.19q-10.6-1.08-21.17-2.55l-15-2.32-14.91-2.77-14.84-3.16-14.74-3.57q-10.43-2.62-20.73-5.69c-4.86-1.91-9.69-3.86-14.48-5.89l-6.46-2.74-6.41-2.82-6.4-2.84-6.36-2.92c-2.1-1-4.2-2-6.27-3.09l-6.19-3.28c-2.06-1.07-4.12-2.15-6.25-3.08s-4.25-1.87-6.43-2.7l-3.26-1.24c-1.11-.39-2.2-.8-3.31-1.17l-1.2-.42q-.09-8.22-.16-16.43l.59.35c1.86,1,3.76,2,5.7,2.93s4,1.65,6,2.4l6.1,2.06c2,.66,4.06,1.36,6.08,2.08l6.06,2.09,6.08,2,6.14,1.86,6.15,1.77c8.25,2.25,16.54,4.28,24.92,5.83l.06-.2,1.36.22.09-.32-1.25-.57,0-.19c-7.86-3.24-15.66-6.51-23.34-10l-5.76-2.6-5.73-2.69-5.71-2.68-5.68-2.75c-1.87-.94-3.75-1.9-5.6-2.91l-5.51-3.07-2.78-1.49c-.93-.47-1.87-.94-2.82-1.37-1.9-.9-3.83-1.71-5.79-2.46l-3-1.11-2.49-.87q-.06-8.44-.1-16.9,2.54,1.41,5.16,2.65t5.6,2.32l5.72,2.05q2.88,1,5.71,2l5.71,2,5.72,2,5.77,1.81,5.78,1.74q6.79,2,13.65,3.7l1.2.38,3.11.92a119.71,119.71,0,0,0,12.65,2.94l.1-.31c-1.95-1-3.94-1.83-5.94-2.65-1-.42-2-.83-3-1.22s-2-.8-3-1.17l-3-1.14-3-1.09c-1.6-.6-3.23-1.13-4.86-1.64q-3.21-1.34-6.39-2.72l-5.49-2.38-5.46-2.45-5.44-2.45-5.41-2.52c-1.79-.87-3.57-1.75-5.34-2.67l-5.26-2.8c-1.74-1-3.51-1.85-5.3-2.68s-3.6-1.65-5.44-2.39c-1.16-.49-2.34-1-3.52-1.42l0-8c0-3.55,0-7.1,0-10.65l.57.32a82.92,82.92,0,0,0,11.33,5.22l11.77,4.21q5.85,2.14,11.76,4.13t11.89,3.7c2.42.7,4.85,1.39,7.29,2.05.27.11.54.23.82.33,2.15.84,4.33,1.59,6.55,2.23l3.32,1,3.35.88a114.87,114.87,0,0,0,13.59,2.65l.08-.31c-4.28-1.78-8.62-3.27-13-4.77l-3.25-1.1-3.26-1.08-.36-.12q-6.9-2.79-13.73-5.73c-3.78-1.61-7.55-3.27-11.28-5s-7.48-3.38-11.19-5.14-7.33-3.68-10.94-5.62a120.4,120.4,0,0,0-11.1-5.2c-1.42-.57-2.84-1.13-4.27-1.68q0-9.24,0-18.47c.51.3,1,.59,1.55.88q2.86,1.55,5.83,2.93c2,.9,4,1.69,6,2.48l6.14,2.2c2.06.7,4.11,1.44,6.14,2.18l6.14,2.18,6.16,2.09,6.2,2,6.23,1.87c8.32,2.39,16.7,4.58,25.16,6.4l.24-.82c-8.06-3.1-16.07-6.24-24-9.59l-5.93-2.51-5.89-2.59-5.88-2.6-5.84-2.68c-1.93-.92-3.86-1.85-5.77-2.82l-5.7-3c-1.9-1-3.8-2-5.74-2.83s-3.89-1.76-5.88-2.56c-1.72-.7-3.46-1.39-5.21-2q0-9.3,0-18.61l2.46,1.39c2,1.07,4,2.09,6.07,3s4.17,1.76,6.28,2.58l6.4,2.3c2.14.73,4.27,1.5,6.39,2.27l6.39,2.26,6.42,2.16,6.47,2,6.48,1.92c8.69,2.45,17.43,4.66,26.25,6.45l.23-.82c-8.44-3.08-16.82-6.24-25.09-9.65l-6.19-2.56-6.15-2.65-6.14-2.67-6.09-2.75c-2-1-4-1.91-6-2.91l-5.94-3.07c-2-1-4-2-6-2.94s-4-1.82-6.12-2.66-4-1.64-6.1-2.41q0-9.92,0-19.84l1.9,1,2.89,1.46c1,.48,2,.94,2.93,1.41,2,.88,4,1.72,6,2.54l6.07,2.31c2,.74,4.06,1.51,6.08,2.28l6.08,2.24,6.11,2.17,6.14,2,6.18,2,6.2,1.83,6.23,1.76,6.25,1.67,6.27,1.54.17-.56c-4.06-1.44-8.1-2.91-12.13-4.38l-6-2.28-6-2.36-6-2.4-5.93-2.47-5.91-2.51-5.88-2.59c-2-.9-3.89-1.8-5.82-2.72l-5.75-2.85c-1.91-1-3.83-1.89-5.77-2.78-1-.44-1.94-.9-2.91-1.33l-2.94-1.28q-2.21-1-4.42-1.88,0-10.48.07-21a100.86,100.86,0,0,0,10.23,4.74c3.65,1.44,7.32,2.8,11,4.21s7.32,2.76,11,4.08,7.39,2.53,11.11,3.73c7.45,2.36,14.94,4.54,22.51,6.44l.17-.56c-7.27-2.78-14.51-5.62-21.66-8.65q-5.37-2.24-10.69-4.6t-10.6-4.78c-3.51-1.62-7-3.4-10.4-5.18s-6.93-3.42-10.48-4.95l-2.13-.91q0-10.34.09-20.69c2.18,1.11,4.41,2.11,6.69,3l9.78,3.79q4.88,1.91,9.78,3.71c3.29,1.18,6.59,2.31,9.89,3.42l.2.06c.79.33,1.59.63,2.4.91,1.58.57,3.17,1.11,4.78,1.59s3.23,1,4.87,1.33l1.53.36q3.12.9,6.25,1.73l.19-.56-6.1-2.54-1.29-.63c-1.51-.73-3-1.41-4.57-2.08s-3.07-1.31-4.63-1.92c-.79-.32-1.59-.63-2.4-.92l-.17-.08c-3.16-1.4-6.32-2.82-9.46-4.29s-6.28-2.9-9.39-4.41-6.17-3.13-9.21-4.76-6-3-9.1-4.39L651,1148c1.18.55,2.38,1,3.59,1.55,2.9,1.15,5.83,2.24,8.72,3.4s5.81,2.28,8.72,3.39,5.86,2.11,8.8,3.13c1.57.54,3.15,1.06,4.72,1.58,2.15.89,4.35,1.65,6.55,2.39,1.54.5,3.08,1,4.65,1.39s3.15.81,4.77,1.1l.12-.31c-1.39-.88-2.81-1.67-4.25-2.41s-2.89-1.46-4.36-2.14-2.94-1.33-4.42-1.95-3-1.21-4.52-1.7c-.7-.23-1.41-.45-2.12-.66h0q-4.2-2-8.37-4t-8.33-4.09c-2.76-1.38-5.46-2.88-8.17-4.37q-3-1.63-6-3l.12-17.21,0-3.35,1.33.54,4,1.49c1.35.48,2.69,1,4,1.49q4,1.52,8,3c2.7.93,5.4,1.86,8.1,2.77l2.17.71c.65.34,1.3.67,2,1,1.4.66,2.84,1.24,4.3,1.76s2.92,1,4.41,1.46,3,.87,4.5,1.22a46.88,46.88,0,0,0,4.61.88l.1-.31c-1.35-.82-2.73-1.52-4.12-2.21s-2.8-1.34-4.21-2-2.82-1.22-4.26-1.79-2.86-1.12-4.34-1.58l-.13-.05-3.91-1.84q-3.85-1.82-7.69-3.66t-7.66-3.68c-2.54-1.24-5-2.61-7.5-4-1.22-.67-2.46-1.3-3.71-1.91q.07-10.46.18-20.91c2.41.93,4.84,1.81,7.23,2.76s5,1.94,7.48,2.87,5,1.79,7.55,2.66c1.51.5,3,1,4.54,1.48.57.31,1.15.61,1.73.9a64.28,64.28,0,0,0,8.52,3.22,57.3,57.3,0,0,0,8.94,2l.1-.31c-1.32-.8-2.67-1.5-4-2.16s-2.73-1.32-4.11-1.93-2.76-1.22-4.16-1.78a44.7,44.7,0,0,0-4.23-1.58c-.79-.26-1.58-.5-2.38-.73l-3.79-1.85c-2.38-1.15-4.76-2.32-7.12-3.52s-4.74-2.36-7.09-3.57-4.65-2.53-6.94-3.84c-.72-.4-1.44-.79-2.17-1.17q.12-11.07.25-22.14l2.1.91c1.34.56,2.68,1.13,4,1.64l1.41.5c1.85.77,3.69,1.53,5.55,2.28,2.35.93,4.72,1.84,7.08,2.73l.29.1,1.8,1c1.28.7,2.56,1.41,3.87,2.05a56.56,56.56,0,0,0,8.19,3,52.41,52.41,0,0,0,8.59,1.8l.1-.31c-1.27-.77-2.57-1.43-3.88-2.06s-2.62-1.25-4-1.83-2.64-1.14-4-1.67a41.83,41.83,0,0,0-4.06-1.47c-1-.31-1.94-.58-2.92-.85l-3.27-1.56c-2.27-1.09-4.54-2.19-6.79-3.31s-4.52-2.23-6.77-3.36-4.46-2.35-6.67-3.55l-.67-.36q.15-11.57.32-23.15c1.76.71,3.51,1.41,5.25,2.14q3.42,1.41,6.86,2.79t6.89,2.62c1.23.7,2.45,1.42,3.72,2a51.27,51.27,0,0,0,7.57,2.88,47.51,47.51,0,0,0,8,1.77l.11-.31a39.57,39.57,0,0,0-3.55-2c-1.19-.65-2.41-1.23-3.63-1.8s-2.45-1.11-3.69-1.62a37.85,37.85,0,0,0-3.77-1.41c-1-.31-2-.58-3-.85l-1-.47q-3.33-1.58-6.64-3.21t-6.6-3.26c-2.19-1.1-4.34-2.27-6.49-3.44,0-2.85.09-5.71.14-8.56q.12-7.32.26-14.64l4.76,1.92c2.26.93,4.52,1.84,6.8,2.72q2.31.88,4.63,1.74c.69.41,1.38.81,2.08,1.18a32.09,32.09,0,0,0,3.35,1.47c1.14.43,2.3.83,3.46,1.19s2.35.69,3.56.95a28.1,28.1,0,0,0,3.48.62l.17.06.07-.19.05-.15h0l0,0-.17-.07a32.39,32.39,0,0,0-3-1.86c-1.06-.61-2.15-1.16-3.24-1.7s-2.19-1.05-3.31-1.52a33.1,33.1,0,0,0-3.4-1.3c-.74-.23-1.49-.44-2.25-.64-1.49-.7-3-1.42-4.46-2.14q-3.28-1.57-6.54-3.19c-2-1-4-2.08-6-3.15q.24-11.71.54-23.43l5.82,2.32c1.3.53,2.61,1.06,3.92,1.57.31.2.63.39,1,.57a27.92,27.92,0,0,0,5.58,2.2q1.23.36,2.49.63l1.34.49c4.81,1.67,9.63,3.3,14.5,4.77l.14-.37c-4.65-2-9.31-4.07-13.9-6.22l-4.4-2.05-1.57-.74-.92-.43q-3.45-1.62-6.85-3.28c-2.28-1.11-4.51-2.31-6.74-3.5l-.25-.13c0-1.18.07-2.37.1-3.56.24-8.31.51-16.62.86-24.93l.09-2.06.64.25a28.72,28.72,0,0,0,2.51,3.38,51.65,51.65,0,0,0,11.08,9.31,106.93,106.93,0,0,0,12.7,6.92c4.36,2,8.82,3.86,13.33,5.51a283.58,283.58,0,0,0,27.58,8.41c9.31,2.37,18.72,4.35,28.16,6.1,18.9,3.45,38,5.87,57.11,7.55s38.34,2.58,57.55,2.85,38.46-.09,57.68-1.23,38.42-3,57.53-6c9.55-1.49,19.09-3.21,28.57-5.34a285.14,285.14,0,0,0,28.25-7.76c4.67-1.56,9.31-3.3,13.89-5.29a111,111,0,0,0,13.56-6.91,73.42,73.42,0,0,0,6.52-4.48,46.43,46.43,0,0,0,5.09-4.52l.12,4.42c.15,6.26.26,12.53.37,18.81-3.45,2.12-6.92,4.19-10.44,6.22q-6.43,3.71-13,7.2l-2.67,1.38-2.5.88-5.26,1.76c-1.76.58-3.52,1.16-5.26,1.77s-3.5,1.21-5.24,1.84l-5.23,1.87c-1.74.62-3.49,1.22-5.23,1.87s-3.49,1.25-5.24,1.89-3.5,1.26-5.23,2Zm40.08,469.53-.75-.39c2.17-.72,4.34-1.47,6.5-2.22Q1054.28,1476.61,1051.38,1477.9Zm2.39,56-1.22,1a86.2,86.2,0,0,1-7.12,5c.86-.57,1.72-1.17,2.56-1.8a44.3,44.3,0,0,0,4.43-3.74Zm-36.28-69c-2.31-.67-4.63-1.3-7-1.91q-2.49-.64-5-1.24,8.84-2,17.61-4.36a478,478,0,0,0,48.47-15.76A464.08,464.08,0,0,1,1017.49,1464.91Zm-99.36,108.55c-9.51.91-19.06,1.52-28.61,2s-19.13.75-28.71.8c-19.12.15-38.26-.49-57.34-2-9.55-.77-19.08-1.73-28.58-3s-19-2.83-28.36-4.76c-18.77-3.88-37.41-9-54.89-17-1.41-.64-2.81-1.31-4.21-2q3.09,1.08,6.2,2.1l11.63,3.38,5.84,1.58,5.8,1.65,11.67,3.07L740.3,1562l11.8,2.41,11.84,2.11a428.56,428.56,0,0,0,47.7,5.12l0-.29c3.17.3,6.35.58,9.52.83a600.33,600.33,0,0,0,97.25-.52c16.16-1.43,32.28-3.47,48.29-6.29a348.61,348.61,0,0,0,47.5-11.46,172.12,172.12,0,0,0,18.83-7.29c-1.42.69-2.86,1.36-4.3,2a218.86,218.86,0,0,1-26.48,9.67c-9.06,2.71-18.29,5-27.59,6.9s-18.7,3.55-28.14,4.91S927.64,1572.56,918.13,1573.46Zm7.78,9.48c-2.25.32-4.5.63-6.75.91a465.54,465.54,0,0,1-56.36,3.69,414.44,414.44,0,0,1-56.29-3.69q-3.85-.51-7.69-1.09a552.48,552.48,0,0,0,63.28,3.67A576.93,576.93,0,0,0,925.91,1582.94Zm-33.32-112c5.14-.11,10.32-.44,15.41-.84l1.89-.16,1.87-.06,3.83-.12c2.57-.09,5.14-.19,7.71-.33l4.09-.26c18.19,2.37,36.29,5.44,54.08,9.5l.54.13-2.92.83c-15.76-2.69-31.63-4.53-47.53-5.81-16.12-1.26-32.26-1.91-48.41-2.07s-32.29.2-48.4,1.06c-4,.18-8.06.49-12.08.73s-8,.59-12.06,1c-8,.69-16.06,1.57-24.06,2.59s-16,2.25-23.92,3.66c-2.29.41-4.57.83-6.85,1.28-6.38-2-12.7-4-19-6.27l-5.82-2.08c8.64-2,17.36-3.58,26.12-4.9a505,505,0,0,1,56.27-5c18.83-.7,37.69-.54,56.5.35q17.07.81,34.07,2.43c-3.85.45-7.68.82-11.54,1.18-10.15.9-20.35,1.37-30.6,1.51l0,.45A220.06,220.06,0,0,0,892.59,1471Zm119.87,45a10.06,10.06,0,0,1-1.24,5.89q-5.88,2.34-11.79,4.55c1.91-2.66,2-5.35,0-7.87Q1005.92,1517.32,1012.46,1516Zm-2-29.49.11,0,1.55.48Zm-5.44,9.12q-6.36,2.09-12.78,4.06c-5.73-1.63-11.51-3-17.31-4.3-1.19-.26-2.38-.51-3.58-.75,6.16-1.11,12.31-2.28,18.45-3.55C995.35,1492.56,1000.41,1494.07,1005,1495.59Zm-8.37-6,1-.21c1.5.37,3,.74,4.49,1.13q2.55.66,5.07,1.38Q1002.2,1490.74,996.63,1489.61ZM710,1519.33a33,33,0,0,1,6.37-4.53c2.76-1.61,5.66-3,8.62-4.41l3.19.81,10.47,2.33,2,.41c-.38.23-.75.46-1.12.71a9.85,9.85,0,0,0-2.76,2.74,5.68,5.68,0,0,0-.77,1.94,5,5,0,0,0,.05,2.14A8.56,8.56,0,0,0,738,1525a19.11,19.11,0,0,0,2.78,2.63,42.5,42.5,0,0,0,6.32,4c1.89,1,3.82,1.88,5.77,2.7l-8.82-2.73L732.83,1528,721.7,1524l-5.51-2.13-5.48-2.18-.75-.33Zm-3-3.69a17.58,17.58,0,0,0-1.89,1.64L699.9,1515c-3.58-1.62-7.18-3.17-10.82-4.59l-2.26-.92.24-.25a47.68,47.68,0,0,1,8.91-6.89l1.12.33,5.19,1.46,5.16,1.51,10.35,2.87,3.36.86c-2.12.63-4.23,1.34-6.32,2.15A37.31,37.31,0,0,0,707,1515.64Zm41.24,13.77A39.44,39.44,0,0,1,742,1526a17.5,17.5,0,0,1-2.62-2.21,7,7,0,0,1-1.68-2.7,3.74,3.74,0,0,1,.35-2.93,8.42,8.42,0,0,1,2.23-2.48,18.84,18.84,0,0,1,2-1.37l6.83,1.37c14,2.6,28.15,4.66,42.32,5.91l.24-1.42c-13.75-3.48-27.38-7.2-40.82-11.47l-10-3.23-10-3.42L721,1498.5l-9.83-3.73-4.87-2-4.83-2-9.55-4.38-.09,0c3.44-1.52,6.94-2.92,10.47-4.22,4.07-1.49,8.2-2.84,12.35-4.07l1.76.46c6.14,1.58,12.32,3,18.52,4.27q4.61.95,9.24,1.78-2.6.59-5.19,1.21l.23,1c2.64-.58,5.3-1.12,8-1.64,8.37,1.45,16.79,2.61,25.23,3.4l.26-1.41c-4.66-1.32-9.29-2.66-13.91-4.06l4.17-.67q11.91-1.85,23.91-3.1t24-2.12c4-.3,8-.49,12-.73s8-.39,12-.5q24.09-.81,48.19-.11t48.06,3c11.8,1.13,23.56,2.58,35.24,4.45l-3,.8q-5.61-.8-11.62-1.56c3.44.67,6.76,1.33,10,2q-10.35,2.68-20.79,5.11h0c-11.41-1.49-22.88-2.47-34.36-3.07-5.74-.31-11.49-.48-17.23-.6s-11.49-.15-17.24-.07c-2.85,0-5.78.11-8.68.24l-4.33.29c-1.44.1-2.87.24-4.3.37-2.88.24-5.72.6-8.58.9s-5.7.67-8.55,1q-8.54,1.1-17,2.35c-5.67.83-11.33,1.66-17,2.55l-17,2.63c-5.66.83-11.31,1.72-17,2.39l0,.52c5.72-.33,11.43-.9,17.12-1.5l17.08-1.83,17.06-1.89,8.53-.9,8.53-.87c2.84-.29,5.69-.53,8.53-.79s5.68-.48,8.52-.64c1.42-.08,2.84-.19,4.26-.26l4.24-.19c2.82-.06,5.61-.09,8.48,0q8.55.21,17.1.56c5.7.24,11.39.6,17.07,1q9.09.63,18.15,1.45-19.07,4-38.37,7c-7.68,1.15-15.39,2.19-23.12,3-6.77.13-13.55.33-20.31.65a539.44,539.44,0,0,0-58,5.38l.11.78c9.62-1.19,19.28-2,29-2.58s19.35-1,29-1.14,19.36-.17,29.06,0,19.38.38,29.06.69,19.34.75,29,1.51c4.8.38,9.6.85,14.35,1.47l.89.12c1.7.37,3.32.75,4.85,1.13q-10,2.4-20.17,4.55c-11.69-1.07-23.4-1.77-35.12-2.18-6.74-.24-13.49-.31-20.23-.29l-5.06,0c-1.69,0-3.39.09-5.08.16-3.39.17-6.77.4-10.13.74-6.73.65-13.4,1.63-20,2.63s-13.28,2.11-20,2.63l0,.72c6.75-.23,13.45-1,20.13-1.77s13.35-1.47,20-1.87c3.34-.21,6.68-.31,10-.36s6.68,0,10,.15c6.7.19,13.4.53,20.09.92s13.39.91,20.07,1.52q-9.25,1.77-18.55,3.29a596.84,596.84,0,0,1-69.08,7.47,601.58,601.58,0,0,0,69.92.66l5.06-.24q-4.34.35-8.68.62-5,.35-10,.55c-3.32.16-6.64.28-10,.34l-5,.09c-1.63,0-3.28,0-4.94,0-6.62-.1-13.3-.39-20-.79-3.34-.17-6.68-.36-10-.59l-10-.71c-3.34-.24-6.67-.53-10-.83s-6.67-.61-10-1-6.64-.8-9.9-1.39a27.19,27.19,0,0,1-4.72-1.21,4.34,4.34,0,0,1-.94-.48,1.33,1.33,0,0,1-.19-.17s-.05,0,0-.09a2.22,2.22,0,0,1,.82-.61,9.31,9.31,0,0,1,1.11-.49l-.2-.69a10,10,0,0,0-1.27.34,3.31,3.31,0,0,0-1.3.73,1.25,1.25,0,0,0-.35,1.06,1.81,1.81,0,0,0,.48.87,5.67,5.67,0,0,0,1.18.87,29.22,29.22,0,0,0,4.84,2c3.26,1,6.57,1.83,9.87,2.59s6.64,1.37,10,2,6.67,1.13,10,1.65,6.68,1,10,1.41,6.7.83,10.06,1.2c6.73.68,13.47,1.29,20.29,1.61,1.7.07,3.42.13,5.15.15s3.4,0,5.1,0q5.1-.07,10.2-.31c3.39-.17,6.77-.4,10.16-.67s6.75-.63,10.12-1q10.1-1.17,20.13-2.81c6.69-1.08,13.36-2.29,20-3.75,3.32-.73,6.63-1.5,10-2.46.84-.24,1.67-.49,2.53-.78.43-.15.86-.3,1.31-.48a12.12,12.12,0,0,0,1.49-.68c.14-.08.31-.18.5-.31a3.51,3.51,0,0,0,.83-.78c.08-.11.14-.18.2-.28l6-.8q3.15-.43,6.28-.9a9.64,9.64,0,0,1-.2,1.31,9.26,9.26,0,0,1-1,2.56,14,14,0,0,1-4.09,4.28,30.14,30.14,0,0,1-5.78,3.13,72.31,72.31,0,0,1-13.33,3.91,206.88,206.88,0,0,1-28.39,3.41c-9.59.58-19.22.87-28.87,1-4.82.08-9.65.17-14.48.21s-9.65.09-14.47.07q-14.45-.06-28.91-.76c-19.28-.86-38.56-2.42-57.71-4.91-2.41-.3-4.72-.69-7.06-1.19s-4.65-1.08-7-1.73A92,92,0,0,1,748.21,1529.41Zm-58.47-44.06c-2.46-1.13-4.93-2.21-7.44-3.22l-1.83-.77c4.27-2.08,8.67-3.9,13.13-5.56,1.94-.72,3.9-1.39,5.87-2q5.24,1.56,10.5,3c-2.86,1-5.7,2.11-8.51,3.26C697.49,1481.66,693.57,1483.43,689.74,1485.35Zm274.6,22.2c-2.22-.25-4.55-.49-7-.7-4.23-.85-8.47-1.42-12.69-1.89-4.89-.52-9.76-.89-14.63-1.16-6.58-.37-13.14-.59-19.7-.72q16.15-1.59,32.25-3.88,7.15-1,14.29-2.16,8.58,1.29,17.1,2.92,5,1,10,2.15Q974.21,1505,964.34,1507.55ZM813,1457.18a514,514,0,0,0-56.65,7.3c-9.35,1.79-18.65,3.89-27.83,6.42l-3,.84c-2.79-1-5.57-2.09-8.34-3.17,10.73-2.7,21.62-4.78,32.55-6.5,19.08-2.92,38.33-4.68,57.6-5.72,9.63-.54,19.28-.83,28.92-1s19.29-.2,28.93,0l1.35,0C848.7,1455.24,830.83,1455.83,813,1457.18Zm-63.76,1.91q-14.31,2.76-28.41,6.5-3.32.87-6.6,1.82-6.18-2.42-12.3-4.92c-1.44-.61-2.87-1.21-4.29-1.84s-2.83-1.29-4.25-1.94-2.78-1.32-4.15-2-2.75-1.29-4.08-2-2.74-1.4-4.17-2.08-2.84-1.33-4.28-2c-2.86-1.24-5.78-2.37-8.7-3.43-5.34-1.9-10.7-3.66-16.13-5.32q-.17-7.62-.31-15.24,2.83,1.78,5.76,3.41a84.76,84.76,0,0,0,15.09,6.54c5.24,1.7,10.55,3.16,15.75,4.84,10.42,3.36,21,6.24,31.64,8.64,7.25,1.62,14.53,3.08,21.84,4.31l2.13.57c4,1,8,1.93,11.93,2.89C753.56,1458.26,751.41,1458.67,749.25,1459.09Zm-87,1.33q4.23,2.19,8.57,4c1.44.61,2.9,1.19,4.36,1.75s2.92,1.08,4.47,1.63,3.09,1,4.65,1.47l4.64,1.35c2.7.79,5.4,1.55,8.09,2.37l-3.93,1.47c-4.8,1.88-9.55,3.92-14.16,6.25-2.11-.85-4.23-1.66-6.38-2.42l-4.91-1.82c-1.66-.58-3.3-1.18-5-1.73-3.28-1.18-6.59-2.32-10-3.38q-.29-8.31-.51-16.64C655.5,1456.78,658.86,1458.66,662.25,1460.42Zm11.58,34.38a87.07,87.07,0,0,0-8.49,6.82c-2.73-1-5.48-1.94-8.25-2.85l.27-.36a42.62,42.62,0,0,1,7.83-7.76l1.59.85Q670.28,1493.23,673.83,1494.8Zm-16.52-8.5c1.56.9,3.14,1.76,4.71,2.64l2,1.08a44.71,44.71,0,0,0-7.69,7.62c-.18.23-.35.47-.53.71h0l-1.92-.66c-.27-4.63-.49-9.28-.69-13.94Q655.24,1485,657.31,1486.3Zm-.42,24.62c-.44.59-.87,1.18-1.29,1.79.44-.59.9-1.17,1.36-1.75q2.37,1.44,4.77,2.83c1.76,1,3.55,1.92,5.33,2.88l5.38,2.78q2.91,1.38,5.87,2.69a15,15,0,0,0,.72,3,19.07,19.07,0,0,0,1.83,3.74c-1.34-.51-2.69-1-4-1.48l-5.52-2c-1.85-.65-3.7-1.33-5.57-2q-4.86-1.77-9.8-3.41c-.19-1.13-.35-2.33-.5-3.51-.25-2-.45-4-.63-6.06,0-.26,0-.54-.07-.81Zm21.22-4.7-5.52-2c-1.86-.65-3.71-1.33-5.58-2l-1-.38a83.5,83.5,0,0,1,9-6.57l1.66.71c3.35,1.33,6.74,2.53,10.15,3.65l6.45,1.91a46.74,46.74,0,0,0-8.13,5.61c-.43.38-.84.77-1.25,1.17Q681,1507.24,678.11,1506.22Zm5.39,18.14c3.77,1.45,7.58,2.77,11.42,4l11.62,3.38,5.84,1.59,3,.86c1.06.35,2.12.64,3.19.89l11.25,3,11.73,2.79,11.8,2.41,11.85,2.12a433.18,433.18,0,0,0,47.69,5.12l.17-1.43q-14.75-2.85-29.3-6.32c16.27,3,32.69,5,49.17,6.38,9.73.77,19.47,1.34,29.24,1.61,4.89.1,9.78.17,14.64.17s9.74-.06,14.62-.19c9.75-.26,19.51-.74,29.27-1.66,1.62-.16,3.25-.32,4.87-.5q-14.13,3.14-28.48,5.38c-10.2,1.57-20.48,2.78-30.82,3.57-14.87.14-29.76-.39-44.59-1.66a393.3,393.3,0,0,1-67.53-11.52l-.14.5a393.78,393.78,0,0,0,67.54,12.39q8.52.84,17.06,1.35c-3.31,0-6.64,0-10-.15a376.84,376.84,0,0,0,69.21,4,497.39,497.39,0,0,0,69.5-7.24c18-3.12,35.79-7.08,53.45-11.74-3,1.08-6,2.08-9,3a338.59,338.59,0,0,1-46.54,10.37c-15.76,2.47-31.67,4.12-47.61,5.2q-12,.83-23.94,1.22c-8,.3-16,.43-24,.46s-16,0-24-.26-16-.54-24-1c-16-.9-31.87-2.42-47.67-4.67a383.91,383.91,0,0,1-38.77-7.34l-3.89-1.27-11.13-3.93-5.5-2.12-5.48-2.18-10.81-4.69q-3.58-1.62-7.2-3.13a33.17,33.17,0,0,1-5.63-5,16.85,16.85,0,0,1-2.67-3.91Zm344.89-9.59a15,15,0,0,0-1.86-1.9c3.14-.72,6.28-1.48,9.41-2.26.23.19.45.38.66.58Q1032.5,1513,1028.39,1514.77Zm-11.32-77a476.15,476.15,0,0,1-55.27,16c-12.69-1.7-25.43-3-38.17-3.85-19.45-1.36-38.92-1.9-58.38-1.76q-14.58.17-29.16.84c-9.72.46-19.42,1.17-29.1,2-14.14,1.31-28.24,3.06-42.25,5.36l-5.36-1.15-14.72-3.56-2.18-.56c-6.9-2.51-13.75-5.08-20.53-7.81q-7.5-3-14.91-6.13t-14.75-6.39c-4.89-2.17-9.61-4.74-14.34-7.22a117.35,117.35,0,0,0-14.6-6.49c-3.94-1.44-7.93-2.79-12-4q-.12-7.93-.22-15.88l2.93,1.69c2.09,1.14,4.21,2.21,6.37,3.19s4.4,1.79,6.63,2.62l6.77,2.26c2.27.72,4.51,1.49,6.75,2.26l6.74,2.27,6.77,2.17,6.82,2,6.84,1.9c5,1.3,10,2.53,15,3.64q10.51,3.27,21.18,6.06c4.94,1.23,9.89,2.39,14.84,3.59s10,2.09,14.95,3.11l15.05,2.61,15.11,2.18q7.63,1,15.32,1.73,4.89.74,9.8,1.38c13.25,1.71,26.58,2.86,40,3.54s26.8.79,40.22.51c3.36-.07,6.74-.21,10.11-.31l5.09-.31,5-.36q10.08-.77,20.12-1.91c13.38-1.51,26.69-3.49,39.91-5.7l2.48-.41,1.24-.21,1.29-.24c1.71-.34,3.47-.63,5.14-1l5.06-1.11,5-1.19q9.95-2.47,19.7-5.35c13-3.83,25.84-8.13,38.6-12.8q3.67-1.37,7.35-2.77v.21A454.6,454.6,0,0,1,1017.07,1437.72Zm40.53-483.43a98.37,98.37,0,0,1-11.82,6.46c-4.13,1.94-8.41,3.7-12.77,5.31a274.65,274.65,0,0,1-26.86,8.24c-9.12,2.34-18.38,4.31-27.69,6.05-18.63,3.44-37.5,5.87-56.44,7.57s-38,2.63-57,2.93-38.13-.14-57.16-1.31-38-3.06-56.87-6c-9.42-1.48-18.8-3.19-28.1-5.29a278.15,278.15,0,0,1-27.53-7.59c-4.51-1.51-9-3.2-13.33-5.09a104.93,104.93,0,0,1-12.68-6.46,50.72,50.72,0,0,1-11.07-8.79c-.6-.67-1.18-1.36-1.72-2.08q11.36,4.43,22.9,8.3-12.66-6-24.94-12.58.16-3.5.37-7c.13-2.07.26-4.14.44-6.2,0-.26.05-.52.07-.78,1.58-1.39,3.23-2.7,4.92-3.95A90.4,90.4,0,0,1,672,918.91c3-1.54,6-2.94,9.07-4.24Q691.33,917,701.66,919q-8.65-2.67-17.19-5.66c4.3-1.7,8.69-3.2,13.1-4.57a270.22,270.22,0,0,1,26.72-6.67c9-1.81,18.08-3.24,27.19-4.42,18.22-2.34,36.57-3.64,54.93-4.26s36.74-.5,55.08.2,36.67,2,54.9,3.95c14.53,1.55,29,3.5,43.36,6q-10.12,1.72-20.34,2.9l-3.36.38q-8.17-.74-16.36-1.3a860.84,860.84,0,0,0-93.94-.87c-7.83.36-15.65.8-23.45,1.4s-15.61,1.28-23.39,2.13-15.56,1.82-23.3,3-15.46,2.49-23.13,4l.1.52c7.68-1.48,15.4-2.72,23.14-3.79s15.51-2,23.29-2.72,15.58-1.39,23.38-1.87,15.61-.86,23.42-1.13a858.76,858.76,0,0,1,93.69,1.91l2.06.17c-1.65.15-3.3.3-5,.43-15.22,1.32-30.5,2-45.79,2.32-7.64.11-15.29.1-22.94-.08s-15.29-.52-22.94-1l0,.52c7.62.78,15.27,1.42,22.92,1.87s15.33.72,23,.87l2.18,0q-7.93,0-15.86.19A533,533,0,0,0,794,918.68l.08.58c41.88-5.06,84.27-4.81,126.11-.51,10.46,1.11,20.88,2.51,31.24,4.27,7.94,1.35,15.84,2.9,23.66,4.74l-2.35.52q-9.5,2-19,3.74a85.34,85.34,0,0,0-10.23-2.43,117.28,117.28,0,0,0-14-1.5q-7-.3-13.95-.44c-9.28-.2-18.56-.2-27.82-.1q-7,.12-13.9.32t-13.89.42v.46c9.26.41,18.51.64,27.75,1.09s18.48.81,27.69,1.47c4.6.35,9.19.76,13.76,1.3L941.76,934c-1.4.22-2.79.43-4.19.63-5.9.84-11.82,1.53-17.77,2.17s-11.9,1.19-17.86,1.64c-11.94.92-23.91,1.45-35.9,1.84v.91q18,.84,36.06.6,9-.12,18-.52c6-.29,12-.67,18.05-1.19,7.33-.62,14.62-1.5,21.9-2.54a19.72,19.72,0,0,1,2.29,1,9,9,0,0,1,2.51,1.92,5.75,5.75,0,0,1,1.38,2.88h.46l0-.92a4.92,4.92,0,0,0-.11-.93,3.26,3.26,0,0,0-.26-.91,4.59,4.59,0,0,0-.38-.88,9.58,9.58,0,0,0-2.29-2.73q5.21-.78,10.37-1.65c5.88-1,11.73-2.05,17.58-3.11q2.77.85,5.49,1.81c2.44.86,4.86,1.79,7.2,2.81l.81.36c3.42,4.63.15,9.36-7.11,13.74l-2.87.8q-6.8,1.68-13.6,3.28l-13.71,2.84-13.78,2.48-13.85,2.19-13.91,1.85-14,1.58-14,1.25-14,.95-14.06.71v.85l14.1.24,14.12-.13,2.23-.07q-13.83,1.15-27.72,1.66-15.74.63-31.51.39t-31.5-1.3c-10.49-.71-21-1.78-31.4-3.13s-20.83-3.14-31.17-5.22l-.13.58c10.2,2.75,20.55,5,31,6.84s20.9,3.32,31.43,4.44,21.1,1.85,31.69,2.3,21.18.53,31.78.35a556.07,556.07,0,0,0,63.4-4.78c10.51-1.45,21-3.19,31.39-5.41,5.2-1.11,10.38-2.31,15.54-3.66,4.07-1.07,8.13-2.22,12.16-3.52l1.2-.22,13.89-2.92,6.89-1.73c2.29-.61,4.59-1.19,6.87-1.82q5-1.51,9.86-3.11c-3.53,5.48-12.27,10.6-23.09,15.1-2.75.82-5.53,1.57-8.32,2.28a394.38,394.38,0,0,1-45.91,8.25c-15.46,1.93-31,3.22-46.58,4.07s-31.17,1.28-46.77,1.33-31.2-.2-46.78-.95-31.14-1.83-46.63-3.52a459,459,0,0,1-46.14-7.18,220.87,220.87,0,0,1-22.49-6,112.59,112.59,0,0,1-10.8-4.17A50.48,50.48,0,0,1,681,953a19.31,19.31,0,0,1-3.9-3.92,11.08,11.08,0,0,1-1.3-2.32,8.06,8.06,0,0,1-.57-2.54,8.81,8.81,0,0,1,1.41-5,19.58,19.58,0,0,1,3.68-4.22,48.29,48.29,0,0,1,9.7-6.25A107.47,107.47,0,0,1,700.75,924l-.18-.49a110.17,110.17,0,0,0-11,4.21,48.89,48.89,0,0,0-10.2,6.07,20.74,20.74,0,0,0-4.17,4.44,10.6,10.6,0,0,0-1.9,6,10.12,10.12,0,0,0,.59,3.19,13.07,13.07,0,0,0,1.44,2.84,21.56,21.56,0,0,0,4.18,4.54,39.77,39.77,0,0,0,4.94,3.49c1.71,1,3.47,2,5.25,2.87a114,114,0,0,0,11,4.61,214.92,214.92,0,0,0,22.69,6.66c7.65,1.85,15.36,3.39,23.11,4.72s15.52,2.47,23.31,3.46c15.59,1.94,31.24,3.27,46.91,4.16S848.05,986,863.75,986s31.38-.63,47-1.6,31.3-2.53,46.87-4.64A396.76,396.76,0,0,0,1004,971a169.53,169.53,0,0,0,22.56-7.42A71.94,71.94,0,0,0,1037.3,958a35.13,35.13,0,0,0,4.94-3.75,18.92,18.92,0,0,0,4-5.11,9.23,9.23,0,0,0,.42-.9,12.62,12.62,0,0,0,2.26-4.08l2.42-.93q4.62-2,9.19-4a18.71,18.71,0,0,1,3.88,6l.08.22a6.71,6.71,0,0,0,1.42,2.16A50,50,0,0,1,1057.6,954.29Zm-41.08-37.57-6.47,1.67-.2,0-.23.06-.47.14-.3.13c-6.34-1.76-12.73-3.22-19.16-4.52-7.7-1.55-15.45-2.85-23.21-4q-5.51-.79-11-1.46l7.32-1q5.67-.79,11.33-1.75c7.83,1.55,15.62,3.27,23.33,5.22C1003.87,913,1010.25,914.73,1016.52,916.72ZM999.3,900.85l2.5-.62,4.35,1.08a274.46,274.46,0,0,1,26.85,8.24c1.44.53,2.86,1.08,4.27,1.65l-.74.2q-4.69-1.73-9.44-3.23c-9-2.84-18.08-5.17-27.2-7.19Zm3.76,29.25q3.13-.61,6.26-1.27h0l.35-.06.24-.06.46-.14.3-.12.29-.12.2-.1c.15-.08.26-.13.35-.19.39-.21.63-.38.82-.5l2.61-.6c11.51,4.52,17.74,9,20,13.39-4.34,1.2-8.65,2.48-12.95,3.79l-1.21.34C1022.49,939.72,1017.76,934.77,1003.06,930.1Zm7.92-2.36.95-.12-.08,0-.27.05A3,3,0,0,1,1011,927.74Zm1.66-.37.06,0-.06,0Zm-13.21-5.6-9.25,2.41c-1.75.45-3.5.88-5.25,1.31l-1.6-.4c-10.34-2.51-20.78-4.44-31.26-6s-21-2.81-31.54-3.73-21.11-1.56-31.68-1.88q-4.32-.12-8.65-.18,6.82,0,13.64-.16c7.67-.17,15.35-.5,23-1s15.33-1,23-1.69l2.86-.25q3.69.4,7.38.86C970.66,914.59,986.89,918.17,999.43,921.77Zm-13-23.55q-7-1.31-14-2.43c-18.37-2.93-36.81-5-55.29-6.41s-37-2.18-55.49-2.35-37,.28-55.48,1.44-36.88,3-55.16,5.93q-6.84,1.08-13.66,2.38c-1.69-.54-3.37-1.08-5.05-1.64,6.18-1.22,12.39-2.29,18.61-3.26,18.86-2.9,37.86-4.77,56.89-5.91s38.12-1.49,57.17-1.22,38.1,1.24,57,2.94,37.81,4.13,56.44,7.57q5.68,1.07,11.33,2.25ZM736,897q-6.15,1.2-12.26,2.61a271.18,271.18,0,0,0-26.7,7.52c-4.83,1.65-9.62,3.47-14.3,5.52l-4.11-1.47c1.06-.5,2.14-1,3.22-1.44,4.37-1.89,8.83-3.57,13.35-5.08a279.5,279.5,0,0,1,27.57-7.56q3.35-.75,6.69-1.44Q732.76,896.39,736,897Zm-13.83-2.42a281.45,281.45,0,0,0-27.55,8.43c-4.51,1.66-9,3.49-13.31,5.52q-2.15,1-4.24,2.08l-2.15-.8q-2.58-1-5.14-2c.57-.48,1.15-1,1.73-1.44,6.43-5.22,13.25-10,20.15-14.58q3-2,6.12-4l2.34.67q6.84,1.9,13.73,3.6c3.13.77,6.26,1.5,9.4,2.21Zm-49,18.16q-2.28,1.29-4.49,2.7a51.51,51.51,0,0,0-11,9.28,29.81,29.81,0,0,0-2,2.69,25.75,25.75,0,0,1,.42-2.67,17.34,17.34,0,0,1,2.55-5.27,40.92,40.92,0,0,1,3.85-4.72c1.22-1.3,2.51-2.56,3.83-3.78C668.57,911.62,670.87,912.2,673.17,912.78ZM658,925.07a51.17,51.17,0,0,1,11.14-8.83c1.82-1.09,3.67-2.11,5.55-3.08l4.61,1.1c-2.6,1.22-5.17,2.53-7.69,3.93A92.4,92.4,0,0,0,660,925.75c-1.6,1.26-3.15,2.57-4.64,4l.15-1.47A28.12,28.12,0,0,1,658,925.07Zm390.81,11.1-1.46.43c-2.66-3.54-8.23-7.07-17.56-10.48-1.49-.69-3-1.33-4.51-1.94,1.71-.51,3.4-1,5.09-1.58l1.39-.46a132.74,132.74,0,0,1,16,7.54,74.85,74.85,0,0,1,7.06,4.55Zm-.82-20,.19-.08h0c1.69.84,3.35,1.71,5,2.63C1051.47,917.78,1049.74,916.93,1048,916.13Zm-11-17.93c-4.82-1.62-9.66-3.06-14.53-4.37,3.17-1,6.33-2,9.47-3.06,1.78,1.14,3.56,2.29,5.32,3.45,4.55,3,9.06,6,13.42,9.18C1046.17,901.45,1041.61,899.73,1037,898.2Zm-16-8.31-7.28,1.72q-2.5-.6-5-1.17c-9.48-2.12-19-3.85-28.57-5.34-12.06-1.85-24.17-3.28-36.29-4.37,1.88-.2,3.76-.4,5.64-.62l10.24-1.25L970,877.44q5.1-.83,10.18-1.75c3.37-.68,6.73-1.43,10.09-2.19L1000,871c9.37,5.73,18.74,11.41,28,17.24Zm87,611.14c-.16,11.65-.36,23.31-.71,34.91-.18,5.8-.4,11.59-.71,17.32-.15,2.86-.34,5.7-.58,8.47-.12,1.36-.25,2.75-.41,4,0,.33-.09.62-.13.91l-.06.45-.07.38-.07.39,0,.15c-4.45,8.52-11.06,16.2-18.7,22.92a128.39,128.39,0,0,1-12.59,9.72q-6.65,4.51-13.78,8.44a241.74,241.74,0,0,1-29.77,13.64c-10.27,3.94-20.8,7.33-31.47,10.28s-21.5,5.46-32.41,7.59-21.92,3.91-33,5.36a633.38,633.38,0,0,1-66.77,5.07,401.24,401.24,0,0,1-66.4-4,436.61,436.61,0,0,1-65.09-14.37q-16-4.83-31.47-11A326.76,326.76,0,0,1,673.67,1608a206.15,206.15,0,0,1-27.94-17.2,106.08,106.08,0,0,1-12.09-10.41,57.09,57.09,0,0,1-5-5.77,34.26,34.26,0,0,1-3.4-5.46l-.09-.57c-.06-.49-.13-1-.18-1.51-.11-1-.21-2.12-.3-3.21-.17-2.19-.32-4.41-.44-6.64-.26-4.46-.46-9-.63-13.46-.36-9-.62-18-.86-27.08q-.69-27.11-1.07-54.27-.82-54.3-1.14-108.63L620,1245.11q-.19-54.33-.26-108.66t.29-108.67q.19-27.16.66-54.32c.17-9.05.36-18.1.62-27.15s.54-18.09,1.08-27.1c.14-2.25.29-4.5.49-6.74.1-1.12.21-2.23.34-3.33a17.77,17.77,0,0,1,.6-3.12,24,24,0,0,1,2.75-5.8,48,48,0,0,1,3.94-5.31,96.37,96.37,0,0,1,9.43-9.53c3.35-3,6.85-5.85,10.41-8.61,7.14-5.51,14.55-10.69,22.09-15.68s15.2-9.81,22.91-14.55c15.42-9.48,31.13-18.49,46.57-28,2.5-1.56,5-3.14,7.46-4.78a133,133,0,0,0,20.21,9.07c4.47,1.61,9,3,13.56,4.34l.37.1-.3.44a53.8,53.8,0,0,1-8.63,8.77c-2.59,2.16-5.27,4.22-8,6.22l-.08,0c-2.38,1.75-4.94,3.55-7.63,5.38h0q-2.24,1.5-4.49,3l-1.17.76c-6.58,4.28-13.24,8.42-19.93,12.52-14.2,8.67-28.5,17.19-42.47,26.28-7,4.56-13.86,9.27-20.41,14.49a95.39,95.39,0,0,0-9.36,8.42A42,42,0,0,0,657,918.4a19.37,19.37,0,0,0-2.89,5.89,27.69,27.69,0,0,0-.53,3.2c-.14,1-.24,2.09-.34,3.13-.2,2.09-.37,4.16-.53,6.24q-.47,6.24-.8,12.48c-.47,8.31-.86,16.63-1.23,24.94q-1,24.94-1.89,49.9-1.68,49.9-2.85,99.81l-1.07,49.92-.47,25-.38,25-.63,49.92q-.25,25-.37,49.93c-.17,33.29-.2,66.58.1,99.89.15,16.65.39,33.31.84,50,.23,8.34.51,16.68.93,25,.21,4.18.46,8.37.8,12.59.17,2.11.36,4.22.61,6.36a65.22,65.22,0,0,0,1,6.67l.13.61.33.59a56.76,56.76,0,0,0,9.51,12.3c1.8,1.8,3.65,3.51,5.58,5.11s3.88,3.14,5.88,4.61a169.64,169.64,0,0,0,25.3,15,320.93,320.93,0,0,0,54.41,20.15,441.06,441.06,0,0,0,56.63,11.7,425,425,0,0,0,57.73,4.17,478.36,478.36,0,0,0,57.73-3.38,420.82,420.82,0,0,0,56.93-10.77q14-3.7,27.79-8.64a254,254,0,0,0,26.94-11.46,172.66,172.66,0,0,0,25.37-15.27,100.3,100.3,0,0,0,21.79-21.2l.69-1,.3-1.17c.71-2.75,1.17-5.32,1.59-7.88s.76-5.07,1.07-7.58c.62-5,1.11-10,1.55-15,.88-10,1.54-19.89,2.12-29.81,1.15-19.84,2-39.66,2.65-59.48q.51-14.86.92-29.72l.71-29.71q.65-29.72,1-59.43,1.38-118.83-.84-237.66c-.42-19.8-.91-39.61-1.61-59.42q-.49-14.86-1.21-29.74c-.24-5-.5-9.93-.82-14.91s-.66-9.94-1.23-15.08c-.16-1.32-.31-2.59-.6-4.12l-.12-.6-.16-.65c-.11-.44-.25-.85-.38-1.27a22,22,0,0,0-.94-2.32,33.65,33.65,0,0,0-4.94-7.36,84.2,84.2,0,0,0-11.61-10.8,269.24,269.24,0,0,0-25-17c-17-10.44-34.42-19.94-51.45-29.88-8.5-5-16.95-10-24.94-15.55a98.57,98.57,0,0,1-11.25-8.84c-.84-.79-1.64-1.61-2.37-2.44a181.12,181.12,0,0,0,20.83-7.06c2.27-.94,4.52-1.94,6.76-3,4.77,3.23,9.57,6.15,14.38,9,10.12,6,20.27,11.83,30.32,17.74s20,11.89,29.71,18.16a297.43,297.43,0,0,1,27.85,19.92,109.4,109.4,0,0,1,11.9,11.25,45.7,45.7,0,0,1,4.57,6,19.67,19.67,0,0,1,2.56,5.67,11.49,11.49,0,0,1,.19,1.18l0,.33,0,.53.09,1,.28,4.26q.26,4.29.46,8.63c.27,5.78.47,11.59.66,17.41q.53,17.45.88,35l.64,35q2.22,140.14,3.11,280.43l.48,70.12q.21,35.05.22,70.1C1108.45,1454.35,1108.38,1477.71,1108.09,1501Z"/><path class="cls-2" d="M799,804.11c8.51,2,17.11,3.59,25.74,5s17.34,2.44,26.07,3.28,17.52,1.28,26.3,1.45,17.59.36,26.44.12l3.32-.15c1.11-.06,2.22-.08,3.32-.19,2.21-.18,4.43-.39,6.63-.62s4.42-.62,6.61-1,4.39-.84,6.57-1.28a139.9,139.9,0,0,0,25.52-8.15,119.45,119.45,0,0,0,23.12-13.19l-.53-1.13c-8.61,2-16.94,4.21-25.27,6s-16.65,3.15-25,4.28-16.75,2.14-25.21,3.16-17,1.92-25.58,2.21-17.15.44-25.75.24-17.22-.54-25.82-1.2-17.2-1.49-25.76-2.64c-4.28-.58-8.56-1.21-12.81-2s-8.5-1.6-12.73-2.55l-.35,1.19c4.13,1.41,8.28,2.76,12.49,3.92S794.71,803.1,799,804.11Z"/><path class="cls-2" d="M790.77,654.84a10.75,10.75,0,0,0-2,5.31l0,.37v.37l0,.74c.05.49.19,1,.29,1.45s.34.91.52,1.36l.7,1.24a17.66,17.66,0,0,0,3.73,4,42,42,0,0,0,9,5.36,107.21,107.21,0,0,0,19.59,6.37,220,220,0,0,0,40.65,5.19,222.53,222.53,0,0,0,41.26-1.93,112.71,112.71,0,0,0,20.81-4.94c.87-.32,1.74-.63,2.62-1l1.32-.55,1.32-.6c.88-.39,1.77-.89,2.65-1.34l1.33-.78.67-.4.67-.46a23.28,23.28,0,0,0,5.32-4.73,15.47,15.47,0,0,0,3.58-8.65v-.67l-.05-.69c0-.46-.08-.93-.15-1.38A16.9,16.9,0,0,0,944,656c-.29-.76-.63-1.49-1-2.2s-.77-1.26-1.18-1.86a22.89,22.89,0,0,0-5.28-5,36.56,36.56,0,0,0-5.32-3.12c-.89-.42-1.77-.84-2.64-1.19s-1.75-.72-2.63-1a110.06,110.06,0,0,0-20.8-5.09,234.26,234.26,0,0,0-81.92,3.07,109.61,109.61,0,0,0-19.6,6.28,44.69,44.69,0,0,0-9.07,5.22A18.79,18.79,0,0,0,790.77,654.84Zm72.54,23.27a219.56,219.56,0,0,1-35.24-1.37c1.44,0,2.86-.07,4.28-.15,1.8,0,3.59-.1,5.37-.2s3.57-.13,5.35-.26,3.56-.21,5.34-.41l5.35-.47c1.79-.17,3.58-.23,5.37-.45l5.4-.62a46.18,46.18,0,0,1,10.83-.15,39.35,39.35,0,0,1,5.35,1c1.63.36,3.24.8,4.86,1.14C878.22,677.18,870.77,677.8,863.31,678.11Zm66.61-17.48v0c-.06,0,0,0-.07-.06v0ZM805,649.22a105.38,105.38,0,0,1,19.23-4.49,214.54,214.54,0,0,1,39.65-1.8,210.5,210.5,0,0,1,39,5.09,97.36,97.36,0,0,1,18,5.92c.69.31,1.36.63,2,1s1.28.69,1.89,1,1.16.74,1.72,1.1,1.06.76,1.48,1.15.56.49.8.73l-.38-.27a32.59,32.59,0,0,0-3.89-2.23,74.48,74.48,0,0,0-8.24-3.41,138.52,138.52,0,0,0-17.13-4.64,193.4,193.4,0,0,0-35.19-3.85,155.56,155.56,0,0,0-35.39,3.18A95.24,95.24,0,0,0,811.48,653a54.85,54.85,0,0,0-15.16,9.24,83.7,83.7,0,0,1,16.37-5.58,139.87,139.87,0,0,1,16.87-2.88,265.83,265.83,0,0,1,34.24-1.42c11.45.2,22.93.9,34.37,2.08,5.72.59,11.44,1.32,17.11,2.28,2.84.48,5.66,1,8.45,1.73a42.22,42.22,0,0,1,4.11,1.24,16.59,16.59,0,0,1,2,.86,1.42,1.42,0,0,1-.18.34,5.17,5.17,0,0,1-.33.47l-.45.52-.58.56c-.19.19-.46.38-.68.57l-.35.29-.39.28-.8.57c-.58.36-1.13.74-1.77,1.08l-.93.53-.78.4q-1-.32-2.07-.6c-2.6-.75-5.22-1.33-7.83-1.9-5.24-1.09-10.5-1.92-15.78-2.59a255.43,255.43,0,0,0-31.74-2,202.12,202.12,0,0,0-31.67,2.25A132.1,132.1,0,0,0,818,664.68a83.47,83.47,0,0,0-14.78,5.62,83.31,83.31,0,0,1,14.95-5,131.4,131.4,0,0,1,15.52-2.67,201.21,201.21,0,0,1,31.43-.93A254.88,254.88,0,0,1,896.34,665c5.16.87,10.28,1.9,15.32,3.17,1.31.34,2.62.69,3.92,1.06a115.78,115.78,0,0,1-13.23,3.89c-1.12.26-2.25.51-3.38.75l-1.65-.42c-1.79-.4-3.58-.78-5.39-1a35.73,35.73,0,0,0-5.46-.48c-1.84,0-3.68.09-5.52.23s-3.66.21-5.48.2-3.63-.17-5.44-.32-3.63-.48-5.44-.72l-2.73-.4-1.37-.19-1.37-.13c-1.83-.15-3.66-.26-5.49-.29s-3.67-.09-5.51,0-3.67.13-5.5.31-3.65.46-5.46.77-3.62.74-5.41,1.17-3.56,1-5.31,1.61c-1.45.54-2.88,1.12-4.29,1.77a99.9,99.9,0,0,1-17.63-4.38,38.65,38.65,0,0,1-8.65-4.25,15,15,0,0,1-3.38-3.09,6.32,6.32,0,0,1-1.45-3.91,6.19,6.19,0,0,1,1.71-3.89,16.14,16.14,0,0,1,3.53-3A42.28,42.28,0,0,1,805,649.22Z"/><path class="cls-2" d="M1057.68,1573.17c-11.91,10.21-32.23,21-46.18,28.23-37.21,19.24,63.5-14.11,68.63-36.56.82-3.57,3.21-18.61,1.61-26.62C1081.24,1535.74,1071.15,1561.63,1057.68,1573.17Z"/><path class="cls-2" d="M1249.17,608c-4.58,5.25-26.52,19.21-42.55,25.9-10.16,4.23,22.31-3.17,33.79-1.21,44.45,7.57,115.82,157,128.71,181.53,9,17.22,35.05,65.21,63.31,112,3,4.92-6.47,8.14-3.59,13,20.79,34.86,55.54,73.31,61.3,87.61,23.73,58.85,31.13,75.79,28.06,64-14.42-55.49-11.6-60.74-16.23-70.95C1480.4,972.27,1252.55,604.11,1249.17,608Z"/><path class="cls-2" d="M1532.83,1093.43h0S1532.83,1093.43,1532.83,1093.43Z"/><path class="cls-2" d="M1239.18,362.28l-2.41-4-4-1.44c-.69-.25-1.39-.49-2.09-.71-.34-.11-.71-.23-1-.31l-.92-.21-1.84-.37c-.58-.09-1.1-.14-1.66-.21s-1.11-.14-1.62-.17l-1.51-.07c-.49,0-1-.05-1.48-.05l-1.4,0-1.4,0-1.33.08c-.87.07-1.78.11-2.61.22l-2.52.28-2.45.36c-.82.12-1.6.27-2.4.41s-1.59.28-2.36.44c-1.54.33-3.1.66-4.6,1l-2.27.55-2.23.59c-1.5.39-3,.83-4.42,1.25q-5.28,1.57-10.41,3.38c-5.23,1.41-10.37,3-15.45,4.74-1.56-1.45-3.11-2.94-4.63-4.47-6.52-6.46-12.88-13.31-19.12-20.31-12.45-14-24.44-28.7-35.72-43.87l-4.2-5.71c-1.37-1.93-2.76-3.84-4.1-5.78-2.73-3.86-5.38-7.76-8-11.68s-5.14-7.89-7.61-11.87l-1-1.55-.49-.79-.64-1-.64-.94c-.22-.31-.46-.61-.69-.91-.47-.61-.94-1.21-1.46-1.77a35.64,35.64,0,0,0-6.76-6,42,42,0,0,0-16-6.44,51.43,51.43,0,0,0-8.24-.91,62.65,62.65,0,0,0-8.12.33,67.47,67.47,0,0,0-15.51,3.61,74.93,74.93,0,0,0-7.27,3.06,77.47,77.47,0,0,0-6.85,3.8,71.2,71.2,0,0,0-22.34,21.74,55.45,55.45,0,0,0-6.63,14.52,41.31,41.31,0,0,0-1.38,16.35,34.39,34.39,0,0,0,2.09,8.18l.39,1c.14.31.29.6.43.91l.43.9c.16.32.37.72.56,1.07.43.82.69,1.19,1,1.71l.91,1.49c2.42,4,4.82,8.15,7.19,12.28,4.74,8.25,9.48,16.54,14.09,24.89s9.21,16.73,13.63,25.2,8.67,17,12.67,25.69,7.64,17.51,10.73,26.53c.57,1.72,1.13,3.44,1.66,5.18-2.12,2.05-4.21,4.14-6.28,6.24q-6.37,6.52-12.36,13.42c-4,4.59-7.81,9.31-11.4,14.22a96.53,96.53,0,0,0-9.52,15.62,34.58,34.58,0,0,0-2.85,8.85,16.9,16.9,0,0,0-.11,4.77,11.59,11.59,0,0,0,1.6,4.61,10.57,10.57,0,0,0,1.26,1.63l.12.25,2.44,4.55c.79,1.53,1.65,3,2.5,4.51l2.52,4.49q5.13,8.91,10.34,17.77c6.94,11.81,13.92,23.6,20.79,35.46s13.75,23.71,20.58,35.59l20.64,35.56.59,1,1.07.57c.82.43,1.66.89,2.49,1.28s1.67.68,2.5,1l2.48.74,2.46.54a61.76,61.76,0,0,0,9.64,1,115.51,115.51,0,0,0,18.59-1.07,217.5,217.5,0,0,0,35.58-8.1,315.83,315.83,0,0,0,33.47-12.5l170.06,287.2,44.87,75.46,22.54,37.67c3.8,6.28,7.52,12.53,11.5,18.85l.73,1.19c.25.39.56.83.84,1.23.59.82,1.2,1.61,1.84,2.38a48.93,48.93,0,0,0,4.08,4.3q2.16,2,4.47,3.76l1.15.87,1.12.82,2.21,1.61c11.75,8.64,23.45,17.39,34.6,26.61,2.78,2.31,5.52,4.66,8.15,7.06,1.31,1.2,2.6,2.42,3.82,3.65a44.53,44.53,0,0,1,3.34,3.71c.24.31.47.61.65.88l.3.45.36.58,1.44,2.34,2.9,4.66,5.78,9.33,11.58,18.67.18.29a4.09,4.09,0,0,0,.22.35c.2.29.41.58.63.86a7.83,7.83,0,0,0,.72.82l.37.4.42.36a12.17,12.17,0,0,0,1.8,1.31,12.84,12.84,0,0,0,6.12,1.64,15.9,15.9,0,0,0,3.87-.45,17.3,17.3,0,0,0,3.52-1.31,17.71,17.71,0,0,0,3.15-2,16,16,0,0,0,2.66-2.84,13.24,13.24,0,0,0,1.89-3.71,12.4,12.4,0,0,0-.33-8.48c-.14-.31-.26-.64-.41-.94l-.46-.87-.24-.43-.18-.3-.35-.58-1.41-2.33q-2.79-4.67-5.5-9.39c-3.62-6.3-7.15-12.65-10.54-19.06l-2.51-4.81-1.23-2.42-.3-.59h0a.18.18,0,0,0,0-.06l-.13-.4-.14-.54c-.39-1.51-.74-3.29-1.07-5s-.64-3.52-.94-5.3c-1.18-7.13-2.22-14.35-3.23-21.57s-2-14.45-2.89-21.69l-1.35-10.9a62.19,62.19,0,0,0-2.58-11.74,39.11,39.11,0,0,0-2.49-5.87c-.13-.26-.25-.45-.36-.65l-.35-.61-.7-1.22-1.39-2.42c-1.85-3.28-3.7-6.4-5.56-9.56l-11.13-18.94-22.36-37.79-89.69-150.94-89.84-150.85-22.47-37.7-6.79-11.4q8.25-6.9,16-14.42c4.4-4.27,8.67-8.7,12.77-13.34a173.61,173.61,0,0,0,11.72-14.7,101.11,101.11,0,0,0,9.89-17,55.12,55.12,0,0,0,3.45-10.28,39.63,39.63,0,0,0,.85-6,29.45,29.45,0,0,0-.35-6.74l-.27-1.53-.8-1.5c-1.65-3.07-3.29-6.17-5-9.12s-3.31-6-5-8.93c-3.35-5.91-6.67-11.82-10-17.69l-20.21-35.17c-6.77-11.69-13.54-23.37-20.44-35-3.43-5.81-6.91-11.59-10.38-17.37ZM1121.53,643.73c-1.4.25-2.8.53-4.2.72l-2.11.32-2.09.26c-2.8.36-5.59.58-8.35.68a56.14,56.14,0,0,1-8-.3,23.06,23.06,0,0,1-6.08-1.46l-22.44-32.65q-11.61-16.95-22.91-34.1t-21.91-34.72l-5.25-8.82-5.08-8.9c-1.64-3-3.34-6-4.86-9l-.4-.79a18.28,18.28,0,0,0,2.24.83,33.83,33.83,0,0,0,9.07,1.23,92.13,92.13,0,0,0,17.94-1.9c5.9-1.15,11.72-2.6,17.49-4.24s11.5-3.45,17.17-5.43a390.25,390.25,0,0,0,65.61-29.82c10.44-6,20.69-12.34,30.7-19.11s19.77-13.93,29.18-21.65a223.24,223.24,0,0,0,26.6-25.58q3.08-3.57,5.92-7.49c.52-.73,1-1.46,1.54-2.21,2.27,3.59,4.55,7.19,6.84,10.77,7.24,11.37,14.58,22.68,21.87,34s14.6,22.64,21.77,34l5.38,8.53c1.78,2.84,3.57,5.69,5.31,8.54s3.51,5.71,5.21,8.55c1.42,2.34,2.76,4.65,4.09,7a16.19,16.19,0,0,1-.3,3.43,35.37,35.37,0,0,1-2,6.58,80.91,80.91,0,0,1-7.55,13.87,154.66,154.66,0,0,1-10,13.38q-5.41,6.51-11.4,12.67A288.8,288.8,0,0,1,1245,584.08a312,312,0,0,1-28,20.24,304.63,304.63,0,0,1-62.23,30.29A229.22,229.22,0,0,1,1121.53,643.73Zm-88.07-233.87c-6.91-17.91-14.42-35.59-22.4-53.07-4-8.72-8.14-17.41-12.49-26-2.18-4.29-4.38-8.56-6.71-12.84l-.9-1.61a13.08,13.08,0,0,1-.75-1.42l-.25-.53-.32-.73c-.1-.24-.21-.49-.3-.73l-.24-.69a23.66,23.66,0,0,1-1.21-5.74,30.54,30.54,0,0,1,1.55-12,44.15,44.15,0,0,1,5.74-11.28,61.13,61.13,0,0,1,43.54-24.9,46.15,46.15,0,0,1,6.22,0,37.78,37.78,0,0,1,6,.86,27.58,27.58,0,0,1,10.36,4.54,20.84,20.84,0,0,1,3.85,3.64,11.24,11.24,0,0,1,.79,1l.38.53.34.55.35.55.43.75.88,1.52c2.43,4.23,4.93,8.41,7.46,12.55,5.07,8.29,10.39,16.4,15.78,24.45s11,16,16.69,23.81q4.3,5.88,8.74,11.66c1.48,1.94,3,3.85,4.48,5.77s3,3.8,4.61,5.68c6.18,7.55,12.66,14.92,19.68,22l2.67,2.63,2.74,2.59c1.85,1.72,3.73,3.42,5.72,5.07a84.24,84.24,0,0,0,12.93,9.19.54.54,0,0,1,0,.11,39.23,39.23,0,0,1-4.47,6.92,90.36,90.36,0,0,1-6.11,7.13c-2.17,2.36-4.47,4.68-6.85,6.94a293.85,293.85,0,0,1-31,25.57,222,222,0,0,1-34.92,20.9c-3.08,1.43-6.22,2.74-9.39,4a95,95,0,0,1-9.67,3,45.35,45.35,0,0,1-9.89,1.4,15.8,15.8,0,0,1-4.75-.6,5.69,5.69,0,0,1-3.44-2.51l0-.09,0,0a2.25,2.25,0,0,1-.38-.74,3.4,3.4,0,0,1-.09-.46,4,4,0,0,1,0-.55l0-.42v-.38a6.81,6.81,0,0,1,0-.78,10.89,10.89,0,0,1,.28-1.56l0-.12v-.07l0-1.85a16,16,0,0,0-.07-1.84l-.18-1.82c-.07-.61-.11-1.22-.23-1.81-.21-1.2-.37-2.4-.6-3.59l-.77-3.53q-1.73-7-3.94-13.88C1040.28,427.8,1036.91,418.82,1033.46,409.86Zm-30.6,95.7a13.72,13.72,0,0,1,.32-4.12,30,30,0,0,1,3.19-7.92,57.82,57.82,0,0,1,4.86-7.23c1.77-2.32,3.71-4.52,5.71-6.66a173.21,173.21,0,0,1,23.31-20.17c-10.61,8.09-33.86,31.78-23.25,22,19.86-18.21,40.23,0,31.71-6.76-7.53-5.95-.8-8.74-3.56-17.58-.22-.69-1.55-.09-3.54,1.31.73-.54,1.47-1.07,2.21-1.6s1.68-1.2,2.53-1.79a45.26,45.26,0,0,1,.81,10,11.77,11.77,0,0,0-.35,1.71c0,.31-.07.62-.08.94,0,.16,0,.33,0,.49v.43a5.75,5.75,0,0,0,0,.69,5.34,5.34,0,0,0,.12.77,4.28,4.28,0,0,0,.62,1.36,6.66,6.66,0,0,0,1.93,2.28,9.8,9.8,0,0,0,2.56,1.38,19.08,19.08,0,0,0,5.42,1,49.2,49.2,0,0,0,10.6-.77,105.28,105.28,0,0,0,10.29-2.24c3.39-.88,6.74-1.9,10.06-3a286.7,286.7,0,0,0,38.85-16.09,247.59,247.59,0,0,0,23.63-13.39c-22.44,17.27-53.58,37.7-92.62,57.44-14.9,7.53-65.6,18.77-45.19-10.46-27,35.57,25.91,23.39,48.12,15.05,61.23-23,163.24-101.86,157.45-120.44-3.17-10.16-34.5.16-34.5.16a3.54,3.54,0,0,1,.69.6,16.61,16.61,0,0,0-1.82-1.34c5.08-1.76,10.18-3.31,15.28-4.54,2.71-.65,5.41-1.19,8.07-1.6a54.41,54.41,0,0,1,7.76-.7,25.38,25.38,0,0,1,6.56.68,8.09,8.09,0,0,1,2,.81,3.09,3.09,0,0,1,.81.65,2.46,2.46,0,0,1,.38,1,7.41,7.41,0,0,1,0,2.23,24.51,24.51,0,0,1-2.17,6.37,56.77,56.77,0,0,1-4,6.85c-1.51,2.28-3.16,4.52-4.91,6.73a209.74,209.74,0,0,1-24,24.83c-8.68,7.81-17.84,15.19-27.28,22.22s-19.19,13.69-29.16,20q-7.45,4.77-15.06,9.34c-5.07,3.05-10.16,6.05-15.33,8.93-10.31,5.8-20.84,11.27-31.66,16.12-5.43,2.37-10.91,4.64-16.5,6.63a148.49,148.49,0,0,1-17,5c-2.88.64-5.79,1.2-8.72,1.56a59.11,59.11,0,0,1-8.8.56,30.33,30.33,0,0,1-8.58-1.25,13.77,13.77,0,0,1-3.78-1.82,8.66,8.66,0,0,1-3.92-6.75Zm185.78-102.09a25,25,0,0,0,1.26-4,21.6,21.6,0,0,0,.38-2.34,1.87,1.87,0,0,0,.76.12c3.61-.18,1.37,4.87-6.36,13.39.82-1.21,1.63-2.49,2.39-3.88A31.3,31.3,0,0,0,1188.64,403.47ZM1172,398.41l-.07-.07.1.09Zm-1.16-1.61,0,.09v0Zm-.3-1.22v-.06c0-.3,0-.28,0-.11A.61.61,0,0,1,1170.55,395.58Zm329.34,606.09c1.88,3.12,3.81,6.26,5.6,9.33l2.71,4.59a27.17,27.17,0,0,1,1.84,4.2,50.56,50.56,0,0,1,2.24,9.63l1.5,10.86q1.54,10.89,3.21,21.77c1.12,7.26,2.27,14.51,3.58,21.79.33,1.83.68,3.65,1,5.49s.75,3.67,1.3,5.7l.23.78.29.89c0,.12.14.37.23.59s.19.43.29.64l.33.62,1.29,2.46,2.63,4.88q5.32,9.7,11,19.2,2.82,4.76,5.73,9.46l1.46,2.35.37.59.17.29.09.16.2.34.14.32a6.2,6.2,0,0,1,.21.6,3.78,3.78,0,0,1,.08.56,2.53,2.53,0,0,1-.13,1.08,5.16,5.16,0,0,1-1.63,2.34,9.15,9.15,0,0,1-1.43,1,9,9,0,0,1-1.6.62,5,5,0,0,1-2.83,0,2.3,2.3,0,0,1-.91-.5l-.11-.07-.09-.11c-.06-.07-.14-.11-.19-.2a2.5,2.5,0,0,0-.18-.24,1.64,1.64,0,0,1-.16-.23l-.18-.29-11.82-18.48-5.91-9.23-3-4.62-1.48-2.31-.37-.58c-.12-.2-.31-.46-.47-.69-.33-.49-.66-.9-1-1.32a52.49,52.49,0,0,0-4-4.39c-1.37-1.34-2.76-2.62-4.16-3.87-2.81-2.49-5.66-4.86-8.54-7.19-11.53-9.27-23.41-17.88-35.35-26.41l-2.24-1.59-1.11-.79-1-.76c-1.38-1-2.71-2.11-4-3.25a41,41,0,0,1-3.51-3.6c-.54-.64-1.06-1.28-1.55-2-.24-.33-.47-.65-.71-1l-.73-1.14c-3.9-6-7.75-12.27-11.62-18.46l-23-37.34-45.91-74.81-174-284.76a321.39,321.39,0,0,0,32.71-16.68,307.62,307.62,0,0,0,27.84-18.44l5.78,9.4,23,37.39,91.93,149.57,91.78,149.65,22.87,37.45Z"/><path class="cls-2" d="M1169.05,607.47c.15.85-1.21-.89-2.81-3.36-.74-1.15-1.6-2.45-2.54-3.89-13.59-18.45-49.63-68-56.12-84l-.91-1.35a5.59,5.59,0,0,1,9.28-6.23q.15.23.27.45l0,0s5.44,9.88,12.87,23.45c9.51,15.91,21,37.53,32.24,59.54l2.5,4.74c-7.65-17.66-14.3-32.07-20.08-43.81-3.11-7.09-23.45-44.46-22.27-43.8,11.14,6.28,23.17,22,36.51,42,12.44,24.19,26.17,50.93,26.17,50.93l0,.07a7.23,7.23,0,0,0,.51.84,7.54,7.54,0,0,0,12.61-8.24c-.08.16-.45-.21-1-.93a25,25,0,0,1-5-5.05c-2.38-3.25-38.23-51.59-50.9-74.92-1.16-2.14-2.42-4.49-3.52-6.77-.58-1.52-1.06-2.94-1.43-4.24l-.57-.86a5.59,5.59,0,0,1,0-6.22,2.92,2.92,0,0,1,.22-.47l.17-.05a6.2,6.2,0,0,1,1.14-1,5.59,5.59,0,0,1,7.76,1.53q.15.23.27.45l0,0s3.07,5.57,7.74,14.09c13.16,19.93,30.23,53.27,39.19,71.28,1.33,2.93,2.45,5.47,3.34,7.49.34.66.66,1.28,1,1.87l.26.5-1.08-2.85c1.68,3.43,2.64,5.44,2.64,5.44.47.78-4.63-12-11.33-27.32-6-14.47-13.77-32.26-21.77-47.33,3.37,2.21,10.18,7.88,19.06,16.78l25.67,50.82,0,.07a7.38,7.38,0,0,0,.63,1,8.4,8.4,0,0,0,14.86-7.37,16,16,0,0,0-.68-2.67c-3.29-9.73-12.55-29.19-11.3-29.59s9.63,8.31,16.38,14.89l2.61,5.29,0,.09a9.26,9.26,0,0,0,.83,1.37,9.7,9.7,0,0,0,8.28,4c-6.07,9.14-32.22,31.08-57.07,44.81,72.22-29.78,122.42-98.78,115-110.32s-67.69-108.84-68.39-106.13c-3.79,14.61-74.1,74.1-154.55,104.41,9.53-3.22,22.39-1.23,27.39.58a22.29,22.29,0,0,0,1.6,8.46c10.23,27.05,52.3,98.25,52.3,98.25l0,.06a6.88,6.88,0,1,0,11.91-6.89Zm61.06-190.55a5.58,5.58,0,0,1,7.75,1.52c.1.15.19.3.28.46l0,0s40.15,72.89,51.22,94.72c3.07,6.06,1.2,4-1.22.25-13-20.09-59.58-89.23-59.58-89.23A5.58,5.58,0,0,1,1230.11,416.92Zm-20.28,23.52a5.59,5.59,0,0,1,7.76,1.53q.15.22.27.45l0,0s40.15,72.9,51.22,94.73c3.08,6.06,1.2,4-1.22.25-13-20.1-59.58-89.23-59.58-89.23A5.6,5.6,0,0,1,1209.83,440.44Zm-23.69,19.65a5.59,5.59,0,0,1,7.76,1.52c.1.15.19.3.28.46v0s40.16,72.89,51.23,94.72c3.07,6.06,1.2,4-1.23.25-13-20.09-59.57-89.23-59.57-89.23A5.58,5.58,0,0,1,1186.14,460.09Zm-23.28,18.34a5.59,5.59,0,0,1,7.75,1.53c.1.15.19.3.28.45l0,0s40.15,72.89,51.22,94.72c3.07,6.06,1.2,4-1.22.25-13-20.09-59.58-89.23-59.58-89.23A5.59,5.59,0,0,1,1162.86,478.43Zm-49.76,26.26a5.51,5.51,0,0,1,1.4,1.16C1114,505.41,1113.55,505,1113.1,504.69Z"/><path class="cls-2" d="M1072.77,518.85c-2.83,7.43,55.81,105.09,55.81,105.09l0,0a6.32,6.32,0,0,0,.33.56,6.24,6.24,0,0,0,10.32-7s-67.6-89.24-63.4-97.82c3.67-7.5,21.28,15,53.73,79.17C1101.09,542.1,1078.87,502.83,1072.77,518.85Z"/><path class="cls-2" d="M1044.08,526.16c-10.65-4.6,53,102.58,53,102.58v0c.09.15.18.3.28.45a5.59,5.59,0,1,0,9.28-6.23S1036.31,525.09,1044.08,526.16Z"/><path class="cls-2" d="M1039.31,301.38c-21.8,46.26,65,43.51,57,84.47-5.39,27.42-13.52,68-34.75,82.16-3.14,2.09,20.87-2.23,54.73-25,25.46-17.13,49.77-40.11,42.15-47.15-29.74-27.47-36-38.11-60.17-68.68-23-29.13-31.32-71.71-62-65.58-12.67,2.53,1.75,7.47-34.8,27.52C993.16,293.67,1048.32,282.26,1039.31,301.38Z"/><path class="cls-2" d="M1090.09,590.36c5.68,12.14-26.91-62.33-44.39-67.67C1056.9,530.65,1083.75,576.8,1090.09,590.36Z"/><path class="cls-2" d="M1606.93,1255.2a36.73,36.73,0,0,1-2.6,22.7,31.62,31.62,0,0,1-6.74,9.38,28.58,28.58,0,0,1-9.77,6.15,27.77,27.77,0,0,1-11.28,1.71,28.39,28.39,0,0,1-10.84-2.86,31.94,31.94,0,0,1-14.86-15.44,21.48,21.48,0,0,1-1-2.47l-.44-1.26a11.18,11.18,0,0,1-.4-1.28l-.64-2.58c-.16-.89-.33-1.78-.4-2.67a32.31,32.31,0,0,1-.07-5.29,48.27,48.27,0,0,1,.57-5.15c.53-3.39,1.3-6.7,2.13-10,.41-1.63.85-3.26,1.29-4.88.22-.82.47-1.62.64-2.44s.33-1.65.5-2.48c1.31-6.58,2.58-13.16,3.47-19.77a148.47,148.47,0,0,0,1.46-19.81l0-8.41,4.47,7.35a138,138,0,0,0,10.29,14.63c3.72,4.68,7.7,9.17,11.78,13.65s8.26,8.93,12.27,13.79a74.29,74.29,0,0,1,5.75,7.81,44.88,44.88,0,0,1,2.5,4.49,34,34,0,0,1,1.92,5.11Zm-10.08,2.41a22.66,22.66,0,0,0-1-3.51,31.49,31.49,0,0,0-1.67-3.62,64.5,64.5,0,0,0-4.53-7.24c-3.38-4.8-7.19-9.53-10.94-14.35s-7.49-9.74-11-14.87a143.47,143.47,0,0,1-9.51-16l4.49-1.06a154.3,154.3,0,0,1-3,20.19c-1.42,6.63-3.2,13.13-5,19.61-.23.8-.46,1.61-.67,2.42s-.36,1.64-.53,2.46c-.32,1.65-.64,3.3-.93,4.94-.58,3.29-1.1,6.59-1.37,9.87a47.22,47.22,0,0,0-.18,4.89,29.75,29.75,0,0,0,.41,4.75c.12.78.32,1.53.51,2.28l.74,2.26a9.34,9.34,0,0,0,.44,1.1l.47,1.08a16.58,16.58,0,0,0,1.07,2.1,27,27,0,0,0,13.41,12.14,22.08,22.08,0,0,0,8.66,1.59,20.94,20.94,0,0,0,8.36-1.94,22.12,22.12,0,0,0,11.19-12.33,27.2,27.2,0,0,0,.59-16.78Z"/><path class="cls-2" d="M1582.31,1245.17a19.5,19.5,0,0,1,2.88,1.51,23.76,23.76,0,0,1,2.47,1.81,22.28,22.28,0,0,1,4,4.49,21.25,21.25,0,0,1,2.74,5.57,21.71,21.71,0,0,1,1.08,6.51,20.33,20.33,0,0,1-1.08,6.86,18.22,18.22,0,0,1-3.47,6,15.28,15.28,0,0,1-11.65,5.48l-.5-.64a26.62,26.62,0,0,0,6.42-7.9,20.38,20.38,0,0,0,1.72-4.72,20.61,20.61,0,0,0,.49-5,32.13,32.13,0,0,0-1.89-10c-.54-1.63-1.17-3.24-1.85-4.84s-1.38-3.19-2.1-4.79Z"/><path class="cls-2" d="M1385.11,912.51a63,63,0,0,1,14-12.74,59.71,59.71,0,0,1,17.57-8.27,34.08,34.08,0,0,1,10.28-1.24,18.89,18.89,0,0,1,5.73,1.08,13.19,13.19,0,0,1,5.59,3.79,13.38,13.38,0,0,1,2,3.11,13.88,13.88,0,0,1,1,3.47,17.08,17.08,0,0,1-.33,6.51,27.23,27.23,0,0,1-5,10.12,47.15,47.15,0,0,1-15.76,13,68.68,68.68,0,0,1-9.12,4,73.58,73.58,0,0,1-9.48,2.71,45.59,45.59,0,0,1-9.75,1.16,21.18,21.18,0,0,1-9.7-2.07,10,10,0,0,1-3.81-3.34,9,9,0,0,1-1.44-4.73,13.42,13.42,0,0,1,.77-4.73,25.05,25.05,0,0,1,2-4.26,20.88,20.88,0,0,0-1.59,4.38,12.69,12.69,0,0,0-.3,4.54,7.77,7.77,0,0,0,1.72,4,8.25,8.25,0,0,0,3.48,2.39,18.14,18.14,0,0,0,8.68.62,37.21,37.21,0,0,0,8.63-2.31,55.11,55.11,0,0,0,15.09-9.51,85.63,85.63,0,0,0,6.3-6,59.75,59.75,0,0,0,5.32-6.38,29.76,29.76,0,0,0,3.65-6.44,11.08,11.08,0,0,0,.73-2.75,5.81,5.81,0,0,0,0-1.1,3.65,3.65,0,0,0-.25-1,4.36,4.36,0,0,0-1.7-1.93,10.23,10.23,0,0,0-3.3-1.35,25.28,25.28,0,0,0-8.37-.26,55.72,55.72,0,0,0-17.24,5.25A61.77,61.77,0,0,0,1385.11,912.51Z"/><path class="cls-2" d="M1398.79,908.54a26.17,26.17,0,0,1,7.08-5c.67-.31,1.34-.61,2-.87a21.56,21.56,0,0,1,2.15-.69,16.84,16.84,0,0,1,4.67-.62,10.49,10.49,0,0,1,2.6.36,7.43,7.43,0,0,1,2.69,1.33,6.07,6.07,0,0,1,2,2.72,6.26,6.26,0,0,1,.34,1.61c0,.26,0,.52,0,.77s0,.5,0,.74a9.85,9.85,0,0,1-.74,2.58,14.11,14.11,0,0,1-1.15,2.15,22.64,22.64,0,0,1-1.36,1.88c-.48.59-1,1.16-1.49,1.7a39.93,39.93,0,0,1-14.44,9.41,30,30,0,0,1-8.37,2,13.78,13.78,0,0,1-4.33-.31,7.06,7.06,0,0,1-2-.87,4.51,4.51,0,0,1-1.52-1.61l.41-.25a3.89,3.89,0,0,0,1.48,1.22,6.21,6.21,0,0,0,1.86.53,12.94,12.94,0,0,0,4-.18,29.17,29.17,0,0,0,7.59-2.66,41.17,41.17,0,0,0,6.82-4.29,33.35,33.35,0,0,0,5.73-5.45,17,17,0,0,0,2-3.16,7.17,7.17,0,0,0,.86-3.06,2.91,2.91,0,0,0,0-.3c0-.1,0-.18,0-.27a2.89,2.89,0,0,0-.15-.42,1.54,1.54,0,0,0-.48-.58,3.49,3.49,0,0,0-1-.51,7.86,7.86,0,0,0-1.51-.32,12.34,12.34,0,0,0-1.75-.09c-.61,0-1.23,0-1.86.1a33.22,33.22,0,0,0-3.86.61c-2.61.55-5.22,1.35-7.94,2.2Z"/></svg>