<svg id="Calque_1" data-name="Calque 1" xmlns="http://www.w3.org/2000/svg" viewBox="0 0 2000 2000"><defs><style>.cls-1{fill:#929ac3;}.cls-2{fill:#1a428a;}</style></defs><path class="cls-1" d="M1858,584.41c-13-37.71-75.33-123.38-112.58-174.56-10.05-13.81-18.69-25.69-24.8-34.43C1633.93,264,1561,199.36,1358.52,112.06c-107.21-46.21-213.59-69-331.46-69-84.5,0-174.89,11.7-275.76,34.84-107.06,24.57-195.71,62.45-263.49,112.61-16.25,12-36.7,24.21-58.36,37.12-34.78,20.75-70.76,42.2-88.17,62.61-4.47,5.26-9.8,11.67-15.81,18.9-16.11,19.39-38.19,45.94-61.15,70.84-48.07,45.26-79.64,104.67-135.64,220.41-74,153-93.58,198.48-98.37,331C23.85,1097.71,51,1239.57,111.1,1353.05l.69,1.6C133.1,1416.48,233.14,1551,279.47,1606c58.59,68.88,161.43,150,268.34,211.56,243.82,146.71,465,175.59,739.68,96.69,118.72-34,269.74-110.19,336.65-169.73,89.54-79.64,183.57-173.23,262.79-362.46a1396.15,1396.15,0,0,0,78.65-255.18c28-166.84-32.29-406-106.83-540.64Zm2.14,778.51c-57.46,124-150.66,244.54-293.27,379.19l-2,1.53c-23.77,13.93-45.32,27.82-66.17,41.25-75.26,48.5-140.27,90.38-262.42,106.53-76.15,10-146.92,15.19-213.3,15.19-204.59,0-368.06-48.73-523.07-152.28-242.64-162.06-378.26-356.8-403.12-578.81-27.27-243.41,16.32-498.5,111-649.88,126.48-202.17,298.52-343.17,484.41-397,270-78.21,545.38-59.65,755.65,51,199,103.61,354.06,295.93,436.71,541.51C1960.86,947.24,1952.64,1163.18,1860.1,1362.92Z"/><path class="cls-2" d="M1009,343.64h0a1.34,1.34,0,0,0-1,1c-.1.4-.15.78-.24,1.18a58,58,0,0,0-7.24,30c.27,11.35,4.64,22,5.76,33.2,1.35,13.57-5.79,23.22-12.68,34.11a115.72,115.72,0,0,0-12.86,27.78c-6,19.62-6.86,41.08,0,60.63,6.92,19.8,23,37.45,23.27,59.25.26,23.87-17,43.4-25.95,64.8a67.76,67.76,0,0,1-26.09-36.81c-2.62-9.52-3.14-19.48-5.87-29a66.34,66.34,0,0,0-12.32-22.9c-11.07-13.83-30.51-24.27-36-41.81-3-9.58-1-19.85-1.67-29.68a54.45,54.45,0,0,0-6.57-22.11c-8.19-15.21-22.46-28.13-37.65-36.13-.86-.45-1.62.82-.89,1.41l.74.61a.72.72,0,0,0,.24.94c22.45,15.18,13.25,44.36,4.84,64.7-8.28,20-16.46,41.49-5.44,62.17,5.57,10.45,12.64,19.32,14.29,31.43,1.63,11.94-.58,24-2.77,35.74-3.28,17.57-6.38,36.09.55,52.83-6.22-1.26-11.84-2.82-17.57-6.87A70.12,70.12,0,0,1,828.64,662c-8.66-12.8-14.72-27.34-25.23-38.87-21.57-23.65-60.86-18.6-78.75-46.61a.76.76,0,0,0-.39-.3c-9-14.39-12.29-31.89-23.13-45.26-13-16.06-34.71-23.1-54.84-23.55l-.78-.49c-1.47-.83-2.52,1.31-1.47,2.35,15.42,15.32,26.46,32.18,27.05,54.61.51,19.59-3.48,38.32,2.14,57.05.19.68.42,1.35.64,2,.1.31.2.62.31.93.58,1.67,1.21,3.34,2,5,.47,1,1,2,1.55,3,.41.79.8,1.58,1.23,2.35.18.31.37.62.56.93A73.06,73.06,0,0,0,690,649.27c6.32,6.62,14,11.75,20.31,18.35,8.78,9.16,10.26,19.69,7.75,31.83-1.94,9.38-4.95,18.47-4.82,28.15.22,16.51,9.19,37.63,25,45.27-19.9.73-31.34-18.51-43-32.25S669,719.53,650.85,719.29c-20-.26-39.33,9.06-59.4,6.76-21.25-2.44-38.09-17.17-54.51-29.55-18.49-13.92-38.19-27-59.82-35.48a.62.62,0,0,0-.87.66.68.68,0,0,0,.22.81c32.62,28.55,35,76.93,65.65,107a64,64,0,0,0,24.68,15.44c9.88,3.2,20.34,3.35,30.42,5.59,11.2,2.5,19.63,8.44,25.09,18.55,4.4,8.16,6.89,17.19,10.4,25.74,6.27,15.29,19.42,31.42,36.81,32.21-6.85,3.76-14.17,6.63-22.1,6.93-11.64.43-20-6.25-28.47-13.33-6.76-5.67-13.59-10.72-22.13-13.35a66.24,66.24,0,0,0-28.11-1.88c-41.37,5.43-78.84,43.25-121.84,24.07-.67-.29-1.34.68-.7,1.12,15.85,11,37.64,9.55,55.21,4.08,22.6-7,43.08-20.59,66.8-24,11.46-1.65,23.48-1,34,4.26,9.33,4.7,16.13,13,24.93,18.46,13.63,8.51,28.92,6.17,42.39-.5-1.8,3.8-3.52,7.63-5.19,11.48h0c-8.39,2.2-16.1,5.91-24.79,7.08a39,39,0,0,1-24.34-4.28c-11.61-6.21-21.08-16.49-34.24-19.63-24.26-5.78-42.88,18-66.38,18.41-.44,0-.46.72,0,.78s.71.07,1.06.1l-3.2.77c-.82.21-.48,1.6.36,1.45,13.84-2.37,28.36-5.07,42.34-2.37,14.47,2.8,24,12.45,33.34,23.1,7.18,8.22,14.53,15.78,24.12,21.23,9.07,5.16,21.57,9.93,32.33,9-1.84,6.87-3.55,13.77-5,20.72l-.26.15c-17.92-5.78-33.51-13.28-47.84-25.92-12.76-11.26-22.38-27.29-37.35-35.86-16.48-9.43-31.69.14-48.76,1.17-23.42,1.41-41-15-58.56-27.87a.38.38,0,0,0-.49.59c13.17,13.89,29.35,27.13,48.7,30.65,19,3.46,38.36-10.7,56.36-.79,8.23,4.53,14.56,12,20.54,19.07a160.59,160.59,0,0,0,19.53,19.76c11.76,9.81,26.31,19,41.55,22.81C617,974.3,601.7,987.07,583,990.66c-12.88,2.47-24.06-2.26-35.65-7.21-9.75-4.17-19.53-7.25-30.18-8-20.47-1.41-38.73,5-55.61,16.23-20,13.27-37.85,28.35-63.39,24.62a.65.65,0,0,0-.45,1.19.62.62,0,0,0-.15,1c14.61,12.57,31.66,21.14,51.21,15.81,11.12-3,21.05-8.87,32.59-10.56a67.09,67.09,0,0,1,34.21,3.86c20.71,8.17,36.76,24.63,57.68,32.74a156.07,156.07,0,0,0,30.69,8.28c9,1.5,18.65,2.88,27.93,2.51-4.9,7.48-8.61,15.88-14.83,22.44-5,5.3-11.4,7.17-18.13,7.95l-1.75-.13c-9.34-.75-18.2-2-27.56-.57a74.59,74.59,0,0,0-24.45,8.41,73,73,0,0,0-20.9,17.18c-6.66,8-10.57,17.68-15.93,26.54-11.83,19.53-32.79,26.11-54.44,22a.79.79,0,0,0-.89,1l-.86-.34a.5.5,0,0,0-.41.92c16.22,10,37.4,15.84,56.53,13.31a45.18,45.18,0,0,0,21.67-8.66c6.47-4.93,11.58-11.32,17.62-16.7,7.68-6.85,16.32-10.32,26.71-9.55,9.37.7,18.39,3.75,27.53,5.72a99.86,99.86,0,0,0,45.27-.91c-8.23,8.54-12.4,20.62-16.95,31.75-3.54,8.65-7.84,17.81-15.61,23.47-8.83,6.42-19.76,5.55-30.08,6.34-17.17,1.31-33.32,6.59-47.08,17.13-16,12.24-22.11,29.36-30.9,46.74-7,13.83-18.33,25.18-32.19,31.27-7.18,1.69-14.46,3.13-21.83,4.53a.68.68,0,0,0-.53.76.46.46,0,0,0,.4.56c.57,0,1.13,0,1.69,0,16.66,1.07,34.28-3.24,49.52-9.54,17-7,31.06-17.55,45.55-28.65,7.39-5.67,15.2-11,24.18-13.81,10.24-3.15,21.42-2.61,31.93-1.35,15.71,1.89,31.71,5.52,47.49,2.58a40.83,40.83,0,0,0,17.79-6.64,29.32,29.32,0,0,0,4.29-3.77c.67-.58,1.33-1.16,2-1.78,5.39-5.14,10.16-11.25,16.13-15.71a90.13,90.13,0,0,1-9.93,19.18c-5.16,7.21-12,12.7-19.25,17.73-14.45,10.06-28.22,19.19-38.23,34.07-9.49,14.08-15.61,30.33-18.95,46.93a235.35,235.35,0,0,0-3.84,31c-.62,9.34-1.68,19.54-.26,28.9l-.48,1.91c-.2.8,1.12,1.21,1.39.43.06-.18.13-.35.2-.53a.6.6,0,0,0,.18-.29c.05-.19.09-.4.14-.6,3.15-9,7-17.8,10.62-26.6,3.76-9.19,8.25-18.06,14.45-25.86,12.75-16,29.32-22.68,49.46-23.08,17.1-.34,33.61.2,48.87-8.71a60.54,60.54,0,0,0,22.38-22.69,56.18,56.18,0,0,1-4.54,15.36,59.86,59.86,0,0,1-18.51,22.54c-8.27,6.06-17.76,8.07-26.92,12.23A48.75,48.75,0,0,0,680.54,1381c-11.24,15.07-14.55,34-11.73,52.33,1.57,10.21,7.36,21.8,1.69,31.64-5,8.73-15.32,13.43-24.2,17.35l-.82.13a.56.56,0,0,0-.47.73.6.6,0,0,0,.79.71c.36-.11.72-.24,1.07-.36,16.54-1.24,35-3,47.29-15.35,15.54-15.64,9.07-41.59,24.77-56.83,16.25-15.78,41.57-13.47,62.12-17.51,18.54-3.65,31.85-13.91,44.05-27,5,15.37-20.91,28.65-28.33,38.85-10,13.76-8.59,32-1.8,46.76,4.06,8.84,10,17.85,7.86,28-2.16,10.44-10.49,19.09-15.23,28.48-7.38,14.65-13.29,34.48-10.24,51.41-.05.88-.1,1.76-.1,2.65,0,.46.43.55.76.41.17.67.32,1.34.52,2a.67.67,0,0,0,1.27-.13c.56-3.7.93-7.38,1.27-11,3-8.53,7.31-16.39,13.95-23,6.84-6.82,15.57-11.23,23.76-16.17,15.45-9.33,26.19-20.72,23.19-39.88-1.52-9.77-6.13-20.87-2-30.57,4-9.31,14.4-13.11,23.23-16.26,18.37-6.55,34-15.32,45.72-31,3,7.89,4.22,16.17-1.26,23.66-4.73,6.45-10.56,11.39-13.7,19a45.68,45.68,0,0,0,2.23,39.65c3.93,6.89,10.15,11.89,14.81,18.22,7.07,9.59,5,20.08.49,30.31-5.64,12.85-15.1,28.55-5.59,42a.78.78,0,0,0,1.35-.73c-.21-.55-.33-1.1-.5-1.64,4-6,7.21-11.27,12.94-16s12.32-8.78,18.23-13.5c12-9.56,18.86-21.08,14.92-36.76-2.6-10.35-8.35-20.36-6.28-31.35,2.46-13,12.44-19.34,23.77-24.09,12.16-5.09,22.27-12.07,28.64-22.3a64.36,64.36,0,0,0,5.2,27.77c6.86,16.15,18.56,27.06,32.43,37.19,7,5.13,15,11,17.38,19.81,2.79,10.17-1.84,21.26-1,31.72,1.39,16.75,9.87,32.07,19.3,45.77a25.5,25.5,0,0,0,1.33,2.47.48.48,0,0,0,.54.21l1,1.39c.34.47,1.23,0,.93-.51l-1.54-2.83c-1-8.9-2.66-17-.5-26.11,2.39-10,7.81-17.91,14.93-25.15,11.58-11.78,18.85-26.55,11.64-43-3.48-7.89-9.83-14.39-12-22.87-2.69-10.6,2.49-21,7.75-29.89,7.88-13.39,18.18-27.83,14.26-43.83,15.1,10.31,13.35,31,18.89,46.77,5.42,15.47,14.85,30.25,29,39,12.1,7.43,39.08,7.95,41.15,25.51,1.09,9.19-.92,18.38.58,27.7a90.23,90.23,0,0,0,7.28,23.64c7.82,16.86,20.89,32.07,38,39.87.53.24,1.07-.54.56-.9-15.44-10.82-28.2-24.55-35.6-42.11a85.64,85.64,0,0,1-6.45-26.53c-.68-8.63,2-18.33-.56-26.69-4.44-14.48-22.66-16.2-34.61-21-18.06-7.19-29.37-24.28-35.25-42.15-4.21-12.76-3.76-37-17.08-45.09,2.45-.66,4.88-1.38,7.32-2.09,6,2.93,10.73,6.05,14.69,12.08,3.87,5.88,6.26,12.51,8.18,19.23,3.57,12.5,6.48,26.23,15.78,35.91,8.24,8.57,19.84,12.09,30.12,17.44,7.31,3.79,13.72,8.6,17.22,16.29,3.12,6.83,4,14.77,4.63,22.25,0,0,0,.08,0,.12a1.34,1.34,0,0,0,.07.54l.09,1c.07.87,1.35.71,1.34-.15v-.1a1.11,1.11,0,0,0,.85-.91c2.89-13.34,3.95-28.09-4.2-39.85-7.72-11.13-20.8-17.29-28.09-28.75-15.19-23.87,9.13-53.28-.14-78.74,3.45-1.71,6.88-3.45,10.28-5.26a2.09,2.09,0,0,0,.39,2.22c11.59,13.87,3.48,32.78,0,48.13-3.25,14.41-2.69,28.81,8.89,39.29,5.64,5.1,12.45,8.64,18.32,13.43,7.65,6.23,11.52,14.5,12.33,24.26,1.55,18.86-7,36.87-6.71,55.72.25,17.22,5.94,37,18.07,49.7.51.54,1.19-.27.87-.81-9.68-16.69-16.58-33.11-15.2-52.86,1.27-18.28,10-35.65,7.78-54.22-2-16.42-12.31-24.76-25.07-33.64-7.34-5.11-14-11-15.6-20.27-1.51-8.56.65-17.41,2.83-25.66,3.95-15,8.65-32.7-2.28-45.93,16.54,2.32,31.46,12.23,39.19,27.37,3.81,7.48,6.33,15.5,11.49,22.24a57.05,57.05,0,0,0,16.22,14.13c14.62,8.72,30.47,10.21,46.92,12.52,10.86,1.53,20.79,5.12,25.67,15.7,3.45,7.5,4.88,15.73,8.69,23.1,7.42,14.38,21.19,27.23,37.24,31a.55.55,0,0,0,.41-.06c.5.22,1,.47,1.51.67s1.1-.54.56-.89c-32.46-21.07-7-65.66-24.2-94.33-10.5-17.49-34.08-15.5-45.7-31.06-10.63-14.24-7.18-34.09-7-50.6.15-16.22-2.82-35.47-17.87-44.46l.91-1c12.56,1.91,24.64,3.48,32.59,14.7,5.68,8,8.64,17.63,14.31,25.68a63.59,63.59,0,0,0,48.3,26.51c10.91.49,21.9-2.57,32.76-1.06,13.36,1.87,17.94,11.72,22.87,22.77,7.57,17,24.27,27.79,42.68,30.14a.5.5,0,0,0,.29-.94c-9.53-5.44-20.19-7.94-28.56-15.5-8.09-7.31-10.43-17.48-15.54-26.66-11.27-20.25-32.23-13.77-51.47-13.75-23.1,0-42.54-14-52.73-34.09-4.26-8.41-8.08-17.62-15.71-23.62-7.21-5.67-16.58-7.84-25.64-8.8,3.53-4,7-8.13,10.3-12.29,5.79,1.7,11.72,2.48,17.36,5a61.72,61.72,0,0,1,18,12.15c10.06,9.79,13.73,22.94,21.7,34.07,18.52,25.85,53.41,6.18,75.75,24.13a.71.71,0,0,0,1.14-.24.89.89,0,0,0,.7-1.18c-5-12.27-15.13-20.35-27.48-24.68-7.16-2.51-14.7-4.08-21.53-7.48-7.92-4-13-10.6-16.22-18.7-5.63-14.33-4.84-30.44-11.69-44.4-5-10.08-14.38-21.77-25.55-25.44,3.67-6.35,7.19-12.79,10.48-19.34a1.94,1.94,0,0,0,.31.26c3.81,2.26,7.8,3.72,11.25,6.63a41.12,41.12,0,0,1,8.53,10.27c5.2,8.59,7.38,18.47,9.08,28.25,2.91,16.77,4.94,34.55,16.45,48a35.54,35.54,0,0,0,16.65,11.29c9.84,2.94,20.54-.4,30.21,3,21.22,7.48,14.64,36,17,52.94,2.21,16,12.11,32.89,27.28,39.56a.6.6,0,0,0,.63-1c-15.51-13-24.57-27.49-25-48.21-.29-15.28,1.09-35-13.09-45.11-6.69-4.77-14.81-4.63-22.68-4.72-11.5-.14-20.67-2.93-28.06-12.2-12.54-15.73-12.06-36.91-16.65-55.57-1.8-7.36-5.43-16.81-10.89-24.29,2.1,1.28,4.21,2.51,6.29,3.7,8.51,4.87,17.52,9.33,27.11,11.64s19,1.78,27.88-2.46c8.11-3.9,14.89-9.94,22.73-14.29,11.48-6.38,23.07-6.76,33.11,2.43,7,6.39,12.83,13,21.75,16.78,15.11,6.33,30.85,4.38,44.44-4.11.93-.07,1.87-.15,2.83-.31a.55.55,0,0,0-.12-1.1c-.44,0-.87,0-1.31.06a.82.82,0,0,0-1.24-.59c-.35.21-.72.39-1.08.59-22.19-.81-31.32-26.21-41.74-42.25-4.59-7.06-10.53-14-18-18.17-8.23-4.55-16.6-4.06-25.5-2-11.13,2.57-20.53,4-30.08-3.62-7.36-5.88-12.52-14.1-17.5-22-3.38-5.35-8.54-12.81-14.74-18.68a57.51,57.51,0,0,0,20-4.18c14.31-5.86,22.6-17.6,33.16-28.15,5.54-5.54,12.15-10.7,20.31-11,9.08-.38,17,5.28,24.16,10.1,13.48,9,25.72,15.77,42.37,11.24,9.49-2.58,18.07-7.65,26.36-12.8,10.65-6.62,21.77-13,31.75-20.54a.48.48,0,0,0,.17-.43c.39-.45.18-1.3-.55-1.17-21.45,3.59-43.1,1-60.55-13-14.67-11.82-21.74-31.36-38.76-40.53a38.73,38.73,0,0,0-27.34-3.33c-9.62,2.38-17.26,8.75-26,13.14-21.47,10.86-41-1.54-57.45-15.19,15.93,1.48,32.32-2.73,44.5-13.53,14.8-13.13,21.31-32.33,33.48-47.5,6.54-8.15,15-15.78,25.56-18,10.25-2.17,20.48,1.84,30.78,1.21,18.79-1.15,30.29-20.35,39.27-34.65,11.77-18.73,22.64-38.81,39.83-53.3a.77.77,0,0,0-.08-1.31.84.84,0,0,0-.71-.25c-22.76,2.47-41.06,15.67-61.28,24.82-13,5.89-24.81,4.22-38,0-10.67-3.41-21.27-7.07-32.55-7.8a53.85,53.85,0,0,0-28.76,5.77c-8.42,4.35-15.82,10.32-24,15.09-15.63,9.11-32.38,8.9-49.18,6.23,10-4.37,18.34-13.17,23.66-22.41,11.56-20.11,12.85-45.06,27.17-63.73,13.68-17.84,34.89-23.93,55.46-29.92,8.7-2.52,15.82-6.73,20.7-14.53,5.15-8.21,7.16-18,9.21-27.38,3.14-14.32,5.76-28.92,11.9-42.34,5.12-11.17,12.7-19.24,21.26-27.64l.88-.2a1.35,1.35,0,0,0-.29-2.68c-21.41,1.1-36.51,12.12-51.83,26.12-8.09,7.4-16.46,13.52-27.15,16.54-10.15,2.86-20.79,3.43-31.15,5.21a102,102,0,0,0-50.57,24.05c-14.52,12.91-22.57,33.91-41.36,41.37-16.1,6.4-33.91,5.16-50.58,9.24,5-19.1,3.38-39.77,13.74-57.47,9.94-17,30.38-20.79,42.33-35.52,12.57-15.5,10.53-36.8,11.51-55.45,1.16-21.89,8.07-43.81,27.69-55.3l2-.48a1.12,1.12,0,0,0-.24-2.22c-16.08,1-32.06,5.64-45.37,14.93a56.27,56.27,0,0,0-15.76,16.3c-4.84,7.8-6.17,16.76-9.9,25-7.83,17.33-28.63,18.65-44.93,22.09A102.44,102.44,0,0,0,1200.88,696a61.74,61.74,0,0,0,.18-14.73c-1-10.84-4.4-21.25-5.89-32-3.13-22.63,8-41.48,26.5-53.91,14.31-9.61,35.14-13.25,41.93-31.14,6.91-18.21-2-38.6-6.56-56.26-5.3-20.44-5.92-44.16,11.61-58.17.64-.24,1.28-.5,1.94-.72a.82.82,0,0,0,.5-1.07c.27-.19.5-.39.78-.57.89-.58.09-1.86-.84-1.56a26.11,26.11,0,0,0-5,2.19c-15.79,3.3-28.7,14.55-35.87,29-4.21,8.51-5.71,17.45-5.72,26.87,0,6.38.42,13.26-2.6,19.12-2.84,5.5-8.3,9-13.77,11.46-9.3,4.22-19.35,6.85-28.86,10.59a200.21,200.21,0,0,0-26,12.27c-16.81,9.6-31.61,22.88-39.8,40.7-7.34,16-10.46,37.73-21.5,52.3,13.85-34.13,10.16-74.24-10.5-105.2-13.39-20.08-32.48-37.06-39.29-60.94-3.69-12.94-.84-23.82,2.36-36.42a48.1,48.1,0,0,0-2.56-31.85c-9.57-22.31-33.59-41.92-31.62-67.89.39-1.1.75-2.2,1.18-3.3A1.37,1.37,0,0,0,1009,343.64ZM867.28,585c-3.31-8-8.86-14.8-12.6-22.57-4.52-9.38-4.57-19.61-2.39-29.62,4.18-19.18,16.26-36.12,18.14-55.89.85-9-.74-18.67-5.29-26.44,8.62,7.67,16.4,16.11,21.24,27,3.74,8.39,4.87,17.07,4.73,26.18s-.65,18.46,3.24,27c7.31,16.15,24.35,25.72,35.18,39.24a64.18,64.18,0,0,1,13.11,27.77c1.88,9.2,2.69,18.58,5.88,27.48a73.18,73.18,0,0,0,26,34.2c-6.91.73-13.8,1.68-20.66,2.78a.83.83,0,0,0-.41-.85c-16.29-8.83-22.71-23.2-25.7-40.94-2.5-14.82-3.32-30.35-10.76-43.78-7.16-12.94-21.88-17.92-29.22-30.56-7.61-13.08-6.44-28-9.7-42.22a1,1,0,0,0-.3-.48c0-.16.06-.32.08-.48.16-1.17-1.68-1.85-2.08-.63-2.89,8.93-5.06,18-7.08,27.18-1.57,7.09-3,14.43-2.18,21.72,1.78,15.45,14.69,25.44,20.45,39.17,8.16,19.49-1.28,37.13-6.25,55.93-2.91,11-3.84,24.45,3.71,33.72-5.37,1.91-10.72,3.89-16,6C853.71,654.15,880.78,617.65,867.28,585Zm64.59,80.59c-15.07-10.68-16.51-27-17-44.16-.46-14.46-5.56-30.19-17.34-39.43a.84.84,0,0,0-.77-.14c-.41-.2-1,.16-.77.66l.15.31a.72.72,0,0,0,.15.32h0c8.19,16.31,4.28,33,.52,50-3,13.36-6.22,29.62-.46,42.75-3.47,1.11-6.94,2.25-10.39,3.46-8.19-14.67-3.87-30,1.52-44.95,5.16-14.31,8.93-28.52,3.72-43.43-4.65-13.28-16.82-22.74-20.19-36.5-2-8.14-.34-16.49,1.45-24.51,1-4.69,2.11-9.36,3.08-14a71.61,71.61,0,0,0,7.21,29.71c7.7,15.17,25.18,20.34,32.45,35.89,7.44,15.93,6.75,34,11.47,50.72,3.44,12.2,11.65,26.87,24.9,30.23-6.41,1.08-12.78,2.36-19.12,3.76A1.52,1.52,0,0,0,931.87,665.59Zm-4.18,1.7q-13.66,3.16-27.08,7.28a62.37,62.37,0,0,1-2.18-25.44c1-8.44,3.13-16.67,4.42-25.06,1.68-10.92,2.48-23.28-1.5-33.84a55.85,55.85,0,0,1,7.95,16.25c2.65,9.35,1.52,18.89,2.41,28.44C912.81,646.82,917.18,660.5,927.69,667.29ZM723.29,748.8a52.24,52.24,0,0,1-4.8-17.53A86.35,86.35,0,0,1,721,716.55c4.21-17.36,9.17-35.13-3.51-50.24-5.61-6.68-13.05-11.47-19.74-17a69.53,69.53,0,0,1-7.15-6.77,68.39,68.39,0,0,1-11.16-18.49,63.55,63.55,0,0,1-4.31-20.22c-.36-15,3.33-30.1,2.76-45.28-.67-17.72-9.26-36-23.87-46.51,18.38,3.77,36.09,10.36,46.79,27.11,9.75,15.26,12.88,34.22,25.28,47.9,13,14.31,32.57,17.65,49.67,24.7,9.67,4,18.15,9.45,24.56,17.84,6.24,8.18,10.41,17.61,15.21,26.64,8.2,15.44,20.59,32.08,38.61,33.69a27.71,27.71,0,0,0,2.9.79c-2.51,1.11-5,2.22-7.5,3.39q-7.28,3.4-14.37,7.11c-16.39-4.78-29.93-14.8-36.45-31.52-3.16-8.1-5-16.64-9.52-24.17a49.53,49.53,0,0,0-16.07-16.41c-8-5-17.08-7.14-26.13-9.41-10.62-2.67-20.19-6.26-28.51-13.57-14-12.27-20.3-29-28-45.19a36.61,36.61,0,0,0-3.87-8.3,1.18,1.18,0,0,0-2.11.81c2.22,10.92,5.1,21.37,6.47,32.49,1.2,9.77,2.2,19.59,4.82,29.11,2.2,8,5.47,15.86,10.57,22.47,6.41,8.32,15.29,11.65,23.47,17.7,9.66,7.15,15,18.08,15.59,30,.55,11.26-2.53,22.26-3.53,33.4-1.24,13.89,1,30,13.29,38.08-4.17,3.91-8.23,7.87-12.19,11.81l-2,2.07C734,763.91,727.51,757.79,723.29,748.8Zm72.25-36a32.78,32.78,0,0,1-9.89-10.67c-5.57-9.74-5.56-21.57-10.28-31.7-7-14.92-22.6-28.58-39.6-29.83-.47-.17-.93-.35-1.42-.49s-.51.47-.18.61c.12.05.23.12.36.17a.35.35,0,0,0,.24.49c1.05.38,2.09.76,3.12,1.16,19.1,10.72,19.76,36,19.91,55.69.1,14.58.82,34.32,11.85,45.66-4.48,3.73-8.84,7.6-13.08,11.54-15.45-12.41-11.31-34.82-8.71-52,2.76-18.21,1.78-36.66-13.2-49.46-7.84-6.71-17.81-9.83-24.49-18.07-6.13-7.56-9.54-17-11.66-26.41s-2.88-19-4.14-28.54a93.74,93.74,0,0,0,18,26,60.13,60.13,0,0,0,24.08,14.72c10.36,3.34,21.51,4.51,31.24,9.66a47.07,47.07,0,0,1,21.24,23.73c3.56,8.59,5.51,17.72,10.56,25.65,7,11,18.88,19.8,31.84,22.61q-12.65,6.79-24.67,14.49C803,716.08,799,715.15,795.54,712.76Zm6,8.41c-2.4,1.59-4.8,3.19-7.15,4.83a192.2,192.2,0,0,0-21.47,15.22,53.61,53.61,0,0,1-10.55-26.07c-1.48-11.16-.69-22.46-1.6-33.65-1.1-13.37-5.49-27.93-16-36.15a54,54,0,0,1,16,10.81c8.69,8.69,12.54,19.14,15.22,30.87,2,8.8,4.46,17.27,10.73,24.05C790.14,714.82,795.78,719.39,801.49,721.17Zm-168,105.48c-5.47-15-11.16-31.08-27-37.8-9.14-3.87-19.21-4.49-28.87-6.24a59.62,59.62,0,0,1-29.45-14c-16.55-14.54-25.1-35.29-33.78-55-7.61-17.29-16.33-34.57-30.48-47.15,17.08,10,33.81,20.28,49.26,32.82,14.81,12,30.13,25,48.9,30.12,20.17,5.55,39.5-2.48,59.49-4.58,11-1.15,22.59-.25,32.67,4.71,9.51,4.69,16.14,13,22.53,21.18,9.18,11.79,21.46,26.13,37,27.29q-5.24,5.6-10.21,11.4a53,53,0,0,1-24-13.43c-6-5.82-11.24-12.48-17.15-18.46-11.5-11.62-26.38-19.06-42.84-19.91-17.64-.91-34.51,6.09-52.26,5s-34.69-7.51-49.85-16.84l-.31-.51c-.25-.45-.94-.1-.87.37a.9.9,0,0,0-.06,1.35c.35.29.72.55,1.07.84a73.68,73.68,0,0,0,27.92,30.83c16,9.82,35.47,9.17,51.4,18.6A53.38,53.38,0,0,1,637,799.14c4,7.89,6.27,16.51,10.17,24.44,6.25,12.72,18.5,25.35,32.85,28.64-2.28,4.14-4.51,8.3-6.63,12.51C652.21,862.86,640.35,845.36,633.52,826.65Zm72.55-15.19Q699.8,820,694,828.83c-.45.69-.87,1.4-1.32,2.1-10.5-4.56-20.59-8.07-27.51-18.24-5.65-8.31-8.17-18.28-13-27.05a54.7,54.7,0,0,0-27.7-24.47c15.07,2.88,29.77,7,40.68,18.89C676.58,792.47,686.29,813,706.07,811.46Zm.43-4.78c-22.81,1.25-31.12-27.19-47.68-38-14.68-9.6-33.61-11.93-50.79-12a.61.61,0,0,0-.62.57c-.47,0-.95-.09-1.42-.11-.73,0-1,1-.19,1.15a58.33,58.33,0,0,1,29.53,13.52c8.94,7.68,13.73,17.3,18.16,28,3.52,8.51,7.33,16.83,14.23,23.16A56,56,0,0,0,690,835.19c-2.75,4.44-5.44,8.91-8,13.44-7.62-3.57-14.73-6.73-20.87-12.81-6.7-6.63-10.64-14.87-14-23.57-5.82-15.09-12.4-28.49-26.44-37.57-14.6-9.43-32.44-9.06-48-16A76.29,76.29,0,0,1,540,729.92a87.52,87.52,0,0,0,41.25,16.39,97.39,97.39,0,0,0,25.64-.09c9.4-1.28,18.66-3.86,28.19-4.08,21.13-.48,37.08,10.73,50.51,25.93,9,10.16,20.18,23.43,34.46,25.5-3.91,4.68-7.68,9.48-11.35,14.35A2.3,2.3,0,0,0,706.5,806.68ZM626.09,932a68.77,68.77,0,0,1-18.41-9.46c-10-7.29-17.13-17.49-26.08-25.89-13.16-12.35-28.92-14.94-45.15-13.5,16.29-6.18,31.74-17,49.28-8.82,12.74,5.93,22.48,17.1,36.23,21.07,12.5,3.61,27.56.52,39.66-4.83q-1.85,4.47-3.57,9c-6.37,1.22-12.27,4.09-18.9,4.76a60.26,60.26,0,0,1-21.06-1.54c-13.2-3.41-23.72-13.09-36.89-16.29-.69-.26-1.36-.57-2.06-.8a.44.44,0,0,0-.37.8l.27.17a.5.5,0,0,0,.29.55c1.08.49,2.15,1,3.2,1.55,12.34,7.78,21.85,18.6,33.59,27.29,8,5.94,21.17,13.69,32.15,11.86q-1.18,4-2.31,7.93C639.29,934.49,632.67,934.25,626.09,932Zm15.68-22.89c4.4-.58,9.6-1.46,14-3.41q-3.09,8.32-5.76,16.76c-6.71-.5-12.64-.35-19.31-3.2s-12.85-7.19-18.62-11.76c-1.92-1.53-3.84-3.1-5.76-4.68a56.68,56.68,0,0,0,14.08,5.4A61.34,61.34,0,0,0,641.77,909.14Zm-69.59,145.35c-19.83-8.31-35.39-24.32-55.49-31.88-18.32-6.89-37.47-5.42-55.34,1.94-10.51,4.32-20.57,8.93-32.26,7.33-10.85-1.48-21.28-7.35-30-13.83,19.52,7.27,40.32-6.45,55.69-17.17,9.33-6.5,18.59-12.86,29.45-16.55a81.13,81.13,0,0,1,36.35-3.79c22.51,2.9,41.39,19.82,64.87,14.52,9.83-2.22,18.92-7,27.54-12.06,8.39-5,17.25-9.83,25.46-15.33q-1.66,8.93-2.89,17.94c-5.78,3-11.06,7.17-16.67,10.43a115.24,115.24,0,0,1-22.07,10.26,60.46,60.46,0,0,1-24.74,3.08c-8.73-.85-17-4-25.36-6.46-28.21-8.26-59.6-5.71-84.88,9.92a.52.52,0,0,0-.23.54c-.64.28-1.29.53-1.93.84a.4.4,0,0,0,.29.75c30.23-11.05,63.69-3.55,89.58,14.5,12.54,8.75,24.13,17.29,39,21.67,13.47,3.95,30.17,6.32,44.45,4,0,.5.05,1,.08,1.5a.42.42,0,0,0,.29.38c.35,3.2.76,6.38,1.18,9.57-9.92-1.22-19.94-1.26-29.85-2.91A145.81,145.81,0,0,1,572.18,1054.49Zm24.59-29c11.1-.55,25.38-2.22,36-7.59-.24,5.55-.38,11.1-.36,16.67-5.67-.27-11.38,0-17.06-.34a162.47,162.47,0,0,1-20.72-2.82,175.06,175.06,0,0,1-29.41-8.89A101.65,101.65,0,0,0,596.77,1025.49Zm22.17-8.46a116.2,116.2,0,0,1-21.57,4c-14.08,1.22-27.3-.82-41.12-3a.66.66,0,0,0-.75.56l-1.17-.5c-.45-.2-.92.47-.48.76A126,126,0,0,0,591.68,1035c12.37,3.14,27.28,5.89,40.32,4.18l-.12.54c.24,3.49.59,7,.91,10.45-7.07-.05-14.12.56-21.23,0A105.25,105.25,0,0,1,585.8,1045c-16.4-5.67-28.76-17.53-43.72-25.79-19.42-10.73-42.53-15.32-64.17-11a121.87,121.87,0,0,1,30.78-5.44c17.21-.76,32.38,3.8,48.68,8.58,14.65,4.3,28.84,4.18,43.26-.92a119.59,119.59,0,0,0,18.53-8.65,162.8,162.8,0,0,0,15.57-9.31q-1.14,9.81-1.71,19.7C628.28,1013.58,623.71,1015.68,618.94,1017Zm-20.56,137.69c-15.42-3.69-31.88-8.68-46.53.19-14.11,8.53-21.82,24.46-38.61,28.9-16.31,4.32-34.1,1.22-50.22-4.12,14.13,2.56,29.87-2.56,40.17-12.1,7.92-7.33,12.23-17.16,17.39-26.43a68.41,68.41,0,0,1,53.33-35.66c10.4-1,20.52,1.86,30.87,1.28,17.11-1,23.56-16.08,31.37-29.09.88,5.68,1.91,11.35,3,17-7.8,12.81-19.4,22.16-34.69,24.33-14.23,2-28.93-1.06-42.33,5.47-22,10.71-30.84,36.72-52,48.59a.58.58,0,0,0-.13.89c-.39.26-.76.55-1.16.81-.6.38,0,1.2.63.88a82,82,0,0,0,7.54-4.76,63.91,63.91,0,0,0,9.7-7.5c4.42-3.63,8.78-7.34,13.41-10.75a66,66,0,0,1,38.48-13.1c24-.16,49.4,12.12,72.23,1.12,1.22,3.86,2.48,7.71,3.82,11.53C636.33,1158.65,617.34,1159.24,598.38,1154.72Zm45.25-39.94a57,57,0,0,1-6.18,5.28,49.77,49.77,0,0,1-11.56,5.53c-9,3.07-18.31,3.51-27.59,5.08l-2,.09a.36.36,0,0,0,0,.72l1.55.17a.47.47,0,0,0,.36.18c.68,0,1.36.06,2,.09,9.13,1,18.37,1.84,27.53,2.1,6.73.2,14,0,20.32-2.52.41,1.42.81,2.84,1.24,4.26-24.94,12.18-53.33-4.27-79.57-.24A66.4,66.4,0,0,0,543,1146c7.52-8.16,15.49-15.6,26.25-19,15.41-4.87,32,.06,47.36-5.93A52.62,52.62,0,0,0,640.7,1102Q642.08,1108.42,643.63,1114.78Zm1.35,5.15c.63,2.46,1.24,4.92,1.92,7.36a138.49,138.49,0,0,1-21.66,2.49c1-.25,2-.51,3-.8C633.71,1127.31,640.48,1124.37,645,1119.93Zm30.61,132c-8.64,13.18-23.42,16.37-38.34,15-14.71-1.37-28.77-5.44-43.69-4.3-2.31.17-4.59.47-6.85.82a60.63,60.63,0,0,0-28,7.92c-16.07,9.29-29.08,22.75-45.64,31.44a140.54,140.54,0,0,1-22.32,9.23,58.67,58.67,0,0,0,6-4.78c15.63-14.42,19.27-36.53,31.7-53.17,11.81-15.81,30.19-27.48,50.31-28.18,9.3-.33,18.56.77,27.69-1.6,8.18-2.13,14.77-7.2,19.63-14,11.27-15.9,12.9-41.42,30.8-51.86q2.32,6.33,4.85,12.57c-14.2,7.27-19.7,23.14-26.22,36.79-4.25,8.9-9.52,17.44-18.56,22.1-7.53,3.88-16.16,4.82-24.49,5.41-16.24,1.14-31,2.55-43.55,14-6.52,6-12,13.06-17.64,19.85-6.72,8.12-14.21,16.14-19.65,25.19-.51.85.76,1.41,1.35.85,14.63-13.75,24.7-32.17,40.38-44.9,13.89-11.28,31-9.94,47.73-11.59,14.66-1.44,26.26-7.14,34.21-19.92,9-14.49,12.53-34.31,28.37-43.17.64,1.55,1.26,3.11,1.93,4.65s1.32,2.85,2,4.28c-10.16,6.41-15.78,18.29-21.19,28.55-7.16,13.55-15.53,25.86-31.27,29.49a1,1,0,0,0-.72,1.12.45.45,0,0,0,.07.87,42.61,42.61,0,0,0,36.59-8.72c10.16-8.29,17.78-18.88,30.08-24.1,1.27,2.32,2.54,4.63,3.85,6.92-13.59,3.44-18.29,21.13-30,27.82-17.44,10-39,4.28-57.89,4.42-33.4.24-61.06,22.47-83.93,44.57-.48.46.27,1.25.79.84,12.68-10,25.16-20.65,39.14-28.84,16.32-9.56,33.55-14.17,52.48-12.9,15.92,1.07,32.77,3.91,47.91-2.84a41.2,41.2,0,0,0,15.22-12c5.52-6.84,9.83-14.58,18.65-16.94,2.16,3.65,4.34,7.29,6.61,10.88C685.28,1235.8,680.58,1244.28,675.59,1251.9Zm-6.19-63.52c3.1,6.65,6.32,13.24,9.79,19.7-9.85,3.26-17,11.48-24.19,18.64-9.73,9.73-20.82,16.67-34.33,17.11,9.77-1.84,17.64-9.62,23.05-17.76C652.4,1213,657.48,1199,669.4,1188.38Zm45.41,150c-18.24,6.19-37.89.95-56.41,5.54-15.43,3.82-28.12,14.62-37,27.52-7.85,11.43-12.08,23.56-15.53,36.28.36-5.28.51-10.59,1-15.72a240.25,240.25,0,0,1,4.54-29.59c4-18.06,10.67-35.8,22.28-50.42,10.93-13.78,26-21.41,39.58-32.08,13-10.22,20-23.57,25.9-38.45,1.28,1.92,2.6,3.81,3.92,5.71-1.55,4.73-2.39,9.62-4.61,14.18a68.14,68.14,0,0,1-11.55,16.29c-8.54,9.19-18.8,16.42-28.58,24.19-18.32,14.58-30.91,31.61-37.74,54.18-.16.53.74.8.93.28.1-.25.21-.5.3-.76h0c5.42-3.74,10-8.52,15.53-12.17a72,72,0,0,1,18.09-8.73c11.9-3.77,24.44-4.72,36.65-7,19.15-3.61,41.84-15.11,47.12-35.68q5.82,6.19,11.91,12.14l-.15,1.24C743.48,1320.65,731.2,1332.86,714.81,1338.41Zm-8.76-56.85a86,86,0,0,1-13.25,16.57c-10.84,10.57-23.31,16.57-37,22.59a.42.42,0,0,0-.24.47l-.59.13c-.8.19-.72,1.46.15,1.32,16.23-2.7,34.29-3.4,48.5-12.52,10.27-6.59,21.48-18.58,24-31.19q4,4.63,8.09,9.16v0c-2.9,5.42-5,10.9-9,15.74a49.57,49.57,0,0,1-13.81,11.61c-10.51,6-22.88,8.15-34.63,10.25-10.27,1.85-20.76,3.71-30.29,8.13A79.06,79.06,0,0,0,623,1352.57a106.82,106.82,0,0,1,17.68-29.88c8.45-9.81,19.09-17.25,29.41-24.9,9.21-6.83,18.26-13.92,25.37-23,4.71-6,10-14.23,11.28-22.38,2.62,3.65,5.33,7.24,8.08,10.79C711.65,1269.19,709.65,1275.68,706.05,1281.56ZM718,1267.11c2.23,2.81,4.45,5.61,6.75,8.36-3.23,6-5.38,12.26-9.61,17.8A57.72,57.72,0,0,1,700.19,1307c-9.22,5.9-20,8.77-30.76,11.17a83.59,83.59,0,0,0,25.6-16.61C704.22,1293,714.87,1280,718,1267.11Zm85.37,112.63c-10.15,6.74-21.82,9.14-33.73,10.62-17.6,2.18-37,3.16-51.45,14.83-16.34,13.21-13.09,34-21.71,51.17-7.9,15.75-26.22,21.49-42.91,24.65,13.17-5.49,24.75-14.43,22.51-30.67-1.65-12-5.36-22.74-4.37-35.11.92-11.63,5-23.46,12.78-32.31,13.88-15.76,36.18-16.26,51.25-30.61,11-10.47,20.81-27.83,20-43.83q5.57,5.25,11.35,10.27a2.07,2.07,0,0,0-.54,1.13,64,64,0,0,1-24.24,42.18c-12.12,9.25-26.71,14.47-39.21,23.13-9.8,6.8-18.86,16.18-21.5,28.18-3,13.76,2.56,27.61,1.24,41.55-.36.59-.69,1.17-1.06,1.76a.92.92,0,0,0,.65,1.28c0,.18,0,.36-.08.54a.46.46,0,0,0,.86.26c.23-.53.41-1,.6-1.58,9.85-9.5,11.95-25.4,16.16-37.78,5.93-17.44,17.3-28,35-33,26.18-7.37,66-3,78.25-33.38,3,1.91,6.05,3.8,9.13,5.63a2.19,2.19,0,0,0-.11,3c.11.14.2.28.3.42C816.79,1368.61,810.64,1374.88,803.33,1379.74Zm-34.84-24.58c-7.06,8.09-15.4,12.25-24.19,18a.52.52,0,0,0,.35.93c.3,0,.6-.13.91-.18,12,.05,23.79-3.5,34.4-8.91,8-4.09,18.16-10.77,21.1-20,.52.35,1,.72,1.54,1.07,2.06,1.4,4.17,2.75,6.26,4.11-12.54,32.48-58.62,23.82-84.85,35.68-13.15,5.94-21.18,16-25.9,29.47-2.4,6.82-4,13.87-6.25,20.74a78.42,78.42,0,0,1-6.52,14.58c1.26-11.42-3.47-23.44-1.27-34.92,3.15-16.46,18.4-27,32.28-34.21,12.64-6.54,25.88-12.36,36-22.63a67.5,67.5,0,0,0,18.41-37c3.55,3,7.17,5.93,10.83,8.81C778.44,1339.65,775,1347.75,768.49,1355.16Zm16.68-21.73q6.35,4.86,12.9,9.48c-3,3.85-5.09,8-8.85,11.37a67.85,67.85,0,0,1-14.42,9.22,101.88,101.88,0,0,1-19.23,7.07C769.58,1363.56,781.55,1347.8,785.17,1333.43Zm79.55,88.89c-11.85,4.16-25.83,9-30.14,22.13-5.12,15.59,7.29,31.52,1.51,46.89-5.31,14.08-22.31,20.05-33.8,27.93A60.54,60.54,0,0,0,782.41,1542a90.08,90.08,0,0,1,1.72-9.2,110.31,110.31,0,0,1,14.67-33c4.8-7.52,9.86-15.23,9.62-24.52-.23-8.94-5-16.78-8.66-24.68-4.34-9.43-6.53-19.89-4.15-30.18,2.58-11.13,10.65-17.64,19-24.59,9.25-7.66,19.88-21,14.21-33.13l.13-.15c4.68,2.67,9.44,5.22,14.25,7.69,2.86,15-10.44,25.47-20.28,34.51-8.26,7.59-15.28,16.44-15.77,28.11-.55,12.93,8.5,23.11,10.25,35.54,1.92,13.61-3.23,26.81-12.25,36.89a.37.37,0,0,0,.5.54,37.69,37.69,0,0,0,3.09-2.67,33.81,33.81,0,0,0,19.28-25.31c2.29-14.44-7.67-29.66.17-43.3,13.18-22.93,50-19.73,59.93-45.5,4,1.28,8,2.48,12,3.56,1.58.5,3.17,1,4.76,1.41C894.62,1407.77,881,1416.6,864.72,1422.32Zm-26.14-17.67c-6.7,5.92-13.26,11.68-17.86,19.48-.46.78.87,1.63,1.37.85.09-.13.2-.25.29-.39a.44.44,0,0,0,.47-.1c9.42-9.84,20.91-14.63,32.56-21.22,7.59-4.3,16.08-10.53,19.57-18.93,2.82,1.08,5.66,2.13,8.52,3.11-10.15,23.34-43.8,22.64-57.38,43.61-6.72,10.38-3.87,21.55-1.83,32.88,2.52,14-1.63,27.38-12.6,36a41.21,41.21,0,0,0,9.22-22.94,42.65,42.65,0,0,0-1.66-16c-2.23-7.37-6.72-14-8.11-21.62-5.5-30.2,39.38-38.27,36.86-66.79q4.28,2.1,8.59,4.07C852.6,1387.86,847.82,1396.48,838.58,1404.65Zm21.7-26.36q5.21,2.31,10.49,4.41c-5.49,10-14.15,15.73-24.48,21.36q-2.4,1.31-4.88,2.68c1.53-1.26,3-2.55,4.46-3.91C852.6,1396.41,858.49,1387.64,860.28,1378.29Zm174,35.6c.27,3.73-.93,7.49-1.72,11.1a43.87,43.87,0,0,0-.92,16.65c1.49,9.18,6.64,16.93,14.93,21.24a.73.73,0,0,0,1-.29.67.67,0,0,0,.6-.93c-4.42-12.14,7.51-21.51,12.89-30.86,4.15-7.22,6.57-17,4.5-25.27,3.82-.51,7.66-1.08,11.47-1.76,4.1,13.44,1.79,24.7-5.54,36.82-5.56,9.19-12,19.07-9.06,30.3,2.59,9.72,10.84,16.5,14.23,25.82,4,10.88-1.72,20-7.14,29,2.28-8.06,3.09-16.55.6-24.61-3.28-10.62-11.84-18.4-20.35-25-9.8-7.62-21.25-14.81-26.7-26.45-6.07-13,1-26.72-1.2-40.14,3.8-.15,7.59-.38,11.39-.65A26.6,26.6,0,0,1,1034.32,1413.89Zm3.46-5.36c5.16-.41,10.32-.92,15.47-1.49l7.83-.93c-.23,6.07,0,11.74-2,17.68s-5.49,10.59-8.77,15.69c-4.24,6.58-7,13.6-4.2,20.93-9.36-7.68-12.42-19.61-10-31.38C1037.25,1423,1040.62,1414.61,1037.78,1408.53ZM983,1434c-8.17,5.82-18.3,7.85-26.69,13.28a33.69,33.69,0,0,0-14.61,21c-2,9.21.83,17.91,3.76,26.56,3.16,9.34,5.74,18.85.32,27.9-4,6.69-10.66,11.4-16.81,16-7.55,5.58-20.2,13.76-23.26,24-1.5-15.51,11.24-29.58,14.47-44.45a27.77,27.77,0,0,0-3-20.4c-4.19-7.11-11-12.14-15.49-19-9.39-14.45-7.79-34,3.22-47,5.27-6.24,10.95-11.61,11.7-20.22a34.9,34.9,0,0,0-2.47-14.91c5.25,1.42,10.55,2.7,15.86,3.9,3.74,12.52,1.08,22.94-8,33.35-6.55,7.47-14.75,15.22-14.53,26,.2,9.81,7.2,17.43,12.78,24.83,9.25,12.29,11.34,25,6,39.57-.19.51.51,1.06.86.54s.52-.85.77-1.28a.81.81,0,0,0,1.17-.1c7-8.9,9.66-21,7.94-32.13-1-6.7-4.19-12.8-5.4-19.44a30.59,30.59,0,0,1,3.13-19.69c6.59-12.36,20.28-15,31.64-21.09,7.76-4.19,17.73-12.62,16.87-22.42,5.4.42,10.82.74,16.25.93A43,43,0,0,1,983,1434Zm-23.37-28c-1,2-1.82,4-3,6a63.25,63.25,0,0,1-7.54,9.86,102.09,102.09,0,0,1-9,8.25,42.11,42.11,0,0,0,5.61-11.74c1.15-4.1,2.11-10,.59-14.45C950.76,1404.66,955.19,1405.35,959.64,1406Zm-17.85,12.2a65.18,65.18,0,0,1-7.94,17.76c-.56.62-1.12,1.24-1.64,1.88a.45.45,0,0,0,.07.63c-.11.15-.2.31-.31.47-.39.6.41,1.31.89.73l1.47-1.83c6.9-3.21,13.36-8.93,18.65-14.16,4.36-4.32,9.86-10.61,11.2-17.06q7.17.95,14.38,1.62c-1.73,6.66-4.46,11.63-10.42,15.91-5.11,3.68-11.09,6-16.72,8.7-9,4.38-16.83,10.09-21,19.46s-3.4,18.64-.24,28c3.63,10.76,4.3,20.41,1.85,30.28a35.46,35.46,0,0,0-3.49-18.72c-5.09-10.34-16.6-18.66-17.5-30.76-1-13.85,14.23-22.69,20.62-33.32,4.6-7.64,6-17.72,3-26.22,2.5.53,5,1,7.52,1.48C941.88,1408.06,943.12,1413,941.79,1418.19Zm144.39,30.32c-2.93,7.21-4.45,15.08-2.36,22.74,2.34,8.58,8.85,15,12.4,22.94a30.19,30.19,0,0,1-2.47,28.9c-5,7.44-12.32,12.74-16.85,20.58-5.43,9.41-9.07,23-7,34.64-6.88-12.68-13.24-26-13.28-40.55,0-9.62,4.25-19.08,2.49-28.71-1.22-6.7-5.26-12.29-10.11-16.88-5.75-5.43-12.57-9.51-18.73-14.42a72.92,72.92,0,0,1-16.93-19.4c-8.78-14.61-12.22-32.31-6.78-48.58,3.71,0,7.42,0,11.12-.1,2,11.73-3.06,23.53-.15,35.21,2.6,10.48,10.61,18.49,18.74,25.07,9.17,7.42,19.73,13.67,26.51,23.58,8.62,12.58,5.18,26.59,2.21,40.31-.22.45-.44.9-.64,1.35a.81.81,0,0,0,.38,1.06.62.62,0,0,0,1-.13.61.61,0,0,1,0-.12c7-9,15.9-20.13,15.89-32.12,0-11.67-9.11-19.54-13.8-29.42-7-14.76,4.86-26.25,11.41-38.48,5.38-10,6.74-22.44,2.51-33.13a146,146,0,0,0,18.54-4.9c1.74-.38,3.46-.82,5.19-1.24C1110.68,1415.6,1092.8,1432.19,1086.18,1448.51Zm92.17-4.25c4.85,11.08,15,17.78,23.62,25.68,6.17,5.63,11.22,12,12.9,20.36a55.75,55.75,0,0,1,.51,15.32c-1.21-10.44-4.5-20-13.58-27.14-11.15-8.75-26.22-11.6-36.16-22-11.14-11.65-11.73-28.63-17-43.06-3-8.26-8.75-19-17.14-23.88,3-.93,5.89-2,8.82-3,2.61,4,6.93,7.05,10,10.73a38,38,0,0,1,7.65,14.08c2.63,9.26,3,18.42,7.84,27a.75.75,0,0,0,.82.37A20.65,20.65,0,0,0,1169,1444c.48.75,1.59.07,1.33-.72-4.32-13.12,1.24-26.44,1.75-39.75.29-7.75.8-20.6-4.81-27.34,4.2-1.81,8.37-3.68,12.49-5.65C1186,1395,1167.86,1420.31,1178.35,1444.26Zm-34.3-58.93q10-3.57,19.86-7.72c1.73,5.37,3.71,10.16,4.17,16.08a100.52,100.52,0,0,1-.86,22.06c-.82,5.74-2,11.81-1.53,17.62-3-8.95-2.31-19-5.84-27.86C1157.08,1398.52,1151,1389.67,1144.05,1385.33Zm145.25-93.86c16.23,9.93,16.47,31.39,15.71,48.28-.68,15.06-1.38,32.29,7.76,45.22,11.42,16.15,35.44,14.19,46.21,30.68,10,15.21,6.31,35,7,52.12.51,11.84,3.09,26.61,11.84,35.4-13.41-8-24.11-18.71-29.68-34.16-5.29-14.68-8.49-28.66-25.25-33.55-8.4-2.45-17.21-2.54-25.8-4a83.69,83.69,0,0,1-25.46-8.25c-7.79-4.11-14.82-9.88-19.61-17.35s-7.11-16.31-12-23.8a56.9,56.9,0,0,0-36.07-24.22c2.53-1.45,5-3,7.52-4.46,14.42,4,29.29,5.49,41,16.06,10.44,9.42,15.19,23.21,22.94,34.62s18.28,17.47,31.7,20.32c15.12,3.2,30.88,4.53,39.63,18.56,0,.09,0,.16,0,.25a.61.61,0,0,0,.48.56c.16.29.35.55.51.85s.49.06.44-.17-.16-.54-.24-.81c.07-.06.15-.1.19-.2,3.89-11.4-5.75-22.36-14.61-28.19-7.11-4.67-15.17-7.81-21.93-13s-11-12.26-13.4-20.38c-4.8-16.4-1.38-33.73-3.79-50.43-1.58-11-5.82-23.52-15.15-30.26q5-4.86,9.74-9.91C1289.17,1291.33,1289.21,1291.41,1289.3,1291.47Zm-22,74.72c10.23,11.73,15.33,26.82,24.49,39.32a.57.57,0,0,0,.92-.66,4,4,0,0,1-.22-.34.71.71,0,0,0,1.18-.73c-3.16-8.06-6.73-15.75-9-24.17-2.5-9.43-3.08-18.94-4.35-28.56-1.71-13-7.53-26.22-18.44-33.89q7.2-6.23,14.06-12.77c10,10.44,13.67,22.37,14.53,36.95.84,14.4-.31,29.06,4.12,43,3.9,12.24,12,20.32,23,26.49,12.71,7.13,26.91,13.73,29,29.12-4.53-8.78-15.31-13.48-24.43-16s-19.06-3.34-27.67-7.64c-7.47-3.72-12.65-10-17-17-7.39-12-12.43-25.66-23.64-34.81-9.66-7.88-23.33-12.84-36.22-14.92,3.45-2.16,6.86-4.4,10.24-6.66C1243,1348.13,1256.45,1353.76,1267.29,1366.19Zm-35.55-25.77q7.17-4.93,14.1-10.2c4.3-3.27,8.48-6.67,12.6-10.13,5.62,4.82,10.52,9.79,13.77,16.73,3.79,8.07,4.47,16.86,5.6,25.57,1.38,10.61,4,21.84,8.66,31.81-5.84-11.43-10.24-23.55-19.24-33.2S1245.17,1342.6,1231.74,1340.42ZM1354.05,1240a54.63,54.63,0,0,1,10.48,20c3.9,13.26,4.36,27.46,11,39.85,6.11,11.38,16.24,16.48,28.24,20,7,2,14.29,3.78,20.64,7.59a48,48,0,0,1,14.43,13.94c-9.58-7.74-23.11-8-35-8.62-7.78-.37-15.91-.78-23.13-4-8-3.56-12.84-10.45-16.76-18-6.12-11.81-11.57-22.88-22.16-31.43-7.83-6.32-19.7-13.13-30.58-13.84,1.75-2.24,3.45-4.52,5.15-6.8,8.11,3.2,16,5,23.35,10,7.63,5.21,14.52,11.89,18.84,20.14.32.63,1.37.26,1.05-.4a3.07,3.07,0,0,0-.17-.31.81.81,0,0,0,.49-.61c1.74-10.37-2.06-21.68-7.65-30.33-4.64-7.18-12.92-16.24-21.8-18.8,2.47-3.82,4.9-7.68,7.23-11.59C1343.39,1231.18,1349.29,1234.36,1354.05,1240Zm-36.11,16.64q5.52-7.51,10.66-15.31c3.37,2.12,7,3.74,10.21,6.26a50.44,50.44,0,0,1,10.13,10.9c5.67,8.25,7.78,17,8.94,26.57C1349.88,1270.82,1335.12,1256.33,1317.94,1256.65ZM1397,1117.91a47.83,47.83,0,0,1,12.08,11c6,7.28,10.3,15.75,16,23.24,4.75,6.22,10.43,12.24,17.68,15.52,8,3.62,16,2.56,24.27.58,12.26-2.9,22.09-3.06,32.27,5.4,8.08,6.71,13,16.36,18.21,25.24,7.5,12.7,18.37,26.65,33.71,27.59-15.74,7.4-36.42,5-49.68-6.07-6.32-5.26-11.3-12.2-18.61-16.21-6.92-3.78-14.7-3.47-22-.9-18.13,6.4-29.89,23.85-51,20.61s-38-17.68-55-29.52q2.43-5.2,4.71-10.48c12.08,10,26.88,20.37,42.12,24.44,13.44,3.59,25.35-.88,37-7.37,13.22-7.35,26.56-16.08,42-9.37,14,6.08,22.54,20.55,35.72,27.56.47.46.94.93,1.42,1.38a.78.78,0,0,0,1.17-.13c.42.17.81.37,1.24.54s.69-.33.37-.59l-2.13-1.72c-5.74-7.55-12.11-14.71-18.38-21.82-4.56-5.17-9.06-10.63-15-14.33-12.9-8-28.8-3.13-43-4-18-1.06-26-14.51-34.4-28.52-6.56-11-15.29-22.34-28.48-24.52.83-3.32,1.63-6.65,2.37-10,.11-.48.2-1,.3-1.45A58.62,58.62,0,0,0,1397,1117.91Zm-2.74,71.06c7.12,4.52,17.73,8.31,25.39,2.9a.92.92,0,0,0,.39-.8h.1c.77-.12,1.14-1.35.27-1.64-6.71-2.26-11.37-5.62-15.19-11.72-3.16-5-5.62-10.47-9.1-15.33-5.27-7.33-13.17-14.89-22.5-16.13,1.62-5.22,3.16-10.46,4.56-15.75,15.53,2.4,22.94,18.55,30.52,30.66,6.67,10.66,15.08,19.68,28,21.84,14.28,2.39,29.43-3.13,43.33,1.77,8.52,3,14,10.59,19.93,17l.13.13c-4.82-4.75-9.84-9.3-15.83-12.54-11.5-6.22-23.43-4.65-34.89.63s-22.65,14-35.73,14.66c-19,.89-37.45-14.51-51.63-25.39-.1-.07-.2-.09-.3-.15,1-2.34,1.88-4.72,2.81-7.09C1376.49,1173.86,1384.25,1182.61,1394.26,1189Zm-27.93-21.51c2.12-5.61,4.09-11.28,6-17,5.93,2,11,4.53,15.57,9.22,4.31,4.45,7.61,9.76,10.83,15,3.58,5.83,8.47,13.51,15.32,15.81-10.56.19-18.12-5.12-26.87-12C1380.78,1173.48,1374.23,1168.69,1366.33,1167.46Zm61.44-141a40.76,40.76,0,0,0,22.83-2.72c7.79-3.39,14.49-8.85,22.28-12.24a34,34,0,0,1,28.85.56c8.26,4.14,14.17,11.48,19.64,18.7,9.48,12.52,18.84,23.87,33.51,30.48,13,5.88,28.91,8,42.9,4-9.22,4.78-18.13,10.32-27.1,15.48-10.5,6-22,12.75-34.38,13.3-21.68,1-32.92-22.44-53.65-24-17.32-1.26-28.14,14.2-38.7,25.38-11.78,12.46-27.87,19.06-44.24,17.67-4.8-3.08-10-4.75-15.36-3.73l-.17-.06a2.52,2.52,0,0,0-1-.2c1.16-5.72,2.16-11.51,3.09-17.33,12.09,5.38,27.64,4.61,39.71.85,17.82-5.56,28.85-22.11,46.36-28a53.17,53.17,0,0,1,28.65-1.46c10,2.34,17.93,8.41,26.59,13.47,9.93,5.81,26.46,11,35.36.84h1a.9.9,0,0,0,0-1.77,67.81,67.81,0,0,1-26.11-8.34c-7.82-4.53-13.61-11-19.45-17.75-8.61-10-18.29-19.78-32.37-19.87-15-.1-27.82,9.34-42.22,12-20,3.65-37.36-7.73-52.37-19.4a2.19,2.19,0,0,0-.57-.29c-.17-5.4-.43-10.8-.86-16.17C1401,1015.43,1413.21,1024.1,1427.77,1026.43Zm1.91,46.43c8.24-2.9,15-8.58,22.71-12.52a77.09,77.09,0,0,1,25.37-7.84l2.78-.17a.35.35,0,0,0,.26-.15l.42,0c.87-.06.7-1.33-.14-1.31s-1.4.06-2.1.09c-12-4.35-27.82,1.64-39.57,3.76-7.6,1.37-15.42,2.23-23,.4-9.7-2.33-17.39-8.41-25.49-13.84.1-4.23.16-8.47.11-12.7,12.39,10.29,27.91,18.69,44.19,19s29.5-9.43,45-12.19c19.23-3.43,29.08,11.72,40.84,23.88,10.7,11,24.56,18,39.9,18.29-16,8.7-31.29-5-45.17-12.93a55.49,55.49,0,0,0-42.34-5.54c-16.63,4.61-26.78,18.71-41.9,25.9a56.74,56.74,0,0,1-24.34,5.44c-7.16,0-13.5-1.89-20.1-3.85q1.18-8.16,2-16.42C1400.24,1077.55,1417.81,1077.05,1429.68,1072.86Zm2.42-12.35c7.46-.9,14.62-3.22,21.86-5.1,1-.25,1.93-.47,2.88-.67-7.59,2.67-14,7-21.25,10.55a51.07,51.07,0,0,1-22.84,5.52c-8.48,0-15.4-3.11-23.19-5.58q.8-8.94,1.16-17.93C1402.85,1056.23,1416.65,1062.39,1432.1,1060.51Zm-14.56-179.4c8.68-3.84,16.2-9.73,24.18-14.76,11.07-7,22.46-10.33,35.61-8.86,22.41,2.5,43.3,17.46,66.06,8.86,10.73-4.05,20.33-10.82,30.69-15.68,8.09-3.8,16.49-6.86,24.74-10.24-11.39,8.65-19.25,20.51-26.91,32.94-5,8.15-9.87,16.42-15.41,24.24-5.87,8.28-13,18.2-23.25,21.09-9.91,2.8-20.38-1.35-30.43-1a39.86,39.86,0,0,0-22,8c-15.23,11.09-22.72,28.64-32.76,43.93-6.47,9.85-14.43,18.64-25.4,23.46-10.62,4.68-22.25,5.55-33.57,3.49-.31-2.82-.67-5.62-1-8.42a85.93,85.93,0,0,0,45.9-25.26c15.28-16.28,21.69-38.76,41.54-50.88,9.56-5.84,20.2-8.4,31.32-8.68,10-.26,19.46-.28,28.8-4.12a55.17,55.17,0,0,0,31.75-34.73c.16-.23.33-.46.48-.7.66-1-.7-2.27-1.52-1.25-10.85,13.53-28.92,21.77-46.24,19.25-9.56-1.39-18.38-5.74-27.92-7.25a60,60,0,0,0-24.83,1.39c-17.09,4.6-29.71,19.43-47.47,21.78-10,1.33-20.17-.6-30-2-9.27-1.32-19.45-4.06-28.86-3.64-1.37-3.38-2.8-6.75-4.26-10.12a31.26,31.26,0,0,0,3.19.16C1378.83,886.41,1399.39,889.16,1417.54,881.11Zm13.1,37c9.61-4.83,18.21-11.39,27.72-16.39,1.24-.65,2.49-1.23,3.74-1.79a76,76,0,0,0-23.19,19.44c-7.39,9.29-13,19.9-21.09,28.67-9.46,10.28-21.09,13.94-34,17.47a2.52,2.52,0,0,0-.93-1,249,249,0,0,0-7.73-31.28c-.47-1.51-1-3-1.48-4.52-.88-3-1.81-5.91-2.76-8.85C1390,926.48,1412.69,927.14,1430.64,918.12Zm-16.75,40.42c9.4-7.15,15.77-17.22,22.34-26.84,6.88-10.09,14.35-19.5,24.65-26.32,10.7-7.09,23.08-11.1,35.76-12.74a.61.61,0,0,0-.13-1.22c-.74,0-1.48,0-2.22,0-21.23-4-39.48,6.94-57.08,17.32-10.36,6.11-20.9,10.7-33.12,11s-23.21-3.84-35-5.51q-2.94-8.7-6.25-17.25c9.06,2.54,19.41,2.81,28.55,4.12,9.55,1.36,19.34,3,29,1.72,18.53-2.42,31-17.75,48.49-22.79,11.27-3.25,22.47-2,33.52,1.37,8.52,2.58,16.79,5.26,25.81,5a48.59,48.59,0,0,0,35.08-16.56c-7.84,14.34-22,25.21-38.21,28.1-10,1.8-20.35.19-30.4,2a67.55,67.55,0,0,0-22.85,8.71c-17.7,10.72-24.68,29.36-36.79,45.07a80.21,80.21,0,0,1-47.76,29.43c-.66-4.26-1.44-8.5-2.29-12.71C1395.22,968.76,1405.69,964.78,1413.89,958.54Zm-47.32-35.9q5.12,15.9,9,32.15c2.24,9.43,4,18.92,5.6,28.44.69,4.35,1.34,8.73,2,13.12a2.54,2.54,0,0,0,.18,3.6l.18.16q1.08,12.24,1.49,24.46c0,13.8-.06,27.6-1.42,41.42-.65,6.65-1.52,13.28-2.54,19.88a2.25,2.25,0,0,0-.41,2.61,365.09,365.09,0,0,1-9.53,42.51A374.45,374.45,0,0,1,1311,1251.68c-54.14,72.21-134.45,120.92-222.32,140a423.57,423.57,0,0,1-128,7.58c-5.59-1.21-11.21-2.31-16.67-3.64-11.42-2.79-22.85-5.45-34.13-8.74a2.64,2.64,0,0,0-3.46-1c-22.22-6.71-44-14.8-64.7-25.37a361.06,361.06,0,0,1-99.9-76c-21.68-26.18-41.48-53.59-57.23-84.08-20.93-40.52-35.3-84.38-41.21-129.66-2.82-21.62-3-43.08-2.59-64.73.27-3.49.53-7,.87-10.47.61-6.14,1.43-12.22,2.36-18.28,6.33-33.64,17.64-66.54,31.78-97.32,5.91-12.87,12.31-25.51,19.34-37.82,4.88-8.55,11-16.79,16.11-25.4,4.39-6.16,9-12.23,13.8-18.13,12.21-13.31,25.6-25.61,38.57-37.06,27.17-24,56.5-45.57,89.12-61.59,4.74-2.22,9.55-4.29,14.38-6.31a2.53,2.53,0,0,0,3.09-1.27c8.86-3.6,17.83-6.9,26.94-9.82a380.12,380.12,0,0,1,80.43-16.43,2.17,2.17,0,0,0,1.24-.11,373.14,373.14,0,0,1,57.32-.82,355.91,355.91,0,0,1,89,17.34c.41.22.83.42,1.25.65a1.34,1.34,0,0,0,1.08.11,381,381,0,0,1,151.34,96.14,405.39,405.39,0,0,1,48.9,61.77q5.58,10.08,10.93,20.23C1349.25,881.23,1359,901.51,1366.57,922.64Zm-310-289.4a158.82,158.82,0,0,0-1.08-27.4,173.34,173.34,0,0,0-5.33-26.7c-2.55-9-5.34-19.36-11-26.9l-.09-.06c0-.1,0-.2,0-.3a.81.81,0,0,0-1.6.17c2,18.3,3.63,36.71,2.11,55.11a142.67,142.67,0,0,1-13.87,50.22c-4.32-.13-8.64-.2-13-.17,12.51-12.55,19.78-31.62,21.81-48.88,2.26-19.17-2.65-37.52-9.41-55.31-7.51-19.72-17-39.36-18-60.81-.87-18.13,6.57-34,14.46-49.7-4,13.8-5.65,28.11-2.25,42.46,4.77,20.15,16.73,37.37,27.68,54.58,11.69,18.38,20.83,37.28,23.06,59.21,2.18,21.38-2.13,41.54-10.62,61.09l-3.46-.42c-2.12-.23-4.26-.38-6.38-.58C1054.88,652,1056.11,641.54,1056.53,633.24Zm-10.65,25.29c-5.27-.43-10.55-.78-15.84-1,16.73-28.54,14.9-64.69,10.29-96.73,1.65,5.15,3.68,10.23,5.09,15.38a195.51,195.51,0,0,1,5.39,26.79,182.53,182.53,0,0,1,1.6,25.59,80.51,80.51,0,0,1-1.46,15.26c-1.07,5.09-3.34,9.38-5,14.23A1.55,1.55,0,0,0,1045.88,658.53Zm90.5,17.47c3.12-13.08,4.41-26.26,9-39.07a102.74,102.74,0,0,1,8.73-18.28,63.64,63.64,0,0,0-3.29,24.08,107.87,107.87,0,0,0,4.13,23.83c1.61,5.88,3.18,12.78,5.81,18.71A251.28,251.28,0,0,0,1136.38,676Zm121.55,51.61a72.27,72.27,0,0,1,4.64-19.49c4.31-10.77,11.77-20.24,21.85-26.12a.58.58,0,0,0,.3-.42l.19-.1c.58-.31.49-1.38-.3-1.24-12,2.09-23.55,9.75-32.34,17.93A79.68,79.68,0,0,0,1239,714.35c-2.45,3.94-5.55,8.71-6.8,13.49q-5.48-4.15-11.11-8.12c5.58-13.46,13.36-25.24,25-34.47,13.27-10.53,28-14.37,44.31-17.82,14.46-3.07,27.69-8.35,37.25-20.12,9.42-11.6,10.32-26,15.5-39.2-4,13.12-1.25,28-6.79,40.85-6.8,15.76-25.1,21.94-37.8,31.94a73.26,73.26,0,0,0-25.07,35.41,110.79,110.79,0,0,0-4.53,22c-.57,5.27-1.6,11.55-1.07,17.19-1.19-1-2.37-2-3.58-3-2.3-1.85-4.66-3.66-7-5.48a1.56,1.56,0,0,0,.22-.68C1258.15,740.16,1257.28,733.88,1257.93,727.61Zm-5.13,16.06c-2.6-1.93-5.21-3.86-7.87-5.74-2.88-2.4-5.82-4.74-8.78-7,2.34-3.85,3.72-8.42,6-12.32a84.52,84.52,0,0,1,11.62-15.46,82.3,82.3,0,0,1,15.73-12.78,53.23,53.23,0,0,0-10.67,15C1253.6,716.14,1250.58,731.34,1252.8,743.67Zm119.74,78.74c11.94-16.55,9.69-39.73,26.44-53.35.72-.59.14-1.94-.8-1.55a.7.7,0,0,0-.74-.21c-14.32,5-21.64,20.35-31.44,30.84-6.35,6.8-14,12.87-22.8,16-8.36,3-15.49,2.23-23.67.66-2.43-3.45-4.91-6.87-7.48-10.21,16.47-.27,34.62-4.33,47.93-13.07,18.18-11.95,22.84-34.78,39.23-48.21s39.45-13.63,59.19-18.89c9.33-2.48,18.76-6.07,26.25-12.35a42.28,42.28,0,0,0,8.48-9.81c-5.37,13.34-11.81,26.44-23.05,35.48-8.59,6.92-19.23,9.9-29.26,14.05-8.8,3.64-17.51,7.92-25.18,13.62a59.14,59.14,0,0,0-17.51,19.84c-5.41,10.35-6.62,22.18-10.88,32.94-7.52,19-25.63,30.25-45.12,33.54-1.82-3.43-3.73-6.81-5.65-10.18C1350.31,842.38,1364.76,833.18,1372.54,822.41Zm-37.21,17.12q-5.31-9.16-11.17-18c13,2.48,28.24-4.62,37.47-12.5s15.53-18.78,23.23-28.1c-4.57,8.88-6.38,19.83-9.92,28.85a45.72,45.72,0,0,1-16.66,21.2C1351.22,835.91,1343.5,837.82,1335.33,839.53Zm-.19-70.65a50.13,50.13,0,0,0,21.92-11.38c7.24-6.66,12.13-15.32,18.35-22.84A96.12,96.12,0,0,1,1425,703.12c19.18-5,40-3.31,57.13-14.73,9.44-6.3,16.82-15.11,25.84-21.94a84.56,84.56,0,0,1,25.42-12.8c-12,8.78-18.8,25.53-22.71,38.77-3.43,11.63-5.41,23.6-8.27,35.36-2.59,10.65-6.47,22.36-16.93,27.66-8.83,4.47-19.33,5.65-28.6,9.1a96.8,96.8,0,0,0-24.07,12.65c-16.95,12.6-23.78,31.24-30,50.66-6.77,21.08-18,47.76-42.62,49l-6.3-1.34h-.08q-4.33-9.59-9.16-19c12.54-2.38,24.48-7.78,33.88-16.57,13.67-12.79,15.24-29.54,21.46-46.2,6.75-18.08,22.86-28.64,39.89-36,15-6.5,30.15-10.59,41-23.7s15.89-30,19.1-46.39c.2-.58.42-1.15.61-1.74a.75.75,0,0,0-1.37-.63c-5.55,10.82-10.7,20.48-21.4,26.91-8.51,5.11-18.37,7.76-28,9.69-18,3.59-37.66,5.07-52.72,16.74-15.84,12.27-20.61,33.55-36.2,46s-34.15,12.44-52.72,14.75a220.13,220.13,0,0,0-18.43-23C1304.46,772.16,1320.22,772.7,1335.14,768.88Zm-60.69-121.51c13.17-2.61,28.21-4.25,38.62-13.62,6.08-5.47,8.79-12.77,11.18-20.4,2.58-8.25,5.78-15.68,11.72-22.11,10.49-11.34,25.36-17.43,40.22-21.62-11.9,7.54-18.7,21.76-21.44,35.52-4.33,21.72,2.53,48.78-11.06,67.86-5.93,8.31-15.27,13-23.72,18.27-7.78,4.86-14.63,10.43-19.54,18.29-5.35,8.55-8.24,18.35-10.14,28.18-2.13,11-3.87,22.15-5.74,33.22q-5.88-6-12.2-11.58c1.85-6.69.94-14.44,1.75-21.34a97.68,97.68,0,0,1,5.83-24.67c6.25-15.82,18.18-26.53,31.77-36.13,11.39-8,24.11-14.66,29-28.62,2.45-7,2.86-14.57,3.25-22a241,241,0,0,1,2.52-24.12.51.51,0,0,0-.75-.52.73.73,0,0,0-1.24-.25c-10.37,13.6-10.86,31.89-22.68,44.65-12.65,13.66-30.19,14.94-47.19,19.22-25.7,6.48-48.72,25.91-57.91,51-5-3.41-10-6.75-15.23-9.93C1214.17,675.82,1241.68,653.88,1274.45,647.37ZM1109.6,623.93c3.74-11.68,7.15-23.65,14.11-33.91a86.62,86.62,0,0,1,22-21.85c16.75-11.84,36.11-18.81,55.34-25.45,8.46-2.93,17.58-6.48,23.18-13.85,6.29-8.29,5.09-18.71,5.36-28.47.54-19.58,12.33-36.15,28.64-45.72-6.35,7.62-9.44,18.35-9.78,28-.77,21.46,10.15,40.93,12.17,62,1.2,12.56-2.2,23.7-12.93,31-8,5.41-17.35,8.42-25.6,13.4-15.4,9.28-28.78,24.11-32,42.27-2.11,12,.86,23.91,3.37,35.58a107.61,107.61,0,0,1,2.76,18.44c.23,6.07-1.09,11.25-2.55,16.74-2.83-1.65-5.7-3.25-8.59-4.83,1-8.71-2-17.62-4.66-25.8-3-9.31-6.15-18.58-6.55-28.44-.78-19,7.23-37.46,19.54-51.67a80,80,0,0,1,20.81-17.16c7.92-4.5,17.11-7.21,23.66-13.82,13.55-13.67,10.47-34.24,2.74-49.91a.63.63,0,0,0-1.18.45c3.16,10.24,5.88,21.72,3.33,32.39-2.88,12.09-11.36,18-22,22.93-15.47,7.2-28.82,17.22-38.3,31.62-8.73,13.25-13.85,28.84-13.43,44.79.24,8.83,2.56,17.25,5.25,25.61a185.87,185.87,0,0,1,6.47,26.69c-4.48-2.36-9-4.6-13.64-6.75-1-6.45-4.26-12.85-6.16-19a116,116,0,0,1-5-23.81,68.82,68.82,0,0,1,9.55-42.38c.4-.65-.58-1.1-1-.65s-1.08,1.08-1.59,1.63a.49.49,0,0,0-.25.08c-9.76,7.66-16,18.86-20.46,30.27a144.7,144.7,0,0,0-9.56,40.57,198.9,198.9,0,0,0-19.7-4.91c10.75-11,16.23-27.21,22-41,7.82-18.64,17.18-34.61,34.42-46,16.56-10.93,35.81-17.58,51-30.68,11-9.47,23-26.41,18.79-41.8-.24-.87-1.6-.66-1.72.18-1.36,10.19-2.82,18.82-9,27.4-5.63,7.78-13,13.87-21.09,19-15.68,10-33.46,16.46-48.26,27.86-13,10-20.73,23.41-27.12,38.22-3.41,7.92-6.48,16-10.24,23.76-3.93,8.15-8.92,15-14.47,22-1.38-.22-2.75-.43-4.13-.62a157.54,157.54,0,0,0-17.65-4.56c.05-.08.09-.17.14-.26C1098.26,654.5,1104.87,638.71,1109.6,623.93Zm-81.81-222.71c6.59,10,13.06,21.09,13.36,33.38.3,11.94-6.11,22.86-6.25,34.83-.26,22.41,13.55,41.51,26.84,58.28,14.94,18.85,27.88,37.57,31.86,61.82a109.33,109.33,0,0,1-12,70.45,35.88,35.88,0,0,1-4.25,2.29c-4.54-.74-9.08-1.35-13.62-1.91,17.22-34.05,13.61-75.88-4.64-108.6-10.48-18.77-24.35-35.63-32.55-55.66-4.47-10.91-6.81-22.39-5.93-34.21.74-10,3.37-19.68,5.88-29.36.89-1.82,1.78-3.64,2.62-5.46a1.06,1.06,0,0,0-.87-1.43h0c.09-.36-.47-.52-.61-.19s-.18.45-.28.68c-10.71,16.57-22.21,34.62-24.59,54.63s4.37,39.63,11.57,57.92c7.7,19.56,16.43,39.41,16,60.86s-9.34,39-22,55.86a2.11,2.11,0,0,0-.41,1.9q-10.7.19-21.36,1l-4.09.35-.15-.1c7.28-18.24,19.91-34.13,24.92-53.29,5.51-21.06-3.86-39-13.41-57.18-10.69-20.34-15.5-41.19-11.13-64.09a109.21,109.21,0,0,1,12-32.71c5.2-9.34,12.66-17.71,15.61-28.17,3.27-11.61-.59-23.13-3-34.5a72,72,0,0,1-.14-28.95C1009.11,374.82,1019.29,388.35,1027.79,401.22Z"/><path class="cls-2" d="M650.7,1078.88c-.65,12.76,4,26.84,7.15,39.12A378.44,378.44,0,0,0,671,1159.58a392.11,392.11,0,0,0,24,51.34,207.15,207.15,0,0,0,23,35.57c1.3,5.81,5.89,10.35,9.68,14.77q8.11,9.48,16.64,18.6c10.37,11.13,21.4,23.25,33.86,32.06.12.08.31-.06.2-.19-9.27-11.63-20.54-22-30.64-32.88q-7.26-7.86-14.27-15.93c-.88-1-1.71-2-2.54-3.07-10.31-13.22-19.89-27.15-29-41.29a425.14,425.14,0,0,1-28.06-60.06c-4.65-12.63-8.81-25.42-12.26-38.43q-2.88-10.89-5.13-21.91c-1.32-6.43-2-13.27-4.31-19.43C651.85,1078.11,650.74,1078.13,650.7,1078.88Z"/><path class="cls-2" d="M786.93,1317.49c12.7,12.89,29.46,22.87,45.15,31.68a361.49,361.49,0,0,0,52,23.85c.26.09.43-.28.18-.38a357,357,0,0,1-49.18-24.38c-16.4-9.76-31-21.83-47-32.12A.88.88,0,0,0,786.93,1317.49Z"/><path class="cls-2" d="M749.22,1271.31c28.26,32.37,63.92,60.65,102.78,79.4.47.22.74-.46.33-.72-18.66-11.62-37.5-23.15-54.71-36.9-16.55-13.22-32.72-27.5-47.93-42.22C749.43,1270.62,749,1271,749.22,1271.31Z"/><path class="cls-2" d="M977,1393.34A420.74,420.74,0,0,1,908,1381.59c-.06,0-.09.08,0,.1,44.85,14.7,94.59,20.21,141.39,12.38a.4.4,0,0,0-.09-.8C1025,1394.79,1001.27,1395.41,977,1393.34Z"/><path class="cls-2" d="M940.37,1380.7c-12.75-2.45-25.28-5.51-37.77-9-14-4-27.31-9.41-41.11-14a.39.39,0,0,0-.32.72c12,6.39,25.52,10.73,38.38,15a285.44,285.44,0,0,0,39.22,9.6c26.52,4.77,54.31,7.76,81.18,4.71.08,0,.09-.13,0-.14C993.23,1386.5,966.73,1385.76,940.37,1380.7Z"/><path class="cls-2" d="M1101.21,1382.82c-11.51,3.27-23.16,5.29-34.89,7.53-.47.09-.41.82.09.76,11.45-1.34,22.77-4,34-6.35,10.39-2.19,21.42-5,31-9.54.56-.26.42-1.28-.27-1.12C1121.13,1376.44,1111.19,1380,1101.21,1382.82Z"/><path class="cls-2" d="M1064.73,1381.93a306.57,306.57,0,0,1-32.42,3.69c-.17,0-.13.26,0,.26,21.24.52,44.72-1.45,64.51-9.77.6-.25.42-1.3-.28-1.16C1085.9,1377,1075.43,1380.05,1064.73,1381.93Z"/><path class="cls-2" d="M1225.36,1326.52c-13.16,9.27-25.87,18.09-40.27,25.45-6.46,3.3-13,6.52-19.73,9.21-7.39,2.94-15.25,5-22.33,8.64a.1.1,0,0,0,0,.19c7.23-.84,14.15-3.74,20.85-6.47,7.72-3.15,15.4-6.5,22.78-10.39,13.57-7.18,27.56-15.83,39.12-26C1226.21,1326.84,1225.79,1326.22,1225.36,1326.52Z"/><path class="cls-2" d="M1183.3,1344.56c-12.23,3.53-23.9,10-35.89,14.46s-24.42,8.3-36.52,12.73c-.34.12-.22.7.15.62,12.58-2.73,25-7,37.08-11.51,11.75-4.43,25.15-8.45,35.69-15.37C1184.34,1345.14,1183.86,1344.4,1183.3,1344.56Z"/><path class="cls-2" d="M1108.46,1365.23c-3.14.81-6.11,2.24-9.25,3.12-3.53,1-7.14,1.34-10.68,2.18a.46.46,0,0,0,.1.92c6.24.1,15-2.08,20.2-5.53C1109.23,1365.65,1108.86,1365.13,1108.46,1365.23Z"/><path class="cls-2" d="M1380.17,1000.8c.08,27.55-2.69,55.12-6.29,82.4-3.24,24.56-8.58,49-17.18,72.19-15.54,42-38.46,80.78-68.69,113.91a336.71,336.71,0,0,1-27.79,27.22c-9.65,8.38-20.18,15.54-30,23.66a.54.54,0,0,0,.63.87c19.57-10.73,37.29-27.42,52.77-43.34a333.44,333.44,0,0,0,90.94-184c4.5-30.7,8.71-62,6.77-93C1381.29,999.92,1380.17,1000.07,1380.17,1000.8Z"/><path class="cls-2" d="M1293.43,1249.2c-7.53,6.94-13.81,15.42-21.14,22.66-8.5,8.4-17.2,16.54-26.31,24.3-17,14.52-35.33,27.1-53.67,39.92-.15.11,0,.38.16.3,20.37-9.92,39.14-23.51,56.33-38.19a329.47,329.47,0,0,0,24.25-22.87c7.37-7.71,16-16,21.67-25.06C1295.17,1249.54,1294.05,1248.63,1293.43,1249.2Z"/><path class="cls-2" d="M1228.45,743.76c13.87,12.51,28,24.59,41,38.07A403.82,403.82,0,0,1,1306.23,826a413.45,413.45,0,0,1,52.46,100.24c7.29,20,12.2,40.67,17.73,61.23.14.51.95.29.89-.22-4.17-37.31-18.68-74.63-35.65-107.88a424,424,0,0,0-64.72-93.66c-14.38-15.68-30-31-47.51-43.13A.77.77,0,0,0,1228.45,743.76Z"/><path class="cls-2" d="M968.91,671.89c-23.54,2.45-48.07,6.92-70,16a1.18,1.18,0,0,0,.85,2.21c20.39-5.66,40.47-11.1,61.53-13.81a339.31,339.31,0,0,1,64.2-2.07c43.15,2.66,85.59,13.22,125.65,29.33q16.9,6.8,33.24,14.86c10.89,5.35,22.21,10.92,31.72,18.51a.67.67,0,0,0,.85-1c-15.76-14.15-35-22.86-54.32-31.18a444.34,444.34,0,0,0-63.45-22C1056.79,671.62,1012.53,667.37,968.91,671.89Z"/><path class="cls-2" d="M996.52,680.68a.76.76,0,0,0,0,1.5c18.77,1.9,37.51,2.84,56.15,5.94A422.25,422.25,0,0,1,1213.9,751c18,11.84,33.91,25.87,50.82,39.12.57.44,1.49-.32,1-.9-13-14.1-29-25.66-44.63-36.68a401.05,401.05,0,0,0-159.29-66.31C1040.49,682.4,1018.18,679.34,996.52,680.68Z"/><path class="cls-2" d="M1285.6,816.11c11.21,15.94,23,30.87,32.52,48a428.79,428.79,0,0,1,25.52,55.6,567.57,567.57,0,0,1,18.42,57.15,224.38,224.38,0,0,1,6.34,33c1.15,10.79.82,21.57,1,32.39,0,.38.53.33.62,0,5.62-20.31,1-43.17-4-63.16a533,533,0,0,0-19.29-60.58c-7.07-18.64-15.14-37-25-54.33-9.74-17-20.92-35.3-35.44-48.7C1285.87,815.16,1285.32,815.7,1285.6,816.11Z"/><path class="cls-2" d="M1153.61,728.1c35.41,20.84,69.41,43.83,99.07,72.44,28.69,27.65,53.19,59.93,71,95.64,9.82,19.7,16.6,40.29,23.6,61.09a.2.2,0,0,0,.39-.09c-6-38-25.53-75-47.35-106.16-23.49-33.51-53-62.56-85.72-87a401.05,401.05,0,0,0-60.28-37.44C1153.33,726.09,1152.7,727.57,1153.61,728.1Z"/><path class="cls-2" d="M888.26,690.76c-27.87,8.41-54.14,23-78.22,39.21a376.78,376.78,0,0,0-66.44,57.12c-43,46.65-72.75,104.19-87.22,165.88-8.54,36.38-11.67,74.24-8,111.46.08.83,1.31.68,1.28-.14-2.62-65.58,9.28-130.63,38.46-189.67,26.5-53.61,66.54-100.16,115-135C830,720.31,859.06,706.18,889,692.68A1,1,0,0,0,888.26,690.76Z"/><path class="cls-2" d="M674.53,1137c.57,5.12,3,10,4.83,14.8q3.1,8.18,6.33,16.31c4.44,11.16,9.13,22.23,14.31,33.06,9.49,19.84,20.85,39.81,36.06,55.87.49.52,1.3-.29.9-.85A362.32,362.32,0,0,1,701.74,1197c-4.62-9.9-8.84-20-12.87-30.13q-3.21-8.13-6.3-16.32c-1.81-4.8-3.16-10.06-6.09-14.31A1.09,1.09,0,0,0,674.53,1137Z"/><path class="cls-2" d="M670.19,939.22c-10.75,29.08-14.06,61.3-14.09,92.14a298.91,298.91,0,0,0,14.69,93.89c.23.7,1.23.28,1.05-.4a377,377,0,0,1-12.27-92.72c-.09-31.52,5.6-61.78,12-92.5C671.7,938.86,670.47,938.46,670.19,939.22Z"/><path class="cls-2" d="M667.14,1000.75c-2.69,18.82-1.75,38.72-.24,57.62a341.73,341.73,0,0,0,9.33,55.93A356.06,356.06,0,0,0,695,1169.59c7.78,17.83,17.54,34,28.16,50.26.38.59,1.25,0,.88-.64-20-32-35.09-68.61-44.34-105.12a381.56,381.56,0,0,1-9.72-56c-1.9-19.17-1.15-38-1.11-57.25C668.87,999.8,667.27,999.79,667.14,1000.75Z"/><path class="cls-2" d="M738.35,1241.39a195.18,195.18,0,0,0,33.8,41.44c12.94,12.11,26.41,24.19,41.89,33,.4.23.77-.39.42-.67-13.59-10.87-27.65-21.08-39.81-33.61-12.57-13-24.15-26.69-35.44-40.75A.53.53,0,0,0,738.35,1241.39Z"/><path class="cls-2" d="M712.59,1170.26c.36,2,.85,4.08,1.39,6.14,0,0,0,.09,0,.14,3,11,7.41,22.58,13.88,32.07a.77.77,0,0,0,.15.16,237.58,237.58,0,0,0,15,23.61,216.29,216.29,0,0,0,34.56,37.54c.8.7,1.83-.56,1.05-1.27a229.92,229.92,0,0,1-33.31-37.93c-9.86-14-16.64-29-24.36-44.13a1.19,1.19,0,0,0-1.21-.69c-2.19-5.27-4.15-10.65-6.7-15.74C712.91,1170,712.54,1170,712.59,1170.26Z"/><path class="cls-2" d="M801.45,756.3c-14,9.74-28.24,20.3-40.46,32.23C748.21,801,736.9,815.4,725.82,829.37c-21.65,27.3-40.24,57.6-50.32,91.14-.2.65.88,1,1.14.34,13.48-32.76,30.34-62.56,52.45-90.31,10.38-13,21-26.36,32.72-38.18,12.56-12.6,27.51-22.67,40.64-34.68C803.24,757,802.38,755.65,801.45,756.3Z"/><path class="cls-2" d="M821.17,743.22a.33.33,0,0,0,.38.54c22.41-13.89,45.28-26.39,69.61-36.61,23.56-9.89,48.13-17.44,72.87-23.73.49-.13.29-.95-.21-.87C912.89,690.72,862.47,712.31,821.17,743.22Z"/><path class="cls-2" d="M981.65,693.26c-32.51,3.1-65.82,10.84-95.85,23.84a.36.36,0,0,0,.26.67c31.33-8.88,62.17-18.16,94.74-21.4,33.29-3.31,66.39-1.07,98.69,7.59.36.09.55-.51.19-.63C1048.37,692.63,1014.44,690.13,981.65,693.26Z"/><path class="cls-2" d="M1089.55,706.06a.17.17,0,0,0,0,.31c7.61,3.45,16.2,5.08,24.13,7.72,7.39,2.45,14.52,5.67,22,7.78.86.25,1-1,.42-1.37-7.5-4.68-16.3-7.5-24.72-10.07C1104.42,708.33,1096.82,706,1089.55,706.06Z"/><path class="cls-2" d="M1028,707.26c-.79,0-.77,1.22,0,1.35,16,3,32.14,5,48,8.76a379.44,379.44,0,0,1,48.54,15,414.17,414.17,0,0,1,86.85,46.07c.2.14.54-.11.35-.33-10.11-11.66-24.91-19.25-38.29-26.5a405,405,0,0,0-47.65-22C1095.2,717.93,1061,707.63,1028,707.26Z"/><path class="cls-2" d="M1227.9,796.2c15.26,16.41,31.28,31.76,45.5,49.15s26.13,36.21,39.34,54.28c.14.19.48,0,.37-.2-9.66-20.07-23.56-38.4-37.5-55.67s-29.15-35-46.5-48.69C1228.4,794.51,1227.24,795.48,1227.9,796.2Z"/><path class="cls-2" d="M1361.39,1085.24c-2.41,11.27-3.73,22.75-6.28,34a310.15,310.15,0,0,1-9.68,34,299.86,299.86,0,0,1-30.76,62.46c-.32.51.36,1.12.75.61,14.46-18.52,24.95-39.72,32.68-61.84,7.6-21.73,14.39-45.75,15.57-68.85A1.16,1.16,0,0,0,1361.39,1085.24Z"/><path class="cls-2" d="M1350.64,979.08c1.89,16,4.29,31.77,4.36,47.95a369.89,369.89,0,0,1-3.64,50.31c-2.23,16.86-5.1,33.36-10.12,49.63s-11.55,32.3-17.43,48.39c-.17.46.49.77.69.32,14.51-31.91,25-64.26,29.8-99.06a354.69,354.69,0,0,0,3.62-48.72c0-16.37-.89-33.47-6.14-49.1A.59.59,0,0,0,1350.64,979.08Z"/><path class="cls-2" d="M1208,1312.4c-14.58,6.12-27.89,16-42,23.19-14.28,7.33-28.9,13.94-43.51,20.57a.63.63,0,0,0,.46,1.18,350.83,350.83,0,0,0,45.14-19.58c13.59-7,29.15-13.87,40.56-24.13C1209.21,1313.13,1208.79,1312.07,1208,1312.4Z"/><path class="cls-2" d="M1318.58,1187.77c-7.23,9.86-12.7,21.06-19.5,31.25a336.52,336.52,0,0,1-22.9,30.4c-16.25,19.2-35.17,35.14-53.46,52.26-.29.27.15.66.45.48,21.33-12.81,39.59-31.75,55.55-50.64a332.08,332.08,0,0,0,22.89-30.42c6.75-10.14,14.2-21,18.14-32.6C1320,1187.81,1319.08,1187.09,1318.58,1187.77Z"/><path class="cls-2" d="M1048.51,1375.81c-6.93.35-13.85.49-20.78.61-13.7.24-27.79-.73-41.38.63a.09.09,0,0,0,0,.18c12.94,2.7,27.26,2.26,40.45,1.86,6.91-.22,13.83-.71,20.71-1.29,7.23-.6,14.79-.64,21.86-2.32a.56.56,0,0,0-.12-1.12C1062.34,1374.22,1055.4,1375.46,1048.51,1375.81Z"/><path class="cls-2" d="M821.5,1323.94c8.29,7.11,18.82,12.5,28.54,17.35,9.88,4.93,19.91,9.52,30.22,13.47a287.06,287.06,0,0,0,29.52,9.73c10.25,2.71,21.93,6.18,32.59,5.85a.2.2,0,0,0,.06-.38c-9.57-3.49-20.12-4.62-29.95-7.41-10.89-3.1-21.71-6.39-32.25-10.54a268.36,268.36,0,0,1-29-13.28c-9.68-5.2-18.84-11.57-28.66-16.46A1,1,0,0,0,821.5,1323.94Z"/><path class="cls-2" d="M1004.46,1365.66c-13.21-.32-26.44-.86-39.58-2.42-25.44-3-49.76-10-74.36-16.71-.47-.13-.69.63-.25.82,23.82,9.9,50,14.8,75.49,18.07s52.23,4.92,77.67.77a.57.57,0,0,0-.12-1.14C1030.31,1365.22,1017.48,1366,1004.46,1365.66Z"/><path class="cls-2" d="M790.83,1283.58c9.29,10.75,20.92,19.42,32.61,27.39s24,15.54,37.32,20.71a.34.34,0,0,0,.29-.62c-12.43-7.4-25.1-14.34-36.91-22.72-11.25-8-21.45-17.25-32.36-25.65C791.21,1282.26,790.32,1283,790.83,1283.58Z"/><path class="cls-2" d="M725.05,856.63c-8.25,7.93-14.34,18.08-20.31,27.76a237.33,237.33,0,0,0-16.16,31.29c-9.13,21.36-15.43,44.05-17.32,67.25a.56.56,0,0,0,1.11.18c4.42-23,10.46-45.54,19.75-67.06a282.83,282.83,0,0,1,15.4-30.38c5.72-9.79,12.91-18.59,18.7-28.31C726.65,856.62,725.57,856.13,725.05,856.63Z"/><path class="cls-2" d="M805.09,769.28a337,337,0,0,0-27.55,23.37c-9.09,8.71-19.27,18.32-26,29-.13.2.1.55.32.34,8.94-8.33,16.66-17.87,25.75-26.12,9.37-8.52,19-16.71,29.17-24.28,20.06-15,41.55-27.85,62.57-41.4.14-.1,0-.34-.14-.27C846.3,740.41,825,753.91,805.09,769.28Z"/><path class="cls-2" d="M786.63,804.78c-7.28,5.72-13.15,12.68-19.4,19.46-7,7.56-14.06,14.84-20.35,23-11.55,15-23.16,32-30.58,49.5-.08.2.2.41.34.21,5.57-8.06,10.34-16.67,16-24.73,5.4-7.75,11.13-15.34,16.89-22.83s11.43-15.15,17.63-22.3c6.45-7.45,13.95-13.91,20.4-21.36A.65.65,0,0,0,786.63,804.78Z"/><path class="cls-2" d="M885.68,734.21c-19.8,10.19-40.12,22-56.75,36.93a.5.5,0,0,0,.59.81c19.26-12.31,37.73-25.12,58.23-35.41q14.82-7.44,30.24-13.62c10.25-4.1,20.9-7.31,31-11.74.65-.28.46-1.39-.3-1.26C926.89,713.72,905.21,724.17,885.68,734.21Z"/><path class="cls-2" d="M680.76,1049.72c-1.16,15.8,2.52,33.09,5.38,48.59,2.92,15.89,6.41,32.25,13,47.09.07.15.33.1.29-.07-3-15.87-7.59-31.41-10.5-47.32q-2.13-11.67-3.55-23.46c-1-8.2-1-16.69-2.61-24.78C682.55,1048.74,680.84,1048.5,680.76,1049.72Z"/><path class="cls-2" d="M702.92,921.21c-4.4,6.7-6.89,14.93-9.48,22.47q-3.81,11-6.57,22.4c-3.86,15.88-6.7,32.89-6,49.28,0,.06.11.07.12,0,2.39-16,4.16-31.91,8-47.71q3-12.21,7.08-24.09c2.52-7.28,6.16-14.33,8.12-21.77A.73.73,0,0,0,702.92,921.21Z"/><path class="cls-2" d="M696.66,984.58c-8.58,19.29-8.48,46.43-3.32,66.59.13.51.92.29.88-.21-1.09-11.51-2.07-22.69-1.4-34.27.63-10.82,3.26-21.2,4.58-31.89A.39.39,0,0,0,696.66,984.58Z"/><path class="cls-2" d="M712.7,1130.4c1.17,11.82,6.68,24.27,11.24,35.15A196.41,196.41,0,0,0,741,1198.28c.31.46,1.15,0,.88-.48-5.72-10.85-11.39-21.61-16.06-33s-7.16-23.56-11.92-34.73A.63.63,0,0,0,712.7,1130.4Z"/><path class="cls-2" d="M770.38,1236.77c6.64,10.86,15.34,20.74,24,30,7.67,8.2,16.32,16.4,26,22.1.5.3.95-.48.53-.84-9.78-8.28-19-16.47-27.6-26-7.61-8.48-14.23-17.84-22.25-25.93C770.69,1235.64,770.09,1236.3,770.38,1236.77Z"/><path class="cls-2" d="M854.56,1308.47c20.48,14.1,44.71,23.53,68.92,28.85.49.11.75-.7.27-.85-6.08-2-12.44-3.44-18.42-5.7-5.58-2.12-11-4.89-16.51-7.25-11.46-4.93-22.64-10.28-33.88-15.66C854.58,1307.69,854.21,1308.23,854.56,1308.47Z"/><path class="cls-2" d="M1058.31,1347c-16.71,1.43-33.37-.19-50.1-.17-.1,0-.09.16,0,.18,16.47,3.6,33.61,2.84,50.32,2.06a204.88,204.88,0,0,0,49.71-8.22.57.57,0,0,0-.26-1.09C1091.47,1342.8,1075.05,1345.57,1058.31,1347Z"/><path class="cls-2" d="M1072.65,1360.86c-.66.1-.56,1.13.11,1,13.54-1.85,28.45-3.92,41.06-9.46.71-.31.5-1.59-.34-1.4C1099.78,1354.17,1086.63,1358.73,1072.65,1360.86Z"/><path class="cls-2" d="M1218,1280.73c-10.6,5.52-20.27,13.09-30.46,19.34-10.82,6.63-22.69,11.82-33,19.2a.17.17,0,0,0,.16.3c11.34-3.68,21.83-10.52,32-16.54,10.8-6.37,22.59-12.67,31.86-21.2C1219.1,1281.4,1218.73,1280.36,1218,1280.73Z"/><path class="cls-2" d="M1135.4,1328.67a77,77,0,0,0-18.8,7.56.33.33,0,0,0,.23.6,60.46,60.46,0,0,0,19.19-7C1136.72,1329.4,1136.06,1328.51,1135.4,1328.67Z"/><path class="cls-2" d="M1323.53,1127.45c-9.87,21.23-18.4,42.84-30.66,62.92-13,21.31-30.35,38.62-46.37,57.54-.23.27.16.72.43.47a275.51,275.51,0,0,0,77.6-120.47C1324.75,1127.25,1323.84,1126.78,1323.53,1127.45Z"/><path class="cls-2" d="M1311.13,933.71c3.61,11.8,8,23.26,11.17,35.23a273.9,273.9,0,0,1,7.19,38.1,266.88,266.88,0,0,1,1.67,35.76c-.25,12.61-2.07,25.13-2.35,37.73,0,.3.5.38.59.1,7.3-23.36,5.82-51,3-75-2.9-24.3-8.46-50.74-20.34-72.37C1311.73,932.69,1311,933.19,1311.13,933.71Z"/><path class="cls-2" d="M1165.65,776.21c7.61,5.78,16.09,10.52,23.9,16.06q11.34,8,22,17c15,12.75,28.16,27,41.36,41.55.28.32.81,0,.55-.4-11.1-15.56-25.22-29.68-39.67-42.12-14.11-12.16-30.34-25.5-47.68-32.76C1165.67,775.38,1165.28,775.93,1165.65,776.21Z"/><path class="cls-2" d="M999.4,727.08a279,279,0,0,0-97.12,18.25.69.69,0,0,0,.49,1.28,298.22,298.22,0,0,1,95.86-16.36A284.74,284.74,0,0,1,1047,734c16.15,2.64,31.73,7.18,47.53,11.31,1,.25,1.38-1.26.5-1.64C1065.59,730.88,1031.21,727,999.4,727.08Z"/><path class="cls-2" d="M965.8,710.07c-.25.07-.13.44.1.43,12.72-.39,25.5.08,38.18-.39,1.2-.05,1.14-1.81,0-2C992,705.57,977.68,706.92,965.8,710.07Z"/><path class="cls-2" d="M854.17,774.29c-6.76,3-12.8,8-18.79,12.25-6.62,4.74-13.15,9.61-19.45,14.77-11.49,9.4-22.34,19.63-30.15,32.38-.09.15.15.28.25.16C796.58,822.16,807.6,811,820,801.23c5.81-4.6,11.8-9,17.88-13.18,5.77-4,12.19-7.57,17.26-12.47C855.7,775,854.89,774,854.17,774.29Z"/><path class="cls-2" d="M701.63,1037c-1,10.8-.25,22.15,0,33a93.74,93.74,0,0,0,5.45,30.39.22.22,0,0,0,.42-.1c-1.49-10.26-3.86-20-4-30.48-.2-10.83.73-22-.46-32.77C702.92,1036.26,701.71,1036.18,701.63,1037Z"/><path class="cls-2" d="M741.05,884.07c-6.2,7.14-10.68,16.19-14.62,24.72s-7.9,17.87-9.06,27.13a.14.14,0,0,0,.26.08c4-8.57,6.8-17.67,10.88-26.26s9.47-16.42,13.83-24.86C742.74,884.09,741.61,883.44,741.05,884.07Z"/><path class="cls-2" d="M718,959.89c-4.82,11-7.34,24.83-7.66,36.82,0,.2.27.18.31,0,1.51-6.06,2.49-12.23,4-18.31s3.65-11.95,4.94-18A.83.83,0,0,0,718,959.89Z"/><path class="cls-2" d="M720.58,1090.9c-1,11,1.6,26.31,7.82,35.61a.08.08,0,0,0,.15,0c-1.11-5.93-3.42-11.53-4.61-17.46s-1.34-12-2.09-18.07C721.77,1090.24,720.64,1090.15,720.58,1090.9Z"/><path class="cls-2" d="M751.86,1171.63a81.43,81.43,0,0,0,5.61,14.15c3.31,11.82,11.76,25.39,20.33,33.48.23.22.51-.12.38-.36-3.54-6.26-7.92-12-11.31-18.38-.23-.42-.43-.87-.65-1.3a.66.66,0,0,0,.36-.9c-2.33-4.82-5.12-9.41-7.57-14.17-2.19-4.26-4-8.76-6.52-12.86C752.26,1170.92,751.75,1171.27,751.86,1171.63Z"/><path class="cls-2" d="M825.86,1271.42a95.06,95.06,0,0,0,21.07,18.94,74.25,74.25,0,0,0,23.27,12.2.35.35,0,0,0,.23,0l1.61.59a.43.43,0,0,0,.36-.79c-8.41-4.8-16.87-9.18-24.82-14.77-7.38-5.19-13.76-11.44-20.82-17C826.22,1270.15,825.4,1270.85,825.86,1271.42Z"/><path class="cls-2" d="M980,1337.77c-8.75-1.7-17.86-2.79-26.69-4-4.09-.82-8.17-1.69-12.2-2.64-.58-.14-.88.82-.31,1,4.22,1.32,8.42,2.5,12.64,3.56,9.15,3.23,19.43,5.42,29,5.19,6.84.86,13.84,1.36,20.33.39a.72.72,0,0,0,0-1.43C995.42,1338.46,987.68,1338.32,980,1337.77Z"/><path class="cls-2" d="M1126.88,1319.94c-9,1.65-17.62,5.12-26.53,7.16s-18.14,3-27.16,4.82c-.37.07-.47.71,0,.74,9.45.45,19.37-1.17,28.6-3,8.66-1.75,18-3.61,25.8-7.86C1128.45,1321.28,1127.83,1319.77,1126.88,1319.94Z"/><path class="cls-2" d="M1231.32,1245c-8.11,6.52-15.14,14.24-23.45,20.6s-17.53,11.17-26,17.28a.26.26,0,0,0,.25.45c9.69-2.95,19.32-9.45,27.41-15.41s17.2-13.13,23-21.65C1233,1245.52,1232.16,1244.35,1231.32,1245Z"/><path class="cls-2" d="M1310.55,1060c-1.06,16.85-1,33.32-4.41,50-3.55,17.34-9.9,33.23-16.45,49.57a.55.55,0,0,0,1,.46c9-14.49,14.65-31.77,18.18-48.4,3.49-16.48,6-34.77,3.08-51.54C1311.82,1059.27,1310.6,1059.13,1310.55,1060Z"/><path class="cls-2" d="M1265,885.81c7.32,10.92,15.3,20.9,21.2,32.78,5.57,11.22,9,23,13.22,34.76a.42.42,0,0,0,.81-.19c-1.58-13-6.89-25.72-12.84-37.3-5.61-10.92-12.37-22.52-21.38-31C1265.42,884.31,1264.59,885.17,1265,885.81Z"/><path class="cls-2" d="M1114.42,754.11c6.5,3.64,13.59,7.29,20.75,9.43.76.23.94-.89.38-1.24-6.34-3.83-13.77-6.6-20.77-9A.43.43,0,0,0,1114.42,754.11Z"/><path class="cls-2" d="M1043.51,754.26a.62.62,0,0,0-.2,1.23c13.66,3.22,27.16,6.44,40.57,10.64,12.77,4,24.88,9.21,37.37,13.94a.48.48,0,0,0,.4-.88C1098.5,765.9,1070,757.28,1043.51,754.26Z"/><path class="cls-2" d="M893,773.88c-10.66,4.5-22.47,10.29-30.56,18.74-.06.06,0,.18.1.14,11-5.25,21-12.07,32.42-16.7s23.45-6.46,35.14-10.19c1-.32.5-1.65-.4-1.65C917.45,764.17,904.21,769.17,893,773.88Z"/><path class="cls-2" d="M785.93,1208.23c4.63,15.91,18.34,30.14,31.58,39.37a.57.57,0,0,0,.73-.88,144.84,144.84,0,0,1-17.9-18.91c-5-6.4-8.66-13.58-13.3-20.18A.64.64,0,0,0,785.93,1208.23Z"/><path class="cls-2" d="M904.84,1302.91c3.75,3.87,11.15,6.62,16.46,7.12.68.07,1.06-.9.37-1.2-2.91-1.24-6-2-8.95-3.18-2.56-1-5-2.49-7.68-3.17C904.78,1302.42,904.7,1302.75,904.84,1302.91Z"/><path class="cls-2" d="M1030.49,1322.86c-6.3-.4-12.63-1.12-18.89-1.93a.56.56,0,0,0-.18,1.11c11.7,2.84,25.95,5.15,37.95,2.78.8-.16,1-1.46,0-1.55C1043.16,1322.65,1036.78,1323.27,1030.49,1322.86Z"/><path class="cls-2" d="M1153.37,1293.81c-6.7,1.89-13.12,5.25-19.67,7.65s-13.49,4.22-19.75,7.33a.5.5,0,0,0,.23,1c7-.53,14-3,20.65-5.34s13.81-4.58,19.75-8.35C1155.89,1295.22,1154.69,1293.43,1153.37,1293.81Z"/></svg>