<svg id="Calque_1" data-name="Calque 1" xmlns="http://www.w3.org/2000/svg" viewBox="0 0 2000 2000"><defs><style>.cls-1{fill:#929ac3;}.cls-2{fill:#1a428a;}</style></defs><path class="cls-1" d="M1884.06,1405.73c45.59-110.82,89.12-236.14,77.44-440.94a1394.82,1394.82,0,0,0-41-263.85c-47.9-162.27-206.87-350.87-332.83-439.23l-1.49-1.26c-28.23-28.21-121.86-78-177.81-107.68-15-8-27.94-14.85-37.24-20C1262.2,79.27,1177.52,52.44,1016,52.44c-26.39,0-54.81.71-85.73,2.14-200.22,9.28-368,79.64-560.83,235.27-85.48,69-148.58,141.84-187.55,216.64-9.34,17.91-22.37,37.82-36.19,58.91-22.2,33.89-45.14,69-51.84,94.92-1.74,6.71-3.73,14.85-6,24-6,24.46-14.2,58-23.93,90.38-23.38,61.73-25.76,129-25.39,257.54.47,170,2.81,219.42,56.54,340.64,67,152.34,153.6,268,257.3,343.67l1.32,1.14C400,1763.93,548.82,1841,614.54,1870.18c82.9,36.27,210.85,64.11,333.89,72.65,283.37,25.07,494.9-45.81,707.3-237.06C1747.54,1623.17,1850,1488.58,1884.06,1405.73ZM1004.6,1915.91a938,938,0,0,1-127-8.87c-289.1-39.43-496.33-155.08-615.92-343.78C130.6,1356.39,58.06,1108,76.9,930.41,102.07,693.26,195,491.15,338.48,361.31,546.93,172.73,802.87,68.63,1040.12,76.16c224.25,6,447.91,111,629.77,295.53,167.65,169.85,254.84,367.58,259.16,587.69,2.67,136.71-28.33,285.86-97.56,469.33l-1.17,2.27c-15.24,22.93-28.54,44.86-41.39,66.07-46.43,76.56-86.52,142.68-189.27,210.7C1384.26,1850.34,1199.73,1915.91,1004.6,1915.91Z"/><path class="cls-2" d="M1449.25,715.76l-.44-.58-6-57.83c-13.23-32-41-49.72-67.94-66.88-8.29-5.29-16.86-10.77-24.92-16.58-9.17-6.64-20.56-10.89-31.56-15-4.56-1.7-9.11-3.4-13.54-5.27-20.83-8.78-48.73-19.26-79.61-22.43-25.08-2.57-50.5-5.92-75.07-9.17-16.13-2.13-32.28-4.25-48.43-6.19-48.83-5.84-98.47-7-146.48-8.18l-15.75-.38c-9.83-.24-21-4-29.95-10.14-9.92-6.79-18.63-15.51-27.06-23.92l-8.69-8.64c-16.4-16.29-31.89-31.68-56.4-31.68H817a202.77,202.77,0,0,0-25.6,1.67c-4.64.64-9.39,1.65-14,2.63-7,1.5-14.33,3-21.67,3.36C719,442.09,696,456.66,681.38,487.74l-1.32,12.64c-1.15,11-2.44,23.34-3.67,35.65-1.51,15.32-8.38,27.05-19.87,33.93-3,1.77-5.88,3.58-8.79,5.4-12.85,8-26.14,16.29-42.73,20-34.21,7.59-56.29,35.18-59,73.8-1.48,20.6-3.13,41.19-4.86,62.79l-2.41,30c8.27,13,21.38,21.81,35.24,31.15,11.31,7.64,23,15.52,33.21,26.32l.6.63,6,52.86q7.28,64,14.47,128.34c.5,4.45.59,9,.68,13.41.16,7.65.3,14.86,2.34,21.54,8.84,29,11.79,59.17,14.67,88.34,1.58,16.16,3.22,32.87,5.84,49.13,1.19,7.42,2.54,14.83,3.87,22.23,1.74,9.61,3.55,19.55,5,29.39,2.38,16.26,4.47,32.56,6.57,48.86q1.73,13.51,3.53,27,3.33,25,6.72,50,3.83,28.32,7.62,56.65c1,7.17,1.76,14.35,2.58,21.55,1.57,13.89,3.19,28.27,5.84,42.16,7.59,39.61,25.92,62.18,57.7,71a28.14,28.14,0,0,1,8,4.18,34.71,34.71,0,0,0,4.9,2.94c5.09,2.28,10.13,4.65,15.17,7,12.79,6,26,12.24,39.48,16.69,26.45,8.72,54.52,12.4,81.65,16,10.85,1.42,22.07,2.9,33.06,4.67,31.84,5.13,64.38,5.77,95.86,6.39,6.76.13,13.51.26,20.29.44,65.6,1.77,128.74-16.44,184.37-32.43,29.09-8.36,50.89-28.84,74.36-52.76,4.09-4.16,7-9.5,10-15.15a118.85,118.85,0,0,1,6-10.3c7.74-11.45,8.75-24.24,9.82-37.77.38-4.69.76-9.53,1.45-14.27q3.21-22.17,6.5-44.31c5.44-36.66,11.05-74.56,15.81-111.93,3.49-27.27,6.33-55.1,9.1-82,2-19.42,4-38.85,6.21-58.25,4.4-38.3,9.22-77.2,13.88-114.81l4.6-37.31c5.42-44.13,10.88-88.26,16.51-133.59l6-48.37,46.38-43.14C1468,743.32,1459,728.81,1449.25,715.76ZM1370.62,613.2l2.61.58c18.06,4,28.52,13.49,32,28.94,3.39,15.14-2.38,27.51-17.15,36.78-13.45,8.45-26.32,17.39-39.95,26.86-5.86,4.06-11.77,8.17-17.8,12.29l-1.76,1.2-1.54-1.47c-12.57-12-21.68-22.56-15.41-39.54l.28-.76,53.15-38Zm-34.4,148.38-1.19,2.6c-3.56,7.87-5.64,10.89-10.18,10.89-2.89,0-6.78-1.23-12.69-3.21l-3.4-1.14,2.11-2.89c6-8.26,13.22-10.56,22.65-7.21ZM1325.9,581.32l3.24-2.88,7.33,29.15-21.2,5.78-1.09-1.1a12.15,12.15,0,0,1-3.87-9C1310.52,597.45,1315.18,590.88,1325.9,581.32Zm24.49,27.85-1.62,6.17c-5.3,20.31-15,30.77-33.46,36.09l-1.89.55-9.7-15.21ZM1212,769c2.65,1,5.21,2.08,7.37,1.81,11.8-.78,23.82-2,35.44-3.11q8.46-.84,17-1.63c12.1-1.09,12.79-.52,25.36,9.12l2.64,2-2.27,2.32c-9.37,7.7-19.52,7.07-29.35,6.45-6-.37-11.69-.72-16.95.86-5.8,1.76-11.93,1.28-17.79.85-8.32-.65-16.14-1.23-22.71,4.25l.38,2.9,70.5-4.27-2.37,4.21c-6.78,12-15.15,11.68-21.8,11.38a39.3,39.3,0,0,0-4.47,0c-3.63.24-7.38.8-11,1.34a107.65,107.65,0,0,1-15.22,1.53h-.39a131.59,131.59,0,0,1-18.19-1.73c-3-.43-6.26-.87-9.69-1.27l-2.18-.25-3.49-54,1.91-.64c22.15-7.56,44.38-9.55,65.86-11.47,9.81-.88,20-1.79,29.77-3.22,2.66-.41,4.61,1.91,6.71,4.35.73.85,1.48,1.73,2.24,2.45l1.38,1.3-.81,1.71c-5,10.72-13.9,11.09-21.08,11.38-1.42.06-2.83.12-4.19.26-8.82.89-17.67,1.52-26.52,2.15-9.31.66-18.93,1.34-28.34,2.35-3,.32-5.89,2.44-8.58,6.32Zm21.15,51.78c25.92-13.23,50.94-12.52,68.58,1.94l6.16,5-20.92-1c-8.15-.41-15.07-.77-22-.93-7.09-.16-14.12-.13-21.23-.08l-20.33,0Zm63.08-96.67c-19.42,6.12-38,7.78-55.88,9.39-12.5,1.13-25.44,2.29-38.26,5l-2.12.44-12.06-28.8,1.58-1.24c22.81-17.79,45.93-14.68,70.42-11.38l5.34.73-.06-.87,22.11-2.41-.29,11.86h-21.11l-.62-8.33-4,3.57c-8.66,7.82-18.52,8.21-28.06,8.59-8.38.34-16.36.65-23.32,6,12.56,5.19,23.19,3.2,34.42,1.08l8.76-1.62c12.19-2.32,26-4.93,43.42,3.12l6.16,2.84Zm6-40.62-26.16,2c-25.62,2-48.89,3.78-72.18,5.39h-.32c-2,0-3.55-1.2-5.22-2.46a27.63,27.63,0,0,0-2.29-1.6l-3-1.8,2.55-2.37a27.23,27.23,0,0,0,1.9-2c1.47-1.67,3-3.4,5.16-3.56,27.66-2,55.63-3.85,83.13-5.38,2-.22,3.52,1.17,5.94,3.31,1.24,1.11,2.87,2.56,5.11,4.31Zm-11.62-25.17c-15.17,5.41-43.21,9-66.4,9-14.64,0-27.35-1.42-33.67-4.69l-8.75-4.51,75-3.33c20-8.1,20.91-8.33,34.19-1.22l5.21,2.8Zm-98.24-12.58c1.61-2.05,2.89-4,4-5.75,2.4-3.73,4.14-6.41,7-6.67,11.55-1.06,23.31-1.51,34.7-1.94q6.39-.24,12.82-.52l5.24-.22c5.22-.2,10.6-.4,15.81-1,7.77-.89,14.17.66,19.71,11.19l1.89,3.62-104.73,5.85Zm-3.29-27.2,5.49-3c16.69-8.95,53.87-10.92,90.4-4.77l9.21,1.54-8.67,3.48c-13.22,5.29-36.47,8.25-57.27,8.25-13.08,0-25.19-1.17-33.2-3.68Zm98.58-54.39,1.34.51,6.59,31.72-106.06,4.6-25.39-44,4.48-.06c10.14-.15,20-.65,29.57-1.13C1229.09,554.17,1258.21,552.69,1287.66,564.1ZM1171,612.3h-31.72l3.21-4.22c4.13-5.41,8.19-8.05,12.44-8.08h.07c4.25,0,8.4,2.63,12.66,8ZM951.26,521.75c56.38-2.45,165,3.78,213.77,19.57l7.45,2.4-7.39,2.57a170.13,170.13,0,0,0-19.75,8.78c-11.57,5.77-22.58,11.25-36,11.25-1.38,0-2.8-.06-4.24-.18-18-1.52-36.1-1.18-54.56-.66-31.18.85-61.51-8.69-93.26-29.24-2-1.27-3.22-3.22-4.82-5.69-.85-1.3-1.84-2.84-3.15-4.62l-2.93-4ZM739.18,463.37a15.3,15.3,0,0,0,1.08-1.39c1-1.37,2.17-2.94,4.11-3.13,7.62-.73,15.25-1.62,22.88-2.52,19-2.25,38.59-4.63,58.11-4.14,22.21.5,39.69,13.71,53.43,40.4l1.39,2.7-2.87,1c-2,.7-3.94,1.59-5.73,2.41-4.14,1.9-7.73,3.58-11.09,2.41-11.67-4-22.74-1.63-34.43.88-4.36.93-8.85,1.89-13.48,2.55,2.89,4.08,6.51,3.23,10.95,2.18,1.08-.26,2.12-.51,3.1-.67,18.6-3,40.6-5.27,62.78,1.2,10.23,3,16.81,7.83,21.18,15.64l11.07,6.75q14.36,8.76,28.73,17.47c38.39,23.25,73.16,32.48,109.13,29,3.73-.35,7,1,11.39,2.78,2.19.88,4.68,1.88,7.61,2.81l6.4,2-6.11,2.83c-33.32,15.47-66.16,23.11-99.61,23.12a225.29,225.29,0,0,1-31-2.16c-28-3.86-64.31-10.68-96.67-29.3-28.31-16.28-47.76-33.58-61.26-54.44-2.41-3.76-3.7-8-5.08-12.52-.53-1.76-1.08-3.56-1.71-5.38l-22.85-14.35,51.64-5.06c-7.08-6.48-13.48-6.56-20.21-6.65-4.42,0-8.86,0-13.32,0-6.65.05-13.53.11-20.35-.14-5.83-.22-17.95-.68-19.91-14.23l-.19-1.23ZM665.31,586.68c27.32-38.59,66.22-48.28,100.54-54.34,5.78-1,16.08-.44,19.75,15l.67,2.83L726.35,558l0,.93c3.4.1,6.8.17,10.21.25,9.51.2,19.36.41,29,1.32a174.77,174.77,0,0,1,41.53,8.84l7.34,2.55-7.38,2.43c-15.65,5.14-31.78,4.72-47.43,4.31-16-.39-32.58-.83-48.51,4.93a21.83,21.83,0,0,0,6.57,1.69c39.8,1.76,80.3,3.18,119.45,4.57l2.39.09c6.9.24,14.32.5,19.14,11.12l1.7,3.73-4.1,0c-7.37,0-14.69.5-21.68,1-12,.87-23.3,1.7-35.59-.06-22.15-3.15-45.07-3.06-67.66-3-8.44,0-16.92,0-25.33-.1-1.07-.31-2.67.9-4.21,1.81l-.93.54c1.62,4.25,4.71,4.44,9.56,4.3.94,0,1.85-.05,2.76,0q34.5,1.13,69,2.07,37.31,1.07,74.58,2.25c10.75.35,21.32,1.09,32.5,1.87,5.12.36,10.32.72,15.61,1l2.88.18-2.23,14.65c56.46,5.19,112.49,1.72,171.75-1.93l30.42-1.85-5,4.9c-13.8,13.67-14.76,13.7-64.16,14.94l-2.21,0a481.23,481.23,0,0,0-49,3.51l7.71.07c32.55.27,66.19.55,99.27,0,7-.11,14.13-1.59,22.33-3.31,2.78-.58,5.67-1.19,8.72-1.77l-12-14.45,1.65-1.69c12-12.22,24.41-9.76,36.47-7.36,6.36,1.27,12.4,2.44,18.39,1.6l2.46-.36,6.37,31.5-.33.77c-5.67,12.82-16.31,14.07-26.71,14.25-11.14.21-22.29.23-33.44.25-25.08,0-51,.1-76.27,2.29-8.91.78-17.83,1.1-26.71,1.1-21.26,0-42.37-1.83-63-3.62-16.06-1.39-32.66-2.82-49-3.37a88.57,88.57,0,0,1-12-1.51c-2.48-.42-5.25-.88-8.52-1.36l-6.4-.94,5.25-3.79c10.9-7.87,21.84-7.47,31.53-7.14,5,.17,9.83.34,14.27-.65-7.27-5.54-16.06-5.92-65.47-3.26l12,7.76-6,1.42c-23.34,5.53-85-1.29-108.18-11.93l-6.45-3,29-8.25,0-.56c-1.71-.31-3.43-.65-5.14-1-5.56-1.09-10.79-2.12-16.08-2.2s-10.59.39-15.77.83c-7.42.62-15.1,1.29-22.55.46-24.6-2.66-43.5-16.48-57.8-42.27l-.79-1.44Zm-21.14,20.58.91-2.27,2.33.75a32.94,32.94,0,0,0,3.39.85c2.67.57,5.21,1.11,6.92,3,24.13,26.66,57.68,36.27,90.13,45.57l3.42,1c33.74,9.68,69,14.85,107.79,15.78,16.14.38,32.46,2.19,48.26,3.94,9.33,1,18.66,2.07,28,2.83,10.91.88,22,1.46,32.82,2,7.38.38,14.75.77,22.13,1.25,5.7.37,11.42,1,17.13,1.57,10.75,1.14,21.85,2.34,32.59,1.79,29.68-1.42,59.83-3.66,89-5.83,13.23-1,26.46-2,39.69-2.89a13.41,13.41,0,0,1,4.26.73c.76.22,1.66.47,2.75.73l1.76.41,2.82,21.24-2.88.11c-4,.15-7.76.08-11.42,0-7.23-.14-14-.28-20,1.47-28.73,8.38-58.37,8.74-87,9.1-13,.16-26.47.33-39.6,1.26-2.64.18-5.29.26-7.94.26-10.77,0-21.61-1.36-32.17-2.67-6.43-.81-13.09-1.64-19.58-2.15-10.4-.81-20.83-1.44-31.26-2.07-21.1-1.26-42.9-2.58-64.2-5.43-34-4.55-69.42-11-108.41-19.61-21.14-4.7-43.66-11.75-68.82-21.57-11.57-4.52-21.9-12.28-31.89-19.79l-2.8-2.1C642.23,629.05,639.45,618.93,644.17,607.26Zm536.26,203.08-4.76-1.85c-17.36-6.76-17.11-9.13-9.1-32.7l2.84-8.34ZM610.28,614l2.12-.9,1.18,2c.76,1.3,1.55,2.6,2.35,3.91,1.94,3.17,4,6.45,5.63,9.92.91,1.87,1.74,3.78,2.55,5.66a66.37,66.37,0,0,0,4.23,8.69c23.08,26.47,55.47,33.8,86.78,40.89,8.06,1.83,16.4,3.71,24.47,5.9,23.12,6.27,46.94,11.63,70,16.82,9.23,2.08,18.46,4.16,27.67,6.3a51.59,51.59,0,0,0,9.06,1q29.34,1.38,58.67,2.91c49.77,2.54,101.24,5.16,151.88,6.5,18.53.46,37.77-1.5,56.27-3.41,9-.95,18.08-1.88,27.12-2.55,7.37-.55,14.76-1,22.58-1.36l14.43-.8v38.74l-2.3.28c-36,4.46-81,9.13-128.17,9.13-13.73,0-27.63-.39-41.59-1.3-16.19-1-32.69-1.83-48.66-2.58-32.73-1.53-66.57-3.12-99.6-7.2-63.79-7.9-121.76-17.75-177.25-30.11-43.89-9.79-77.78-26.67-103.61-51.62l-.62-.93C563.66,639.93,568.86,631.57,610.28,614Zm539.49,190.64-.21,2.1-9.27,1.06-6.76-37.63,4.91,2.82C1152.2,780.93,1152.07,782.27,1149.77,804.63Zm-23.72,4.83-.94,5.12-3.62-3.5c-16-17-16.18-18.3-5.38-33.56l1.64-2.34L1120,777C1130.37,785.83,1128.46,796.25,1126.05,809.46ZM1043.35,799c1.07,3.78,2.28,8.07.56,12.15l-.42,1-12,4.71-11.37-22.08c-5,5.65-5.17,7.08-6.36,18.31l-.25,2.35h-2.35c-2.35,0-4.71,0-7.11.08-5.26.08-10.71.17-16.13-.15l-24.88-1.53c-45.9-2.82-93.36-5.74-140-9.2-10.51-.77-21-3-31.09-5.09-3.84-.8-7.69-1.61-11.53-2.34-9.82-1.87-19.63-3.64-29.47-5.41-42.12-7.6-85.68-15.47-126.85-30.81A92.46,92.46,0,0,1,611,754.38c-1.9-1.07-3.81-2.16-5.73-3.16l-1.86-1,.55-2c4-15.28,15-14.51,22.28-14,3.37.24,6.5.46,7.77-.8l.93-.94,1.32.2c4.29.66,8.29,1.29,12.07,1.89,8.11,1.29,15.27,2.44,22.46,3.3,3.14.38,6.42.46,9.6.54a88,88,0,0,1,12,.85c33.19,5.39,66.36,11,99.53,16.61L810.17,759c4.68.8,9.36,1.75,14,2.7,9.2,1.88,18.71,3.82,28.07,4.38,18.9,1.14,38,3.11,56.55,5,41.38,4.26,84.2,8.67,126.63,4,8.53-1,17.35.41,25.88,1.72,3.87.58,7.73,1.18,11.59,1.56l2.56.25-.15,1.78,23.83-4.57.16,3a77.05,77.05,0,0,0,1.18,8.94c1.41,8,2.86,16.25-3.6,25.8l-2.05,3-15.59-20.69-11,19-2.25-1.3c-.75-.43-1.56-.81-2.36-1.18-2.1-1-4.46-2.08-6-4.09-2.26-2.93-2.83-6.49-3.38-9.92-.91-5.61-1.69-9-6.61-10.46-4.59,1.45-5.07,3.31-5.23,3.94C1041.89,793.77,1042.61,796.29,1043.35,799ZM569.87,697.63l9,27.44-4.91-1.6c-13.45-4.36-13.65-12.67-13.83-19.35l-.17-4.36Zm18,78c-2.11-2.79-5.93-4.58-10-6.47a58.57,58.57,0,0,1-7.28-3.81c-3.46-2.24-6.71-4.81-9.85-7.3-1.36-1.07-2.72-2.15-4.1-3.2l-3.91-3,4.66-1.59c16.23-5.54,26,1.82,34.69,8.33,2.13,1.6,4.24,3.19,6.42,4.56,17.42,10.91,33.81,17.66,51.6,21.22,13.73,2.74,27.56,6.06,41,9.27,22.49,5.4,45.74,11,68.88,13.91,11.67,1.49,23.36,3.07,35,4.64,50.68,6.81,103.06,13.68,155.38,13.27,28.05-.34,56.57.58,84.15,1.45,21,.66,42.74,1.36,64.09,1.5,11.27.25,23.1-1.65,34.43-3.33,5-.74,10-1.47,15-2.07,4.75-.57,9.51-1.27,14.3-2l7.91-1.15,21.39,19A177.23,177.23,0,0,1,1284,841l17.08,5-17.8.14c-11.76.09-23.63,2-35.13,3.76-18.81,3-38.31,6-58.69,1.7-11.78-2.53-25.17-.11-38.08,2.21-5.79,1-11.8,2.11-17.64,2.74-2.74.31-5.47.77-8.21,1.23-3.5.58-7.12,1.19-10.77,1.47-28.8,2.2-55.61,3.3-81,3.3-38.84,0-74.28-2.59-108.28-7.82-19.21-3-39-4.4-58.18-5.81-14.52-1.07-29.56-2.17-44.27-3.92a1005.05,1005.05,0,0,1-191.74-42.68C615.79,797.29,599.64,791.05,587.92,775.61Zm807.37,88.89c-3.38,26.81-7,53.58-10.68,80.36-3.73,27.34-7.59,55.61-11.08,83.46-2.13,17-3.82,34.46-5.45,51.31s-3.28,34.07-5.4,51.06c-3.88,31.11-8.32,62.65-12.62,93.16q-2.94,20.88-5.83,41.79l-2.4,17.26c-2.27,16.38-4.54,32.76-6.67,49.15-1.59,12.19-3.1,24.4-4.63,36.59-2.36,19.09-4.82,38.84-7.53,58.22-4.36,31.33-10.18,61.39-33.12,84.76a197.56,197.56,0,0,1-23.72,20.5c-7.75,5.74-16.05,10.93-24.08,16l-7.92,5c-3,2-6.33,4.21-10,4.5-16.22,1.31-31.12,6-46.9,11-3.31,1-6.62,2.08-10,3.1-25.08,7.61-53.47,11.64-82.17,11.64-1.22,0-2.42,0-3.61,0-11.06,0-22.31.3-33.21.59s-22,.59-33.17.59c-24.25,0-48.73-1.41-72.82-7.31a58.11,58.11,0,0,0-13.64-1.57c-45.3-.18-90.54-11.09-146.72-35.37a46.18,46.18,0,0,1-9-4.68c-15.66-11.35-31.28-22.77-47.47-34.63l-16.22-11.87,0-1.3c-.46-19.42-4-39-7.36-57.93-4.35-24.23-8.85-49.26-7.2-74.86a65.75,65.75,0,0,0-1.84-18.31c-13-58.49-20.61-119.16-27.33-172.68-3.1-24.68-7-49.69-10.77-73.88q-2.91-18.64-5.72-37.32c-.55-3.7-1.13-7.4-1.7-11.09-1.74-11.17-3.54-22.72-4.52-34.19-2.51-29.94-6.64-60.22-10.64-89.5-3-21.75-6-44.22-8.41-66.42a127.12,127.12,0,0,1-.29-16.74c.07-3.08.16-6.41.16-10.07v-3l2.94.37c23.78,3,46.12,9.18,67.72,15.15,17,4.71,33.17,9.16,49.93,12.18,10,1.8,19.94,3.71,29.89,5.63,28.53,5.5,58,11.18,87.54,13.73,16.07,1.38,32.34,3.19,48.07,4.93,22.4,2.48,45.57,5,68.5,6.45,43.45,2.69,80.53,3.46,120.18-1.46l3.21-.4-1.28,15.12c-.61,7.15-1.14,13.26-1.53,19.38a90.05,90.05,0,0,0,22.53,65.42c15.18,17,35.69,27,57.75,28.12,11.18.55,22.89-1.38,34.16-3.27,5-.84,10.09-1.68,15.12-2.32,4.86-.62,9.7-1.38,14.55-2.16l4.86-.76,3.13-7.39c-4.95-7.62-11.17-6.38-19-4.88l-1.26.25c-27.06,5.15-54.4,3.18-77.91,1l-1.19-.12-.7-1c-15-21-29.32-46.8-22.61-79.66l.57-2.73,2.68.72c17.28,4.6,18.24,5.11,30.2,20.7L1206,919.7l7.07-16.82,2.25.65a28.23,28.23,0,0,0,3,.66c2.52.46,4.89.9,6,2.93.93,1.69,1.89,3.38,2.86,5.07,3.74,6.55,7.59,13.34,9.32,20.7,3.48,14.78,8.7,27.34,15.94,38.31,24.64-10.86,78.56-53.56,92.42-72.66-10.38,1.16-17.61,7.38-25.23,13.92a104.45,104.45,0,0,1-11,8.63c-9.7,6.27-19.32,12.7-29.6,19.58l-16,10.67L1261.5,950c-15.71-14-18.42-32-21-49.41a173,173,0,0,0-4-20.68l-.63-2.3,2.22-.86c19-7.28,34.77-8.5,52.57-4,4.6-3,9.32-6.13,14.13-9.26,12.08-7.91,24.57-16.08,36.93-24.56,17.8-12.25,27.91-14.62,51.43-12.05l2.34.24v2.36c0,3.52.13,7.09.25,10.68C1396,848.14,1396.32,856.38,1395.29,864.5Zm22-89.07-4.61,3.28c-28,19.88-56.94,40.43-96,44.21l-2.28.22-5.35-22.9,2.55-.6c37.29-8.77,71.07-24,103.25-46.48l1.81-1.27,1.56,1.57c4.08,4.11,6,8.2,5.64,12.14C1423.5,769.27,1421.28,772.58,1417.25,775.43Z"/><path class="cls-2" d="M728.66,998.9c-7.27-10.06-13.38-11.89-27.18-8.44C706.36,1001.36,711.86,1004.08,728.66,998.9Z"/><path class="cls-2" d="M764,1359.84c-7-9.39-8.71-9.83-23.53-5.63C750.7,1366.55,753.69,1366.57,764,1359.84Z"/><path class="cls-2" d="M746.87,1036.54c-10.22-11.41-25.33-14.62-40.08-8.46C717.78,1041.2,730.08,1043.8,746.87,1036.54Z"/><path class="cls-2" d="M720.94,961.7a27.85,27.85,0,0,0,19.44-4.38c-9.45-4.45-19.48-6.13-30.87-8.05-4.26-.71-8.63-1.44-13.15-2.35C703.33,955.19,712,960.47,720.94,961.7Z"/><path class="cls-2" d="M751.46,1278.39c-2.45-3.09-4.7-4.74-6.87-5-1.81-.23-3.62.4-5.76,1.89,1.26,3.83,3.15,9.17,4.35,9.68C744.57,1284.65,748.5,1281.27,751.46,1278.39Z"/><path class="cls-2" d="M748.28,1111.84c-1.32-.54-2.62-1.11-3.93-1.67-8.06-3.52-14.58-6.38-23.45-1.17,4.3,5.82,8.55,8.86,13,9.27C738,1118.61,742.93,1116.57,748.28,1111.84Z"/><path class="cls-2" d="M723.3,914c-8.48-7.47-18.1-9.42-30.26-6.18C702.6,918.25,710.54,919.85,723.3,914Z"/><path class="cls-2" d="M735,1226.9c-2-.64-4.69-.05-8.23,1.79,5,3.77,6.68,4,12.48,2.5C738,1228.82,736.56,1227.41,735,1226.9Z"/><path class="cls-2" d="M1248.74,1112.63c8-4.79,16.39-9.75,24.4-15.14,4.31-2.9,8.68-5.75,13-8.6,20.43-13.31,41.53-27.06,57.85-47.55l-8.34-5.46q-5,4.14-9.82,8.23c-8.8,7.42-17.12,14.42-25.84,21.28-5.13,4-10.42,7.83-15.71,11.63-7,5-14.18,10.19-20.77,15.78-4.75,4-10.58,6.25-16.21,8.41-8.11,3.1-15.8,6.06-20.6,14C1235.59,1119.66,1241.53,1116.91,1248.74,1112.63Z"/><path class="cls-2" d="M1263.47,1061.59c18.88-12.21,36.69-23.75,54.38-35.85h0c7-4.76,12.16-11.62,15.3-16.53,1.71-2.67,2.31-6.34,2.93-10.22.2-1.21.39-2.41.63-3.59l-1.1-.74c-1.1.81-2.21,1.6-3.31,2.39-3.7,2.66-7.4,5.31-10.9,8.19-2.7,2.22-5.29,4.62-7.87,7-4.44,4.12-9,8.39-14.24,11.77-16,10.39-32.66,20.33-48.76,29.94l-10.54,6.3a55.63,55.63,0,0,1-8,3.73,3.89,3.89,0,0,1-.41.17l12.55,10Q1253.91,1067.78,1263.47,1061.59Z"/><path class="cls-2" d="M1268.78,823.11c7,.16,14.08.52,22.39.95l1.56.08c-11.4-5.29-25.09-5.69-39.64-1.14h3.62C1260.72,823,1264.75,823,1268.78,823.11Z"/><path class="cls-2" d="M1304.22,990.5c8.44-6.44,17.17-13.12,26.3-18.85,10-6.25,13.13-14.64,9.42-25l-2.48,2.07c-3.5,2.91-6.6,5.5-9.62,8.21-20.56,18.38-43.82,39.2-72.95,50.46l-12.75,13.35,3.4,3.76C1268.73,1017.62,1286.77,1003.84,1304.22,990.5Z"/><polygon class="cls-2" points="1285.4 1257.52 1285.41 1257.52 1285.41 1257.52 1285.4 1257.52"/><path class="cls-2" d="M724.44,883.29c-13.76-5.4-26.56-9.8-41.08-11C691.75,882.93,706,886.74,724.44,883.29Z"/><path class="cls-2" d="M734.54,1148.77l-.71,7c8.28,1.92,14.51,3.14,20.35-4.42C748.38,1146.25,742.39,1146.39,734.54,1148.77Z"/><path class="cls-2" d="M735.56,1183.58c1.41,8,3.44,12.55,6.23,13.78s7-.23,13.26-4.27C751.28,1187,745.61,1184.26,735.56,1183.58Z"/><path class="cls-2" d="M1182.69,1327.66c2.85-.19,5.7-.52,8.54-.89,25.79-3.31,48.13-16.36,69.74-29,4-2.35,8.07-4.71,12.12-7,12.63-7.15,22.15-19.13,30.6-38.61-8.85-2.33-12,1.86-15.5,6.61l-.38.52c-19.44,25.89-45.74,43.21-80.38,53a101.52,101.52,0,0,0-21.68,8.46c-1.14.64-2.14,3.08-3,5.24-.17.44-.36.89-.54,1.32a1,1,0,0,0,.15.11Z"/><path class="cls-2" d="M749.8,1078.24c-10.52-12.51-21.53-17.09-35.19-14.74-1.05.17-3,3.06-4.61,5.38l-1.75,2.51c2.62.85,5.16,1.76,7.66,2.64C727.39,1078.11,737.48,1081.67,749.8,1078.24Z"/><path class="cls-2" d="M1307,1205.28h0c-3.88,3-7.8,6-11.71,9-13.64,10.38-27.73,21.11-40.13,33.07-10.55,10.18-23.28,21.43-41,26.12-3.94,1-7.67,3.18-11.62,5.45-1.21.7-2.43,1.4-3.66,2.07l.25,1.46c1,.25,1.95.53,2.93.82,2.64.78,5.88,1.74,7.22,1.08,14.19-6.88,28.62-13.88,40.92-23.1,17.43-13,34-26.73,51.65-41.21q9.67-8,19.63-16.1C1315.65,1199.35,1311.41,1201.83,1307,1205.28Z"/><path class="cls-2" d="M1292.69,1392a19.84,19.84,0,0,0-6.15,1.15c-12,3.89-24.85,9.61-32.22,22.35l4.31-1.49c12.49-4.32,25-8.64,37.47-13.11a22.94,22.94,0,0,0,4.79-2.76l.78-.53C1299.28,1393.76,1296.51,1392,1292.69,1392Z"/><path class="cls-2" d="M1276.1,1358.33c-1.26.75-2.5,1.49-3.78,2.2-18.28,10.3-36.71,20.35-55.16,30.39l-24.47,13.38c-3.12,1.71-6.21,3.47-9.3,5.24l-2.56,1.45.32,1.81c1.33,0,2.68.07,4,.12a79.68,79.68,0,0,0,13.54-.28c16-2.17,29.61-10.33,41.93-18.82,14.43-10,29.28-19.41,45-29.43,5.58-3.56,11.28-7.2,17.14-11C1291.59,1349.11,1284.34,1353.44,1276.1,1358.33Z"/><path class="cls-2" d="M1313,1304.33c-3.4.13-6.62.25-9,1.45-35.15,17.52-72.89,36.75-115.38,58.78-2.55,1.31-4.79,3.56-7.18,5.94-.58.6-1.18,1.19-1.78,1.78l.42.7c24.45-4.63,46.31-17,67.47-29,15.6-8.85,31.75-18,49-24.13,5.29-1.89,10.06-5.47,15.1-9.26,1.73-1.3,3.46-2.6,5.21-3.83l-1-2.55C1314.87,1304.26,1313.92,1304.3,1313,1304.33Z"/><path class="cls-2" d="M1314.15,887.77c-10.3,8.44-20.93,17.15-32.51,24.36l.44,1.33,1.63.48c1.07.33,2.74,1,3.49.8,22.84-16.48,43-31.46,61.24-45.61,2.14-1.65,3.69-4.48,5.34-7.47.46-.81.91-1.63,1.37-2.42l-.37-.4C1340,866.59,1326.87,877.35,1314.15,887.77Z"/><path class="cls-2" d="M1329.6,1144.63h-10.74c-33.41,42.34-40.22,47.07-86.31,61.55-6.42,2-11.34,4.86-14.08,11.59,11.64,3.71,20.92-1.56,30.66-7.15,3-1.75,6-3.7,8.94-5.64,5.74-3.77,11.68-7.67,18.22-10.14,22.45-8.41,40-24.27,53.79-48.46-.07-.33-.21-.82-.32-1.2C1329.71,1145,1329.65,1144.82,1329.6,1144.63Z"/><path class="cls-2" d="M1336,1086.56c-6,2.06-11.66,6.36-17.12,10.53l-4.59,3.51c-27.7,21.21-56.35,43.15-92.24,52.06-2.61.64-6,2-7.61,4.68a8.41,8.41,0,0,0-.76,5.59c16,2.12,31.47-2.27,47.32-13.31,1.65-1.14,3.23-2.45,4.8-3.75,3.6-3,7.32-6,11.82-7.42,16.53-5.08,29-16.06,42.24-27.68,8.48-7.46,17.2-15.13,27.6-21.93-1-.28-2-.55-2.83-.82C1340.54,1086.84,1337.6,1086,1336,1086.56Z"/><path class="cls-2" d="M1274.48,1460.29a2.79,2.79,0,0,1,.26-.85l7.27-15.08c-8-2.78-9.55-1.69-24.18,8.69a3.28,3.28,0,0,1-1.89.55c-1,0-2.14-.07-3.22-.08-7.25-.1-16.28-.21-21.52-11.7a3,3,0,0,1,1-3.74l15.27-10.27-1.22-3.24c-1.45.2-2.93.36-4.42.51-4.81.5-9.33,1-12.16,3.09-16.07,12.14-33.73,12.47-50.45,11-8.33-.72-16.65-1.66-25-2.59-15.36-1.73-31.24-3.51-46.81-3.81-50-1-102-1.07-158.79-.24-27.79.41-55.62,3.09-76.76,5.39-23.47,2.56-46.88,5.77-71.69,9.16-10.71,1.47-21.68,3-33,4.47l-22.14,28.9a54.39,54.39,0,0,1,2.12,9.88c1.28,8.49,2.31,15.34,12.4,17.78l3-18.52a3,3,0,0,1,.79-1.6l3.71-3.92c14-14.92,28.45-30.34,55.47-22.95a3,3,0,0,1,2,1.91l9.55,27.33,2.73,1.24a74.54,74.54,0,0,0,9.93,4c19.53,5.81,39,4.48,59.75,3.06l6.27-.43c34.63-2.25,71.52-4.49,108.45-5,24.9-.26,50.28.19,74.82.66,16.14.32,32.29.62,48.42.72h.06c2.62,0,5.57-1.14,9-2.46l1.82-.7c-5.69-5.08-11.56-4.86-18.23-4.64l-41.59,1c-25.55.63-51.08,1.26-76.61,1.73-21.44.4-42.89.66-64.32.91q-20.83.24-41.67.54c-21.6.19-38.8-4-54.18-13.55a3,3,0,0,1,1.42-5.54l68.3-3.78c-7.06-6-13.91-4.61-21.71-3a46.77,46.77,0,0,1-11.68,1.32c-9.26-.57-18.52-1.41-28.87-2.34-4.84-.44-9.89-.89-15.31-1.35a3,3,0,0,1-1.16-5.65c2-1,3.37-1.84,4.41-2.43a12.8,12.8,0,0,1,4.19-1.87c47.1-8.41,94.91-9.42,139.84-9.74,27.58-.16,55.81,1.07,83,2.3,12.41.57,24.8,1.12,37.21,1.55l11.39.34c8.29.23,16.6.46,24.87.94,2.36.13,3.92,2,5.29,3.63.46.54.94,1.12,1.44,1.6a3,3,0,0,1,.91,2.59,3,3,0,0,1-1.58,2.24l-11.64,6.1,78.11-5.93a2.88,2.88,0,0,1,2.8,1.42,3,3,0,0,1,0,3.13c-7,11.36-18.07,12.24-27.86,13-7.72.62-15.07,1.2-20.45,6.5l.57.45c1.54,1.23,2.86,2.29,3.87,2.46,16.47,2.88,31.25-2.36,46.93-7.86,6.27-2.21,12.76-4.49,19.28-6.17a3.12,3.12,0,0,1,2.52.5l27.82,20.49c1.86-5.65-.5-9.69-3.38-14.61S1273.35,1467.58,1274.48,1460.29Z"/><path class="cls-2" d="M1232.69,1498.15c-13.8,4.37-26.84,8.5-40.41,11.75-19.92,4.77-40.51,8-60.4,11.21l-1.23.19c-13.19,2.1-26.58,3.8-40.75,5.59-4.48.57-9.08,1.15-13.8,1.77,8.15,6.06,15.82,6.58,24.47,5.34l12.39-1.77c26.36-3.74,53.6-7.61,79.9-13.44,14.52-3.22,28.67-8.38,43.66-13.85,5.65-2,11.41-4.16,17.34-6.21l-4.85-5.68C1243.51,1494.72,1238.08,1496.45,1232.69,1498.15Z"/><path class="cls-2" d="M1037.79,1533.27c-56.79-4.21-117.58-8.66-178-12.68a112.63,112.63,0,0,0-17.2.62c-2,.17-4,.35-6,.49l-.44,1.91c.66.5,1.32,1,2,1.55,1.93,1.56,4.13,3.31,5.54,3.31h2.39c24.74,0,49.8,2.32,74,4.57,38.62,3.57,78.49,7.27,118.31,1.73-.08-.17-.15-.35-.22-.52C1038,1533.89,1037.89,1533.56,1037.79,1533.27Z"/></svg>