<svg id="Calque_1" data-name="Calque 1" xmlns="http://www.w3.org/2000/svg" viewBox="0 0 2000 2000"><defs><style>.cls-1{fill:#929ac3;}.cls-2{fill:#1a428a;}</style></defs><path class="cls-1" d="M1943.74,947.71c-8.55-123.28-36.4-251.23-72.7-334.13C1842,547.9,1764.87,399.05,1718.61,352.8l-1.13-1.32c-75.71-103.69-191.33-190.26-343.65-257.3-121.26-53.73-170.72-56.07-340.67-56.54l-21.32,0C897,37.61,833.93,41,776.36,62.76,743.18,72.76,709.67,81,685.19,87c-9.14,2.24-17.27,4.22-24,6-26,6.71-61,29.66-94.93,51.85-21.08,13.81-41,26.85-58.89,36.18-74.77,39-147.64,102.06-216.64,187.56C135.14,561.37,64.77,729.09,55.49,929.33c-10.21,220.25,15.94,314.15,78.43,441.33,4.91,8.81,11.8,21.76,19.8,36.82,29.69,55.92,79.42,149.52,107.64,177.73l1.26,1.49c88.35,126,276.94,284.93,439.62,333a1395.78,1395.78,0,0,0,263.46,40.94c204.66,11.7,330.12-31.88,440.94-77.46,82.84-34.09,217.43-136.51,300-228.32C1897.93,1442.43,1968.83,1231,1943.74,947.71ZM1497.94,1788c-21.2,12.86-43.14,26.16-66.07,41.4l-2.25,1.16c-176.24,66.49-320.79,97.71-453,97.71q-8.19,0-16.32-.15c-220.09-4.31-417.82-91.5-587.69-259.16C188,1487.1,83.07,1263.42,77.06,1039.14,69.71,801.73,173.63,546,362.2,337.55,492.06,194,694.17,101.14,931.32,76c177.54-18.92,426,53.7,632.85,184.82C1752.85,380.4,1868.52,587.62,1908,876.73c33.36,244.64-26.24,460.57-199.31,722C1640.62,1701.5,1574.5,1741.58,1497.94,1788Z"/><path class="cls-2" d="M813.29,1017.3c-1.93-4.5-6.83-6.69-11.79-6.69-12,0-12-.13-24.4-.13a93.3,93.3,0,0,0-12.94.77,103.68,103.68,0,0,1-11.39.58h-2.13a14,14,0,0,1-13.06-9.27c-1.55-4.25,2.25-8.17,6.69-7.79,1.61.06,3.35.06,5.4.06,12.43,0,12.43-.32,24.53-.32a85.18,85.18,0,0,0,13.33-.9c1.42-.25,2.91-.38,4.51-.64,4.63-.39,9.85-3.16,8.11-7.47-1.61-4.12-5.41-7.34-9.85-7-1.94.07-3.47.39-4.89.52a70,70,0,0,1-11.21.78c-12.54,0-12.54.38-24.53.38a58,58,0,0,1-10.94-.9,6.12,6.12,0,0,0-1.92-.39,13.28,13.28,0,0,1-10.63-8.37,5.67,5.67,0,0,1,5.22-7.46c4.44-.13,7.33-.52,9.78-.72a77.8,77.8,0,0,1,11.46-.7c12.1,0,12.1.32,24.53.32,3,0,5.15,0,6.89.19,3.34.19,4.89-3.86,3.67-7.08-1.87-4.31-5.73-7.79-10.56-7.79-12,0-12-.32-24.53-.32a123.61,123.61,0,0,0-13.14.77,83.11,83.11,0,0,1-11.39.71h-.78c-5.6,0-10.29-3.86-12.16-9.08a6.34,6.34,0,0,1,6.12-8.31h2.38c12,0,12,.39,24.53.39,12.88,0,12.88-1,24.33-.83,3.22,0,3.29-4.25,2.06-7.28-1.67-4.25-5.53-7.41-10-7.27-5.67.32-8,.77-16.42.7-12,0-12-.32-24.53-.32a82.79,82.79,0,0,1-9.08-.38,12.78,12.78,0,0,1-11.08-8.38,5.83,5.83,0,0,1,5.48-7.85h4.18a67.54,67.54,0,0,0,13.59-1.22,46.67,46.67,0,0,1,10.94-1.1c8.69,0,10.81.52,16.68.77,4.37.27,8.69-3.08,7.08-7.07-2.06-4.9-7-7.6-12.11-8-2.89-.06-6.05-.26-11.65-.26a62.63,62.63,0,0,0-13.65,1.3,51.87,51.87,0,0,1-10.88.89c-3.28,0-5.73,0-7.72.13a15.07,15.07,0,0,1-14-9.46c-1.61-4.45,1.75-9.21,6.37-8.44a63.25,63.25,0,0,0,11.72.91c12.62,0,12.62-.52,24.53-.52,4.83,0,7.79-.06,10.24-.26,3.67-.13,5.8-4.06,4.31-7.53s-3.92-7-7.73-6.95c-1.79.06-3.92.06-6.82.06-12.68,0-12.68.65-24.53.65a51.56,51.56,0,0,1-11-1A72.43,72.43,0,0,0,685,851.52h-1.1c-4.51.07-10.12.71-14.17,2.77-.52.26-1,.13-1.35.38-.13.14-.13.33-.33.39a9.28,9.28,0,0,0-3.14,3.87l-29.3,73.91-.06.19-29.3,78.22a13.66,13.66,0,0,0-.64,3.74,10.29,10.29,0,0,0,1.94,5.91v.14a11.56,11.56,0,0,0,3.54,3.08,10.31,10.31,0,0,0,4.95,1.23h80.61c12.94.45,27.42,1.1,31.79,1.1,12.18,0,12.18.06,24.35.06a95.27,95.27,0,0,0,13-.77,90.28,90.28,0,0,1,11.33-.58c12.18,0,12.18.13,24.4.13,3.87,0,6.7-.13,8.89-.33C813.81,1024.65,814.58,1020.53,813.29,1017.3Zm-99-6.52L633.37,1012a5.12,5.12,0,0,1-4.85-7l43.38-112.6a5.12,5.12,0,0,1,9.62.2L719.05,1004a3.11,3.11,0,0,1,0,.43l2.21,6.21H714.7C714.55,1010.69,714.44,1010.78,714.28,1010.78Z"/><path class="cls-2" d="M972.56,1181.72l-7.34-7.33H965l-4.44-3.6-6.9-1.67H936.63l-3.08.4a30.91,30.91,0,0,1-32.61-19L734,740.27h0l-10.37-10.36-.39-.07c-.26-.19-.38-.58-.64-.77a20.2,20.2,0,0,0-11.4-3.48H550.74a16.59,16.59,0,0,0-11.39,4.64l-.14.06a16.69,16.69,0,0,0-4.64,11.33v76.29a18.86,18.86,0,0,0,4.06,11.59l.52.39v.19l34.64,34.57L515.65,999.4l-73.39,169.72H396.61l-6.89,1.67-5.09,4.12a18.29,18.29,0,0,0-4.18,11.58v76.36a16,16,0,0,0,4.77,11.27v.06l7,7H616.5a10.92,10.92,0,0,1-2.25-6.63v-95.32a10.94,10.94,0,0,0-10.93-10.93H577.44a10.92,10.92,0,0,1-10.1-15.1l9.47-22.93a10.92,10.92,0,0,1,10.1-6.75H754.59a10.93,10.93,0,0,1,10.2,7l8.86,22.93a10.93,10.93,0,0,1-10.19,14.87H744.07A108.17,108.17,0,0,0,730,1170h14.06l-3.28.78-5.15,4.12a18.93,18.93,0,0,0-4,11.58v76.36a16.57,16.57,0,0,0,4.62,11.27l.14.06,7,7H955.12a17.44,17.44,0,0,0,17.44-17.44Zm-17.37,37.94v43.19a2.11,2.11,0,0,1-.4,1,1.85,1.85,0,0,1-1.1.38H758.56a8.64,8.64,0,0,1-8.69-8.63,8.36,8.36,0,0,1,8.37-8.37h1.67c11.46,0,11.46,1,24.41,1a54.87,54.87,0,0,0,13.71-1.41,40,40,0,0,1,10.61-1.16,56.62,56.62,0,0,1,11.21.89,83.7,83.7,0,0,0,13.32.91c13,0,13-.91,24.67-.84s11.84.39,24.4.45c12.94-.06,12.94-.9,24.52-.9,11.41,0,11.41,1.23,24.53,1.23,4.57,0,9.28-2.71,9.28-7.28s-4.64-7.41-9.28-7.41c-11.39,0-11.39-1.16-24.53-1.22-12.94.06-12.94.9-24.52.9-11.85,0-11.85-.44-24.4-.44-13.07,0-13.07,1-24.67,1a56.36,56.36,0,0,1-11.19-.9,78.63,78.63,0,0,0-13.34-1,60.19,60.19,0,0,0-13.71,1.54,49.5,49.5,0,0,1-10.61,1.16c-11.47,0-11.47-1-24.41-1h-.77a9.3,9.3,0,0,1-9.27-9.2c0-5,3.67-9.33,8.56-9.33,10.76,0,11.14.63,23.57.63a48.76,48.76,0,0,1,11,1,67.64,67.64,0,0,0,13.46,1.16,57.76,57.76,0,0,0,13.91-1.55,37,37,0,0,1,10.62-1.16c11.85,0,11.85.39,24.39.39,12.31,0,12.31.19,24.67.19,11.78,0,11.78.91,24.59.91,12.55,0,12.55-.52,24.53-.52h6.76c3.41-.13,4.64-4,4.64-7.47s-1.35-7.21-4.64-7.21c-1.8.13-3.93.13-6.76.13-12.56,0-12.56.38-24.53.38-11.66.07-11.66-.77-24.59-.89-12.17,0-12.17-.13-24.67-.13-11.83,0-11.83-.45-24.39-.45a54.32,54.32,0,0,0-13.9,1.54,37.39,37.39,0,0,1-10.63,1.16,49.09,49.09,0,0,1-11-1,73.26,73.26,0,0,0-13.44-1.15c-11.65.12-11.84-.58-24-.65-4.37,0-8.11-3.21-8.11-7.47,0-4.63,4.12-7.85,8.69-8.1a1.78,1.78,0,0,1,.84-.14h23.89l1.6-.38c8.64-.26,17.32-.52,25.88-.84,2.46,0,5.22-.07,9.66-.07a42.48,42.48,0,0,1,11,1.17,72.22,72.22,0,0,0,13.71,1.28,83.54,83.54,0,0,0,13.33-.9,56.36,56.36,0,0,1,11.19-.9c3.1,0,5.42,0,7.35.13,3.15.07,2.76-4.25,1.61-7.21-1.61-3.93-4.7-7.6-9-7.6a82.8,82.8,0,0,0-13.45,1,53.85,53.85,0,0,1-11.07.9,44.64,44.64,0,0,1-10.81-1.16,67.34,67.34,0,0,0-13.85-1.35c-8.11,0-11,.06-15.26.19a12.28,12.28,0,0,1-12-8.3,6.4,6.4,0,0,1,6-8.69H800c12.17,0,12.17.13,24.53.13a81.33,81.33,0,0,1,11.4.63,92.6,92.6,0,0,0,13.06.78c5.22,0,8.37-.13,11.07-.19,4.06-.06,7.28-3.87,5.74-7.53s-4.58-7.15-8.69-7.08c-2.06.12-4.57.12-8.12.12a88.84,88.84,0,0,1-11.4-.58,96.32,96.32,0,0,0-13.06-.77c-12.17,0-12.17-.19-24.53-.19-1.93,0-3.68,0-5.09.13a13.44,13.44,0,0,1-12.94-8.5,5.71,5.71,0,0,1,6.18-7.73,70.7,70.7,0,0,0,11.66.84c11.9,0,11.9.45,24.52.45a75.36,75.36,0,0,0,13.46-1,51.8,51.8,0,0,1,11-1c3.56,0,4.91-4,3.56-7.33a11.21,11.21,0,0,0-11.48-7c-2.25.33-4,.58-5.53.77a56.94,56.94,0,0,1-11,1c-12,0-12-.52-24.52-.52a58.47,58.47,0,0,1-10.89-.89,62,62,0,0,0-13.64-1.3c-12.62,0-12.62.52-24.54.52a91.76,91.76,0,0,0-13,.78c-.77.06-1.54.06-2.32.12H717.81c-1-.06-1.93-.12-2.9-.26-.38-.12.39.14,1.74.26H580.49a13.69,13.69,0,0,0-7.73,2.45h-.12v.13a12.53,12.53,0,0,0-4.91,6.24h-.12l-10.49,27.62-10.63,27.56a9.89,9.89,0,0,0-.71,3.73,10.55,10.55,0,0,0,1.87,5.92,12.66,12.66,0,0,0,3.54,3.16,10.76,10.76,0,0,0,5,1.22H596.9l.39.39a3.42,3.42,0,0,1,.77,2.31v76.36a2.07,2.07,0,0,1-.39,1,1.76,1.76,0,0,1-1,.38H406.33a7.78,7.78,0,0,1-7.54-8,8.51,8.51,0,0,1,7.93-8.43c2.64-.19,5.53-.38,10.43-.38,12.3,0,12.3-.07,24.46-.07,11.66,0,11.66.84,24.53.84,12,0,12,.32,24.53.32a77.63,77.63,0,0,0,13.39-1.16,53.58,53.58,0,0,1,11.14-1,50.6,50.6,0,0,1,10.88,1,72.79,72.79,0,0,0,13.52,1.22c12.36,0,12.36-.19,24.46-.19h10.82c4.45,0,8.56-2.9,8.56-7.34s-4.11-7.34-8.56-7.34H564.06c-12.35,0-12.35.2-24.46.2a51.59,51.59,0,0,1-10.88-1,79.37,79.37,0,0,0-27,0,53.68,53.68,0,0,1-11,.9c-12.11,0-12.11-.32-24.53-.32-11.59.07-11.59-.78-24.53-.84-12.29,0-12.29.06-24.46.06-4.45,0-7.34.2-9.72.39a8.12,8.12,0,0,1-8.64-8.05,9.09,9.09,0,0,1,8.83-9c1.8-.13,4.11-.25,7.21-.25,11.71,0,11.71.77,24.53.89a93.07,93.07,0,0,0,13.14-.89,64.7,64.7,0,0,1,11.33-.78c12.55,0,12.55-.45,24.39-.45s11.79.71,24.54.71c12,0,12,.25,24.46.25,11.46,0,11.46,1,24.53,1.16,5.86-.12,9.27-.25,12.17-.58,4.31-.38,9.52-1.93,9.52-6.24s-1.93-9.14-6.17-8.82c-5.09.39-7.8,1-15.52,1-11.52,0-11.52-1-24.53-1.16-12.1,0-12.1-.19-24.46-.19-11.78,0-11.78-.71-24.54-.71-12.42,0-12.42.38-24.39.38a94.94,94.94,0,0,0-13.27.9,69.36,69.36,0,0,1-11.2.78c-11.66,0-11.66-.78-24.53-.78-3.29,0-5.66,0-7.72.13a8,8,0,0,1-8.32-7.85,8.64,8.64,0,0,1,8.45-8.49h.84c6.5-.27,12.86-1.3,19.24-1.3h15.45l.45-.12a213.54,213.54,0,0,1,24.15.26c2.63.19,5.72.38,10.62.38,12.75,0,12.75-.9,24.46-.77,13-.13,13-1.16,24.54-1.16,3.54,0,5.59-3.67,5.21-7.21s-1.87-7.47-5.21-7.47c-13.08.13-13.08,1.16-24.54,1.16-12.88,0-12.88.9-24.46.9-3.09,0-5.29-.13-7.22-.26-4.37-.26-6.88-5-5.15-9a13.84,13.84,0,0,1,12.5-8.56h3.67c11.65-.14,11.65.77,24.53.83a89.86,89.86,0,0,0,13-.83,75,75,0,0,1,11.39-.71,10.94,10.94,0,0,0,10-7.34c1.16-3,.9-7.27-2.38-7.27h-7.67a96,96,0,0,0-13.13.77,72.31,72.31,0,0,1-11.26.71c-10.95,0-11.59-.78-22.21-.84a5.74,5.74,0,0,1-5-8,14.44,14.44,0,0,1,12-8.31,130.83,130.83,0,0,1,15-.91,73.71,73.71,0,0,1,11.26.71,95.56,95.56,0,0,0,13.14.78h10.55a11.76,11.76,0,0,0,11.07-7.41c1.29-3.41-.77-7.28-4.31-7.28H530.53a105.22,105.22,0,0,1-11.41-.58,88.94,88.94,0,0,0-13-.89c-3,0-5.35.12-7.15.26-4.45.12-7.86-4.19-6.12-8.25,2.32-5.41,8.05-8.37,13.85-8.24,1.35,0,2.7.13,4.3.13,12.69-.13,12.69-.64,24.47-.64,12.62,0,12.62-.65,24.53-.51a58.77,58.77,0,0,1,11.27.77,94.46,94.46,0,0,0,13.25.9,82.51,82.51,0,0,0,13.53-1.1,48.37,48.37,0,0,1,11-1c12.42,0,12.42-.26,24.53-.26a44.52,44.52,0,0,1,10.69,1,61.81,61.81,0,0,0,13.71,1.41c12.88-.06,12.88-.9,24.33-.83,12.11,0,12.11.06,24.46.06s12.24-.06,24.35-.06c12.36,0,12.36-.07,24.52-.07,13,0,13-1.16,24.6-1.16a97.61,97.61,0,0,1,11.39.65,100.35,100.35,0,0,0,13.08.64c13.13,0,13.13-1.22,24.52-1.22,3.28,0,5.67-.07,7.73-.07,3.28-.12,3.48-4.37,2.32-7.46-1.75-4.12-5.61-7.15-10-7.15-13.13.06-13.13,1.35-24.52,1.35a100.44,100.44,0,0,1-11.4-.64,108.59,108.59,0,0,0-13.07-.71c-13.14,0-13.14,1.16-24.6,1.1-12.36,0-12.36.06-24.52.06s-12.3.19-24.35.19-12.1-.19-24.46-.19c-12.74,0-12.74.84-24.33.84a38.07,38.07,0,0,1-10.68-1.16,72.81,72.81,0,0,0-13.72-1.29c-12.49,0-12.49.25-24.53.25a68.28,68.28,0,0,0-13.52,1.16,52,52,0,0,1-11,1,70.8,70.8,0,0,1-11.19-.77,83.33,83.33,0,0,0-13.33-1c-12.68,0-12.68.52-24.53.52-12.1.06-12.68.64-22.92.64-4.7,0-7.72-5-5.8-9.4,2.32-5.15,8.12-7.79,13.85-7.08a60.94,60.94,0,0,0,7.41.38c12.86,0,12.86-.89,24.53-.89,12.87,0,12.87-.9,24.52-.9,11.4,0,11.4,1.16,24.47,1.16s13-1,24.53-1c12,0,12,.39,24.53.39a95.27,95.27,0,0,0,13-.77,75.78,75.78,0,0,1,11.33-.65c12,0,12,.26,24.33.26,11.86,0,11.86.51,24.41.51a75.07,75.07,0,0,1,11.39.65,100.51,100.51,0,0,0,13.07.65c13.14,0,13.14-1.16,24.59-1,12.5,0,12.5-.26,24.54-.26,12.68,0,12.68-.51,24.46-.51,3.66,0,5.86-4,4.44-7.34-1.93-4.77-6.76-7.33-11.91-7.21-5.86.07-8.11.46-17,.46-12.43,0-12.43.18-24.54.18-13,0-13,1.16-24.59,1.16a102.34,102.34,0,0,1-11.39-.64,97.69,97.69,0,0,0-13.07-.7c-11.85,0-11.85-.58-24.41-.58-12,0-12-.2-24.33-.2a94.46,94.46,0,0,0-13.07.78,84.53,84.53,0,0,1-11.26.7c-12,0-12-.52-24.53-.52-13,0-13,1.16-24.53,1-11.4.13-11.4-1-24.47-1.16-12.94.13-12.94,1-24.52.91-12.95.13-12.95,1-24.53.9h-2c-4.82-.26-7.66-5.41-5.72-9.91a14.16,14.16,0,0,1,13.26-8.38c10.43,0,10.82,1,23.37,1a66.25,66.25,0,0,0,13.39-1.16,61.36,61.36,0,0,1,11-.84c3.21,0,5.54-.12,7.47-.12,3.15-.13,3.54-4.25,3.15-7.47s-1-7.22-4.12-7.22c-1.73.14-3.8.14-6.5.14a63.13,63.13,0,0,0-13.39,1.15,58.77,58.77,0,0,1-11,.84c-8.82.07-10.82-.58-17.2-.77a6.49,6.49,0,0,1-5.73-8.89,13.14,13.14,0,0,1,13-7.72c1.92.19,4.25.32,7.08.32a66.58,66.58,0,0,0,13.52-1.29,53.21,53.21,0,0,1,11-1,43.21,43.21,0,0,1,10.69,1.15c4.45,1,8.69-1.87,10.24-6.11s-2.77-7.34-7.22-8.18a53,53,0,0,0-13.71-1.54A72.13,72.13,0,0,0,565,979.06a52.35,52.35,0,0,1-11,1c-5,0-8.11-5.34-6.18-10,2.52-5.73,8.11-9.71,14.36-9.34a46.24,46.24,0,0,1,5.92.78,82.54,82.54,0,0,0,13.39,1c9.08,0,11.33.19,17.13.26,5.47,0,11.08-2.44,12.94-7.6,1.35-3.61-1.74-7.08-5.54-7.08-12,0-12-.26-24.53-.26a54.81,54.81,0,0,1-11.07-.9c-1.09-.07-2.32-.26-3.6-.45a6.18,6.18,0,0,1-5.09-8.5,13.32,13.32,0,0,1,12-8.17h2.89c12.75,0,12.75-.78,24.47-.78a70.06,70.06,0,0,1,11.2.78,10.15,10.15,0,0,0,11.07-6.45A5.4,5.4,0,0,0,619,916a35.22,35.22,0,0,1-4.51-.63,93,93,0,0,0-13.32-.91c-11.2.07-12.55.65-20.6.77a5.8,5.8,0,0,1-5.47-8.05,13.86,13.86,0,0,1,12.16-8.68h3.48c12.81-.14,12.81-1,24.4-1a47.93,47.93,0,0,1,11,1c4.11.64,7.59-2.45,9.08-6.31s-2.32-7.34-6.38-8.12a74.71,74.71,0,0,0-13.65-1.22c-11.26,0-12.75.77-20.67,1a6,6,0,0,1-5.59-8.49,13.45,13.45,0,0,1,12.87-8.3c2.32.19,5.27.32,9.72.32,11.72,0,11.72.77,24.53.83a12,12,0,0,0,11.14-7.79c1.16-3.09.26-7.27-3.09-7.08-2.06.13-4.57.2-8,.2-11.65,0-11.65-.78-24.53-.84h-3.16a6.55,6.55,0,0,1-5.73-9.27,15.6,15.6,0,0,1,13.65-9.4h4.13c12.17,0,12.17.12,24.52.12,11.34,0,11.34,1.23,24.47,1.23H676c5.93.07,8.51.19,17.91.19,11.84,0,11.84.51,24.53.58,5.21,0,8.17,0,11,.07,4.12.12,8-3.35,6.37-7.22s-4.63-7.47-8.82-7.52h-8.56c-11.91,0-11.91-.46-24.53-.59-12.11,0-12.11-.19-24.53-.19-11.33,0-11.33-1.16-24.47-1.22-12.23,0-12.23-.14-24.52-.14-12.81.14-12.81.91-24.54.78a92.57,92.57,0,0,0-11.2.58H561.36a8.52,8.52,0,0,1-8.49-8.5,8.28,8.28,0,0,1,8.55-8.3c3.81.19,6.89.38,14.43.38a95.19,95.19,0,0,0,13.13-.77,72.54,72.54,0,0,1,11.4-.77c11.78,0,11.78.64,24.53.64,11.84,0,11.84.32,24.2.32s12.37-.32,24.47-.32h24.34c8.87,0,11.07.39,17,.64,4.5.13,9.34-3,7.6-7.27-2-5-7.34-7.41-12.75-7.67-2.9-.12-6.18-.25-11.84-.25H673.58c-12.37,0-12.37.19-24.47.19s-12-.19-24.2-.19c-11.79,0-11.79-.64-24.53-.78a91.45,91.45,0,0,0-13.27.91,75.21,75.21,0,0,1-11.26.64c-7.47.13-10.24-.19-14.43-.39a8.8,8.8,0,0,1-8.55-8.75,7.93,7.93,0,0,1,8.49-8,113.11,113.11,0,0,0,13.14.58c12.94,0,12.94-1,24.39-1s11.53,1.1,24.53,1.1c12.17,0,12.17.05,24.53.05a92.36,92.36,0,0,0,13.26-.84,59.38,59.38,0,0,1,11.27-.76c12.5,0,12.5-.39,24.53-.39a56.27,56.27,0,0,1,6.57.26c3.86.26,7.27-3.22,5.73-6.76a13.35,13.35,0,0,0-12.3-8.18c-12.55,0-12.55.39-24.53.39a93.8,93.8,0,0,0-13.2.84,66,66,0,0,1-11.33.77H623.42c-11.46,0-11.46-1.16-24.53-1.16s-12.94,1.09-24.39,1a106.91,106.91,0,0,1-13.08-.64,9.14,9.14,0,0,1-8.55-8.88,8.32,8.32,0,0,1,8.36-8.43h150a4.85,4.85,0,0,1,3.16,1,6.24,6.24,0,0,1,2.25,2.57l88.72,215.68,88.78,215.68a13.65,13.65,0,0,0,12.81,8.62H954l.39.39a3.77,3.77,0,0,1,.78,2.31Z"/><path class="cls-2" d="M1505.86,1280c160.15-61.94,114.8-205.49,90.74-232.84l-2.69-2.69c-23.37-28.93-49.55-42.31-49.55-42.31C1657.3,897.69,1567.05,780.94,1567,780.9l-14.25-14.36a.06.06,0,0,1-.06-.06h-.13a143.17,143.17,0,0,0-47-30.65,152.72,152.72,0,0,0-56.34-10.24H1192.48a16.17,16.17,0,0,0-11.4,4.64v.06a16.51,16.51,0,0,0-4.77,11.34v77.52a16,16,0,0,0,4.77,11.32v.13l49.64,49.59,1.41,1v287.94h-41.39a16.13,16.13,0,0,0-11.34,4.76l-.07.13a15.83,15.83,0,0,0-4.63,11.26v77.59a16.28,16.28,0,0,0,4.63,11.26l.07.07,8.11,8.11h263.35C1462,1282.33,1503.92,1280.77,1505.86,1280Zm-286.93-15.72h-17.32a8.75,8.75,0,0,1-8.69-8.75,8.65,8.65,0,0,1,8.89-8.63c4.38.13,7.27.19,15.39.19,12.75,0,12.75-.38,25-.38s12.36.19,24.91.19c11.79-.13,11.72.9,24.85,1s13-1,24.93-.83c12-.13,12,.51,25,.65,12.68,0,12.68-.26,24.92-.26,12.55,0,12.55-.14,25-.14,13,0,13-.77,25-.64,11.6-.13,11.6,1.22,25,1.22,13.13,0,13.13-1,25-1,6.18,0,9.27,0,12.49.13,8.89,0,18-.13,26.65-2.64a78.92,78.92,0,0,0,10.5-3.54c4-1.55,4.58-7.86.39-7.86-12,.13-12-.58-25.12-.64-12.42,0-12.42-.13-24.91-.13-13.2.13-13.2,1-25,1-11.59,0-11.59-1.29-25-1.29-13,0-13,.77-25,.77h-25c-12.62,0-12.62.26-24.92.26-12,0-12-.64-25-.64s-13.08.83-24.93.83-11.78-1-24.85-1c-12.36,0-12.36-.19-24.91-.19-12.75,0-12.75.38-25,.38-8.24,0-11-.06-15.78-.19-4.51-.13-8.5-3.61-8.5-8.24a8.25,8.25,0,0,1,8.25-8.37c2.57,0,5.66.13,10.68.13,12.5,0,12.5-.13,24.92-.13,12.94,0,12.94-.77,24.86-.77s12,.57,24.91.64c12.24,0,12.24.33,25,.33s12.75-.4,25-.4h24.91c12.36,0,12.36.33,25,.33h25c12.94-.13,12.94-.71,25-.71,11.59,0,11.59,1.16,24.92,1.22a97.75,97.75,0,0,0,13.33-.77,115.39,115.39,0,0,1,11.78-.51c12.56,0,12.56-.13,25.11-.13s12.49.19,25.11.19c4.83,0,7.72,0,10.37.06a17.36,17.36,0,0,0,13.9-6.43c3-3.68-1.54-7.92-6.37-8-5.79-.13-8.24-.32-17.9-.32-12.42,0-12.42-.19-25.11-.19s-12.62.12-25.11.12a96.64,96.64,0,0,0-13.33.78,117.67,117.67,0,0,1-11.78.52c-11.59,0-11.59-1.23-24.92-1.23-12.94,0-12.94.71-25,.71h-25c-12.36,0-12.36-.32-25-.32s-12.49.06-24.91.06c-12.76,0-12.76.32-25,.32s-12.23-.32-25-.32c-12,0-12-.64-24.91-.64s-13,.77-24.86.77c-12.55,0-12.55.13-24.92.13-4.89,0-8-.13-10.49-.13a8.64,8.64,0,0,1-8.44-8.63,8.54,8.54,0,0,1,8.5-8.5h33.74l.2-.07c8.69,0,17.44-.31,26.13-.19,2.26,0,5,.14,8.89.14,12-.14,12,.64,25,.77,9.85-.13,12.36-.65,17.83-.91,4-.19,8.69-1.93,7.66-5.66-1.16-4.51-3.86-9.21-8.5-8.89-6,.26-8.24.77-17,.77-12,0-12-.77-25-.77-5.79,0-8.89-.12-11.85-.12a8.3,8.3,0,0,1-8-8.38,8,8,0,0,1,7.93-8.1c12,0,12,.44,24.72.44,12.55,0,12.55-.32,24.85-.32,3,0,5.28-.07,7.21-.12,3.61-.26,5-4.19,5-7.67s-1.67-7.14-5-7c-1.94,0-4.19.07-7.15.07-12.55,0-12.55.31-24.85.31-11.85,0-12-.45-24.15-.45a8.83,8.83,0,0,1,0-17.64h2.84c12.17,0,12.17.39,24.91.39,12.24,0,12.24.32,24.79.32,4.58,0,8.63-3.09,8.63-7.53s-4.25-7.15-8.63-7.15c-12.23,0-12.23-.32-24.79-.32-12.16,0-12.16-.39-24.91-.39a20.27,20.27,0,0,0-2.84.13,8.69,8.69,0,0,1-.06-17.38h14c11.59,0,11.59,1.15,24.85,1.29,5.86-.14,9.15-.26,12.17-.33,4.89-.19,10.24-2.7,10.24-7.66,0-3.74-2.44-7.34-6.18-7.21-5.15.26-7.92.51-16.23.51-11.53,0-11.53-1.28-24.85-1.28h-14a8.31,8.31,0,1,1,.19-16.62c8.89.13,9.92.91,21.83.91,12.62,0,12.62-.39,24.78-.39h8.5c4.26,0,5.54-5.28,7-9.21,1.09-3-1.93-5.47-5-5.47h-10.43c-12.61,0-12.61.39-24.78.39-10.75,0-11.72-.71-21.57-.9a8.92,8.92,0,0,1-8.89-8.7,8.32,8.32,0,0,1,9-8.18c2.7.14,5.86.39,11.59.39,12.75,0,12.75-.39,24.78-.39,12.3,0,12.3.26,25.05.26,12.17,0,12.17.39,24.92.39,12.94,0,12.94-.9,24.79-.9s11.78.9,24.91,1c13.33-.13,13.33-1.29,25-1.16,12.56,0,12.56-.13,24.92-.13,12.55,0,12.55-.12,25-.12,12.11,0,12.11.63,25,.7,6.25,0,9.47-.07,12.62-.07,3.42-.12,5.74-4,3.42-6.5-4.25-4.63-9.79-8.11-16-8.11-12.1,0-12.1-.58-25-.71-12.56,0-12.56.13-25,.13s-12.49.13-24.92.13c-13.32,0-13.32,1.16-25,1.16s-11.78-.9-24.91-1c-13,.13-13,.9-24.79.9-12.3,0-12.3-.39-24.92-.39-12.29,0-12.29-.25-25.05-.25-12.61,0-12.61.38-24.78.38-5.93,0-8.82-.26-11.91-.38-4.7-.39-8.7-4.12-8.7-8.89a8.54,8.54,0,0,1,8.5-8.5h3.48c12,0,12,.52,24.85.52,12,0,12,.71,25,.71,12.56,0,12.56-.2,24.92-.2,13.07-.12,13.07-1,24.85-1,12.56,0,12.56-.07,24.93-.07,11.83-.13,11.83.78,25,.78,12.74,0,12.74-.39,24.91-.39s12.11.52,25,.52,12.81-.52,25-.52c5.15,0,8.24-.13,10.95-.25,4.82-.14,8.88-3.23,11.77-7.22,1.81-2.51,5.48-7.73,2.32-7.73-12.87,0-12.87.58-25,.58-12.82,0-12.82.45-25,.45s-12.11-.51-25-.51c-12.75,0-12.75.45-24.91.45-12,0-12-.84-25-.84-12.56,0-12.56.07-24.93.07-13.07,0-13.07,1-24.85,1-12.61,0-12.61.19-24.92.19-12,.06-12-.58-25-.71-12,0-12-.45-24.85-.45h-3.93a8.28,8.28,0,0,1,.2-16.55c1.8.13,3.86.13,6.57.13,12.74,0,12.74-.39,24.91-.39,12.62,0,12.62-.19,25-.19,3.41,0,6.76-2.38,5.8-5.73-1-3.73-1.81-8.95-5.8-8.95-12.62,0-12.62.19-25,.19-12.75,0-12.75.39-24.91.39h-6.51a8.69,8.69,0,0,1-8.31-8.76c0-4.63,3.49-8.82,8.12-8.88,1.54-.13,3.41-.13,5.53-.13,12.37,0,12.37.19,24.92.19,12,0,12,.45,24.92.45,3.74,0,6.18-3.54,6.18-7.21s-2.44-7.34-6.18-7.34c-12.11,0-12.11-.58-24.92-.58-12.36,0-12.36-.06-24.92-.06h-4.63c-4.83.06-9-3.61-9-8.37a8.67,8.67,0,0,1,8.7-8.76c8.82,0,10,.2,21.24.2,12.69,0,12.69-.07,25-.07,3.74,0,6.44,0,8.56.07,3.68.06,6.12-3.42,6.12-7,0-3.8-2.12-7.66-5.93-7.73-2.19-.06-4.89-.06-8.75-.06-12.56,0-12.56.06-25,.06-11.07,0-12.16-.19-21.63-.19a8.27,8.27,0,0,1-8.31-8.24,8.05,8.05,0,0,1,8.12-8c9.78,0,10.62.12,22.21.12,12.88,0,12.88-.64,24.85-.64h8.56c3.68,0,5.93-3.54,5.93-7.21s-2.25-7.34-5.93-7.34c-2.19-.13-4.82-.13-8.56-.13-12.88.13-12.88.65-24.85.65-11.2,0-12.23-.13-21.7-.13a8.63,8.63,0,0,1-8.63-8.63,9,9,0,0,1,8.63-9h5c11.85-.13,11.85.64,24.8.77,12.67,0,12.67-.32,24.91-.32,4.19,0,6.12-4.84,7.27-8.82,1-3.74-3.4-5.87-7.27-5.87-12.62,0-12.62.33-24.91.33-11.85,0-11.85-.77-24.8-.77h-3.22c-13,.13-25.94.77-39,.44-2-.06-4.44-.06-7.73-.06-4.31,0-7.21,0-9.66.06h-1a8.83,8.83,0,0,1-8.83-8.82,9.07,9.07,0,0,1,9.08-8.88h1.87c12.36,0,12.36.26,24.91.26,11.66-.13,11.66,1.16,24.92,1.16,12.62,0,12.62-.32,24.92-.32,12.62,0,12.62-.39,24.79-.39,13.07,0,13.07-.77,25-.77s12,.7,25,.7c12.11,0,12.11.52,24.92.52,12.49,0,12.49.13,25.11.13s12.56-.13,25-.13,12.62-.26,24.91-.26c12.82,0,12.82-.52,24.92-.52,12.62,0,12.62-.12,25.11-.12,11.79-.13,11.79,1,25.11,1.16,4.13,0,7-.26,9.34-.32,3.61-.33,2.89-5,.58-7.73-4.06-4.83-10.63-6.5-17-6.89-5.6-.26-8-.9-18-.9-12.69,0-12.69.13-25.11.13-12.75,0-12.75.51-24.92.51-12.68,0-12.68.26-24.91.26-12.69,0-12.69.13-25,.13s-12.43-.13-25.11-.13c-12,.13-12-.51-24.92-.51-12,.06-12-.65-25-.65s-13.07.77-25,.71c-12.75,0-12.75.38-24.79.38-12.68,0-12.68.33-24.92.33-11.58.06-11.58-1.16-24.92-1.16-12.36,0-12.36-.13-24.91-.13h-2.7a8.11,8.11,0,0,1-8.25-7.92,8.66,8.66,0,0,1,8.63-8.56c5.28-.13,7.79-.32,16.48-.32,12.11,0,12.11.38,24.86.38,12.43,0,12.43-.06,24.79-.06,12.09,0,12.09.64,25,.64a96.3,96.3,0,0,0,13.2-.77,112.22,112.22,0,0,1,11.72-.58,76.45,76.45,0,0,1,11.58.71,98.21,98.21,0,0,0,13.2.77c12.69,0,12.69-.32,24.92-.32,13.14,0,13.14-1,25.05-1,11.65,0,11.65,1.16,24.92,1.16,12.62,0,12.62-.19,25-.19,13.13,0,13.13-1,25-.84h25c4,0,8.5-5,5-6.69-1.35-.58-2.83-1.3-4.18-1.74a115.64,115.64,0,0,0-23.76-6.25h-2c-13.14,0-13.14.9-25,.84-12.62,0-12.62.19-25,.19-11.59.13-11.59-1-24.92-1.16-13.14.13-13.14,1-25.05,1-12.61,0-12.61.26-24.92.26a76.55,76.55,0,0,1-11.58-.71,96.41,96.41,0,0,0-13.2-.77,98.58,98.58,0,0,0-13.33.77,76.71,76.71,0,0,1-11.59.71c-12,0-12-.71-25-.71h-24.79c-12.17,0-12.17-.39-24.86-.39-9.08,0-11.65.2-16.86.33a8.27,8.27,0,0,1-8.25-8.44,8.56,8.56,0,0,1,8.69-8.49h245.89c18.54,0,35.48,3,50.93,9.2a112.2,112.2,0,0,1,20.28,10.5,136.17,136.17,0,0,1,18.22,14c.13.13.2.13.32.25,1.17,1,2.39,1.68,3.48,2.77a125.42,125.42,0,0,1,29.81,44c6.7,16.48,10,34.89,10,55.5a194.61,194.61,0,0,1-3.86,40A109.76,109.76,0,0,1,1549.1,972,161.89,161.89,0,0,1,1523,993.24a8.66,8.66,0,0,0-3.42,3.74,10.8,10.8,0,0,0-1,4.37,9.38,9.38,0,0,0,.33,2.39v.19a10.55,10.55,0,0,0,2.18,4.12,13.67,13.67,0,0,0,3.87,3,163.17,163.17,0,0,1,33.35,19.77,134.46,134.46,0,0,1,24.72,25.69,112.79,112.79,0,0,1,16.49,33.35,133,133,0,0,1,5.54,39.08c0,19.32-3.29,36.9-9.79,52.86a131,131,0,0,1-29.43,43.4,133.36,133.36,0,0,1-43.84,29.36c-16.16,6.5-33.93,9.78-53.44,9.78H1218.93Z"/><path class="cls-2" d="M1582.46,1137.33c-12.69,0-12.69.27-25,.27h-25c-8.69,0-11.39.12-16.35.19-4.32.07-7.22-4.19-6.26-8.43,1.16-4.9,5.29-9,10.44-9h16.22c12.37,0,12.37.19,25.12.19,9.46,0,11.84,0,17.76-.12,4.89,0,10.31-2.45,9.73-7.41-.46-4.63-5.22-7.27-9.92-7.14-5.92,0-8.24.12-17.57.12-12.5,0-12.5-.31-25.12-.31h-16.93c-5.09,0-9.14-3.81-10.5-8.7a6.67,6.67,0,0,1,6.06-8.5c2.06-.12,4.37-.12,7.53-.12,12.36,0,12.36.31,25.11.31,12.49,0,12.49.2,25.24.2,4.51,0,9.27-3.48,7.34-7.6-2.44-5.34-8.89-7.08-14.81-7.21s-8.18-.06-17.77-.06c-12.42,0-12.42-.33-25.11-.33-5.6,0-8.75.14-11.46.33-8.3.32-15.84-3.93-22.15-9.34a4.58,4.58,0,0,1,2.7-8c3.87-.13,6.89-.39,14-.39,11.85,0,11.85,1,25.11,1,12.56,0,12.56.06,25.17.06,3.8,0,4.26-5,1.49-7.73a22.93,22.93,0,0,0-16-6.94c-2.7-.07-5.67-.07-10.69-.07-11.91.07-11.91-.9-25.11-.9-12.94,0-12.94.58-25.1.58-12.37,0-12.37-.07-24.93-.07h-8.1c-13.08.07-26.08.13-39.16.13h-62a12,12,0,0,0-7.79,2.84l-.19.19a11.54,11.54,0,0,0-3.8,8.17v118.92a10.62,10.62,0,0,0,1.1,4.71,10,10,0,0,0,2.7,3.6h.07a12.38,12.38,0,0,0,7.91,3h52.73c13.07,0,26,.39,39,.65H1445c12.5,0,12.5.06,25,.06h25c12.75,0,12.75-.39,25-.39,12.8,0,12.8-.7,24.91-.58,12.75,0,12.75-.25,25.12-.25,4.89,0,9.72-2.58,11.58-7.08,1.35-3.29,0-7.22-3.41-7.47-2.12-.07-4.7-.13-8.17-.13-12.76,0-12.76.26-25.12.26-12.94,0-12.94.64-24.91.64-12.75,0-12.75.32-25,.32h-12.55c-1,0-1.23-1.22-.4-1.87s1.74-1.22,2.65-1.93c.06,0,.19-.13.19-.06,9.85-7.34,21-13.33,33.41-13.58,3.87-.14,6.83-.26,14.11-.26,12.55,0,12.55.12,25,.12,12.75,0,12.75-.25,25-.25,3.86,0,6.44-3.48,6.75-7.34A6.9,6.9,0,0,0,1582.46,1137.33Zm-89.18-21.95a48.47,48.47,0,0,1-5.41,21.7,51.34,51.34,0,0,1-15.32,17.13h-.13a71.71,71.71,0,0,1-22.22,11.2,96.34,96.34,0,0,1-27.87,3.74h-72.78V1057.91h115.5s28.75,11.32,28.23,48.78a26.78,26.78,0,0,1-.51,3.86A35.71,35.71,0,0,1,1493.28,1115.38Z"/><path class="cls-2" d="M1505.06,899.37c12.49,0,12.49.06,25,.06,12.75,0,12.75-.38,24.92-.38,2.77,0,4.89,0,6.75-.07,3.49-.12,5-4,5.22-7.47s-1.29-7.33-4.76-7.2c-1.93.06-4.12.06-7.21.06-12.75,0-12.75.38-24.92.38h-23.89c-5.41,0-9.72-4.25-11.07-9.46a6.41,6.41,0,0,1,6.38-8c1.15,0,2.5.07,3.92.07,12.49,0,12.49.07,25.11.07,12.88,0,12.88-.45,25.11-.45h6.57c3.41-.07,4.38-4.19,4.18-7.54-.38-4.89-5.79-7.15-10.75-7.15-12.94,0-12.94.45-25.11.45-12.43,0-12.43-.06-25.11-.06-6.18,0-9.14-.19-12.36-.39a23.7,23.7,0,0,1-15.84-7.91c.13,0,0-.2-.07-.2-1.35-1.55-2.83-3.09-4.24-4.44-1.68-1.55-.39-4.12,1.8-4.25,3.86-.19,6.89-.38,14-.38,12.23,0,12.23.38,25,.38,12.5,0,12.5.25,25.12.25,5.92,0,9.2-.06,12.16-.12,5-.13,9.66-4.51,7.73-9.21-1.54-3.86-5.85-5.47-10.11-5.41-2.44.07-5.34.07-9.78.07-12.37,0-12.37-.13-25.12-.13-12.22,0-12.22-.52-25-.52-12.94.13-12.94.65-24.91.65-12.56,0-12.56.12-25,.12H1435a62.43,62.43,0,0,0-8.5-.58h-80a10.38,10.38,0,0,0-4.89,1.16,12.26,12.26,0,0,0-3.48,2.71H1338a.53.53,0,0,1-.07.2c-.12,0-.12.12-.19.12v.07a13.56,13.56,0,0,0-3,8.11V949.66a13.77,13.77,0,0,0,3,8.17c.07,0,.07.13.19.26s.07.07.07.12l.12-.05a12.23,12.23,0,0,0,3.48,2.7,10.38,10.38,0,0,0,4.89,1.16h84.41c2.32.06,5.16.19,9.27.19,12.95,0,12.95-.65,24.92-.65s11.91.84,25.11.91c12.56,0,12.56-.07,25.11-.07,6.11-.06,9.4-.19,12.49-.32,6.44-.39,13.14-2.45,17.07-7.6,2.51-3.09-.4-7.47-4.45-7.47-12.94.13-12.94.71-25.11.71-12.62,0-12.62.07-25.11.07a128.59,128.59,0,0,1-13-.45,2.46,2.46,0,0,1-1.35-4.25c1.23-1.36,2.51-2.77,3.68-4.25,0,0,0-.19.06-.07a24.18,24.18,0,0,1,18.47-8.88c4.45.06,7.35.13,15.65.13,12.24,0,12.24.32,24.92.32,5.47,0,8.76-.07,11.58-.19,5-.26,10-2.71,11.47-7.47a5.77,5.77,0,0,0-5.79-7.47c-6,.13-8.18.51-17.26.45-12.3,0-12.3-.32-24.92-.32-5.54,0-8.63,0-11.4-.07a6.68,6.68,0,0,1-6.3-8A9.52,9.52,0,0,1,1505.06,899.37ZM1375,946.79h-25.41V838.49H1444a29.33,29.33,0,0,1,22,9.66c6.62,7.44,13.39,19.81,13.16,39.12,0,.81-.22,1.5-.28,2.28.14,1.24.25,2.52.28,3.89l-.84,8.76v.13l-1.93,8.89-2.32,5.41-3.41,5.21-2.76,3.54v-.07l-3.23,4.06-.06.13A49.63,49.63,0,0,1,1448.47,943a44,44,0,0,1-19.58,4.32H1399Z"/><path class="cls-2" d="M1013.48,1296.59a7.43,7.43,0,0,1-7.21-9.07l134.17-578.28a7.39,7.39,0,0,1,14.4,3.34l-134.17,578.28A7.39,7.39,0,0,1,1013.48,1296.59Z"/></svg>