<svg id="Calque_1" data-name="Calque 1" xmlns="http://www.w3.org/2000/svg" viewBox="0 0 2000 2000"><defs><style>.cls-1{fill:#929ac3;}.cls-2{fill:#1a428a;}</style></defs><path class="cls-1" d="M1913.93,1419.45c47.14-114.57,92.15-244.13,80.09-455.87a1441.42,1441.42,0,0,0-42.44-272.74c-49.53-167.78-213.89-362.79-344.11-454.15l-1.5-1.26c-29.22-29.21-126.06-80.65-183.92-111.39-15.49-8.23-28.81-15.3-38.4-20.63-112.6-55.31-200.18-83.06-367.16-83.06-27.28,0-56.64.74-88.63,2.22-207,9.59-380.41,82.33-579.81,243.22-88.37,71.31-153.61,146.67-193.92,224-9.64,18.5-23.11,39.08-37.37,60.86-23,35.05-46.69,71.3-53.64,98.2-1.79,7-3.86,15.4-6.19,24.91C50.74,699,42.28,733.6,32.23,767.07,8,830.92,5.6,900.44,6,1033.33c.49,175.71,2.91,226.85,58.46,352.19,69.3,157.5,158.81,277,266,355.33l1.32,1.13c47.79,47.8,201.7,127.53,269.66,157.65,85.67,37.5,218,66.29,345.18,75.11,293.09,25.93,511.67-47.36,731.24-245.08C1772.8,1644.26,1878.7,1505.1,1913.93,1419.45ZM1004.7,1946.17A968.26,968.26,0,0,1,873.56,1937c-298.65-40.73-512.73-160.2-636.25-355.11-135.47-213.72-210.43-470.35-191-653.79,26-245,122-453.77,270.2-587.91C531.91,145.39,796.29,37.94,1041.41,45.63c231.65,6.19,462.72,114.62,650.59,305.29C1865.19,526.4,1955.26,730.66,1959.71,958c2.77,141.19-29.26,295.28-100.79,484.9l-1.16,2.26c-15.76,23.71-29.51,46.37-42.8,68.3-48,79.08-89.36,147.38-195.48,217.63C1396.94,1878.42,1206.28,1946.17,1004.7,1946.17Z"/><path class="cls-2" d="M770.54,1112.44q-10.72-6.14-21.6-12c-.8,2.19-1.62,4.38-2.37,6.58,0,.08-.06.2-.09.29q9.1,3.71,18.2,7.45c1.31.54,2.61,1.44,4,1.53s3-.54,4.51-.85C772.29,1114.43,771.63,1113.06,770.54,1112.44Z"/><path class="cls-2" d="M792.39,1071.89a23.67,23.67,0,0,0-4.93-3.38c-10.84-5.82-21.72-11.57-32.57-17.36a44.67,44.67,0,0,1,1.4,7.52c9.76,5,19.48,10,29.23,15a20.37,20.37,0,0,0,4.77,1.92c.88.2,2.56-.19,2.81-.78A3.25,3.25,0,0,0,792.39,1071.89Z"/><path class="cls-2" d="M1115.14,1505.94c-3.82-2.53-7.94-4.59-11.84-7-3.29-2-5-4.29-5-6.54h0a4.45,4.45,0,0,1-2.53,0c-2.43-.83-4.76-1.92-7.14-2.85-1.14-.45-2.29-.87-3.46-1.24-.44-.14-.89-.25-1.34-.37-.41.8-.91,1.54-1.26,2.36a8.13,8.13,0,0,0-.64,2.68c.29.38.59.76.92,1.12s.55.59.84.87c.13.13.93.9.36.34s.24.19.39.31.57.44.87.65a4.57,4.57,0,0,1,1.89,3.23c1.36.47,2.82.74,4.23,1.1l.35-.63c4.16,2.48,8.28,5,12.5,7.42,2.71,1.54,5.44,3.24,8.38,4.07,1.44.41,3.39-1,5.1-1.56C1116.88,1508.56,1116.34,1506.74,1115.14,1505.94Z"/><path class="cls-2" d="M1083,1465.14c-3.42-2-6.84-3.9-10.3-5.78-.84-.45-2.08-.18-3.13-.25.29,1,.27,2.27.91,2.87,4.22,3.94,8.23,8.25,12.93,11.49a4.13,4.13,0,0,1,2.86.69c3,2.23,5.83,4.54,8.92,6.56.74.49,1.5,1,2.27,1.41.47.27,1,.52,1.43.79l.18.11.18.07a30.31,30.31,0,0,0,5.37,1.89s.06,0,.09,0a6.84,6.84,0,0,0,3.16-5.66A126.67,126.67,0,0,1,1083,1465.14Z"/><path class="cls-2" d="M1133.22,1474.15c-14.68-9.48-29.46-18.78-44.28-28a89.22,89.22,0,0,0-10.63-5.63c-1.29-.58-3-.13-4.58-.16a30.39,30.39,0,0,0,2.16,4.26,12.1,12.1,0,0,0,2.66,2.15c5.87,4.58,11.82,9.06,17.56,13.8a7,7,0,0,1,2.44,4,113.13,113.13,0,0,0,14.57,7.28,5.07,5.07,0,0,1,1.39.86,10.5,10.5,0,0,1,2.44.92c4.3,2.3,8.35,5.19,12.87,6.87,2.19.82,5.19-.55,7.83-.92C1136.19,1477.7,1135.08,1475.35,1133.22,1474.15Z"/><path class="cls-2" d="M1137.14,1435.84c-7.64-3.56-15-8.24-20.41-14.44a47.54,47.54,0,0,1-6.56-3.62c-1-.59-1.82-1.4-2.81-2-7.43-4.26-14.87-8.53-22.37-12.67-.82-.45-2.07-.1-3.13-.12.5.88.8,2,1.54,2.61q11.86,9.18,23.84,18.21c6.65,5,13.36,9.94,20,14.9.29-.37.57-.75.86-1.13a43.39,43.39,0,0,0,6.26,2.77c1.2.34,2.67-.32,4-.53a21.17,21.17,0,0,0-1-3.6A1.35,1.35,0,0,0,1137.14,1435.84Z"/><path class="cls-2" d="M1148.7,1411.34a10.1,10.1,0,0,1,2.06,1.18A142.62,142.62,0,0,0,1165,1422c2.39,1.33,5.56,1.27,8.37,1.85-1.87-1.87-3.49-4.14-5.67-5.54-7.61-4.88-15.41-9.48-23.15-14.16a8.83,8.83,0,0,0-7.57-.74C1140.82,1406.16,1144.83,1408.64,1148.7,1411.34Z"/><path class="cls-2" d="M1162.27,1432.34c-5.6-4-11.45-7.6-17.33-11.14-1.64-1-2.28-2-2.39-3-1.52-1-3-2.13-4.57-3.16a4.82,4.82,0,0,1-2.09,1.15,4.94,4.94,0,0,1-3.46-.68c.11.08,0,.06-.47-.24l-.83-.35a15.75,15.75,0,0,0-1.87-.62l-.15,0-.6-.08c-.26,0-.53,0-.8,0l-.12,0s0,.1,0,.15v.44c.08.45.22,1,.28,1.19s.11.36.16.54.2.38.14.33a3,3,0,0,0,.17.36c.06.12.15.25.23.4l.19.25c.18.22.38.43.58.64s.21.19.31.3l.07.07c.33.25.71.48,1,.64.57.38,1.16.72,1.76,1l.25.12c.62.27.33.16,0,0l-.31-.14.84.4c2.54,1.15,5.13,2.15,7.62,3.39a3.85,3.85,0,0,1,1.66,2.24,7,7,0,0,1,1.2.48c2,1.28,3.94,2.67,5.89,4l1.2.44a4.16,4.16,0,0,1,2.37,2c2,1.4,4,2.82,6.15,4.07,1.54.92,4.13.07,6.23,0C1164.47,1435.8,1163.82,1433.43,1162.27,1432.34Z"/><path class="cls-2" d="M1269.92,1269.88a29.38,29.38,0,0,0-5.67-3.83c-5.76-3.38-11.56-6.71-17.34-10.08h-.05c-5.57-1.73-11.09-5.31-13.35-10.92a17.82,17.82,0,0,1-1.18-5.48c-.13.21-.28.41-.41.62-.89,1.45-1.48,4.26-.7,5.36,4.21,5.87,8.1,12.41,13.64,16.77,6.63,5.21,14.81,8.45,22.75,12.78l5.19-.41C1271.86,1273.05,1271.21,1271.14,1269.92,1269.88Z"/><path class="cls-2" d="M1256.93,1248.65a128.12,128.12,0,0,0,14.44,9.06c1.44.8,3.58.32,5.4.43-.87-1.84-1.29-4.19-2.69-5.41a91.71,91.71,0,0,0-10.48-7.48c-5.22-3.38-8.09-5.31-9.23-7.4-1.31-1-2.68-1.9-4-2.88a.77.77,0,0,1-.46.07l-.41.1c-.67.17-1.33.38-2,.59l-1.16.35h0c0,.29,0,.58-.06.86s-.1.79,0,.91l0-.57c0,.22,0,.43.08.63a14.5,14.5,0,0,0,.45,1.95,4.35,4.35,0,0,1-2.35,4.84l0,0"/><path class="cls-2" d="M1283.08,881.07c-4.49-3.06-9.16-5.87-14.66-9.38l-4.64.75c.79,1.6,1.18,3.69,2.44,4.7,6.27,5,12.65,9.84,19.19,14.46,17.53,12.36,35.16,24.56,52.73,36.84,3.2,2.23,6.62,2.81,9-.55.44-.62-2.57-4.49-4.64-5.93Q1312.91,901.34,1283.08,881.07Z"/><path class="cls-2" d="M997.82,783.59c3,2.6,6.52,4.59,9.89,6.74q16.61,10.62,33.25,21.18c13.45,8.6,26.88,17.22,40.89,26.2l6.18-1.3c-1.18-1.63-2.14-3.5-3.6-4.83s-3.4-2.08-5.09-3.15c-10.4-6.56-20.83-13.09-31.18-19.73-15.62-10-31.17-20.14-46.83-30.08-1.09-.69-2.91-.21-4.4-.26C997.19,780.15,996.79,782.69,997.82,783.59Z"/><path class="cls-2" d="M1086.09,738.75c6.83,4.65,14.21,8.49,21.08,13.1,11.37,7.62,22.52,15.57,33.71,23.45,6.3,4.44,12.38,9.21,18.84,13.39,1.59,1,4.27.37,6.46.48.22-.64.44-1.28.67-1.93a26.65,26.65,0,0,0-3.6-4c-5.72-4.29-11.53-8.47-17.38-12.57-18.48-13-36.93-25.95-55.59-38.62-1.5-1-4.56.29-6.89.51C1084.25,734.67,1084.51,737.67,1086.09,738.75Z"/><path class="cls-2" d="M1337.35,1065.07c4.23,3.73,9.22,6.43,13.44,10.15a6.48,6.48,0,0,1,1.42,1.81,23.27,23.27,0,0,0,3.85-.3,29.07,29.07,0,0,0-1.41-4.65c-.92-1.87-2.64-3.45-3.21-5.39s.65-5.34-.1-5.71c-2.07-1-5.45-1.84-7.07-.8-4.52,2.9-7.64.33-11-1.62-4.7-2.71-9.3-5.62-14.2-8.6l-4.54-.09a20.67,20.67,0,0,0,2.71,3.86c2.73,2.51,5.73,4.75,8.53,7.2,1.79,1.56,4.18,3.09,6,4.69C1333.18,1064.24,1335.81,1063.71,1337.35,1065.07Z"/><path class="cls-2" d="M1273.75,843.9c15.88,10.18,31.73,20.41,47.69,30.47,6,3.8,12.28,7.29,18.58,10.63,1.17.61,3.1-.21,4.67-.37-.74-1.27-1.16-3-2.26-3.75-14.09-9.24-28.33-18.22-42.4-27.49-8.78-5.78-17.31-11.93-25.83-17.82l-7.73.56c1.27,1.75,2.42,3.61,3.85,5.22A15.85,15.85,0,0,0,1273.75,843.9Z"/><path class="cls-2" d="M1298,939.24c-2.32-1.42-5.12-4.09-7.33-.44-1.92,3.15,1.31,4.26,3.44,5.66,10.49,6.95,20.88,14,31.42,20.91,5,3.27,10.27,6.17,16,9.62l6.72-.89c-1.19-2-1.94-4.61-3.67-6-3.57-2.79-7.66-4.92-11.54-7.31C1321.37,953.62,1309.7,946.39,1298,939.24Z"/><path class="cls-2" d="M1055.52,761.43q16,10.68,32.07,21.29c7.86,5.17,15.77,10.26,24.8,16.13l5-1.52a43.46,43.46,0,0,0-3-4.57,12.43,12.43,0,0,0-2.8-1.94q-25.89-17.46-51.79-34.91a16.43,16.43,0,0,0-4.55-2.27c-.9-.25-2.6.07-3,.71-.65,1.07-1.13,2.93-.61,3.86C1052.5,759.57,1054.13,760.51,1055.52,761.43Z"/><path class="cls-2" d="M1249.44,888.4c1.09,2,1.7,4.67,3.36,6,5.79,4.66,11.78,9.12,18,13.2,9.8,6.44,19.84,12.51,30.48,19.17l5.79-1.7c-.91-1.76-1.36-4.22-2.8-5.15q-24.24-15.54-48.8-30.57C1253.86,888.38,1251.46,888.69,1249.44,888.4Z"/><path class="cls-2" d="M1016.2,834.74c4.13,1.23,6.85.58,8.33-1.44s-.84-4.12-3.74-5.64c-6.72-3.52-13.63-6.83-20.27-10.43-3.88-2.11-7-2.66-9.14-.39s-.69,4.69,3.11,6.7C1001.67,827.34,1009,831,1016.2,834.74Z"/><path class="cls-2" d="M1048,791.17c-1-.52-2.55,0-3.85,0a18.19,18.19,0,0,0,.75,4.54c.39.91,1.67,1.51,2.64,2.1q24.15,14.58,48.33,29.11c1,.58,2.06,1,4.25,2l5.21-1.19c-1.15-1.6-2-3.77-3.5-4.72-14.12-8.67-28.35-17.14-42.58-25.62C1055.55,795.2,1051.82,793.06,1048,791.17Z"/><path class="cls-2" d="M1321,1020.27a7,7,0,0,0-9.54,2c-2.14,3-.68,5.83,2.7,7.86,6,3.64,12.13,7.2,19.08,11.31,2.5-.31,5.56-.25,8.17-1.11,4.49-1.48,4.95-3.87,1.08-6.54C1335.55,1029,1328.38,1024.43,1321,1020.27Z"/><path class="cls-2" d="M1297.17,871c-1.16-.71-3.06-.2-4.61-.26.28,1.77.18,3.74,1,5.23.57,1.06,2.37,1.43,3.57,2.19,9.61,6.11,19.25,12.19,28.79,18.39,5.22,3.4,10.27,7,16.07,11l5.91-1.3c-.95-1.82-1.49-4.11-2.94-5.37-2.55-2.22-5.63-3.85-8.54-5.65C1323.34,887.12,1310.31,879,1297.17,871Z"/><path class="cls-2" d="M1150.47,797.62c-2.59-2.77-3.92-4.84-5.79-6.09-13.28-8.87-26.59-17.71-40.12-26.21-2.85-1.79-6.52-7.51-9.66-2.72-2.77,4.22,3.29,6.47,6.26,8.46,12.32,8.23,24.91,16.05,37.38,24.05,1.91,1.23,3.62,2.93,5.68,3.71C1145.43,799.27,1147.16,798.32,1150.47,797.62Z"/><path class="cls-2" d="M868,1594.22c-.72-1.11-2.23-1.73-3.42-2.5q-14.43-9.23-28.87-18.44c-4.57-2.91-9.09-5.91-13.76-8.65-1-.58-2.56-.16-3.87-.21.37,1.22.36,2.84,1.16,3.6a181.94,181.94,0,0,0,44.11,30.53,7.38,7.38,0,0,0,1.59.62c1.81.27,3.63.45,5.45.67A33.07,33.07,0,0,0,868,1594.22Z"/><path class="cls-2" d="M1111.91,1437.83c-3.34-2.16-6.79-4.15-10.3-6-.88-.48-2.15-.24-3.24-.34.27,1.25.21,2.71.86,3.7a14.6,14.6,0,0,0,3.58,3.65c7.28,5.47,14.56,10.94,22,16.22a150.15,150.15,0,0,0,15.06,9.77c2,1.11,5,.55,7.49.75l.86-2c-1.37-1.58-2.46-3.56-4.13-4.68C1133.43,1451.78,1122.68,1444.79,1111.91,1437.83Z"/><path class="cls-2" d="M979.39,791.67c13.37,8.75,26.68,17.59,40.18,26.13,1.74,1.11,4.48.64,6.76.9-.95-1.88-1.83-3.8-2.88-5.61a5.91,5.91,0,0,0-1.89-1.72c-13.44-8.69-26.89-17.35-41.51-26.76l-4,1.16c.6,1.71,1.14,3.44,1.86,5.09C978.09,791.27,978.91,791.36,979.39,791.67Z"/><path class="cls-2" d="M889.57,832.54c10.86,6.9,21.75,13.74,32.68,20.63l5-.95c-.58-1.45-.77-3.34-1.81-4.23-1.93-1.64-4.44-2.57-6.56-4-9.28-6.22-18.45-12.6-27.82-18.69-1.3-.84-3.49-.33-5.27-.44a32.91,32.91,0,0,0,1.33,5.28A6,6,0,0,0,889.57,832.54Z"/><path class="cls-2" d="M810.28,1065.23c-.9-1.37-1.49-3.25-2.75-4-11.79-7-23.7-13.91-35.57-20.82l-.43.73c-.53-.22-1.08-.67-1.58-.62-1.84.19-3.66.54-5.49.83,1.15,1.34,2,3.15,3.48,4q18.38,10.26,37,20.1C806.29,1066.11,808.47,1065.32,810.28,1065.23Z"/><path class="cls-2" d="M1330.89,1168.63q-8.69-5.51-17.49-10.82c-3.43-2.08-6.9-4.11-10.47-5.92-.77-.39-2,.24-3.1.41.16,1,0,2.44.55,2.94,8.3,6.91,16.7,13.69,25.08,20.5l.82-1c.52.23,1.09.72,1.57.64,2.34-.4,5.84-.18,6.76-1.6C1336.79,1170.44,1332.83,1169.86,1330.89,1168.63Z"/><path class="cls-2" d="M1260.2,1282.73c-11.84-7.45-23.8-14.7-35.78-21.93-.87-.52-2.12-.44-3.19-.65.39,1.16.44,2.69,1.23,3.42,9,8.32,17.21,17.66,29.65,21.09a40.48,40.48,0,0,0,5.59,2.15,31,31,0,0,0,5.39.34C1262.15,1285.65,1261.56,1283.58,1260.2,1282.73Z"/><path class="cls-2" d="M1316.67,997.94c.13,1.82-.46,4.59.5,5.33,7.69,5.92,15.67,11.45,24.21,17.57l6.63-2.36c-1.19-1.73-2-4-3.63-5.08-7.53-5.21-15.22-10.19-23-15C1320.19,997.63,1318.26,998.05,1316.67,997.94Z"/><path class="cls-2" d="M873.8,860.27c9.41,6,18.92,11.8,28.9,18l4.2-.88c-.77-1.47-1.17-3.48-2.38-4.33q-15.07-10.59-30.45-20.75c-.88-.59-3-.67-3.55-.08a4.23,4.23,0,0,0-.74,3.82A11.88,11.88,0,0,0,873.8,860.27Z"/><path class="cls-2" d="M1028.55,760.86a22.88,22.88,0,0,0,5.43,5.32c5.69,4.3,11.52,8.42,17.27,12.64,2.53,1.85,5,3.77,8,6l4.14-1.6c-.74-1.41-1.13-3.25-2.27-4.15Q1047,768,1032.59,757.24c-.95-.72-2.46-.71-3.71-1C1028.72,757.78,1027.87,759.82,1028.55,760.86Z"/><path class="cls-2" d="M1026.92,1651.58c-3.23-2.29-6.79-4.12-10.2-6.16-5.14-3.05-10.18-6.3-15.47-9.08-1.42-.74-3.57-.09-5.39-.07.57,1.6.66,3.92,1.79,4.68,8.46,5.66,17.12,11,25.89,16.57l5.72-1.81C1028.5,1654.3,1028.09,1652.41,1026.92,1651.58Z"/><path class="cls-2" d="M1308.61,977.92c1.65.32,3.34,1,5,.84a4.45,4.45,0,0,0,3.25-2.12c.31-.85-.61-2.76-1.53-3.38-7.79-5.24-15.64-10.37-23.62-15.3-1.08-.67-3,0-4.47,0,.4,1.53.3,3.63,1.28,4.49,6.33,5.57,12.9,10.87,19.39,16.25Z"/><path class="cls-2" d="M1319,931.13c.69,1.56,1,3.47,2.12,4.63a51.43,51.43,0,0,0,8.34,7.35,90.07,90.07,0,0,0,13.43,7.41c1.31.58,3.53-.91,5.34-1.45-.87-1.45-1.4-3.43-2.68-4.26-7.19-4.66-14.55-9-22.73-14Z"/><path class="cls-2" d="M906.68,1598.51c-.92-.42-2.35.28-3.54.47.4,1,.5,2.4,1.23,2.93,8.93,6.46,18,12.8,26.37,18.77l5.09-.07c-.41-1.43-.36-3.49-1.3-4.18-6.44-4.63-13-9-19.68-13.37A59.88,59.88,0,0,0,906.68,1598.51Z"/><path class="cls-2" d="M1348.53,1142.75c-6.75-4.25-13.73-8.15-20.75-11.93-.84-.45-2.65.26-3.61,1-.44.33-.36,2.47.19,2.9,6.45,5,13,9.94,20.2,15.32,2.09-.79,4.43-1.1,5.7-2.43C1350.82,1147,1349.74,1143.51,1348.53,1142.75Z"/><path class="cls-2" d="M1342.24,1157.77c-4.2-3.3-8.94-5.91-14.15-9.21l-6.57,1.58c1.07,1.79,1.76,4.1,3.31,5.28a94.22,94.22,0,0,0,12.79,8.3c1.55.83,4,.06,6,0C1343.19,1161.69,1343.49,1158.75,1342.24,1157.77Z"/><path class="cls-2" d="M1335,1102.59c.31,1.3.18,3.1,1,3.81,4.7,4.07,9.63,7.88,15.09,12.27l6.75-2.73c-1.15-1.68-2-3.9-3.53-4.93a166,166,0,0,0-14.9-8.51C1338.24,1101.9,1336.46,1102.52,1335,1102.59Z"/><path class="cls-2" d="M760.42,1522.5a127.15,127.15,0,0,0-14.11-8,4.1,4.1,0,0,0-3.78.71c-.6.62-.47,3,.22,3.63,3.6,3.56,7.48,6.85,10.77,9.79a30.84,30.84,0,0,0,4.37.25c1.82-.21,3.62-.64,5.43-1C762.38,1526.05,761.92,1523.51,760.42,1522.5Z"/><path class="cls-2" d="M861.06,870.27c4.94,3.72,10.23,7,15.34,10.34l6.64-.09c-1.23-1.66-2.16-3.71-3.73-4.93q-7-5.48-14.57-10.33c-1-.65-2.88,0-4.35.08C860.58,867,860.13,869.57,861.06,870.27Z"/><path class="cls-2" d="M923.05,866.75c-6.26-4.47-12.59-8.84-19-13-.81-.53-2.45.22-3.71.38.22,1.29,0,3.2.73,3.76,5.93,4.4,12.05,8.54,18.31,12.9l4.65-1C923.69,868.73,923.73,867.23,923.05,866.75Z"/><path class="cls-2" d="M784.27,1035.43c-1.3-1.59-2.29-3.72-3.95-4.67-4.67-2.69-9.57-5-14.48-7.25a73.19,73.19,0,0,0-9.58-3.41c-.73-.21-1.79.7-2.69,1.09.45.66.77,1.61,1.39,1.93,7.88,3.94,15.79,7.78,24.12,11.86Z"/><path class="cls-2" d="M1329.33,984.91c-.48.38,0,2.94.76,3.68a85.47,85.47,0,0,0,10.45,8.57c1.41.94,3.81.68,5.71.51a3.34,3.34,0,0,0,2.43-1.95,3.4,3.4,0,0,0-1.42-2.7c-4.4-3.08-8.92-6-13.88-9.28C1332.13,984,1330.39,984.05,1329.33,984.91Z"/><path class="cls-2" d="M1230.61,1288c-.81-.38-2.06.17-3.11.28.16,1-.06,2.44.52,2.92,4.39,3.61,8.94,7,13.3,10.42a15.59,15.59,0,0,0,3.67.23,48.65,48.65,0,0,0,5.21-1.57c-1.16-1.4-2-3.28-3.53-4.11C1241.43,1293.2,1236,1290.55,1230.61,1288Z"/><path class="cls-2" d="M1067.93,747.75c3.79,3.39,7.91,6.42,12.77,10.27l5.38-1.81c-.79-1.59-1.18-3.7-2.44-4.68a101.32,101.32,0,0,0-12-8c-1.32-.75-3.39-.15-5.12-.16C1067,744.85,1066.94,746.86,1067.93,747.75Z"/><path class="cls-2" d="M903.4,820.75c7.06,5.6,14.19,11.12,21.06,16.48l4.72-.64c-.27-.69-.34-1.65-.84-2q-11.45-8.25-23.05-16.29c-.58-.4-1.83.16-2.76.28C902.81,819.31,902.87,820.32,903.4,820.75Z"/><path class="cls-2" d="M1263,831.68a3.47,3.47,0,0,0-1.3-2.79c-3.4-2.54-7-4.88-10.51-7.31-2.05-.28-4.05-.92-5.88-.6-.69.13-1.58,3.56-1.38,3.67q8.11,4.47,16.52,8.41A3,3,0,0,0,1263,831.68Z"/><path class="cls-2" d="M1109.69,731.94c6,4.78,12,9.45,18.23,13.9.63.45,2.42-.74,4.67-1.5a17.24,17.24,0,0,0-2.08-2.38c-5.94-4.48-11.91-8.93-17.94-13.29a2.32,2.32,0,0,0-2.25.24C1109.81,729.79,1109.29,731.62,1109.69,731.94Z"/><path class="cls-2" d="M1263.13,925.12a103,103,0,0,0,7.69,7.63l6.16-.91c-.67-1.86-.89-4.12-2.1-5.51a27.7,27.7,0,0,0-7.18-6c-1.26-.71-3.43.22-5.19.4C1262.68,922.26,1262.34,924.15,1263.13,925.12Z"/><path class="cls-2" d="M1064,1412.54c-.84-1.37-1.38-3.16-2.59-4-4.16-3-8.56-5.63-13-8.51l-4.74,0c.67,1.4,1,3.29,2.07,4.11a116.68,116.68,0,0,0,12.79,8.49C1059.89,1413.4,1062.15,1412.61,1064,1412.54Z"/><path class="cls-2" d="M762.47,1011.33c4.38,2.54,8.9,4.86,13.37,7.25.09-.18.19-.36.29-.54,2.68.91,5.35,1.85,8.06,2.68a1.42,1.42,0,0,0,1.23-.57,1.43,1.43,0,0,0-.26-1.37c-6.95-3.72-13.9-7.43-20.94-11-.7-.34-2,.47-3,.75C761.63,1009.51,761.76,1010.92,762.47,1011.33Z"/><path class="cls-2" d="M1242.07,842c3.46,2.39,7.24,4.33,12,7l3.27-.7c-.42-1.2-.48-2.81-1.32-3.54a86.29,86.29,0,0,0-10.65-8.27c-1-.6-3.22.85-4.88,1.36C1241,839.32,1241.06,841.32,1242.07,842Z"/><path class="cls-2" d="M877.58,841.19c2.78,2.42,6,4.31,9.43,6.67a42.47,42.47,0,0,0,4.56-.58c.18,0,.4-1.9,0-2.24-3.61-3.15-7.25-6.28-11.13-9.08-.7-.51-3.47.26-3.59.82C876.54,838.17,876.67,840.4,877.58,841.19Z"/><path class="cls-2" d="M925.16,812c5.65,3.85,11.43,7.5,17.28,11,.7.42,2-.18,3.07-.3-.27-1-.22-2.4-.86-2.84-5.61-3.93-11.35-7.68-17.71-11.92l-3.1.42C924.26,809.6,924.3,811.38,925.16,812Z"/><path class="cls-2" d="M877,1580.09c-.61-.31-2.15-.14-2.26.16-.32.9-.58,2.45-.09,2.91,3.45,3.25,7.1,6.28,11.11,9.75l6.14-1.64c-1-1.59-1.62-3.74-3-4.68A125.93,125.93,0,0,0,877,1580.09Z"/><path class="cls-2" d="M1322.81,1075.19c-.43-1.51-.42-3.47-1.39-4.45a99.49,99.49,0,0,0-8.3-6.79l-5.32,1.21c.51,1.5.6,3.47,1.63,4.42a38.42,38.42,0,0,0,8.16,5.91C1318.92,1076.18,1321.05,1075.34,1322.81,1075.19Z"/><path class="cls-2" d="M1277.85,866c1.39.73,3.6-.09,5.78-.23-.21-1.53,0-2.71-.47-3-4.38-3.06-8.82-6-13.38-8.84-.43-.26-2.43.86-2.56,1.55-.24,1.2,0,3.11.79,3.77A61.11,61.11,0,0,0,1277.85,866Z"/><path class="cls-2" d="M1322.26,1182.39a78,78,0,0,0-11.09-6.26c-.9-.43-2.47.57-3.73.91.4,1.24.42,3,1.27,3.61,3.39,2.56,7,4.78,11.37,7.64l4.74-1.21C1324,1185.48,1323.57,1183.3,1322.26,1182.39Z"/><path class="cls-2" d="M1235,1313.76c-4.56-3.28-9.25-6.37-14-9.38-.43-.28-1.76.2-2.16.72a2.23,2.23,0,0,0,0,2.2c3.76,3.37,7.64,6.6,11,9.45,2.41,0,3.8.19,5.08-.12C1235.16,1316.57,1235.42,1314.1,1235,1313.76Z"/><path class="cls-2" d="M1050.31,1606.67c-2.32-1.3-6.2-1.49-6,1.69.18,2.83,3.49,5.46,5.92,8.89,3.12-1.5,6.54-2.11,6.87-3.48C1058.37,1608.65,1053.28,1608.32,1050.31,1606.67Z"/><path class="cls-2" d="M1179.29,1404.86c-3.62-1.89-8.63-.26-9,2.9-.2,1.8,1.6,3.82,2,4.67,5.15,1.88,9.91.28,10.45-3C1183,1408.05,1180.89,1405.7,1179.29,1404.86Z"/><path class="cls-2" d="M1085.44,800.58l3.86-.49c-.39-1.41-.33-3.35-1.26-4.15a54.61,54.61,0,0,0-9-6.34c-1-.57-2.88.34-4.35.57.3,1.27.18,3.06,1,3.7C1078.52,796.15,1081.68,798.05,1085.44,800.58Z"/><path class="cls-2" d="M1025.09,779.25c.5.4,2.31-.83,3.62-1.35-.24-1.27-.1-2.4-.57-2.78-3.91-3.11-7.94-6.08-11.94-9.09-.74,1.11-2.3,3-2.12,3.22A144.52,144.52,0,0,0,1025.09,779.25Z"/><path class="cls-2" d="M1036.27,1620.93c-1.24.63-2.61,3.5-2.13,4.5,1,2.07,3.17,3.56,5.51,6,2.28-.9,5.35-1.18,6-2.56C1046.71,1626.44,1038.7,1619.7,1036.27,1620.93Z"/><path class="cls-2" d="M941.31,802.18c5.87,3.9,11.83,7.69,17.72,11.48l3.5.08c-.09-.73.08-1.87-.31-2.11q-9.68-6.09-19.51-11.93c-.5-.29-1.45.17-2.19.29C940.77,800.74,940.79,801.84,941.31,802.18Z"/><path class="cls-2" d="M1102.48,1520.64a23.54,23.54,0,0,0-2.46-1c.89.3.08-.18-.74-.2a31.36,31.36,0,0,0-4,.38,21.59,21.59,0,0,0,1.21,4.36,4.58,4.58,0,0,0,2.52,2.23,42.05,42.05,0,0,0,8,1.35c.43,0,1.58-2.43,1.39-2.6A72.64,72.64,0,0,0,1102.48,1520.64Z"/><path class="cls-2" d="M1349.33,1088c-1.69-.3-3.73,1.36-5.61,2.13a81.1,81.1,0,0,0,6.77,8c.62.58,2.85-.54,3.9-.78C1355.71,1094.24,1352.64,1088.59,1349.33,1088Z"/><path class="cls-2" d="M1033.75,1641.82a3.45,3.45,0,0,0-1.37-1c-3.4-1.85-6.8-3.68-10.25-5.41a5.9,5.9,0,0,0-1.18,1.73c3.12,3.12,6.35,6.14,9.38,9l5.49-.35C1035.14,1644.48,1034.52,1643.1,1033.75,1641.82Z"/><path class="cls-2" d="M1157.47,764.09c.14-1,.47-1.88.25-2.06-3-2.46-6-4.89-9.15-7.09-.22-.14-2.59,2.3-2.54,2.37a54.28,54.28,0,0,0,7.07,7.67C1153.86,765.6,1156.09,764.41,1157.47,764.09Z"/><path class="cls-2" d="M1355.24,1131.36c-2.88-2.23-6-4.18-9.44-6.54-1,.44-2.43.72-3.27,1.55-.34.33.2,2.27.88,2.81a72.7,72.7,0,0,0,8.95,6.28c.74.43,2.58-.45,3.51-1.22C1356.24,1133.93,1355.87,1131.85,1355.24,1131.36Z"/><path class="cls-2" d="M957.71,795.21c4.23,3.19,8.54,6.25,12.83,9.35l.6-.82a10.55,10.55,0,0,0,2.3,1,15.68,15.68,0,0,0,2.91.05c-.54-.84-.89-2-1.66-2.48q-7.47-4.82-15.14-9.32c-.68-.41-1.82,0-2.74,0C957.1,793.75,957.17,794.8,957.71,795.21Z"/><path class="cls-2" d="M853.35,890l5.91-1.62c-.68-1.62-.92-3.9-2.13-4.7-2.41-1.59-5.35-2.4-8.12-3.38-.13,0-1.27,1.64-1.07,2C849.54,884.81,851.36,887.21,853.35,890Z"/><path class="cls-2" d="M1302.63,1194.6c-.51,1.26,2,3.75,3.69,6.61l7.8-2.54c-1.45-1.76-2.67-3.8-4.4-5.23C1307.11,1191.27,1303.91,1191.42,1302.63,1194.6Z"/><path class="cls-2" d="M1216.85,1243.11a54.09,54.09,0,0,0,7.64,2.2c.38.07,1.75-2.19,1.57-2.39a59.47,59.47,0,0,0-4.33-4.19c-2.43-.82-3.49-1.38-4.59-1.49a12.72,12.72,0,0,0-3.13.45,23.41,23.41,0,0,0,1,3.67A3.58,3.58,0,0,0,1216.85,1243.11Z"/><path class="cls-2" d="M793.29,1039.29c2,2.09,3.73,4.45,6,6.13.74.54,2.79-.68,4.23-1.1l-3.85-6.68Z"/><path class="cls-2" d="M1057.62,1593.83c-.17,1.51,1.77,4.27,3.26,4.65s3.67-1.4,5.53-2.23c-.94-1.87-1.88-3.73-3.41-6.74C1060.5,1591.4,1057.77,1592.47,1057.62,1593.83Z"/><path class="cls-2" d="M1114.73,837.64c-.71,4.28,2.79,5.89,5.71,7.42,1.06.56,3-.49,4.48-.81-2-2.81-4-5.62-6.19-8.82C1116.76,836.47,1114.85,836.91,1114.73,837.64Z"/><path class="cls-2" d="M1276.5,1241.54c-2.38-1-4.78-1.94-7.17-2.91a86.57,86.57,0,0,0,6.41,6.44c1.5,1.23,3.51,1.84,5.89,3l3.2-.81c-.69-1-1.16-2.46-2.13-3A47.12,47.12,0,0,0,1276.5,1241.54Z"/><path class="cls-2" d="M1153,1445.24c-2.58-.87-3.41-1.43-4.17-1.34a19,19,0,0,0-3.57,1.09,17.4,17.4,0,0,0,1.64,2.66A4.72,4.72,0,0,0,1149,1449c2.53.73,5.09,1.34,7.66,1.9.15,0,.82-1.17.71-1.29C1155.54,1447.71,1153.64,1445.88,1153,1445.24Z"/><path class="cls-2" d="M1041.28,831.41c-.7,4.09,2.45,5.31,5.52,5.92,1.34.26,2.93-.72,6-1.6-3.71-2.89-6.16-5-8.83-6.66C1043.69,828.86,1041.45,830.45,1041.28,831.41Z"/><path class="cls-2" d="M931.25,859.69c3.74,2.25,5.73,4,8,4.63,1.33.38,3.15-1,4.75-1.51-2.19-1.91-4.22-4.08-6.67-5.57C936.62,856.79,934.74,858.23,931.25,859.69Z"/><path class="cls-2" d="M1078.12,1424.33a85.8,85.8,0,0,0,8.65,4.42,6.82,6.82,0,0,0,1.09-1.68c-2.68-2.33-5.44-4.55-8.23-6.83l-3.4,1C1076.84,1422.31,1077.2,1423.77,1078.12,1424.33Z"/><path class="cls-2" d="M1344,1054.7l5.79-1.79c-1.35-1.94-2.35-4.39-4.17-5.62-1.1-.74-3.48.43-5.29.74C1341.43,1050,1342.54,1052,1344,1054.7Z"/><path class="cls-2" d="M842.81,900.21c1,.3,2.4-.49,4.88-1.09-2-2.83-3.07-5.1-4.83-6.64-.57-.49-3.77.6-4.14,1.58C837.42,897.52,839.88,899.34,842.81,900.21Z"/><path class="cls-2" d="M797.75,977c-2.47-2.78-3.77-5-5.71-6.11-1-.54-3.12,1-4.74,1.6,1.43,1.91,2.61,4.15,4.42,5.59C792.49,978.66,794.59,977.6,797.75,977Z"/><path class="cls-2" d="M1217.67,1326.22c-2.37-.72-4.75-1.39-7.16-2-.17,0-.85,1.13-.79,1.18,1.84,1.66,3.74,3.26,5.63,4.86l.42-.5a6.07,6.07,0,0,0,1.58.65c1.22.12,2.45.09,3.68.12-.65-1.12-1.25-2.28-2-3.35A2.85,2.85,0,0,0,1217.67,1326.22Z"/><path class="cls-2" d="M781.47,993c1.11.9,3.33.41,7,.69-2.21-3.17-3-5.44-4.65-6.33-1.27-.72-3.48.25-5.27.46C779.48,989.62,780,991.87,781.47,993Z"/><path class="cls-2" d="M1115.27,1490.46c1.5,1.72,2.69,4.12,4.58,5,1.57.69,4-.46,6-.79l-3.68-5.14Z"/><path class="cls-2" d="M1068.51,1577.88c-.42.52,1,3.68,1.82,3.82,1.59.24,4.09-.35,4.89-1.5s-.17-3.38-.52-6.69C1071.8,1575.45,1069.77,1576.35,1068.51,1577.88Z"/><path class="cls-2" d="M1304,1207.51c-1.38-.36-3.19,1-4.81,1.57.73,1.67,1.13,4.37,2.29,4.75,1.64.54,3.85-.63,7.35-1.41C1306.45,1209.88,1305.43,1207.88,1304,1207.51Z"/><path class="cls-2" d="M1058.61,1428a65,65,0,0,0-8.18-3.47,3.22,3.22,0,0,0-.81,1.22c2.07,2.15,4.22,4.24,6.26,6.24l4.46-.66C1059.78,1430.18,1059.52,1428.5,1058.61,1428Z"/><path class="cls-2" d="M1185.55,1389.05c1.3,1.57,2.36,3.55,4,4.53.87.51,2.78-.72,5.94-1.7-2.76-2.15-4.17-3.82-5.94-4.41C1188.52,1387.12,1186.91,1388.47,1185.55,1389.05Z"/><path class="cls-2" d="M1089.61,1539c.82,1.55,1.28,3.79,2.56,4.45s3.42-.19,6.61-.54c-1.89-2.09-2.7-3.78-3.89-4.13C1093.28,1538.27,1091.38,1538.84,1089.61,1539Z"/><path class="cls-2" d="M1200.39,1370.6c-1.65-.28-3.48.41-6.43.88,1.92,2.21,3,4.34,4,4.35,1.62,0,3.25-1.43,4.87-2.26C1202,1372.53,1201.34,1370.77,1200.39,1370.6Z"/><path class="cls-2" d="M1314.48,1140.75c-1.57-.07-3.2,1.24-4.81,2,.8,1.17,1.41,3.1,2.42,3.35,1.51.36,3.3-.47,6.09-1C1316.4,1142.87,1315.48,1140.8,1314.48,1140.75Z"/><path class="cls-2" d="M780.16,1005c-1.34-1.08-2.54-2.48-4.06-3.12-1.26-.53-2.9-.17-4.37-.2.91,1.09,1.81,2.19,2.81,3.41Z"/><path class="cls-2" d="M1111.44,1403.1a42.94,42.94,0,0,0,4.27,4.46c.62.5,2,.11,3,.12l-2.46-4.39Z"/><path class="cls-2" d="M750.08,1032.54l2.72,5,4.71-2c-1-1.11-1.76-2.72-3-3.2S751.58,1032.41,750.08,1032.54Z"/><path class="cls-2" d="M1294.4,1226.5a4.19,4.19,0,0,0-3.38,1.65c-.43.71.51,2.25.84,3.42l5.09-1.49C1295.77,1228.34,1295.18,1226.59,1294.4,1226.5Z"/><path class="cls-2" d="M725.33,1139.76a10.11,10.11,0,0,1-2.08-1.14,143.77,143.77,0,0,0-14.44-9.2c-2.42-1.27-5.58-1.15-8.4-1.67,1.91,1.83,3.57,4.07,5.78,5.42,7.71,4.72,15.6,9.16,23.44,13.68a8.83,8.83,0,0,0,7.58.58C733.32,1144.77,729.26,1142.37,725.33,1139.76Z"/><path class="cls-2" d="M711.33,1119c5.68,3.84,11.6,7.36,17.56,10.78,1.65,1,2.32,1.94,2.44,3,1.55,1,3.09,2.06,4.65,3.07a4.72,4.72,0,0,1,2.06-1.2,4.91,4.91,0,0,1,3.47.61c-.11-.08,0-.06.48.23l.84.34a17,17,0,0,0,1.88.57l.15,0,.6.07a6.94,6.94,0,0,0,.79,0l.12,0a.76.76,0,0,0,0-.15v-.44c-.09-.45-.25-.94-.31-1.18s-.11-.36-.17-.55-.21-.36-.15-.32a3,3,0,0,0-.17-.36c-.06-.11-.16-.25-.24-.39s-.13-.17-.2-.24-.39-.43-.59-.63l-.32-.3-.07-.07c-.34-.24-.72-.46-1-.62-.57-.36-1.17-.69-1.79-1l-.24-.11c-.63-.27-.34-.16,0,0l.31.13-.85-.38c-2.56-1.11-5.17-2-7.69-3.24a3.85,3.85,0,0,1-1.71-2.2,6.89,6.89,0,0,1-1.2-.45c-2-1.25-4-2.59-6-3.92-.4-.14-.8-.29-1.2-.41a4.22,4.22,0,0,1-2.42-1.93c-2-1.36-4.09-2.73-6.23-3.94-1.56-.88-4.13,0-6.23.09C709.06,1115.63,709.76,1118,711.33,1119Z"/><path class="cls-2" d="M607.07,1283.7a28.79,28.79,0,0,0,5.74,3.71c5.84,3.26,11.71,6.47,17.55,9.72h0c5.6,1.62,11.2,5.09,13.58,10.65a17.75,17.75,0,0,1,1.29,5.46c.13-.22.27-.42.4-.64.86-1.46,1.39-4.29.58-5.37-4.33-5.78-8.35-12.24-14-16.48-6.74-5.08-15-8.15-23-12.31l-5.19.52C605.06,1280.57,605.76,1282.47,607.07,1283.7Z"/><path class="cls-2" d="M620.5,1304.66a125.74,125.74,0,0,0-14.63-8.76c-1.45-.77-3.59-.25-5.4-.32.9,1.82,1.37,4.16,2.8,5.35a92.26,92.26,0,0,0,10.63,7.26c5.29,3.27,8.19,5.15,9.38,7.2,1.33,1,2.72,1.85,4.05,2.81.07-.07.22-.09.46-.09l.41-.1c.66-.19,1.32-.41,2-.63l1.14-.38h0c0-.29,0-.57,0-.86s.08-.79,0-.91c0,.19,0,.38,0,.57,0-.22-.06-.42-.1-.63a16.2,16.2,0,0,0-.49-1.94,4.35,4.35,0,0,1,2.24-4.89h0"/><path class="cls-2" d="M548.22,1386.19q8.79,5.32,17.71,10.46c3.47,2,7,4,10.58,5.69.78.38,2-.28,3.09-.46-.18-1,0-2.45-.61-2.93-8.43-6.74-17-13.35-25.5-20l-.79,1c-.53-.22-1.11-.7-1.59-.61-2.33.44-5.83.3-6.73,1.73C542.28,1384.5,546.25,1385,548.22,1386.19Z"/><path class="cls-2" d="M616.52,1270.65c12,7.2,24.1,14.2,36.23,21.18.88.51,2.13.4,3.2.58-.41-1.15-.5-2.67-1.3-3.39-9.12-8.13-17.57-17.3-30.08-20.47a40.78,40.78,0,0,0-5.63-2,30.24,30.24,0,0,0-5.4-.23C614.52,1267.77,615.15,1269.83,616.52,1270.65Z"/><path class="cls-2" d="M646,1264.8c.81.36,2-.21,3.1-.35-.18-1,0-2.44-.58-2.9-4.46-3.53-9.08-6.86-13.51-10.15a15.26,15.26,0,0,0-3.68-.15,48.66,48.66,0,0,0-5.17,1.68c1.19,1.37,2.12,3.23,3.61,4C635.07,1259.8,640.52,1262.33,646,1264.8Z"/><path class="cls-2" d="M556.55,1372.25a78.74,78.74,0,0,0,11.23,6c.9.4,2.45-.63,3.7-1-.42-1.22-.48-3-1.34-3.58-3.44-2.49-7.14-4.63-11.53-7.4l-4.71,1.3C554.76,1369.2,555.23,1371.37,556.55,1372.25Z"/><path class="cls-2" d="M641.12,1239.11c4.63,3.17,9.38,6.17,14.18,9.08.44.27,1.76-.23,2.15-.76a2.25,2.25,0,0,0-.07-2.2c-3.84-3.29-7.78-6.44-11.19-9.22-2.41,0-3.81-.11-5.07.22C640.86,1236.3,640.64,1238.78,641.12,1239.11Z"/><path class="cls-2" d="M694.88,1146.87c3.66,1.81,8.64.08,8.91-3.09.16-1.8-1.67-3.78-2.09-4.63-5.19-1.77-9.92-.07-10.39,3.27C691.13,1143.76,693.27,1146.07,694.88,1146.87Z"/><path class="cls-2" d="M575.93,1359.64c.49-1.27-2.08-3.7-3.83-6.53l-7.75,2.69c1.49,1.74,2.75,3.76,4.51,5.15C571.52,1363.07,574.71,1362.84,575.93,1359.64Z"/><path class="cls-2" d="M660.69,1309.36a54.48,54.48,0,0,0-7.69-2c-.38-.06-1.7,2.22-1.52,2.42a57.63,57.63,0,0,0,4.42,4.1c2.44.77,3.51,1.31,4.61,1.39a12.78,12.78,0,0,0,3.13-.51,23.37,23.37,0,0,0-1.11-3.65A3.64,3.64,0,0,0,660.69,1309.36Z"/><path class="cls-2" d="M601.08,1312.17c2.4.93,4.82,1.84,7.22,2.76a88.41,88.41,0,0,0-6.54-6.31c-1.52-1.2-3.54-1.77-6-2.91l-3.18.88c.71,1,1.21,2.43,2.19,3A46.54,46.54,0,0,0,601.08,1312.17Z"/><path class="cls-2" d="M658.14,1226.29c2.38.67,4.78,1.28,7.2,1.81.17,0,.82-1.15.76-1.2-1.87-1.62-3.8-3.18-5.73-4.74l-.4.5a6.27,6.27,0,0,0-1.6-.61c-1.22-.09-2.45,0-3.68,0,.68,1.1,1.3,2.25,2.06,3.3A2.8,2.8,0,0,0,658.14,1226.29Z"/><path class="cls-2" d="M574.3,1346.76c1.38.33,3.17-1,4.78-1.67-.77-1.65-1.22-4.34-2.39-4.7-1.66-.5-3.84.71-7.32,1.56C571.79,1344.44,572.85,1346.42,574.3,1346.76Z"/><path class="cls-2" d="M689,1162.81c-1.33-1.54-2.44-3.5-4.11-4.45-.88-.5-2.76.78-5.91,1.82,2.81,2.09,4.25,3.73,6,4.28C686,1164.79,687.61,1163.42,689,1162.81Z"/><path class="cls-2" d="M674.49,1181.55c1.67.26,3.48-.47,6.42-1-2-2.16-3-4.28-4.08-4.26-1.61,0-3.21,1.5-4.81,2.36C672.84,1179.66,673.54,1181.41,674.49,1181.55Z"/><path class="cls-2" d="M583.5,1327.57a4.16,4.16,0,0,0,3.34-1.72c.42-.71-.56-2.24-.92-3.4l-5,1.6C582.08,1325.77,582.71,1327.5,583.5,1327.57Z"/><path class="cls-2" d="M1387.21,1132.17c-1.52-30.57-1.71-61.21-2.53-91.82-.69-25.44-1.42-50.89-2.36-76.32-1.08-29.14-2.79-58.26-3.45-87.4-.25-11.36-5.82-18.54-14.48-24-18.39-11.7-37-23.11-55.49-34.58-14.62-9.06-29.34-17.93-43.87-27.13-2.42-1.53-6-4.69-5.7-6.47a75.73,75.73,0,0,1,6.27-20c2.11-4.24,4.75-7.94,6.15-12.8,1.75-6,5-11.45,2.63-18a3.79,3.79,0,0,1,.52-2.41c2.75-6.19,6.18-12.16,8.15-18.58,1.55-5,3.18-11.31,1.45-15.73a19.19,19.19,0,0,1,2.53-18.16c6.82-9.66,6.61-20.87,10-31.19,2-5.89,3.11-12,4.85-18,4-13.66,8.67-27.18,5.51-41.8-.31-1.47.28-3.19.67-4.74,1.59-6.32,4.72-12.67,4.5-18.92-.2-5.94,4-13.56-3.75-18.2a1.72,1.72,0,0,1-.23-1.55c4.51-3.28,1.23-8,2.22-12,3.33-13.41,1.25-27.15,1.5-40.73.11-5.83-1.29-11.74-2.42-17.53-.52-2.67-3.64-5.94-2.83-7.56,2.63-5.23,2.39-10.14,1.17-15.48-.92-4-2.09-8.25-1.66-12.23,1-9.41-4.42-17-6.13-25.49-1.27-6.28-7.14-11.83-4.07-18.72,5-11.22.49-22.08-2-32.42-2.14-8.91-2.77-18.91-9.82-26.52-3.31-3.57-4.94-8.7-7.29-13.15-.93-1.76-2.41-3.57-2.46-5.38-.13-4.95-3.57-7.93-5.79-11.69-1.64-2.78-2.51-6-3.65-9.07-.83-2.23-1-4.86-2.63-6.55-6.11-6.19-11.63-12.89-14.4-21.14-3.66-10.89-11-16.9-19.8-21.69-2.63-1.44-6-3.89-6.5-6.4-1.1-5.25-5.51-7.49-8.07-11.31-2.11-3.17-4.58-6.09-9.08-2.93-.7.49-2.58-.29-3.7-.9-2.67-1.43-5.26-3-7.78-4.72-4.21-2.8-8.12-6.14-12.57-8.47-5.06-2.65-10.66-6.41-15.86-6.15-8.58.42-16.41-1.54-24.26-3.77-9.27-2.63-18.18-1.57-26,3.3a74.06,74.06,0,0,1-20.63,8.49c-16.27,4.23-29,13.26-36.14,29.15a27.84,27.84,0,0,1-9.58,11.7c-13.67,9.54-20.23,23.44-23.81,39.28-1.94,8.53-3.54,17.58-7.69,25.07-5.31,9.6-7.93,19.77-6.68,29.81,1.21,9.84-.54,18.55-3,27.61a37.15,37.15,0,0,0-1.54,9.32c-.05,5.62-1.1,11.95,1.06,16.72a44.16,44.16,0,0,1,4,23.24,31.66,31.66,0,0,0,.81,8.47c1.45,8.07,4.09,16.09,4.33,24.19a88.58,88.58,0,0,0,3.78,22.41c3,10.29,7.05,20.31,6.72,31.51-.13,4.41,2.65,9,4.59,13.36,2.4,5.36,5.56,10.38,7.93,15.75,3.18,7.23,4.19,15,5.29,22.72a39.37,39.37,0,0,0,2.61,8.9c2.91,6.4,5.89,12.76,8.85,19.13,2.5,5.41,5.21,10.74,7.45,16.26,1.81,4.47,3.83,9.08,4.37,13.79a42.46,42.46,0,0,0,8.32,21.2c4.09,5.48,9.63,10.55,11.64,16.74,3.2,9.83,5.8,19.69,11.77,28.33.34.48-.67,2.7-1.53,3.11-10.54,5-21.25,9.51-31.73,14.57-15.93,7.68-31.51,16.1-47.6,23.4-17.61,8-36.31,13.66-53.34,22.87a338.39,338.39,0,0,1-41.27,18.65C908.82,777.05,894.68,784.67,880,791c-4,1.72-8.39,5.93-13.35,1.14-.53-.51-2.94,0-3.69.81-2.69,2.82-5.57,5.68-7.42,9.06-3.41,6.2-5.71,13-9.25,19.13-5,8.58-10.86,16.63-16,25.12-6.29,10.43-11.88,21.29-18.38,31.57-7.47,11.8-15.94,23-23.35,34.79-6.65,10.59-12.23,21.86-18.7,32.58-4.27,7.08-9.28,13.72-14,20.52-.39.56-1.22.81-1.85,1.2-.22-.62-.53-1.24-.69-1.87a223.4,223.4,0,0,1-11.65,19.49c-2.36,6.87-11.95,19-14.66,25.65-2,5-73.16,102.89-40.67,64.52l-189,301.94a36,36,0,0,0,12.21,50.07l193,113.95c.24.66.52,1.3.76,2a8.83,8.83,0,0,1,1.45.72c5.49,3.66,11,7.33,16.54,10.87,51.52,32.72,103.14,65.28,154.58,98.14,37.36,23.87,74.49,48.12,111.72,72.2,2.64,1.71,5.78,3,7.79,5.24a18.46,18.46,0,0,0,16.82,6.36c5.66-.82,9.87-4.32,13.38-10.42,14.27-24.78,29.82-48.82,45.11-73,8.25-13,17.13-25.71,25.38-38.77,13.3-21,26.14-42.35,39.49-63.35,11.34-17.83,23.4-35.21,34.67-53.1,16.58-26.31,32.76-52.88,49.06-79.37,9.43-15.33,18.6-30.83,28.18-46.07,18.12-28.79,36.48-57.43,54.67-86.18,12.83-20.27,25.83-40.44,38.23-61,13.69-22.68,26.62-45.81,40.21-68.55C1385.1,1148.74,1387.68,1141.5,1387.21,1132.17ZM1187.73,834.7c-2.9,1.21-5.92,2.17-8.77,3.49-8.45,3.91-14,12.92-12.87,20.42,1.4,8.8,10.25,18.43,18.81,18.93,3.88.22,8.35-1.63,11.78-3.77,5.76-3.59,10.87-8.2,16.32-12.3a12.27,12.27,0,0,1,2.93-1.16c.11,1.34.74,2.91.26,4-7,16-22.92,24.45-39.3,20-5.39-4.56-10.8-9.09-16.13-13.71a7.66,7.66,0,0,1-1.84-2.88c-3-7.45,3-27.57,9.61-32.49,5.89-4.4,12.68-2.53,19.15-2.85.33,0,1,.71,1,1.05A1.75,1.75,0,0,1,1187.73,834.7Zm-1.64,30.81c1,1.27,1.82,2.66,2.72,4l-7,1.12c-2.24-3.22-5-6.35-6.68-10-.82-1.68.24-4.28.45-6.46a57.52,57.52,0,0,1,4.56,4.11C1182.23,860.62,1184.16,863.06,1186.09,865.51Zm54.82-124.44a37.57,37.57,0,0,1,2.64-3.17c.67,1.33,1.75,2.61,1.93,4,1.63,13.17,1.25,26.24-2.27,39.12a25.16,25.16,0,0,1-1.8,4.77,2.52,2.52,0,0,1-2,1.19c-.53-.05-1-1.12-1.41-1.77a1.44,1.44,0,0,1-.21-.82q.4-20.48.85-40.94l1.4,0A9.52,9.52,0,0,1,1240.91,741.07Zm-10.3,72.6h-1.16c-1,2.35-1.9,4.78-3.12,7-.44.81-1.67,1.2-2.55,1.78-.48-1-1.3-1.9-1.39-2.9-.66-7-2.18-14.17-1.4-21.05.6-5.33,4-10.36,6.47-15.41.32-.69,2.14-1.22,3-.93a3.29,3.29,0,0,1,1.42,2.67C1231.52,794.46,1231,804.07,1230.61,813.67Zm-15.43.23c.16,3.6.48,7.2.45,10.8a138.19,138.19,0,0,1-.63,14.54,21.76,21.76,0,0,1-2.6,8c-1,1.76-3.15,2.87-4.78,4.27a41.93,41.93,0,0,1-1-6.13c-.18-7-.16-14-.22-20.93.44,0,.88,0,1.33-.06a5.25,5.25,0,0,1,.27-.82C1209.87,820,1210.15,815.19,1215.18,813.9Zm37.4-59.34c-.69-15.39-1.44-30.78-1.65-46.18-.07-4.76,1.39-9.56,2.35-14.3.18-.91,1.28-1.64,2-2.46.65.78,1.73,1.49,1.89,2.36,1.43,7.57,3.77,15.16,3.77,22.75,0,12.75-1.49,25.49-2.26,36.85-2.25,2.78-3.28,4-4.3,5.31C1253.73,757.44,1252.65,756,1252.58,754.56Zm19.28-52.28-2.89,3.57c-.75-.64-2-1.19-2.17-1.92-2-12.38-4.25-24.74-5.45-37.2-.33-3.44,2.58-7.2,4-10.81,1.44,3.48,3.8,6.87,4.15,10.45C1270.68,678.55,1271.16,690.81,1271.86,702.28Zm6.87-46.68c-1.07,1.86-1.91,3.32-2.74,4.78-1-1.57-2.71-3.09-2.83-4.72-1.08-15.33-3.32-30.67-.54-46,.2-1.13.06-2.45.61-3.35a40.7,40.7,0,0,1,3.66-4.46c1.12,1.43,3,2.76,3.23,4.32,1.35,9.18,4.24,18.06,1,27.79C1278.82,640.75,1279.4,648.55,1278.73,655.6Zm12-45.73a11.41,11.41,0,0,1-1,3.16,20.6,20.6,0,0,1-1.88-2.62c-6.25-12.34-6.15-26-7.94-39.27-.34-2.44,1.8-5.25,2.92-7.82.27-.63,1.06-1,1.69-1.64.81.78,1.69,1.26,2,2,1.49,3.67,3.85,7.35,4,11.12C1291.08,586.46,1290.8,598.17,1290.75,609.87Zm7.7-57.51c.49,2.38-.54,5.06-.92,8-.74.79-1.59,2.48-2.55,2.54s-2.63-1.22-3.07-2.29c-5.49-13.58-10.05-27.35-6.92-42.32.3-1.47,1.55-2.75,2.36-4.13,1.1,1.1,2.9,2,3.21,3.31C1293.38,529.06,1296.08,540.68,1298.45,552.36ZM1297,488.88c1.51,5.7,1.92,11.73,2.42,17.65.1,1.22-1.58,2.59-2.45,3.89-1-.83-2.73-1.49-3-2.53-3.39-13.36-6.68-26.76-9.7-40.22-.35-1.55,1.06-3.49,2.06-6.46,1.59,2.44,2.42,3.31,2.78,4.33C1291.8,473.29,1294.84,481,1297,488.88Zm1.85-30.26c.08,2,.24,3.95.42,6.9-1.32-.27-2.63-.14-3-.67-7.85-11.49-15-23.35-16.89-37.49-.23-1.66,1-3.51,1.53-5.28,1.27,1,2.94,1.8,3.77,3.1C1291.18,435.54,1298.27,445.7,1298.81,458.62Zm-10.41-46.86a18.63,18.63,0,0,1,.2,3.34c-1.36-.25-3,0-3.51-.7-7.35-8.75-14.13-17.89-16.59-29.37-.29-1.35.82-3,1.28-4.51,1.15.67,2.61,1.09,3.39,2.05A83.42,83.42,0,0,1,1288.4,411.76ZM1279,366.88a23.06,23.06,0,0,1,.06,6c-.15,2.77-2.21,4.12-3.79,1.92-7.59-10.55-17.42-20.09-17.34-34.46,0-1.75,1.19-3.49,2-5.75a43.09,43.09,0,0,1,4.56,3.57A60.65,60.65,0,0,1,1279,366.88Zm-16.12-45.77a15.26,15.26,0,0,1,.68,3.95,22.48,22.48,0,0,1-4.36-1.22c-9.44-4.74-16.25-12.29-21.93-21a26.14,26.14,0,0,1-2.73-5.31c-.35-.93.06-2.13.12-3.21l1.4.16C1249,300.94,1257.45,309.58,1262.85,321.11Zm-50.92-66.45c14.31,5.06,23.8,15.21,30.11,28.65.56,1.17.47,2.64.68,4-1.54-.05-3.42.47-4.58-.22-10-6-20.08-12-29.84-18.39-2.49-1.63-4.37-4.57-5.82-7.29-.93-1.73-1.44-4.77-.52-6.1s3.83-1.68,5.92-1.89C1209.17,253.27,1210.57,254.21,1211.93,254.66ZM1178.69,230c11.46-.76,21.89,2.43,29.71,11.67,2.11,2.49,1.94,4.43-1.46,4.53-9.93.32-20,1.95-29.71-1.54-5.14-1.88-10.32-3.69-12.21-9.66C1169.57,233.29,1174,230.35,1178.69,230ZM1169,220c1.35.31,2.34,2.19,3.5,3.34a20,20,0,0,1-3.37,2.44c-7.81,3.54-15.67,7-23.51,10.42-5.91,2.62-11.94,4.14-19.78,1.4l-2.7-2.07c1-1.26,1.83-2.81,3.11-3.71,4.69-3.29,9.32-6.76,14.37-9.42C1149.6,217.71,1159.29,217.81,1169,220Zm-40.72-6.48a6.73,6.73,0,0,1,3.37-.44c2.4.41,4.75,1.11,7.12,1.7a62.69,62.69,0,0,1-5,4.36c-10.08,7-20.39,13.68-28.32,23.3a22.16,22.16,0,0,1-5.19,4.45,25.7,25.7,0,0,1-5.13,2c0-1.85-.13-3.7-.11-5.55a4.76,4.76,0,0,1,.46-1.45C1101.82,227,1114,219.09,1128.25,213.56Zm-38.65,50.26c.21-1.3,2.16-3.07,3.54-3.33,8.3-1.55,13.87-7.52,20.52-11.8,2.1-1.36,5.48-2.28,7.73-1.61,10.4,3.11,20.49,1.25,30.49-1.27,3.69-.93,6.13-1,9.15,1.89a32.56,32.56,0,0,0,19,8.72c7.37.94,13.32,3.36,15.53,11.9,2.78,10.69,12.86,15.31,20.72,21.38,4.62,3.58,7.82,7.3,8.9,12.85s4.2,9.79,8.6,13.37c3.94,3.2,8.34,6.41,10.87,10.62a21.12,21.12,0,0,1,2.63,13.06c-1.26,8.38,2.37,15,6.1,21.46,5.12,8.9,6.6,18.34,6.47,28.31a13.45,13.45,0,0,0,1.28,5.4c2.62,6,5.49,11.84,8.15,17.8.55,1.24,1.11,2.86.78,4.05-3.11,11,.61,21.06,4.11,31.24,1.07,3.12,2,7.23.89,10a30.14,30.14,0,0,0-.71,21,61.06,61.06,0,0,1,.1,36.73c-2.56,8.29-1.26,16.33-.68,24.52.24,3.39.19,6.8.27,10.1-6.2,7.25-7.3,15.61-6.76,24.37a23.51,23.51,0,0,0,.72,5.83c2.12,6.6.59,12.53-3.28,17.88-6.94,9.62-8.29,20.2-6.61,31.67,1,6.64,1.9,13.09-4,19.05-5.46,5.48-4,13.85-4.63,21.08-.45,5.58-2.34,10.24-5,15.2-5.37,10.1-8.65,21.07-7.59,32.81a17.89,17.89,0,0,1-3.11,12.12c-1.94,2.94-2.72,6.76-3.53,10.3-1.68,7.36-3,14.8-4.68,22.15-.12.55-2.66,1.29-3.39.83-8.24-5.16-16.35-10.54-24.49-15.86-6-3.92-11.65-8.55-18.05-11.62-9.67-4.64-16.37-11.51-18.92-21.79-2.37-9.6-8.15-17.18-13.06-25.38-4.62-7.74-8.34-16-12.46-24.09-.13-.25-.15-.59-.34-.78-15.58-15-19.4-36.85-31.69-53.85-4.19-5.8-5.2-13.79-8.34-20.46-3.48-7.4-7.78-14.42-11.64-21.65-1.17-2.19-2.79-4.47-3-6.79a68.82,68.82,0,0,0-10.1-32.34,53.32,53.32,0,0,1-8.59-25.06c-.68-7.89-3.63-15.24-7.34-22.51-2.37-4.65-1.53-11.1-1.57-16.75-.08-10.14-1.82-19.68-7.61-28.3-1.36-2-3-5.26-2.31-7,3.07-7.25,1.86-14.71,1.8-22a45.87,45.87,0,0,0-3-15c-3.21-8.8-4.94-17.16-1.46-26.54,2-5.42,1.33-11.8,2.26-17.68.57-3.54,1.15-7.46,3-10.35,7.35-11.27,14.82-22.31,16.55-36.22.27-2.13,3.2-4.94,5.45-5.63,5.81-1.76,9.45-4.35,12.09-10.49C1082.49,278.09,1088.26,272.07,1089.6,263.82Zm54.08,448.49c-1.29-.09-2.76.2-3.83-.33-14.67-7.28-25.38-18.75-33.82-32.52-.69-1.12-.73-2.63-1.08-4l3.5.26c14.55,8.07,27.86,16.8,34.56,32.51A17.06,17.06,0,0,1,1143.68,712.31Zm-61-479.59a6.7,6.7,0,0,1,2.42-2.37c3.72-1.9,7.53-3.62,11.31-5.41-1.78,3.34-3.64,6.65-5.33,10-4.94,9.91-9.64,20-14.79,29.75a144.25,144.25,0,0,1-9.55,15.06c-.84,1.21-2.84,1.61-4.31,2.37-.29-1.53-1-3.12-.8-4.57.67-4.5,1.7-8.93,2.59-13.4l-.9-.6Q1073,248.14,1082.73,232.72Zm-38.37,40.37a16.36,16.36,0,0,1,3.49-3.74c.42-.32,2.49.49,2.53.9.72,8.16,1.5,16.33,1.7,24.5.09,3.62-1.07,7.27-1.61,10.57-2.94,5.48-5.58,10.54-8.38,15.52a3.83,3.83,0,0,1-2.48,1.92c-.7,0-1.89-1.26-2.08-2.14C1033.74,303.92,1034,287.75,1044.36,273.09ZM1024,327.28c.33-1.18,1.41-2.15,2.14-3.21.84,1,2.23,1.95,2.44,3.09,2.33,12.72,4.87,25.46,2.26,38.55l-2.47,3.11c-.73-.77-1.79-1.42-2.15-2.33A61,61,0,0,1,1024,327.28Zm-4.3,46c-.34.52,0-.57.61-.76a2.39,2.39,0,0,1,2.05,1.07c5.27,11.67,12.05,22.83,13.24,35.95.28,3.05-.66,6.22-1.19,9.32-.45,2.58-2.26,4-3.88,1.41C1021.76,406.33,1013.81,392.06,1019.68,373.29Zm2.2,62.49a74.27,74.27,0,0,1-1.1-11.09,2.89,2.89,0,0,1,.92-2.2,2.12,2.12,0,0,1,2.1.32c8.46,12.76,15.71,26,16,41.87a17.19,17.19,0,0,1-.46,2.49c-1.48-.81-3-1.22-3.93-2.23C1028.07,456.57,1024.27,446.45,1021.88,435.78Zm10.9,51.09c-2.27-4.45-3-9.7-4.14-14.65-.07-.3,2.5-1.9,3.09-1.56,7,3.94,18.4,27.45,17.3,35.29,0,.28-.06.57-.18,1.91-1.27-.25-3.06-.08-3.53-.79C1041,500.45,1036.36,493.92,1032.78,486.87Zm4.59,27.09a11.72,11.72,0,0,1,.53-3.93,10,10,0,0,1,1.76,0,18.57,18.57,0,0,1,2.2,2.36c5.72,8.53,11.49,17,17,25.67a29.47,29.47,0,0,1,3.63,8.59c.55,2.2,0,4.67-.08,7-1.86-1.18-4.78-2-5.42-3.61C1052,537.19,1039.55,528.32,1037.37,514Zm27.51,67c-.46-3-4.15-5.31-5.74-8.28a132.89,132.89,0,0,1-6.18-13.84c-.23-.55,1.09-1.72,1.7-2.62a18.8,18.8,0,0,1,2,1.51c9.22,9.58,19.4,18.49,23,32.06.39,1.45,0,3.12-.07,4.69a37.22,37.22,0,0,1-3.89-1.5C1070.67,590.38,1065.93,587.8,1064.88,581Zm13.66,39.15c-2.76-4.3-3.38-10-4.93-15a8.37,8.37,0,0,1-.15-1.67c.78.12,1.74,0,2.3.39,11.7,8.5,22,18.34,28.61,31.43.66,1.29.41,3,.58,4.59l-3.4-.21C1090.55,635.49,1083.8,628.36,1078.54,620.14Zm20.76,35.36c-.75-2.21-3.25-3.81-4.93-5.72a81.19,81.19,0,0,1-6.06-7.08c-.79-1.13-.63-2.91-.9-4.4a34.2,34.2,0,0,1,3.79,1.61c11.63,6.66,23.27,13.35,30.54,25.27a83.39,83.39,0,0,1,4.79,9c.5,1.12.17,2.61.22,3.93l-3.66-.22C1113.41,671.87,1103.26,667.11,1099.3,655.5Zm255.9,499.2c-15.49,25.1-31.14,50.11-46.7,75.17-11.15,18-22.15,36-33.4,53.91-12.66,20.13-25.66,40-38.26,60.2-12.74,20.41-25.06,41.09-37.79,61.52-12.42,19.92-25.19,39.62-37.67,59.51-17,27.17-33.89,54.46-50.93,81.63-14.61,23.31-29.41,46.49-44,69.79q-25.15,40-50.16,80.17a9.67,9.67,0,0,1-13.3,3.1c-25.74-16-51.36-32.09-77.21-47.87-10.4-6.34-21.44-11.62-31.86-17.93-9.75-5.92-18.77-13-28.62-18.75-10.9-6.32-22.18-12.29-32.66-19-9.36-6-19.86-10.1-28.47-17.41-5.87-5-12.54-8.89-19.24-12.68-11.77-6.65-20.67-17.75-34.41-21.46-3.16-.85-5.28-5-8.29-7-9-6-18.11-11.88-27.22-17.75a5.35,5.35,0,0,1-.86-.27c-8.44-4.06-16.9-8.09-25.15-12.53,0,0,0,.08-.05.13l-2.45-1.45c-.74-.41-1.52-.76-2.25-1.18-2.41-1.39-4.82-2.85-7.19-4.39L520.7,1407.8a14.08,14.08,0,0,1-4.77-19.58l217.81-348-.64-.39c.22-.44.51-.83.72-1.27,5.43-11.61,16.33-27.08,20.43-32.75,8-11.08,16.86-21.8,23.21-33.81,9.92-18.75,22.48-35.65,34-53.28,20.8-31.81,41.55-63.65,62.61-95.29a25.81,25.81,0,0,1,10.52-9.07c25-11.7,50.34-22.77,75.4-34.39,28.09-13,56-26.49,84-39.66,17.1-8,34.35-15.73,51.41-23.82,4.66-2.21,8.22-1.92,12.62,1,16.13,10.87,32.45,21.5,49,31.75,14.1,8.74,28.61,16.83,42.91,25.26,2.71,1.59,5.32,3.36,7.88,5.18,4.67,3.33,5.73,8.18,2.42,12.82-.6.84-3.62,1-4.78.23-8.21-5.2-16.24-10.7-24.3-16.13-1-.63-1.69-1.81-2.7-2.08-1.9-.51-4.74-1.47-5.76-.59-2.4,2.09-.41,3.94,1.63,5.38,8.65,6,17.14,12.32,26,18.1,5.35,3.52,6.18,11.27,1.1,15.24-3.08,2.4-5,1.34-5.91-2.81-.45-2-1.75-3.75-2.66-5.62-1.39,1.68-4,3.38-3.93,5,.12,4.42-1.7,4.11-5.17,4-15.66-.48-29.28,6.8-33.87,22.17-1.8,6-4.13,12-4.87,18.17-3.2,26.71,21.49,46.67,38.69,48.43,20.41,2.08,39.71-8.22,45.23-29.91,1.59-6.26-.31-13.61-1.51-20.31-1.26-7.06.45-12.7,4.13-18.32a112.46,112.46,0,0,0,10.18-18.37c3.92-9.47,3.93-10.83,11.24-6.12,9.11,5.89,17.88,12.3,27,18.2,20.93,13.56,41.78,27.25,63.06,40.25,8.61,5.27,13.15,11.25,13.37,21.9.61,29.18,2.54,58.32,3.55,87.5.87,24.77,1,49.57,1.8,74.35.71,23.18,1.19,46.38,3,69.49C1365.62,1133.58,1361.59,1144.33,1355.2,1154.7Z"/><path class="cls-2" d="M699.4,1490.24c1,.62,2,1.27,3,1.81l.23.11c.66.29,1.32.58,2,.85,1.17.47,2.35.88,3.56,1.25a8.51,8.51,0,0,1,5.14,4.8l6.62,3.18a10,10,0,0,1,5.89,7.08,5.26,5.26,0,0,0,4.9-1c-2.26-2-4.38-4.13-6.8-5.87-5.8-4.19-12-7.87-17.49-12.42a7.19,7.19,0,0,1-2-3.73c-.11,0-.22,0-.33,0a6.84,6.84,0,0,1-2.9-1.12v0l.95.47c-.31-.15-.65-.2-1-.33a9.19,9.19,0,0,1-1.55,4.59Z"/><path class="cls-2" d="M910.57,1316.9c-17.05-2.38-30.2-4.06-42.73-10.86-10.16-5.51-22.66-2.64-34-1.44-3.33.35-6.49,4.66-9.25,7.6-13.7,14.59-24.25,31.47-34.69,48.43-4.93,8-9.91,16-15.48,23.58-5.38,7.32-13.51,9.31-22.23,9.15-2.9,0-7.3-7.52-5.91-9.95,1-1.79,1.83-3.94,3.36-5.17,23.25-18.86,37.12-45.06,54.3-68.7,9.62-13.23,13.25-26.21,10.37-43.54-4.56-27.44,2.22-54.26,17.65-77.88,16.23-24.86,36.45-45.81,63.34-59.57,14-7.16,27.76-14.69,41.61-22.08,30.82-16.43,63.75-24.74,98.22-30.59,48.3-8.2,98-9.58,144.68-26.51a16.31,16.31,0,0,1,6.14-1.11c4.26.19,8.71,1.13,10.24,5.63.91,2.65,1.15,6.5-.13,8.78-7.7,13.61-14.88,27.73-24.34,40.07a130.7,130.7,0,0,0-15.74,26.83c-10.64,23.82-21.64,47.4-30,72.21-9.58,28.31-26,52.29-50.39,70.45-9.2,6.84-17.25,15.22-25.92,22.79-17,14.81-35.94,25.16-59.1,26.08C962.5,1322.2,934.13,1330.23,910.57,1316.9Zm127.3-147.77c-17.66,4-32.35,14.36-47.78,23-7,3.91-15.77,6.13-19.36,14.76,6.69,9.48,16.66,3.8,25,5.38,9.66,1.83,20.58-1.28,34.1,11.45-28.77-3.16-52.36,8-74.7-7.46a7.33,7.33,0,0,0-5.84-.7,114.39,114.39,0,0,0-36.93,23.06c-.72.67,0,4.54,1.07,5.26,9,5.87,19.64,6.77,29.76,9.19,15.23,3.65,30.51,7.06,45.75,10.65,2.47.58,2.73,2.39.8,4.64a5.06,5.06,0,0,1-2.34,1.74,17.3,17.3,0,0,1-6,.75c-25.82-3.53-50.8-12.32-77.29-11.94-3.65,0-7.46-3.2-11-5.25-3.87-2.23-7.8-3-11.82-1-12.21,6.27-23.26,13.76-28.19,28.84a392.16,392.16,0,0,0,62.64,21c24.89,6.12,49.92,3.93,74.82,1.28a69.85,69.85,0,0,0,37.1-15.8c11.31-9.29,22.13-19.2,33.74-28.09,24.2-18.55,38.15-43.69,48.21-71.69,3.52-9.81,8-19.28,12.19-28.84,10.54-24,23.58-46.56,37.76-68.54,2.55-4,7.31-8,2.46-15-41.68,5.46-84.29,7.85-126.46,15.12-24.79,4.28-49.12,9.42-71.65,20.82-21.43,10.84-42.64,22.14-63.73,33.62-26.55,14.45-45.44,36.68-60.26,62.36-10.56,18.28-15.91,37.86-9,62.07,17.43-13.67,33-24.89,41.14-44.22,6.87-16.37,15.13-32.19,23.32-48,5.87-11.3,13.53-21.18,26.51-25.3.25,1.12,1,2.37.62,3.11-2.18,4.63-4.56,9.17-7,13.7-7.34,13.8-15,27.42-21.87,41.48-1.88,3.87-5.15,9.32,1.39,14.16,17.12-4.2,31.76-14.7,47.7-22.12,4.16-1.94,7-7.45,9.68-11.76,12.23-19.39,24.19-38.94,36.29-58.41a7.6,7.6,0,0,1,7.7-3.9l-.52-.74c2.45,5,1.79,9.31-.88,14.5-6.47,12.63-14.68,24.72-17.69,43.1,23-14.15,45.48-21.54,65.09-34.92a224.5,224.5,0,0,0,31.38-25.22c5.82-5.74,12.92-10.23,19.71-14.89,1.34-.92,4.6-.87,5.75.13a5.76,5.76,0,0,1,.19,8.34c-7.22,7.37-14.48,14.83-22.53,21.23-13,10.32-26.62,19.83-40,29.69Z"/><path class="cls-2" d="M1082.05,1171.82c-.41,3.45-2.52,6-5.69,6.32-10.32,1.12-20.7,2.32-31.06,2.33-6.72,0-7.71-5.71-7.43-11.34l-.92.64c15,3,30.57-2.42,45.45,2.86Z"/><path class="cls-2" d="M1082.4,1172.63c.9-3.75,3.79-4.41,6.86-3.84,1.68.31,3.14,1.79,4.7,2.75-1.25,1-2.59,2.8-3.71,2.68-2.79-.32-5.48-1.54-8.2-2.4Z"/><path class="cls-2" d="M996.42,1128.55c.71-5.6,2.42-10.72,6.94-14.5l-.84.6c1.93,6.47-.67,10.65-6.62,13.16Z"/><polygon class="cls-2" points="1003.36 1114.06 1004.71 1115.18 1002.52 1114.65 1003.36 1114.06"/></svg>