<svg width="1678" height="753" viewBox="0 0 1678 753" fill="none" xmlns="http://www.w3.org/2000/svg">
<path opacity="0.81" d="M0.900014 220.2C4.40001 205.9 -3.29999 28.9 7.60001 22.6C24.4 19 45.1 6.2 60.4 11.6C61.6 17.7 90.9 6 104.3 12.7C113.6 19.1 210.6 16.4 267.4 18.7C322.1 20.9 371.9 -6.5 423.7 4.8C439 8.1 454.5 9.3 470 8.8C499.7 7.8 542.7 5.9 571.9 3.8C597.2 2 622.5 2.6 647.7 5.5C735.1 15.5 778.6 22 881.6 18.4C1014.6 -7.4 1096.1 -2.8 1189.2 12.3C1232.9 19.4 1277 20.2 1320.7 14.1C1340.2 11.4 1360.2 11 1387.9 13.5C1403.4 14.9 1418.4 21.4 1433.9 19.2C1757.1 -27.9 1658.6 265.7 1675.2 648.7C1685.5 785.2 1501.7 718 1431.5 718.6C1319.7 739.8 1270.3 731.5 1183.8 718.2C1089.9 712.7 957.1 714.6 865 721.5C791.3 747.4 719.6 743.1 655.9 735C598.9 727.7 541.6 728.2 484.7 736.6C365.4 754.1 172.6 748.7 83 741.3C57.4 727.6 32 740.3 10.1 752.1C-9.49999 733.6 6.60001 257.2 0.900014 220.2Z" fill="#621CA8"/>
</svg>
