<svg xmlns="http://www.w3.org/2000/svg" viewBox="0 0 72.65 70.76"><defs><style>.cls-1{fill:#000;}</style></defs><title>nut-1</title><g id="Calque_2" data-name="Calque 2"><g id="contenu"><path class="cls-1" d="M69,44.6A55.42,55.42,0,0,1,65.64,51a49,49,0,0,1-3,4.06,29.2,29.2,0,0,1-6.88,6.33c-1.06.74-2.1,1.52-3.16,2.28a37.39,37.39,0,0,1-6.22,3.46c-1.13.51-2.25,1-3.39,1.55a27.41,27.41,0,0,1-5.1,1.51c-.48.11-1,.23-1.43.31a20.22,20.22,0,0,1-6.26.06,52.91,52.91,0,0,1-6.48-1.49,42.65,42.65,0,0,1-4.09-1.51c-1.42-.59-2.82-1.24-4.2-1.9a36.6,36.6,0,0,1-4.7-3,32.16,32.16,0,0,1-5.46-5.29,27.51,27.51,0,0,1-2.43-3.15A18.77,18.77,0,0,1,.08,46.3,13.21,13.21,0,0,1,.6,40.75,7.12,7.12,0,0,1,2,38.34a9.23,9.23,0,0,1,2.89-2,17.43,17.43,0,0,1,7-1.91,16.39,16.39,0,0,1,4.07.33A29.84,29.84,0,0,1,21,36.29c1.53.56,3,1.27,4.59,1.72a15.58,15.58,0,0,0,6.92.45,2.59,2.59,0,0,0,1.41-.68,10.6,10.6,0,0,0,2.41-3.6,25.53,25.53,0,0,0,1-3.54c.31-1.17.54-2.36.8-3.55a2.73,2.73,0,0,0,.05-.5,21,21,0,0,0-.08-3.72c-.23-1.37-.43-2.73-.71-4.09a16.18,16.18,0,0,1-.25-4.5,11.16,11.16,0,0,1,1.38-4.76c.62-1,1.37-2,2.08-3,.28-.39.62-.72.93-1.08a14.13,14.13,0,0,1,2.33-1.9,17.34,17.34,0,0,1,1.62-1.06A15.89,15.89,0,0,1,49.79.77a10.84,10.84,0,0,1,5,0,.69.69,0,0,0,.54-.1,5.26,5.26,0,0,1,3-.72,6.86,6.86,0,0,1,3.58,1.3,26.39,26.39,0,0,1,3.69,2.89A12,12,0,0,1,67.72,7a43.75,43.75,0,0,1,3.13,7,32.88,32.88,0,0,1,1.22,5.26,36.62,36.62,0,0,1,.5,8.68c-.12,1.58-.17,3.16-.35,4.73-.15,1.28-.42,2.56-.7,3.83s-.58,2.24-.87,3.36A42,42,0,0,1,69,44.6m-.31-24.73a3.68,3.68,0,0,0-.07-.58c-.33-1.18-.65-2.36-1-3.53-.25-.8-.59-1.56-.89-2.34l0,0,.36.51a1.5,1.5,0,0,0-.16-.52c-.4-.85-.79-1.7-1.21-2.53-.2-.41-.44-.8-.68-1.19a1.25,1.25,0,0,0-.27-.24l-.07.07a2,2,0,0,0,.1.21c.45.93,1,1.83,1.36,2.78A30,30,0,0,1,67.56,17,48.22,48.22,0,0,1,68.76,23s0,0,.08.07c0-.35,0-.66,0-1a1.05,1.05,0,0,1,.15-.3,3.48,3.48,0,0,0-.08-1c-.06-.31-.16-.62-.24-.92ZM45,63.28a2.14,2.14,0,0,0-.43.07l-3.44,1.16a1.51,1.51,0,0,0-.22.11,15.92,15.92,0,0,0,4.08-1.36l.34-.08,0,.07-.45.46A38.46,38.46,0,0,0,60,52.25c-.31.25-.59.54-.89.81-1.18,1.09-2.36,2.19-3.55,3.27A39.77,39.77,0,0,1,50.88,60,36,36,0,0,1,45.3,63a1.77,1.77,0,0,0-.35.26m-3.43-.59.78-.2s0-.08,0-.12l-.74.33a1.33,1.33,0,0,0-.2,0c-.88.22-1.76.44-2.65.64A26,26,0,0,1,30,63.7c-.45-.06-.89-.16-1.34-.25a8.66,8.66,0,0,1,1.35.06,29.58,29.58,0,0,0,6.65-.13,30.78,30.78,0,0,0,6.8-1.76,34.18,34.18,0,0,0,9.37-5.49,40,40,0,0,0,13-19.86,34.6,34.6,0,0,0,1.35-10.52,1.2,1.2,0,0,0-.21-.86.88.88,0,0,1-.11-.4L66,19.08c0-.15,0-.29-.06-.44H66l.25.41a29.26,29.26,0,0,0-3.34-8.3c-.19.17-.31.1-.41-.08s-.34-.57-.52-.86-.31-.52-.47-.78a6.45,6.45,0,0,1,.27,1,1.36,1.36,0,0,0,.32.73,13.14,13.14,0,0,1,1.13,1.76c.64,1.39,1.24,2.81,1.78,4.25a25.7,25.7,0,0,1,1.38,5.74,32.65,32.65,0,0,1-.07,8.94,37,37,0,0,1-3.15,10.44c-.26.56-.51,1.12-.74,1.69-.33.79-.64,1.58-1,2.37a4.25,4.25,0,0,1-.27.46l-.07,0c.17-.45.34-.89.5-1.34l-.07,0a41.19,41.19,0,0,1-4.42,6.16s-.1.11-.09.13c.15.32-.12.46-.26.64a7.28,7.28,0,0,1-.67.69c-1.08.92-2.15,1.83-3.24,2.73a35.26,35.26,0,0,1-4.73,3.32l-1.32.77,0,.07,1.7-.78.06.09c-.53.33-1,.73-1.57,1-1.42.67-2.85,1.3-4.29,1.91a13.23,13.23,0,0,1-3.15.85,3.09,3.09,0,0,1-.53,0,27.55,27.55,0,0,0,4.87-1.79c-.81.24-1.6.54-2.41.78s-1.61.45-2.43.64a10.88,10.88,0,0,1-2.48.32,1.48,1.48,0,0,1,.27-.1l.33-.07a31.83,31.83,0,0,0,10.3-3.76A36.78,36.78,0,0,0,54.83,53a39.25,39.25,0,0,0,6.75-8.84,11,11,0,0,0,1.21-2.84c.07-.3.19-.59.28-.88l.08,0a1.86,1.86,0,0,1,.08.25,1.3,1.3,0,0,0,.15-.28c.33-.83.68-1.66,1-2.5a32,32,0,0,0,1.43-5.52,21.52,21.52,0,0,0,.33-7.16c-.2-1.18-.37-2.37-.56-3.56a1.47,1.47,0,0,0-.08-.28.71.71,0,0,0,0,.38,31.24,31.24,0,0,1,.36,5.72,34.1,34.1,0,0,1-1.62,9.35,38,38,0,0,1-4.55,9.5,36.24,36.24,0,0,1-6.75,7.71A30.88,30.88,0,0,1,43.12,60c-.8.27-1.59.54-2.39.79-.37.11-.75.17-1.13.25a1.5,1.5,0,0,1,.54-.26,31.9,31.9,0,0,0,7.65-3.38,34.3,34.3,0,0,0,8.86-7.55A37.65,37.65,0,0,0,62,41.69a35.88,35.88,0,0,0,3.17-10,32.45,32.45,0,0,0,.16-9c0-.05,0-.1,0-.16l-.13,0,0,1.18h-.11a1.9,1.9,0,0,1-.13-.38c-.09-.77-.17-1.55-.24-2.33a.75.75,0,0,1,0-.45.94.94,0,0,0,0-.8L64.59,19a31.54,31.54,0,0,0-3.92-8.86c-.06-.1-.17-.2-.16-.29,0-.33-.16-.55-.29-.81-.27-.51-.55-1-.82-1.51A4.5,4.5,0,0,1,59.2,7a5.48,5.48,0,0,1,1.34,1.91c.14.3.4.59.23,1,0,0,0,.12.08.18.6,1,1.24,2,1.79,3a26.43,26.43,0,0,1,2.13,5.5c.08.3.09.63.42.82.1,0,.14.23.2.36s.13.29.2.47a.41.41,0,0,0,0-.11,15,15,0,0,0-1.53-4.6,5,5,0,0,1-.43-1,21.52,21.52,0,0,0-1.46-3.25c-.57-1-1.12-2-1.67-3a2.78,2.78,0,0,1-.16-.4l.09,0,.47.45a7.86,7.86,0,0,0-.64-1.18c-.26-.37-.59-.68-.84-1.11.11,0,.16,0,.18,0A29,29,0,0,1,63.4,11a2.41,2.41,0,0,0-.2-.53,4.07,4.07,0,0,1-.43-.86,3.09,3.09,0,0,0-.59-1.12c-.26-.38-.55-.74-.82-1.11l-.2-.31a.18.18,0,0,0,.07,0l.75.66c0-.08,0-.15,0-.27a7.86,7.86,0,0,1,2,2.24c.57.8,1.07,1.65,1.66,2.55a13,13,0,0,0-1.37-2.68c-.37-.56-.84-1.06-1.15-1.65A4.24,4.24,0,0,0,62.1,6.69a6.17,6.17,0,0,1-.46-.43l-.18-.2A.71.71,0,0,1,61.6,6a2.42,2.42,0,0,1,.54.25,15.94,15.94,0,0,1,1.57,1.25A9.94,9.94,0,0,1,66.12,11,2.38,2.38,0,0,0,67,12.06a1.28,1.28,0,0,0-.09-.35,14.34,14.34,0,0,0-3.24-4.8c-.66-.65-1.29-1.35-1.93-2a2.1,2.1,0,0,1-.22-.3.46.46,0,0,1,.33.06c.29.2.59.38.86.6a16.15,16.15,0,0,1,4.42,5.67c.68,1.48,1.22,3,1.9,4.5a28.13,28.13,0,0,1,1.33,4.14A10.15,10.15,0,0,1,70.55,21a40.74,40.74,0,0,1,.37,8.62,6.26,6.26,0,0,0,0,.75c0,.24,0,.47,0,.78.06-.1.08-.12.08-.15a33.75,33.75,0,0,0,.34-8.81,29.53,29.53,0,0,0-1.26-6.31c-.46-1.34-.9-2.68-1.31-4a10.52,10.52,0,0,0-.87-2,22.49,22.49,0,0,0-4.08-5.65,13.44,13.44,0,0,0-3.53-2.51,4.83,4.83,0,0,0-3.45-.23c-.77.23-1.52.53-2.28.8a5.29,5.29,0,0,1-.53.12c.09-.38.09-.38.72-.82l-.28,0c-.76,0-1.53.1-2.3.11A11.63,11.63,0,0,0,46.27,3.4a23.11,23.11,0,0,0-5.42,4.39,10.06,10.06,0,0,0-2.3,4.27,11.29,11.29,0,0,0-.19,3.62c.12,1.75.23,3.49.47,5.22a21,21,0,0,1,.06,3.72,36,36,0,0,1-.69,4.72c-.18,1.06-.5,2.09-.72,3.14a10.44,10.44,0,0,1-3.3,5.89A5,5,0,0,1,32,39.43l-.22.08,0,.1c.61-.09,1.24-.14,1.85-.29A25.93,25.93,0,0,0,39.35,37l.37-.19a.36.36,0,0,1,0,.09A20.81,20.81,0,0,1,35,39.27a13.63,13.63,0,0,0,4.76-2.12c-.07.24-.07.47-.18.57a6,6,0,0,1-1,.7c-.44.27-.91.49-1.36.75a7.27,7.27,0,0,1-2.55.9,16.82,16.82,0,0,1-3.17.26A20.86,20.86,0,0,1,27,39.86a6,6,0,0,1-1.7-.64l.23,0A23.65,23.65,0,0,1,22.19,38a13.92,13.92,0,0,0-2.44-.88c-1.51-.47-3-.92-4.55-1.34a10.93,10.93,0,0,0-5.27-.26l-3.6.78a6.51,6.51,0,0,0-2.64,1.32A6.89,6.89,0,0,0,1,42.15a16.1,16.1,0,0,0,1.78,9.71,26.6,26.6,0,0,0,5.68,7.21,32.42,32.42,0,0,0,7.22,5.13,40.33,40.33,0,0,0,4.4,2c1.18.44,2.33,1,3.53,1.34,1.67.54,3.38,1,5.07,1.46a12.86,12.86,0,0,0,3.64.47,31.66,31.66,0,0,0,5.59-.5,25.44,25.44,0,0,0,5.47-1.74c1.8-.78,3.58-1.64,5.34-2.54a41.17,41.17,0,0,0,6.59-4.22,34.56,34.56,0,0,0,5.64-5.17,43.39,43.39,0,0,0,4.8-6.69,38.07,38.07,0,0,0,1.85-3.8,23.83,23.83,0,0,0,.79-2.29c.47-1.57.89-3.15,1.32-4.72a11,11,0,0,0,.24-1.11c.07-.35.11-.71.16-1.07a.5.5,0,0,0-.14.27c-.45,1.52-.88,3.06-1.37,4.57-.35,1.08-.8,2.12-1.17,3.19a16.6,16.6,0,0,1-1.9,4c-.4.58-.87,1.12-1.27,1.7s-.59.95-.9,1.42a40.63,40.63,0,0,1-9.78,10.14,41.74,41.74,0,0,1-6.36,3.88,51.31,51.31,0,0,1-8.66,3.17,11.31,11.31,0,0,1-1.56.29.68.68,0,0,1-.63-.18l.73-.13.65-.14,0-.08a30.43,30.43,0,0,1-10.47-.21,28.79,28.79,0,0,1-9.69-3.82,37.66,37.66,0,0,0,10.8,3.56c.06-.28-.1-.3-.28-.34l-1.64-.39a.5.5,0,0,1,0-.12,36.2,36.2,0,0,0,4.77.49c-.38-.21-.88-.1-1.2-.51a16.35,16.35,0,0,0,4.19.13l-2.45-.08c1.35-.11,2.7-.18,4-.27a16.36,16.36,0,0,0,3.89-.73c-1.12.13-2.27.27-3.42.38a33.53,33.53,0,0,1-5.11-.16,27.83,27.83,0,0,1-8.48-1.85,40.32,40.32,0,0,1-4.37-2c-1-.55-2.06-1.12-3.06-1.74a10.9,10.9,0,0,1-1.34-1.12c-.08-.07-.1-.19-.16-.32h.15a2.14,2.14,0,0,1,.32.2,35.11,35.11,0,0,0,7.91,4.09c.37.15.76.28,1.14.43.08,0,.24.11.23.14-.08.35.22.31.38.37.39.14.8.25,1.2.36a28.74,28.74,0,0,0,6.31,1.08,29.11,29.11,0,0,0,5.36-.2c.38,0,.76-.13,1.15-.19a1,1,0,0,0-.46,0c-.84,0-1.67.08-2.51.07a2.92,2.92,0,0,1-.85-.2c-.07,0-.12-.11-.19-.19l.13,0h.21a5.34,5.34,0,0,0,2.35-.17,1.19,1.19,0,0,0,.21-.08c-.31-.12-.65,0-.94-.28.38,0,.68,0,1,0a19.51,19.51,0,0,0,4.51-1.08.82.82,0,0,0,.17-.11M55.73,54a15,15,0,0,0,3-2.72c.77-1,1.56-2,2.26-3s1.4-2.19,2-3.32c.35-.64.58-1.36.87-2,0-.12.12-.32.21-.34.24,0,.27-.23.33-.39.54-1.35,1.12-2.68,1.59-4.06a36,36,0,0,0,1.86-9.77,32.37,32.37,0,0,0-.58-7.92,30.92,30.92,0,0,0-3.11-8.69c-.12-.23-.25-.45-.42-.74,0,.35-.11.59.06.87a15.66,15.66,0,0,1,.88,1.67,32.44,32.44,0,0,1,2.53,8.79,33.07,33.07,0,0,1-.07,9.32c-.1.69-.21,1.38-.31,2.07s-.12,1.25-.22,1.87a8.89,8.89,0,0,1-.31,1.07l-.18-.22A40.92,40.92,0,0,1,55.73,54M67.17,35.67h-.11l-.12.39a39.7,39.7,0,0,1-2,5.73c-.66,1.45-1.36,2.88-2.07,4.31-.29.59-.62,1.15-1,1.72-.09.16-.21.38-.34.41s-.35.24-.47.42a41.89,41.89,0,0,1-3.26,4.15,44.18,44.18,0,0,1-4.49,4.27,35.86,35.86,0,0,1-6.63,4.3c-.27.13-.68.15-.71.61,0,.06-.14.13-.23.18-.26.15-.54.29-.8.43l-.25.16,0,.08.3-.15a53.26,53.26,0,0,0,5.75-3.36,39.62,39.62,0,0,0,7.26-6.1,42.91,42.91,0,0,0,7.18-11A20.55,20.55,0,0,0,66.76,38c.16-.78.27-1.56.41-2.34M64.63,11.61l.09,0a11.4,11.4,0,0,1,.6,1.08c.35.83.66,1.69,1,2.53a26.65,26.65,0,0,1,.89,3.49,34.24,34.24,0,0,1,.64,13,13.24,13.24,0,0,0-.25,2.74,8.09,8.09,0,0,1,0,.83,1.55,1.55,0,0,0,.08-.14,35.55,35.55,0,0,0,1-9.69,31.81,31.81,0,0,0-1.11-7.24,32.9,32.9,0,0,0-2.84-7.06c0-.07-.09-.19-.14-.19-.32,0-.32-.3-.44-.49a6.72,6.72,0,0,0-.53-.85c-.37-.47-.77-.92-1.15-1.37l0,0,2.27,3.69c0-.12,0-.22,0-.32m3.45,23.21,0,.07a40.47,40.47,0,0,1-3.48,9.55,8.85,8.85,0,0,0-.38,1,7.61,7.61,0,0,1-1.55,2.67,11,11,0,0,0-1,1.19l-1.33,1.82-.56.75c.11-.05.14-.05.16-.07a23.13,23.13,0,0,0,2.87-3.37,44.59,44.59,0,0,0,4.36-8.81,18.71,18.71,0,0,0,.91-4.77m2-9.35a2.37,2.37,0,0,0-.3,1.1,33.58,33.58,0,0,1-.44,6A45.56,45.56,0,0,1,68,38.13c-.27.91-.48,1.83-.71,2.75a25.26,25.26,0,0,0,1.63-5.06c.21-1.19.37-2.38.55-3.56a3.63,3.63,0,0,1,.13-.57,3,3,0,0,0,.2-.62q.15-2,.24-3.93c0-.52,0-1.05,0-1.67m-1.52,9h.09a35.62,35.62,0,0,0,.71-9.88,4.34,4.34,0,0,0-.11.61.6.6,0,0,1-.09.36c-.2.19-.16.42-.16.66,0,1.2-.08,2.39-.13,3.59,0,.52-.1,1-.13,1.54-.06.9-.1,1.81-.15,2.71l0,.4M59.28,53.7l.1.07c.68-.74,1.39-1.45,2-2.24a38.2,38.2,0,0,0,4.35-7,12.24,12.24,0,0,0,.93-2.69,2.06,2.06,0,0,0-.17.33l-1.57,3.25c-.17.35-.34.7-.5,1.06s-.42.94-.69,1.38-.58.67-.85,1c-1,1.28-1.91,2.58-2.88,3.86-.23.31-.48.61-.73.91M55,55.2,55,55.11A46.51,46.51,0,0,1,49.35,59a51.17,51.17,0,0,1-6.11,3.05,5.15,5.15,0,0,0,.76-.24l3.3-1.34a7.31,7.31,0,0,0,1-.4,33.36,33.36,0,0,0,4.8-3.28c.65-.53,1.27-1.09,1.9-1.63M67.66,41.32A44,44,0,0,1,62.38,51a44.37,44.37,0,0,1-7.5,8.05.08.08,0,0,0,.1,0,2.85,2.85,0,0,0,.33-.25,40.11,40.11,0,0,0,6-6.12,42,42,0,0,0,4.14-6.24,23.37,23.37,0,0,0,2.25-5.12m2-17.2a25,25,0,0,0-.32-4.31,31.84,31.84,0,0,0-1.13-3.92,14.92,14.92,0,0,0,.34,2,34.79,34.79,0,0,1,.92,4.63c.07.54.12,1.07.19,1.6M56.16,57.23c-1.23.94-2.45,1.93-3.73,2.85s-2.61,1.77-4,2.67c1.67-.66,7.08-4.57,7.7-5.52M40,66.6c1.74-.1,7.91-2.49,8.62-3.31A37.56,37.56,0,0,1,40,66.6M69.05,16.71a47.34,47.34,0,0,1,1.36,7.83,24.78,24.78,0,0,0-1.36-7.83m-28.49,49s0,.09,0,.13a18.65,18.65,0,0,0,4.12-1.61,1.7,1.7,0,0,0-.39.09c-.84.29-1.69.57-2.53.87-.42.15-.83.34-1.25.52M69.34,36.46a28,28,0,0,0,1-6.29l-1,6.29M34.2,67.34A36.3,36.3,0,0,1,28.59,67a17.91,17.91,0,0,0,5.61.37M70.62,26.76h-.14l-.09,2.71a10.68,10.68,0,0,0,.23-2.7M41,64s0,.06,0,.09l1.12-.33a.24.24,0,0,1,0-.08L41,64m3.87-3.61,0-.07-.63.29,0,.06.63-.28"/><path class="cls-1" d="M60.34,12.59a18.82,18.82,0,0,1,1.28,2.33l.07,0-2.15-6,.09,0c.09.17.19.33.26.5.64,1.67,1.52,3.23,2.3,4.84a27.55,27.55,0,0,1,2.7,10,31.77,31.77,0,0,1-.74,9.62,35.67,35.67,0,0,1-2.91,8.11,36.84,36.84,0,0,1-3.73,6,35.52,35.52,0,0,1-7,7,30.87,30.87,0,0,1-7.75,4.28c-.44.17-.87.38-1.3.58a18.29,18.29,0,0,1-8,1.79,4.71,4.71,0,0,1-.91-.11,25.82,25.82,0,0,0,5.59-.89l-.36-.14c.38-.1.68-.19,1-.26A31.54,31.54,0,0,0,49.79,55a35.79,35.79,0,0,0,7.79-7.8,36.2,36.2,0,0,0,6.13-13,32,32,0,0,0,.92-8.1,30.19,30.19,0,0,0-.88-6.76,27.73,27.73,0,0,0-2-5.47.3.3,0,0,0-.17-.16c0,.13.06.27.1.4a52.67,52.67,0,0,1,1.6,5.65A31.25,31.25,0,0,1,63.9,30a33.16,33.16,0,0,1-1.53,6.82,36.23,36.23,0,0,1-4.79,9.42,32.23,32.23,0,0,1-3.26,4.1,37.76,37.76,0,0,1-6.26,5.09.23.23,0,0,0-.11.14l.7-.26c-.44.84-3.65,2.58-5,2.72.7-.46,1.48-.77,2.19-1.23a25.51,25.51,0,0,1-11.53,3l.74-.12.75-.09a28.43,28.43,0,0,0,5-1.11,29.74,29.74,0,0,0,6.88-3.27,33,33,0,0,0,8.25-7.42,18,18,0,0,0,2.17-3.72c.12-.26.23-.53.37-.86-.58.87-1.12,1.69-1.67,2.49a26.75,26.75,0,0,1-4.29,5.14c-.76.67-1.6,1.26-2.4,1.89a30.38,30.38,0,0,1-7,4.2A25.51,25.51,0,0,1,36,58.81a21.46,21.46,0,0,1-6.3-.11c-.7-.12-1.4-.27-2.1-.42a.83.83,0,0,1-.41-.2c.21,0,.43.06.64.11a25.43,25.43,0,0,0,11.88-.44,29.31,29.31,0,0,0,11.12-6,29.13,29.13,0,0,0,5.82-6.61c.37-.59.67-1.23,1-1.84a1.52,1.52,0,0,1,.35-.46,5.11,5.11,0,0,1,0,.52,30.78,30.78,0,0,0,2-3.83,32.64,32.64,0,0,0,2.67-9.45,27.43,27.43,0,0,0-.91-11.53.29.29,0,0,0-.11-.15c0,.34.09.67.13,1l-.09,0c0-.16-.1-.32-.14-.49-.24-1-.47-2-.74-3a8.51,8.51,0,0,0-.42-1.05c0-.11-.17-.26.07-.34,0,0,0-.18,0-.26a2.81,2.81,0,0,1-.13-.82c.06.19.12.38.19.57.44,1.36.9,2.71,1.33,4.07a26.31,26.31,0,0,1,1.23,6.7A31.19,31.19,0,0,1,60.7,38.59c-.23.57-.5,1.13-.75,1.69-.05.11-.11.23-.15.34-.16.51-.29,1-.47,1.52s-.4,1-.61,1.43l.1,0c.17-.29.36-.57.53-.87a34.58,34.58,0,0,0,3.93-10.87,29.58,29.58,0,0,0,.35-8.35,3.67,3.67,0,0,0-.08-.75c-.43-1.14-.35-2.39-.72-3.54s-.7-2.3-1.13-3.42-.9-2-1.35-2.92c0-.09-.07-.18-.1-.26l.09-.05"/><path class="cls-1" d="M60.27,19.47a19.46,19.46,0,0,1,.9,4.39,28,28,0,0,1-.42,8A30.06,30.06,0,0,1,57.93,40c-.65,1.27-1.42,2.48-2.16,3.69a20.13,20.13,0,0,1-1.44,2.11,30.71,30.71,0,0,1-2.2,2.36c-.91.88-1.87,1.72-2.8,2.58a6.77,6.77,0,0,0-.51.56,11.25,11.25,0,0,1-2.2,1.93c-.65.47-1.32.93-1.95,1.47.16-.08.33-.14.48-.22A29.79,29.79,0,0,0,50.25,51a29.11,29.11,0,0,0,5.08-5.44c.8-1.14,1.66-2.24,2.35-3.46a34.36,34.36,0,0,0,3.09-7.19,29.86,29.86,0,0,0,1.12-5.63,26.67,26.67,0,0,0-.46-8.5c-.19-.86-.45-1.7-.68-2.55,0-.06,0-.13-.11-.17,0,.23,0,.46,0,.69l-.12,0a.86.86,0,0,0,0-.16,56.25,56.25,0,0,0-2-7.58s0-.08,0-.23a4,4,0,0,1,.28.51c.43,1.3.86,2.6,1.27,3.91.29,1,.52,1.94.83,2.9a27,27,0,0,1,1.28,7.24,29.64,29.64,0,0,1-.73,7.74,34.22,34.22,0,0,1-5.61,12.23c-.59.81-1.14,1.66-1.75,2.46a7.77,7.77,0,0,1-2.1,2,13.91,13.91,0,0,0-1.54,1.35,29.79,29.79,0,0,1-7.3,4.63,25.08,25.08,0,0,1-5.79,1.8,21,21,0,0,1-6.18.26l-.2,0-.14-.09a2.86,2.86,0,0,1,.33,0c1.06,0,2.13,0,3.19,0A20,20,0,0,0,39,56.91,22.07,22.07,0,0,0,41.42,56a25.5,25.5,0,0,0,2.4-1.19c.76-.44,1.48-1,2.2-1.46.45-.32.89-.66,1.31-1a24.22,24.22,0,0,1-10.66,4.09l.57-.14.57-.14a28.64,28.64,0,0,0,4.77-1.57.7.7,0,0,0,.44-.35c0-.1.19-.15.3-.22a25.11,25.11,0,0,0,3.75-2.44l.84-.7a1,1,0,0,1,.39-.21,4,4,0,0,1-1.12,1.28l.06.06c.41-.3.83-.58,1.24-.89a28.84,28.84,0,0,0,5.39-5.31c.55-.7,1-1.49,1.47-2.24.11-.17.19-.36.44-.41.09,0,.17-.18.24-.28a30.84,30.84,0,0,0,3.25-6.56,29.57,29.57,0,0,0,1.67-7.55,26.28,26.28,0,0,0-.41-7.51c-.05-.23-.09-.47-.12-.7s-.09-.69-.14-1"/><path class="cls-1" d="M56.34,2.79,56,3.17c-.39,0-.88.07-1.36.14a10.51,10.51,0,0,0-4.48,1.87,7.58,7.58,0,0,0-2.31,2.34,11.62,11.62,0,0,0-1.17,2.59,25.11,25.11,0,0,0-1,6.94,18.83,18.83,0,0,0,.47,3.82,28.82,28.82,0,0,1,.68,5,11.18,11.18,0,0,1-1.12,5.36,8.72,8.72,0,0,1-1.53,2.14c-.46.48-.95.93-1.42,1.4l-.1-.08.27-.35c.57-.75,1.17-1.47,1.7-2.24A8.92,8.92,0,0,0,46,28.18a13.39,13.39,0,0,0-.1-4.42c-.29-1.47-.56-2.94-.76-4.42A25.21,25.21,0,0,1,44.69,16a21.49,21.49,0,0,1,.52-3.85,12.26,12.26,0,0,1,.86-3,9.33,9.33,0,0,1,3.1-4,14.77,14.77,0,0,1,5.24-2.36A9.72,9.72,0,0,1,56,2.69a1.11,1.11,0,0,1,.31.1"/><path class="cls-1" d="M44.79,10.87c-.17.83-.35,1.57-.47,2.31a24.71,24.71,0,0,0-.07,4.47,2.36,2.36,0,0,0,.1.53,15.5,15.5,0,0,1,.57,3.89,19.68,19.68,0,0,1-.08,3.76,18.17,18.17,0,0,1-1.54,5c-.07.13-.17.24-.25.37l-.08,0c.09-.26.16-.53.25-.79a20.27,20.27,0,0,0,1.21-5.76,11.85,11.85,0,0,0-.2-2.79c-.17-1-.43-1.94-.58-2.92s-.28-2.16-.4-3.24a1.18,1.18,0,0,1,.12-.59c.07.12.14.24.28.44a8.73,8.73,0,0,1,1.14-4.63"/><path class="cls-1" d="M58.73,26.38a5.31,5.31,0,0,1,0,.69,29.44,29.44,0,0,1-1.12,6.85,29.42,29.42,0,0,1-2.76,6.33,29.67,29.67,0,0,1-4.12,5.53,27.28,27.28,0,0,1-7.47,5.68,21.86,21.86,0,0,1-6.53,2.18,7.83,7.83,0,0,1-1.61.09c.72-.14,1.45-.27,2.17-.43a24.85,24.85,0,0,0,9-4,28.9,28.9,0,0,0,8.33-9.17,28.59,28.59,0,0,0,3.83-11.83l.15-1.67a2,2,0,0,1,0-.24h.08"/><path class="cls-1" d="M59.93,25.81c0,1,0,1.9-.08,2.84a29.39,29.39,0,0,1-4,12.34,32.06,32.06,0,0,1-4.49,6c-.53.55-1.09,1.08-1.66,1.59-.91.81-1.81,1.62-2.75,2.39a6,6,0,0,1-1.72.94,14.85,14.85,0,0,0-1.63.85,21.68,21.68,0,0,1-5.85,2,.2.2,0,0,1-.14,0A28.45,28.45,0,0,0,53.53,44a29.76,29.76,0,0,0,6.26-18.22l.14,0"/><path class="cls-1" d="M8.78,36.12c.33-.06.65-.13,1-.18a17.38,17.38,0,0,1,5.57.32,23.41,23.41,0,0,1,5.43,1.68c1,.47,2,1,3,1.48.62.29,1.25.54,1.88.81a.56.56,0,0,0,0,.12c-.55-.15-1.1-.28-1.63-.47-1.2-.43-2.37-.92-3.57-1.33-1.69-.58-3.38-1.18-5.1-1.65A16.88,16.88,0,0,0,10,36.29c-.4,0-.8,0-1.2,0l0-.16"/><path class="cls-1" d="M37.61,52a25.75,25.75,0,0,0,13.28-8.56A28.91,28.91,0,0,0,57.39,29l0,.15a1.11,1.11,0,0,1,0,.17,24,24,0,0,1-1.88,7.1,28.6,28.6,0,0,1-6.1,9.1,25.33,25.33,0,0,1-7.12,5.11,17,17,0,0,1-4.39,1.49l-.24,0a.34.34,0,0,1-.06-.12"/><path class="cls-1" d="M44.32,8.62a13.83,13.83,0,0,0-1.38,4l.17-.09c0,.18,0,.34,0,.5a19.39,19.39,0,0,0,.16,5.38,41.32,41.32,0,0,1,.56,6.38,12.59,12.59,0,0,1-.59,4,9.4,9.4,0,0,1-.57,1.25l-.08,0c.18-.71.36-1.42.53-2.13a10.69,10.69,0,0,0,.3-3c-.11-1.88-.26-3.76-.41-5.64-.11-1.26-.26-2.52-.38-3.79,0-.23,0-.47,0-.71,0-.67.15-1.33.08-2a5.35,5.35,0,0,1,.33-2,13.67,13.67,0,0,1,.75-1.82c.09-.19.2-.41.54-.3"/><path class="cls-1" d="M39.25,50.2a26.38,26.38,0,0,0,8.41-5.14,32.26,32.26,0,0,0,6-7.84l-.3.68c-.11.25-.23.49-.35.72A26.2,26.2,0,0,1,48,45.18a23.23,23.23,0,0,1-6.13,4.21c-.66.31-1.37.55-2.06.81a3.57,3.57,0,0,1-.47.11Z"/><path class="cls-1" d="M8.6,37.15a4.28,4.28,0,0,1,.55-.23,10.26,10.26,0,0,1,3.66-.22,17.42,17.42,0,0,1,4.22,1c.69.23,1.38.48,2,.74a10.66,10.66,0,0,1,1.35.68,7.65,7.65,0,0,1-1.51-.41c-.89-.31-1.79-.62-2.69-.91a12.6,12.6,0,0,0-3.76-.57c-1.12,0-2.25.05-3.38.08H8.65Z"/><path class="cls-1" d="M11.06,56.12a3.14,3.14,0,0,1-.62-.27,26.19,26.19,0,0,1-6.13-6.12A11.31,11.31,0,0,1,3.6,48.4a3.17,3.17,0,0,1-.18-.62l.1,0c.14.24.27.49.41.72a24.49,24.49,0,0,0,5,5.64c.63.55,1.28,1.08,1.91,1.62l.33.31Z"/><path class="cls-1" d="M41.4,28.41a35,35,0,0,0,.15-4c0-1.34-.12-2.67-.22-4s-.33-2.62-.35-4a.72.72,0,0,1,.28.56c.14.88.28,1.76.38,2.65a33.28,33.28,0,0,1,.22,6.23c-.06.73-.22,1.46-.34,2.19a1.78,1.78,0,0,1-.12.29"/><path class="cls-1" d="M10.76,54.64c-.13-.07-.26-.13-.38-.21a20.2,20.2,0,0,1-3.1-2.74A22.07,22.07,0,0,1,4,47.54a7.22,7.22,0,0,1-.41-.78,1.22,1.22,0,0,1-.08-.47,33,33,0,0,0,7.29,8.25l-.08.1"/><path class="cls-1" d="M15,50.44c-2.73-.17-8.62-4-8.86-5.78.17.16.29.27.39.38a17.22,17.22,0,0,0,3.05,2.73,18.19,18.19,0,0,0,3.2,1.71c.75.31,1.48.64,2.22,1"/><path class="cls-1" d="M21,63.53a3.29,3.29,0,0,1-.43-.09,27.24,27.24,0,0,1-4-1.82,17.46,17.46,0,0,1-3.24-2.07c-.24-.19-.45-.43-.68-.65l.06-.08a.66.66,0,0,1,.19.09A46.22,46.22,0,0,0,21,63.39l-.05.14"/><path class="cls-1" d="M17.92,38.94l-.62-.17c-.75-.17-1.5-.35-2.25-.49a13.55,13.55,0,0,0-1.55-.4,23.09,23.09,0,0,0-3.72,0c-.33,0-.65,0-1,0,0,0,0-.08,0-.13a6.14,6.14,0,0,1,.72-.15,17,17,0,0,1,6.27.27c.63.18,1.24.43,1.85.66a1.91,1.91,0,0,1,.33.25Z"/><path class="cls-1" d="M5.1,44.74c.44.5.87,1,1.32,1.51A15.24,15.24,0,0,0,10,49c1.17.67,2.37,1.29,3.56,1.93a.83.83,0,0,1,.33.29,6,6,0,0,1-.82-.26c-1-.52-2.08-1-3.09-1.6A15.15,15.15,0,0,1,6.53,46.8a19,19,0,0,1-1.27-1.55A2.69,2.69,0,0,1,5,44.77l.08,0"/><path class="cls-1" d="M21.94,55.09c-.76-.15-1.53-.28-2.28-.46a35.3,35.3,0,0,1-5-1.63,9.44,9.44,0,0,1-2.47-1.31.36.36,0,0,1-.14-.21c.22.1.45.18.67.29a35.23,35.23,0,0,0,7,2.52c.64.17,1.27.36,1.89.55A3.56,3.56,0,0,1,22,55s0,.05,0,.08"/><path class="cls-1" d="M23.2,60.93a1,1,0,0,1-.71,0c-.56-.18-1.12-.36-1.66-.57a27.8,27.8,0,0,1-6.16-3.16c-.31-.22-.59-.47-.88-.71a.71.71,0,0,1-.13-.17c1.58.9,3.09,1.81,4.65,2.6a34.78,34.78,0,0,0,4.89,2.06"/><path class="cls-1" d="M45.82,7.54c.77-1.9,5.84-5.44,7.39-5.09a1.85,1.85,0,0,1-.31.16A16.23,16.23,0,0,0,47,6.48L45.89,7.59l-.07,0"/><path class="cls-1" d="M45.78,24.87a15,15,0,0,1-.8,5.18,7,7,0,0,1-1.66,2.74l-.11,0a1.28,1.28,0,0,1,.11-.31c.25-.46.53-.91.78-1.38a13.92,13.92,0,0,0,1.22-4.19c.1-.54.17-1.08.26-1.61l.09-.4.11,0"/><path class="cls-1" d="M20.84,64.44c-1.68-.15-7.88-3.56-8.73-5.06a32,32,0,0,0,4.23,2.76c1.48.81,3,1.54,4.5,2.3"/><path class="cls-1" d="M43.77,5.88c-.33.37-.6.7-.9,1a6.89,6.89,0,0,0-1.52,2.58c-.3.74-.58,1.48-1,2.23a1.79,1.79,0,0,1-.07-.51,4.17,4.17,0,0,1,.14-.86,7.66,7.66,0,0,1,2.43-4,5.44,5.44,0,0,1,.55-.39.87.87,0,0,1,.32-.06"/><path class="cls-1" d="M19,56.94a4.93,4.93,0,0,1,.54.19c.83.35,1.65.76,2.5,1.07,1.07.39,2.17.72,3.25,1.08a7.82,7.82,0,0,1,.91.36c-1.27.23-6.16-1.51-7.2-2.7"/><path class="cls-1" d="M42,28.28a51.38,51.38,0,0,0,.05-10.52l.08,0c0,.17.08.33.11.49a26.44,26.44,0,0,1,.35,5.26c-.05,1.28-.16,2.56-.26,3.84a6.74,6.74,0,0,1-.24,1H42"/><path class="cls-1" d="M53.53,14a54.53,54.53,0,0,0,0,9.39l-.09,0a5.18,5.18,0,0,1-.14-.53,26.93,26.93,0,0,1-.3-4.21,21.22,21.22,0,0,1,.3-4.13c0-.19.08-.37.12-.56l.12,0"/><path class="cls-1" d="M52.93,13.64c0,2.81-.44,5.6-.17,8.44-.26-.08-.3-.29-.32-.5,0-.5-.07-1-.08-1.51a36.08,36.08,0,0,1,.43-5.87c0-.14.06-.27.09-.41a.88.88,0,0,1,0-.15"/><path class="cls-1" d="M44.12,8c.06-.13.1-.27.17-.39A12.54,12.54,0,0,1,46.5,5,9.55,9.55,0,0,1,48.66,3.4a1.78,1.78,0,0,1,1.09-.29c-.57.37-1.11.67-1.6,1a15.1,15.1,0,0,0-1.43,1.22c-.45.42-.87.87-1.28,1.32s-.81.94-1.22,1.41L44.12,8"/><path class="cls-1" d="M9.75,56.72c-.19-.12-.39-.24-.58-.38a20.78,20.78,0,0,1-4.64-4.72,1.88,1.88,0,0,1-.47-1.19,32.05,32.05,0,0,0,5.75,6.2Z"/><path class="cls-1" d="M30.23,42a4,4,0,0,1-.57.15,7.8,7.8,0,0,1-2.46-.09,24.51,24.51,0,0,1-4.22-1c-.17-.06-.33-.14-.59-.25a2.53,2.53,0,0,1,.34,0l2.86.6a18.44,18.44,0,0,0,3.85.56l.77,0s0,.07,0,.1"/><path class="cls-1" d="M39.39,17.81c0,.5.06,1,.08,1.5s.06,1.14.07,1.72a1,1,0,0,1-.11.53.52.52,0,0,1-.06-.16c-.21-2.31-.43-4.62-.62-6.93a14,14,0,0,1,0-1.45h.12c0,.17.05.33.06.5.12,1.35.24,2.7.37,4a1.28,1.28,0,0,0,.07.28Z"/><path class="cls-1" d="M42.52,8.44a9.92,9.92,0,0,0-1.45,3.32,16.3,16.3,0,0,0-.47,3.55h-.11a3.06,3.06,0,0,1-.1-.51c0-.71,0-1.42.11-2.12a10.24,10.24,0,0,1,.83-2.93A7.44,7.44,0,0,1,42,8.64a.43.43,0,0,1,.52-.2"/><path class="cls-1" d="M23.51,60.16a1.56,1.56,0,0,1-1-.1,27.29,27.29,0,0,1-4.26-1.85c-.64-.34-1.24-.75-1.85-1.14a1.69,1.69,0,0,1-.36-.39,49.52,49.52,0,0,0,7.5,3.48"/><path class="cls-1" d="M39.62,23.34c.4,1.91-.47,7.26-1.35,8.42.09-.34.17-.69.27-1a23.71,23.71,0,0,0,.76-4.95c.06-.67.15-1.34.23-2,0-.15.06-.29.09-.44"/><path class="cls-1" d="M50.07,17.49c-.53-1.15.46-6.43,1.3-7.28-.27,1.19-.57,2.38-.79,3.58s-.34,2.42-.51,3.7"/><path class="cls-1" d="M51,9.76a16.1,16.1,0,0,0-1,3.38,16.85,16.85,0,0,0-.46,3.48.6.6,0,0,1-.28-.67c.08-.83.15-1.67.29-2.49a11.11,11.11,0,0,1,.89-3A1.39,1.39,0,0,1,51,9.76"/><path class="cls-1" d="M9.35,39.85c1.31-.31,6.89,1.25,8.77,2.34a3.11,3.11,0,0,1-.46-.1A46.24,46.24,0,0,0,9.75,40c-.13,0-.26-.07-.4-.1"/><path class="cls-1" d="M40.82,25.64c.11-2.67-.21-5.33-.3-8a20.53,20.53,0,0,1,.3,8"/><path class="cls-1" d="M51.84,11.13a65.82,65.82,0,0,0-1.17,7.54,1,1,0,0,1-.17-.73c.13-1.25.23-2.5.42-3.74.14-.88.4-1.74.62-2.6a3,3,0,0,1,.21-.49l.09,0"/><path class="cls-1" d="M15.84,42.9l6.9,2.66C21.52,45.62,17.35,44,15.8,43a.25.25,0,0,1,0-.07"/><path class="cls-1" d="M10,53c-1.84-1-5.28-5.31-5.36-6.74A27.56,27.56,0,0,0,10,53"/><path class="cls-1" d="M54.34,14.45c0,1.51-.1,3-.08,4.48s.14,3,.21,4.45c-.6-1.5-.7-7.61-.13-8.93"/><path class="cls-1" d="M27.75,41.42a27.37,27.37,0,0,1-6.62-2,2.77,2.77,0,0,1,1.28.18l5,1.54.38.14,0,.09"/><path class="cls-1" d="M58.33,12.46c.65.73,1.44,5,1.16,6.24-.39-2.08-.77-4.16-1.16-6.24"/><path class="cls-1" d="M24.45,43.17a20.88,20.88,0,0,0,6.4.17c-1.46.73-5.19.66-6.4-.17"/><path class="cls-1" d="M39.68,36.09c-.67.86-4.22,2.37-5.06,2.2.8-.45,1.7-.68,2.53-1.06s1.69-.76,2.53-1.14"/><path class="cls-1" d="M43.68,8.44A12.42,12.42,0,0,0,42,13.29a.68.68,0,0,1-.19-.67,11.8,11.8,0,0,1,.37-1.88,12.36,12.36,0,0,1,.84-1.81.8.8,0,0,1,.63-.49"/><path class="cls-1" d="M42.83,8.68c-.3.8-.66,1.58-.9,2.4s-.37,1.65-.61,2.5a2.46,2.46,0,0,1-.09-.44,6.2,6.2,0,0,1,.43-2.46A15.62,15.62,0,0,1,42.48,9a1.93,1.93,0,0,1,.3-.35s0,0,0,0"/><path class="cls-1" d="M15.68,38.81c.06,0,.12.07.18.06a8,8,0,0,1,2.86.56c.54.16,1.07.39,1.6.6a.62.62,0,0,1,.26.25l-5-1.3c.06-.08.11-.12.15-.17Z"/><path class="cls-1" d="M19.32,47.09l5.92,1.23a15.56,15.56,0,0,1-6-1.13l0-.1"/><path class="cls-1" d="M18,54.84c-1,0-5.36-2-5.84-2.62L18,54.75l0,.09"/><path class="cls-1" d="M15.46,49.57c-1.15,0-5.58-2.36-6-3.16,1,.58,1.93,1.17,2.9,1.68s2,1,3.11,1.48"/><path class="cls-1" d="M15.69,38.81l-1-.07-3.46-.28-.4-.06a.28.28,0,0,1,0-.09c.12,0,.24-.06.36-.07a12.39,12.39,0,0,1,4,.31,2.81,2.81,0,0,1,.52.26Z"/><path class="cls-1" d="M56.74,10.05a46,46,0,0,1,.6,6.12,26.41,26.41,0,0,1-.6-6.12"/><path class="cls-1" d="M27.54,67.66a17.85,17.85,0,0,0,6.42.7,10.35,10.35,0,0,1-6.42-.7"/><path class="cls-1" d="M22.73,46.61a19.35,19.35,0,0,1-5.11-1.81,25.66,25.66,0,0,1,5.11,1.81"/><path class="cls-1" d="M10.54,46.32a33.72,33.72,0,0,0,5.37,2.26c0,.05,0,.09,0,.13a1.67,1.67,0,0,1-.39,0,15.09,15.09,0,0,1-5-2.35"/><path class="cls-1" d="M12,52.58c.84.52,1.58,1,2.36,1.43s1.59.77,2.37,1.18c-1,.07-4.1-1.65-4.73-2.61"/><path class="cls-1" d="M39.39,17.83c0-.15,0-.29,0-.48a14.88,14.88,0,0,1,.7,5.28c0-.2-.1-.41-.13-.61l-.51-3.77c0-.15-.07-.29-.1-.44Z"/><path class="cls-1" d="M58.15,16.79a24.26,24.26,0,0,1-.69-5.15,26.25,26.25,0,0,1,.69,5.15"/><path class="cls-1" d="M38.87,32.53l.88-5.06c.34.84-.23,4-.88,5.06"/><path class="cls-1" d="M43.56,11.84a3.84,3.84,0,0,1,.49-2.42c.17-.39.33-.85.84-1a27.81,27.81,0,0,0-1.33,3.42"/><path class="cls-1" d="M13.37,40l-3.89-.55a3.53,3.53,0,0,1-.5-.16,7.74,7.74,0,0,1,4.39.71"/><path class="cls-1" d="M40.66,8.45c-.54,1.36-1,2.66-1.57,4-.26-.71.77-3.37,1.57-4"/><path class="cls-1" d="M24,49.51a7.68,7.68,0,0,1-4.4-1l4.4,1"/><path class="cls-1" d="M7.61,38.92a9.61,9.61,0,0,1,4.85.14L7.61,39v-.09"/><path class="cls-1" d="M16.58,44,12,42.54A9.05,9.05,0,0,1,16.58,44"/><path class="cls-1" d="M32.66,42.26a16.34,16.34,0,0,1-5.86.59l5.86-.59"/><path class="cls-1" d="M11.47,41.17A7.25,7.25,0,0,1,16,42.51c-.73-.25-1.46-.52-2.21-.74s-1.53-.39-2.35-.6"/><path class="cls-1" d="M22.3,41.28l4.22.94a7.15,7.15,0,0,1-4.22-.94"/><path class="cls-1" d="M39.64,35.18a5.8,5.8,0,0,1-3.41,1.76,2.55,2.55,0,0,1,.37-.29c.32-.17.66-.31,1-.47.55-.26,1.1-.54,1.65-.81l.41-.19"/><path class="cls-1" d="M67.28,10.18A26,26,0,0,0,64.15,6c.93.38,3.08,3.26,3.13,4.15"/><path class="cls-1" d="M49.36,10.08c.11-1.17,1.8-2.85,3.16-3.23a1.24,1.24,0,0,1-.25.26,7.6,7.6,0,0,0-2.73,2.76,1.56,1.56,0,0,1-.18.21"/><path class="cls-1" d="M9.38,58.14a13.45,13.45,0,0,1-3.83-3.87l3.83,3.87"/><path class="cls-1" d="M14.71,40a21.12,21.12,0,0,1,4.86,1.65l-4.92-1.47.06-.18"/><path class="cls-1" d="M53.29,5.46c-.59.36-1.2.67-1.75,1.08s-1,.89-1.62,1.32a1.48,1.48,0,0,1,.18-.38,5.4,5.4,0,0,1,.64-.71,11.73,11.73,0,0,1,2.47-1.44l.08.13"/><path class="cls-1" d="M16.07,55.61a7.3,7.3,0,0,1-4-2.22c.7.44,1.32.86,2,1.22s1.33.67,2,1"/><path class="cls-1" d="M54.94,13.16a7.49,7.49,0,0,1,.23-3.61,15.59,15.59,0,0,1-.23,3.61"/><path class="cls-1" d="M20.94,46.75a10.67,10.67,0,0,1-3.74-1.37,20.68,20.68,0,0,1,3.74,1.37"/><path class="cls-1" d="M7.83,48.85l3.69,2.53c-.67,0-3.11-1.66-3.69-2.53"/><path class="cls-1" d="M42,13.55a11.21,11.21,0,0,1,0,3.22,4.79,4.79,0,0,1,0-3.22"/><path class="cls-1" d="M54.78,8.51c-.2,1.39-.4,2.79-.62,4.26-.31-.53.14-3.49.62-4.26"/><path class="cls-1" d="M2.81,45.06c-.75-.89-.7-3.54,0-4.17a15.93,15.93,0,0,0-.23,2,17.06,17.06,0,0,0,.26,2.14"/><path class="cls-1" d="M15.87,44.58c-1.25-.37-2.54-.56-3.81-1,.58-.24,2.62.32,3.81,1"/><path class="cls-1" d="M25.66,45a6.27,6.27,0,0,1-3.89-.77l3.89.77"/><path class="cls-1" d="M53.61,9.38,54,8.57l.07,0-.93,3.83-.05,0A3.4,3.4,0,0,1,53,12c.08-.6.17-1.2.26-1.8l.33-.82"/><path class="cls-1" d="M56,14.57a14,14,0,0,1-.25-4,21.24,21.24,0,0,1,.25,4"/><path class="cls-1" d="M39.57,32.09l.7-3.7c.3.61,0,2.36-.7,3.7"/><path class="cls-1" d="M53.61,9.38l-.33.82c-.13.36-.25.73-.39,1.14a6,6,0,0,1,1.34-3.73c-.21.49-.4.89-.55,1.3a1.78,1.78,0,0,0-.07.47"/><path class="cls-1" d="M55.75,18.53a16.78,16.78,0,0,1,.12,4,12.65,12.65,0,0,1-.12-4"/><path class="cls-1" d="M5,38.53a3.57,3.57,0,0,1,2.71-.87A11.91,11.91,0,0,1,5,38.53"/><path class="cls-1" d="M49.82,7.44a2.53,2.53,0,0,1,1.94-2,9,9,0,0,0-1.94,2"/><path class="cls-1" d="M40.14,32.27c.17-1,.32-2,.49-3a3.77,3.77,0,0,1-.49,3"/><path class="cls-1" d="M6.88,41.07A9.22,9.22,0,0,1,9,42.54a3.24,3.24,0,0,1-2.16-1.47"/><path class="cls-1" d="M44.39,10.8a3,3,0,0,1,1-2.41,8.18,8.18,0,0,1-1,2.41"/><path class="cls-1" d="M53.38,33.94A5.7,5.7,0,0,1,52.23,37l-.09,0,.66-1.53a6.81,6.81,0,0,1,.58-1.52"/><path class="cls-1" d="M39.45,14.79a5.52,5.52,0,0,1,.61-3.4c-.2,1.13-.4,2.27-.61,3.4"/><path class="cls-1" d="M46.2,45.05l2.37-2.66a6.22,6.22,0,0,1-2.37,2.66"/><path class="cls-1" d="M4.75,41.5l2.32,2.35A4.74,4.74,0,0,1,4.75,41.5"/><path class="cls-1" d="M56.88,19.74A7.18,7.18,0,0,1,57,22.59a6.89,6.89,0,0,1-.14-2.85"/><path class="cls-1" d="M27.43,44.32a12.15,12.15,0,0,1-4.2-.51l4.2.51"/><path class="cls-1" d="M31.35,40.93a6.92,6.92,0,0,1-3.07,0,11.8,11.8,0,0,1,3.07,0"/><path class="cls-1" d="M16.88,40a17.5,17.5,0,0,1,3.68,1.42A25.21,25.21,0,0,1,16.88,40"/><path class="cls-1" d="M55.61,31.38,56,28a6.39,6.39,0,0,1-.34,3.37"/><path class="cls-1" d="M56.34,19.28a11.38,11.38,0,0,1,.19,3.19,13.1,13.1,0,0,1-.19-3.19"/><path class="cls-1" d="M23.68,47l3,.35v.09a10.73,10.73,0,0,1-3-.28l0-.16"/><path class="cls-1" d="M8,43.51a7.76,7.76,0,0,1-2.58-2.15L8,43.51"/><path class="cls-1" d="M39.54,34.4a1.74,1.74,0,0,1-1.76.94c.55-.48,1.23-.56,1.76-.94"/><path class="cls-1" d="M56.9,26.47a6.54,6.54,0,0,1,0-2.34,3.81,3.81,0,0,1,0,2.34"/><path class="cls-1" d="M4.21,44.32a1.82,1.82,0,0,1-.44-2.06c.15.72.29,1.39.44,2.06"/><path class="cls-1" d="M44.63,5.76l-1.47,2a3.1,3.1,0,0,1,1.47-2"/><path class="cls-1" d="M61.26,3.8l-1.87-.92c.43-.21,1.53.29,1.92.82,0,0,0,.07-.05.1"/><path class="cls-1" d="M6.56,41.52,8.77,43a3.46,3.46,0,0,1-2.21-1.47"/><path class="cls-1" d="M5.63,38.76a3.12,3.12,0,0,1,2-.54l0,.1-2,.59-.06-.15"/><path class="cls-1" d="M44,7.16A7.28,7.28,0,0,1,46,4.87L44,7.21l-.08,0"/><path class="cls-1" d="M60.43,4,58.74,3a.61.61,0,0,1,.07-.1,3,3,0,0,1,1.7,1L60.43,4"/><path class="cls-1" d="M13,60.89l2.77,1.82a.61.61,0,0,1-.07.1L13,61a.61.61,0,0,0,.07-.1"/><path class="cls-1" d="M45.08,10.07a1.9,1.9,0,0,1,.58-1.5,2.84,2.84,0,0,1-.58,1.5"/><path class="cls-1" d="M17.88,43l2.1.74a.76.76,0,0,1,0,.11,13.42,13.42,0,0,1-2.11-.71Z"/><path class="cls-1" d="M58.39,19.67a8.16,8.16,0,0,1,.31,2.19h-.12l-.3-2.19h.11"/><path class="cls-1" d="M54.81,26.84a3.8,3.8,0,0,1-.09,1.95,6.7,6.7,0,0,1,.09-1.95"/><path class="cls-1" d="M15.75,47.8a4.53,4.53,0,0,1-1.83-.75,6.79,6.79,0,0,1,1.83.75"/><path class="cls-1" d="M3.24,42.52c0,.57.11,1.13.17,1.7a2.34,2.34,0,0,1-.26-1.71h.09"/><path class="cls-1" d="M19.93,49.5l1.46.35,0,.14a3.94,3.94,0,0,1-1.47-.37.56.56,0,0,0,0-.12"/><path class="cls-1" d="M12.59,44.13a3.46,3.46,0,0,1,1.55.64l-1.59-.51a.65.65,0,0,1,0-.13"/><path class="cls-1" d="M4.38,42.63c.12.27.24.55.37.87-.45-.07-.59-.39-.37-.87"/><path class="cls-1" d="M20.66,43.29l-1.26-.42,0-.12,1.28.38s0,.1-.05.16"/><path class="cls-1" d="M41.27,14.93a1.29,1.29,0,0,1,0,1,1,1,0,0,1,0-1"/><path class="cls-1" d="M68.66,19.85c0,.34.07.69.11,1h-.11L68.18,19l.12,0,.37.87Z"/></g></g></svg>