<svg xmlns="http://www.w3.org/2000/svg" viewBox="0 0 227.92 170.45"><defs><style>.cls-1{fill:#621CA8;}</style></defs><title>oranges-waves</title><g id="Calque_2" data-name="Calque 2"><g id="contenu"><path class="cls-1" d="M170.83,132.37c.21-.53-.22-1.39-1.11-2.62-.44-.6-1-1.36-1.62-2.14L166,124.9l-2.52-3.24c-.42-.57-.83-1.19-1.24-1.85s-.81-1.39-1.21-2.13l-1.21-2.35c-.38-.83-.85-1.61-1.3-2.45a26.51,26.51,0,0,0-3.36-4.45,21.65,21.65,0,0,1-3.36-4.57c-.24-.44-.46-.9-.68-1.36s-.47-.9-.69-1.4c-.48-1-1-2.06-1.45-3.12-.26-.57-.53-1.14-.79-1.72s-.56-1.21-.86-1.83c-.58-1.2-1.12-2.56-1.68-4a35.74,35.74,0,0,0-5.13-9.71,31.87,31.87,0,0,0-10.87-8c-1-.56-2-.94-3-1.42l-1.44-.71c-.46-.21-.91-.43-1.35-.67-.89-.49-1.79-1.09-2.65-1.61l-1.31-.86-.68-.45-.64-.41c-.86-.54-1.79-1.13-2.68-1.63a22.67,22.67,0,0,0-2.72-1.31,15.55,15.55,0,0,0-2.71-.72c-.83-.14-1.65-.25-2.46-.41-3.17-.58-6-1.06-8.2-1.59L99,60.7l-.67-.19-.67-.19-.33-.1L97,60.11c-.36-.14-.76-.26-1.1-.39s-.6-.27-.91-.39a26.27,26.27,0,0,1-2.9-1.63,14,14,0,0,1-3-3A52.13,52.13,0,0,1,85,50.18a133.63,133.63,0,0,1-7.32-12.9c-.84-2.26-1-4.92-1.66-7.67-.17-.69-.36-1.38-.6-2.07a16.81,16.81,0,0,0-.92-2c-.74-1.22-1.46-2.42-2.25-3.61a65.42,65.42,0,0,0-5.1-6.68c-1-1.05-1.93-2.08-3-3a18.56,18.56,0,0,0-3.68-2.4c-1.31-.57-2.54-1.07-3.67-1.52a16.75,16.75,0,0,0-1.68-.58l-1.57-.52c-.49-.18-1-.35-1.41-.54s-.9-.31-1.32-.48a10.81,10.81,0,0,1-2.24-1.2c-.72-.44-1.44-.86-2.14-1.33S45,2.67,44.29,2.31A17.67,17.67,0,0,0,40,.47,14.93,14.93,0,0,0,33.37.3c-1.5.32-2.88.7-4.15,1.05s-2.41.76-3.47,1c-.54.12-1.05.25-1.54.33L22.56,3c-1.11.2-2.17.48-3.2.69-4.1.91-7.55,2.18-10.46,2.5C3.11,7.27-.12,8.71,0,9.43s3.59.53,9.37-.19c2.9-.29,6.35-.86,10.31-1.14,1-.07,2-.16,3.05-.18l1.62-.06c.61,0,1.22,0,1.82,0,1.21,0,2.41-.08,3.56,0a31.3,31.3,0,0,1,3.4.18L35,8.19a23.22,23.22,0,0,1,2.43.51c.47.12,1,.22,1.52.4l1.7.6c1.25.38,2.55,1.05,4.1,1.7a46.24,46.24,0,0,1,4.73,2.69l1.16.75,1.08.86,1.07.86.54.44.49.47,1,1,.9,1c.31.35.61.71.91,1.11s.63.79.94,1.25A45.29,45.29,0,0,1,61,27.42c.53,1,1,2,1.5,3.11s.85,2,1.27,3c.84,2.16,1.69,4.53,2.58,7.13,1.74,5,3.25,9.76,5.44,14.93a55,55,0,0,0,3.72,7.26,33,33,0,0,0,5.15,6.48,3.35,3.35,0,0,0,.85.63l.9.56,1.85,1c.64.28,1.27.59,1.9.85l1.94.71a37.79,37.79,0,0,0,8,1.59c3,.39,6.07.56,9.21.77l2.36.23c.39,0,.79.08,1.19.13a8,8,0,0,1,1.08.24,9.6,9.6,0,0,1,2.15.89,19.94,19.94,0,0,1,2.1,1.3c.69.49,1.38,1,2.06,1.48s1.39,1,2.08,1.43a29.16,29.16,0,0,0,4.35,2.14,20.51,20.51,0,0,1,7.68,5.11c1.91,2.24,2.9,5.07,3.89,7.75.5,1.35,1,2.69,1.6,4s1.16,2.46,1.81,3.62c1.24,2.35,2.53,4.58,3.89,6.66l1.08,1.58,1.13,1.51a16,16,0,0,0,2.41,2.67l2.46,2.2c.39.36.76.72,1.11,1.07s.71.69,1,1.05c1.32,1.43,2.56,2.92,3.87,4.27a36.47,36.47,0,0,0,4.2,3.37l2,1.26c.63.39,1.26.68,1.86,1a29.18,29.18,0,0,0,5.74,2.2C169.83,132.91,170.62,132.9,170.83,132.37Z"/><path class="cls-1" d="M32.77,45.22a39.62,39.62,0,0,0,.76,4.4l.25,1.07.11.53.17.53.61,2.08c.2.68.5,1.36.74,2l.37,1c.12.33.3.65.44,1l.88,1.92,1,1.85a10,10,0,0,1,.42.94,7.89,7.89,0,0,1,.36,1c.23.65.34,1.34.54,2a10.63,10.63,0,0,0,1.68,3.81,15.87,15.87,0,0,0,3.1,2.85c.56.41,1.16.77,1.71,1.17.27.2.54.4.8.61s.55.38.81.58c.52.4,1,.84,1.45,1.28s1,.84,1.43,1.27a10.58,10.58,0,0,0,1.49,1.18l.78.53a4.19,4.19,0,0,0,.84.44c1.13.46,2.18,1,3.39,1.38s2.45.8,3.77,1.13c2.64.69,5.82.17,8.86.76s6,2.43,9.45,3.34c.86.21,1.75.48,2.63.75s1.82.58,2.73.92c1.83.66,3.67,1.44,5.53,2.26s3.88,1.47,5.94,2.31a31.22,31.22,0,0,1,3.07,1.4,18.42,18.42,0,0,1,2.91,1.94,34.89,34.89,0,0,1,5.21,5.36,45.9,45.9,0,0,1,4.34,6.63,28.8,28.8,0,0,1,2.66,7.46c.52,2.44.77,4.72,1.05,6.79.52,4.12,2.06,7.44,2.2,10.24.06,1.41.1,2.62.26,3.7l.18,1.69.38,1.69a29.35,29.35,0,0,0,1.92,7,13.16,13.16,0,0,1,.75,1.75l.3.94a8.83,8.83,0,0,0,.33,1c.26.61.53,1.23.84,1.82.16.29.32.59.5.86s.42.5.66.74l1.4,1.37c.47.45,1,.82,1.54,1.23s1,.82,1.57,1.19,1.09.72,1.62,1.1l.81.55c.27.18.57.31.85.47l1.72.91c.55.34,1.17.54,1.74.82s1.15.56,1.72.86,1.16.53,1.73.81a16.87,16.87,0,0,0,1.72.82c1.18.47,2.32,1.12,3.53,1.48a14.76,14.76,0,0,0,1.84.51c.63.08,1.26.1,1.89.17a18.46,18.46,0,0,1,3.72.64c1.05.4,1.18,4.65-.09,4.47l-2.12-.31-.53-.08-.52-.12-1.05-.25c-.69-.17-1.39-.28-2.08-.43s-1.38-.36-2.08-.49c-1.41-.19-2.81-.48-4.3-.59a16.51,16.51,0,0,1-2.2-.35c-.74-.14-1.48-.29-2.21-.48a16.14,16.14,0,0,1-2.05-.9,15.87,15.87,0,0,1-1.94-1.14,37.39,37.39,0,0,0-3.83-2.35,14.64,14.64,0,0,0-2.19-.85l-2.29-.82a21.16,21.16,0,0,1-2.33-.9,15.72,15.72,0,0,1-2.09-1.27l-1-.72-.92-.79L113.11,156a8.84,8.84,0,0,1-.87-.86l-.83-.91c-.55-.62-1.11-1.22-1.61-1.88a16,16,0,0,1-1.21-2.13,13.38,13.38,0,0,1-.9-2.3c-.48-1.58-1-3.1-1.56-4.61l-.93-2.24-.71-2.33a39.52,39.52,0,0,1-1.17-4.74c-.62-3.22-2.11-6.38-2.86-9.51a26.52,26.52,0,0,0-3.71-8.63c-.86-1.27-1.58-2.64-2.45-4a12.75,12.75,0,0,0-3.24-3.47A14.44,14.44,0,0,0,89,107.25a22,22,0,0,0-2.21-.87c-1.49-.54-3-.92-4.48-1.45a15.36,15.36,0,0,0-4.73-.6,28,28,0,0,1-4.78-.22c-3.06-.55-5.58-3.49-8.87-4s-7.24.83-10.81-.08A21.23,21.23,0,0,1,48,97.82l-1.23-.73c-.41-.23-.82-.48-1.24-.74A25.31,25.31,0,0,0,43,94.94a13.18,13.18,0,0,1-1.35-.69l-1.33-.74a28.73,28.73,0,0,1-2.61-1.58c-.85-.56-1.7-1.14-2.54-1.73s-1.59-1.28-2.38-1.93l-1.2-1-1.18-1c-.78-.68-1.62-1.32-2.4-2a28.15,28.15,0,0,1-4.19-4.67c-.29-.43-.6-.86-.91-1.29l-.47-.64L22,77l-1.74-2.66c-.58-.89-1.05-1.85-1.54-2.79-.23-.48-.47-1-.68-1.44a14.24,14.24,0,0,1-.55-1.5,20.8,20.8,0,0,1-.69-3.13c-.09-1.08-.13-2.17-.14-3.25,0-.54,0-1.07,0-1.61L16.73,59c.05-1.07,0-2.11,0-3.15a36.13,36.13,0,0,1,.36-6.24,43.51,43.51,0,0,1,1.29-6.1,4.68,4.68,0,0,1,3.14-3,9,9,0,0,1,4.74-.13,12.55,12.55,0,0,1,4.38,1.87A4.36,4.36,0,0,1,32.77,45.22Z"/><path class="cls-1" d="M94.33,5.58A3.06,3.06,0,0,1,97,4.23a5.06,5.06,0,0,1,3.1.89,5.87,5.87,0,0,1,1.3,1.29,7.27,7.27,0,0,1,.75,1.39c.18.26.35.53.52.83a48.73,48.73,0,0,0,4.21,6.68,53.86,53.86,0,0,0,5.4,5.69,51.22,51.22,0,0,0,5.7,5.32,45.84,45.84,0,0,0,6.61,4.07c2.34,1.14,5,1.58,7.55,2.47s5.22,1.79,8,2.64,5.6,1.78,8.5,2.78a77.36,77.36,0,0,1,9,3.33c3,1.44,5.53,3.89,8.22,6a42.06,42.06,0,0,1,3.86,3.45l1.72,1.9c.28.32.58.63.85,1l.78,1a56.59,56.59,0,0,1,6.12,8.8c1.67,3.07,3.16,6.09,4.44,9.1s2.43,6,3.6,8.81,2.54,5.49,3.8,8.06c.32.63.6,1.31.92,1.92l.93,1.87c.31.62.66,1.19,1,1.79l.51.89.57.85a52.92,52.92,0,0,0,5.17,6.43c.47.5.93,1,1.38,1.55l1.42,1.54c.46.52,1,1,1.47,1.49a20.88,20.88,0,0,0,1.56,1.41,65.85,65.85,0,0,0,6.88,4.9,65.44,65.44,0,0,0,7.66,3.64,1.35,1.35,0,0,1,.93,1.85,1.68,1.68,0,0,1-2.22.71l-1.89-.73c-.63-.24-1.23-.55-1.85-.83-1.24-.53-2.42-1.18-3.63-1.78-.62-.28-1.19-.64-1.79-.94s-1.22-.61-1.8-1a37.41,37.41,0,0,1-3.45-2.15c-2.25-1.53-4-3.67-6-5.45-.95-.95-2-1.77-3-2.72l-1.47-1.41c-.45-.49-.9-1-1.34-1.52l-.66-.77-.62-.8-1.27-1.6-1.17-1.66a18,18,0,0,1-1.11-1.72c-.35-.59-.67-1.2-1-1.81s-.54-1.28-.81-1.92c-.54-1.27-1-2.61-1.61-3.85-1.2-2.52-2.49-5-3.64-7.65s-2.67-5.08-3.92-7.69-2.34-5.34-3.83-7.86a55.06,55.06,0,0,0-5.15-7.19c-.48-.57-1-1.1-1.49-1.66a21.38,21.38,0,0,0-1.52-1.64l-1.6-1.56c-.57-.48-1.17-.93-1.77-1.38A44.57,44.57,0,0,0,154,47.21a82.48,82.48,0,0,0-8.09-3.08l-.56-.16c.77.4,1.54.78,2.32,1.12a70.34,70.34,0,0,1,8.18,3.77A41.66,41.66,0,0,1,163.28,54l1.6,1.6c.5.56,1,1.15,1.47,1.72.24.29.49.56.72.87l.66.91c.43.62.91,1.2,1.31,1.84a65,65,0,0,1,4,8.06c1.25,2.73,2.1,5.61,3.18,8.4s2.06,5.63,3.17,8.44,2.81,5.38,4.15,8.09c.64,1.37,1.28,2.75,1.88,4.16.34.68.69,1.37,1,2.05.18.34.36.68.55,1s.42.64.64,1c1.71,2.57,4.07,4.63,6.12,6.92,1.06,1.1,2,2.29,3.12,3.39a34,34,0,0,0,3.38,3.19c.6.49,1.25.92,1.88,1.37s1.28.87,2,1.25l2,1.19c.68.37,1.36.73,2,1.12l1,.56,1.05.51c.7.32,1.39.66,2.1,1,1.44.56,2.85,1.16,4.32,1.62a44.45,44.45,0,0,0,8.93,2.19c2.61.27,3.42,3.3.53,3.1a48.85,48.85,0,0,1-8.94-1.8c-1.45-.44-3-.66-4.46-1.08-.75-.19-1.5-.38-2.25-.61s-1.45-.53-2.16-.85c-.35-.16-.7-.33-1-.51l-1-.62c-.65-.44-1.28-.89-1.91-1.35s-1.21-1-1.83-1.45-1.24-.91-1.87-1.35-1.28-.85-1.93-1.25-1.27-.87-1.91-1.3a37.12,37.12,0,0,1-3.67-2.81,67.41,67.41,0,0,1-6.82-6.38c-1.18-1.31-2.24-2.73-3.32-4.14-.52-.72-1-1.46-1.51-2.2s-1-1.49-1.41-2.24a31.15,31.15,0,0,1-2.22-4.72c-.59-1.6-1.2-3.2-1.87-4.71-1.39-3-3.27-5.76-4.52-8.67S169,75.69,167.68,73c-.64-1.36-1.34-2.61-2-3.89l-1.08-1.83c-.34-.62-.76-1.15-1.14-1.73a30.84,30.84,0,0,0-4.95-5.81,31.33,31.33,0,0,0-6.31-4,64.3,64.3,0,0,0-7.41-3.45c-2.67-1-5.58-1.65-8.52-2.61s-5.85-2.31-8.93-3.5a68.52,68.52,0,0,1-9.21-4.5,53.81,53.81,0,0,1-8.36-6.27,53.45,53.45,0,0,1-7.19-7.4A51,51,0,0,1,97,19.47c-1.5-3.06-2.09-6.4-2.9-9.57A5.48,5.48,0,0,1,94.33,5.58Z"/></g></g></svg>