<svg xmlns="http://www.w3.org/2000/svg" viewBox="0 0 160.75 101.4"><defs><style>.cls-1{fill:#fbf9f6;}.cls-2{fill:#000;}</style></defs><title>signature-palais</title><g id="Calque_2" data-name="Calque 2"><g id="contenu"><ellipse class="cls-1" cx="72.77" cy="36.76" rx="72.77" ry="36.76"/><path class="cls-2" d="M31.35,43.71a8.71,8.71,0,0,1-1.61.37,10.23,10.23,0,0,1-1.11.07,6.42,6.42,0,0,1-.72,0,1.38,1.38,0,0,0-.5,0c-.15,0-.23.51-.22,1.46s0,2-.05,3.15a29.9,29.9,0,0,1-.24,3.18c-.13,1-.38,1.5-.76,1.57a.36.36,0,0,1-.25-.07c-.08,0-.13-.06-.16-.21q-.06-3.64-.13-6.62t-.12-6.78c0-2.54-.05-5.12-.05-7.77s0-5.23,0-7.78.07-4.82.13-6.82.17-3.62.31-4.85.3-1.86.49-1.9l.23,0c.13,0,.22.19.26.42a25.53,25.53,0,0,1,.16,2.69c0,1.45.08,3.16.1,5.12s0,4.06,0,6.26,0,4.26,0,6.15,0,3.49,0,4.78,0,2,.05,2.12h.06a85,85,0,0,1,4.09-13.71q1-2.62,2.34-5.19a35.86,35.86,0,0,1,2.88-4.7A18.37,18.37,0,0,1,40.06,11a9.16,9.16,0,0,1,4-1.87A7.7,7.7,0,0,1,45.33,9a3.8,3.8,0,0,1,1.64.4,4.44,4.44,0,0,1,1.58,1.32,6.11,6.11,0,0,1,1.09,2.69,18.91,18.91,0,0,1,.22,4.84,28,28,0,0,1-1,5.56,34.74,34.74,0,0,1-2.2,5.75A30,30,0,0,1,43.24,35a29,29,0,0,1-4.59,4.68,22.09,22.09,0,0,1-5.71,3.35,6.74,6.74,0,0,1-.65.3l-.55.23A2.42,2.42,0,0,1,31.35,43.71Zm-3.87-.78c0,.12.35.11,1,0l1-.23c.37-.09.72-.19,1-.29s.67-.23,1.07-.38a20.67,20.67,0,0,0,5.84-3.17A26.21,26.21,0,0,0,42,34.38a28.19,28.19,0,0,0,3.27-5.25,32.15,32.15,0,0,0,2.06-5.42,27.11,27.11,0,0,0,.92-5.06,16.23,16.23,0,0,0-.15-4.16,6.35,6.35,0,0,0-.83-2.3A4,4,0,0,0,46.09,11a2.54,2.54,0,0,0-1.23-.41,5.13,5.13,0,0,0-1.14.07,7.55,7.55,0,0,0-3.57,1.87,19.94,19.94,0,0,0-3.21,3.76,37.4,37.4,0,0,0-2.82,5c-.86,1.85-1.66,3.71-2.38,5.61s-1.35,3.76-1.9,5.6-1,3.49-1.38,5-.63,2.71-.8,3.7A8,8,0,0,0,27.48,42.93Z"/><path class="cls-2" d="M77.4,38.75c.15,0,.24,0,.26.13s-.26.51-.86,1.08a20.06,20.06,0,0,1-2.3,1.83,30.73,30.73,0,0,1-3,1.85,10.68,10.68,0,0,1-3,1.14,2.86,2.86,0,0,1-1.89-.14,2.69,2.69,0,0,1-1-.92,5.24,5.24,0,0,1-.49-1c-.1-.32-.19-.47-.26-.45-1,.94-1.9,1.72-2.68,2.35a23,23,0,0,1-2.65,1.78,9.66,9.66,0,0,1-3,1.14,4.27,4.27,0,0,1-1.82-.1A1.58,1.58,0,0,1,53.44,46a3.69,3.69,0,0,1,.35-2.14,9,9,0,0,1,1.58-2.4,12,12,0,0,1,2.49-2.11A8.89,8.89,0,0,1,61,38.12a4.94,4.94,0,0,1,2.12,0,10.87,10.87,0,0,1,1.72.67c.08-.41.16-.8.25-1.17a6.86,6.86,0,0,1,.34-.83.74.74,0,0,1,.48-.45.61.61,0,0,1,.45,0,.48.48,0,0,1,.13.21,6.45,6.45,0,0,1-.12,2,8.35,8.35,0,0,0,.07,2.94,3.78,3.78,0,0,0,.69,1.58,1.53,1.53,0,0,0,1.65.45,8.47,8.47,0,0,0,2.5-1c.91-.51,1.78-1,2.63-1.57s1.58-1,2.22-1.5A4.84,4.84,0,0,1,77.4,38.75ZM64.74,41.19a.7.7,0,0,0,.07-.55c0-.3-.47-.6-1.23-.88A4.78,4.78,0,0,0,61,39.61a6.9,6.9,0,0,0-2.31.92,10,10,0,0,0-1.94,1.56,6.8,6.8,0,0,0-1.28,1.78,2.57,2.57,0,0,0-.32,1.6.73.73,0,0,0,.78.65A5.31,5.31,0,0,0,57,46.05a7.35,7.35,0,0,0,2.27-.94c.87-.5,1.7-1,2.51-1.57s1.48-1.06,2-1.52A7.86,7.86,0,0,0,64.74,41.19Z"/><path class="cls-2" d="M74.12,3A2.2,2.2,0,0,1,75,4.51c.07.57.11,1.08.12,1.51A9,9,0,0,1,75,7.22a1.08,1.08,0,0,1-.38.78l-.32.18A.47.47,0,0,1,74,8.07a.77.77,0,0,1-.28-.53,9.27,9.27,0,0,1-.13-1.1,7.53,7.53,0,0,0-.12-1.1c-.11-.57-.32-.92-.64-1a.83.83,0,0,1-.57-.63.81.81,0,0,1,.12-.47,1.06,1.06,0,0,1,.78-.41,1.27,1.27,0,0,1,.46,0A1.33,1.33,0,0,1,74.12,3Z"/><path class="cls-2" d="M103.12,33.26h.18a.14.14,0,0,1,.14.12c0,.23-.21.7-.77,1.39a14.35,14.35,0,0,1-2.42,2.3,23,23,0,0,1-3.83,2.4,18.88,18.88,0,0,1-5,1.68,14.74,14.74,0,0,1-2.38.22,6.43,6.43,0,0,1-2.65-.52A6.12,6.12,0,0,1,84,38.93a9.15,9.15,0,0,1-1.54-3.87,23.53,23.53,0,0,1-.31-5,54.19,54.19,0,0,1,.55-6.34A65.44,65.44,0,0,1,84.06,17a49.29,49.29,0,0,1,2-6.17A20.22,20.22,0,0,1,88.57,6.2a5.13,5.13,0,0,1,3-2.17A2.14,2.14,0,0,1,93.8,5a8.22,8.22,0,0,1,1.34,3.43,26.61,26.61,0,0,1,.29,6.7,40,40,0,0,1-1.36,8,35.93,35.93,0,0,1-3.13,7.71,18.67,18.67,0,0,1-5,5.95l-.49.37c-.26.18-.39.3-.38.33a4.27,4.27,0,0,0,1.47,1.49,6.28,6.28,0,0,0,2,.82,7.36,7.36,0,0,0,3.1,0,16.15,16.15,0,0,0,4.46-1.52,24.54,24.54,0,0,0,3.41-2.1,25.72,25.72,0,0,0,2.35-1.93A3.58,3.58,0,0,1,103.12,33.26ZM84.19,34.72A7.86,7.86,0,0,0,84.52,36c.12.31.22.46.29.44a1.52,1.52,0,0,0,.37-.25,4.82,4.82,0,0,0,.65-.59,17,17,0,0,0,3.38-4.09,27.78,27.78,0,0,0,2.35-4.85,36.82,36.82,0,0,0,1.49-5.14,38.18,38.18,0,0,0,.76-5c.13-1.57.18-3,.16-4.26a18.74,18.74,0,0,0-.28-3.11c0-.23-.13-.56-.25-1A10.11,10.11,0,0,0,93,6.92a3.46,3.46,0,0,0-.68-1,1,1,0,0,0-.92-.33,3.58,3.58,0,0,0-2,1.78,22.2,22.2,0,0,0-2,4.08A45.2,45.2,0,0,0,85.67,17q-.77,3.08-1.25,6.25a53.57,53.57,0,0,0-.58,6.2A24,24,0,0,0,84.19,34.72Z"/><path class="cls-2" d="M125.57,29.46c.15,0,.24,0,.26.13s-.26.51-.86,1.08a21.17,21.17,0,0,1-2.3,1.84,32.78,32.78,0,0,1-3,1.85,10.33,10.33,0,0,1-3,1.13,2.87,2.87,0,0,1-1.89-.13,2.71,2.71,0,0,1-1-.93,4.52,4.52,0,0,1-.49-1c-.1-.31-.19-.46-.26-.45-1,.94-1.9,1.73-2.69,2.35a19.91,19.91,0,0,1-2.64,1.78,9.66,9.66,0,0,1-3,1.14,4.42,4.42,0,0,1-1.82-.09,1.59,1.59,0,0,1-1.24-1.39,3.66,3.66,0,0,1,.35-2.13,9.24,9.24,0,0,1,1.58-2.41A12,12,0,0,1,106,30.1a8.89,8.89,0,0,1,3.16-1.26,4.82,4.82,0,0,1,2.12-.06,11.42,11.42,0,0,1,1.72.68c.08-.41.16-.8.25-1.17a6.4,6.4,0,0,1,.34-.84.74.74,0,0,1,.48-.45c.22,0,.37,0,.45,0a.39.39,0,0,1,.13.21,6.39,6.39,0,0,1-.12,2,8.35,8.35,0,0,0,.07,2.94,3.72,3.72,0,0,0,.69,1.58,1.53,1.53,0,0,0,1.65.45,8.2,8.2,0,0,0,2.5-1c.91-.51,1.78-1,2.63-1.57s1.58-1,2.22-1.49A5,5,0,0,1,125.57,29.46ZM112.91,31.9a.67.67,0,0,0,.07-.54c0-.31-.47-.6-1.23-.89a4.88,4.88,0,0,0-2.63-.14,6.7,6.7,0,0,0-2.31.92,9.37,9.37,0,0,0-1.94,1.55,6.84,6.84,0,0,0-1.28,1.79,2.56,2.56,0,0,0-.32,1.6.73.73,0,0,0,.78.64,4.76,4.76,0,0,0,1.11-.06,7.88,7.88,0,0,0,2.27-.94c.87-.5,1.7-1,2.51-1.58s1.48-1,2-1.52A7.86,7.86,0,0,0,112.91,31.9Z"/><path class="cls-2" d="M136.81,28.45a22.62,22.62,0,0,1-2.33,1.84,32.78,32.78,0,0,1-3,1.85,10.12,10.12,0,0,1-2.91,1.12,3.15,3.15,0,0,1-1.36,0,2.19,2.19,0,0,1-.88-.42,3.92,3.92,0,0,1-.7-.84,4.43,4.43,0,0,1-.56-1.58,11.55,11.55,0,0,1-.19-1.83,10.78,10.78,0,0,1,.14-1.83,5.69,5.69,0,0,1,.41-1.43q.25-.59.66-.66c.3-.06.47,0,.52.25a6.61,6.61,0,0,1-.11,2,8.17,8.17,0,0,0,.06,2.95,3.6,3.6,0,0,0,.46,1.3,1.82,1.82,0,0,0,.62.62,1.47,1.47,0,0,0,.65.17,4.36,4.36,0,0,0,.5,0l.12,0a8.44,8.44,0,0,0,2.44-1c.9-.5,1.78-1,2.62-1.57s1.59-1,2.23-1.49a4.38,4.38,0,0,1,1.3-.75c.11,0,.18,0,.2.14S137.43,27.88,136.81,28.45ZM127,20.32c-.11-.34-.26-.52-.47-.56s-.36.16-.5.48a4,4,0,0,0-.25,1.14,3,3,0,0,0,.11,1.16q.15.51.45.51c.2,0,.37-.1.51-.43a3.69,3.69,0,0,0,.25-1.14A3.05,3.05,0,0,0,127,20.32Z"/><path class="cls-2" d="M160.53,22.19c.11,0,.18,0,.21.2a1.09,1.09,0,0,1-.18.57c-.15.26-.35.56-.6.91s-.52.7-.82,1.07a9.25,9.25,0,0,1-.86.94,17.65,17.65,0,0,1-1.39,1.24,6.42,6.42,0,0,1-1.4.86,11.8,11.8,0,0,1-1.65.62c-.6.17-1.3.33-2.09.49-.61.12-1.17.21-1.66.29a4.32,4.32,0,0,1-.87.08l-.42,0a12.33,12.33,0,0,1,.16,2,4,4,0,0,1-.81,2,7.05,7.05,0,0,1-4.76,2.92,7.39,7.39,0,0,1-2.63.13,4.18,4.18,0,0,1-1.66-.6,2.55,2.55,0,0,1-.85-.9,2.92,2.92,0,0,1-.29-.77,3,3,0,0,1,.17-1.69,5,5,0,0,1,1.1-1.69,7.62,7.62,0,0,1,1.91-1.43,8.87,8.87,0,0,1,2.63-.92,5.52,5.52,0,0,1,.63-.09,6.14,6.14,0,0,0,.69-.11l.29-.05a.24.24,0,0,0,.1-.08,2.1,2.1,0,0,0-.44-.42l-1-.84a19,19,0,0,1-1.43-1.32c-.35-.37-.61-.66-.79-.86a4.14,4.14,0,0,1-.35-.43c-.06-.09-.1-.13-.14-.12s-.27.19-.58.52-.67.7-1.09,1.1-.83.77-1.23,1.12a2.34,2.34,0,0,1-.95.6c-.19,0-.3,0-.33-.17s.13-.35.46-.71.7-.76,1.13-1.2L140,24.13a8.42,8.42,0,0,0,.92-1.06c.38-.47.67-.72.86-.76s.41.1.55.43a2.55,2.55,0,0,0,.68.75c.38.33.83.72,1.35,1.19l1.79,1.61c.67.6,1.33,1.25,2,1.95l.94-.06a6,6,0,0,0,1.19-.08c.48-.07,1-.16,1.52-.26s1.26-.27,1.84-.42A7.66,7.66,0,0,0,155,27a8.19,8.19,0,0,0,2.11-1.32,18.2,18.2,0,0,0,1.59-1.55c.46-.5.84-.94,1.14-1.31A1.58,1.58,0,0,1,160.53,22.19ZM145.3,34.29a2,2,0,0,0,.43-.23,3.84,3.84,0,0,0,.79-.65,4.09,4.09,0,0,0,.71-1.06,2.21,2.21,0,0,0,.14-1.41,5.35,5.35,0,0,0-.28-.84l-.35-.58h-1.21a12.5,12.5,0,0,0-1.93.25,7.14,7.14,0,0,0-2.73,1,4.24,4.24,0,0,0-1.27,1.28,3.27,3.27,0,0,0-.33,1.63,1.38,1.38,0,0,0,.73,1,3.31,3.31,0,0,0,1.29.41,7.81,7.81,0,0,0,1.27,0l.75-.09a5.79,5.79,0,0,0,1.93-.73Z"/><path class="cls-2" d="M104.18,50.33q.06.22-.24.45a2,2,0,0,1-.75.35c-1.94.39-48.3,6.66-49.81,7-1.33.27-2.56.53-3.7.79a17.54,17.54,0,0,1-1.94.39s.08.66.2,1.87.25,2.8.41,4.76.34,4.18.55,6.66.41,5,.6,7.65.35,5.17.49,7.68.22,4.74.26,6.71,0,3.57,0,4.81-.21,1.89-.47,2a.33.33,0,0,1-.4-.14s-.07,0-.1-.15-.11-.86-.22-2.11-.23-2.86-.37-4.82-.28-4.17-.45-6.61-.33-4.92-.52-7.46-.35-5-.51-7.42-.29-4.58-.41-6.47-.22-3.41-.3-4.57-.13-1.76-.14-1.8-.22-.08-.61,0-.87.17-1.47.33c-1,.26-2,.56-3,.92a15.27,15.27,0,0,0-2.82,1.25,6.18,6.18,0,0,0-2,1.68,2.43,2.43,0,0,0-.4,2.15,3.33,3.33,0,0,0,.88,1.51,9.48,9.48,0,0,0,1.39,1.17,7.87,7.87,0,0,0,1.4.77,3.46,3.46,0,0,0,.86.28q.61.08.69.36c.07.26-.07.44-.4.53a3.08,3.08,0,0,1-1.11-.1A7.19,7.19,0,0,1,38,70a7.36,7.36,0,0,1-1.78-1.3A4.37,4.37,0,0,1,35,66.66c-.4-1.54.15-3,1.65-4.46s4.17-2.66,8-3.66l2-.49q1.35-.33,3-.69c1.07-.24,2.18-.47,3.33-.7s46.82-6.31,47.79-6.44a19.13,19.13,0,0,1,2.4-.22Q104.09,50,104.18,50.33Z"/><path class="cls-2" d="M81.55,70.79c.15,0,.24,0,.26.13s-.33.47-1.06,1.06a21.46,21.46,0,0,1-3.27,2,43.34,43.34,0,0,1-5.43,2.35,49.65,49.65,0,0,1-7.6,2,4.36,4.36,0,0,1-1.15.17,10.28,10.28,0,0,1-1.07.09,9.31,9.31,0,0,1-1.8-.1,5.07,5.07,0,0,1-1.77-.63A2.28,2.28,0,0,1,57.6,76.3a3.87,3.87,0,0,1,.12-1.68,5.56,5.56,0,0,1,1-2,7.87,7.87,0,0,1,2.07-1.85,9.38,9.38,0,0,1,3.31-1.23A9.51,9.51,0,0,1,67,69.35a6.45,6.45,0,0,1,1.83.44,2.27,2.27,0,0,1,1,.73,2.06,2.06,0,0,1,.32.59,1.43,1.43,0,0,1-.12.76,2.66,2.66,0,0,1-.89,1.06,8.1,8.1,0,0,1-2.2,1.16,23.33,23.33,0,0,1-4,1.08,15.61,15.61,0,0,1-2.74.38,4,4,0,0,0-.74,0,.09.09,0,0,0-.09.13,1.33,1.33,0,0,0,.91,1,5.28,5.28,0,0,0,1.78.33A11.81,11.81,0,0,0,64,77c.69-.1,1.28-.19,1.77-.29l.69-.13a45.6,45.6,0,0,0,11-3.54,29.41,29.41,0,0,0,2.84-1.53A6.49,6.49,0,0,1,81.55,70.79ZM64.21,71a7.86,7.86,0,0,0-2.33.8,6.69,6.69,0,0,0-1.51,1.07,4.12,4.12,0,0,0-.78,1,1.42,1.42,0,0,0-.22.57s.18,0,.51,0l1.13-.1c.42,0,.84-.09,1.24-.15l.89-.14c.49-.1,1.08-.24,1.75-.43s1.3-.39,1.89-.62a10.83,10.83,0,0,0,1.47-.69c.38-.23.56-.44.53-.62s-.41-.33-1.16-.65A6.21,6.21,0,0,0,64.21,71Z"/><path class="cls-2" d="M103.84,66.5c.15,0,.24,0,.26.12s-.25.52-.85,1.08a20.44,20.44,0,0,1-2.31,1.84,32.6,32.6,0,0,1-3,1.85,10.73,10.73,0,0,1-3,1.14,2.93,2.93,0,0,1-1.89-.14,2.61,2.61,0,0,1-1-.93,4.75,4.75,0,0,1-.5-1c-.1-.32-.19-.47-.26-.46-1,1-1.9,1.73-2.68,2.35A21.31,21.31,0,0,1,86,74.11a9.32,9.32,0,0,1-3,1.14,4.1,4.1,0,0,1-1.82-.09,1.59,1.59,0,0,1-1.24-1.38,3.68,3.68,0,0,1,.35-2.14,9.51,9.51,0,0,1,1.58-2.41,12.25,12.25,0,0,1,2.49-2.1,9,9,0,0,1,3.16-1.26,4.79,4.79,0,0,1,2.12-.05,10.87,10.87,0,0,1,1.72.67c.08-.41.17-.8.25-1.17a8.16,8.16,0,0,1,.34-.84.7.7,0,0,1,.48-.44q.34-.08.45,0a.39.39,0,0,1,.13.21,6.61,6.61,0,0,1-.11,2,8.11,8.11,0,0,0,.06,2.94,3.82,3.82,0,0,0,.69,1.59,1.57,1.57,0,0,0,1.65.45,8.68,8.68,0,0,0,2.51-1c.9-.51,1.78-1,2.62-1.57s1.58-1,2.22-1.49A4.54,4.54,0,0,1,103.84,66.5ZM91.18,68.94a.7.7,0,0,0,.08-.55c-.06-.3-.47-.6-1.24-.89a4.88,4.88,0,0,0-2.63-.14,6.73,6.73,0,0,0-2.3.92,10.12,10.12,0,0,0-2,1.56,6.8,6.8,0,0,0-1.28,1.78,2.62,2.62,0,0,0-.32,1.6.75.75,0,0,0,.78.65,5.21,5.21,0,0,0,1.11-.07,7.5,7.5,0,0,0,2.27-.94c.87-.5,1.71-1,2.51-1.58s1.48-1,2-1.51A9,9,0,0,0,91.18,68.94Z"/><path class="cls-2" d="M140.29,59.59c0,.19-.32.58-1.07,1.18a30.84,30.84,0,0,1-2.77,1.92,37.29,37.29,0,0,1-3.39,1.9,12.27,12.27,0,0,1-3,1.11,2.5,2.5,0,0,1-1.19,0,1.66,1.66,0,0,1-.88-.57,1.92,1.92,0,0,1-.27-.46,5,5,0,0,1-.23-.88,9.27,9.27,0,0,1-.16-1.16c0-.31,0-.61,0-.88s0-.54,0-.8a5.83,5.83,0,0,0-.13-1c-.12-.65-.34-1-.64-.89a6.39,6.39,0,0,0-2.72,1.69,40,40,0,0,0-3.17,3.2c-1,1.15-1.92,2.19-2.71,3.11a6.14,6.14,0,0,1-1.41,1.44.19.19,0,0,1-.22-.08c0-.07,0-.13-.06-.16a.91.91,0,0,1,0-.33.83.83,0,0,0,0-.27c0-.12-.06-.16-.09-.13s-.09-.14-.15-.48a17.3,17.3,0,0,1-.22-1.92,22.44,22.44,0,0,0-.29-2.27c-.15-.77-.33-1.21-.53-1.33a1,1,0,0,0-.75-.1l-.12,0a7.2,7.2,0,0,0-3.41,1.79,24.71,24.71,0,0,0-2.84,3.06,28.28,28.28,0,0,0-2,2.89,4.61,4.61,0,0,1-.93,1.31l-.29,0q-.28.06-.3.12s-.06.07-.13.09c-.27,0-.48-.36-.65-1.24-.18-1.54-.28-2.76-.3-3.67a15.81,15.81,0,0,1,.16-2.54c.13-.79.4-1.23.82-1.31s.55.11.63.53a9.25,9.25,0,0,1,.07,1.43c0,.69,0,1.4,0,2.11s0,1.74-.06,2.73l.07,0a34.05,34.05,0,0,1,2.78-4,21,21,0,0,1,3.06-2.95,9,9,0,0,1,3.88-1.82,2.6,2.6,0,0,1,1.18,0,1.91,1.91,0,0,1,.77.6,2.08,2.08,0,0,1,.31.41,2,2,0,0,1,.17.56A8.56,8.56,0,0,1,117.1,65a5,5,0,0,0-.21,1.67s.43-.45,1.19-1.32,1.66-1.86,2.71-2.95a42.24,42.24,0,0,1,3.26-3,6.84,6.84,0,0,1,2.87-1.65,1.23,1.23,0,0,1,1.26.38,3.2,3.2,0,0,1,.64,1.5,6.42,6.42,0,0,1,.14,1.66,8,8,0,0,0,.18,1.83l.06.28a1.63,1.63,0,0,0,.32.8c.15.14.51.16,1.08,0a9.88,9.88,0,0,0,2.65-1c1-.5,1.91-1,2.83-1.55s1.75-1,2.47-1.48a5.75,5.75,0,0,1,1.48-.76l.11,0Q140.27,59.53,140.29,59.59Z"/></g></g></svg>