<svg width="991" height="723" viewBox="0 0 991 723" fill="none" xmlns="http://www.w3.org/2000/svg">
<g clip-path="url(#clip0)">
<path d="M87.9999 267.9C94.5999 231 95.0999 137.3 56.2999 71.1001C49.1999 56.2001 60.3999 42.2 72.5999 37.5C84.7999 32.8 224.1 -1.79995 327.4 0.100051C564.6 4.50005 655.4 27.4001 853 8.70005C996 -4.89995 916.7 68.9001 955.7 120C994.6 161.7 994.1 242.3 987.4 265.6C950.6 312.4 921.4 306.5 941.2 338.3C1025.6 473.8 118.5 431.3 71.0999 424.8C42.7999 420.8 61.2999 321.8 87.9999 267.9Z" fill="#428630"/>
<path d="M15.5 587.8C-39.9 483.9 71.7 432.1 61.2 365.6C59.9 357.1 107 371.5 165.1 371.6C190.4 369.1 216.2 367.3 242.5 365.9C367.2 352.3 541.8 358.3 656.6 380.1C768.6 401.3 965.3 375.7 963 401.7C960.1 436 984.8 483.4 982.2 526.4C978.5 586.8 968.9 609.3 956.5 633.9C952 673.2 962.1 717.5 942.8 717C910.3 716.1 812.3 695.8 719.6 704.9C459 730.2 286.2 727.6 142.7 706.2C-1.69995 684.6 1.40005 622 15.2 588.3C15.3 588.2 15.4 588 15.5 587.8Z" fill="#FFFF00"/>
</g>
<defs>
<clipPath id="clip0">
<rect width="990.8" height="722.9" fill="white"/>
</clipPath>
</defs>
</svg>
