<svg xmlns="http://www.w3.org/2000/svg" viewBox="0 0 628.65 662.81"><defs><style>.cls-1{fill:#fdc600;opacity:0.4;}</style></defs><title>404-yellow-blob-desktop</title><g id="Calque_2" data-name="Calque 2"><g id="contenu"><path class="cls-1" d="M404.26,161.77,396,116.87C383.23,47.54,327-2.26,262.78.08l-1.17,0C202,2.49,141.49,19.45,91.74,56.6,68.31,74.1,47.53,96,32,122.16c-16.75,28.29-26.57,60.89-30.3,94.3C-2.34,253,1,290.2,9.38,325.73a441.2,441.2,0,0,0,17.38,55.85c6.57,17.19,13.82,34.35,22.6,50.33C57,445.8,104,504.76,116.11,514.14c1.09.84,49.74,48.25,97.89,81.25,27,18.49,57.16,34.85,86.26,48.9,30.24,14.6,59.55,16.91,92.79,18.35,34.54,1.5,68.68-7.32,100.71-21a405.22,405.22,0,0,0,47.4-24.32c14.48-8.61,28.61-18.3,41-30.35,23.83-23.25,37.77-55.23,46.13-88.55.82-3.26.36-9.51-.84-17.41-8.07-53.47-36.91-100.44-78.5-129.51l-46.3-32.36C451.73,283.56,416.22,226.74,404.26,161.77Z"/></g></g></svg>