<svg width="412" height="524" viewBox="0 0 412 524" fill="none" xmlns="http://www.w3.org/2000/svg">
<path d="M0.800112 247C1.10011 260.6 1.60011 274.3 2.20011 287.8C2.00011 338.2 -0.799888 441.6 5.80011 477.2C6.90011 483.2 6.90011 496.6 6.60011 502.6C5.50011 526.7 69.1001 510.7 114.2 517.6C158.1 524.3 230.4 524 252.5 522.8C297.3 513.7 377.1 534 385.8 516C400.3 485.7 409.4 358.2 411.3 271.8C411.8 250.2 411.5 232 410.4 219.9C407.6 188 400.4 51.1 397.8 29.9C392.9 -9 348.5 6.8 249.7 0C121.9 15.8 27.9001 -5.8 16.5001 12.6C6.70011 28.4 2.10011 76.9 0.600112 134.6C-0.299888 170.4 -0.0998883 209.7 0.800112 247Z" fill="#DAE9F6"/>
</svg>
