<?xml version="1.0" encoding="utf-8"?>
<!-- Generator: Adobe Illustrator 25.2.0, SVG Export Plug-In . SVG Version: 6.00 Build 0)  -->
<svg version="1.1" id="Calque_1" xmlns="http://www.w3.org/2000/svg" xmlns:xlink="http://www.w3.org/1999/xlink" x="0px" y="0px"
	 viewBox="0 0 2000 2000" style="enable-background:new 0 0 2000 2000;" xml:space="preserve">
<style type="text/css">
	.st0{fill:#000;}
	.st1{opacity:0.8;}
	.st2{fill:none;}
	.st3{fill-rule:evenodd;clip-rule:evenodd;fill:#000;}
</style>
<g>
	<path class="st0" d="M707.9,1580.3c1.4-2.3,2.8-4.5,4.2-6.8c-14.7,9.6-24.6,24.9-29.9,46.5C691.4,1607.4,699.7,1593.7,707.9,1580.3
		z"/>
	<path class="st0" d="M777.1,1708.8c0-0.6,0.1-1.3,0.1-1.9c0.3-4.7,0.7-9.6-0.5-12.3C775.8,1698.7,776,1704.3,777.1,1708.8z"/>
	<path class="st0" d="M1082.3,1342.8c-0.2,1.9,0,4.1,0.7,6.3c0.6,2.1,1.6,4.1,2.8,5.7C1085,1350.4,1084,1346.1,1082.3,1342.8z"/>
	<path class="st0" d="M809,1865.2c-0.3,2.2,0.3,4,1.6,4.8c1.2,0.7,2.7,0.5,4-0.4c0.2-1.3,0.1-2.6-0.6-3.4
		C813.5,1865.6,812.2,1865,809,1865.2z"/>
	<path class="st0" d="M791.8,1641.8c-3.1,0-5.5,1-7.2,2.9c-2.6,3-2.9,7.9-0.8,11.6c1.2,2.2,4.3,5.6,10.9,4.4
		c2.5-0.5,4.5-2.2,5.7-4.9c1.6-3.8,1.3-8.5-1-12.4C796.7,1642.4,794.1,1641.8,791.8,1641.8z"/>
	<path class="st0" d="M1014,1582.9c-43.2,22.7-87.6,46.1-124.1,76.7C930.3,1636.2,973.6,1610.6,1014,1582.9z"/>
	<path class="st0" d="M829,1585.2c-3.3,13.9-0.2,32.2,8.5,39.9c-0.5-14,8.6-20.5,17.4-26.8c2.5-1.8,5.1-3.6,7.4-5.6
		c3-2.6,5.6-5.1,8.1-7.5c11-10.5,19-18.1,41.2-10.6c0.8,0.3,1.4,1,1.6,1.8c0.2,0.8-0.1,1.7-0.8,2.3c-6.4,5.5-13.2,10.8-19.8,15.9
		c-12.3,9.6-25,19.5-35.7,31.1c11.6-4,21.2-13.2,31.1-22.8c17.2-16.6,35.1-33.7,66.4-28.4c1,0.2,1.8,0.9,1.9,1.9
		c0.2,1-0.3,2-1.2,2.5c-22.4,12.3-41.6,23.8-58.6,35.2c-1.9,1.2-3.7,2.5-5.6,3.7c-13.4,8.8-27.1,17.9-38.2,29.1
		c14.8-8.4,28.7-17.9,42.2-27.1c25.8-17.6,52.6-35.9,85.7-47.1c1.1-0.4,2.3,0.1,2.9,1.1c0.5,1,0.3,2.3-0.7,3
		c-12.4,9.4-26.3,17.7-39.8,25.7c-19.1,11.3-38.7,22.9-54.3,38.2c8.4-4.9,16.8-10.3,25.5-16c7.3-4.8,14.9-9.7,22.8-14.5
		c4.7-2.8,9.4-5.9,14.4-9.3c19.8-13.1,42.2-28,65.6-24.4c1,0.2,1.8,0.9,2,2c0.1,0.4,0,0.7-0.1,1.1c2.6-1.8,5.2-3.6,7.7-5.4
		c-55.2-12.1-136.3-13.3-199.7-2.7c-0.7,0.1-1.5-0.1-2-0.6c-13.6-12.9-34.4-17.1-60.7-22.3c-4.1-0.8-8.3-1.6-12.6-2.5
		c-12-2.5-23.6-7.5-34.7-12.3c-13.4-5.8-26.2-11.3-37.7-11.3c-1.1,0-2.2,0.1-3.3,0.2c-11.1,1.1-29.2,23.1-29.2,29
		c0,8.2-0.1,16.8-0.2,25.6c-0.7,66.6-1.7,148.9,17.1,202c1.2-29.2-2.4-56.1-5.8-82.1c-4.3-32.7-8.4-63.6-4-98.8
		c0.1-0.5,0.3-0.9,0.6-1.3c-0.4,0-0.7,0-1.1-0.2c-1.1-0.5-1.7-1.6-1.4-2.8c7.3-29.4,22.8-51,46.2-64.2c0.7-0.4,1.6-0.4,2.4,0
		c16.2,9.6,36.6,15.6,56.4,21.4c26,7.6,53,15.6,71.4,31.8C828.9,1583.5,829.2,1584.4,829,1585.2z M834,1589.8
		c0.2-3.8,0.5-7.7,0-10.6c-0.2-1.1,0.5-2.2,1.5-2.6c1.6-0.6,3.6-0.3,5.5-0.1c0.8,0.1,2.1,0.3,2.8,0.2c0.1-0.8,0.6-1.5,1.3-1.9
		c0.9-0.4,1.9-0.4,2.6,0.3c2.9,2.5,0.1,6-2.6,9.4c-2.2,2.8-5.3,6.6-4.7,9.1c0.1,0.7,0.6,1.3,1.3,1.8c1.8-2.4,3.1-5.6,4.4-8.9
		c1.6-4,3.2-8.1,6.1-11.2c0.4-0.5,1.1-0.8,1.7-0.8h19.6c1,0,1.9,0.6,2.2,1.6c0.3,1,0,2-0.8,2.6c-3.5,2.8-7.2,5.4-10.8,8
		c-8.7,6.2-17.6,12.7-24.1,21c-0.4,0.6-1.1,0.9-1.8,0.9c0,0,0,0-0.1,0c-0.7,0-1.4-0.3-1.8-0.8C833.2,1603.8,833.6,1596.6,834,1589.8
		z M672.4,1544.2c-6.1,6.4-13,13.6-13.9,21.1c-0.2,1.2-1.2,2.1-2.4,2.1c0,0-0.1,0-0.1,0c-3.4-0.2-4.2-3.1-4.7-4.7
		c-0.1-0.4-0.3-1-0.4-1.3c0,0-0.1,0-0.3,0c-0.9,0.1-1.7-0.2-2.2-0.9c-0.5-0.7-0.6-1.6-0.3-2.4c6.5-15,16.8-26,30.6-32.6
		c0.6-0.3,1.3-0.3,1.9-0.1c0.6,0.2,1.1,0.7,1.3,1.3C683.9,1532.2,678.6,1537.8,672.4,1544.2z"/>
	<path class="st0" d="M727.3,1752.6c-1,0.6-2,1.5-3.1,2.6c-2.6,2.4-6.5,6-10.9,1.7c-0.4-0.4-0.6-0.8-0.7-1.3
		c-0.8-5.2-1.6-10.3-2.5-15.5c-3.5-21.4-7-43.3-8.6-67.3c-0.4,23.7,4.4,49,8.6,70.7c1.2,6,2.3,11.8,3.2,17.2
		c0.1,0.8-0.2,1.7-0.8,2.2c-12.8,10.8-27.9,17.4-46.3,20.1c-0.4,0.1-0.8,0-1.2-0.1c0.2,0.4,0.3,0.8,0.5,1.3
		C692.1,1783.4,711.4,1773.6,727.3,1752.6z"/>
	<path class="st0" d="M662.8,1584.5c-2.1,3.7-4.3,7.5-6.6,11.2c-0.1,0.1-0.1,0.2-0.2,0.3c0.1,0,0.1,0,0.2,0c0,0,0,0,0,0
		c1.2,0,2.2,1,2.3,2.2c0.9,10.1,1.7,20.3,2.5,30.5c3,38.5,6.2,78,14,112.4c-1.5-13.4-3.4-26.3-5.2-39c-3.7-25.8-7.6-52.5-8.2-82.1
		c0-0.6,0.2-1.2,0.6-1.6c11.9-13.4,22.2-28.9,32.2-44c4.2-6.3,8.4-12.7,12.8-19c-11.8,4.9-20,18.7-27.9,32
		c-4.3,7.2-8.7,14.6-13.5,20.4c-0.6,0.7-1.6,1-2.5,0.7c-0.9-0.3-1.6-1.1-1.6-2.1c-1.7-20.9,11.2-34,23.8-46.6
		c5.2-5.3,10.3-10.3,14.2-15.9C681.7,1551.5,672.5,1567.6,662.8,1584.5z"/>
	<path class="st0" d="M712,1610.8c5.7-5,10-11.7,13-20.5C718,1593.6,713.8,1600.2,712,1610.8z"/>
	<path class="st0" d="M721.4,1717.3c-0.3-11.4-0.5-23.1-2-33.5c0,0.4,0,0.7,0,1.1c-0.1,14.4-0.2,29.1,2.2,41
		C721.5,1723,721.4,1720.1,721.4,1717.3z"/>
	<path class="st0" d="M683.9,1687.2c0.6,16.2,2.1,32.1,5,46.7C687.1,1718.5,685.4,1702.4,683.9,1687.2z"/>
	<path class="st0" d="M887,1843.8c-1.1,2.7-2,6.5,0.7,8.3c2.3,1.5,6.2,1,8-1c1.9-2.2,0.1-5.3-1.5-7.3H887z"/>
	<path class="st0" d="M934.3,1807.7c2.8-0.1,4.7-2.9,5.6-5.5c1.2-3.6,0.7-7.4-1.1-9c-0.7-0.6-1.6-0.8-2.7-0.8
		c-1.7,0-3.9,0.7-6.5,2.1c-5.1,2.8-4.4,5.3-4.2,6.1C926.6,1804.5,932.5,1807.7,934.3,1807.7z"/>
	<path class="st0" d="M884.6,1819.5c5.3,0,7.8-2.3,8.2-7.4c-0.5-2.8-2.2-4-3.6-4.6c-2.4-0.9-5.3-0.5-7.2,1c-1.7,1.4-2.5,3.6-2.2,6.3
		c1.6,1.5,3.1,3.1,4.7,4.7C884.6,1819.5,884.6,1819.5,884.6,1819.5z"/>
	<path class="st0" d="M912.5,1825.4c-0.9,0.5-3.4,2.9-1.5,13.8c7,0.6,11.7-0.4,12.8-2.8c0.9-2-0.6-5.5-3.7-8.3
		C917.3,1825.6,914.1,1824.5,912.5,1825.4z"/>
	<path class="st0" d="M880.6,1739.8c-4.7-0.4-8.1,0.4-10.1,2.4c-2,2-2.8,5.4-2.4,10.1c2.4,3.1,5.5,4.4,8.7,3.8
		c3.6-0.8,6.8-3.9,7.6-7.6C885.1,1745.3,883.7,1742.3,880.6,1739.8z"/>
	<path class="st0" d="M833.4,1798.6c-1,1-2.1,3.3-2.5,6.2c-0.4,2.7,0,5.3,0.9,6.9c3.9,0.2,5-1.8,6.9-5.7c0.2-0.4,0.4-0.8,0.6-1.2
		c-1-1-1.6-2.2-2.2-3.2C835.9,1799.4,835.3,1798.5,833.4,1798.6z"/>
	<path class="st0" d="M849,1881.4c-1.2-0.6-3.2-0.4-4.4,0.4c-0.1,1.4,0.6,1.7,0.9,1.9c1.2,0.6,3.2,0.4,4.4-0.4
		C850,1881.9,849.3,1881.6,849,1881.4z"/>
	<path class="st0" d="M859.1,1845.5c-1.5-0.8-3.3-1.3-5-1.3c-1.7,0-3.4,0.4-4.7,1.2c0,0,0,0,0,0c-4.6,2.6-6.3,5.6-5.1,8.9
		c1.8,4.7,9,8.7,14.1,7.7c3.5-0.7,5.2-3.6,5.1-8.8C863.3,1848.8,861,1846.6,859.1,1845.5z"/>
	<path class="st0" d="M814.7,1689.7c-1.4,0.7-2.1,3.8-1.6,7.1c0.5,3.5,2.1,5.8,3.4,6c1.4,0.2,4.1-1.8,7.2-8
		c-3.9-3.9-6.6-5.3-8.2-5.3C815.2,1689.6,814.9,1689.6,814.7,1689.7z"/>
	<path class="st0" d="M1035.7,1587.8c-37.7,21.7-76.5,44-111.3,69.7c46.4-25.8,88.7-53.4,122.1-76
		C1042.9,1583.7,1039.3,1585.8,1035.7,1587.8z"/>
	<path class="st0" d="M753.2,1898.3c-2.2,0-3.9,0.8-4.9,2.3c-1.4,2-1.4,4.9,0,7c1.3,1.9,3.6,2.7,6.5,2.2c0.6-1,1.1-3.1,1.1-5.7
		c0-2.6-0.5-4.7-1.1-5.7C754.2,1898.4,753.7,1898.3,753.2,1898.3z"/>
	<path class="st0" d="M1107.9,1438c-0.8,0.6-1.6,1.1-2.3,1.7c1.7-1.1,3.2-2.1,4.4-3.2C1109.2,1437.1,1108.5,1437.6,1107.9,1438z"/>
	<path class="st0" d="M1284.6,877.6c12-29.1,14.4-72.4,5-108.2c-4-15.1-9.7-27.6-16.9-36.9C1292.8,769.8,1291.9,832.3,1284.6,877.6z
		"/>
	<path class="st0" d="M1012.2,277.5c3.6,95.1,8.6,190.9,20.5,280.8c-2.2-68.4-8.2-137.1-14-203.9
		C1016.5,329,1014.3,303.3,1012.2,277.5z"/>
	<path class="st0" d="M783.8,1009.2c15.9,13.1,35.3,18.2,56.1,14.6c24.8-4.3,59.4-58.9,60.7-95.7c1.5-43.4-6.6-95.9-33.4-117.9
		c0.9,1.5,2.2,3.2,3.8,5.2c2.3,2.8,4.8,6.1,6.6,9.9c17.4,37.5,21.6,122.1-6.4,147.8c-0.8,0.7-2,0.8-2.9,0.3c-0.9-0.6-1.3-1.7-1-2.7
		c14.8-50.8,3.9-148-33.8-161.7c-22.1-8-50.3,8-57.8,22.4c-18.3,35-15.6,84.6,6.8,123.6c16.6,28.9,41.3,46.2,67.6,47.4
		c1,0,1.9,0.7,2.2,1.7c0.3,1-0.1,2-1,2.6c-30.7,20.3-67.3,0.5-83.5-20.1c-9.4-11.9-13.4-26.9-17.3-41.4c-1.6-6-3.2-11.7-5-17.2
		C749.1,961.7,763.2,992.1,783.8,1009.2z M822.7,823.6c-22.8,31.8-21.7,107.3-5.6,148.7c0.4,1,0.1,2.1-0.8,2.8
		c-0.4,0.3-0.9,0.5-1.4,0.5c-0.5,0-1-0.2-1.5-0.5c-16-12.4-27.4-43.3-29-78.7c-1.6-33.6,6.3-62,21-75.8c0.4-0.4,1-0.6,1.6-0.6h13.7
		c0.9,0,1.7,0.5,2.1,1.3C823.3,822,823.2,822.9,822.7,823.6z"/>
	<path class="st0" d="M1055.9,873.6c-0.5,21.8-1,44.3-3.4,64.6c-0.1,0.7-0.5,1.3-1,1.7l-0.6,0.4c-5.3,3.7-14.2,9.8-18.2,5
		c-0.4-0.5-0.6-1.2-0.5-1.8l0.9-7.4c4.3-33.7,9.1-71.6,5.6-107.5c-1.8,29.1-3.8,62-7.7,90c-0.3,2.5-0.5,5.3-0.7,8.2
		c-0.7,10.3-1.6,22.7-9.9,27.3c1.1,0.4,1.9,1.1,2.4,1.7c4,4.5,2.2,14.1-1.9,20c-3.9,5.6-9.2,7.5-14.7,5.4c-1-0.4-1.7-1.5-1.5-2.6
		c0.2-1,0.3-2,0.5-3c1.1-7.1,2.2-14.4,5.8-19.5c0.2-0.2,0.4-0.4,0.6-0.6c-0.1-0.1-0.3-0.2-0.4-0.3c-0.5-0.5-0.7-1.1-0.7-1.8
		c0.8-14.6,3.2-29.2,5.5-43.4c3.3-20.1,6.6-40.8,5.6-61.9c-2.2,11-3.5,23.1-4.8,34.9c-1,9.2-2.1,18.8-3.5,27.8
		c-0.3,2.1-0.7,4.2-1,6.4c-2.2,14.7-4.6,29.9-12.1,40.3c3.2,5.1,3.2,14.6-0.3,21c-3.1,5.7-8.5,8.2-14.9,6.8c-1.2-0.3-2-1.4-1.9-2.6
		c1.9-15.6,5.1-31.3,8.2-46.6c5.2-25.4,10.5-51.5,10.2-78.6c-3.9,16.8-6.9,35.3-10,54.5c-2.3,14.5-4.8,29.4-7.6,44
		c-0.3,1.7-0.6,3.7-0.9,5.8c-1.3,9.7-3.1,23.1-14.7,25.4c-0.6,0.1-1.3,0-1.8-0.4c-0.5-0.4-0.9-1-1-1.6c-1.5-10.9,1.3-22.9,4.3-35.7
		c1.2-5.2,2.5-10.5,3.5-16c0.6-3.4,1.3-6.9,2-10.3c3.5-17.8,7.1-36.1,7.8-57.6c-4,15.2-6.7,31.8-9.4,47.9
		c-4.4,26.9-9,54.6-19.4,76.3c0.1,0.2,0.2,0.4,0.2,0.6c0.5,3.8-0.9,7.6-2.1,10.9c-1.1,2.9-1.9,5.1-1.7,6.8c1.2-1.8,2.1-4.1,3-6.5
		c2.8-7.1,6.2-16,20.4-13.2c0.6,0.1,1.2,0.5,1.5,1.1c0.3,0.6,0.5,1.2,0.3,1.9c-0.6,2.5-1.5,5-2.4,7.4c-2,5.6-3.3,9.6-2.3,12.7
		c1.6-3.3,3.5-6.8,6.7-9.1c0,0,0,0,0,0c-0.6-0.5-0.9-1.3-0.8-2.1c0.6-4.3,2.1-7.7,3.5-11l0.6-1.3c0.4-0.9,1.2-1.4,2.2-1.4h11.8
		c0.9,0,1.8,0.5,2.2,1.4c0.4,0.8,0.2,1.8-0.4,2.5c-1,1.2-1.5,3.3-1.4,6.2c0,0.9-0.4,1.7-1.2,2.2c-1.2,0.7-2.6,1.3-4.1,1.7
		c0.8,0.4,1.4,1.3,1.3,2.3c-0.4,6.1-2.5,10.7-6.2,13.8c-8.1,6.7-22.2,5-37,3.1c-8.4-1-17-2.1-24.1-1.4
		c155.3,37.3,289.2-39.7,343.5-137.5c-1.3,0.8-2.8,1.4-4.4,0.7c-2-0.9-2.2-3.3-2.2-4.1c0-0.1,0-0.2,0-0.3
		c-4.5,10.6-11.1,19.3-20.1,23.8c-0.8,0.4-1.6,0.3-2.3-0.1c-0.7-0.5-1.1-1.3-1.1-2.1c0-1,1.2-22.9,11-28.6
		c-3.1-8.7-2.3-21.6-1.5-35.3c0.9-16.1,1.9-32.8-3.4-42.7c-0.5-0.9-0.3-2,0.4-2.8c0.7-0.7,1.8-0.9,2.7-0.5
		c13.1,6.2,21.3,25.2,21.4,49.7c0.1,12.1-2,25.4-6.4,36.7c15.5-27.1,13.8-59.1-4.5-81.8c-13.5-16.6-32.9-25.1-54.7-24.4
		c10.9-0.2,21.3,1.4,29,7.2c6.9,5.2,11,13.1,12.5,24.1c2.8,20.8,3.4,67-11.4,80.4c0,0,0.1,0,0.1,0c0.6,0.2,1.1,0.7,1.3,1.3
		c2,4.6,1.8,10.4-0.6,16.3c-2.6,6.7-7.4,12.1-12.5,14.2c-0.6,0.2-1.3,0.2-1.9,0c-0.6-0.3-1.1-0.7-1.3-1.3c-3.2-8.2,1.7-21.7,9.2-28
		c-0.1,0-0.2-0.1-0.3-0.1c-0.7-0.4-1.1-1-1.2-1.8c-1.4-9.8-1.3-21.3-1.2-33.4c0.2-19.8,0.3-40.2-5.9-54.1
		c3.1,21.4,3.2,48.7,0.1,67.3c3.3,8.9,2.3,20.2-2.6,27.1c-3.3,4.7-8,7.1-13.6,6.9c-1.3-0.1-2.3-1.1-2.3-2.4
		c0.1-11.9,2.5-20.8,7.2-26.9c-0.4,0-0.8-0.1-1.3-0.1c-1.1-0.2-1.9-1.1-2-2.2c-0.4-7.8-0.4-16.1-0.4-24.1c0-19.9,0-40.3-5.9-54.3
		c0.8,14.7,1.2,36.2,1.2,52.7c0,2.9,0.1,5.9,0.3,8.8c0.5,11.6,1.1,23.6-8.1,28c0.3,0,0.5,0.1,0.8,0.3c4.2,2.5,6,7.2,5.2,13.5
		c-0.9,7.3-6,16.6-11.6,18.3c-1.1,0.3-2.2-0.2-2.8-1.2c-3-5.5-2.3-14.8-0.2-21.1c1-3.1,2.9-7,6-9c-0.4,0-0.8-0.1-1.1-0.4
		c-0.6-0.4-1-1-1.1-1.7c-1.7-14.7-2.1-31-2.5-46.8c-0.4-18.1-0.9-36.8-3.4-53.1c0-0.3,0-0.6,0-1c-0.3,0.1-0.7,0.2-1,0.3
		c3,33.5,3,76-0.2,106.4c-0.1,0.6-0.4,1.2-0.9,1.6c-0.5,0.4-1.2,0.6-1.8,0.5c-2.4-0.3-4.8,1.6-7.1,3.5c-0.3,0.3-0.7,0.5-1,0.8
		c2.4-0.7,4.5-0.4,6.3,0.9c4.6,3.3,4,11.9,1.3,18.9c-3.1,8-9.7,16.2-19,15.1c-0.6-0.1-1.2-0.4-1.6-0.9c-0.4-0.5-0.6-1.1-0.5-1.8
		l0.5-3.8c0.9-7.4,1.8-15.1,3.5-21.9c0.1-0.5,0.4-0.9,0.8-1.2c1.2-1,2.4-1.9,3.5-2.7c-1.3,0.1-2.5-0.4-3.8-1.8
		c-0.4-0.4-0.6-1-0.6-1.6c0-7.4,0.3-15.1,0.5-23.2c0.6-21.2,1.3-42.9-1.5-61.9c-0.5,9.7,0,20.7,0.4,31.5
		c1.3,31.2,2.6,63.5-18.2,67.7c-0.7,0.1-1.5-0.1-2-0.5c-0.6-0.5-0.9-1.2-0.8-1.9c1.4-27.2,2.4-55.2-0.3-79c-0.4,2.8-0.7,5.7-0.9,8.6
		c-0.3,7.7,0,16.2,0.3,24.4c1,24.7,2,50.2-15.4,58c-0.7,0.3-1.6,0.3-2.3-0.2c-0.7-0.5-1.1-1.2-1-2.1c0.2-6.1,0.5-12.5,0.8-19.1
		c1.4-28.1,2.9-59.2-1.9-83.2c0.1,33.3-0.7,74.2-4,106.6c-0.1,0.8-0.5,1.4-1.2,1.8c-1.2,0.7-2.4,1.5-3.7,2.4
		c-3.6,2.5-7.3,5-12.9,5.7c-0.6,0.1-1.3-0.1-1.8-0.5c-0.5-0.4-0.8-1-0.9-1.7c-0.9-13.5-0.4-28.5,0-43c0.5-16.4,1.1-33.2-0.4-47.9
		c-0.3,10-0.3,20.4-0.3,30.7c0,11.7,0,23.8-0.5,34.7c-0.1,1.9-0.1,4-0.1,6.1c-0.1,12.3-0.3,27.6-13.7,29.4c-0.7,0.1-1.4-0.1-1.9-0.6
		c-0.5-0.5-0.8-1.2-0.8-1.9c0.2-4.1,0.4-8.3,0.6-12.6c1.3-24.7,2.7-52.1-1.2-73.9c-0.6,7.2-1.1,15-1.5,21.8c-0.3,5.6-0.6,10.4-1,14
		c-0.5,6.3-0.2,13.3,0.1,20.1c0.8,16.9,1.6,34.4-11.2,40.6c-0.8,0.4-1.6,0.3-2.3-0.2c-0.7-0.5-1.1-1.2-1.1-2.1
		c0.2-6.2,0.6-12.7,1-19.7c1.5-27.5,3.1-58-1.2-81.4C1056.5,846.2,1056.2,860.1,1055.9,873.6z M1055.6,970.1l0.7-0.6
		c0.3-0.3,0.6-0.5,1-0.6c2.3-0.6,4.1-0.3,5.4,0.8c2.2,1.9,1.9,5.2,1.5,8.4c-0.2,1.6-0.4,3.3-0.1,4.2c0.2,0.8,0,1.6-0.5,2.2
		c-0.5,0.6-1.4,0.9-2.2,0.8c-1.2-0.2-1.6,0.1-2.6,0.7c-1,0.7-2.4,1.6-4.6,1.6c-0.8,0-1.8-0.1-2.9-0.5c-0.9-0.3-1.5-1-1.7-1.9
		C1048.3,976.8,1052.4,973.1,1055.6,970.1z M1029.1,961.3c0.8-2.9,1.5-5.5,1-9.4c-0.1-0.7,0.1-1.3,0.5-1.8c0.4-0.5,1-0.8,1.7-0.8
		c2.4-0.1,4.1-0.9,6-1.8c2.6-1.2,5.5-2.5,9.9-2.1c0.7,0,1.3,0.4,1.7,0.9c0.4,0.5,0.6,1.2,0.5,1.9c-0.4,2.3-0.8,4.7-1.2,7.1
		c-0.8,4.9-1.5,10-2.8,14.6c-0.2,0.8-0.8,1.4-1.5,1.6c-1.1,0.4-2.2,0.9-3.3,1.4c-2.8,1.3-6,2.7-10.6,2.7c-0.2,0-0.5,0-0.7,0
		c-1.1,0-2.1-0.9-2.3-2C1027.3,968.2,1028.2,964.6,1029.1,961.3z M1011.1,1017.2c-0.4,0.9-1.2,1.5-2.2,1.5h-13.7
		c-1.3,0-2.3-1-2.4-2.2c-0.2-3.7,1.3-5.8,2.5-7.6c1.2-1.7,2-3,1.5-5.9c-0.1-0.8,0.1-1.5,0.6-2.1c0.5-0.6,1.3-0.8,2.1-0.7
		c2.2,0.4,3.4-0.2,5-0.9c0.3-0.1,0.6-0.3,1-0.4c-0.8,0.1-1.5,0.1-2.3,0.2c-1.2,0.1-2.3-0.8-2.5-2c-0.7-4.5,0-8,2.2-10.5
		c3.3-3.8,9.2-4.1,14-4c1.2,0,2.2,0.9,2.3,2.1c0.4,4-0.4,7.3-2.4,9.6c-1.5,1.8-3.6,2.9-5.9,3.6c0.8,0,1.6,0.2,2.6,0.4
		c1.1,0.3,1.9,1.3,1.8,2.5C1014.8,1006.4,1013.5,1011.6,1011.1,1017.2z M1038.7,1012.8c-0.2,0.8-0.8,1.5-1.6,1.8
		c-4.5,1.5-9.1,2.3-14.1,2.3c-1.5,0-3-0.1-4.5-0.2c-0.7-0.1-1.3-0.4-1.7-0.9c-0.4-0.5-0.6-1.2-0.5-1.8c1.1-6.7,3.8-11.8,6.1-16.4
		c0.3-0.6,0.9-1.1,1.6-1.2c6.8-1.6,11.6-2.1,14.3,0.5C1041.3,999.8,1040.3,1004.7,1038.7,1012.8z M1026,995.2c-0.5,0-1,0-1.5-0.1
		c-0.9-0.1-1.6-0.6-2-1.4c-0.4-0.8-0.3-1.7,0.2-2.4c1-1.3,2.2-3.6,1.5-8.1c-0.1-0.8,0.2-1.6,0.8-2.1c2-1.7,4.7-2.3,7.4-2.9
		c2.5-0.6,5-1.1,5.9-2.5c0.4-0.6,1.2-1,1.9-1c0,0,0,0,0,0c0.8,0,1.5,0.4,1.9,1c2.7,3.8,3.1,7.8,1.1,11.3
		C1040.3,992.5,1032.4,995.2,1026,995.2z M1060.2,1008c0.1,0.4,0,0.8-0.1,1.2c-1.2,3.5-5.2,3.4-8.1,3.4c-1.1,0-3.2-0.1-3.6,0.3
		c-0.2,0.9-0.8,1.6-1.6,1.8c-0.2,0.1-0.4,0.1-0.7,0.1c-0.6,0-1.2-0.3-1.7-0.7c-4.3-4.4-1.3-10.7,1-15.8c1-2.2,2-4.3,2.3-5.8
		c0.1-0.7,0.5-1.3,1.1-1.6c0.6-0.4,1.3-0.5,1.9-0.3c1.9,0.6,2.4,0.2,3.4-0.5c1.2-0.8,2.9-2,6.1-1.5c1,0.2,1.8,1,2,2
		c0.6,4.2-0.3,7-1.2,9.4C1060.3,1002.3,1059.6,1004.4,1060.2,1008z M1065.9,1009c-0.8,0-1.6-0.1-2.4-0.2c-0.8-0.1-1.5-0.6-1.9-1.4
		c-0.3-0.8-0.2-1.7,0.3-2.3c1.4-2,2.1-5.2,2.8-8.3c1.4-6.5,3.2-14.5,12.9-14.3c0.8,0,1.5,0.4,1.9,1.1c0.4,0.6,0.5,1.5,0.2,2.2
		c-0.8,2.1-1.2,4.8-1.6,7.6C1077.1,1000,1075.7,1009,1065.9,1009z M1081.6,1004.9c-0.1,0-0.1,0-0.2,0c-0.7,0-1.4-0.3-1.8-0.9
		c-0.5-0.6-0.7-1.4-0.4-2.2c0.6-2.1,1-4.4,1.5-6.9c1.6-8.6,3.5-19.4,16.6-18.3c0.7,0.1,1.3,0.4,1.7,0.9c0.4,0.5,0.6,1.2,0.5,1.9
		l-0.2,1.4C1097.2,991.6,1095,1003.8,1081.6,1004.9z M1164.5,963.7c-0.8,0.2-1.6,0.1-2.2-0.4c-5.2,10-20.8,16.9-32.5,22
		c-1.5,0.7-2.9,1.3-4.3,1.9c-0.3,0.1-0.6,0.2-1,0.2c-0.5,0-1-0.2-1.4-0.5c-0.7-0.5-1.1-1.3-1-2.2c1.5-12.8,4.3-26.5,19.8-27.6
		c0.7-0.1,1.3,0.2,1.8,0.6c0.5,0.4,0.8,1.1,0.8,1.7v1.5c3.5-5.5,7.7-10.7,14.4-13.4c1.1-0.5,2.4,0,3,1.1c1.6,2.9,2.3,5.8,2.1,8.6
		c1-1.6,1.9-3.5,2.8-5.4c3-6.4,6.5-13.5,16.4-14.2c0.7-0.1,1.3,0.2,1.8,0.6c0.5,0.5,0.8,1.1,0.7,1.8
		C1185.5,955,1175.4,960.3,1164.5,963.7z M1130.5,945.3c1.9-6.3,7.8-11.5,12.7-13.5c0.6-0.2,1.3-0.2,1.9,0.1
		c3.8,1.8,5.3,5.9,4.2,10.9c-1.6,7.2-8.2,15.1-14.9,15.1c0,0-0.1,0-0.1,0c-0.8,0-1.5-0.4-1.9-1
		C1129.9,953.4,1129.3,949.4,1130.5,945.3z M1234.3,903.2c0.7-1,2.1-1.3,3.1-0.7c1.1,0.6,1.5,2,1,3.1c-4.2,8.8-14.5,16.6-25.5,24.8
		c-7.2,5.5-14.7,11.1-20,16.9c-0.5,0.5-1.1,0.8-1.8,0.8c-0.3,0-0.6-0.1-0.8-0.2c-0.9-0.3-1.5-1.2-1.5-2.2c-0.3-14.1,12.6-21,25-27.7
		C1221.8,913.8,1230.1,909.4,1234.3,903.2z M1210,894.5c1.2-0.4,2.5,0.1,3,1.3c2.7,6.1,1.8,14.5-2.2,20.8c-3.3,5.2-8.2,8-13.6,8
		c0,0,0,0,0,0c-0.7,0-1.3-0.3-1.7-0.7c-0.4-0.5-0.7-1.1-0.6-1.8C1195.3,912.4,1197.5,899.1,1210,894.5z M1173.3,933
		c1-2.3,1.7-5,2.4-7.9c1.6-6.7,3.5-14.4,10.8-16.9c1.1-0.4,2.3,0.1,2.9,1.1c3,5.6,2.5,13.6-1.2,19.7c-2.9,4.7-7.3,7.4-12.2,7.4
		c-0.2,0-0.3,0-0.5,0c-0.8,0-1.5-0.4-1.9-1.1C1173.1,934.6,1173,933.8,1173.3,933z M1164.6,920.1c0.8-0.4,1.8-0.4,2.5,0.2
		c4.3,3.2,5.7,8.2,3.7,13.8c-2.5,6.9-10.3,14.1-18.2,14.1c-0.2,0-0.5,0-0.7,0c-0.7,0-1.3-0.4-1.7-0.9c-0.4-0.5-0.6-1.2-0.5-1.8
		C1151.3,933.1,1156.3,924.6,1164.6,920.1z M1135.1,918.8c0.8-3.6,1.6-7,0.8-11.9c-0.1-0.8,0.1-1.5,0.7-2.1c1.8-1.7,4-2.9,6.1-4
		c2.2-1.1,4.2-2.1,5.5-3.7c0.5-0.6,1.3-1,2.2-0.8c0.8,0.1,1.5,0.7,1.8,1.4c3.6,8.6,2.7,19.7-2.1,27c-3.3,5-8.2,7.7-13.8,7.7
		c0,0,0,0,0,0c-1.2,0-2.3-0.9-2.4-2.2C1133.5,925.6,1134.3,922.1,1135.1,918.8z M1112.4,939.3c1.6-6.4,2.5-13.9,3.4-21.1l0.5-4.1
		c0.1-1.1,1.1-2,2.2-2.1c4.3-0.3,5.4-1.6,5.9-2.6c0.3-0.6,0.9-1.1,1.6-1.3c0.7-0.2,1.4,0,2,0.4c5.1,3.9,4.7,16.7,1.1,24.7
		c-2.7,6-7.1,9.2-12.1,9.2c-0.9,0-1.7-0.1-2.6-0.3c-0.6-0.1-1.2-0.5-1.5-1.1C1112.4,940.6,1112.3,939.9,1112.4,939.3z M1110.9,948.2
		c0.5-0.6,1.3-1,2.1-0.9c2,0.2,2.9-0.5,4.3-1.5c1.7-1.2,3.7-2.7,7.5-2.4c1.2,0.1,2.1,1.1,2.2,2.3c0.2,9.8-3.7,16.8-12,21.2
		c0.1,0,0.3,0,0.4,0.1c2.4,0.6,4.1,1.9,5.1,3.7c2,3.7,0.2,8.5-1.5,13.2c-0.9,2.6-1.9,5.3-1.8,6.8c0.1,0.7-0.2,1.4-0.7,1.8
		c-0.5,0.5-1.1,0.7-1.8,0.7c-2.1-0.1-3.1,0.6-4.6,1.6c-1.7,1.1-3.6,2.5-6.9,2.5c-0.8,0-1.6-0.1-2.5-0.2c-0.7-0.1-1.3-0.6-1.7-1.2
		c-0.3-0.6-0.4-1.4-0.1-2c0.9-2.3,1.7-4.8,2.5-7.2c2.3-7.4,4.7-15,11.3-19c-0.4,0-0.8-0.1-1.1-0.3c-5-3.1-3.2-7.6-2-10.6
		c0.9-2.2,1.7-4.3,1-6.3C1110.3,949.7,1110.4,948.8,1110.9,948.2z M1095.7,923.7c2.9-3.7,6.8-5.7,11.2-5.8c0,0,0,0,0,0
		c1.1,0,2,0.7,2.3,1.8c2,7.4,0.8,20-4.6,27.6c-2.9,4.1-6.8,6.4-11.2,6.7c-0.1,0-0.1,0-0.2,0c-1.1,0-2-0.7-2.3-1.8
		C1089.2,945.4,1089.5,931.7,1095.7,923.7z M1088.5,959.2c1.7-0.6,3.1-1.4,4.7-2.4c2.5-1.5,5.4-3.3,9.6-3.6c0.7-0.1,1.4,0.2,1.9,0.8
		c0.5,0.5,0.7,1.3,0.6,2c-1.2,7.2-3.2,19.2-16,19.6c0,0-0.1,0-0.1,0c-0.6,0-1.2-0.2-1.6-0.7c-0.5-0.4-0.7-1.1-0.7-1.7v-11.8
		C1086.9,960.4,1087.6,959.5,1088.5,959.2z M1071.7,956.1c1.5-2,1.5-6.2,1.5-10.3c0-5.6,0.1-11.5,3.8-14.5c2.1-1.7,5.1-2.2,8.8-1.5
		c0.6,0.1,1.2,0.5,1.5,1c0.4,0.5,0.5,1.2,0.4,1.8c-0.5,2.5-0.7,5.4-0.8,8.3c-0.3,6.4-0.7,13-4.8,16.6c-1.9,1.7-4.4,2.5-7.4,2.5
		c-0.4,0-0.8,0-1.3,0c-0.9-0.1-1.6-0.6-2-1.4S1071.2,956.8,1071.7,956.1z M1072.3,965.6c2.2-2.2,5.3-3.1,9.4-2.7
		c0.8,0.1,1.5,0.6,1.9,1.3c0.4,0.8,0.3,1.6-0.2,2.3c-0.7,1.1-1.1,3.1-1.4,5c-0.7,3.8-1.8,10-8.5,10c-0.7,0-1.4-0.1-2.3-0.2
		c-1.1-0.2-1.9-1-2-2.1C1068.6,972.7,1069.6,968.3,1072.3,965.6z M1060.3,938c0.7-0.6,1.7-0.7,2.5-0.3c6.1,2.8,7.2,12.9,4.6,20.7
		c-2,6-5.8,9.5-10.2,9.5c-0.6,0-1.2-0.1-1.8-0.2c-1.2-0.2-2-1.3-1.9-2.5c0.1-1.4,0.2-2.9,0.2-4.3
		C1054.2,952,1054.7,942.8,1060.3,938z"/>
	<path class="st0" d="M928.5,968.5c1.7-2.6,3-4.6,5.1-4.6c0.2,0,0.3,0,0.5,0c0.7,0.1,2.1,0.6,2.7,2.6c0.1,0.3,0.1,0.7,0.1,1
		c-0.7,5-1.5,9.9-2.4,14.6c-1.3,7.3-2.7,14.7-3.2,22.9c3.1-3.6,5.2-4.9,7.6-6.3c2.6-1.5,5.5-3.3,11.1-9.1c-0.1-0.3-0.2-0.7-0.1-1.1
		c1.6-16.2,5.4-32.9,9.4-50.5c5.3-23.3,10.7-47.3,11.9-73.2c-4.4,9.8-6,21.4-7.7,33.4c-0.8,6.1-1.7,12.4-3,18.4
		c-1.6,7.8-3.6,15.8-5.5,23.5c-3.2,12.9-6.5,26.3-8.2,39c-0.2,1.2-1.3,2.2-2.5,2.1c-1.2-0.1-2.2-1.1-2.3-2.3
		c-0.4-15.2,1.7-31.1,3.9-47.9c2.9-22.1,5.9-44.9,3.9-69.6c-0.1-0.9,0.4-1.8,1.3-2.3c13.1-6.9,27.4-12.9,41.3-18.7
		c13.8-5.8,28-11.7,41-18.6c0.2-0.1,0.4-0.2,0.6-0.2c1.6-0.3,2.6,0.1,3.2,0.5c0.4,0.3,0.7,0.6,0.9,1c0-0.3-0.1-0.6-0.1-0.9
		c-0.1-1,0.4-1.9,1.2-2.4c7.2-3.9,15.4-7,23.2-10c6.8-2.6,13.6-5.2,19.9-8.3c-26.2,5.9-53.1,14.8-80.3,26.5c-4.4,1.9-9,3.8-13.5,5.6
		c-23.5,9.6-47.8,19.5-63.1,37.7C934.8,895.8,936.1,940.4,928.5,968.5z M931.1,869.3c3.7-2.7,9.1-6,13.2-3.6
		c5.9,3.5,4.1,16.1,2,30.7c-1.2,8.8-2.5,17.9-1.7,23.4c0.2,1.2-0.5,2.3-1.7,2.6c-0.2,0.1-0.5,0.1-0.7,0.1c-0.9,0-1.7-0.5-2.1-1.4
		c-3.8-8-5-18.4-6.3-28.4c-0.9-7.2-1.8-14.7-3.6-20.9C929.9,871,930.3,869.9,931.1,869.3z"/>
	<path class="st0" d="M876.5,787.2c-17.3-9.9-43.7-13.6-71-9.6c-0.9,0.1-1.8-0.3-2.3-1c-0.5-0.8-0.5-1.7-0.1-2.5
		c13.1-22.4,45.6-13.9,71.7-7.1c6.1,1.6,11.8,3.1,16.7,4c-10-10.3-28.8-12.7-47-15.1c-4-0.5-8.2-1.1-12.3-1.7
		c-0.9-0.1-1.6-0.7-1.9-1.5c-0.3-0.8-0.1-1.7,0.4-2.4c14.7-16.9,46-5.7,64.7,1c2.4,0.9,4.5,1.6,6.5,2.3c0.6,0.2,1.1,0.6,1.4,1.2
		c0.3,0.6,0.3,1.2,0.1,1.8c-1,3-2.7,5.3-4.2,7.5c-1.4,2-2.8,3.9-3.6,6.2c-0.3,0.8-0.9,1.4-1.7,1.6c-0.2,0-0.5,0.1-0.7,0.1
		c0.1,0.1,0.2,0.3,0.3,0.5c0.3,0.7,0.3,1.4,0,2.1c-1.3,2.7-2.7,5.4-4,8.1c-1.3,2.5-2.5,5-3.8,7.6c-0.3,0.6-0.8,1-1.4,1.2
		c0.3,1,0.3,2.1,0.2,3c12.9-22.9,26.5-46.1,44.9-64.8c-0.4,0.4-0.8,0.7-1.3,1.1c-2.4,2.2-4.9,4.4-8.4,5.8c-0.8,0.3-1.7,0.2-2.3-0.3
		c-6.6-5.1-16.7-7.4-26.4-9.6c-6.9-1.6-14-3.2-20.1-5.8c-0.8-0.4-1.4-1.2-1.4-2.1c0-0.9,0.4-1.8,1.2-2.2c12.5-7.1,27-2.8,41,1.4
		c4.5,1.3,8.8,2.6,12.9,3.5c-3.3-4.1-10.2-5-17.5-6c-6.1-0.8-12.4-1.7-16.9-4.6c-0.7-0.4-1.1-1.1-1.1-1.9c0-0.8,0.3-1.5,1-2
		c8.8-6.3,21-2.3,32.9,1.6c9.4,3.1,18.4,6.1,24.9,3.9c-5.2-3.1-12.9-4.3-20.3-5.5c-7.7-1.2-15.6-2.4-21.5-5.8
		c-0.8-0.4-1.2-1.2-1.2-2.1c0-0.9,0.5-1.7,1.3-2.1c10.7-5.7,22.9-1.6,34.6,2.4c6.1,2,12.3,4.1,18.3,4.9c-2.1-5.2-8.5-6.5-18.1-7.9
		c-6.4-0.9-13-1.8-17.5-5.2c-0.7-0.5-1-1.3-0.9-2.1c0.1-0.8,0.5-1.5,1.3-1.9c9-4.7,16.4-3.3,24.3-1.9c4.3,0.8,8.8,1.6,14.1,1.7
		c0.1-0.7-0.1-1-0.1-1.1c-0.3-0.6-1.9-0.9-3.1-1.1c-2.6-0.6-7.5-1.6-7-7.4c0.1-1.1,0.9-2,2-2.1l1.5-0.2c12.4-1.7,20.4-3.5,21.8-12
		c-92.9,23.9-156.3,64.5-188.6,120.5C812.7,777.3,841.6,778.6,876.5,787.2z M848.2,734.7c12.6-19,43-7.9,61.1-1.2
		c2.3,0.8,4.4,1.6,6.3,2.3c0.7,0.2,1.2,0.8,1.5,1.4c0.2,0.7,0.2,1.4-0.2,2c-2.6,4.4-6.2,8-10.6,10.6c-0.4,0.2-0.8,0.3-1.2,0.3
		c-0.3,0-0.5,0-0.8-0.1l-1.9-0.7c-16-5.7-31-11.2-52.1-10.9c0,0,0,0,0,0c-0.9,0-1.7-0.5-2.1-1.2
		C847.7,736.4,847.7,735.4,848.2,734.7z"/>
	<path class="st0" d="M737.1,1623.5c1-0.1,1.8-0.4,2.4-0.9c1.4-1.2,2-3.6,2.3-6.2c-1,0.1-1.8,0.4-2.4,0.9
		C738,1618.5,737.4,1620.9,737.1,1623.5z"/>
	<path class="st0" d="M721.4,1816.9c-2.2,5.8-4.1,12.1-4.3,20.1c2-2.6,3.7-7,4.4-11.8C722.1,1821.9,722,1818.9,721.4,1816.9z"/>
	<path class="st0" d="M748,1690.4c0.3-5.1,0.6-10.3-0.4-13.8c-1.6,8.8-2.3,20,0.4,25.7C747.5,1698.6,747.7,1694.5,748,1690.4z"/>
	<path class="st0" d="M721.6,1886.2c-2.8,0-4.9,0.9-6.2,2.6c-2,2.6-2,6.9,0,10.3c0.9,1.6,3.5,5.2,8.8,4.6c1.7-0.6,2.9-2.2,3.5-4.6
		c1-4.1-0.1-9.7-2.3-12.5C724,1886.4,722.8,1886.2,721.6,1886.2z"/>
	<path class="st0" d="M691.3,1883.1c-3.2,2.1-5.1,5.8-5.3,10.3c3.3,3.1,7.6,2.9,10.5,1.3c3.2-1.8,6-5.9,4.6-12.3
		C697.6,1881,694.2,1881.3,691.3,1883.1z"/>
	<path class="st0" d="M694.4,1828.1H693c-0.4,0.8-0.8,1.8-1.2,2.7c-3.1,7-7.6,17-5.1,23.2C689.5,1845.8,692.3,1837.3,694.4,1828.1z"
		/>
	<path class="st0" d="M656.7,1871.9c-3.1-2.5-7.4-3.2-9.9-1.7c-2.3,1.4-2.5,4.3-2.2,6.8c0.8,0.4,1.5,0.8,2.3,1.2
		c4.7,2.4,8.7,4.4,13.1,2.7C661.1,1876.2,658.4,1873.3,656.7,1871.9z"/>
	<path class="st0" d="M1074.3,1653.2c-18.5,11.8-35,22.8-50.1,33.6C1041.7,1675.8,1059,1664.6,1074.3,1653.2z"/>
	<path class="st0" d="M1302.1,1347.7c-18,10-29.6,26.4-39.4,44.7c5.9-6.3,11.4-12.9,16.8-19.4
		C1286.6,1364.4,1294,1355.7,1302.1,1347.7z"/>
	<path class="st0" d="M1257.4,1646.3v-7.8c-2.6-2.6-7.7-3.4-11.5-1.6c-2.1,1-4.3,3-3.5,7.4
		C1245.9,1647.5,1252.3,1650.4,1257.4,1646.3z"/>
	<path class="st0" d="M1372.8,1306.7c1-0.3,2.1-0.6,3.1-0.9c5.3-1.6,10.4-3.1,14.2-5.8c-0.5,0-1.1-0.1-1.6-0.1
		c-4.4,0-9.4,1.1-12.7,3.5C1374.4,1304.4,1373.4,1305.5,1372.8,1306.7z"/>
	<path class="st0" d="M1292,1379.9c9.2-7.9,18.7-16,28.3-24c-16.3,8.1-29.4,19.2-39.3,33.4C1284.7,1386.2,1288.3,1383,1292,1379.9z"
		/>
	<path class="st0" d="M1386.1,1319.2c5-1.2,10.1-4.5,12.2-8.2c0.4-0.7,0.7-1.4,0.9-2.1c-1.4,0.9-2.9,1.7-4.4,2.5
		C1390.4,1313.8,1387.3,1315.6,1386.1,1319.2z"/>
	<path class="st0" d="M1260.9,1680.6c1.7,1.1,3,2,5.5,1.8c2.1-2.7,3.6-5.1,3-10.1c-3-1.7-7-1.8-9.5,0c-2.3,1.7-2.5,4.3-2,6.6
		C1259,1679.4,1260,1680,1260.9,1680.6z"/>
	<path class="st0" d="M1266.5,1357.6c-0.1,0.1-0.3,0.2-0.4,0.4c-6.8,6-15,13.3-16.3,21.6c1.9-2.4,4.2-4.8,6.4-7.2
		C1261.2,1367,1266.2,1361.6,1266.5,1357.6z"/>
	<path class="st0" d="M1252.9,1776.3c-3.4,2.7-2.6,6.9-1.2,10.3c4.5,1.7,9.6,1.7,14.1,0c1.5-3.3,2.4-7.5-0.9-10.2
		C1261.9,1773.9,1256.1,1773.8,1252.9,1776.3z"/>
	<path class="st0" d="M1281.5,1741.7c-0.8,0-1.6,0.2-2.2,0.6c-1.7,0.9-2.7,2.8-2.6,4.7c0.1,1.7,1.2,3,3.1,3.9c1.7-0.1,3-0.7,3.8-1.6
		c1.1-1.3,1.6-3.4,1.4-6.4C1283.8,1742.1,1282.6,1741.7,1281.5,1741.7z"/>
	<path class="st0" d="M1243.2,1727c-1.7-0.8-4-0.6-6.7,0.4c-0.1,2.8,0.3,4.9,1.4,6.1c0.8,0.9,2,1.4,3.6,1.6c0.1-0.1,0.3-0.1,0.4-0.2
		c2.6-1.5,3.8-2.3,3.7-4.8C1245.2,1728.6,1244.4,1727.6,1243.2,1727z"/>
	<path class="st0" d="M1279.9,1204c1.9-1.4,3.5-3.1,4.9-4.9C1282.9,1200.5,1281.3,1202.1,1279.9,1204z"/>
	<path class="st0" d="M1215.2,1697.8c5.5-1.2,8.4-2.8,8.9-6.9c-0.4-1.1-1-2-1.6-3c-0.6-1-1.1-1.9-1.6-3.1c-0.9-0.2-1.8-0.2-2.6-0.2
		c-3.1,0-5.2,1.2-6.1,3.4C1210.8,1691.1,1212.3,1695.5,1215.2,1697.8z"/>
	<path class="st0" d="M1224.2,1768.4c1.1-1.7,0.1-5.2-2.4-8.3c-2.5-3-5.6-4.7-7.4-4c-0.9,0.3-3.6,2.3-3.3,12.9
		C1221.2,1771.5,1223.7,1769.2,1224.2,1768.4z"/>
	<path class="st0" d="M1221.1,1830.2c-0.7,0.3-1.4,2.2-1.1,4.6c0.3,2.4,1.3,4,2.1,4.2c0.8,0.2,2.7-0.8,5.3-5.1
		c-3-2.9-4.9-3.8-5.9-3.8C1221.4,1830.2,1221.2,1830.2,1221.1,1830.2z"/>
	<path class="st0" d="M1161.5,1297.1c-2.7,0.2-6.2,1.1-6.2,3.8c-0.1,2.7,2.7,5.6,4.7,5.7c0,0,0,0,0.1,0c1.6,0,2.8-2.5,3.2-6.6
		C1162.5,1299.3,1161.8,1298.4,1161.5,1297.1z"/>
	<path class="st0" d="M945.2,1900.4c-5.3,2.3-6.7,6.8-6.3,10c0.4,3,2.6,6.4,7.6,7c5.1,0.7,7.6-2,8.8-4.3c2-3.8,1.5-9.2-1-11.9
		C951.7,1898.4,947.9,1899.3,945.2,1900.4z"/>
	<path class="st0" d="M1063.3,1639.3c-24,13-50.2,28.5-73.1,45.1c5.7-3.4,11.4-6.8,17-10.2
		C1025.9,1663.1,1045.1,1651.7,1063.3,1639.3z"/>
	<path class="st0" d="M1004,1777c-2,0-3.7,0.4-4.6,0.9c-0.2,3,0.2,5.2,1.4,6.5c0.8,0.9,2.1,1.5,3.8,1.6c2.5-1.1,4.6-2.9,4-8.1
		C1007.7,1777.5,1006.1,1777,1004,1777z"/>
	<path class="st0" d="M989.6,1859.5c0.8,0.4,1.7,0.4,2.4-0.1c0.9-0.7,1.3-2.1,1.2-4c-2.5-0.1-4.2,0.4-5.3,1.1
		C988,1857.9,988.6,1858.9,989.6,1859.5z"/>
	<path class="st0" d="M1052,1825.3c-2.7-1.5-6.7-0.2-8.9,0.7c-3.9,1.6-8.2,4.4-7,8.2c1.5,4.7,9.9,8.8,15.2,7.6
		c3.6-0.9,5-4.1,4.2-9.7C1055,1828.6,1053.9,1826.3,1052,1825.3z"/>
	<path class="st0" d="M935.7,1698.4c-0.8,0.5-1.7,0.5-2.5,0c-1.2-0.7-2.4-1.4-3.6-2.1c0.8,0.7,1.7,1.4,2.5,2.2
		c0.5,0.4,0.7,1,0.8,1.7c0,0.3,0,0.5-0.1,0.8c0.9-0.4,2-0.8,3.1-1.1c0.2,0,0.4-0.1,0.5-0.1c0.5,0,1,0.2,1.4,0.4
		c8.3,6,17,11.6,26.2,16.2c-6.2-3.5-12.1-7.6-17.6-11.3c-2.6-1.7-5-3.4-7.4-4.9c-0.7-0.4-1.1-1.2-1.1-2c0-0.8,0.4-1.6,1.1-2
		c9.1-5.5,18.2-11,27.3-16.5c40.2-24.2,81.5-49.1,121.1-75.2c-38.2,19.3-73.1,42.4-107.1,64.8C965.8,1679,950.8,1688.9,935.7,1698.4
		z"/>
	<path class="st0" d="M912.5,1682.3c0.1-0.7,0.5-1.3,1.1-1.6c17.8-11.3,37.6-22.3,56.8-32.9c29.5-16.4,59.9-33.2,84.2-51.9
		c-44.4,22.9-85.9,49.4-126.1,75.2c-6.1,3.9-12.1,7.8-18.2,11.6c0.9,0.6,1.7,1.1,2.6,1.7c0.3,0.2,0.5,0.3,0.8,0.5
		c-0.2-0.2-0.4-0.5-0.6-0.7C912.6,1683.6,912.4,1683,912.5,1682.3z"/>
	<path class="st0" d="M1090.5,1581c-0.1,0-0.3,0-0.4,0c0.9,2.5,3.2,3.7,6.6,5.4c3,1.5,6.3,3.1,8.2,6.5c0.2-0.2,0.5-0.3,0.7-0.5
		c0.4-0.3,0.9-0.4,1.3-0.4c0.5,0,1.1,0.2,1.5,0.5c6.7,5.4,13.1,10.2,21.1,13.4C1121.5,1592.8,1106.6,1581,1090.5,1581z"/>
	<path class="st0" d="M1053.6,1686.1c-2,1.4-4,2.9-6.1,4.4c-4.8,3.5-10.1,8.2-15.7,13.2c17.3-11.8,34.8-24,51.1-37.4
		C1073.6,1671.6,1064.1,1678.5,1053.6,1686.1z"/>
	<path class="st0" d="M1005.2,1726.6c-0.3-0.6-0.5-1.2-0.6-2c-1.8,0.8-3.5,1.3-5.1,1.6c-0.6,0.1-1.1,0.2-1.7,0.2
		C1000.3,1726.6,1002.7,1726.6,1005.2,1726.6z"/>
	<path class="st0" d="M1214.6,1558c0.9,0.6,1.8,1.1,2.7,1.8c-0.4-0.4-0.9-0.8-1.3-1.2c-2.4-2.2-4.9-4.5-7.4-5.9
		C1209,1554.2,1210.8,1555.6,1214.6,1558z"/>
	<path class="st0" d="M1169.1,1943.2c-0.8,1.4-1.7,2.8-2.7,4.2c4.1-4.1,7.8-8.4,10.4-13.8
		C1173.5,1935.8,1171.4,1939.4,1169.1,1943.2z"/>
	<path class="st0" d="M808.9,1096.1c4.2-1.6,7.2-1.5,9.7-0.6c0,0,0-0.1,0-0.1c-0.3-0.9,0-1.9,0.7-2.5c1.7-1.5,4-2.1,6.3-2.6
		c1.5-0.4,2.7-0.7,3.6-1.1c0,0,0,0,0,0c-6.9,1.2-12.6,3.7-18.6,6.2C809.9,1095.7,809.4,1095.9,808.9,1096.1z"/>
	<path class="st0" d="M1496.1,1194.3c-2.6-10.1-5.2-20.6-7.3-30.6l-0.2-0.8c-6.4-29.8-14.3-66.8-25.1-86.8
		c-5.2-9.5-14.9-17.7-24.3-25.5c-3.7-3.1-7.3-6.1-10.5-9.1c-41.6-38.8-94-62.2-147.5-66c-0.8-0.1-1.6-0.5-1.9-1.3
		c-0.4-0.7-0.4-1.6,0.1-2.3c5.3-8.8,11-17.5,16.5-25.8c19.3-29.3,39.2-59.5,43.9-100.6c3.8-33.8-5.8-102.9-21.3-129.9
		c-51.5-89.7-134.1-128.4-252.5-118.4c-1.3,0.1-2.4-0.8-2.6-2.1c-5.1-46.8-4.8-52-5.9-98.4c-0.6-24.4-1.2-49.7-2.4-74.4
		c-1.7-36.8-6-73.5-10.1-109.1c-3.8-32.5,1.3,52.1-0.5,19.5c-6-108.4-20.6-183.9-44.4-293.8c-0.6-2.6-1.1-5.2-1.6-7.9
		c-2.1-11.2-4.3-22.7-10.6-31c-5.5,2.5-7.7,11.7-8.6,17.2c-4.8,31.2-2.2,65.2,0.6,101.2c1.6,21.4,3.4,43.5,3.4,65
		c0,12.9-1,25.7-2,38c-1,12-1.9,23.3-1.9,34.5c-0.1,34.1,1.9,34.7,4.5,69.3c0.9,12.6,1.9,25.7,2.7,38.5c3.2,49.6-3.5-16.2-1.3,34.5
		c3.7,85.2,6,130.4,14.3,206.2c0.1,1.3-0.7,2.4-2,2.6c-31.8,5.1-55.5,14.6-80.6,24.7c-8.5,3.4-17.4,7-26.7,10.4
		c-136.2,50.2-194.3,135.4-182.7,268c4.8,55.2,28.3,95.8,50.6,128.2c0.4,0.6,0.5,1.5,0.3,2.2c-0.3,0.7-0.9,1.3-1.6,1.5
		c-31.7,8.1-54.2,27.6-78.1,48.1c-6.2,5.3-12.5,10.8-19,16.1c-15.6,12.6-30.8,26.3-45,39.1c-13.9,12.6-27.9,23.6-41.4,34.1
		c-20.3,15.8-37.8,29.5-48.4,43.9c-10,13.5-23.6,36.7-27.1,48.3c-5.9,19.7-10.1,74.7-4,90.6c3.6,9.3,8.6,14.9,15.4,17
		c16.4,5.1,40-11,57.2-22.8c7.5-5.1,13.9-9.5,18.4-11.3c0.9-0.4,2-0.1,2.7,0.7c0.7,0.8,0.7,1.9,0.2,2.8
		c-11.8,19.5-0.3,33.8,10.9,47.6c2.4,3,4.7,5.8,6.7,8.7c0.6,0.9,0.6,2-0.1,2.9c-5,6.3-12.6,13.8-21.3,22.4
		c-22.5,22.3-53.2,52.8-58.5,82.3c-4,22.3-0.8,37.7,9.5,45.6c15.9,12.2,46.3,4.9,67.5-5c0.8-0.4,1.6-0.3,2.3,0.2
		c0.7,0.5,1.1,1.3,1.1,2.1c-5.8,123.5-2.7,238.9,9.7,363c14.3,8.3,30.6,8.9,47.9,9.5c7.4,0.3,15,0.5,22.7,1.4
		c30,3.4,58.2,15.8,85.4,27.7c25.1,11,48.8,21.5,73.5,25.2c20.3,3.1,43.4,4.1,65.7,5.2c14.6,0.7,29.6,1.4,43.9,2.6
		c13.1,1.1,26.4,2.9,39.2,4.6c24.4,3.2,47.5,6.3,68.2,5.2c15.8-0.9,33.7-4.6,51-8.3c9-1.9,18.3-3.9,27.2-5.4
		c7.3-1.3,15-2.4,22.3-3.5c24.9-3.8,50.7-7.7,65.1-15.8c33.7-19,73.2-47.8,108.5-79.3c-1.3-29.2,1.3-58.7,4-89.9
		c3-34.4,6-70,3.9-106.8c-1.4-24.1-4.4-49.5-7.4-74c-4.7-39.1-9.6-79.5-8.3-118.3c0-1.2,1-2.2,2.1-2.3c27.2-2.6,50.5-13.6,75.1-25.1
		l4.5-2.1c5.4-2.5,11.1-4.9,16.6-7.2c19.2-8,39.1-16.3,51.1-33.2c24.1-34,35.5-116.8,30.9-172.9
		C1506.7,1236.4,1501.3,1215,1496.1,1194.3z M1278.3,1447.7c-0.3,0.1-0.6,0.2-0.8,0.2c-0.9,0-1.8-0.5-2.2-1.4
		c-0.5-1.1-0.1-2.5,1-3.1c5.7-3.1,11.7-6.1,17.4-9c24.2-12.3,49.3-25,64-47c0.4-0.6,1-1,1.8-1c0.7-0.1,1.4,0.2,1.9,0.7
		c3,3.1,3.6,7.9,4.2,12.5c0.1,0.8,0.2,1.7,0.3,2.5c0,0.2,0,0.3,0,0.5c0.6-0.5,1.5-0.7,2.3-0.4c16.4,5.7,30.8-4.6,41.2-12.2l1.7-1.2
		c0.9-0.6,2-0.6,2.8,0.1c0.8,0.6,1.1,1.8,0.7,2.7c-10.7,27-48.1,36.3-84.4,45.2c-9.5,2.4-18.5,4.6-26.9,7.1
		c-1.1,0.3-2.3-0.2-2.8-1.3c-0.5-1.1-0.2-2.3,0.8-3c8.5-5.7,18.2-10.3,27.6-14.8c11.3-5.4,23-11,32.5-18.5
		C1337.4,1420.4,1309.3,1436,1278.3,1447.7z M1207.1,1457.7c-1.1,0.1-2.1-0.6-2.5-1.7c-0.3-1.1,0.1-2.2,1.1-2.8c3-1.7,6-3.5,9-5.3
		c4.1-2.4,8.2-4.9,12.5-7.3c-15.1,7.4-31.2,14.3-51.4,17c-0.1,0-0.2,0-0.3,0c-1,0-1.9-0.6-2.2-1.5c-0.4-1,0-2.2,0.9-2.8
		c4.4-2.9,8.7-6.1,12.8-9.3c18.1-13.5,36.7-27.5,69.2-22.5c1,0.2,1.9,1,2,2c0.1,1-0.4,2.1-1.4,2.5c-5,2.2-10,4.6-14.8,7.1
		c10.8-4.8,22.8-8.4,37.2-9.7c1.1-0.1,2.2,0.6,2.5,1.7c0.3,1.1-0.2,2.3-1.2,2.8c-5.3,2.7-10.6,5.7-15.6,8.6
		c-1.2,0.7-2.4,1.4-3.7,2.1c6.7-3.2,13.5-6.4,20.2-9.7c14.3-6.8,28.7-13.7,43-20.5c0.9-2,3.3-2.3,4.3-2.4c0.3,0,0.7-0.1,1-0.2
		c1.1-0.3,2.3,0.2,2.8,1.3c0.5,1,0.2,2.3-0.8,3c-21.5,15.3-48.3,28.7-81.9,41.1c-0.8,1.5-2.4,2.3-4.2,2.2c-2.2-0.2-3.9-1.9-3.9-4
		c0-0.3,0-0.5,0.1-0.8C1231.8,1453.1,1220.5,1456.6,1207.1,1457.7z M652.9,1405.8c-10.2,0.1-20.8,0.3-27.3-3.3
		c-0.6-0.3-1-0.9-1.2-1.5c-11.2-43.7,3.1-91.4,32.5-108.5c0.8-0.4,1.7-0.4,2.4,0c0.7,0.5,1.2,1.3,1.1,2.1c-0.7,14,1.8,24.7,5.8,36.4
		c0.2,0.7,0.1,1.5-0.3,2.1c-3.1,4.7-7.4,8-11.6,11.2c-4.4,3.3-8.6,6.5-11.2,11.1c1.4,2.9,2.7,5.8,4,8.8
		c7.1,15.8,13.7,30.7,27.3,38.7c1,0.4,1.9,0.9,2.7,1.5c1,0.7,1.2,2.1,0.6,3.1c-0.4,0.7-1.2,1.1-2,1.1c-0.4,0-0.7-0.1-1.1-0.3
		c-0.8-0.4-1.6-0.8-2.3-1.2C668.1,1405.6,660.4,1405.7,652.9,1405.8z M658.5,1425.9c0,5.9-3.7,8.3-6.6,10.2c-1.4,0.9-2.8,1.8-3.6,3
		c-0.4,0.5-0.9,0.9-1.6,1c-0.1,0-0.3,0-0.4,0c-0.5,0-1-0.2-1.4-0.5c-0.7-0.5-1.8-1.9-1-4.6c1.1-3.8,6.2-11,12.1-11.4
		c0.7,0,1.3,0.2,1.8,0.6C658.2,1424.6,658.5,1425.3,658.5,1425.9z M649.8,1355.5c0-0.8,0.3-1.5,0.9-2c0.6-0.5,1.4-0.6,2.1-0.4
		c6.6,1.8,10.2,6.8,13.3,11.1c2.4,3.4,4.7,6.6,8.2,8.4c20.7,0.5,34.2-6.7,45.2-13.4c0.9-0.6,2.2-0.4,2.9,0.4
		c4.6,4.7,2.3,11.2,0.5,16.3c-0.9,2.5-1.7,4.8-1.8,6.7c1,5.2,4.6,8.1,11.8,9.6c0.8,0.2,1.5,0.8,1.8,1.6s0.1,1.7-0.5,2.3
		c-7.9,8.4-17.5,12.7-28,12.7c-5,0-10.2-1-15.4-2.9C669.2,1398,650.8,1375.3,649.8,1355.5z M722.4,1280.7c-2.2,2-2.7,3.5-3.3,5.2
		c-0.5,1.3-1,2.7-2.3,4.3c0,0,0,0,0,0c-5.6,7.2-8.3,8.7-10.1,8.7c-0.3,0-0.6,0-0.8-0.1c-1.2-0.3-2-1.3-2.2-2.6
		c-0.5-3.7,5.6-13.3,15.9-19.3c1-0.6,2.4-0.3,3.1,0.6C723.4,1278.5,723.3,1279.8,722.4,1280.7z M739.2,1271c1-0.6,2.3-0.4,3,0.5
		c0.8,0.9,0.8,2.2,0,3.1c-2.9,3.5-6,7-8.9,10.4c-4.2,4.9-8.6,9.9-12.6,15c-0.5,0.6-1.2,0.9-1.9,0.9c-0.3,0-0.7-0.1-1-0.2
		c-1-0.4-1.6-1.5-1.4-2.6C717.9,1290.3,730.1,1276.7,739.2,1271z M733.2,1304.2c3.2-2.6,6.5-5.2,9.7-7.6c0.7-0.5,1.7-0.6,2.5-0.2
		c0.8,0.4,1.3,1.3,1.3,2.2c-1.1,29.3-24.1,53.6-46.4,64.8c-0.3,0.2-0.7,0.3-1.1,0.3c-0.6,0-1.2-0.2-1.6-0.6
		c-10.7-9.8-23.3-24.3-26.2-48.5c-0.1-1,0.4-1.9,1.3-2.4c0.9-0.5,1.9-0.3,2.7,0.3C697.9,1332.7,715.1,1318.9,733.2,1304.2z
		 M777.4,1282.4c0.9-0.1,1.7,0.3,2.2,1c0.5,0.7,0.6,1.6,0.2,2.4c-3.3,7,2,17.8,7.6,25c0.5,0.6,0.6,1.4,0.4,2.1
		c-0.2,0.7-0.7,1.3-1.4,1.6c-11.9,4.7-24.2,10.1-32.5,19c-0.5,0.5-1.1,0.8-1.7,0.8c-0.3,0-0.6-0.1-0.9-0.2c-0.9-0.4-1.5-1.2-1.5-2.2
		C749.7,1310.6,756.9,1285,777.4,1282.4z M757.7,1273.3c1.8-4.1,7.9-9.5,14.4-8.5c0.6,0.1,1.2,0.5,1.6,1c0.4,0.5,0.5,1.2,0.4,1.8
		c-1,4.5-4.7,6.3-7.6,7.6c-1.8,0.9-3.6,1.7-4.5,3c-0.4,0.6-1,0.9-1.6,1c-0.1,0-0.2,0-0.4,0c-0.5,0-1.1-0.2-1.5-0.5
		C758,1278.4,756.2,1276.7,757.7,1273.3z M850.8,1261c3.9-1.9,8-3.9,12.1-5.8c0.7-0.3,1.5-0.3,2.1,0.1c0.7,0.4,1.1,1,1.2,1.8
		c2.9,21,3,51,0.5,73c9.7-7.1,7.3-38.4,5.7-59.8c-0.5-7-1-13.6-1.1-18.7c0-0.8,0.4-1.6,1.1-2c0.7-0.4,1.6-0.5,2.3-0.2
		c8.5,4,12.7,11.9,16.7,19.7c2.8,5.4,5.4,10.4,9.4,14.1c0.7,0.7,1,1.7,0.6,2.6c-2.2,5.4-4.2,11.2-6.2,16.8
		c-8.4,23.9-17.1,48.6-42.3,57.1c-0.2,0.1-0.5,0.1-0.8,0.1c-0.5,0-0.9-0.1-1.3-0.4c-23-15-51.1-37.1-63.7-75.7
		c-0.2-0.7-0.1-1.5,0.3-2.1c0.4-0.6,1.1-1,1.8-1C814.5,1278.9,832.1,1270.2,850.8,1261z M801.6,1261.4c4.5-3.7,11.2-4.8,17.6-5.9
		c1-0.2,2.1-0.3,3.1-0.5c1.1-0.2,2.2,0.4,2.6,1.5c0.4,1.1,0,2.3-0.9,2.9c-6.5,4.2-13.2,6.2-20.9,6.3c0,0,0,0,0,0
		c-1,0-1.9-0.6-2.2-1.6C800.5,1263.1,800.8,1262.1,801.6,1261.4z M1138.7,1209.9c1.1,0.2,2,1.2,2,2.4c-0.2,16.1-9.6,32.8-17.9,47.5
		c-2.8,5-5.5,9.8-7.8,14.3c-0.4,0.8-1.2,1.3-2.1,1.3c-0.3,0-0.5,0-0.8-0.1c-1.1-0.4-1.8-1.6-1.5-2.8c2.2-9.7,7.6-21,13.4-33
		c4.3-9,8.8-18.4,11.9-27.1c-0.1,0-0.2,0.1-0.3,0.1c-16.4,13.8-32.4,24.7-49,33.2c-0.4,0.2-0.8,0.3-1.2,0.3
		c-5.5-0.3-11.6-0.1-17.5,0c-15,0.4-30.5,0.9-38.8-6.5c-0.7-0.6-0.9-1.5-0.7-2.3c0.2-0.9,0.9-1.5,1.7-1.7c7.4-2,15-3.9,22.4-5.8
		c27.3-7,55.6-14.2,79.1-25.4c0.5-0.3,1.1-0.3,1.7-0.1c2.1,0.6,5.2,2.8,5,5.4c0,0.1,0,0.2-0.1,0.4
		C1138.2,1209.9,1138.4,1209.9,1138.7,1209.9z M1316.9,1154.6c0.3,0.8,0.2,1.7-0.4,2.4c-10.4,12.6-30.4,17.8-50.9,17.8
		c-18.7,0-37.8-4.3-50.1-11.4c-0.8-0.5-1.3-1.4-1.2-2.4c2-13.8,17.8-23.6,42.1-26.3C1281.1,1132,1310.6,1138.1,1316.9,1154.6z
		 M1282.2,1121c0.5-1.5,0.9-2.7,14.7-3.2c0.2,0,0.6-0.3,0.9-0.5c1.6-1,4.2-2.6,9.5-1.4c0.9,0.2,1.7,1,1.8,1.9c0.2,1-0.3,1.9-1.1,2.4
		c-5.2,3.2-13.3,4.6-19,4.6c-2.9,0-5.2-0.4-6-1C1282.2,1123.1,1281.9,1122,1282.2,1121z M1419.9,1188.4c0.7-0.2,1.5,0,2.1,0.5
		c0.6,0.5,0.9,1.2,0.9,2c-0.5,9.4-12,17.5-22.1,24.6c-2.3,1.6-4.4,3.1-6.3,4.5c-0.4,0.3-0.9,0.5-1.4,0.5c-0.6,0-1.2-0.2-1.7-0.7
		c-0.8-0.8-1-2.1-0.3-3.1c1.5-2.1,3-4.4,4.4-6.6C1401.4,1201.1,1407.5,1191.7,1419.9,1188.4z M1396.8,1193.6
		c3.2-6.4,8.3-10.8,15.1-13c0.7-0.2,1.6-0.1,2.2,0.4c0.6,0.5,1,1.2,0.9,2c-0.4,6-6.6,11.1-10.6,13.1c-1.6,0.8-3.1,1.2-4.4,1.2
		c-1,0-1.8-0.2-2.5-0.7C1396.6,1195.9,1396.3,1194.6,1396.8,1193.6z M1390.8,1235.2c2.7-10.6,10.2-16.2,17.5-21.6
		c5.6-4.2,11-8.1,14-14.2c0.5-1.1,1.8-1.6,2.9-1.2c5.4,1.9,6.8,7.2,7.5,11.7c0,0.2,0,0.4,0,0.6c8.1,3.2,11.2,11.2,14,18.3
		c1.1,2.8,2.1,5.4,3.4,7.7c0.3,0.6,0.4,1.4,0.1,2.1c-0.3,0.7-0.9,1.2-1.6,1.3c-5.1,1.3-10.9,2-16.4,2.7c-11.8,1.4-24,2.9-29.3,10.2
		c-0.5,0.6-1.2,1-1.9,1c-0.1,0-0.2,0-0.3,0c-0.9-0.1-1.6-0.7-1.9-1.6c-2.9-8.2,5.4-15.5,14.2-23.3c5.6-5,11.3-10.1,14.2-15.3
		c-6.1,2.3-10.9,7.5-15.6,12.5c-5.7,6.1-11,11.8-18.3,12c-0.8,0-1.5-0.3-1.9-0.9C1390.7,1236.7,1390.6,1235.9,1390.8,1235.2z
		 M1410.6,1280.4c10.8,25.9,4.4,54.4-16.1,70.9c-0.4,0.3-1,0.5-1.5,0.5c-0.2,0-0.4,0-0.6-0.1c-24.3-6.9-43.9-19-58-36
		c-0.3-0.4-0.5-0.9-0.5-1.4c-0.6-11.7,0.8-21.9,4.1-30.4c0.3-0.8,1-1.4,1.9-1.5c8.6-1.3,16.9-0.3,24.8,0.6
		c7.6,0.9,14.9,1.7,21.2,0.2c-5.8-9.1-28.2-8.4-42-8c-3,0.1-5.5,0.1-7.6,0.2c-0.9,0-1.6-0.5-2.1-1.2c-4.6-8.4,0.3-19.2,3.9-27.1
		c0.7-1.6,1.4-3,1.9-4.3c0.3-0.8,1.1-1.4,1.9-1.5C1378.8,1237.2,1401.6,1258.8,1410.6,1280.4z M1158.7,1379c-3.2,1.3-6.5,2.6-9.6,4
		c-0.3,0.2-0.7,0.2-1,0.2c-0.7,0-1.5-0.3-1.9-1c-4.5-6.1-9.6-11.8-14.6-17.3c-10.4-11.5-21.3-23.3-26.9-40.2
		c-0.3-0.8-0.1-1.7,0.5-2.3c0.6-0.6,1.5-0.9,2.3-0.7c10.2,2.4,19.4,6,28.3,9.4c15.8,6.1,30.7,11.9,51.5,12.1c0.6,0,1.2,0.3,1.7,0.7
		c0.4,0.5,0.7,1.1,0.7,1.7C1189.2,1367,1173,1373.4,1158.7,1379z M1170.5,1409.2c-1.1,1.6-2.1,3.1-2.7,4.2c-0.4,0.8-1.2,1.3-2.1,1.2
		c-2,0-4,0-6,0c-1.5,0-3.1,0-4.6,0c-5.8,0-11.5-0.3-15.8-2.2c-0.7-0.3-1.1-0.9-1.3-1.6c-0.2-0.7,0-1.4,0.4-2
		c5-6.8,12-11.6,18.8-16.2c5.4-3.6,10.5-7.1,14.7-11.5c0.8-0.9,2.2-1,3.1-0.3C1184.7,1387.9,1175.8,1401.2,1170.5,1409.2z
		 M1063.7,1376.4c2.3,7.9,4.8,16.1,8.2,23c0.4,0.7,0.3,1.6-0.1,2.3c-0.4,0.7-1.2,1.1-2,1.1H1054c-1.2,0-2.2-0.9-2.4-2.1
		c-0.5-5.1-2.4-10.8-4.4-16.9c-4.2-12.9-9-27.6-1.1-39.6c0.4-0.6,1.1-1,1.9-1.1c0.8,0,1.5,0.3,2,0.9c3.4,4.5,6,9.9,8.2,15.5
		c-1.4-6.6-1.4-13,1.5-19c0.3-0.6,0.8-1.1,1.5-1.3s1.3-0.1,1.9,0.2c7.1,4.3,9.8,12.6,12.4,20.7c2.1,6.4,4,12.6,8.1,16.3
		c0.1-6.4-3.6-13-7.4-19.9c-2.6-4.7-5.3-9.6-6.7-14.5c-0.3-0.9,0.1-1.9,0.8-2.5c6.3-4.9,12.8-6.5,19.1-4.9
		c17.7,4.6,29.9,33.4,37.3,50.6l0.1,0.3c0.5,1.1,0,2.5-1.1,3c-12.5,6.6-28.7,10.6-48,12c-1.1,0.1-2-0.6-2.4-1.6
		c-1.5-4.2-4-9-6.6-14.1c-2.2-4.3-4.5-8.8-6.4-13.3C1062.7,1373.4,1063.2,1374.9,1063.7,1376.4z M1026.1,1353.3
		c0-1.3,1.1-2.3,2.4-2.3h3.9c0.8,0,1.6,0.4,2.1,1.2c5.4,9.3,7.8,21.6,10,33.5c1.2,6,2.3,12.3,3.9,18c0.2,0.8,0,1.7-0.6,2.3
		c-0.5,0.5-1.1,0.7-1.7,0.7c-0.2,0-0.4,0-0.6-0.1C1024.7,1401.2,1025.5,1374.7,1026.1,1353.3z M1018.9,1336.7
		c-0.4,0.8-1.2,1.4-2.1,1.4c-0.1,0-0.2,0-0.3,0c-5.7,0-7.1-4.6-8.1-7.7c-0.7-2.3-1.2-3.8-2.4-4.2c-0.7-0.3-1.2-0.8-1.4-1.5
		c-0.2-0.7-0.1-1.4,0.3-2c2.8-4.4,6.6-7.9,10.2-11.2c3.5-3.3,6.9-6.4,9.4-10.3c0.6-0.9,1.7-1.3,2.7-1c1,0.3,1.7,1.2,1.7,2.3
		C1029,1310,1022.5,1328.5,1018.9,1336.7z M1031.6,1273.3c-1.1-0.4-1.7-1.5-1.5-2.7c0.2-1.1,1.2-1.9,2.4-1.9
		c23.4,0.4,55.8,11.7,73.3,17.8c0.6,0.2,1.1,0.7,1.4,1.3s0.3,1.3,0,1.9c-2,4.8-4.9,8.6-7.8,12.2c-3.2,4.1-6.2,7.9-7.8,13.1
		c-0.3,1-1.2,1.7-2.3,1.7c0,0,0,0,0,0c-20.5-0.4-38.1,3.4-53.7,11.5c-0.3,0.2-0.7,0.3-1.1,0.3c-0.4,0-0.9-0.1-1.2-0.4
		c-0.7-0.4-1.1-1.2-1.1-2c0-3.9,1.8-9.2,3.9-15.3C1041.9,1292.8,1045.5,1278.7,1031.6,1273.3z M1168.1,1333.8
		c-19.8-6.7-40.3-13.7-61.8-19.2c-0.6-0.2-1.1-0.6-1.5-1.1c-0.3-0.6-0.4-1.2-0.2-1.8c4.3-15.6,19.1-20.4,33.4-25
		c15.4-5,29.9-9.7,31.2-27.5c0.1-0.7,0.5-1.4,1.1-1.8c0.6-0.4,1.4-0.5,2.1-0.2c3.6,1.3,5.1,4.4,6.4,7.2c0.9,1.9,1.8,3.6,3.1,4.5
		c7.5,0.2,15.1,0.3,20-1.8c0.7-0.3,1.6-0.2,2.3,0.2c0.7,0.5,1.1,1.2,1,2c-0.2,5.7-0.1,11.7-0.1,17.5c0.2,21.2,0.4,43.1-10.4,54.6
		c-0.5,0.5-1.1,0.7-1.7,0.7c-0.2,0-0.5,0-0.7-0.1C1184.2,1339.3,1176,1336.5,1168.1,1333.8z M1265.9,1340.7
		c22.3-8.6,43.3-16.7,52.6-31.7c0.5-0.8,1.5-1.3,2.5-1.1c1,0.2,1.7,0.9,1.9,1.9c3.3,18.6,16.9,26.8,31.4,35.5
		c4.3,2.6,8.7,5.2,12.7,8.1c0.5,0.4,0.9,1,1,1.6c0.1,0.7-0.1,1.3-0.5,1.8c-15.6,18.4-51.7,48.1-79.7,53.7c-4.4,0.9-8.7,1.2-13.1,1.2
		c-8.9,0-17.8-1.4-27-2.9c-14-2.3-28.4-4.6-44.2-2.2c-0.7,0.1-1.3-0.1-1.9-0.5c-0.5-0.4-0.8-1-0.9-1.7
		C1198.7,1366.6,1232.8,1353.4,1265.9,1340.7z M1249.9,1182.4c-7.5,9.4-15.9,18.5-25.7,27.7c-0.5,0.4-1,0.6-1.6,0.6
		c-0.5,0-1-0.2-1.4-0.5c-0.9-0.7-1.2-2-0.7-3c8.3-16,17.6-25.9,26.9-28.6c1-0.3,2.1,0.1,2.6,0.9
		C1250.6,1180.5,1250.5,1181.6,1249.9,1182.4z M1269.7,1178.6c1,0.1,1.8,0.7,2.1,1.6c0.3,0.9,0,2-0.8,2.6c-3.2,2.6-5.8,6-8.5,9.5
		c-5.7,7.5-12.2,16.1-26.3,16.5c0,0-0.1,0-0.1,0c-1,0-1.9-0.7-2.3-1.6c-0.3-1,0.1-2.1,0.9-2.7c3.8-2.5,6.4-6.4,9.1-10.4
		C1249.2,1186.4,1255,1177.8,1269.7,1178.6z M1224.3,1219.2c0.4-1,1.5-1.6,2.6-1.5c5.5,0.9,10.4,0.1,15.1-0.6
		c5.8-0.9,11.4-1.8,16.9,0.8c0.8,0.4,1.3,1.1,1.4,2c0.3,5.2,0.7,10.4,1.1,15.3c2.1,26.4,3.9,49.3-11.6,64.9
		c-0.4,0.4-0.9,0.6-1.4,0.7c-2.3,0.3-4.5,0.4-6.6,0.4c-9.8,0-17.8-2.9-24.6-8.8c-0.4-0.3-0.6-0.7-0.8-1.2
		C1209.1,1262.2,1219.5,1231.2,1224.3,1219.2z M1271.2,1240.4c-0.4-1.2,0.3-2.5,1.4-2.9c11.3-4.2,21.3-10.4,30.6-19.1
		c0.6-0.5,1.3-0.8,2.1-0.6c0.8,0.2,1.4,0.7,1.7,1.4c7.5,17,8.1,33.2,1.8,47c-5.7,12.4-17.2,22.5-31.9,28.4c5.5,0.5,10.9-2,16.2-4.5
		c3.2-1.5,6.2-2.9,9.2-3.6c0.9-0.2,1.8,0.1,2.4,0.8c0.6,0.7,0.7,1.7,0.3,2.5c-7,14.2-20.4,22.1-32.4,28.5c-0.3,0.2-0.7,0.3-1.1,0.3
		c-0.4,0-0.9-0.1-1.3-0.4c-16.5-10.2-10.9-22.9-5.1-36.2C1270.4,1270.1,1276.3,1256.8,1271.2,1240.4z M1348.4,1232
		c1.2-0.9,2.3-1.9,3.4-2.9c6.1-5.5,13.1-11.6,27.9-9.4c0.5,0.1,0.9,0.3,1.3,0.6c3,2.8,2.9,7.8,2.7,12.6c0,1,0,1.9,0,2.9
		c0,0.8-0.4,1.5-1.1,2c-0.4,0.3-0.9,0.4-1.3,0.4c-0.3,0-0.6-0.1-0.9-0.2c-5-2.1-12.8-1.9-20.3-1.8c-3.4,0.1-6.9,0.1-10.2,0
		c-1,0-1.8-0.7-2.2-1.6C1347.4,1233.7,1347.7,1232.6,1348.4,1232z M1383.5,1209.3c-0.3,0.7-1,1.2-1.7,1.4c-4.6,0.8-8.8,1.3-12.7,1.3
		c-8.7,0-15.8-2.1-21.4-6.4c-14-10.7-15.9-32.6-17.7-53.8c-0.1-1.3,0.8-2.4,2.1-2.6c6-0.6,10.5,0.2,14.9,1.1
		c4.5,0.8,8.7,1.6,14.4,0.9c0.9-0.1,1.7,0.3,2.2,1c1.3,1.7,2.6,3.6,4.1,5.5C1378,1171.1,1392.1,1189.7,1383.5,1209.3z
		 M1340.5,1211.9c0.1,0.7-0.1,1.3-0.5,1.9s-1,0.8-1.7,0.9c-0.2,0-0.4,0-0.6,0c-3.3,0-5.3-1.4-6.9-2.5c-1.7-1.2-3-2-5.9-1.5
		c-0.8,0.2-1.6-0.1-2.2-0.7c-0.5-0.6-0.8-1.4-0.5-2.2c0.5-1.9,1.7-2.9,2.6-3.8c0.8-0.8,1.2-1.2,1.3-1.8c0.2-1.3,1.4-2.1,2.7-2
		C1335.4,1201.2,1339.5,1205.2,1340.5,1211.9z M1323.4,1187c-2.5,11.4-16.6,20.5-30.2,29.2c-8.4,5.3-16.2,10.4-19.7,15.1
		c-0.5,0.6-1.2,1-1.9,1c-0.3,0-0.5,0-0.8-0.1c-1-0.4-1.6-1.3-1.6-2.4c0.6-9-0.7-14.9-3.7-18.1c-2.1-2.2-5.2-3.1-9.5-2.9
		c-0.9,0-1.7-0.4-2.2-1.2c-0.4-0.8-0.4-1.7,0.1-2.5c11.5-17.4,28.4-29.6,50.3-36.2c0.8-0.2,1.6-0.1,2.3,0.5c3.9,3.5,1.4,8-0.6,11.7
		c-1,1.8-2,3.6-2.4,5.3c5.5-0.6,7.8-4.3,10.6-8.8c0.8-1.3,1.6-2.7,2.6-3.9c0.5-0.6,1.2-1,2-1c0.8,0,1.5,0.4,1.9,1.1
		C1323.4,1178.1,1324.4,1182.6,1323.4,1187z M1228.5,1177.5c0.6-0.9,1.8-1.2,2.8-0.8c1,0.4,1.6,1.4,1.4,2.5
		c-0.9,6.8-11.5,21.4-23.5,23.6c-0.1,0-0.3,0-0.4,0c-0.9,0-1.7-0.5-2.1-1.4c-0.5-1-0.2-2.1,0.6-2.8
		C1214.3,1192.7,1222.3,1185.8,1228.5,1177.5z M1209.2,1230.1c-0.8,11.6-9.7,25.1-20.8,31.3c-0.4,0.2-0.8,0.3-1.2,0.3
		c-0.3,0-0.6,0-0.8-0.1c-0.7-0.2-1.2-0.8-1.4-1.4c-6.8-18.5-18.4-32.8-29.6-46.6c-3-3.8-6.2-7.6-9.2-11.5c-0.8-1-0.6-2.5,0.4-3.3
		c13.5-10.4,29.7-12.3,43.2-5.1C1202.8,1200.5,1210.3,1214.5,1209.2,1230.1z M1159.6,1234.5c1.9,3.5,3.7,6.9,6,9.6
		c0.6,0.7,0.7,1.6,0.4,2.5c-7.7,18.3-22.2,28.7-43.1,30.8c-0.1,0-0.2,0-0.2,0c-0.7,0-1.4-0.3-1.9-0.9c-0.5-0.6-0.6-1.5-0.4-2.3
		c2.6-7.1,5.7-13.7,8.7-20c5-10.5,10.2-21.4,12.7-34.5c0.1-0.7,0.6-1.3,1.2-1.6c0.6-0.3,1.4-0.4,2.1-0.1
		C1152.5,1221.2,1156.1,1228,1159.6,1234.5z M1034.2,1285.1c0.9,0.9,0.8,2.4-0.1,3.3c-2.6,2.5-5.2,5.7-8.1,9
		c-7.5,9-16,19.1-26.4,19.1c-0.2,0-0.4,0-0.6,0c-0.9,0-1.6-0.5-2-1.3c-0.4-0.8-0.4-1.7,0.1-2.4c0.8-1.3,1.7-2.8,2.8-4.5
		c6.7-11,15.8-26,25.5-27C1028.6,1281.1,1031.6,1282.4,1034.2,1285.1z M1022.7,1274.2c-5.3,9.4-18.6,27.4-31.2,28.6
		c-0.1,0-0.1,0-0.2,0c-0.7,0-1.4-0.3-1.8-0.9c-0.5-0.6-0.7-1.4-0.4-2.2c4.8-15.8,18.5-22.8,30.6-28.9c0.9-0.5,2.1-0.3,2.8,0.5
		C1023.1,1272.2,1023.3,1273.3,1022.7,1274.2z M993,1316.1c4.8,7.9,9.3,15.3,17,19.5c0.7,0.4,1.1,1,1.2,1.7c0.1,0.7-0.1,1.5-0.7,2
		c-7,7.1-15.9,11.9-26.6,14.4c-0.2,0-0.4,0.1-0.5,0.1c-0.8,0-1.6-0.4-2.1-1.2c-2.1-3.8-4-7.8-5.8-11.7c-2.8-6.1-5.8-12.4-9.7-17.4
		c-0.5-0.7-0.7-1.7-0.3-2.5l0.3-0.6c3.3-6.9,6.4-13.4,7.4-22.2c0.1-0.8,0.6-1.6,1.4-1.9c0.8-0.3,1.6-0.3,2.3,0.2
		C984.1,1301.5,988.7,1308.9,993,1316.1z M960.2,1301.2c-0.2,0.7-0.7,1.3-1.4,1.5c-4.1,1.6-8.2,3-12.3,3c-4.1,0-8.2-1.4-11.9-5.6
		c-0.5-0.6-0.7-1.3-0.6-2c0.8-4.3,1.5-8.6,2.3-12.9c2.5-14.5,5.1-29.4,9.6-42.3c0.4-1.1,1.5-1.7,2.6-1.6c5,0.7,8.5-0.1,12.3-0.9
		c2.1-0.4,4.3-0.9,6.8-1.1c0.7,0,1.3,0.2,1.8,0.6c0.5,0.4,0.8,1.1,0.8,1.7C970.6,1265.8,965.1,1284.6,960.2,1301.2z M949.2,1319.3
		c10.3,5.9,20.1,18.9,19,32.3c-0.1,0.7-0.4,1.3-0.9,1.7c-0.4,0.3-0.9,0.5-1.4,0.5c-0.2,0-0.3,0-0.5,0l-1.8-0.4
		c-8.8-1.8-17.1-3.4-27.1-3.5c-0.7,0-1.4-0.4-1.9-1c-0.4-0.6-0.6-1.4-0.4-2.1c0.5-1.9,0.2-2.4-0.5-3.4c-0.8-1.2-2-2.9-1.5-6.1
		c0.1-0.4,0.3-0.8,0.5-1.1c-0.3,0-0.5,0-0.8-0.1c-0.9-0.2-1.5-1-1.7-1.8c-1.9-10,0.9-14.4,3.5-16.3
		C937.4,1315.3,943,1315.8,949.2,1319.3z M982.2,1366.8c0.5,0.2,0.9,0.5,1.2,0.9c3.9,5.6-3.1,12.9-9.8,20c-1.5,1.5-2.9,3-4.1,4.4
		c-6.4,7.4-14.6,16.5-21.9,21.9c-0.4,0.3-0.9,0.5-1.4,0.5c-0.1,0-0.1,0-0.2,0l-7.2-0.5c-42.5-2.7-86.5-5.5-120.8-17.3
		c-1-0.4-1.7-1.4-1.6-2.5c0.6-5.9,2.3-10.6,3.9-15.2c2-5.5,3.8-10.7,3.9-17.8c0-1.1,0.7-2,1.8-2.3c1-0.3,2.1,0.2,2.7,1.1
		c3.3,5.9,8.5,9.5,15.5,10.8c15,2.8,33.3-6.1,39.7-11.4c0.5-0.4,1.1-0.6,1.7-0.5c9.6,0.6,19.8,0.7,29.7,0.8
		C938.3,1359.9,962.2,1360.2,982.2,1366.8z M788.9,1351.4c3.4-5,7.2-10.6,8-16c0.1-0.9,0.7-1.6,1.6-1.9c0.8-0.3,1.8-0.1,2.4,0.5
		c2.1,1.9,3.1,4.1,3.2,6.6c0.1,5.8-5.2,11.2-10.3,16.5c-2.6,2.7-5,5.2-6.2,7.2c-0.4,0.8-1.2,1.2-2.1,1.2c-0.2,0-0.4,0-0.6-0.1
		c-1-0.3-1.8-1.2-1.7-2.3C783.2,1359.8,785.7,1356.1,788.9,1351.4z M781.9,1358c-0.2,0.7-0.8,1.3-1.5,1.6c-0.3,0.1-0.5,0.1-0.8,0.1
		c-0.5,0-0.9-0.1-1.3-0.4c-2.1-1.4-2.7-3.2-2.7-4.4c-0.2-4,4.2-7.6,7.1-10c0.5-0.4,0.9-0.8,1.3-1.1c0.8-0.7,1.9-0.8,2.8-0.3
		c1.7,1,2.2,2.3,2.3,3.3c0.4,2.7-1.9,5.1-4.2,7.6C783.7,1355.5,782.1,1357.2,781.9,1358z M810.4,1343.3c1.4,0,6.2,0.4,6.9,7.9
		c0.1,0.7-0.2,1.5-0.8,2c-0.5,0.5-1.3,0.7-2,0.6c-2.9-0.5-4.2,0.3-5.9,1.5c-1.6,1.1-3.6,2.5-6.9,2.5c-0.2,0-0.4,0-0.6,0
		c-1.3-0.1-2.3-1.1-2.3-2.4C798.9,1350,805.2,1343.5,810.4,1343.3z M915.7,1259.6c-3,4.2-6.1,8.6-6.3,13.5c0,1-0.7,1.9-1.7,2.2
		c-0.2,0.1-0.5,0.1-0.7,0.1c-0.7,0-1.4-0.3-1.9-0.9c-7.3-9.5-12.2-17.5-16-26c-0.5-1.2,0-2.5,1.1-3.1c3.8-1.9,9.1-1.9,14.3-1.9
		c5,0,10.2,0,12.9-1.8c0.6-0.4,1.4-0.5,2.1-0.3c0.7,0.2,1.2,0.8,1.5,1.4C923.3,1249,919.4,1254.4,915.7,1259.6z M800,1327.6
		c0.9,0.3,1.5,1.1,1.6,2c0.1,0.9-0.4,1.8-1.2,2.3c-4.3,2.4-8.6,4.8-12.8,7.2c-15.2,8.6-30.8,17.5-48.2,24.3
		c-0.3,0.1-0.6,0.2-0.9,0.2c-0.8,0-1.6-0.4-2.1-1.2c-0.6-1-0.3-2.3,0.6-3c3.4-2.7,7-6.1,10.9-9.7
		C761.9,1336.6,779.4,1320.3,800,1327.6z M719.4,1412.2c12.4-9,26.9-16,40.9-22.7c15.8-7.6,32.2-15.5,45.2-26.2
		c0.8-0.7,2-0.7,2.9-0.1c0.9,0.6,1.2,1.7,0.9,2.7c-10,29.5-45.6,49.8-88.4,50.6c0,0,0,0,0,0c-1,0-1.9-0.7-2.3-1.6
		C718.2,1413.9,718.6,1412.8,719.4,1412.2z M795.6,1434.4c13.6-9.1,27.7-18.5,52.8-16.7c1,0.1,1.8,0.7,2.1,1.6
		c0.3,0.9,0,1.9-0.7,2.5l-2.4,2.1c-13,11.2-26.4,22.7-51.1,22.7c-3.4,0-7.1-0.2-11-0.7c-1-0.1-1.8-0.9-2-1.9c-0.2-1,0.3-2,1.2-2.5
		C788.2,1439.3,791.9,1436.8,795.6,1434.4z M833.1,1441.7c2.4-1.8,4.7-3.7,6.9-5.7c9.2-7.9,18.6-16,37.8-14.4c1,0.1,1.9,0.8,2.1,1.8
		c0.2,1-0.2,2.1-1.1,2.6c-3.4,2-6.6,4.3-9.7,6.6c-8.9,6.5-18.1,13.3-34,13.3c-0.2,0-0.4,0-0.6,0c-1,0-1.9-0.7-2.2-1.6
		C831.9,1443.3,832.2,1442.3,833.1,1441.7z M858.8,1443.4c3.6-2,7-4.4,10.3-6.8c10.1-7.2,20.6-14.7,40.1-13.1c1,0.1,1.8,0.8,2.1,1.8
		s-0.1,2-1,2.6c-2.6,1.8-5.1,3.8-7.6,5.7c-9.2,7.3-18.7,14.7-35.7,14.7c-2.3,0-4.7-0.1-7.3-0.4c-1-0.1-1.9-0.9-2.1-1.9
		C857.4,1445,857.9,1443.9,858.8,1443.4z M888.8,1445.2c5.9-1.5,10.6-5.6,15.6-9.9c5.7-5,11.6-10.1,19.9-11.7c0,0,0,0,0,0
		c6-1.1,11.5-0.5,16.9,0.1c9.7,1.1,17.4,1.9,24.8-7.1c0.4-0.5,1-0.8,1.6-0.9c0.6,0,1.3,0.2,1.8,0.6c8.2,7.2,20.8,10.3,37.5,9.2
		c2.1-0.3,2.8-2.1,3.8-6.3c0.5-2.2,1-4.4,2.2-6.3c0.5-0.8,1.3-1.2,2.2-1.1c0.9,0.1,1.7,0.7,2,1.5c3.4,8.4,10.2,14.3,20.2,17.4
		c25.1,7.9,64.7-3.2,82.1-14.6c0.4-0.3,1-0.4,1.5-0.4c7.7,0.7,12.2,4.7,16.2,8.2c2.6,2.3,5,4.4,8.1,5.7c0.7,0.3,1.2,0.9,1.4,1.6
		c0.2,0.7,0,1.5-0.4,2c-7.2,9.3-16.3,17.8-28,26c-0.4,0.3-0.9,0.4-1.3,0.4c-2.1,0-4.1,0-6.2,0c-45.8,0-84.9-2.5-126.2-5.1
		c-30.1-1.9-61.2-3.9-95.1-4.8c-1.2,0-2.2-0.9-2.3-2.1C886.9,1446.6,887.6,1445.5,888.8,1445.2z M1127.4,1455.1
		c4.7-2.4,7.8-6.5,11-11c5.5-7.6,11.8-16.1,27.5-14.8c0.9,0.1,1.7,0.7,2,1.6c0.3,0.9,0.1,1.9-0.6,2.5c-2.4,2.2-4.7,4.7-6.9,7.1
		c-7.9,8.6-16.1,17.6-31.8,19c-0.1,0-0.1,0-0.2,0c-1.1,0-2-0.7-2.3-1.7C1125.9,1456.8,1126.4,1455.7,1127.4,1455.1z M1148.7,1455.3
		c5.2-3.7,9.8-8.4,14.2-12.9c12.1-12.3,24.6-25.1,52-22.8c1,0.1,1.9,0.9,2.1,1.9c0.2,1-0.3,2.1-1.2,2.6c-7.3,3.9-14.1,8.6-20.6,13.1
		c-13,8.9-26.4,18.1-44.6,22.4c-0.2,0-0.4,0.1-0.5,0.1c-0.9,0-1.8-0.5-2.2-1.4C1147.4,1457.2,1147.7,1456,1148.7,1455.3z
		 M1379.9,1391c-0.2,0.1-0.4,0.1-0.6,0.1c-0.5,0-0.9-0.1-1.3-0.4c-0.6-0.4-0.9-1-1-1.6c-1.2-8.3,0.4-13.8,1.9-19.1
		c0.8-2.9,1.6-5.7,2-8.9c0.1-0.7,0.5-1.4,1.1-1.8c0.6-0.4,1.4-0.5,2-0.2c18.5,6.3,25.6-6.6,32.5-19c0.6-1.2,1.3-2.3,1.9-3.4
		c0.4-0.6,1-1.1,1.8-1.2c0.7-0.1,1.5,0.2,2,0.7c1.2,1.2,2.3,2.6,3.3,3.9c3.3,4.2,5.8,7.5,12.5,7.2c0.9,0,1.8,0.4,2.2,1.3
		c0.4,0.8,0.4,1.8-0.2,2.5C1425.5,1370.8,1405.3,1384.3,1379.9,1391z M1426.2,1329c-0.3-0.5-0.3-1.1-0.2-1.7
		c5.7-23.1-2.8-38.3-11.1-53c-2.2-3.9-4.5-7.9-6.4-12c-0.6-1.2-0.1-2.6,1.1-3.1c13.3-6.8,27.4-9.3,44.4-8.1c0.8,0.1,1.5,0.5,1.9,1.3
		c1.1,2,2.4,4.2,3.8,6.5c6.4,10.6,15.1,25.1,12.1,44c-2.5,15.6-14.6,34.6-28.1,36.8c-0.8,0.1-1.7,0.2-2.6,0.2
		C1436.5,1339.9,1430.8,1337.7,1426.2,1329z M1455.9,1216.1c-7.3-20.3-14.2-39.5-31-53c-24.9-19.9-65.5-24.3-108.5-28.9
		c-1.1-0.1-2-1.1-2.1-2.2s0.7-2.2,1.8-2.5c47.2-11.6,89.9-4,120.4,21.3c28.7,23.9,43.8,61.3,41.3,102.6c-0.1,1-0.8,1.9-1.7,2.1
		c-0.2,0.1-0.4,0.1-0.6,0.1c-0.8,0-1.5-0.4-2-1.1C1465.5,1243,1460.6,1229.4,1455.9,1216.1z M1404.5,1036.1c0.7,0.7,0.9,1.8,0.5,2.7
		c-0.4,0.9-1.4,1.5-2.4,1.3c-8.8-1-18.4-4.2-28.6-7.4c-9.6-3.1-20.1-6.5-31.1-8.5c7,2.4,14.3,4.6,21.4,6.7
		c22.3,6.6,45.3,13.5,59.9,28.7c0.7,0.8,0.9,1.9,0.3,2.8c-0.5,0.9-1.6,1.4-2.6,1.1c-6.8-1.6-14.6-4.4-22.9-7.3
		c-16.8-5.9-36.9-13-57.3-13.4c4.3,1,8.6,1.9,12.8,2.8c36.3,7.8,73.8,15.9,89.6,45.8c0.5,1,0.3,2.2-0.5,2.9c-0.8,0.7-2,0.8-2.9,0.2
		c-37.4-25.9-72.6-37.8-106.7-36.1c67,6.3,107.9,27.6,127.8,66.4c0.5,0.9,0.3,2-0.4,2.8c-0.7,0.7-1.9,0.9-2.8,0.4
		c-8.7-4.5-17.1-10.6-26-17.1c-17.3-12.5-36.6-26.4-61.9-31.6c46.8,19.3,94.5,40,103.1,99.1c0.2,1.2-0.6,2.3-1.7,2.6
		c-1.2,0.3-2.4-0.3-2.8-1.4c-31.9-81.3-157.7-72.4-268.7-64.6c-7.1,0.5-14,1-20.9,1.4c-18.3,1.2-37.1,5-55.4,8.6
		c-13.3,2.6-27.1,5.4-40.5,7.1c-62.3,8-115.5,21.8-171.8,36.5l-10.1,2.6c-9.3,2.4-18,4.9-26.4,7.4c-25.8,7.5-50.1,14.5-83.9,16.2
		c-61.6,3.1-104.9,25.7-144,48.7c-0.4,0.2-0.8,0.3-1.2,0.3c-0.8,0-1.5-0.4-2-1.1c-0.7-1.1-0.4-2.5,0.6-3.2
		c109.6-77.8,243.5-124.8,388.4-136.5c-2.3-0.1-4.6-0.2-7-0.4c-1.2-0.1-2.1-1-2.2-2.2c-0.1-1.2,0.7-2.2,1.8-2.5
		c17.2-4,33.9-8.8,50.1-13.5c11.7-3.4,23.8-6.8,36-10c1.2-0.3,2.4,0.3,2.8,1.5c0.4,1.1-0.1,2.4-1.2,3c-2.7,1.4-5.4,2.7-8.1,4.1
		c-14.5,7.5-29.4,15.1-48.7,18.4c13.1-0.8,25.6-1.7,37.7-2.7c-0.5,0-1,0-1.6,0c-1.1,0-2.1-0.8-2.3-1.9c-0.2-1.1,0.3-2.2,1.3-2.7
		c35.3-16.6,79.7-23.3,122.5-29.7c17.4-2.6,35.4-5.3,52.3-8.7c-0.7,0-1.3-0.1-1.9-0.3c-0.8-0.2-1.4-0.8-1.7-1.5
		c-0.3-0.8-0.1-1.6,0.4-2.2c6.3-8.2,17.3-11.4,28.4-14c-0.2-0.1-0.4-0.2-0.6-0.3c-1.7-1.4-2.5-2.9-2.5-4.5c0-2.5,2.1-4.1,4.1-5.7
		c1-0.8,1.9-1.5,2.5-2.2c-2.7,1.2-5.5,3.3-8.6,5.8c-6.8,5.3-15.2,11.9-27.5,11c-0.4,0-0.7-0.1-1-0.3c-2.1-1.2-3.2-2.7-3.3-4.4
		c-0.1-3.2,3.1-5.2,7.2-7.9c2.1-1.4,4.6-3,6.3-4.7c-3.7,2-7.1,4.5-10.5,7.1c-8.9,6.8-18.2,13.8-36,12.2c-0.2,0-0.5-0.1-0.7-0.2
		c-1-0.4-3.7-1.5-3.8-4c-0.1-2.7,2.7-4.1,6.2-6c2.7-1.4,5.1-2.7,6.5-4.1c-6.9,2.7-12.7,6.4-18.8,10.3c-1.9,1.2-3.7,2.4-5.7,3.6
		c-0.9,0.6-2.2,0.4-2.9-0.4c-0.8-0.8-0.9-2-0.3-2.9c5.6-8.8,16.7-15.6,28.5-22.8c12.5-7.6,25.3-15.5,32.3-26.2
		c0.5-0.7,1.3-1.2,2.2-1.1C1316.1,995.2,1371.8,1004.3,1404.5,1036.1z M1052.3,1167.2c-30.5,10.7-62.1,21.8-100,25.9
		c-0.1,0-0.2,0-0.3,0c-1.1,0-2.1-0.8-2.3-1.9c-0.2-1.2,0.5-2.4,1.6-2.7l2.1-0.6c55.5-16.9,112.8-34.3,170.5-50.3
		c0.3-0.1,0.6-0.1,0.9-0.1c3.7,0.4,5.8,0.6,5.9,2.9c0.2,2.1-1.8,2.7-3.3,3.1c-0.6,0.2-2,0.6-2.6,0.9c-0.2,0.8-0.9,1.5-1.8,1.7
		C1097.7,1151.3,1074.7,1159.4,1052.3,1167.2z M1057.2,1175.1c-8.4,5.2-16.8,7.8-26.6,8.2c0,0-0.1,0-0.1,0c-1,0-2-0.7-2.3-1.7
		c-0.3-1,0.1-2.1,1-2.7c6.4-4,14.9-5.7,23-7.5l3.2-0.7c1.1-0.2,2.3,0.4,2.7,1.4C1058.6,1173.3,1058.2,1174.5,1057.2,1175.1z
		 M908.3,1186.5c57.9-18,120.9-36.7,188.4-51c1.2-0.3,2.5,0.5,2.8,1.7c0.3,1.2-0.4,2.5-1.6,2.9c-9,2.9-18,5.9-27,8.8
		c-50.2,16.5-102.2,33.6-161.6,42.2c-0.1,0-0.2,0-0.3,0c-1.1,0-2.1-0.8-2.3-1.9C906.4,1188.1,907.1,1186.9,908.3,1186.5z
		 M856.3,1193.1c-0.1,0-0.2,0-0.3,0c-1.1,0-2.1-0.8-2.3-1.9c-0.3-1.2,0.4-2.4,1.6-2.8c49-16.7,106.2-31.4,174.7-45.2
		c1.3-0.2,2.5,0.5,2.8,1.8c0.3,1.3-0.5,2.5-1.7,2.8c-19,5-37.4,10.8-55.3,16.5C939,1176.2,901,1188.4,856.3,1193.1z M634.2,1210.7
		c-0.2-1,0.3-2,1.2-2.4c14.4-8.1,28.4-17,42.1-25.5c39.3-24.6,80-50,132.4-62.8c4.6-4.2,13-8.3,20.3-5.7c0-0.2,0-0.4,0.1-0.7
		c0.3-1.1,1.3-3,4.5-3.8c2-0.5,4.7-0.3,7.2,0.2c0.1-0.4,0.2-0.8,0.5-1.2c5-6.1,17.5-5.6,24.3-2.6c0.7,0.3,1.2,0.9,1.3,1.6
		c0.2,0.7,0,1.5-0.4,2c-3.2,4-12.2,5.8-19.1,4.6c0,0.5-0.2,1-0.6,1.4c-2.4,2.7-5.7,4.2-9.1,4.1c-1.5,0-2.9-0.4-4.1-1
		c-0.2,0.7-0.8,1.2-1.4,1.4c-54.3,19.7-98.8,39.2-136.7,59.9c44.2-21.8,94.1-46.3,147.1-60.5l0.5-0.1c16.7-4.5,29.2-7.8,44.6-4.9
		c-0.2-0.1-0.5-0.3-0.7-0.4c-0.8-0.5-1.2-1.4-1.1-2.3c0.1-0.9,0.7-1.7,1.6-2c19.7-6.6,44.8-9.1,79.1-8c4.2-0.4,6.4,0.1,7.3,1.8
		c0.6,1,0.5,2.2-0.2,3.1c-1.4,1.9-5.3,2.7-9.2,1.8c-9,0.3-19.1,2.6-28.8,4.9c-14.4,3.4-29.2,6.9-41.2,3.7c0.1,0.2,0.1,0.5,0.1,0.7
		c0,1.1-0.7,2-1.8,2.3c-86,23.4-167.3,60.6-256.1,117.3c-0.4,0.2-0.8,0.4-1.3,0.4c-0.7,0-1.3-0.3-1.8-0.8
		c-4.3-4.9-2.9-11.2-1.7-16.7C633.9,1217.2,634.7,1213.7,634.2,1210.7z M867.5,1103.8c0.3-1.1,1.3-3,4.5-3.8
		c4.1-0.9,11.3,0.6,13.3,2.8c0.6,0.7,0.8,1.7,0.4,2.5c-1.3,2.9-3.5,3.7-5.9,3.7c-2.3,0-4.8-0.8-6.6-1.4c-1.3-0.4-2.7-0.9-3.4-0.9
		c0,0,0,0,0,0c-0.7,0-1.4-0.4-1.9-0.9C867.4,1105.3,867.3,1104.5,867.5,1103.8z M1229.9,1049.5c-10.5,8.4-22.5,16.4-42.5,16.4
		c-2,0-4.1-0.1-6.2-0.2c-1-0.1-1.8-0.7-2.1-1.6c-0.3-0.9,0-1.9,0.7-2.5c12-10.6,28.4-16.1,48.6-16.3c0,0,0,0,0,0
		c1,0,1.9,0.6,2.2,1.6C1231,1047.8,1230.7,1048.9,1229.9,1049.5z M1264,1043.3c0.9,0.1,1.6,0.7,2,1.5c0.3,0.8,0.1,1.8-0.5,2.4
		c-8.6,9.4-22.3,14.3-40.9,14.5c0,0,0,0,0,0c-1,0-1.9-0.6-2.2-1.6c-0.3-1,0-2,0.8-2.7l1.7-1.3
		C1234.3,1048.8,1244.3,1041.2,1264,1043.3z M996.9,242c-0.8-45.4-1.6-92.4-2.8-138.9c0-1.2,0.9-2.3,2.1-2.4
		c1.2-0.1,2.3,0.7,2.6,1.9c27.5,129.8,26.9,125,35.5,268.5c1.5,24.5,3.4,48.8,5.4,74.6c5,64.5,8.6,88.3,6.8,155.1
		c-0.1,4.1,0,7.7,0.1,11c0.1,4.2,0.3,7.8-0.2,10.9c-0.4,2.5-0.4,4.2-0.4,5.4c-0.1,4.7-1.4,5.2-6.5,7.2c-0.7,0.3-1.5,0.6-2.4,1
		c-1.6,0.7-3.1,0.9-4.4,0.9c-2.2,0-3.9-0.7-5.1-1.5c-10.1-6.5-11.8-33-12.7-61.8c-0.2-5.6-0.3-10.5-0.6-14.1
		c-1.6-20.2-2.3,4.7-4.5-12.7c-1.4-11.3-2.7-22-3.8-32.6C992.3,375.8,999.4,389.6,996.9,242z M758.3,1004.2
		c-0.2-0.2-0.4-0.5-0.5-0.7c-1.6-4.1-3.3-8.1-4.9-12.1c-10.9-26.7-22.2-54.3-24.6-86.6c-6.6-85.8,18.4-150.6,76.5-198
		c53.7-43.9,128.1-66.5,193.8-82.8c1.1-0.3,2.3,0.3,2.8,1.4c1.5,3.6,2,7.9,2.5,12.2c0.5,4.5,1,9.1,2.7,12.1c9.8,2.2,32,5.8,46.4-2
		c4.1-2.2,5.8-4.7,7.8-7.5c1.8-2.6,3.8-5.5,7.8-8.1c0.9-0.6,2.2-0.5,2.9,0.3c13.6,13.1,12.4,23,9,29c-10.5,18.4-55.2,24.5-83.7,19.8
		c5.1,3.4,12.7,5.6,22.2,6.3c21.2,1.5,47.4-5,54.9-13.8c0.5-0.6,1.2-0.9,1.9-0.8c1.7,0.1,2.7,0.9,3.2,1.5c1.6,1.9,1.3,4.9,1,7.8
		c0,0.2-0.1,0.5-0.1,0.7c10.4-8.1,13.1-30.1,7.3-43.9c-2.8-6.6-7.6-8.6-12.2-10.5c-3.7-1.5-7.5-3.1-9.3-7.1c-0.4-0.9-0.2-2,0.5-2.6
		c8.9-9,21.3-8,32.3-7.1c3.1,0.3,6,0.5,8.6,0.5c63.8,0,115.2,16.3,144.8,45.8c39.5,39.5,78,114.6,69.3,186.2
		c-4.4,35.7-23.9,88.4-47.8,111.2c-8.7,8.3-22.3,15.5-36.7,23.2c-7.5,4-15.2,8-22.5,12.4c-3.3,2-6.6,4-9.9,6
		c-16,9.7-32.5,19.8-49.1,27.4c-69.3,31.9-175.6,40.1-272.5,22.1c81.2,25.3,202.8,15.1,270.5-14.6c20.4-9,36.3-18.1,53.2-27.8
		c8-4.6,16.3-9.4,25.4-14.3c0,0,0,0,0,0c0.1-0.1,7.2-5.1,9.7-2.3c1.8,2-0.5,4.3-1.3,5.2c-50.7,44.6-143.3,77.8-236,84.7
		c-11.9,0.9-23.8,1.3-35.4,1.3c-36.1,0-70.5-4.2-100.9-12.4C822.1,1053.7,785.3,1032.9,758.3,1004.2z M611.2,1167.8
		c2.3-1.5,4.5-3,6.1-4.3c9.7-8.1,19.1-16.4,29.1-25.2c38.2-33.7,77.8-68.5,130.4-87c0.6-0.2,1.3-0.2,1.9,0.1c13,6.9,22.6,13.9,30,22
		c0.6,0.7,0.8,1.7,0.4,2.6c0,0.1-0.1,0.2-0.1,0.3c8.9-1.8,17.7-1,21.7,9.7c0.1,0.3,0.2,0.7,0.2,1c0.3-0.2,0.6-0.4,0.9-0.5
		c0.7-0.2,1.5-0.1,2.1,0.4c1.5,1.1,3.3,2,5.2,2.9c4.9,2.4,10.4,5.1,11.5,12.4c0.2,1.2-0.6,2.4-1.8,2.7c-7.2,1.7-13.3,2-18.1,0.9
		c-1.9,3.6-5.4,5.4-9.7,4.8c-2.3-0.3-4.8-1.3-6.9-2.6c0.6,1.2,1.1,2.5,1.3,4c0.2,1.1-0.5,2.2-1.5,2.6c-7,2.6-10,0.8-13.2-1.2
		c-1.6-1-3.3-2-5.8-2.6c0,0,0,0,0,0c1.9,1.1,3.5,2.6,4.6,4.3c0.5,0.9,0.5,2-0.2,2.8c-2.2,2.6-5.6,4.2-9.6,4.4
		c-4.9,0.3-10.2-1.3-13.3-4.2c0,0,0,0.1,0,0.1c0,0.4,0,0.4,1,1.1c1.4,0.9,4.1,2.7,2.8,7.3c-0.3,1.1-1.2,1.8-2.4,1.8
		c-3-0.1-5,0.8-6.8,1.6c-2,0.9-4.2,1.9-6.7,0.8c-0.2,0.5-0.5,0.9-1,1.1c-38.5,22.2-78.9,45.3-123.5,70.6c-1,0.6-2.4,0.3-3.1-0.6
		c-0.7-1-0.6-2.3,0.3-3.1c20.5-19.9,46.5-34.7,71.7-49.1c14.2-8.1,28.9-16.5,42.3-25.7c0.4-0.2,0.8-0.4,1.2-0.4
		c3.7-0.2,5.9,1.3,7.6,2.5c0,0,0-0.1,0-0.1c0-3.9,1.7-6.2,3.8-7.7c-0.5,0.2-1,0.4-1.5,0.6c-1,0.4-1.9,0.7-2.5,1.2
		c-0.5,0.4-1.1,0.6-1.8,0.5c-5.9-0.8-8.9-4.5-11-8.7c0.1,0.2,0.1,0.3,0.2,0.5c1.2,3.1,2,5,4,5.6c0.9,0.3,1.5,1,1.6,1.9
		c0.1,0.9-0.2,1.8-1,2.3c-14.9,10.4-31.1,20-46.8,29.2c-21.5,12.6-43.8,25.7-62.8,41.3c-0.9,0.7-2.2,0.7-3.1-0.1
		c-1.5-1.4-2.2-2.9-2.5-4.5c-1.9,11.4-13.5,21.9-20.1,26.3c-0.4,0.3-0.9,0.4-1.3,0.4c-0.2,0-0.4,0-0.6-0.1c-0.7-0.2-1.2-0.6-1.5-1.3
		c-7.5-15.5,0.1-26.2,8.2-33.5c-2.6,1.6-5,1.8-7.6,0.4c-1.2,1.5-2.3,3.1-3.5,4.8c-3.1,4.5-6.2,9.1-11.6,11.8c-0.6,0.3-1.3,0.4-2,0.1
		c-0.6-0.3-1.1-0.8-1.4-1.4C590.3,1181.6,602.4,1173.6,611.2,1167.8z M608.7,1230.4c-0.2-0.8,0.2-1.7,0.8-2.3c1.2-1,2.5-2.1,3.8-3.1
		c4-3.3,8.2-6.7,11.7-10.4c0.5-0.6,1.4-0.9,2.1-0.7c0.8,0.1,1.5,0.7,1.8,1.4c3.2,7.4,3.1,15.7-0.2,23.4c-3.1,7.2-8.7,12.8-14.9,15.1
		c-0.3,0.1-0.5,0.1-0.8,0.1c-0.5,0-1-0.2-1.4-0.5c-3.8-2.9-3.4-8.9-2.9-14.7C608.9,1235.6,609.1,1232.5,608.7,1230.4z M591,1215.4
		c0.2-3.8,0.5-7.7,0-10.6c-0.1-0.9,0.3-1.8,1.1-2.3c2.8-1.8,5.2-3.9,7.8-6.1l1.7-1.5c0.6-0.5,1.3-0.7,2.1-0.5
		c0.7,0.2,1.3,0.7,1.6,1.3c5.8,12.7,0.1,31.6-8.6,38.2c-0.4,0.3-0.9,0.5-1.4,0.5c-0.7,0-1.3-0.3-1.8-0.8
		C590.1,1229.4,590.6,1222.3,591,1215.4z M601,1260.4c-2.1,3.4-5.3,5.2-8.9,5.2c-0.3,0-0.6,0-0.9,0c-1.1-0.1-2-0.9-2.2-2
		c-2-14.9,3.5-22.5,8.5-27.5c0.5-0.5,1.3-0.8,2-0.7c0.7,0.1,1.4,0.5,1.7,1.2C605.1,1243,605,1254.2,601,1260.4z M586.1,1190.8
		c0.8-0.6,1.9-0.7,2.7-0.1c0.8,0.5,1.3,1.5,1.1,2.5c-1.6,7.6-5.1,13.2-9.5,17.8c0.8-0.4,1.7-0.7,2.5-1c0.7-0.2,1.4-0.1,1.9,0.3
		c0.6,0.4,1,0.9,1.1,1.6c1.4,8,0.4,18-0.7,28.6c-1,10.1-2.1,20.5-1.3,30.4c0.1,1.2-0.7,2.3-2,2.5c-4.7,0.8-8.1,2.5-10.4,5.1
		c-0.6,0.7-1.5,1-2.4,0.7c-0.9-0.2-1.5-1-1.7-1.8c-4-21-4.4-46,4.6-59.2c-1.7,1.3-3.4,2.5-5.1,3.8c-4.7,3.4-9.2,6.7-12.9,10.7
		c1.6-1.3,3.1-2.3,4.9-2.1c0.8,0.1,2,0.5,3,1.9c0.5,0.6,0.6,1.4,0.3,2.2c-2.4,6.9-1.7,15.5-1,23.9c1,11.1,2,22.4-5.6,27.8
		c3.8,0.1,6.8-1.7,10.4-3.8c4.5-2.7,9.5-5.7,17.3-6c0.8,0,1.7,0.4,2.1,1.1c0.4,0.7,0.5,1.6,0.1,2.4c-7.4,13.6-19.2,23-30.5,32
		c-11,8.7-21.3,17-28.3,28.8c-0.4,0.7-1.2,1.2-2,1.2c-0.1,0-0.3,0-0.4,0c-1-0.2-1.7-1-1.9-1.9
		C509.3,1260.4,552.5,1216.7,586.1,1190.8z M559.5,1341.2l-5.8,4.3c-1.3,1-2.9,2.4-4.5,3.9c-4.6,4.2-10.4,9.5-16.9,9.5
		c-0.2,0-0.4,0-0.6,0c-3.8-0.2-7.3-2.2-10.6-5.8c-0.5-0.6-0.7-1.4-0.5-2.2c2.1-7.3,8.8-10.7,14.8-13.8c2.1-1.1,4.2-2.1,5.7-3.2
		c15.2-10.6,30-22.2,44.3-33.4c33.4-26.1,67.8-53.1,112.9-72.7c50.8-22.1,109.5-20.7,171.7-19.1c31.6,0.8,64.4,1.6,97.6-0.6
		c43.2-2.9,85.1-17.4,125.6-31.5c14.1-4.9,27.4-9.5,40.5-13.5c9.5-2.9,19-4.7,28.1-6.5c12.2-2.3,23.8-4.5,34.3-9.1
		c0.3-0.1,0.6-0.2,1-0.2h3.9c0.7,0,1.4,0.3,1.9,0.9c0.4,0.6,0.6,1.3,0.4,2.1c-4.7,17.6-26.9,25.3-44.7,31.4
		c-3.5,1.2-6.7,2.3-9.7,3.5c-57.8,22.4-127.2,35.6-218.3,41.3c-104.7,6.6-221.9,17-287,56.5C614.4,1300.6,587.7,1320.3,559.5,1341.2
		z M595.3,1350.8c1.8-13.6,9.5-29.3,20.9-33c1.2-0.4,2.6,0.3,3,1.5c1.9,5.8-0.7,14.1-3.7,23.8c-3.5,11-7.4,23.4-6,35.5
		c0.1,0.9-0.3,1.8-1.1,2.3c-0.4,0.2-0.8,0.4-1.3,0.4c-0.4,0-0.9-0.1-1.3-0.4C597.3,1375.4,593.5,1364.5,595.3,1350.8z M585.4,1450.4
		c3.8-8.3,10.3-13.8,16.6-19.1c4.1-3.5,8-6.8,11.2-10.8c0.4-0.5,1-0.8,1.6-0.9c0.7-0.1,1.3,0.2,1.8,0.6c3.9,3.4,0.6,7.4-1.6,10.1
		c-1.9,2.3-3.9,4.7-3.5,7.1c0.7,4.6,3.2,7.1,7.8,7.8c0.9,0.1,1.6,0.7,1.9,1.5s0.1,1.7-0.5,2.4c-3.7,4.1-10.2,4.8-17.2,4.8
		c-2,0-4-0.1-5.9-0.1c-3.3-0.1-6.8-0.2-9.8,0c-0.8,0.1-1.6-0.3-2.1-1C585.1,1452.1,585,1451.2,585.4,1450.4z M575.7,1550.2
		c-1.3,1.7-3.8,4.1-8.1,4.1c-1.3,0-2.7-0.2-4.3-0.7c-1-0.3-1.7-1.2-1.7-2.3c0-1,0.7-2,1.7-2.3c4.8-1.5,6-7.1,7.3-13.6
		c0.3-1.4,0.6-2.9,0.9-4.3c0.2-0.9,1-1.6,1.9-1.8c0.9-0.2,1.8,0.2,2.4,1C579.5,1535.8,579.5,1545,575.7,1550.2z M590.5,1538.8
		c-1.3,2.2-3.3,3.3-5.7,3.3c-0.5,0-1.1-0.1-1.6-0.2c-1-0.2-1.7-0.9-1.9-1.9c-1.8-9.5-3.3-17.8,4.8-23.9c1-0.8,2.5-0.6,3.3,0.4
		C592,1519.8,594.2,1532.7,590.5,1538.8z M606.5,1525.2c-1.4,4.4-3.5,7.4-6.2,8.7c-0.3,0.2-0.7,0.2-1,0.2c-0.8,0-1.6-0.4-2.1-1.2
		c-3.5-6.1-3.4-17-1.2-24c1.4-4.4,3.5-7.4,6.1-8.7c1.1-0.6,2.5-0.1,3.1,1C608.8,1507.3,608.6,1518.2,606.5,1525.2z M547.9,1531.6
		c-0.4,0.4-1,0.6-1.6,0.6c-0.3,0-0.6-0.1-0.8-0.1c-0.8-0.3-1.4-1-1.5-1.9c-3-21.8,7.9-36.1,18.5-50c5.9-7.8,11.6-15.1,14.9-23.7
		c0.4-1.1,1.7-1.7,2.8-1.4c27.5,7.3,54.4-4.2,78.2-14.5c7.8-3.4,15.2-6.5,22.4-9c0.5-0.2,0.9-0.2,1.4,0c17.5,4.9,33.4,1.5,50.1-2
		c17.2-3.7,34.9-7.4,57.4-3.9c0.2,0,0.3,0.1,0.5,0.1c2.7,1.1,3.4,2.7,3.5,3.9c0.4,3.6-4,6.5-9.5,10.1c-2.6,1.7-5.8,3.9-6.7,5.2
		c-0.5,0.7-1.4,1.1-2.2,1.1C659.6,1433.4,600.3,1485.6,547.9,1531.6z M944,1503.9c1-0.1,2,0.4,2.4,1.4c0.4,0.9,0.2,2-0.5,2.7
		c-5.5,5.3-13.5,11.5-27,12.4c-0.1,0-0.1,0-0.2,0c-0.9,0-1.7-0.5-2.1-1.3c-0.4-0.9-0.3-1.9,0.3-2.6c1.4-1.7,3-3.2,4.7-4.5
		c-0.2,0.1-0.4,0.2-0.6,0.3c-6.5,3.3-13.2,6.8-24,6.2c-1-0.1-1.8-0.7-2.1-1.7c-0.3-1,0-2,0.8-2.6l0.8-0.6c7.5-5.7,20.2-15.3,33-9.5
		c0.9,0.4,1.4,1.3,1.4,2.3c0,0.2,0,0.4-0.1,0.6C934.7,1505.5,939.1,1504.4,944,1503.9z M1159.7,1559.6c-10.1-0.7-16.7-4.9-23-9
		c-4.1-2.7-8-5.2-12.8-6.7c-1-0.3-1.6-1.2-1.6-2.2s0.6-1.9,1.6-2.3l6.5-2.3c20.9-7.5,42.6-15.2,59.6-26.8c0.4-0.3,0.8-0.4,1.3-0.4
		c2,0,3.9,0.1,5,1.6c1,1.5,0.3,3-0.2,3.9c-0.2,0.4-0.4,0.9-0.5,1.2c-0.1,0.6-0.4,1.1-0.9,1.5c-7,5.4-11.9,12.9-17.1,20.8
		c-4.7,7.1-9.5,14.5-16.1,20.2c-0.4,0.4-1,0.6-1.6,0.6C1159.8,1559.6,1159.7,1559.6,1159.7,1559.6z M1161.4,1894.5
		c3.7,3.1,5.5,7.9,7.2,12.5c1.7,4.5,3.2,8.7,6.4,10.9c0.6,0.4,1,1.2,1,1.9c0,0.8-0.4,1.5-1,1.9c-1.5,1.1-3.1,1.5-4.8,1.5
		c-2.4,0-5-0.8-7.7-1.6c-4.2-1.3-9-2.7-13.8-1.5c-0.8,0.2-1.7,0-2.3-0.6c-0.6-0.6-0.8-1.5-0.6-2.3c1.4-4.9,3.9-8.4,6.3-11.9
		c2.2-3.1,4.2-6,5.4-9.8c0.2-0.8,0.8-1.3,1.6-1.6C1159.9,1893.8,1160.7,1894,1161.4,1894.5z M1174.5,1506.5l-2.9,1.3
		c-27.3,12.4-57.7,26.2-93.6,26.2c-7.3,0-14.7-0.6-22.5-1.8c-1.3-0.2-2.2-1.4-2-2.7c0.7-4.3,4-5.9,7.3-6.7c-3.7,0.6-7.7,1.5-12,2.4
		c-11.2,2.5-23.8,5.4-38.4,3.1c-0.9-0.2-1.7-0.8-1.9-1.8c-0.2-0.9,0.1-1.9,0.9-2.5c23.6-17.9,61.6-18.4,101.9-18.8
		c20.8-0.2,42.2-0.5,61.9-3.2c1.2-0.2,2.3,0.6,2.6,1.7C1176.2,1504.8,1175.6,1506,1174.5,1506.5z M1031.6,1510.3
		c-12.7,6.7-35.2,15.8-62.9,15.8c-9.7,0-20.1-1.1-30.9-3.9c-0.8-0.2-1.4-0.8-1.7-1.6c-0.2-0.8-0.1-1.6,0.5-2.3
		c12.8-14.9,35.8-13.8,60.2-12.7c11,0.5,22.4,1,33.5,0.2c1.1-0.1,2.1,0.6,2.5,1.7C1033.1,1508.7,1032.6,1509.8,1031.6,1510.3z
		 M905,1503.8c-5.3,7-14.9,10.5-29.3,10.7c0,0,0,0,0,0c-1.1,0-2-0.7-2.3-1.8c-0.3-1.1,0.2-2.2,1.2-2.7c1.4-0.8,2.8-1.6,4.2-2.4
		c6.5-3.8,13.2-7.7,23.8-7.7c0.2,0,0.4,0,0.6,0c0.9,0,1.7,0.5,2.1,1.3C905.6,1502.1,905.5,1503.1,905,1503.8z M879.2,1502.1
		c-7.3,6.8-16.8,10.2-29,10.4c0,0,0,0,0,0c-1,0-2-0.7-2.3-1.7c-0.3-1,0.1-2.1,1-2.7c1.1-0.7,2.2-1.4,3.2-2.1c6.6-4.4,13.3-9,25.7-8
		c0.9,0.1,1.7,0.7,2.1,1.6C880.2,1500.5,879.9,1501.5,879.2,1502.1z M851.4,1500.4c-7.1,4.5-15.8,9.4-28.6,10.2c0,0-0.1,0-0.1,0
		c-1.1,0-2-0.7-2.3-1.7c-0.3-1.1,0.2-2.2,1.2-2.7c1.4-0.8,2.8-1.6,4.2-2.4c6.6-3.8,13.4-7.8,24.4-7.7c1.1,0,2,0.7,2.3,1.7
		C852.7,1498.8,852.3,1499.9,851.4,1500.4z M826.4,1496.1c-6.7,7.2-17.5,11.3-32.9,12.5c-0.1,0-0.1,0-0.2,0c-1,0-1.9-0.6-2.3-1.6
		c-0.3-1,0.1-2.2,1-2.8c0.9-0.5,1.7-1.1,2.6-1.7c8-5.2,16.2-10.6,30.1-10.5c0.9,0,1.8,0.6,2.2,1.4
		C827.2,1494.4,827.1,1495.4,826.4,1496.1z M798.5,1494.6c-10.3,6.5-21,12.3-37.3,12.3c-1.7,0-3.5-0.1-5.3-0.2
		c-1.1-0.1-2-0.9-2.2-1.9c-0.2-1.1,0.3-2.1,1.3-2.6c2.2-1.1,4.5-2.3,6.9-3.6c10.4-5.6,22.2-12,35.8-8.3c0.9,0.2,1.6,1,1.7,1.9
		C799.7,1493.1,799.3,1494.1,798.5,1494.6z M769.1,1490.6c-10.1,6.4-19.7,11.7-34.5,12.1c0,0,0,0-0.1,0c-0.8,0-1.6-0.4-2-1.2
		c-0.4-0.7-0.4-1.7,0-2.4c4.6-7.9,11.8-13.8,19.2-15.6c6-1.5,11.8-0.5,17.5,3c0.7,0.4,1.1,1.2,1.1,2
		C770.2,1489.4,769.8,1490.2,769.1,1490.6z M742.6,1481.8c-1.8,4.1-5.4,6.5-8.5,8.5c-4.4,2.9-6,4.3-5.1,7.5c0.2,0.7,0,1.5-0.4,2.1
		c-0.4,0.6-1.1,0.9-1.9,0.9h-7.8c-1,0-1.9-0.6-2.2-1.5c-0.4-0.9-0.1-2,0.6-2.6c1.9-1.7,3.4-4.1,4.9-6.6c3.5-5.8,7.5-12.3,18.4-11.6
		c0.8,0,1.5,0.5,1.9,1.1S742.9,1481,742.6,1481.8z M705.9,1498.7c-0.3,0.1-0.5,0.1-0.8,0.1c-0.8,0-1.6-0.4-2-1.2
		c-0.6-1-0.4-2.2,0.4-3c1.9-1.7,3.3-4.1,4.8-6.5c3.3-5.3,7-11.4,16.3-11.8c1,0,1.9,0.5,2.3,1.4c0.4,0.9,0.2,1.9-0.4,2.6
		c-1.4,1.5-2.8,3.2-4.2,4.9C718,1490.6,713.5,1496.1,705.9,1498.7z M1077.5,1966.2c-4.7,6.9-11.6,12-22.6,16.5
		c-0.3,0.1-0.6,0.2-0.9,0.2c-0.2,0-0.5,0-0.7-0.1c-32.4-10.4-72.1-14.5-110.4-18.5c-14.5-1.5-29.6-3.1-44-4.9
		c-1.2-0.2-2.1-1.2-2.1-2.4c0-1.2,0.9-2.2,2.1-2.3c43.3-4.3,86.9-0.2,129.2,3.8c16.5,1.6,32,3,47.6,4c0.9,0.1,1.6,0.6,2,1.3
		C1078.1,1964.6,1078,1965.5,1077.5,1966.2z M1110.7,1965.1c-3.8,4-8.6,6.2-13.7,6.2c-0.7,0-1.4,0-2.1-0.1c-0.8-0.1-1.6-0.6-1.9-1.4
		c-0.3-0.8-0.2-1.7,0.2-2.3c5.3-7.4,12.1-13.3,18.8-18.9l1.2-1.1c0.6-0.6,1.6-0.7,2.4-0.4c0.8,0.3,1.4,1,1.5,1.8
		C1117.9,1953.6,1115.2,1960.4,1110.7,1965.1z M1074,1951.5C1074,1951.5,1074,1951.5,1074,1951.5c-6.1,1.2-13.1-0.2-20.5-1.7
		c-4.5-0.9-9.1-1.9-13.5-2.1c-48.8-3.3-100.3-5.8-146.6-2c-4.5,0.4-9.8,1.6-15.5,2.8c-7.9,1.7-16,3.6-22.1,3.1
		c-6.7-0.5-12.8-2.2-18.5-4.4c2.2,1.3,4.3,2.6,6.3,4c0.9,0.6,1.3,1.7,0.9,2.8c-0.3,1-1.2,1.6-2.2,1.6c-0.1,0-0.1,0-0.2,0
		c-35.1-2.9-64.5-14.3-95.7-26.3c-33.8-13.1-68.8-26.6-112-28.5c-1.1-0.1-2.1-0.9-2.2-2c-7.3-51.1-7.6-122.3-8-191.1
		c-0.2-38.5-0.4-78.3-1.9-112.9l0-0.3c-1.9-44.8-2.9-69.5,22.2-95.5c0.6-0.6,1.5-0.9,2.3-0.7c29.7,7.4,60.6,11,93.4,14.8
		c28.1,3.2,57.1,6.6,86.8,12.6c7.5,1.5,15.2,3.4,22.7,5.3c14.4,3.6,29.3,7.3,43.6,8.4c17.4,1.3,35-0.2,52-1.7
		c13.7-1.2,27.8-2.5,41.9-2.2c8,0.1,17.3,2,27.1,4c7.3,1.5,14.9,3,22.1,3.8c6.9,0.8,14.2,0.9,21.3,1.1c11.1,0.2,21.6,0.5,30,2.9
		c11.1,3.3,20.8,11.3,30.2,19.2c7.4,6.1,15,12.5,23.1,16.2c0.7,0.3,1.2,0.9,1.3,1.6c16.6,72.7,9.6,177.8,4,234
		c-0.8,7.9-1.3,15.9-1.8,23.6c-1.4,23.6-2.8,45.9-12.3,61.6C1126.4,1913.6,1089.7,1948.5,1074,1951.5z M1128.2,1958.7
		C1128.2,1958.7,1128.2,1958.7,1128.2,1958.7C1128.2,1958.7,1128.2,1958.7,1128.2,1958.7c-0.5,0.5-1.1,0.7-1.7,0.7s-1.2-0.2-1.7-0.7
		c-0.5-0.5-0.7-1.1-0.7-1.7c0-0.5,0.2-1,0.5-1.5c0.2-0.5,0.7-2,1.2-3.3c2.1-6.1,5.9-17.4,12.7-24.4c0.8-0.8,2-0.9,2.9-0.4
		c0.9,0.6,1.4,1.7,1.1,2.7C1139.9,1939.2,1130.6,1956.2,1128.2,1958.7C1128.2,1958.7,1128.2,1958.7,1128.2,1958.7z M1142.4,1955.5
		c-0.1,0-0.2,0-0.2,0c-0.8,0-1.6-0.4-2-1.1c-2.6-4.2-0.2-9.4,2.1-14.3c1.7-3.5,3.4-7.2,3.4-10.5c0-1.3,1.1-2.4,2.4-2.4h7.8
		c0.7,0,1.5,0.4,1.9,1c0.4,0.6,0.6,1.4,0.4,2.1c-1.6,5.6-4.7,9.7-7.6,13.6c-2.4,3.2-4.7,6.3-6.2,10.1
		C1144.1,1954.8,1143.3,1955.4,1142.4,1955.5z M1196.4,1955.1c-3.4,2.1-8,2.6-13.1,2.6c-2.7,0-5.4-0.2-8.2-0.3
		c-4.5-0.2-9.2-0.5-13,0c-1,0.1-2-0.4-2.4-1.4c-0.2-0.5-0.3-1-0.2-1.5c-2.5,1.6-5.5,2.6-9.3,2.9c-0.7,0.1-1.5-0.3-1.9-0.8
		c-0.5-0.6-0.7-1.3-0.5-2c1.1-5.3,3.7-9.2,6.1-12.9c2.5-3.8,4.8-7.4,5.6-12.5c0.2-1.3,1.4-2.2,2.7-2c1.8,0.2,3.2,0.7,4.6,1.1
		c2.5,0.8,4.7,1.5,8.3,0.8c1.1-0.2,2.2,0.4,2.6,1.4c0.1,0.3,0.2,0.7,0.2,1.1c0.3-0.3,0.7-0.5,1.1-0.5c0.8-0.1,1.6,0.1,2.1,0.7
		c2.7,2.7,4.8,5.9,6.9,9.1c2.6,4,5.1,7.7,8.5,10.3c0.6,0.5,1,1.2,0.9,2C1197.4,1954,1197,1954.7,1196.4,1955.1z M1232.5,1927.6
		c-1.4,5.7-2.8,11.2-3.7,16.2c-0.2,1.1-1.2,1.9-2.3,1.9c0,0,0,0-0.1,0c-1.2,0-2.1-0.9-2.3-2c-2.8-18.6,1.9-46.8,10.1-60.4
		c0.5-0.9,1.5-1.3,2.5-1.1c1,0.2,1.7,1,1.9,2C1240.1,1897,1236.3,1912.5,1232.5,1927.6z M1248.8,1892.7c-0.3,0.1-0.5,0.1-0.8,0.1
		c-0.8,0-1.5-0.4-2-1.1c-5.6-8.7-2.1-25.9,4.5-30.7c0.5-0.4,1.2-0.5,1.9-0.4c0.7,0.1,1.2,0.6,1.6,1.1c2.5,4.4,0.8,9.6-1.1,15.1
		c-1.5,4.4-3,8.9-2.5,13.3C1250.5,1891.2,1249.9,1892.3,1248.8,1892.7z M1251.9,1930c-0.2,0-0.5,0-0.7-0.1c-1.1-0.3-1.7-1.4-1.6-2.5
		c0.3-3.1,0.6-6.4,0.9-9.8c2.4-27.2,5.7-64.4,21.3-81.7c0.7-0.8,1.9-1,2.8-0.5c1,0.5,1.5,1.5,1.3,2.6c-1.1,5.8-2.2,12.7-3.3,20
		c-3.7,23.7-8.3,53.1-18.5,70.9C1253.6,1929.6,1252.8,1930,1251.9,1930z M1324.9,1780.8c-0.4,7.8-0.4,16.2-0.5,25
		c-0.3,33.2-0.6,70.9-17.8,88.3c-0.7,0.7-1.8,0.9-2.7,0.5c-0.9-0.4-1.4-1.4-1.3-2.4c0.3-2.3,0.6-4.7,0.9-7.2
		c-3.1,9.4-7.6,17.6-14.8,23.1c-0.7,0.6-1.8,0.7-2.6,0.2c-0.8-0.5-1.3-1.4-1.2-2.3c0.5-5.1,0.9-10.6,1.4-16.2
		c2.3-28.5,5-62,16.4-85.6c-4.3,3.9-8.6,7.9-12.8,11.9c0.7-0.5,1.6-0.5,2.3-0.2c1,0.5,1.5,1.5,1.3,2.6c-1.4,7.4-2.4,16.7-3.4,26.5
		c-2.7,27.2-5.8,58-20.8,72.7c-0.8,0.8-1.9,0.9-2.9,0.4c-0.9-0.5-1.4-1.6-1.1-2.7c3.3-12,5.2-25.8,6.9-39.1
		c3.2-23.8,6.2-46.4,17-59.6c-33.9,32.2-65.2,68.3-80.1,119.7c-0.2,0.8-0.9,1.4-1.7,1.6c-0.2,0.1-0.4,0.1-0.6,0.1
		c-0.6,0-1.2-0.2-1.6-0.7c-10.8-10.3-17.9-24.4-24.7-38c-5-10-10.2-20.3-16.7-28.9c-0.4-0.5-0.5-1.1-0.5-1.7
		c4.5-42.5,5.8-93.5,7.1-142.8c1-39,2-79.3,4.7-113.9c1.5-19.4,6.3-36,15.2-51.5c-15.7,21.7-23.5,56.1-20.3,94.6
		c0.1,1.2-0.7,2.3-1.9,2.5c-1.2,0.2-2.4-0.5-2.7-1.7c-14.9-51.9,2.9-107.3,40.4-126.3c0.7-0.4,1.6-0.3,2.3,0.1
		c12.7,7.5,22,18,32,29.9c0.4,0.5,0.6,1.1,0.5,1.8c-0.1,0.6-0.4,1.2-0.9,1.6c-7.2,5.9-13.2,3.9-18.2,0.3c1.9,2,3.3,4.5,3.4,7.6
		c0,0.9-0.4,1.7-1.2,2.1c-1.3,0.8-2.7,1.5-4,2.2c-1.8,0.9-3.5,1.9-5.1,2.9c10.9-3.2,18.3-6.7,23.8-12.7c0.2-0.2,0.4-0.4,0.7-0.5
		c4.5-2.2,6.5-1.7,8.9,0.1c0.6,0.5,1.2,0.9,2.2,1.3c5.1-13,29.8-21.7,47.1-19.2c1.1,0.2,2,1.1,2,2.2c2,32.7,7.4,64.3,12.6,94.9
		C1319.4,1687.7,1327.1,1732.8,1324.9,1780.8z M1266.3,1538.3c1.7,2.6,3.4,5.2,5.2,7.7c0.7,1,0.6,2.4-0.4,3.2
		c-0.4,0.4-1,0.6-1.6,0.6c-0.6,0-1.2-0.2-1.7-0.7c-2.8-2.7-5.8-5.3-8.6-7.9c-8.5-7.5-17.2-15.3-23.1-26c-0.5-0.9-0.4-2,0.3-2.7
		c0.7-0.8,1.7-1,2.7-0.6C1252.2,1517,1259.3,1527.8,1266.3,1538.3z M1252,1506.8c0.6-0.8,1.7-1.1,2.7-0.8c9,3.2,13.7,10.4,18.2,17.4
		c3,4.7,5.9,9.1,9.9,12.3c0.9,0.7,1.2,1.9,0.7,2.9c-0.4,0.8-1.2,1.3-2.1,1.3c-0.2,0-0.4,0-0.6-0.1c-9.3-2.5-20.8-17.9-28.8-30.4
		C1251.4,1508.7,1251.4,1507.6,1252,1506.8z M1254.6,1546.9c1.2,1.9,2.2,3.6,3.2,5.1c0.4,0.7,0.5,1.5,0.2,2.2
		c-0.3,0.7-0.9,1.3-1.7,1.4c-1.5,0.3-3,0.4-4.4,0.4c-10.4,0-17.5-7.9-23.9-14.9c-4.1-4.5-8-8.8-12.5-11.3c-0.6-0.3-1.1-0.9-1.2-1.7
		c-0.1-0.7,0.1-1.4,0.5-2c3.8-4.5,8.1-6.6,12.6-6.3C1238.4,1520.8,1247.8,1535.9,1254.6,1546.9z M1297.2,1508.6
		c3.2-3.6,11-3.6,15.5-1.2c3.7,2,5.3,5.4,4.2,9.2c-0.2,0.9-1,1.5-1.8,1.7c-0.2,0-0.3,0-0.4,0c-0.7,0-1.4-0.3-1.9-0.9
		c-2.6-3.4-4.8-3.6-8.3-3.9c-1.8-0.2-3.9-0.4-6.2-1.1c-0.8-0.2-1.3-0.9-1.6-1.6C1296.5,1510.1,1296.7,1509.2,1297.2,1508.6z
		 M1330.7,1688.3c0.1,1.3-0.7,2.4-2,2.6c-0.1,0-0.2,0-0.3,0c-1.1,0-2.1-0.8-2.3-2c-2.4-13.5-5.5-26.7-8.5-39.3
		c-7-29.5-14.2-60.1-13.1-98.3c0-1,0.6-1.8,1.5-2.1c2.2-0.8,3.7-2.3,4.5-4.5c0.4-1,1.4-1.6,2.5-1.5c1.1,0.1,1.9,1,2.1,2
		c3.9,28.3,6.9,58.1,9.8,86.9C1326.7,1650.6,1328.6,1669.7,1330.7,1688.3z M1463.6,1417.5
		C1463.6,1417.5,1463.6,1417.5,1463.6,1417.5c-18.5,25.8-86.4,54.9-127.1,59.8c-15.3,1.8-31.7,1-49,0.1c-17.2-0.9-35-1.8-53-0.1
		c-9,0.8-17.5,3.8-26.5,6.9c-7.8,2.7-15.8,5.4-24.3,6.8c-22.6,3.7-47.7,4.7-72.5,4.7c-14.7,0-29.2-0.3-43.1-0.7l-2.4-0.1
		c-134.6-3.2-261.8-19.8-325.6-29.4c-1.1-0.2-2-1.1-2-2.3c0-1.2,0.8-2.2,1.9-2.4c51-10.1,104.7-3.2,161.5,4.2
		c21.7,2.8,44.2,5.7,66.5,7.6c64.8,5.4,136,1.2,209.3-3.9c11.1-0.8,21.9-0.4,32.4,0c10.5,0.4,20.4,0.7,30.3,0
		c17.7-1.3,36.5-5.6,54.8-9.8c9-2,18.3-4.2,27.3-5.9c7.4-1.4,15-2.7,22.3-3.9c21.4-3.6,41.7-7,57.5-13.6
		c36.4-15,49.1-51.4,62.5-89.8c6.4-18.4,13.1-37.4,22.6-54.2c0.5-0.9,1.6-1.4,2.6-1.1c1,0.2,1.8,1.1,1.9,2.1
		C1495.3,1341,1484.9,1387.8,1463.6,1417.5z"/>
	<path class="st0" d="M773.6,1111.9c-4.5-0.4-8.6-3.1-11.7-6.5c1.1,2.1,2.8,3.7,5,4.7c0.9,0.4,1.5,1.4,1.3,2.5
		c-0.3,2.3-1.5,3.8-3,4.7c2.9-1.2,6.2-1.4,8.3-1.5c0.6,0,1.2,0.2,1.7,0.6c0-0.3,0-0.7,0.2-1c0.6-1.5,1.4-2.8,2.5-3.9
		C776.4,1112,774.9,1112.1,773.6,1111.9z"/>
	<path class="st0" d="M790.6,1082.1c1.9-0.6,3.9-1.3,5.9-2c2.2-0.8,4.6-1.6,7.1-2.3c-4.2,0.7-8.4,2.4-12.6,4.2
		C790.9,1082,790.7,1082,790.6,1082.1z"/>
	<path class="st0" d="M785.3,1925.8c10.9,3.6,22,7.4,32.5,11.8C807.5,1932,797.5,1926.9,785.3,1925.8z"/>
	<path class="st0" d="M803.8,1101c1.4,0.2,2.9,0.6,4.3,1.3c-0.7-1.1-1.1-2.2-1.4-3.2c-0.2-1,0.3-2.1,1.2-2.5
		c-1.9,0.8-3.9,1.6-5.9,2.4c-1,0.4-2.2,0-2.8-0.9c-1.9,3.5-4.1,5.4-6.7,5.8c-4,0.6-7.3-2.9-10.6-6.2c-1.8-1.9-3.7-3.8-5.4-4.8
		c-0.6-0.3-1.1-1-1.2-1.7c-0.1-0.7,0.1-1.5,0.6-2c2.3-2.5,4.5-3.8,6.8-3.8c1.8-0.1,3.3,0.5,4.7,1.5c-0.2-0.5-0.3-1-0.4-1.5
		c-0.1-0.8,0.1-1.5,0.6-2c-5.9,2.4-11.9,4.1-17.4,1.9c-0.1,2.4-0.6,5.3-3.7,5.9c-0.1,0.1-0.2,0.1-0.4,0.2c0.5-0.1,1-0.2,1.5-0.2
		c5.9-0.3,10.6,4.7,14.9,9.1c0.9,0.9,1.7,1.8,2.6,2.6c0.9,0.8,1,2.2,0.3,3.1c-0.9,1.2-1.7,2.1-2.6,2.9c0.7-0.2,1.3-0.3,2-0.4
		c0.5,0,0.9-0.1,1.4-0.1c2.5,0,5.2,0.7,7.4,1.8c-0.2-0.2-0.4-0.4-0.5-0.6c-0.3-0.6-0.4-1.3-0.1-2C794.9,1103,799,1100.5,803.8,1101z
		"/>
	<path class="st0" d="M1143.2,1094.4c20.8-2.4,40.8-5.3,60.8-9c-14.8,1-29.6,3.6-44.9,6.3
		C1153.9,1092.6,1148.6,1093.6,1143.2,1094.4z"/>
	<path class="st0" d="M944.4,1327.5c-3.9,1.4-6.8,4.2-9.9,7.6C938.2,1333.5,941.3,1331,944.4,1327.5z"/>
	<path class="st0" d="M757.7,1098.1c0.1-0.3,0.2-0.7,0.4-1c1.2-1.6,2.5-2.9,3.8-3.9c-43.8,20.9-86.9,46.9-131.2,79.4
		c0.7,0,1.3,0.3,1.8,0.9c2.5,3,3.8,6.3,4.1,9.9c0.2-1.1,0.5-2.2,0.8-3.2c0.9-3.3,1.9-6.8,0.8-10.3c-0.3-1,0.1-2.1,1-2.7
		c9-5.7,17.9-11.7,26.5-17.5c23.3-15.8,47.4-32,75.8-43.4c1-0.4,2.1-0.1,2.8,0.8c0.5,0.6,0.8,1.2,1.2,1.9c-0.3-0.6-0.5-1.3-0.8-1.9
		l-0.6-1.5c-0.2-0.6-0.2-1.3,0.1-1.9c0.3-0.6,0.8-1.1,1.5-1.2c1.1-0.3,2-0.9,3.1-1.6C750.8,1099.3,753.3,1097.7,757.7,1098.1z"/>
	<path class="st0" d="M1092.5,1684.3c-0.4,0.3-0.7,0.5-1.1,0.8c-15.9,11.4-32.1,23-47.2,35.8c13.3-8.6,25.5-18.3,37.4-27.9
		C1085.2,1690.1,1088.8,1687.2,1092.5,1684.3z"/>
	<path class="st0" d="M1104.9,1837.7c7.1-26.2,14.4-54.7,16.7-83.2c-0.9,4-1.9,8-2.8,12.1
		C1113.2,1790.1,1107.5,1814.1,1104.9,1837.7z"/>
	<path class="st0" d="M1083.8,1703.4c-0.1,20.4-3.4,39.3-6.6,57.6c-3,17.2-5.9,33.7-6.2,50.8c1.1-5.7,2.2-11.4,3.3-16.9
		c5.5-27.9,11.1-56.7,10.7-90.9C1084.5,1703.9,1084.1,1703.6,1083.8,1703.4z"/>
	<path class="st0" d="M1082.5,1848.7c2.8-18.6,6.6-36.8,10.3-54.6c3.9-19,7.7-37.3,10.3-55.5c-0.7,2.8-1.5,5.6-2.2,8.4
		C1092.2,1780.3,1083.3,1814.6,1082.5,1848.7z"/>
</g>
</svg>
