<?xml version="1.0" encoding="utf-8"?>
<!-- Generator: Adobe Illustrator 25.2.0, SVG Export Plug-In . SVG Version: 6.00 Build 0)  -->
<svg version="1.1" id="Calque_1" xmlns="http://www.w3.org/2000/svg" xmlns:xlink="http://www.w3.org/1999/xlink" x="0px" y="0px"
	 viewBox="0 0 2000 2000" style="enable-background:new 0 0 2000 2000;" xml:space="preserve">
<style type="text/css">
	.st0{fill:#1A428A;}
	.st1{opacity:0.8;}
	.st2{fill:none;}
	.st3{fill-rule:evenodd;clip-rule:evenodd;fill:#1A428A;}
</style>
<g>
	<path class="st0" d="M886.1,1868.4c-85.2-3-175-10.6-257-34.3c-26.3-7.6-54.8-17.2-83.6-28c-92.4-34.8-164.6-69.7-242.1-130.5
		c-123.5-97-232.8-267.8-263.4-422.5c-11.6-58.4-13-101.6-19.2-114.1c-5.4-10.9-11.2-21.8-12.7-34.5C0.3,1037.4,2.9,932.6,55.5,882
		c76.4-73.6,167.1-130,267.5-163.7c74.3-25,131.3-42.9,209.6-58.5c186.5-37.3,357.6-50.5,546.9-35.5c48.5,3.8,97,8,145.4,13.6
		c26.5,3.1,52.5,10.2,78.7,15.1c7.5,1.4,7.5,1.4,11.7-5.5c50.6-84.2,106.1-170.4,163.9-249.8c47.6-65.4,105.8-141.4,165.4-196.6
		c47.4-43.9,93-96.4,157-115c18.2-5.3,35.7-10,54.9-7.3c41.1,5.9,89.8,8.6,122.5,37.7c42.1,37.5-8.3,60.8-39.9,85.2
		c-99.1,76.6-250.5,205-323.5,282.6c-14.7,15.6-29,31.6-44.4,46.5c-33.4,32.6-99.3,104.8-127.6,142.7c-8.6,11.5-21.3,12.8,21,25.7
		c56.5,17.2,171.1,66.1,220.5,98.7c40.2,26.5,86.5,70,116.5,106.9c54.3,66.6,44,150.8,35.6,223.3c-0.8,6.6-10.1,41.3-14.2,44.6
		c-10.3,8.5-5.3,37.1-10.1,60.5c-28.4,138-37.7,156.3-113.1,274.2c-44.5,69.7-131.1,157.1-201.2,198.7
		C1284.8,1833.3,1142.5,1872.8,886.1,1868.4L886.1,1868.4z M612.6,692c-151.2,26.1-333.3,77.6-454.3,175.1
		c-11,8.9-10.8,8.9-12.3,23.2c-2.7,25.9,1.8,79.1-4.2,80.4c-13.6,3.1-6.8-82-11.6-76.6c-14.6,16.5-8.3,11.4-10.6,33.3
		c-6,58.6,28.6,130.9,19.7,134.1c-5.7,2.1-19.7-40.1-21.5-44.9c-13.2-34.9-7.2-92.3-10.6-92.1c-0.5,0-7.3,7.2-7.4,7.9
		c-1.1,20.5-7.4,50.2,1.2,69.7c20.5,46.7-8.4,8.7,34.6,69.7c1.2,1.7,8,7.6,9.1,4.9l8.6-20.1c45-69.9,148.3-114.2,221.3-149
		c26.8-12.7,54.8-21.1,82.5-31.4c86.8-32.3,168.4-52.7,260.2-63.1l152.3-12.7c41.1-2.2,82.2-1.7,123.4-1.2c22.7,0.3,45.3,3.4,68,3.9
		c38.1,1,76.1,2.7,114,7.5c4.4,0.6,7.6-0.2,11-2.8c38-27.4,68.3-61.8,92.8-101.5c3.3-5.3,2.7-6.6-3.5-8.2
		c-14.9-3.7-105.2-19-111.6-25.9c-11.2-12.2,117.3,15.2,120.9,15.9c7.5,1.5,19.2-13.9,4.4-17.8c-148.5-38.8-367.4-38.1-523.5-26.5
		c-153.5,11.4-306.9,44.4-450.4,100.1c-83.9,32.5-159.7,78.3-228,136.7c-42.8,36.6-64.2,99-60.7,154.2c2.1,33.6,0.2,83.2,18.1,112.5
		c48.1,78.5,87.3,118,160.6,169.9c46.2,32.7,149.7,82.6,202.4,98.4c164.7,49.4,271.6,68.4,402,76.2c186.5,11.1,328-11,506.8-52
		c43.3-9.9,100.9-26.7,142-44.6c63.2-27.5,93.7-34.3,165.3-74.4c38-21.3,70.9-43,102.6-72.7c17.2-16.1,74-64.3,81.2-85.8
		c20.9-62.4,18.6-138.2-3.2-198.7C1783,904.2,1724,845,1670.9,811.9c-76-47.3-160.7-80-246.3-105.4c-12.5-3.7-12.4-3.7-18.7,7.6
		c-3.8,6.9,16.6,8.1,20.9,9.5c87.8,28.2,193.7,69.5,264.1,132.2c23.3,20.7,59,47,69.1,77.8c12.3,37.5,15.5,96.5-5.8,132
		c-14.7,24.5-30,48.6-52.6,66.8c-9.2,7.4-17.2,16.2-27.3,22.8c-129.4,84.6-277.5,121.3-428.4,146.6c-55.4,9.3-110.8,14.9-166.7,19.8
		c-4.3,0.4-7.9,2.9-12.4,3.1c-261.1,12.9-287,14.8-543.5-35.4c-90.5-17.7-216-62.5-291.8-111.4c-47.9-30.9-40.8-21.1-82.7-60.5
		c-23-21.7-58.1-55.3-64.7-86.7c-6.6-31.4-12.7-44.5-7.4-76.7c4.7-28.5,31.8-58.9,51.4-78.7c80.2-80.9,190.1-110.3,290.9-150.2
		c98.7-39,228.1-52.8,335.3-61.6c112.1-9.2,205.9-9.4,319-3.6c17.8,0.9,17,11.6-4.6,10.5C922.1,662.9,756.6,667.1,612.6,692
		L612.6,692z M41.8,1160.6c3.3,28.4,8.7,61.4,16.3,95.2c16.6,74.1,32.4,112.2,69,177.5c40.6,72.6,127.7,176.2,192.2,229.4
		c62.9,51.8,158,98.3,235.6,127.4c45.7,17.2,94.9,28.6,153.6,43.7c127.4,20.6,301,23,429.3-3.4c37-7.6,73.9-15.8,109.5-29.2
		c157.3-59.4,250-102.3,371.3-226.2c63.1-64.4,114.8-142.8,146.7-227.3c19.2-50.9,30.8-102.2,35.5-156.5c1-11.5-44.1,43.6-49.4,48.1
		c-84.6,71.5-119.4,93.8-220.3,137.4c-107.4,46.4-184.3,69.5-299.2,95.4c-124.4,28-293.3,42.1-421.3,33.1
		c-113.7-8-227.1-30.8-338-60.2c-116.9-31.1-260.6-96.6-348.6-185c-29.2-29.3-57.6-59.4-78.3-95.7
		C44.9,1162.9,44.4,1160.9,41.8,1160.6L41.8,1160.6z M983.2,1094.5c41.8,2.5-5.6,12.5-5.5,1.8c0-3.6-20.6-1-17.3,2.5
		c14.3,15.5-38.1,8.9-44.8,11c-11.7,3.8,7.9,16.5-7.7,28.4c-9.1,7-15.7,11.8-27.7,11.7c-27.3-0.3-35.4-9.6-39.2-6.5
		c-11.9,9.3-72.2,13.8-87.6,14.4c-51,2.1-118.6,1-93.9-67.2c4.1-11.2,16.5-16.3,10.2-20.1c-39.7-23.4-1.3-57.7,6.2-60.4l50.9-20.9
		c0.9-0.6,2.8-1.8,0.8-2.5l-16.7-14.3c2.7-9.3,23.1,14.1,30.1,12.3c47.6-12.2,97.4-17,146.3-11.4c22.1,2.5,17.4,9.6,38.8,9.8
		c16.9,0.2,20.7,26.4,27.7,28.2c2.3,0.6,13.5-6.1,8.3-9.2c-20.4-12.5,1.1-40.1,27.9-44.1c7.6-1.1,5.8-15.8,28.3-22
		c22.6-6.2,25-0.4,43.1,0.4c67.4,3.1,95.5,35.1,79.5,28.5c-35.7-14.6-64.7-21.6-103.2-24.3c-32.1-2.3-41,16-23.4,18.2
		c28.6,3.5,57.6,5.3,82.8,21c8.3,5.1,5.7,6.7-2.1,3.8c-33.3-12.2-67.8-17-103.1-17.5c-26.4-0.4-40.8,35.1-12.5,32.5
		c20.6-1.9,25.4,5.8,43.8,8.7c3.5,0.5,4.9,3.6,0.5,4.1c-10.6,1.3,1.1,23.1,8,10.7c14.3-25.7,75.1-35.9,102.3-37.3
		c15.6-0.8,54.9,3.4,65.3,17.6c9.5,13,51.9,8.2,67.1,8.9c10.8,0.5,113.5-10,95.9-27.5c-30.5-30.5-81.1-32.8-121.3-37.1
		c-89.9-9.8-68.6,33.3-82.8,33.7c-16.2,0.4-5.8-55.1,82.3-43.6c56.2,7.3,38.3,7,27-13.8c-3.9-7.2-39.8-26.9-48.6-30.4
		c-13.4-5.3-57.9-18.9-72.1-15.3c-34.9,8.8-12.1-6.8-90.3,23.2c-19.1,7.3-36.5,17.5-51.7,30.9c-4.4,3.9-44.2,33.3-46.4,31
		c-4.6-5,41.4-37.5,44.5-40.1c30-24.7,68.6-42.3,106.9-49.1c8.8-1.6,17.8-0.6,26.3-2.6c18-4.2,34.7,0.1,52.2,3.5
		c65.5,12.8,75.7,43.3,91,52.7c12.3,7.5-0.1,12.5,30.4,23.6c4.8,1.7,7.8-0.4,7.5-5.5c-3.7-63-10.5-62.4,8.7-111.2
		c22.5-57.3,64.8-123.9,102.6-171.6c28.9-36.4,61.2-69.8,93.3-103.4c9.2-9.7,19.3-18.6,28.1-28.6c55.7-62.6,87.5-92.2,148.5-147.7
		c12.7-11.6,24.6-23.9,37.7-35c13.3-11.4,123-106.1,189.7-162.6c41-34.8,45.4-47.9,31-59.4c-11.7-9.4-31.6-18.8-91.6-28.2
		c-54.4-8.5-87.2,14.3-127.7,46.7c-10.3,8.3-67.9,56.7-75.3,65.7c-14,16.9-29.9,32.2-44.9,48.1
		c-130.8,138.7-196.7,278.9-303.1,421.2c-14.5,19.4-29.4,38.5-43.3,58.4c-11,15.8-44.3,54.6-58.9,66c-65.9,51.3-17.4,13.2-113.6,51
		c-33.6,13.2-67.1,26.6-96,48.9c-10.2,7.8-21.9,9.2-40.5,26.2c-42.7,39.1-37.3,27.8-16.5,32.4c5.3,1.2,1.4,5.6-2.1,6
		c-45.9,4.3-23.9-8.8,9.4-43.8c13-13.7,29.4-23,45-34.1c-24.1-9.6-15.7-21.8-12.4-17.3c3.6,4.8,9.1,7.2,13.4,10.9
		c6.4,5.5,12.9-1.3,7.9-4.1c-25.3-14-23.5-23.2-13-16.5c9.3,6,21.4,18.7,32.5,10.3c6-4.5-30-9.1-19.2-26.4
		c14.8-23.5,89.4-22.1,113.6-14.3c4.1,1.3,43.7-10.6,20.2-13.3c-33.7-3.8-67.5-1.9-101.3-3c-15.1-0.5-30.2-2.6-45.3-3
		c-127.6-3.8-164.6-2.4-290.6,12.3c-19,2.2-38.2,3.3-57.1,6.9c-104.7,20-227.7,59.1-323.3,107.9c-180.2,91.9-157.5,140-171.5,153.1
		c-8.4,7.9,15.5,23,22.7,31.2c8.4,9.6,21,12,29.3,21.9c15.3,18.2,20-19.1,102.6-15.3c43.2,2,47.4,29.7,29.2,40.1
		c-27,15.5-45.8,18.9-50.5,21.5c-13.3,7.4,25.6,18.1,28.3,19.9c9.9,6.8,15.4-19.4,52.5-21.1c26-1.2,13.6-12.8,52.4-2.5
		c4.6,1.2,15.3-3.7,27-2.3c-10.6,4.3-14.1,15.6-22.4,10.9c-30.9-17.2-42.5,2-51.7-1.3c-7.6-2.7-22.4,7.7-29,11.1
		c-6.3,3.2-10.7,14.6-2.4,18.2c16.4,7.1,52.9,14.8,64.5,24.6c5.8,4.9,16.5,5.9,23.8,6.9l123.6,29.7c11.1,3.9,23,5.4,34.7,7.5
		c9.6,1.7,10.6-9.8,17.6-14.1c21.4-13.1,43.5-14.5,66.3-3.8c19.5,14.9,23-20,62-10.7c49.7,11.8,90.4-19.6,188.2,13.7
		c8.3,2.8,1.7-13.7,24.7-25.4c48.6-24.7,87.4-19.6,149-50.6c15.2-7.7,5.8-12.3,0.9-23.7c-3-6.9-4.3-7.8-12.1-7.4
		c-31.3,1.9-61.6,15.2-91.1,24.5c-13.1,4.1,1.7,10.9-0.3,13.7c-2.5,3.6,4.4,18.7-2.7,19.3c-9,0.8,1.7-30-18.9-25.2
		c-18.5,4.3-99.3,7.4-100.1,12c-1.3,7.6,76.3,16.5,85.7,19.6c-9.4,7.4-52.8,0.5-64.2-0.9c-7.2-0.9-40.7-10.8-32.8-23
		c30.1-46.4,88.4-57.8,139.7-61.3c33-2.2,52.1,2.2,83.7,3.2c7.9,0.2,20.7,22.3,25.1,28.9c17.4,26.3-41.6,37-27.2,37.7
		c25.2,1.3,48.9-13.2,73.6-0.9c0.2,0.1,0.5,0.2,0.7,0.2c3.8,0.2,29.5,12.5,27.6,14.8c-3.6,4.2,18.9,27.1,2.4,43.5
		c-6.1,6.1-6.1,6.1,0.3,12.5c7.6,7.6,24.8,2,29.1-4.6c4.2-6.4,19.3-8.5,26-9.4c13.9-1.9,2.6-12.6,13-22.1
		c21.6-19.6,60.9-9.1,60.3-20.3c-2.2-40.2,23.5-22.7-0.6-41.2c-5.9-4.5-7.3-24.1,2.6-24.3c21.3-0.5,12.3-1.7,8.4-11.8
		c-2.3-6-11.8-5-14.1,0.5c-6.3,15.3-10.7,5.5-18.3,11.6c-8.5,6.9-19.1,5.5-8.7,10.6c11.3,5.5-20.1,2.8-25.3,3
		c-14.9,0.5-0.9-5.9-28,2.2c-3.3,1-2.2,6.5-5.5,3.2c-8.6-8.7-45.1,5.5-39.6-22.8c4.1-21.1-16.9-9.5-9.5-38.2
		c8.6-33.5-30.9,9.6-84.4-10.7c-16.1-6.1-25.3-24.8-36.2-22.9c-9.5,1.7-42.7,5.4-50.9-0.4C996.1,1088.6,989.7,1092.7,983.2,1094.5
		L983.2,1094.5z M1225.6,1291.3c6,2.3,88.3-12.3,95.3-13.9c120.2-27.6,250.7-64.8,351-138c37.9-27.6,27-20.4,28.3-44.8
		c1.2-22.4-13.4-39.6-24.9-57.7c-7.1-11.3-40.6-36.9-42.6-36.3c-6.3,1.9-12.6,6-18.9,6.5c-37.2,2.7-59.1,23.8-126.6,4.2
		c-30.7-8.9-63.6-13-89.6-33.5c-5.8-4.6-13.5-8.2-15.5-15.9c-5.3-20.2-51.3-9.6-42.7-6c15.5,6.5,52.3,32.3,23.2,46.5
		c-43.9,21.3-99.7,17.7-147.3,14.8c-8.6-0.5,3.8,14.7,3.4,37.5c-0.1,8,33.8,9.2,40.5,21.6c8.8,16.4,20.1-15.7,70.7-14.3
		c8.8,0.2,26.4-5.9,30.5-13.9c16.1-31.4,63-22.9,70.7-14.2c6.1,6.8,19.9,0.6,43.9,9c12.3,4.3,6.4,13,11.3,17.1
		c11.5,9.8,13.8,27.4,22.7,25.5c20.4-4.4,77.9,8.1,84.3,29c5.2,16.8,24.4,38.5,19.5,40.9c-8.1,3.9-24.5-36.1-32.5-41.2
		c-5.9-3.8-58.8-28.4-55.4-16.2c4.2,15-0.7,14.4-0.9,28.6c-0.4,24.4-3,24.3-25.1,31.6c-5.7,1.9-1.3,22.1-58,18
		c-12.2-0.9-11.6-18.2-28.5-12.3c3.8,3.9,16.8,5.5,15.8,12.3c-1,6.5,10.4,8.7,5.6,10.4c-5.7,2.1-11.5,4-17.5,4.8
		c-24.7,3.2-48.1,11.1-71.5,18.8c-15.3,5-16.5,7.6-15.6,24.2c0.7,13.3,22.9-3.8,48.5,17.1c4.7,3.8-13,5.8-16.7,3.5
		c-21.7-13-64.9-4.9-88.9-4.1c-14.9,0.5-15.5,25.6-6,26.1c2.4,0.1,5.1-0.4,7.3,1.7C1262.8,1287,1239.4,1277.4,1225.6,1291.3
		L1225.6,1291.3z M1410.8,767.6c0-1.9,2.5-36.1-7.3-32.1c-4.2,1.7,2.8,49.5-2.7,59.6c-3.9,7.2-6.5-5.8-6.5-8.3
		c0.4-75,2.1-59.1-38.1,5c-9.5,15.1-14.8,31.8-21.1,48.4c-2.4,6.3-2.4,6.4,3.9,8.2l63.3,17.6c3.7,5,36.3,7.7,53.8,17.7
		c70.2,39.9,31.9,6.2,106.6,30.9c16.6,5.5,33.1,8.5,47.3,18.9c35.1,25.8,24.8,54,42.4,60.8c6.1,2.4,32.2,30.8,36,39.2
		c7.2,15.6,25,44.2,24.1,62.8c-0.5,8.9,10.3,3.6,13-0.7c29-45.7,38.3-75,31-131.1c-6.2-47.8-59.5-90.9-94.1-118.9
		c-27.6-22.4-47.7-32.5-79.8-48.7c-17.8-9-116.5-53-134-53.5c-20.8-0.6-5,48.1-12.4,49.6c-10.2,2,0.2-54.1-12.2-52.9
		c-6.7,0.6-1.5,40.6-2.4,49.1c-0.8,7-2.6,74.8-9.1,59.6L1410.8,767.6L1410.8,767.6z M1357.4,1119.1c23.3,1.2,43.1,8.3,66.3,5
		c1.6-0.2,24.4-0.4,11.5,2.7c-34.6,8.2-69.6,0.7-104.4-3.3c-8.9-1-12-6.2-20.2-6.2c-39.3,0-33.3-10.1-25-8.4
		c12.2,2.4,32.1-2.2,35.8-0.1c19.8,11.1,50,1.1,65.5-13.1c6.4-5.8,8.7,19.1,32.5,10.3c18.5-6.8,19.4-18.9,32.3-28.3
		c4.5-3.3,31.4-20.9,16.1-26.1c-25.3-8.7-38.7,1.3-42.1-6c-1.8-3.8-11.8-12.8-16.3-13.7c-35.4-7.2-37.1,26.6-48.8,28.5
		c-6.3,1-24,9-28.2,8c-11.6-2.9-40,4.8-47.7,12.8c-8.8,9.2-37.9,5.9-46.4,7.6c-28.4,5.6-87.8,21.9-114.4,20.1
		c-30.6-2.1-49-34.5-55.3-26.3c-1.2,1.6-3.3,3.3-1.3,5.2c13.1,12.4,21.6,27.6,54.5,27.5c14,0,60.8-10.2,60.8-4.8
		c-0.1,20.6-7,32.7,1.1,31.3c3.9-0.6,6.9,7,9.8,9.3c13.9,11.4-15.7,25.2,8.5,27.8c22.2,2.4,40.3-8.8,56.5-3.6
		c14.1,4.5,53.2-17.1,39.8-25.3c-21.2-12.9-22.6-37.7-60-45c-4-0.8-8.5-0.4-13.5-3.4c18.8-1.2,47.3,4.6,59.8,19.1
		c12.3,14.3,16.1,25.1,37.2,22.1c9.9-1.4,10.9,10.4,16.7,16.5c6,6.4,16.2,7.8,24.7,2.9c-3.8-1.3-7.9-0.9-11.9-3.4
		c20.6,0,40.5,2.4,60.3-3.8c11.3-3.5,26.1,9.3,48.8,9.4c30.7,0.1,14.9-13.4,47.7-18.3c8.9-1.3,12.3-20.4,4.1-21.8
		c-4.9-0.9,2-7.6,2-13.8c0-15.5-13.2-25.7-28.7-18.2c-23.5,11.4-36.8,5.8-44.1,10.2c-49,29.3-46.8-1.5-54.7,5.1
		C1377.3,1115.3,1367.8,1113,1357.4,1119.1L1357.4,1119.1z M857.4,1058.8c3.1-0.1,24.3,1.7,22.1-4c-12.8-33.6,37.7-40.5,60.8-29.9
		c5.4,2.5,8.3,5.9,6.8-4.5c-2.3-15.5-17.5-30.2-31.4-34.3c-45.1-13.2-118.4-4.5-162.6,5.3c-18.7,4.1-67.3,16.4-78.8,33.6
		c-14.3,21.3-22.1,20,10.9,44.2c16.9,12.3,72.8,7.3,71.9-7.4c-1.1-18.5,57.8-15.7,67.7-9.5C835.2,1058.8,845.6,1058.8,857.4,1058.8
		L857.4,1058.8z M1547.7,1006.9c27.5,0,55.3-2.7,79.7-17c8.8-5.2-1-29.1-6.8-35.3c-29-30.6-31.8-25.2-65.4-33.7
		c-37.4-9.4-83.7-13.9-121.5-4.5c-9.1,2.3-58.1,11.1-49.1,28.6c5.8,11.4-2,12.4,14.3,24.1c7,5,6.9,9.9,16.3,13.6
		C1477.8,1007.3,1475.5,1003.8,1547.7,1006.9L1547.7,1006.9z M799.5,1056.1c-37.1-2.4-30.7,8.4-33.4,11.9
		c-12.1,16.1,17.8,32.3,30.3,31.3c7.5-0.6,39.4,7.2,43.3,20.7c6.9,24.3,67.1,31.4,64.8,1.3c-0.4-4.8-4-14.7,3.5-15.3
		c17.5-1.4-6.8-6.4-2.6-13.1c2.4-3.9,21.8,11.1,34.8,8.8c7.2-1.3-0.4-6.4,9.1-7.9c2.3-0.4,89-17.2,75.7-24.9
		c-7.2-4.2-34.4-7.6-14.9-16.9c22.1-10.5,33.4-10.7,4.2-21.9c-13.5-5.2,1.6-15.8-12.2-17.4c-27.1-3-35.3-8.7-43,17.9
		c-7.3,25.2-34.6-14.7-63.1,3.9c-14,9.2-3.2,16.5-0.7,19.2c6.4,7.3-5.3,17.9-13.3,14.3c-4.2-1.9-10.3,1.9-14.9-0.3
		c-12.4-6-27.6,2.7-40-4.9C818.3,1057.6,809,1054.2,799.5,1056.1L799.5,1056.1z M1015,1086.1c15,5.8,18.4,3.5,32.4,2.4
		c8.8-0.7,8.8-6.8,14.3-12.1c6.3-6,18.5-10.7,23.8,1.5c7.2,16.7,40,26,56.3,25c13.9-0.8,30.4,0.3,42.4-7.8
		c8.3-5.6,64.1-15.2,64.2-17.4c0.1-2.2-37.7-22.5-58.3-3.3c-9.5,8.8-28.4-2.9-53.2,21c-3,2.8-8.6-1.7,0.3-8.1
		c22.6-16.4,44.6-14.1,47.6-18.9c11.2-17.9,26.4,7.1,20.7-30.7c-4.5-29.4-24.7-42.2-51.9-42.8c-27.6-0.6-94.9,6.3-110.7,33.9
		c-6.5,11.3,15.7,9.2-20.6,27.6C1013.3,1060.9,1065.9,1067.3,1015,1086.1L1015,1086.1z M1079,1224.7
		c-17.2-0.4-178.4,40.6-132.6,66.3c52.9,29.7,57.8,10.8,94.6,18.9c16,3.5,35.8,0.6,51.8-1.9c22.9-3.6,57.7-18.8,78-30.1
		c9.9-5.5,4.4-20.5,2.7-29.1C1165.1,1206.9,1105.6,1227.8,1079,1224.7L1079,1224.7z M866.4,1324.7c17.1,0,72.1,2.5,85.4-1
		c26.7-7-55.6-60.6-165.9-49.4c-77.1,7.8-49.1-15.2-95.4,11.6c-3,1.7-25.6,21.4-12.8,22.9l61.1,10.2
		C781.2,1323.4,823.7,1326.1,866.4,1324.7L866.4,1324.7z M730.7,1149.3c34.8,0.4,68.7-4.8,102.9-9.8c6.5-0.9-4.2-11.2-5.2-18.5
		c-1.3-9-30.8-13.7-38.6-14.3c-35.7-2.9-28-31.3-42-25.7c-16.7,6.6-46.1,8.3-62.9-0.4c-17.9-9.2-20.7,32.1-20.5,41.2
		c0.3,12.3,19.3,23.4,30.2,24.8C706.5,1148.2,718.5,1149.1,730.7,1149.3L730.7,1149.3z M1027.9,1159.7c-15.2-0.8-75.9,1-85.2,4.4
		c-29.4,10.5-46.4,16.8-68.1,38.8c-8.3,8.4,21.2,2.9,23,2.4c21.6-5.8,73.2-3.9,87.2-11.7c46.1-25.7,98.6-19.4,97.2-30.1
		c-0.8-5.8-9.7-2.5-13.3-2.6C1055.2,1160.5,1041.6,1160.1,1027.9,1159.7L1027.9,1159.7z M269.8,1184.6c30.7-3.8,35.1-2.3,59.1-22
		c16.5-13.5-16-22.7-25.2-22.5c-25.5,0.7-50.6,4.7-75,12.2C208.8,1158.5,264.6,1185,269.8,1184.6L269.8,1184.6z M1374.6,924.6
		c18.1-4.2,66.8-21.2,75.8-22c13.7-1.2-22.3-24.9-34.9-24.1c-36.4,2.1-78.2,29.9-64.9,34.9C1359.6,916.6,1368.3,924.3,1374.6,924.6
		L1374.6,924.6z M1324.9,899.5c-2.2,5.3,4.3,5,7.6,6.4c9.4,4.2,10.9-7.1,18.8-11c3.8-1.9,39.2-19.4,37.9-21.7
		c-3.1-5.3-1-8.8-13.7-9.1c-17.5-0.5-44.9-18.9-47.9-4.7c-1.5,7.1,16,2.9,14,10.1c-1.7,6.2-14.8-4.4-16.1,1.8
		c-1.8,8.3,18.1,2.2,16.8,10.7c-1.5,9.9-17.1-6.9-17.5,6.2C1324.8,891.9,1324.9,895.7,1324.9,899.5L1324.9,899.5z M1352.7,1167.8
		c-16.2-1.6-44.6,7.8-28.8,20.6c23.1,18.8,35.2-4.2,87.4-9.9c9.3-1-7.8-7.5-11.1-7.7C1385.3,1170.3,1370.7,1167.7,1352.7,1167.8
		L1352.7,1167.8z M1104.4,838.6c-16.6-7.9-90.9-3.3-85.6,16.6c1.6,6,17.3,4.1,21.7,6.3c10,5.1,29.4-13.2,62.9-21.1
		C1104.1,840.3,1104.8,839.9,1104.4,838.6L1104.4,838.6z M642.4,1277.7c-28.2-1.3-46.8,21.9-27.8,23c13.5,0.8,45.3,14.7,50.5-4.2
		C668.9,1282.4,674.1,1281.1,642.4,1277.7L642.4,1277.7z M1375.9,943.2c10.6,2.4-6.6-14.7-48.9-29.5c-7.3-2.6-3.9,20,5,21.2
		c7.3,1,15.3-0.2,21.5,5.5L1375.9,943.2L1375.9,943.2z M1488.6,1084.8c1.4-0.7,4.3,0.3,3-2.8c-1-2.2-8.7-19.3-12.7-13.3
		c-4.4,6.8-44,31.5-7.5,18.2C1477,1084.9,1482.4,1081.9,1488.6,1084.8L1488.6,1084.8z M1151,1302.7c2.7-0.4,21.6-1.5,20.6-4.9
		C1168.8,1288.9,1154.6,1299.5,1151,1302.7L1151,1302.7z M917.1,1367.4c-46.9,0.5-89.5,2.2-136.1-1.7
		c-45.2-3.8-154.4-16.8-192.9-27.2c-9.1-2.5-9-7.9,0.8-7.2c75.1,5.6,127.7,26.8,223.5,26.1c213-1.4,266.7,2,472.3-33.5
		c75.4-13,226.5-62.5,292.2-92.5c73-33.2,106.8-51.7,163.2-104.8c9.3-8.8,12-6.7,20-19.8c16.5-26.8,29.1-55.3,37-85.8
		c0-0.1,4.4-45.9,8-35.5c8.6,24.3-1.7,21.2-0.3,40.8c1.8,26.1-36.6,91.8-58.1,113.4c-37.4,37.5-83.6,65.8-131.9,87
		c-22.2,9.7-43.3,21.7-65.8,30.8c-133.1,54-300.9,86.2-442.3,101.8C1043.7,1366.3,980.4,1366.2,917.1,1367.4L917.1,1367.4z
		 M46.2,1049.7c27.6,41.4,62.3,85.7,102.8,114.4c36,25.5,118.6,68,158.6,84.3c5,2,56.4,21.1,52.9,27.7c-2.5,4.7-102.4-39.4-113-44.1
		l-70.9-38.7c-55.9-34.4-76.1-54.6-114.2-104.9C53.7,1076.9,49,1063.8,46.2,1049.7L46.2,1049.7z M154.4,929.3
		c-2.6-58.7,16.4-63.5,14.1-49.5c-10.9,66.2,12,138.7,2.3,139.9C161.4,1020.8,154.3,935.5,154.4,929.3L154.4,929.3z M236,830.2
		c-3.6,47.3-6.1,69.7-4.5,117.8c0.1,3.5,2.1,7.5-2,10.2c-12.5-9.6-4.5-87.9-3.5-103.5c0.5-7.5,3.1-14.8,2.1-22.5
		C227.7,829.3,237,824.1,236,830.2L236,830.2z M327.9,795c-0.7-17.7,9.4-25.4,10.1-7.7c0.8,22.6,6,61,4.9,77.5
		c-0.7,10-8.1-3.2-8.9-6.1C328.3,837.6,330.1,816.4,327.9,795L327.9,795z M1651.3,1261.4c0.9-21.2-7-44.3,0.6-46.3
		c3.6-1,2.9-6.9,8.2-5c3.8,1.4-2.1,3-0.8,11.4c11.8,73.3-7.7,80.3-8,58C1651.3,1273.5,1651.3,1267.5,1651.3,1261.4L1651.3,1261.4z
		 M275.7,869.4c0.1,5.3,6.5,55.9,0,56.8c-9.2,1.2-14.7-88.8-5.1-89.3C278,836.4,275.7,865.5,275.7,869.4L275.7,869.4z M367.7,846.9
		c0.4,6.9-3,9.3-6.1,2.4c-4-8.9-19.1-80.2-8.3-80.2c2.9,0,7.1,4.1,7.2,7.2L367.7,846.9L367.7,846.9z M209.3,877.6
		c0,5.2-0.2,54.6-6.5,54.8c-7.3,0.3-4.2-79.9,1.6-90C212.9,827.7,209.4,876.2,209.3,877.6L209.3,877.6z M1791.9,1129.5
		c-3.2,69.6-15.2,58.5-14.1,44.6l3.9-62.6c2.1-9.5,9.8-1.6,10.2,5.9C1792.1,1121.5,1791.9,1125.5,1791.9,1129.5L1791.9,1129.5z
		 M434.1,769.8c0-6.4-4.5-29.5,7.4-28.5c3.1,0.3,5.8,71.6,5.3,79.7c-0.2,2.6-3.9,3.3-4.8,0.8C435.9,804.9,435.3,787.5,434.1,769.8
		L434.1,769.8z M190.9,860.1l-5.2,75.3c-0.4,6.7-6.2,8.4-6.7,0.9c-0.2-3.6-5.4-86,10.6-78.6C191.3,858.4,190.9,860.1,190.9,860.1
		L190.9,860.1z M1479.1,1345.3c0,3.1,3.1,30.7-5.5,28.8c-5.2-1.1-5.4-63-8.2-71.7c-2.2-6.7,14.6-16.1,13,27
		C1478.2,1334.8,1478.3,1340.1,1479.1,1345.3L1479.1,1345.3z M1515.1,1336.4c-0.7-11.5-3.9-25.6-0.8-36.9c1.3-4.7-5.4-19.8,0.9-22
		c12.7-4.5,8.9,40.7,8.2,45c-0.6,3.7,2.6,38.9-6.9,37.1c-4.2-0.8-1.8-19.8-1.8-23.3C1514.9,1336.4,1515,1336.4,1515.1,1336.4
		L1515.1,1336.4z M1606.1,1290.4c-0.4-14.9-0.1-29.8-5.1-44.1c-4.9-14.1,19.5-16.2,13.9,60.7c-0.5,7.4-8.8,16.8-8.8,6.9
		C1606.1,1306.1,1606.1,1298.2,1606.1,1290.4L1606.1,1290.4z M1561.4,1318.8c0.7-24.2-9.2-59.6-1.3-60.1c11.2-0.6,11.7,71.2,8.8,75
		C1558.2,1347.4,1561.4,1325.2,1561.4,1318.8L1561.4,1318.8z M318.5,837.8c0,5.7,2.7,42.6-1.9,42.9c-5.4,0.3-11.4-76.6-6.3-81.3
		C321,789.5,317.7,816.7,318.5,837.8L318.5,837.8z M156.3,1039.3c-1,7.6-6.8,8.2-8.9,0.6c-2.4-8.6-16.1-53.2-9.6-59
		c10.5-9.3,13.7,36.5,18.1,54.1C156.2,1036.3,156.1,1037.6,156.3,1039.3L156.3,1039.3z M954.5,1422.8c0.1,9.5,5,39.9-3.6,39.6
		c-5.5-0.2-6.2-69.2-5-74.8c1-4.9,8.4-4.9,8.5,0.4L954.5,1422.8L954.5,1422.8z M1692.3,1226.5c0-7.5-4.2-28,6.8-30.2
		c4.9-1,9,69.4-5.3,64.6C1690.1,1259.6,1692.4,1231.5,1692.3,1226.5L1692.3,1226.5z M1445.1,1340.2c0-3.5-2.7-23.7,4-23.7
		c5.4,0,4.5,11.6,4.9,15.3c0.5,4.6,9.4,52.3-0.3,52.7c-7.2,0.3-7.6-39.9-8-44.3C1445.4,1340.2,1445.3,1340.2,1445.1,1340.2
		L1445.1,1340.2z M1737.5,1189.5c0-4.7-3.9-29.9,6-29c10,0.9,5.1,46.7,3.1,52.9c-3.3,10.3-8.7,1.5-8.7-5.1c0-6.3,0-12.5,0-18.8
		C1737.7,1189.5,1737.6,1189.5,1737.5,1189.5L1737.5,1189.5z M422.5,785.1c0.3,5.1,4.3,27.3-1.4,29.7c-9.9,4.1-9.8-60.8-8.7-62.2
		c5.8-6.9,9.1,4.8,9.1,9.1c0,7.8,0,15.6,0,23.4C421.9,785.1,422.2,785.1,422.5,785.1L422.5,785.1z M1716.7,1214.8
		c0-3.6-4-33,6.2-31.7c3.6,0.5,8.4,63.1-4.3,60.1c-4.1-1-2.2-24.2-2.2-28.4C1716.5,1214.8,1716.6,1214.8,1716.7,1214.8
		L1716.7,1214.8z M1625.2,1232.8c0.1-7.9,13.8-8.4,9.9-6.2c-4,2.3-3.1,6-2.5,9.4c3.2,19.2,2,38.7,4.6,57.8c1.3,9.4-7.3,15.5-7.9,2.4
		L1625.2,1232.8L1625.2,1232.8z M303.2,907.7c0,11.4-8.5,0.1-9.9-4.8c-15.2-54.4,3.5-48.6,5-37C300,879.6,301.5,893.4,303.2,907.7
		L303.2,907.7z M1242.1,1403.2c-0.9,17.8-8.1,12.9-8.4-0.4c-0.1-6.4-7.8-53.5-0.3-53.7C1241.9,1349,1241.5,1399.1,1242.1,1403.2
		L1242.1,1403.2z M254.4,866.5c0,5,3.6,32.7-7.7,30c-4.4-1-4.4-58.7,6.9-55.2c5.9,1.8,1.7,20.7,1.5,25.2
		C254.8,866.5,254.6,866.5,254.4,866.5L254.4,866.5z M1799.9,1101.1c0.5-5.3-4.3-25.9,3.5-27.1c12.1-1.9,11.1,51.5,0.4,49.6
		C1797.1,1122.4,1799.9,1106.1,1799.9,1101.1L1799.9,1101.1z M441.8,1302.2c-17.2-2.5-34.6-9.4-51.1-15.1c-7.5-2.6-8.8-12.1,3-7.9
		C400.7,1281.6,470.6,1302.2,441.8,1302.2L441.8,1302.2z M1769.3,1152.6c0,34.9-10.6,28.5-10.7,21.1c-0.1-4-3.7-46.5,5.6-44.5
		c7.6,1.6,5.3,17.9,5.5,23.4C1769.7,1152.6,1769.5,1152.6,1769.3,1152.6L1769.3,1152.6z M1595.9,1273.9c0.9,37.8-12.8,35.3-10.8-0.7
		c0.3-4.5-2.1-23.4,3.8-24C1596.1,1248.6,1595.6,1269.8,1595.9,1273.9L1595.9,1273.9z M1384.7,1381.9c0,17.7-5.6,11.6-6.3,6.2
		c-0.9-7.3-10.4-60.6-3.9-61.7C1383,1324.8,1384.3,1377.4,1384.7,1381.9L1384.7,1381.9z M295.4,822.5c0,4.1,3.5,29.3-5.4,29
		c-7.6-0.2-5.1-41.6-5-46.5c0-5.9,9.4-11.8,9.6-5.2l0.2,22.6C295,822.5,295.2,822.5,295.4,822.5L295.4,822.5z M521.4,747.3
		c0-5.6-3.2-25.9,4.1-27c2.5-0.4,3.8,0.1,3.9,2.9c0.2,5.6,8.4,51.9-3.5,51C520.6,773.8,522.6,752.4,521.4,747.3L521.4,747.3z
		 M555.2,734.5c-0.2,5,4.2,29.4-3.1,30.2c-8.8,1-11-53.8,2.2-48.9C558.5,717.3,555.4,731,555.2,734.5L555.2,734.5z M1498.2,1318.7
		c0,3.6,2.6,19.1-2.8,19.7c-6.3,0.7-8.2-40.3-8.3-46C1487,1286.1,1501.2,1277.6,1498.2,1318.7L1498.2,1318.7z M1313.3,1382.9
		c-0.2,5.9,1.8,24.5-3,24.7c-3,0.1-2.9-5.7-2.8-7.6c1-18.3-9.6-57-2.6-57.9C1313.2,1340.8,1313.6,1380.9,1313.3,1382.9
		L1313.3,1382.9z M406,832.3c0,0,0.2,4.1-1.7,4.8c-6.4,2.2-17.9-51.6-6-52.1C405.5,784.7,405.5,825.1,406,832.3L406,832.3z
		 M1338.6,1366.4c0,3.7,3.4,29.2-3.5,28.8c-3.4-0.2-5.3-40.3-7.1-49.1c-2.6-12.9,9.2-13.3,9.2-5.3
		C1337.3,1349.3,1338.5,1357.8,1338.6,1366.4L1338.6,1366.4z M573.6,732.6c0-5.2-3.4-22,3.8-23.6c8.5-1.9,4.9,22.5,5,38.2
		c0,10.9-8.6,15.9-8.7-2.5c0-4,0-8,0-12C573.7,732.6,573.6,732.6,573.6,732.6L573.6,732.6z M622.8,722.7c0.2-3.2-1.1-25.2,6.2-23.6
		c7,1.5,5.1,31.7,5.2,36.4c0.3,8.8-10.4,9.6-11,0.8c-0.3-4.5-0.1-9.1-0.1-13.6C623.1,722.7,623,722.7,622.8,722.7L622.8,722.7z
		 M1363,1374.6c1.3,9.7-6.8,26-6.8,12.6c0.1-23.6-9.2-57.4-0.2-56C1360.6,1331.9,1362.9,1368.4,1363,1374.6L1363,1374.6z
		 M1544.8,1304.5c0,12.4-8,14.9-8.9,5.3l-4.5-35.8C1530.3,1269.3,1541.5,1254.7,1544.8,1304.5L1544.8,1304.5z M381.8,813.6
		c0,0,3.3,29.6-4.2,20.8c-2.4-2.8-12.7-51.6,2.7-46C384.5,789.9,381.8,808.2,381.8,813.6L381.8,813.6z M1265,1375.9
		c-0.7,14.9-1.7,53.7-7,13.9c-0.6-4.3-7.5-34.3,0.5-35.6c8.5-1.3,6.1,17.1,6.1,21.7C1264.8,1375.9,1264.9,1375.9,1265,1375.9
		L1265,1375.9z M165.4,1257.6c-1.7-26.6,6.9-21.1,7.8-11.7c0.4,4.7,6.6,36.8-1.6,37.1C164.2,1283.4,165.6,1262,165.4,1257.6
		L165.4,1257.6z M1135.1,674c-3.2-0.2-34,1.3-33-6.5c1-7.7,48.9-4.5,45.1,5.9C1146.2,676.3,1137.5,674.1,1135.1,674
		C1135.1,674,1135.1,674,1135.1,674L1135.1,674z M1291.9,1384.2c-0.2,3.5-1.4,30.7-6.6,14.1c-1.4-4.5-4.1-47.4,0.1-48
		C1292.8,1349.3,1291.9,1379.9,1291.9,1384.2L1291.9,1384.2z M190.9,986.1c-3.8,26.1-19.7-35.8-8.4-36.5
		C190.6,949.1,189.4,975.2,190.9,986.1L190.9,986.1z M1190.7,1405.6c0,2.7,1.9,15.2-2.4,15.2c-4.3,0-10.5-61.3-1.9-52.2
		c4,4.2,4.5,30.4,5.1,37C1191.2,1405.6,1191,1405.6,1190.7,1405.6L1190.7,1405.6z M683.3,711.8c0-4-2.1-18.9,4.9-18.6
		c5.1,0.2,11.1,37.7-0.1,36.7c-7-0.6-4.4-13.5-4.4-18C683.5,711.8,683.4,711.8,683.3,711.8L683.3,711.8z M1434.2,1349.7
		c-0.5,13-6.1,15.6-6.9,4c-1.1-16.2-9.4-53.7,0.8-42.6C1432.9,1316.3,1433.4,1342.8,1434.2,1349.7L1434.2,1349.7z M117,1224.1
		c1,8.3-11.3,5.4-12-33.6c-0.1-5.6,6.4-14,7.1-4.4C113.1,1198.8,114.1,1211.5,117,1224.1L117,1224.1z M599,725.4
		c0-20.9,7-18.9,7.8-10.1c0.5,5.3,7.3,33.7-2.2,34c-7.1,0.3-5.5-19.4-5.9-23.9C598.8,725.4,598.9,725.4,599,725.4L599,725.4z
		 M1402.5,1349.3c0,36.3-10.9-17.4-11.7-23.4C1389.3,1315.1,1404.5,1314.8,1402.5,1349.3L1402.5,1349.3z M211,970.1
		c0.2,8.5-8.8,8.2-9.1,1.1c-0.2-4-5.5-34,3.8-32.6C210.9,939.5,210.1,966.5,211,970.1L211,970.1z M973.8,1409.3
		c-2.4,37.5-9.2-10.9-9-21.6c0.2-7.2,7.2-7.7,7.7-0.2C973,1395,973.4,1402.5,973.8,1409.3L973.8,1409.3z M651.9,716.3
		c0.4-4-0.4-13.9,5.5-14.1c5.2-0.2,8.1,24.9,4.1,28.7C653.1,739.1,651.9,720.9,651.9,716.3L651.9,716.3z M129.3,1225.7
		c0-13.6,8.6-11.9,10.2,1.3c0.5,4,4.7,18-1.2,19.7C131.3,1248.6,129.4,1229.6,129.3,1225.7L129.3,1225.7z M499.7,747.9
		c0.3-3.4-0.5-17,4.3-17c4.5,0,9.7,33.4,1.4,34.1C498.5,765.6,500,751.8,499.7,747.9L499.7,747.9z M541.3,1318.2
		c3,0.7,20.2,2.1,19.2,8.2c-1.4,8.7-28.5,1.5-27-5C534.3,1317.8,537.4,1318.1,541.3,1318.2L541.3,1318.2z M1037.8,1392.5
		c-0.5,23.3-9.1,20.8-8.9-9.6C1029,1378.6,1036.2,1369.8,1037.8,1392.5L1037.8,1392.5z M469.9,774.3c0,18.6-10.5,14.8-10,7.2
		c1.8-28.6,9.9-18.4,9.9-15.5c0,2.8,0,5.5,0,8.3C469.8,774.3,469.8,774.3,469.9,774.3L469.9,774.3z M480.9,764.9
		c4.8-46.6,18.4,13.7,2.3,8.6c-3.7-1.2-2.4-5.7-2.2-8.6C481,764.9,481,764.9,480.9,764.9L480.9,764.9z M1016.7,1391.6
		c-1.9,37.7-17.4-14.8-3.8-13.5C1018.7,1378.7,1016.7,1387,1016.7,1391.6L1016.7,1391.6z M1084.5,1393.9c0.5,16.1-13,8.7-9.7-11.6
		c0.8-5,8.1-4.8,8.7,0.2C1083.9,1386,1084.1,1389.5,1084.5,1393.9L1084.5,1393.9z M262.4,815.8c-0.8,5.2,0.1,17.3-7.1,16.7
		c-9.9-0.7-4.5-23.2,4.3-20.4C261.8,812.9,262.5,814.7,262.4,815.8L262.4,815.8z M1681.6,1260.2c-1.5,34-16.9-15.6-4-13.1
		c5.6,1.1,3.7,9,3.7,13.1C1681.4,1260.2,1681.5,1260.2,1681.6,1260.2L1681.6,1260.2z M503,1319.3c-20-2.8-25.8-12.2-16.8-10.2
		c4,0.9,23.7,1.8,24.8,5.4C511.9,1317.7,506.2,1319.2,503,1319.3L503,1319.3z M1122.2,1383.1c-1.4,13.6-7.7,11.8-8.2,6.8
		c-0.4-4.3-4.2-18.9,2.6-19.7C1122.3,1369.5,1122.2,1379.5,1122.2,1383.1L1122.2,1383.1z M1679.6,1222.5c0.1,19.3-11.7,9.4-9.5-8.1
		C1670.9,1207.7,1679.1,1210.6,1679.6,1222.5L1679.6,1222.5z M1218.2,1370.8c-0.3,3.4,1.3,15.5-3.6,15.2c-5.4-0.3-5.9-26.8-0.2-27.3
		C1219.4,1358.3,1218.1,1368.4,1218.2,1370.8L1218.2,1370.8z M1417.5,1336.6c-3.3,24.4-14.7-18.4-5.6-19.2
		C1418.2,1316.9,1416.6,1332.6,1417.5,1336.6L1417.5,1336.6z M1159.9,1384.2c0.9,13.9-8.8,11.8-8.8-9.7c0-7.5,7-8.8,7.9-0.8
		c0.4,3.5,0.7,7,1.1,10.5C1159.9,1384.2,1159.9,1384.2,1159.9,1384.2L1159.9,1384.2z M1221,1414.7c-3.9,25.7-13-18.7-5.4-19.5
		C1221.7,1394.5,1220.6,1410.8,1221,1414.7L1221,1414.7z M383.1,773.2c0.4,18.1-24.1-11.3-4.7-12.3
		C383.7,760.7,382.7,769.8,383.1,773.2L383.1,773.2z M1060.5,1387.7c-0.4,31.6-17.2-10.8-4.8-11.2
		C1060.8,1376.4,1060.2,1384.7,1060.5,1387.7L1060.5,1387.7z M1427.5,1385.7c-0.8-14.4,15.2-9.7,8.7,5.8
		C1433.2,1398.7,1428,1395.4,1427.5,1385.7L1427.5,1385.7z M995.7,1394.3c-3.4,28.7-13.4-11.6-4.5-11.7
		C996.3,1382.5,995.4,1390.7,995.7,1394.3L995.7,1394.3z M244.6,918.2c0-14.7,11.8-7.2,9.5,4.8C252.6,930.9,245.3,927.7,244.6,918.2
		L244.6,918.2z M1492.4,1367.3c0-4.5,0.8-16.3,7.6-9.3c4.4,4.5,0.9,19.5-6.6,15.9C1490.7,1372.6,1492.9,1368.9,1492.4,1367.3
		L1492.4,1367.3z M1594.7,1321.2c-2.3,14-10.5,14.6-8.3-5.5C1587.1,1309,1593.8,1310,1594.7,1321.2L1594.7,1321.2z M87,1181.5
		c-0.9-14.9,3.8-14.1,5.5,0c2.7,22.1-5.5,15.1-5.5,9.9C87,1188.3,87,1185.3,87,1181.5L87,1181.5z M191.4,1282.6
		c-0.9,27.7-15-8.1-4.6-9.1C191.9,1273.1,191.2,1279.8,191.4,1282.6L191.4,1282.6z M1201.6,1374.6c0,25.1-13.5-12.4-3.6-12.2
		C1202.9,1362.6,1201.1,1371.5,1201.6,1374.6L1201.6,1374.6z M1333.1,1409c-1-22.6,15.3,9.1,3.4,8.8c-3.9-0.1-3.2-6.2-3.5-8.8
		C1333,1409,1333,1409,1333.1,1409L1333.1,1409z M427.6,835.6c0.8,15.9-15.2-4.5-6.3-8.1C425.7,825.7,427.4,832.7,427.6,835.6
		L427.6,835.6z M1174.2,1376.6c-3.1,18.2-9.4-7.9-4-9.9C1174.2,1365.1,1174.1,1374.7,1174.2,1376.6L1174.2,1376.6z M1102,1389.9
		c-2.6,26.5-10.2-25-2.1-10.4C1101.7,1382.7,1101.5,1386.3,1102,1389.9L1102,1389.9z M1537.5,1343.9c4.6-22.4,11.1,8.2,2.5,6.5
		C1537.5,1349.9,1537.5,1347.1,1537.5,1343.9L1537.5,1343.9z M1765.2,1197.2c-3.1,16.6-15.7-5.8-3.9-6.1
		C1764,1191.1,1765.6,1193.7,1765.2,1197.2L1765.2,1197.2z M400.2,765.5c0.6,9.2-8.4,7.8-7.5-2.1C393.4,756.1,399.5,760,400.2,765.5
		L400.2,765.5z M1314.4,1420.4c-2.8,16.6-12.3-6.8-3.6-6.7C1314.3,1413.6,1314.3,1417.7,1314.4,1420.4L1314.4,1420.4z
		 M1140.6,1381.1c-3,18.3-10.7-7.7-2.9-7.1C1141.2,1374.3,1140.6,1378.5,1140.6,1381.1L1140.6,1381.1z M1293.7,1417.7
		c-1.1,14.7-12-4.1-3.5-4.4C1293.4,1413.1,1293.5,1415.7,1293.7,1417.7L1293.7,1417.7z M1358.7,1407.5c-9.9-1.4,3.1-17,3.2-4.3
		C1361.9,1405.5,1360.9,1407.1,1358.7,1407.5L1358.7,1407.5z M1223.4,1438.3c-0.7,9.7-11-4-4.1-5.4
		C1221.3,1432.5,1223.3,1435.2,1223.4,1438.3L1223.4,1438.3z M1579.4,1598.3l23.5-70.2c6.9-25.2,19.2-47,27.3-85.6
		c7.7-36.8,14.8-73.6,21.7-110.6c0.6-3,4.9-12.7,9.7-10.4c3.9,1.8-10,61.9-11.2,69.2c-10.4,65-29.4,129.3-55.1,189.9
		C1591.8,1588.4,1585.9,1593.4,1579.4,1598.3L1579.4,1598.3z M1433.8,1516.6c-1.4,50.2-20.2,159.5-38.5,211.6
		c-1.1,3.1-11.8,10.8-12.6,9.6c-2-3.1,10.2-36.4,13.4-55.7c2.8-17.1,6.2-34.3,11.1-50.9c8.7-29.5,18.3-100.3,18.9-133
		c0.4-19.1,9.4-18.1,8.7-5C1434.5,1501,1434.2,1508.8,1433.8,1516.6L1433.8,1516.6z M1612.3,1567.4c0-3.8,1.1-5.7,2-7.8
		c29.1-71.5,55.2-165.2,66.7-243.7c0.9-6.2,11.9-13.4,10.5-3.8c-13.1,84.5-31.4,148.2-60.9,229.7
		C1626.9,1551.9,1620.2,1559.2,1612.3,1567.4L1612.3,1567.4z M1720.4,1291.9c-13.6,93.9-10.8,99.7-46.1,193.3
		c-7.9,20.9-28.6,48.8-19.8,24.5c31.1-86.1,43.4-120.3,55.5-214.5C1711.2,1286.7,1717,1275.3,1720.4,1291.9L1720.4,1291.9z
		 M1407.5,1543.7c-4.6,26.9-27.2,179.9-39.5,192.7c-9.1,9.5-12.9,9.4-8.2-3.6c9.2-25.4,32.5-139.8,35.5-172.4
		C1397.3,1537.7,1408.1,1529.3,1407.5,1543.7L1407.5,1543.7z M503.2,1746.9c-0.9,49.3-41.8-158.7-44.6-182.3
		c-1.2-10,9.6,2.2,10.4,7.3c7.4,49.3,16.3,91.6,27.1,140.1L503.2,1746.9L503.2,1746.9z M1444.2,1554.8c0.2-2.3,1.3-64.8,10.4-47.3
		c10.2,19.4-27.9,184.7-35.6,206.7c-2,5.8-14.4,14.1-10.4,3.1C1418.1,1691.4,1446.7,1575.1,1444.2,1554.8L1444.2,1554.8z
		 M256.9,1476c-0.9-6.4,3.3-12.3,5.2-3.6c10.2,45.8,32.6,115,49.5,160.1c9.8,26.4-10.4,2-14.3-8.9
		C283.5,1583.8,260.6,1517.4,256.9,1476L256.9,1476z M488.4,1568.4c5.4,0,6.4,9.6,6.7,13.6c2.5,42.8,23.2,139.8,35,182.4
		c0.7,2.5-8.5,29.1-30.2-103.9c-3-18.6-16.3-73-14.7-89.4C485.4,1569.4,486.7,1568.7,488.4,1568.4L488.4,1568.4z M1547.3,1625.7
		c-0.9-1.7-0.2-2.9,0.2-4c16.6-41.9,30.5-84.7,42.8-128.1c6.1-21.4,15.3-13.7,11.6-1.2c-11.9,40-23.6,79.4-40,117.8
		C1558.9,1617.3,1553.2,1621.4,1547.3,1625.7L1547.3,1625.7z M477.6,1731.2c-1.5,3.6-1,8.9-5.3,1.7
		c-10.4-17.1-34.2-139.4-38.9-163.6c-0.9-4.5,5.6-15.7,7.9-7.6c10.5,37.2,11.5,79,28.2,132.7
		C473.2,1706.1,476.9,1719.1,477.6,1731.2L477.6,1731.2z M1165.3,1794.1c-0.1-20.6,10.2-91.3,13.8-114.9c1.5-9.5,9.3-9.3,9.7,1
		c0.4,12.2-10.9,115-14.4,122.9c-2.7,6.1-7.5,5.2-8.3-1C1165.7,1799.2,1165.5,1796.2,1165.3,1794.1L1165.3,1794.1z M1783.3,1231.4
		c-2.5,21.2-22.9,112.2-34.9,124.6c-3.9,4-7.9,0.1-6.7-4.1c10.1-33.3,18.5-67,25.1-101.2C1768.2,1243.4,1783.9,1218.2,1783.3,1231.4
		L1783.3,1231.4z M346,1665.7c0.3,15.7-16.7-19.7-17.1-21c-4.2-12.4-42.8-128.6-35.9-132.5c8.6-4.9,15,33.2,18.7,46.2L346,1665.7
		L346,1665.7z M1580.3,1467.6c-3.7,17.2-28.6,135.3-41,129.9c-5.2-2.3,1.6-17.7,2.7-21.3c8.4-26.9,15.6-54.2,22.3-81.6
		c2.4-9.8,7.4-18.7,9.2-28.6C1574.6,1459.8,1579.9,1462.6,1580.3,1467.6L1580.3,1467.6z M1363.4,1633.2
		c-1.4,20.4-16.8,124.2-28.4,129.8c-4.7,2.2-3.3-3.5-2.7-6.3c9-41.4,15.7-83.2,21.6-125.2
		C1356.4,1614.6,1363.3,1615.7,1363.4,1633.2L1363.4,1633.2z M1565.6,1389.4c0.7,41.7-9.3,79.1-17.5,118.7c-2.9,14-11.5,14.7-7-4.8
		c10-43.1,10.4-81.2,16.9-123.2c0.6-3.8,8.4-8.6,8-0.3C1565.9,1383.5,1565.7,1387.2,1565.6,1389.4L1565.6,1389.4z M1495.4,1659.7
		c3.5-13,7.3-27.9,13.1-40.1c13.2-27.8,20.7-95.5,31-92.9c2.9,0.7,3.9,2.9,2.7,7.4c-2.9,11.3-35.1,135.1-45.5,131.1
		C1494.8,1664.5,1495.4,1661.7,1495.4,1659.7L1495.4,1659.7z M1515.2,1568.6c-33.4,136.2-50.1,123.6-45.9,114.3
		c3.6-7.9,36.1-102.8,37-113.9C1507,1560.8,1515,1558.3,1515.2,1568.6L1515.2,1568.6z M529.2,1664.3c0.3-18.5,7.1-17.8,9.5-1.1
		l17.7,110.4c0.3,3.8-4.3,4.9-5.9,1.6C540.8,1755.1,531,1689,529.2,1664.3L529.2,1664.3z M1220.8,1696.2
		c-1.7,11.8-10.9,105.9-21.7,103.9c-7.6-1.4-1.5-20.6-0.7-25.2c4.2-24.5,9-49,9.8-73.9C1208.8,1683.3,1221.4,1685.1,1220.8,1696.2
		L1220.8,1696.2z M1134.6,1795.4l8.2-88.7c1.2-9.5,10.6-3.2,9.8,10c-1.7,28.3-3,62.5-9.1,90.1c-0.3,1.2-8.7,13.4-8.7-11.4
		C1134.8,1795.4,1134.7,1795.4,1134.6,1795.4L1134.6,1795.4z M1247.9,1699.6c-8.8,109.2-22.7,88.3-22,81.5
		c2.4-21.6,7.2-71.4,11-88.5C1239.5,1680.9,1248.6,1690.3,1247.9,1699.6L1247.9,1699.6z M1280.2,1666.2
		c-0.6,7.3-10.6,115.8-21.9,112.9c-7.6-2,1.9-36.4,2.7-40.7c4.8-25.8,6.2-52.1,11.1-77.8C1274,1650.7,1280.2,1656.8,1280.2,1666.2
		L1280.2,1666.2z M1100.8,1786c0.1-11.5,2.6-59.6,7.2-69.1c5-10.3,10.7,2.7,10.1,8.5c-1.9,20.5-4.3,67-9.6,84.1
		c-1.9,6.3-9.3,4.7-9-1.6C1099.9,1800.6,1100.4,1793.3,1100.8,1786L1100.8,1786z M1307.4,1665.4c-0.4,5.6-11.5,109.1-21.9,107.6
		c-4.6-0.7-3.1-7.5-2.6-10.5c6.5-35.8,13.2-71.2,16.4-107.4c0.4-5.1,6.8-4.7,8-0.1C1308.3,1658.4,1307.3,1661.9,1307.4,1665.4
		L1307.4,1665.4z M1333.6,1674.9c-2.3,16.7-8.4,84.7-21.8,92.1c-7.8,4.3-3.6-10-3-12.7l15-85.5
		C1325.2,1659,1332.9,1662.1,1333.6,1674.9L1333.6,1674.9z M612.3,1698c0-9.8,6.8-16.1,8.2-6c4.5,32.4,7.9,64.9,15,97
		c4.1,18.8-7.8,12.1-9.3,6.6C619.1,1771,615.4,1725.2,612.3,1698L612.3,1698z M1085.7,1744.1c-0.1,22.7-3.2,45.1-7.1,67.4
		c-1.8,10.2-11.1,10.4-9.7-4.8l7.8-80.2c2.8-9.3,9.7-1.4,9.5,6.3C1086.2,1736.5,1085.9,1740.3,1085.7,1744.1L1085.7,1744.1z
		 M609.4,1792.1c0.2,8-8,3.3-9.4-2.6c-29.1-123.2-7.4-111-6.8-102.9C596.1,1722.2,602.9,1757.2,609.4,1792.1L609.4,1792.1z
		 M677.3,1717.1c-1.7-29.2,5.8-24,7.1-12.1c3.6,33.8,4,69.6,12.9,102.5c3.3,12.1-6.4,16.7-8.9,2.3
		C684.5,1787,676.1,1738.8,677.3,1717.1L677.3,1717.1z M1521.2,1502.7l13.4-110.4c0.3-3.7,17.5-25.9,5.3,29.3
		c-0.3,1.5-0.6,3-0.5,4.5c0.8,17.9-5.6,58.2-11.2,78.2C1526.4,1510.5,1521.3,1508.2,1521.2,1502.7L1521.2,1502.7z M756.7,1813
		c4.3,13.9-10.1,30.3-13.9-18.1c-0.9-11.1-8.6-61.7,3.3-60.8c8,0.6,6,26.5,6.4,31.9C753.8,1781.5,755.3,1797,756.7,1813L756.7,1813z
		 M982,1788.6c0.2-3.4,0.4-56.6,8.5-57.3c11-1,1.9,50.7,2,61.1c0.5,42.5-10.8,53.9-10.6,31.7C982,1813.3,982,1802.5,982,1788.6
		L982,1788.6z M564,1694.9c7.5-0.6,6.4,15.8,7.1,20.7c9.5,67.7,21.6,78.5,4.5,71.2c-6.2-2.6-17.8-73.7-16-87.4
		C559.9,1696.6,562,1695.2,564,1694.9L564,1694.9z M336.4,1561.4c7.5-1.3,29.1,95.3,34.3,111c4,12-6.7,7.3-9.3-2.2
		C359.1,1661.7,330,1563.7,336.4,1561.4L336.4,1561.4z M84.3,1273.5c5.5,6.1,28.7,89.3,42.8,119.5c10.4,22.2-6.8,9.5-18.1-22.8
		C106.9,1364.4,75.4,1273.2,84.3,1273.5L84.3,1273.5z M1054.6,1767c-5.1,71.8-17.1,56.9-17,51.1l5.9-73.7c1.4-8.9,11.2-4.2,11.2,5.3
		C1054.6,1755.4,1054.6,1761.2,1054.6,1767L1054.6,1767z M646,1726.6c0-12.3,9.5-8.5,10.6,1.7c2.8,25,3.6,51.2,10.7,75.4
		c4.5,15.5-11.9,24.6-19.6-60.6c-0.5-5.5-1-11-1.5-16.5C646.1,1726.6,646.1,1726.6,646,1726.6L646,1726.6z M1630.3,1374.4
		c-2.1,11.1-15.2,93.6-24.5,91c-5.1-1.4-0.7-15.7,0.1-19.1c6-24,7.5-50.9,15.1-74C1623,1366.3,1630.6,1368.4,1630.3,1374.4
		L1630.3,1374.4z M238.1,1506.5c1.5-5.4,5.7-12.8,8-3.7l27.3,94.8c-4.9,4.3-14-13.9-14.8-16.9L238.1,1506.5L238.1,1506.5z
		 M727.1,1818.2c0.4,6.7-6.2,7.7-7.2,1.4c-5.9-35.8-8.4-72.1-11.3-108.2c-0.8-10.6,5.9-10.1,6.8,0.1
		C718.7,1747,721.6,1782.8,727.1,1818.2L727.1,1818.2z M910.8,1790.5c0.6,9.1,6.6,50.6-1.5,51c-10.9,0.6-8.1-74.1-5.6-86.6
		c1.5-7.6,9.6-10.2,8,21.5C911.5,1780.7,911.2,1785,910.8,1790.5L910.8,1790.5z M1390.6,1506c-2.5,26.5-2.7,53.5-7.7,79.7
		c-1.2,6.4-8.1,4-7-8c1-10.9,6-92.7,10.8-92.9C1392,1484.6,1390.8,1502.4,1390.6,1506L1390.6,1506z M1469.3,1617.7
		c-2.4,24.8-10.5,47.5-16.6,71.4c-1.4,5.4-14.9,16.6-12.3,8.3c8.4-27,17.1-53.8,20.2-82.1C1461.3,1607.7,1469.3,1610,1469.3,1617.7
		L1469.3,1617.7z M1593.5,1368.6c-0.7,7.7-6.1,82.8-15.6,81.1c-6.3-1.1,4.5-60.3,5.6-80.6c0.2-3.6,4.5-11,9.1-8.2
		C1595.2,1362.3,1593.2,1365.9,1593.5,1368.6L1593.5,1368.6z M404,1700.2c-0.2,9.2-7.6,0.5-9-3c-1.9-4.6-28.8-76-16.6-77.3
		c5.2-0.6,12.1,36.5,13.9,42L404,1700.2L404,1700.2z M1460.3,1443.2c1.9,61.7-11.9,47.3-11.9,42.7c0.1-9.3-0.2-65,4.2-67.5
		C1464.9,1411.1,1460.3,1429.2,1460.3,1443.2L1460.3,1443.2z M250.2,1392.8c0.2,11.1,8.5,58.2,5,59.6c-13.2,5.1-20.1-84.3-9.8-83.2
		C253.8,1370,250.2,1385.6,250.2,1392.8L250.2,1392.8z M780.4,1820.6c-1.1,10.1-5.7,8.9-7,0.7c-0.8-5.5-12-105.2-1-85.8
		C776.9,1743.4,778.9,1803.4,780.4,1820.6L780.4,1820.6z M445.7,1709.9c0.1,3-3.7,16.7-6,8.5c-2.3-7.8-24.2-77.1-12.1-76.4
		c7.8,0.4,7.8,36.3,16.7,60.9C445.1,1705.2,446.1,1707.6,445.7,1709.9L445.7,1709.9z M1007.4,1813c0.6-6,2.6-56.6,6.8-61.9
		c2.7-3.4,8.1-2.1,7.7,2.5c-1.1,13.8-3.8,61.8-7.4,69.8c-1.9,4.4-7,3.7-7.1-1.1C1007.4,1819.6,1007.4,1816.8,1007.4,1813
		L1007.4,1813z M241.3,1471.7c-0.1,13.9-19.9-3-18-85.1l2.1-4.6c2.9,2.9,10,65.2,15.4,87.1C241,1470.1,241.2,1471.1,241.3,1471.7
		L241.3,1471.7z M412.3,1625.6c0.4,4.7-3.5,6.5-5.8,2.4c-5.7-10.2-24.7-74.3-14.8-75.8c5-0.8,6.2,9.6,6.8,12.9L412.3,1625.6
		L412.3,1625.6z M1735.2,1345.8c-1.6,7.6-12.1,68.4-21.2,64.7c-5-2,11.2-65.7,13.4-68.3C1731.7,1337.2,1733.9,1340.3,1735.2,1345.8
		L1735.2,1345.8z M1504.2,1526.6c-15.8,87.1-26.3,76.8-23.4,65.4c3.9-15.3,11.5-57.4,16.1-68.2
		C1499.3,1518.1,1504.2,1520.7,1504.2,1526.6L1504.2,1526.6z M1356.8,1580.1l7.6-72.6c4.4-6.8,6.6,4,6.6,7
		c-0.1,4.7-6.3,82.1-12.3,81.4c-3.3-0.4-1.7-13.3-1.7-15.8C1357,1580.2,1356.9,1580.1,1356.8,1580.1L1356.8,1580.1z M1334.2,1586.8
		l2.2-38.5c0.5-6.8,13.7-28.8,6.7,47.1c-0.8,8.3-10.4,17.5-9.7,5.8C1333.7,1596.4,1333.9,1591.6,1334.2,1586.8L1334.2,1586.8z
		 M951.7,1824.4c0.4-6.9,0.9-54.2,5.7-54.9c12.1-1.7,3.4,53.3,2.9,59.5C959.5,1838.7,951.7,1839.6,951.7,1824.4L951.7,1824.4z
		 M848.6,1799.5c0.1-4.1-3.3-35.7,2.9-35.5c6.5,0.2,5.8,38.7,6.1,44c0.3,4.4,5.3,30.3-1.8,30.8
		C847.7,1839.3,849.1,1804.1,848.6,1799.5L848.6,1799.5z M213.9,1481.3c0-6.5,6.1-5.8,7.3,0c1.5,7.4,22.5,74.3,17.3,75.4
		C231.3,1558.2,215.1,1489.5,213.9,1481.3L213.9,1481.3z M1466.3,1581.1l14.4-67.5c1.9-5,6.9-0.3,6.2,3.6
		c-1.2,7.3-11.8,70.5-18.9,69.4C1465.7,1586.2,1466.3,1583.2,1466.3,1581.1L1466.3,1581.1z M263.7,1390c-1.6-27.1,7.6-14.2,7.8-11.7
		c0.7,8.7,8.3,65.7,5.1,66.1C269.7,1445.2,264.1,1395.3,263.7,1390L263.7,1390z M1338.3,1470.6c-0.8-16.3,11.8-22.7,10.4-11.2
		c-1.1,8.4,2.8,53.1-5.5,53C1337.9,1512.3,1340.5,1478.5,1338.3,1470.6L1338.3,1470.6z M969.6,1712.3c-0.4,4.6-1.1,49.8-10,47.6
		c-7.1-1.8-0.3-44.8,1.1-50.2C962.5,1702.5,969.6,1706.6,969.6,1712.3L969.6,1712.3z M426.2,1612.9c0.8,10.4-4.6,9-7,0.2
		c-1.7-6.3-14.6-59-11.8-60.9c3.2-2.2,7.3,4.1,7.7,6.5L426.2,1612.9L426.2,1612.9z M548.5,1509.1c0.2,3.2,4.2,25.7-2.1,26.4
		c-8.5,1-10.3-54.9-2.4-55.6c7.3-0.7,4.7,24.4,4.7,29.2C548.7,1509.1,548.6,1509.1,548.5,1509.1L548.5,1509.1z M1363.6,1471.3
		c-0.3-4.9-4.2-27.6,1.1-29.1c11.4-3.2,10.3,54,1.5,53.6C1359.9,1495.6,1363.3,1475,1363.6,1471.3L1363.6,1471.3z M929,1767.7
		c0.9-7.5-1.5-22.7,5-28.5c10.9-9.6,4.1,41.7,4,43.2C937.8,1788.1,929,1803.1,929,1767.7L929,1767.7z M439.8,1488.3
		c0.2,5.5,4.9,32-1.7,32.5c-7.2,0.6-7.9-63.4-3.9-63.3C443.8,1457.8,439.8,1483.1,439.8,1488.3L439.8,1488.3z M809.8,1812.3
		c0,3.3,2.4,17.7-2.5,18.5c-8.3,1.5-8.8-43.8-8.6-49.1c0.3-10.3,7.2-10.4,7.8-0.2C807.2,1791.8,809.5,1802,809.8,1812.3
		L809.8,1812.3z M887.6,1829.7c0.2,11.1-5.5,13-6.9,1.7c-7.4-60.9,4.5-67,5-42.6C885.9,1802.9,886.1,1816.9,887.6,1829.7
		L887.6,1829.7z M303.4,1427.8c1.6,25.3-12.5,15.5-12.2-23.1c0.1-11.5,10.8-8.6,10.6,0.1C301.6,1413.1,302.9,1421.3,303.4,1427.8
		L303.4,1427.8z M465.6,1486c0,5.7,1.4,13.2-0.8,18.6c-4.9,11.9-13.1-10.7-9.6-34.2c0.9-5.8,8.5-9.5,9.1-1.7
		c0.5,5.7,0.7,11.5,1,17.2C465.3,1486,465.4,1486,465.6,1486L465.6,1486z M1315.3,1488.1c0-4.1-3-29,7.2-27.4
		c4,0.6,2.8,49.5-4.8,48.5c-5-0.6-2.5-17.5-2.5-21.1C1315.2,1488.1,1315.3,1488.1,1315.3,1488.1L1315.3,1488.1z M1540.2,1610.2
		c-10.9,40.4-25.2,39.1-23.1,34.5c8.8-19.3,12.7-40.8,19.3-39.6C1539,1605.5,1540.2,1607.2,1540.2,1610.2L1540.2,1610.2z
		 M1411.7,1488.3c1.1,32.3-11.3,34.3-10.5,20.1c0.2-4.5-1.3-35,6.8-34.7C1414.5,1473.9,1411.9,1484.7,1411.7,1488.3L1411.7,1488.3z
		 M181.7,1352.5c0.1,0.5,3.5,25.4-2.6,16.4c-4.2-6.2-8.9-43.9-7.8-50.2c0.9-4.8,6.3-4.6,6.9,0.1c1.3,11.2,2.5,22.4,3.8,33.7
		C181.9,1352.5,181.8,1352.5,181.7,1352.5L181.7,1352.5z M556.5,1634.9c-0.8,2,2.2,6.2-1.2,6.8c-6.3,1.1-10.6-44.1-10.8-49.7
		c-0.4-12.1,8.2,1.8,8.7,7.2C554.2,1610.9,555.4,1622.7,556.5,1634.9L556.5,1634.9z M836,1812.5c0.1,4.1,2.8,20.2-2.8,20.7
		c-8.8,0.7-7.8-55.8-1.5-46.3C836.3,1793.7,835.5,1805.2,836,1812.5L836,1812.5z M145.2,1435.2c0.7-9.5,8.2,0.2,9.8,3.9
		c1.6,3.6,14.8,28.2,10.9,31.1C157,1476.8,146.1,1439.4,145.2,1435.2L145.2,1435.2z M1735.9,1279.8c0.7-13.5,1.5-16.6,12.5-24.7
		c4.8-3.5-1.6,30.1-3.9,33.2C1737.9,1297.2,1736.2,1283.6,1735.9,1279.8L1735.9,1279.8z M109,1310.3c-0.6-6.6,5.7-4.3,6.6,0.7
		c1.5,8.3,13.8,42.7,9,44.4C116,1358.5,109.9,1315.5,109,1310.3L109,1310.3z M1436.9,1442.9c-0.1,2,0.1,33.8-7.6,21.7
		c-0.6-0.9-5.2-36.1,3.6-38.8C1440.9,1423.3,1437.1,1437.8,1436.9,1442.9L1436.9,1442.9z M205,1389.9c-3,20.5-18.7-53.3-6.6-52.2
		c3.3,0.3,3.9,29.1,4.4,33.4C203.5,1377.5,203.6,1384.1,205,1389.9L205,1389.9z M421.1,1495.2c0.1,3.8,4.1,26,0.5,27
		c-10.1,2.9-8.2-37.3-7.7-41.6c0.5-4.6,7.1-4.4,7.1,0.3C421.2,1485.7,421.1,1490.5,421.1,1495.2L421.1,1495.2z M1478.7,1461.4
		c0.2,33.5-10.2,34.2-8.9,25.3c2.3-15.9-1.4-40.7,5.4-40.6C1481.1,1446.2,1478.7,1457.7,1478.7,1461.4L1478.7,1461.4z M937.2,1819.4
		c0,3.9,2.7,19-3.9,18.9c-8-0.1-7.4-39.5,1.8-37.3c5,1.2,2.8,14.7,2.8,18.4C937.6,1819.4,937.4,1819.4,937.2,1819.4L937.2,1819.4z
		 M321.7,1434.6c-1.6,31.6-19.4-28.8-6.4-29.1C322,1405.4,321.4,1429.9,321.7,1434.6L321.7,1434.6z M535.3,1610.8
		c1.9,27.2-3.6,19-6.9-2.9c-0.5-3.5-7.1-31.7,2.5-24.1C535.6,1587.4,535.5,1605.9,535.3,1610.8L535.3,1610.8z M802.9,1747.4
		c0,3.6,2.5,18.4-3.4,18.4c-5.7,0-8.9-40.9-1.8-40.6c6.3,0.2,4.4,17.9,4.6,22.2C802.4,1747.4,802.6,1747.4,802.9,1747.4
		L802.9,1747.4z M1507.5,1465.4c0.4-4.2,0.4-28.6,6.1-28.9c8.9-0.4,1.8,37.4-3.9,37C1505.8,1473.2,1507.3,1468.2,1507.5,1465.4
		L1507.5,1465.4z M527.5,1491.5c-0.1,3.3,2.1,17.1-4,16.8c-5.4-0.3-9.4-33.2-1.3-33.6C529.3,1474.5,527.3,1487.1,527.5,1491.5
		L527.5,1491.5z M401.6,1450.9c2,29.5-8.8,21.5-9-9C392.5,1433.7,401.6,1429.6,401.6,1450.9L401.6,1450.9z M1255.6,1485.7
		c2.2,31.4-9.2,32-8-8.4C1247.7,1472.5,1255.6,1465.1,1255.6,1485.7L1255.6,1485.7z M384.5,1447.6c0.6,5.7-5.5,14.9-7.5,7.6
		c-8.4-30.6,5.5-31.8,6.4-22.6C383.9,1437.5,384.1,1442.6,384.5,1447.6L384.5,1447.6z M1513.8,1544.7c0.2-4.2,2.6-27.9,7.4-28.1
		C1534.8,1516,1513.8,1567.7,1513.8,1544.7L1513.8,1544.7z M79.2,1247.9c-0.1,5.5-5.6,8.2-7.7,2.4c-10.9-29.2,0.5-32.5,2.8-23.9
		C76.1,1233.6,77.6,1241,79.2,1247.9L79.2,1247.9z M1015.2,1720.9c0-22.2,10-13.2,9.9-8.8c-0.1,4.3,1.7,22.6-4.9,22.7
		C1013.5,1734.9,1015.6,1724.9,1015.2,1720.9L1015.2,1720.9z M588.7,1501.8c-1.6,27.2-12.1,14.1-10.2-8.4c0.4-4.7,9.8-11.7,9.8,8.4
		C588.4,1501.8,588.5,1501.8,588.7,1501.8L588.7,1501.8z M1707.7,1440.9c-2.6,21.4-18.9,25.2-15.6,15.9c1.6-4.5,5-24.3,12.7-21.8
		C1707.3,1435.8,1707.6,1438.2,1707.7,1440.9L1707.7,1440.9z M568.1,1496.3c0.7,25.3-8.4,21.3-8.3-9
		C559.8,1481.5,568.1,1474.6,568.1,1496.3L568.1,1496.3z M359.1,1450.2c-3.5,31.9-15.3-24-5.1-23.9
		C361.1,1426.3,358.7,1444.4,359.1,1450.2L359.1,1450.2z M1392.5,1456.7c-1,22.7-11.5,18.3-9-10.8c0.5-6.4,7.6-7.3,8.5-0.5
		C1392.4,1448.6,1392.3,1451.9,1392.5,1456.7L1392.5,1456.7z M339.8,1433.2c0,45.5-13.7-18.9-4.3-19.5c6.8-0.4,3.9,15.6,3.9,19.5
		C339.6,1433.2,339.7,1433.2,339.8,1433.2L339.8,1433.2z M1406.1,1449c0-25,12.5-14.2,8.2,6.7c-2.1,9.9-9.4,10.7-8.3-6.7
		C1406,1449,1406.1,1449,1406.1,1449L1406.1,1449z M1311.9,1621.2c-4.6,26.7-12,12.7-11.6,9.6
		C1302.8,1604.4,1312.1,1612.7,1311.9,1621.2L1311.9,1621.2z M592.4,1661.2c0.1,6.7-8.6,16-11.7-10.8c-0.8-6.5,8.7-7.6,10-1.3
		C591.5,1653.2,591.9,1657.4,592.4,1661.2L592.4,1661.2z M413.6,1684.6c3.2-20,17.5,18.5,10.8,21.5
		C417,1709.3,414.6,1687.9,413.6,1684.6L413.6,1684.6z M488.1,1475.9c0,20.9-12.6,7.9-9.7-8.6
		C479.1,1463.5,486.9,1457.1,488.1,1475.9L488.1,1475.9z M1624.9,1350.8c-1.5-12.3,21.4-26.7,8.9,2.4
		C1631.3,1359.1,1623.8,1359.4,1624.9,1350.8L1624.9,1350.8z M1294.4,1512.6c2.5-24.1,16-7.1,7.9,8.4c-1.8,3.5-6.5,2.4-7.1-1.3
		C1294.8,1517.3,1294.6,1514.7,1294.4,1512.6L1294.4,1512.6z M619.9,1671.2c-1.3,22.6-18.6-17.4-5.8-17.3
		C620.6,1654,619.3,1666.6,619.9,1671.2L619.9,1671.2z M108.3,1292.3c-4.6,19.6-16.7-46.5-8.9-31.1
		C104.3,1270.9,106,1282.2,108.3,1292.3L108.3,1292.3z M1282.6,1630.8c-0.6,3.3-0.4,16.3-6.7,15.2c-5.4-0.9-3.8-23.8,2.9-23.4
		C1283.3,1622.9,1282.8,1627.3,1282.6,1630.8L1282.6,1630.8z M498.9,1481.8c0-22.5,10.9-12.8,7.6,10.2c-0.6,4.2-6.5,4.6-7.1,0.3
		c-0.5-3.5-0.6-7-0.8-10.5C498.7,1481.8,498.8,1481.8,498.9,1481.8L498.9,1481.8z M1293,1475.5c-0.7-16.6,14-8.9,8.6,9
		c-1.4,4.6-6.1,4.7-7.2-0.1C1293.7,1481.5,1293.5,1478.5,1293,1475.5L1293,1475.5z M191.4,1494.3c0,18.5-19.8-13.5-9.5-16.5
		C189,1475.8,190.7,1490.4,191.4,1494.3L191.4,1494.3z M1077.2,1704.3c-0.4-19.6,16.5-13.3,8.2,5.8
		C1081.5,1719.1,1077.6,1706.9,1077.2,1704.3L1077.2,1704.3z M1328.7,1636.2c1.1-17.2,13.8-19.9,8,4.5
		C1334.9,1648.4,1328.7,1644.7,1328.7,1636.2L1328.7,1636.2z M1053.8,1716.7c-4.7,27.8-19.5-10.3-4.4-8.5
		C1052.6,1708.7,1054.1,1711,1053.8,1716.7L1053.8,1716.7z M1512.3,1409.4c0.4-5.4-0.8-13,5.6-14.5c5.9-1.4,0.7,21.2-1.7,24.6
		c-4.5,6.2-4.1-8.4-4.1-10C1512.1,1409.4,1512.2,1409.4,1512.3,1409.4L1512.3,1409.4z M750.1,1715.6c-0.1,12-12,8.4-12-1.4
		C738.1,1703.6,749.6,1706.8,750.1,1715.6L750.1,1715.6z M563.8,1668.3c-1.4,21.5-17.2-10.4-7.1-13.1
		C562.6,1653.7,563.7,1664.9,563.8,1668.3L563.8,1668.3z M1154.6,1683.1c0,10.8-12.2,12.3-12,1.2
		C1142.7,1674.3,1154.5,1673.4,1154.6,1683.1L1154.6,1683.1z M995.5,1706.8c-1,18.8-11.2,11.5-8.9-3.9
		C987.8,1695.6,995.5,1697.3,995.5,1706.8L995.5,1706.8z M1269.4,1477.5c0-16.8,12.3-7.9,7.1,11.2c-0.9,3.4-5,2.4-6-0.3
		C1269.4,1485.3,1269.9,1482,1269.4,1477.5L1269.4,1477.5z M516.5,1611.2c-1.6,12.4-11.6-34-6.1-34.3
		C515.2,1576.6,516.1,1606.2,516.5,1611.2L516.5,1611.2z M1240.2,1663.8c2.5-17.5,14.3-6.8,7.4,7.2
		C1243.9,1678.5,1240.7,1671.8,1240.2,1663.8L1240.2,1663.8z M214.9,1524.9c-1,13.3-17.6-16-8.3-18.1
		C213,1505.4,214.2,1521.2,214.9,1524.9L214.9,1524.9z M1324.1,1536.5c-2.6,27.2-16.6-11.9-3.6-10
		C1325.1,1527.2,1324.1,1533,1324.1,1536.5L1324.1,1536.5z M402.8,1491.3c-2.9,28.6-15.7-9.5-4.7-10.4
		C403.2,1480.6,402.5,1487.9,402.8,1491.3L402.8,1491.3z M643.4,1693.3c-1.1-12.1,9.6-10.7,8.6,7.8
		C651.6,1707.8,645.2,1707.1,643.4,1693.3L643.4,1693.3z M1510.4,1502c-3.5,20.3-9,11.4-8.8,8.5
		C1503.2,1488.5,1510.9,1492,1510.4,1502L1510.4,1502z M1738.4,1314c-0.8,9.5-11.5,10.2-10.8,1
		C1728.4,1305.4,1739.1,1304.9,1738.4,1314L1738.4,1314z M188.7,1400.8c0.8,18.4-16.1-11.8-6.1-13.9
		C188,1385.7,188.3,1398.4,188.7,1400.8L188.7,1400.8z M1490.7,1424.6c1-18.9,13.2-0.7,4.7,7.7
		C1490,1437.7,1490.5,1427.7,1490.7,1424.6L1490.7,1424.6z M1472.4,1424.2c-0.1-8.2,7.4-7,8.1-0.7
		C1481.6,1434.2,1472.5,1435.6,1472.4,1424.2L1472.4,1424.2z M201.5,1412.9c0-13.5,17.7,6.7,5.1,7.8
		C203.6,1420.9,201.7,1418.2,201.5,1412.9L201.5,1412.9z M420.2,1456.4c-0.6,20.4-16.2-7.1-3.8-6.8
		C420.3,1449.7,420.4,1452.8,420.2,1456.4L420.2,1456.4z M1269.6,1511.8c1.3-17.8,14.4,5.9,3.6,6.4
		C1269.5,1518.4,1269.9,1514.7,1269.6,1511.8L1269.6,1511.8z M326.1,1460.9c0.1,10.3-11.6,0.6-6.8-6
		C323,1449.7,325.9,1458.7,326.1,1460.9L326.1,1460.9z M306.7,1457c0.4,12.5-14.6-3.4-4.1-5.1C305,1451.6,306.6,1453.6,306.7,1457
		L306.7,1457z M217,1459c-0.3,10.9-14-4.9-4.5-6.2C214.8,1452.4,217,1455.5,217,1459L217,1459z M140.1,1418.5
		c-1.5,11.5-13.8-6-3.5-4.9C139.2,1413.9,140,1416.1,140.1,1418.5L140.1,1418.5z M279.3,1455c11.6,2.8-5.4,15.2-3.1,2.5
		C276.5,1455.8,277.6,1455,279.3,1455L279.3,1455z M768.4,1714.5c10.2,1.6-3.3,13.2-3,4.1C765.4,1716.4,766.5,1715,768.4,1714.5
		L768.4,1714.5z M1609,1353.6c-0.5,2.3-5.7,6.8-5.7,2C1603.3,1353.6,1609.2,1349.3,1609,1353.6L1609,1353.6z M281.5,1001.3
		c15.6-0.1,48.6,3.2,63.7,7.7c7.7,2.3,6.5-11.1,22-17.2c9.8-3.9,23.2-5.7,31.3-12.8c27.4-23.8,44.1-7.6,64.5-18.1
		c3.3-1.7,17.8-6.3,16.8,1.2c-0.7,5.3,10.3,1.9,12.7,0.7c3.8-2,8.2,3.1,4.2,5.7c-8.5,5.4,10.9,9.6-7.6,22.5
		c-6.1,4.2,22.1,9.2,32.8,35.2c9.1,22.1-38.8,30.9-49.7,35.2c-13.1,5.1-75.8,15.6-71.6,21.7c5.6,7.9-12.1,18.3-17.8,19.8
		c-9.6,2.5-79.8,15.4-84.7-2.8c-2.2-8.2-44.8-0.9-64.9-14.4c-38.6-25.9-11.6-65.4,20.1-80.2C262.5,1001.3,271.9,1001.2,281.5,1001.3
		L281.5,1001.3z M292.5,1007.4c-46.2,5.3-39.4,6.2-63.7,28.6c-19.7,18.1,6.2,45.5,24.2,50.6c10.2,2.9,49.7,6.2,56.6-2.5
		c26-32.7,73.4-10.6,81.8-12c28.4-4.9,92.2-12.5,115.2-28.4c17.6-12.1-5.3-40.7-22.1-41.1c-58.7-1.3-73.8,25.2-149.3,14.6
		C319.5,1015.1,308.8,1009,292.5,1007.4L292.5,1007.4z M452.7,968.9c-44.1,0.6-35.1,18-54.5,21.5c-48.2,8.6-44.9,32-5.6,19.8
		c19.8-6.1,40.4-7.7,60-15c9.2-3.4,22,0.1,27.7-9.8c2.6-4.6,14.9-8.8-8.1-14.7C465.8,968.9,459.3,968.8,452.7,968.9L452.7,968.9z
		 M332.8,1102.4c8.6,0.6,77.2-5.9,57.5-20.8c-38.6-29.1-88.8,15-79.1,18C318.2,1101.9,325.5,1102,332.8,1102.4L332.8,1102.4z
		 M742.5,934.9c-66.8,21.9-137.6,22.3-206.8,16.3c-52.3-4.5-29.6-12.4-18.8-32.1c9.5-17.5,99.3-42.1,117.3-36.1c0,0,51.4-3.2,77.5,2
		c20.4,4.1,24.9-22.9,64.4-21.7c32.4,1,23.1,7.8,39.9,4.6c13.7-2.6,67.2-3,66.9,8.6c-0.4,18.7-61.4,24.7-76.9,22.1
		c-7-1.2-20.8,7.8-27.7,11c-8.3,3.9-9.1-4.5-4.5,11.1c3.6,12.2-9.2,11.6-9.6,5.5c-0.3-4.8-2.9-15.9-7.9-18.4
		c-8-3.9-22-15.9-31.6-12.8c-5,1.6-10.9-4.5-19.7-4.4c-57.7,0.1-125-6.3-174,30.7c-6.6,5-19,18.6-2.9,17.9c31.6-1.4,43.2,8.1,78,6.2
		c22.7-1.3,64.4-2.1,85.1-6.3c4.4-0.9,7.3,2.6,34.3-1.9C731.3,936.2,737.2,937.1,742.5,934.9L742.5,934.9z M779.3,869.7
		c-21.4-2.4-58.4,20.7-41.9,20.9c27.4,0.3,12.1,19.2,48.8,8.9c13.1-3.7-10.2-13.4,8.8-25C801.9,870.2,781.8,869.4,779.3,869.7
		L779.3,869.7z M839.5,874c-24.1-2.3-66.9,11.6-12.2,19.5c17.1,2.5,45.3-13.3,45.1-15.1C871.8,873.1,844.9,873.8,839.5,874
		L839.5,874z M518.5,1078.3c30.2,3.1,60,7.8,86.2,24.9c17.8,11.6,13.3,10,24,7.4c3.7-0.9,7,2.7,2.6,4.7
		c-23.7,11,12.7,31.5-41.2,44.6c-20.2,4.9-31.7-31.9-113.5-15c-23.5,4.8-23.2,31.6-11.7,33.4c24.5,4,46.5-14.5,75.2-15.5
		c21.6-0.8,40.4,5.2,47.7,1.1c10.5-5.8,21.6-1.6,32.7-2.2c22.4-1.2,44.4,12.8,52.6,10.3c27.8-8.6,39.3-0.1,58.8-3.4
		c54.3-9,65.5,16,46.2,8.5c-26.4-10.1-46.9,3.6-57.8-1c-10.7-4.6-42.1-0.3-53,3.9c-11.4,4.4-22.7-14.9-64.6-10.6
		c-10.6,1.1-18.3,8.9-29.4,4.9c-62.3-22.9-85.6,33.5-120.8,5.1c-17.5-14.1,2.6-33.7,16.8-37.4c17-4.4-1.9-9.3-0.4-23.2
		c1.1-10.4,14.7-10.5,14.7-22.8C483.9,1087.4,509.3,1077.3,518.5,1078.3L518.5,1078.3z M518.8,1089.1c-14.5-1.1-45.7,26.7-34.8,37.3
		c12.5,12.2,27.6,3,58.4,8.1c40.1,6.6,26.9,22.8,59.5,9.8c17.8-7.1,5.3-16.9,10.9-24.2c3.8-5-12.4-9.1-15.4-10.7
		C572.8,1096.5,545.8,1092.8,518.8,1089.1L518.8,1089.1z M1551.8,511c-11.2-2.9,54-62.2,61-70.1c14.1-16,95.6-98.9,113.5-106.2
		c9.9-4.1,132.5-128.9,140.9-118c3.9,5.1-191.1,172.4-196.1,176.4c-16.9,13.7-62.5,51.1-71.3,71.2
		C1597.6,469.5,1554.9,510.7,1551.8,511L1551.8,511z M509,1200.9l36.5,3.8l63.9,14.1c14.9,2.9,6.3,13.7-2.9,17.4
		c-57.9,23.3-83.2,19.6-140.2,0.2c-21.6-7.4,1.4-27,16.4-31C491.2,1203.1,500,1202.4,509,1200.9L509,1200.9z M495.4,1209.7
		c-18.6,0.5-39.4,16.7-13.2,24.3c61.1,17.8,52.8,23.5,63.9-14.6C550.8,1203.5,513.5,1213.9,495.4,1209.7L495.4,1209.7z
		 M548.6,1241.4c-0.1,4.2-0.1,4.3,5.3,2.9c70-18.8,50.3-17.8,19.5-25c-2.7-0.6-17.8-5.5-18.6-1.6
		C553.3,1225.4,548.7,1232.2,548.6,1241.4L548.6,1241.4z M1545.1,469c-5.4-1.7,2.3-9.3,4.3-11.4c42.8-46,89.1-101.3,137.5-140.3
		c6.8-5.5,7.5,3.3,2,8.4c-50.2,46.7-85.1,84-131.7,133.4L1545.1,469L1545.1,469z M1705.1,333.7c-1.4,7.1-22.7,24-28.3,29.1
		c-17.3,15.7-88.5,89.2-100.7,97.1c-7.5,4.8-1.6-7.3,0.5-9.4c10.1-10.3,115.3-118.5,124.5-120.1
		C1703.3,329.9,1705.2,331.6,1705.1,333.7L1705.1,333.7z M1287.7,881.5c1.9-19.6,49.7-127.8,58.2-122.6c2.5,1.5,0.2,3.6-0.6,5.2
		c-11.9,22.9-45.7,91.5-50.6,116.3C1293.3,887.7,1287.7,890.7,1287.7,881.5L1287.7,881.5z M596.3,998.9c4.1,0.4,50.6,4.9,41.7,14.6
		c-10.6,11.6-64.7,12.6-75-2.3c-2.9-4.2-2.6-5.5,2.1-7.1C575.6,1000.6,586.5,998.5,596.3,998.9L596.3,998.9z M566.8,1009.2
		c16.1,7.5,87.9,5.8,43.8-3.2C596.2,1003.1,582.1,1003.9,566.8,1009.2L566.8,1009.2z M1603.7,349.3c-0.3,6-69.4,89.3-78.5,100.8
		c-5.1,6.4-8.4,5.2-3.6-2.6c6.4-10.4,68.2-93.9,78.1-100C1601.5,346.3,1603,347.3,1603.7,349.3L1603.7,349.3z M1357,745.5
		c-13.7-0.5,53-86.8,53.8-87.9c4.9-6.8,15.7-9.6,8.4,0.5c-11.4,15.7-22.6,31.5-34.3,46.9C1376.1,716.4,1368.3,737.1,1357,745.5
		L1357,745.5z M386.1,1170.7c-34.4,1.8-40.7-20.1,3.1-20.4c17.3-0.1,46.8,13.4,17.4,18.4C399.9,1169.8,393.2,1170.8,386.1,1170.7
		L386.1,1170.7z M382.8,1163.6c42.4-1.2,5.5-10.1-12.6-3.7C361.8,1162.9,382.7,1163.6,382.8,1163.6L382.8,1163.6z M622.4,901.2
		c24.7-1.6,39.1,3.9-9.5,7.2c-52.3,3.5-73.7,29.2-77.3,22.7c-4-7.3,27.5-19.2,32.2-20.8C584.7,904.3,586.5,902,622.4,901.2
		L622.4,901.2z M1537.7,525.4c-2.6,5.5-73.3,78.2-74.1,77.8c-7.4-3.8,65.7-79.6,68.9-80.9C1534.8,521.5,1537.7,523,1537.7,525.4
		L1537.7,525.4z M1030.8,928.2c-26.7,1.2,52.2-31.6,60.7-33.6c13.5-3.1,23.5,4.4,8,5.9C1077.5,902.8,1041.8,928.8,1030.8,928.2
		L1030.8,928.2z M796.2,827.6c-2.6,0-18.7,1.8-18.5-2c0.1-1.7,112.7-12.8,120.3-6.7c-3.3,4.4-85.5,7.4-101.8,8.3
		C796.2,827.3,796.2,827.5,796.2,827.6L796.2,827.6z M1561.6,348.3c-18.2,1.3,39.6-57.4,42.1-58.6
		C1620.7,282.4,1563.7,348.1,1561.6,348.3L1561.6,348.3z M1582.6,347.6c-6.4,10.5-72.1,96.8-64.2,79.1c6.3-13.9,58.9-84.8,63.5-80.7
		C1582.2,346.3,1582.3,346.9,1582.6,347.6L1582.6,347.6z M1503.9,422.2l-44.2,64.8c-5.9,7.7-8.5,2.1-4.2-5
		c4.5-7.6,39.8-61.4,45.4-61.8C1502.3,420,1503.4,420.6,1503.9,422.2L1503.9,422.2z M1362.4,629.4c-1.2,8.4-39.7,63.8-44,61.3
		c-5.6-3.2,35.4-57.1,41.6-62.7C1361.3,626.7,1362.1,628.3,1362.4,629.4L1362.4,629.4z M573.4,967.6c-54.9,1.8-57.5-15.7-50.1-12.5
		c20.8,9.1,78,3.4,77.8,9.5C601,970,577,967.6,573.4,967.6L573.4,967.6z M1885,203.3c-14.6-0.4,31.1-36.5,35.5-37.7
		c6.9-1.9,5.4,6.6,2.1,9.5C1916.3,180.3,1890,202.9,1885,203.3L1885,203.3z M555.4,935.6c-13.4,1.3,2.9-16.6,69.1-21.1
		c14.4-1-8.2,5.4-9.6,5.7L555.4,935.6L555.4,935.6z M1297,825.4c-10.3,0.1,17.4-49,20.6-52.6c4-4.6,3.8,5,3.1,6.9
		C1318.2,786.6,1302.4,823.5,1297,825.4L1297,825.4z M1535.5,455.8c-3.7-1.4-0.9-3.5,0.8-5.7c2.6-3.4,47.3-58.6,51.1-53.8
		C1589.3,398.7,1541.4,450.5,1535.5,455.8L1535.5,455.8z M1769.6,275.3c-10.5-2.2,36-36.6,39.6-38.4c8.9-4.6,0.2,8.4-1.9,10.2
		C1800.1,253.2,1778.4,274.3,1769.6,275.3L1769.6,275.3z M849.6,948.1c-26.9-8.7-60.9,13-63,8c-4.1-9.8,68.4-22.5,66.5-9.7
		C852.8,948.6,851,948.1,849.6,948.1L849.6,948.1z M1537.8,376.7c-0.4,5.3-24.6,41.8-30,37.8c-5.4-3.9,22.6-39.7,26.7-40.1
		C1536.8,374.3,1537.7,375.4,1537.8,376.7L1537.8,376.7z M765.9,1228.6c13.5,2.1,53.1,35.4,36.5,31.2c-7.8-2-15.8-13.1-31.7-22.3
		C768.2,1236.1,757.1,1228.7,765.9,1228.6L765.9,1228.6z M1596.2,388.6c-9.7,0.8,26.4-35.7,28.3-37.1c5.6-4.3,14.6,2.7-24.1,35
		C1599.1,387.5,1597.3,388,1596.2,388.6L1596.2,388.6z M1485.3,556.1c-8.6-1.7,34.1-47.2,38.1-44.2c5.5,4-24.5,30.9-31.9,39.5
		C1489.8,553.5,1488,555.7,1485.3,556.1L1485.3,556.1z M591.3,978.3c-3.1,0-17.4,2.2-17.4-2.6c0-4.4,31.3-3.7,48.4-5.9
		C644,967,631,979.3,591.3,978.3L591.3,978.3z M950,824.9c-1,0-27.5,2.6-27.2-2.9c0.2-4.5,59.3-4.5,58.9,2.2
		C981.4,830.2,956.2,825.4,950,824.9L950,824.9z M361.2,940.2c-5.3,3.3-40.7,28.2-44.9,21.7c-4.3-6.6,36.5-22.4,41.3-23.8
		C358.9,937.7,360.6,936.8,361.2,940.2L361.2,940.2z M1032,1103.7c17.5,0,14.3,6.3,5.2,7.5c-53.2,7-39.3-4.2-29.3-5.2
		c8-0.8,16-1.4,24.1-2.1C1032,1103.9,1032,1103.8,1032,1103.7L1032,1103.7z M1731.2,310.5c-13.7-0.5,19.3-27.5,22.2-29.1
		c4.5-2.4,8.9,3.4,5.1,6.9C1755.4,291,1735.9,310.9,1731.2,310.5L1731.2,310.5z M1028.3,1125.5c-19.4-0.3-23.8-6.9-5.6-7.2
		c5-0.1,33.7-5.4,34.7,0.2C1058.8,1126.3,1033.9,1125.5,1028.3,1125.5L1028.3,1125.5z M613.9,850c-23.2-1,52.1-18.8,53.7-11.3
		C668.9,844.3,620.7,849.3,613.9,850L613.9,850z M1274.4,1002.1c-8,0.1-42.2-4-14.7-6.1c12-0.9,24.1-0.3,36.1-2.4
		c7.6-1.3,7.8,2.8,0.9,5.5C1289.3,1001.9,1281.3,1001.3,1274.4,1002.1L1274.4,1002.1z M1489.6,529.1c-7.8-0.7,25.3-38,28.6-41.1
		c3.4-3.3,6.9,0.6,4.1,4.1C1517.9,497.4,1495.6,528.5,1489.6,529.1L1489.6,529.1z M1715.4,179.2c-10.7-4.1,56-51.2,43.8-35.5
		L1715.4,179.2L1715.4,179.2z M1264.1,1192.1c10.2,0,19.5,2.9,29.9,1.5c2.6-0.3,9.4,0.8,9.2,3.2c-0.3,4.6-38.7,1.7-48.8,2
		C1246.5,1199.1,1251,1191.2,1264.1,1192.1L1264.1,1192.1z M240.1,1105.4c-26-1.1-43.9-28.7-25.3-17.3c16.8,10.3,32.3,9.9,31.7,14.7
		C246.2,1106.5,242.3,1105.1,240.1,1105.4L240.1,1105.4z M547.8,1035.3c-0.6,16.9-47.1,31.3-13.8,6.6c8.8-6.5,1.6-14.6,7-16.2
		C546.3,1024.1,547.4,1031.9,547.8,1035.3L547.8,1035.3z M1262,1204.7c9.2,1.1,17.1,3.2,26.3,1.4c15.3-3,20.8,6.6,14,5.5
		c-6-1-25.1,2.5-26.8,1.5c-7.7-4.7-26.2,0-26.8-4.2C1248.1,1204.5,1259,1205,1262,1204.7L1262,1204.7z M192.9,1041.9
		c-12-0.3,23.1-37.8,28.4-30.2c2.5,3.6-17.3,18.2-24.6,27.1C195.6,1040.2,194.7,1041.8,192.9,1041.9L192.9,1041.9z M417.1,958.6
		c0,3.6-23.9,12.1-34.2,17.6c-7.1,3.8-6.4-7.5,24.5-19.5C409.9,955.7,416.7,954.5,417.1,958.6L417.1,958.6z M305.8,1198.4
		c-10.6,0.6,0.1-6.1,3.5-7.3c11.4-4.1,29.2-14.9,31.6-11.6C347.1,1188.2,309.6,1197.5,305.8,1198.4L305.8,1198.4z M385.9,1114.2
		c-17.1-3,16.4-8.8,21.6-23.1c1.5-4,5.3-1.5,4.7,2C410.3,1104.6,399.2,1113.8,385.9,1114.2L385.9,1114.2z M1233.4,910.4
		c32.9,12.1,26.1,29.1,18,21.2C1244.7,924.9,1216.8,909.8,1233.4,910.4L1233.4,910.4z M1233.7,993.1c-25.9-6.1,38.7-15.5,38.1-8.2
		C1271.7,987.6,1238.2,992.3,1233.7,993.1L1233.7,993.1z M1274.7,870.1c4.6-36.5,18.6-36.7,14.8-26.9c-1.7,4.5-7.9,31.9-12.1,31.4
		C1274.8,874.3,1274.7,872.1,1274.7,870.1L1274.7,870.1z M1109.1,1134.5c-26.1-1-35.4-12-23.2-8.9c5.5,1.4,49.3,3.6,40,7
		L1109.1,1134.5L1109.1,1134.5z M1649.3,244.8c-1.2,5.9-33.5,39.9-36.1,35.9C1611.9,278.7,1649.1,233.8,1649.3,244.8L1649.3,244.8z
		 M925.5,948.7c-2.3,2-15-5.2-39.5-1.1c-7,1.2-18.5-2.3-11.2-3.3c16.5-2.3,33.8-7,49.1,2.1C924.8,946.9,925.6,947.5,925.5,948.7
		L925.5,948.7z M1155.5,884.8c26.2,0.9,25.3,11.5,16,9.7c-3.9-0.8-29.1-1.2-28.8-6.2C1142.9,885,1153.7,884.5,1155.5,884.8
		L1155.5,884.8z M187.2,1075.7c-1.1,5.3-8.5,31.9-14.6,29.5c-6.9-2.7,8.7-33.7,13-32.6C187.3,1073.1,186.7,1074.6,187.2,1075.7
		L187.2,1075.7z M1121.3,914.9c13.2,3.4-11.7,8.1-24.7,15.2C1075.7,941.7,1083.9,920.8,1121.3,914.9L1121.3,914.9z M861.1,912.6
		c-5.7-0.4-31.3,4.1-32.1,0.6c-1.7-8.1,48.3-7,46.5-0.7C874.8,915.4,863.4,912.8,861.1,912.6L861.1,912.6z M633.2,859.4
		c-20.4-1.1,38.1-16.9,38.8-8.5C672.4,855.3,637.8,858.6,633.2,859.4L633.2,859.4z M429.8,1164c-13.6-1.9,16.6-33.3,21.7-22.9
		c2,4-16.9,13.1-19.5,21.1C431.7,1163.2,430.8,1163.7,429.8,1164L429.8,1164z M1319.1,996.2c-22.3-4.6,29-11.8,31.4-11.9
		c2.8-0.2,3.6,3.3,0.9,4.2L1319.1,996.2L1319.1,996.2z M1564.4,473.7c0.4,4.9-25.5,30.7-29,28.2c-1.9-1.4,24.5-32.8,27.3-31.4
		C1563.9,471,1564.2,472.4,1564.4,473.7L1564.4,473.7z M730.9,1226c27.6,2.7,39.6,27.4,26.4,18.6
		C751.4,1240.5,715.4,1225.5,730.9,1226L730.9,1226z M681,1221c24.6,0,31.6,9.1,20.8,6.9c-13.9-2.8-35.9,1.5-36.5-2.2
		C664.7,1220.8,679.3,1220.9,681,1221L681,1221z M481.2,888.3c-6.6,1-0.9-4.8,1.8-5.9c38.6-15.5,37.6-6.8,29.5-4.2L481.2,888.3
		L481.2,888.3z M1128.5,1192c-2.8,10.3-16.6,19.5-12.2,11.7c13.4-23.8-7.8-13.1-4.3-21.6C1114.1,1177.2,1128.4,1182.5,1128.5,1192
		L1128.5,1192z M688.9,1210.7c19.8,0.5,41.8,12.8,24.5,9.3c-11.3-2.3-21.1-4-32.7-3.4c-5.8,0.3-5.8-4.1-0.2-4.9
		C683.7,1211.2,686.9,1210.9,688.9,1210.7L688.9,1210.7z M1190.4,892.4c37.1,7.2,29.1,16.5,22,13.8c-3.8-1.4-26-6.3-24.6-11.8
		C1188.3,892.3,1190.2,892.3,1190.4,892.4L1190.4,892.4z M1090.8,912c13.8-0.3-20.5,17.4-22.9,18.1c-7.5,2.1-10-3.7,19.9-17.4
		C1088.9,912.2,1090.2,912.1,1090.8,912L1090.8,912z M907.5,887.3c20.2,0-30.3,13.5-31.1,13.7C864.8,904.8,876.7,890.4,907.5,887.3
		L907.5,887.3z M870.6,1242.9c-4.1-0.3-30.4-9.4-28.2-15.9C844,1222.4,885.9,1242.9,870.6,1242.9L870.6,1242.9z M1224.7,1256.5
		c-4-0.4-21.7,5-22.7,0c-1.7-8.1,32.9-9.2,30.9-1.3C1232.2,1258.1,1226.9,1256.6,1224.7,1256.5L1224.7,1256.5z M165,1073.5
		c3.1-18.9,20.8-26.5,14.9-14.8C178.2,1062.1,167.2,1089.8,165,1073.5L165,1073.5z M1210.3,993.2c-27.6-3.8-25.9-12-17.7-10.4
		c3.6,0.7,25.6,2.7,24.3,8.2C1216.2,993.7,1212.5,993.2,1210.3,993.2L1210.3,993.2z M742.2,826.6c17.9-1.1,14.4,4.3,10.2,4.6
		c-4.3,0.3-32.1,5.6-32.9,1.5C718.4,827,738.4,827,742.2,826.6C742.2,826.7,742.2,826.7,742.2,826.6L742.2,826.6z M858.8,1194.5
		c-10.4-0.9,15-23.1,19.9-17.4C883.3,1182.5,862.5,1194,858.8,1194.5L858.8,1194.5z M1433.1,640.6c-7-0.7,13.9-28.2,18.5-25.2
		C1456.8,618.8,1437.2,640.6,1433.1,640.6L1433.1,640.6z M1035.3,1208.9c-1,7.2-7.1,7-7.6-0.4c-0.3-4.8-7.3-15-5.3-17
		C1029.6,1184.3,1035.1,1204.7,1035.3,1208.9L1035.3,1208.9z M1681.1,209.1c-10-2.8,28.3-30.8,22.8-18.9
		C1702,194.4,1685.7,209.6,1681.1,209.1L1681.1,209.1z M532,869.6c-17.3-1.1,27.8-16,29.9-10.1C563.8,865,535.3,868.9,532,869.6
		L532,869.6z M1474.3,569.1c0.3,4.8-21.8,29.7-23.8,28.4c-2.2-1.5,17.1-33.1,22.6-30.1C1473.8,567.7,1474,568.6,1474.3,569.1
		L1474.3,569.1z M262.2,986.2c-0.6,4.3-21.9,17.1-24.7,13.9C232.3,994.1,262.1,980.4,262.2,986.2L262.2,986.2z M1486.6,470
		c-6.2,17.6-30.9,38.7-8.2,1.4C1480.1,468.7,1485.4,464.7,1486.6,470L1486.6,470z M468,890.2c0.6,2.5-47.6,21.9-37.8,12.6
		C433.3,899.9,467.4,885.5,468,890.2L468,890.2z M1372.2,700.5c-5.9-1.9,6.6-29.1,13.1-24.1C1389.2,679.3,1375.3,700.7,1372.2,700.5
		L1372.2,700.5z M1062.8,1206.7c-1.5,16.6-17.9-14.7-11.2-18.3C1057.9,1184.9,1062.1,1203.6,1062.8,1206.7L1062.8,1206.7z
		 M640.4,870.8c-2.1-0.4-6,1.6-6.5-2.3c-0.7-5.8,23.9-5.8,28.5-5.4c2.6,0.3,3.5,3.6,0.5,4.3L640.4,870.8L640.4,870.8z M482.1,1070.2
		c-12.7-3.1,17.2-9.4,24.1-13.1C515.2,1052.2,510.2,1066.7,482.1,1070.2L482.1,1070.2z M1128.5,900.1c14.7,3.6-19.1,10.3-21.7,11.3
		C1100,914.1,1094.8,904.8,1128.5,900.1L1128.5,900.1z M1492.6,462c-7.3-0.5,11.1-22.4,12.9-24.9c2.9-3.9,7.6-0.2,4.5,3.7
		C1504.6,447.9,1499.3,456.3,1492.6,462L1492.6,462z M398.7,1117.9c-0.7,5.4-24.1,13.2-25.6,8.2
		C371.3,1120.3,397.9,1112.3,398.7,1117.9L398.7,1117.9z M308.9,963.7c-0.7,3.7-23.6,15.1-25.9,11.6
		C279.2,969.6,310.4,957.4,308.9,963.7L308.9,963.7z M564,1281.2c3.4,0.6,24.1,1,23.4,6.8c-0.7,5.5-29.3-0.7-28.4-5.1
		C559.5,1280.3,562.3,1281.7,564,1281.2L564,1281.2z M432.7,1131.1c17.4,0-8.4,11.4-13.9,15.5
		C411.3,1152.1,418.4,1131.3,432.7,1131.1L432.7,1131.1z M1365.9,648.5c-4.9,19.9-33.4,40.4-4.7-0.8
		C1362.8,645.4,1364.6,646.8,1365.9,648.5L1365.9,648.5z M702.5,1238.6c24.5,4.8,22.7,19.8,15.7,14.1
		C715.7,1250.6,688.6,1239.8,702.5,1238.6L702.5,1238.6z M322,990.3c20.9,1.1-14.3,16.1-16.5,6C304.3,990.9,319.1,990.8,322,990.3
		L322,990.3z M1675.2,219.2c-6.6,14-24,19-16.5,8.5C1660.6,225.2,1673.7,208.3,1675.2,219.2L1675.2,219.2z M1638.6,274.3
		c-7.9-0.9,13.6-23.2,17.2-20C1659.8,257.8,1643.4,274,1638.6,274.3L1638.6,274.3z M892.5,1257.1c22.5,4.6,25.7,16.4,18.5,12.5
		C909.4,1268.6,870.6,1257.1,892.5,1257.1L892.5,1257.1z M629.2,958.5c34.9,1.1-11,14.9-10.1,3.4
		C619.4,957.9,627.3,958.7,629.2,958.5L629.2,958.5z M1610.8,310.1c-11,0.8,25.5-35.1,20.2-21.8L1610.8,310.1L1610.8,310.1z
		 M527.3,1263.2c-16.8-0.9-25.1-8-16-7.1c3.6,0.4,25.9,0.3,25.9,4.9C537.3,1265,529.6,1263.3,527.3,1263.2L527.3,1263.2z
		 M630.7,1208.1c21.6,1.4,28.2,13.6,20.2,10.5C650.9,1218.7,610.4,1209.8,630.7,1208.1L630.7,1208.1z M582.6,857.5
		c-19.3,0,20.8-15.2,21.9-7.1C605.3,855.8,585.8,856.8,582.6,857.5L582.6,857.5z M691.7,838.7c-24.7,0,14.7-12.7,17-5
		c1.6,5.3-14.1,4.9-17,5.2C691.7,838.8,691.7,838.7,691.7,838.7L691.7,838.7z M1498.4,481.1c-8-1.7,13.6-26.9,15.2-18.6
		C1514.6,467.8,1503.1,480,1498.4,481.1L1498.4,481.1z M916.7,895.1c15.5,0-14.8,7.4-25,11.9C874,914.8,891.7,896.6,916.7,895.1
		L916.7,895.1z M557.5,1260.9c-21.2-3,18.3-12.6,19.5-7.2C578.2,1258.8,560.7,1260.7,557.5,1260.9L557.5,1260.9z M1099.4,968.1
		c22,5,26.9,16.4,18.6,12.8C1116.5,980.3,1085.3,968.5,1099.4,968.1L1099.4,968.1z M541.7,1275.2c-42.1-4.6,8.1-11.1,8.5-3.1
		C550.4,1276.2,543.9,1275.2,541.7,1275.2L541.7,1275.2z M522.4,1193.3c15.6-2.3,18.3,9.1,11.2,7.1c-3.8-1.1-21.6,1.3-21.2-4.6
		C512.7,1192,520,1193.3,522.4,1193.3L522.4,1193.3z M557.4,1184.8c22.6,3.8,21,9.9,15,8.9c-3.4-0.6-21-1.6-20.9-6.1
		C551.5,1184.7,555.6,1184.9,557.4,1184.8L557.4,1184.8z M838.3,925.1c-13.3,0.8,4-10.1,23.6-6.2c1.9,0.4,3.4,3.6,0.5,3.6
		C854.1,922.4,845.8,923.6,838.3,925.1L838.3,925.1z M453,1080.1c-18.2-1.3,20.8-14.7,21.6-7.5C475,1077.1,455.5,1079.5,453,1080.1
		L453,1080.1z M837.6,1155c-1.9,3.7-14.4,14.9-18.3,9.3C815.4,1158.6,834.9,1147.7,837.6,1155L837.6,1155z M1258.6,865.5
		c3.9-20.1,13.3-22.9,10.2-13.7c-1,3-4,18.9-8.4,18.1C1258.2,869.4,1258.4,867.4,1258.6,865.5L1258.6,865.5z M1700.5,313.1
		c-9.3,0.7,5.4-19.9,11.7-14.2C1716.2,302.4,1703.4,312,1700.5,313.1L1700.5,313.1z M1391.1,669.2c-9.5-2.8,17-29.1,13.3-16.5
		C1403.3,656.7,1395.7,669.5,1391.1,669.2L1391.1,669.2z M1723.4,316.7c-8.1,17.8-26.9,11.5-5.1-3.1
		C1720.6,312,1723.6,313.4,1723.4,316.7L1723.4,316.7z M781.4,964.4c0,0,5.1-0.3,5.1,2.6c-0.1,5.9-32.5,8.5-20.9,1.6
		C770.2,965.8,775.2,964.6,781.4,964.4L781.4,964.4z M628.2,1140.2c-20-1.5,37.5-31.3,1.8-0.4
		C629.5,1140.2,628.6,1140.1,628.2,1140.2L628.2,1140.2z M1293.7,907.1c-2.1,27.6-13.7-11.1-3.1-9.8c4.1,0.5,2.9,6.8,2.9,9.7
		C1293.6,907,1293.7,907,1293.7,907.1L1293.7,907.1z M466.2,1133.8c-9,14.5-24.4-13.3-15.3-9.3c5.1,2.2,7.3,7.1,13.6,7.4
		C465.5,1132,466.3,1132.5,466.2,1133.8L466.2,1133.8z M1380.3,605.6c-8.5,22.9-22.6,10.2-4.8-2.7
		C1377.8,601.3,1380.2,602.5,1380.3,605.6L1380.3,605.6z M1129.9,885.6c5.2-0.1,6.6,6.9,0.8,7.5c-0.1,0-22.7,2.6-13.5-3
		C1121.1,887.7,1125.1,885.6,1129.9,885.6L1129.9,885.6z M819.9,1247.1c35.5,10.6,18.5,17-1.3,3.1
		C817.1,1249.1,818.1,1247,819.9,1247.1L819.9,1247.1z M647.6,1139.2c10.1,1.1-14.5,22.9-13.4,12.3
		C634.5,1147.9,643.7,1139.4,647.6,1139.2L647.6,1139.2z M1823.8,229.2c-6.5-1.3,9.1-19.1,14-13.7
		C1841.9,219.9,1827.3,228.8,1823.8,229.2L1823.8,229.2z M1449.4,502.8c-8.2,19.6-27.3,23.6-4.1-2
		C1446.6,499.4,1449.2,500.6,1449.4,502.8L1449.4,502.8z M1936.3,157.5c-10.5-1.6,5.2-19.6,8.2-13.5
		C1946.9,148.9,1941.6,157.1,1936.3,157.5L1936.3,157.5z M1652.7,330.6c-4,14.1-27.5,19.1-5-2.2
		C1649.8,326.4,1652.6,327.8,1652.7,330.6L1652.7,330.6z M395.6,1193.9c6.5,0.6,12.2,5.7,2.8,5.2c-3.6-0.2-15,5.9-16.6,2
		C379.6,1196.1,393.1,1194.2,395.6,1193.9L395.6,1193.9z M1032.3,1001.1c-24.6-1.3-13.1-7.6,9.3-3.2c1.4,0.3,1.6,3.1-0.2,3.2
		C1038.3,1001.1,1035.3,1001.1,1032.3,1001.1L1032.3,1001.1z M769.3,1248.5c3-0.1,19.7,11.9,10.9,13.1
		C775.6,1262.3,761.7,1249.6,769.3,1248.5L769.3,1248.5z M741.2,1246.7c21.8,7,7.7,27.7-1.5,3.7
		C739.1,1248.7,739.7,1247.6,741.2,1246.7L741.2,1246.7z M1482.8,541.4c0.1,7.4-16.1,16.4-13.2,9.6
		C1470.6,548.8,1481.7,532.6,1482.8,541.4L1482.8,541.4z M610.7,991.1c-17.8-1.4,7.6-15.4,9.9-5.8
		C621.8,990.6,613.7,990.6,610.7,991.1L610.7,991.1z M811.2,932.9c-17.7,1.1-5.3-8.2,7.5-6.1c4.1,0.7,4.9,4.6,0.3,5.3
		C816,932.5,813,932.7,811.2,932.9L811.2,932.9z M637.8,989.6c-1-0.1-1.7-0.2-2.4-0.3c-14.5-2.4,10.3-15.2,11.4-5.6
		C647.3,988.4,640.7,988.9,637.8,989.6L637.8,989.6z M480.4,1250c33.9,6.7-7.9,11.6-5.7,1.9C475.3,1249.4,477.7,1249.7,480.4,1250
		L480.4,1250z M595.9,866.1c-15.2,0.4,13.1-13.7,15-6.2C612,864.7,598.4,865.5,595.9,866.1L595.9,866.1z M1011.4,824.1
		c13.7,1.2,4,10.9-7,6C996.8,826.7,1003.9,824.1,1011.4,824.1L1011.4,824.1z M491.8,947.9c-6.7,0.5-10.5-9.7-4.2-13.1
		c4.5-2.4,4.7,5.2,6.7,8.4C495.7,945.5,494.4,947.7,491.8,947.9L491.8,947.9z M1225,919.5c18.8,5.4,6.7,16.7-3.2,5.4
		C1219.4,922.2,1222.2,919.7,1225,919.5L1225,919.5z M358.9,1119.5c-14.9-1.3,9.8-13.1,12.3-6.3
		C373.2,1118.4,362.4,1119.4,358.9,1119.5L358.9,1119.5z M1437.2,613.8c-0.9,9.2-20.1,18.6-9.1,2.1
		C1429.6,613.7,1436.8,606.8,1437.2,613.8L1437.2,613.8z M1048.5,954.8c1.6,0.3,13.5,0.6,13.5,4
		C1061.9,966,1025.3,955.8,1048.5,954.8L1048.5,954.8z M823.8,958.9c-20.2,0,19.1-12.8,16.5-2.7
		C839.8,958.3,826.2,958.7,823.8,958.9L823.8,958.9z M461.9,1082.6c15.5,1.3-13.3,13.6-13.6,4.6
		C448.2,1083.3,459.6,1083,461.9,1082.6L461.9,1082.6z M1019.7,1208.8c-0.9,12.6-13.8-9-8.4-12
		C1016,1194.1,1019.6,1206.3,1019.7,1208.8L1019.7,1208.8z M190.8,1064c-10.6-1.9,8.4-21.4,8.6-10.6
		C199.5,1056.6,193.8,1063.4,190.8,1064L190.8,1064z M669.9,902.7c-14.9,0.7-8.9-9.3,6-5.6C682.1,898.6,677.4,902.7,669.9,902.7
		L669.9,902.7z M1228.8,974.8c14.9,2-8.8,12.9-10.3,4.9C1217.7,975.4,1226.3,975.3,1228.8,974.8L1228.8,974.8z M735.1,1240.4
		c-0.8,7.9-25.9-8.9-15.3-8C724.6,1232.9,733.1,1235.5,735.1,1240.4L735.1,1240.4z M1050.9,994.5c-23.6-3.2,9.4-11.8,7.7-2.3
		C1058,995.1,1053.3,994.4,1050.9,994.5L1050.9,994.5z M403.2,918.3c-11.4-0.1,10.3-15.5,12.4-7.9
		C417,915.2,405.7,917.2,403.2,918.3L403.2,918.3z M511,883.8c12.3,0.7-11.2,12.9-13.5,8C495.2,886.8,508.4,884.3,511,883.8
		L511,883.8z M677.9,1234.1c26.5,2.9-9.3,10-9.4,3.3C668.4,1233.9,675.9,1234.3,677.9,1234.1L677.9,1234.1z M692,982.8
		c18.5,3.3,4.2,17-3.8,4.8C686.3,984.7,688.8,982.7,692,982.8L692,982.8z M1123.7,931.6c-6.1,8.5-20.5,8.2-13.6,2.3
		C1113,931.3,1121.6,925,1123.7,931.6L1123.7,931.6z M264.6,1109.9c-17.5-2.7,4.4-14.4,5.9-4.3
		C270.9,1108.3,268.6,1109.9,264.6,1109.9L264.6,1109.9z M1000.2,1199.8c6.4,1.1,9.2,19.1,3.5,15.4
		C1001.8,1213.9,994.8,1200.5,1000.2,1199.8L1000.2,1199.8z M601.9,1249.5c-8.9,14.8-24.2-3.1-3.4-3.5
		C600.4,1246,601.8,1246.7,601.9,1249.5L601.9,1249.5z M376.7,1212.3c0,3-21.1,11-17.6,4.4C360.1,1214.8,377,1207.4,376.7,1212.3
		L376.7,1212.3z M482,1085.7c-14.3-0.2,9.6-12.4,12-7.1C496.2,1083.6,484.3,1085,482,1085.7L482,1085.7z M368.4,1202
		c11.1,1.6-9,7.6-10.7,9.1C352.9,1215.3,349.5,1203,368.4,1202L368.4,1202z M867.9,954c18.8,2.4-11.9,10.3-11.2,2.9
		C856.9,955,859.6,954.3,867.9,954L867.9,954z M1589.8,329.1c5.1-14.4,17.9-8.1,4.5,3.1C1592.1,334,1589.7,331.5,1589.8,329.1
		L1589.8,329.1z M1615.2,334.1c-8.5-2.4,6.5-17.3,8.2-8.5C1624,328.4,1618.2,334.4,1615.2,334.1L1615.2,334.1z M1551.1,359.9
		c0.1,4.1-10.3,12.7-10.2,5.2C1540.9,361,1550.9,352.3,1551.1,359.9L1551.1,359.9z M681.4,929.1c-24.3-3.9,10.5-11,7.6-1.3
		C688.2,930.5,684.4,929.3,681.4,929.1L681.4,929.1z M650.9,1061c13.9,1.2-16.1,17.5-9.4,5.5C642.8,1064.3,648.2,1061.1,650.9,1061
		L650.9,1061z M802.7,1156.6c11,2.1-5.9,20.1-5.1,6.3C797.7,1159.3,800.1,1156.4,802.7,1156.6L802.7,1156.6z M167.5,1095.1
		c-1.5,10.1-10.7,9-6.9-1.9C162.5,1087.8,167.4,1089.9,167.5,1095.1L167.5,1095.1z M898.4,956c-26.3,2.2,12.9-11.6,10.9-1.4
		C908.8,957.3,901.4,956,898.4,956L898.4,956z M660.9,1073.6c-20.9,20.8-11-3.7-1.6-2.5C660.4,1071.2,660.9,1072,660.9,1073.6
		L660.9,1073.6z M453,905.5c10.2,3-12.2,11.5-13.1,6.3C439.2,907.7,450.3,905.9,453,905.5L453,905.5z M1154,903.9
		c-2.8-0.7-7.7,0.3-7.6-3c0.2-4.5,13.9-3.9,14,0.1C1160.5,905.2,1156.4,903.3,1154,903.9L1154,903.9z M616,1245.7
		c-12.7-1.4,12.6-15.7,8-5C623.1,1242.7,618.1,1245.8,616,1245.7L616,1245.7z M1081.8,966.3c-21.3-5.5,7.6-10.8,5.7-1.8
		C1087,966.9,1083.8,966.3,1081.8,966.3L1081.8,966.3z M659.5,1151.2c-0.2,4.9-13.6,9.9-11.7,3.3
		C648.7,1151.6,659,1144.8,659.5,1151.2L659.5,1151.2z M591.1,929.5c12,0.2-5.9,12.6-8.6,6.2C580.8,931.6,588.6,929.9,591.1,929.5
		L591.1,929.5z M706.9,979c10.3,1.2,11.4,14.7-2,5C702.2,982.1,704.2,979.5,706.9,979L706.9,979z M1288.6,984.2
		c-16.4-2,11.3-11.2,7.4-3C1294.5,984.2,1291.6,983.9,1288.6,984.2L1288.6,984.2z M485.9,1165c20.6,2.8-12,10.9-7.2,3
		C480.3,1165.2,483.1,1165.2,485.9,1165L485.9,1165z M1670.4,313.6c-0.1,3.3-9.6,11-9.8,4.2C1660.4,313.9,1670.4,306.6,1670.4,313.6
		L1670.4,313.6z M845.1,1209.8c-1.7,13.4-12.2,2.6-5.1-3.6C842.7,1203.9,845.4,1207.1,845.1,1209.8L845.1,1209.8z M1274.4,891.3
		c-5.3,17.8-12.3-8.8-1.7-4.8C1274.8,887.3,1274.6,889.2,1274.4,891.3L1274.4,891.3z M1674.4,240.4c-0.3,4.3-10.1,9.7-9.5,2.8
		C1665.2,238.6,1674.9,233.6,1674.4,240.4L1674.4,240.4z M1330.2,758.2c-8.2-0.6,4.1-16.5,5.9-9.3
		C1336.8,751.4,1332.8,757.9,1330.2,758.2L1330.2,758.2z M1525.9,469.6c-0.4,4.1-8,11.2-9.4,5.1
		C1515.7,470.5,1525.8,462.8,1525.9,469.6L1525.9,469.6z M1278.6,829c0.4,5.3-7.3,11.1-7.7,4.3
		C1270.6,828.1,1277.8,822.5,1278.6,829L1278.6,829z M792.4,938.9c-1.5,6.7-18.6,5.7-13.3,2.1C780.3,940,793.1,934.4,792.4,938.9
		L792.4,938.9z M538.2,1182.5c2.6,0.7,7-0.7,6.8,2.9c-0.2,4.9-13.2,3.4-13-0.3C532.3,1181.9,536.1,1183,538.2,1182.5L538.2,1182.5z
		 M1204.5,972.1c1.9,0.6,5.8-1.1,6,2c0.2,3.7-11.6,5.1-13.4,1.5C1196.2,973.7,1199.3,972.2,1204.5,972.1L1204.5,972.1z M887.9,925.9
		c-24.6-2,4.1-9.2,5.4-1.4C893.7,926.6,888.2,925.9,887.9,925.9L887.9,925.9z M407,1138.2c-8.5,0.6,5.6-13.9,8.1-6
		C416.3,1135.9,409.2,1137.5,407,1138.2L407,1138.2z M932.7,889.8c-17.8-2,7.1-9.4,6.8-2.1C939.3,890.9,934.7,888.7,932.7,889.8
		L932.7,889.8z M556.2,1044.2c-0.8,8-17.8,13.4-3.4-2.4C554.5,1040,556.2,1042.1,556.2,1044.2L556.2,1044.2z M918.9,907.5
		c10.2,0.4-4.8,10.4-7.4,5.1C909.8,909.3,916.6,907.6,918.9,907.5L918.9,907.5z M478.4,1160.3c-11.2-1.1,5.3-12.4,6.7-4.6
		C485.5,1157.8,482,1160.2,478.4,1160.3L478.4,1160.3z M638.3,1196.6c18.3,2.6-7.2,10.3-5.7,2.2
		C633.1,1196.3,636.1,1196.6,638.3,1196.6L638.3,1196.6z M861.5,1252.8c15.7,2.2,11.1,8.1-2.2,2.4
		C856.1,1253.8,860,1252.8,861.5,1252.8L861.5,1252.8z M687.5,849.7c-9.8,0.2,1.4-10.5,6.2-4.3C696.7,849.1,688.7,849.5,687.5,849.7
		L687.5,849.7z M816.4,914.4c17.9,2.4-16.1,9.9-6.4,1.7C811.9,914.5,814.3,914.8,816.4,914.4L816.4,914.4z M572.1,1277.8
		c-16.2-5.8,5.1-8.3,4.5-2.6C576.3,1277.8,574,1277.8,572.1,1277.8L572.1,1277.8z M637.7,1185.8c16.3,3.4-6.9,10.7-5.9,2.5
		C632.1,1186,635.3,1186,637.7,1185.8L637.7,1185.8z M808.2,1241.3c-2.5,2.8-28.6-12.5-20-9.6C793.6,1233.6,805,1236.5,808.2,1241.3
		L808.2,1241.3z M382.4,926.8c-12.3,0.8,11-12.3,7-4.3C387.9,925.5,384.8,926,382.4,926.8L382.4,926.8z M1002.8,996.5
		c-15.2-1.9,3.9-11.2,4.3-2.6C1007.2,996.5,1004.4,996.2,1002.8,996.5L1002.8,996.5z M432.2,1082.6c-14.4-0.1,10.5-10.9,6.2-2.8
		C437,1082.4,434.4,1082.3,432.2,1082.6L432.2,1082.6z M1176.3,902.3c18.7,4.9-5,9.4-3.5,1.7C1173.3,902,1175.1,902.6,1176.3,902.3
		L1176.3,902.3z M667,1207.9c-1.4,6.1-15-4.3-8.6-4.3C662,1203.5,665.3,1204.6,667,1207.9L667,1207.9z M783.6,926.2
		c5.3-5.2,16.9-1.6,9.2,1.6C789.5,929.3,786.5,928.3,783.6,926.2L783.6,926.2z M998.3,844.4c-2,12.3-11.2-2.2-2.5-3.1
		C997.6,841.2,998.2,842.6,998.3,844.4L998.3,844.4z M467.9,899.4c11.9,1.1-10.1,10.3-6.8,3.8C462.5,900.4,465.2,899.9,467.9,899.4
		L467.9,899.4z M808.7,1186.5c-2.4,8.9-12.9-1-6.5-2.7C804.6,1183.1,808.4,1184.7,808.7,1186.5L808.7,1186.5z M644.8,925.6
		c-13-1.1,5.7-9.2,5.7-2.7C650.5,925.7,647,925.4,644.8,925.6L644.8,925.6z M619.5,873.4c-10.7,0.7,6.5-10.7,5-3
		C624,873.3,621.3,873,619.5,873.4L619.5,873.4z M765,945.6c-6.2-0.2,8.5-8.1,9.4-4.3C775.2,944.9,767.1,945.2,765,945.6L765,945.6z
		 M748.4,966c2.7-2.8,10.1-5.5,13.6-4.9C761,965.9,752.7,967.1,748.4,966L748.4,966z M718.9,959.2
		C705.5,954.4,737,954.3,718.9,959.2L718.9,959.2z M696.9,964.7c10.6,2.5-3.9,8.2-4,2.1C692.8,964.5,695.2,964.8,696.9,964.7
		L696.9,964.7z M419.8,1088.8c-10.1,0.5,4.5-11.2,4-3.5C423.7,1087.6,421.7,1088.5,419.8,1088.8L419.8,1088.8z M903.8,913.8
		c-2.5,6.4-12.3-3.2-2.5-2.3C902.6,911.7,903.8,912.1,903.8,913.8L903.8,913.8z M930.6,1120.5c4.6-0.1-1.3,6.1-4.4,4.1
		C923.2,1122.6,929.6,1120.9,930.6,1120.5L930.6,1120.5z M630.3,1057.7c1.1,6.4-13.3,2.2-0.8-1
		C629.7,1056.6,630.1,1057.3,630.3,1057.7L630.3,1057.7z M1045.5,1193c-0.8,6.1-8.7-2.8-3.2-3.3
		C1043.9,1189.6,1045.6,1191.3,1045.5,1193L1045.5,1193z M504.4,974.8c0.2,5.7-7.4-2.8-1.5-2.2C504,972.7,504.2,973.9,504.4,974.8
		L504.4,974.8z M932.3,923.8c-0.5,5.7-7.7-2.8-1.8-1.7C931.5,922.3,932.3,922.7,932.3,923.8L932.3,923.8z M602.7,1059.9
		c-5.9-1.7,2.5-5,2.6-1.9C605.4,1059.6,604,1059.8,602.7,1059.9L602.7,1059.9z M920.3,1253.8c-1.2,3.1-5.8-0.6-1.4-1.1
		C919.5,1252.7,920.3,1252.8,920.3,1253.8L920.3,1253.8z M706.1,929.8C698.1,929.8,705.3,926.2,706.1,929.8L706.1,929.8z
		 M1538.8,1138.3c0-5.4,0.6-6.3,6.2-5.2c19.7,3.8,35.4,13,49.6,26.8c7.4,7.2-5,11.9-7.4,9.3C1561,1141,1538.8,1149,1538.8,1138.3
		L1538.8,1138.3z M1294,1032.6c-2.7,0-21.3,2.2-21.2-3.1c0.1-3.7,47.7-3.3,66.1-8.6C1351.2,1017.4,1353.7,1033.5,1294,1032.6
		L1294,1032.6z M1670.3,1044.4c-0.9,13.6-26.2-18.8-34.3-24.8c-14-10.6,3-16.2,31.8,19C1669.2,1040.2,1670.3,1042.3,1670.3,1044.4
		L1670.3,1044.4z M1406.1,1244.2c-7.1-0.4-11.8-7.1-2.7-7.9c6.6-0.5,37.3-7,38.8-2.8C1445.1,1242.1,1409.9,1243.8,1406.1,1244.2
		L1406.1,1244.2z M1478.8,1023.2c-41-3.4-68.7-21-58.5-19.7c8.5,1.1,35.4,11.1,53.7,14.6C1480.4,1019.3,1484.5,1025.2,1478.8,1023.2
		L1478.8,1023.2z M1374.9,1209.8c20.2,3.4-21.1,13.6-24.3,13.8C1339.9,1224,1342.8,1212.8,1374.9,1209.8L1374.9,1209.8z
		 M1672.1,1057.5c6.4,0.9,20.9,29.5,14.7,32.7c-6.7,3.4-14.1-24.8-15.6-28.5C1670.6,1060.2,1669.8,1058.3,1672.1,1057.5
		L1672.1,1057.5z M1315.2,1045.4c-32.5-2.9,14.3-9.2,20.8-9c3.5,0.2,4.5,5.2,1,6L1315.2,1045.4L1315.2,1045.4z M1509.9,1023.9
		c3.5,0.3,22.1-0.8,22.2,5.1c0,7.7-30.8,2.6-29.9-3C1502.8,1022.5,1507.4,1023.7,1509.9,1023.9L1509.9,1023.9L1509.9,1023.9z
		 M1591.8,1030.5c-15-3.6,1.3-7.7,18.8-15.6C1618.6,1011.3,1610.5,1028.2,1591.8,1030.5L1591.8,1030.5z M1390.8,1224
		c23.8,1.3-18.8,16.1-19.2,6.5C1371.3,1225.3,1388.3,1224.5,1390.8,1224L1390.8,1224z M1282.5,1267.7c19.9-0.7,27.4,9.2-3.5,5.4
		C1271.3,1272.1,1274.6,1267.3,1282.5,1267.7L1282.5,1267.7z M1357.1,1019.6c-15.9,0.9,12.9-16.4,15.4-9.2
		C1374.7,1016.7,1360.6,1019,1357.1,1019.6L1357.1,1019.6z M1475,1225c6.2,2-15.3,13.7-17.2,7.7
		C1456,1226.9,1471.5,1225.3,1475,1225L1475,1225z M1251.2,1033.4c-22.6-3.1,9.3-11.2,9.1-3.3
		C1260.2,1033.8,1253.8,1033.1,1251.2,1033.4L1251.2,1033.4z M1561.1,1031.6c14.5-0.3,6.9,8.6-5,5.7
		C1548.2,1035.4,1555.2,1031.6,1561.1,1031.6L1561.1,1031.6z M1395.4,996.4c0.1,10.7-27.6,6.4-2.4-2.7
		C1394.2,993.2,1395.2,994.5,1395.4,996.4L1395.4,996.4z M1546.1,1198.4c-6.5-2.9,7.2-5.5,6.4-4.3
		C1550.8,1196.3,1548.5,1197.6,1546.1,1198.4L1546.1,1198.4z M1685.6,956.4c0,1,1.6,33.8-4,23.1c-9.6-18.3-4.9-49-9.1-77.2
		c-0.6-4.1-6.8-23.4-0.9-25C1685.4,873.6,1685.9,950.4,1685.6,956.4L1685.6,956.4z M1745.4,990.9c-0.3,5.8,2.5,30.3-8.4,21.8
		c-5.6-4.4-3.5-33-5.5-41.3c-0.6-2.4-9-48.8,0.2-37.4C1744.2,949.4,1745.6,971.7,1745.4,990.9L1745.4,990.9z M1658.8,924.1
		c0,4,2.8,24.3-4.5,24.2c-8.3-0.2-5.2-52.5-11.1-85.1C1639.8,844,1655.5,836.6,1658.8,924.1L1658.8,924.1z M1448.2,812.6
		c0.4-13,2-27.1,0.1-41.2c-1.6-11.9,10.5-10.2,9.3,4.1c-1,12.2,0.8,92.5-7.4,91.7C1445.5,866.9,1447.8,819.4,1448.2,812.6
		L1448.2,812.6z M1634.7,903.1c0,21.2-9,13.9-9.2,8.6l-5.6-63.9c-1.2-8.9,5.3-9.9,7.5-1.4C1632.2,865.1,1633,883.6,1634.7,903.1
		L1634.7,903.1z M1609.8,876.6c0,11.8-10.1,13-10.9,1.5c-0.4-5.9-7.1-55.5-0.2-56.8C1609.4,819.1,1609.3,869.9,1609.8,876.6
		L1609.8,876.6z M1718.9,1000.6c0.2,22.5-9.5,19.4-10.3,12.9c-0.7-5.2-8.1-41.5-0.4-43.1C1719.5,968.1,1718.6,994.9,1718.9,1000.6
		L1718.9,1000.6z M1702.2,915.2c0-50.8,2.1,67.4,2.4,32.9C1704.7,937.3,1703.9,926.5,1702.2,915.2L1702.2,915.2z M1584.6,847.9
		c0,10.8-9.8,9.7-10.1-0.5c-0.2-10-5.8-49.3,3.6-36.2c5.4,7.5,5.5,27.5,6.8,36.8C1584.8,847.9,1584.7,847.9,1584.6,847.9
		L1584.6,847.9z M1438.9,830c0,4.4,3.3,29.8-4.2,29.7c-4.8-0.1-2.8-5-3-7.9c-0.2-5-1.6-49.2,5-48.7c4.9,0.4,2.3,23.2,2.3,26.8
		C1439,830,1438.9,830,1438.9,830L1438.9,830z M1477.3,799.3c0,2.3,2.3,27.1-3.3,21.2c-3.9-4.2-8.5-48-0.8-47.8
		C1480.9,773,1477.3,795.2,1477.3,799.3C1477.3,799.3,1477.3,799.3,1477.3,799.3L1477.3,799.3z M1559.4,820.6
		c1.2,22.1-10.8,18-10.9,3.9c0-4.6-2.8-19.7,4.1-20.7C1560.1,802.7,1558.6,816.5,1559.4,820.6L1559.4,820.6z M1490.9,805
		c0-3.3-2.9-24.8,4.2-24.3c2.9,0.2,5.5,49.6-1.4,49.6C1489.5,830.4,1490.9,809,1490.9,805C1490.9,805,1490.9,805,1490.9,805
		L1490.9,805z M1475.4,837.2c-0.9,4.2,1.1,31-6.9,30.2c-6.1-0.7-1.9-25.9-0.9-31.3C1469.4,826,1474.6,827.1,1475.4,837.2
		L1475.4,837.2z M1738.9,1041.3c0.4,11-12,25.7-9.7-5C1729.8,1028.2,1737.9,1028.8,1738.9,1041.3L1738.9,1041.3z M1395.4,824.4
		c0-29.1,6-11.8,6.1-9.6C1402.8,834.5,1393.8,854.4,1395.4,824.4L1395.4,824.4z M1722.6,1079.2c-11.2,0.9,2.5-23.4,7.3-13.2
		C1731.6,1069.5,1726.4,1078.9,1722.6,1079.2L1722.6,1079.2z M1380,768.5c0.8-13.4,6.9-11,6.7-6.3
		C1386.1,777.4,1380.4,793.9,1380,768.5L1380,768.5z M1378.3,796.9c5.1-25.7,11.8,9,3.1,8.7C1378.5,805.4,1378.7,799,1378.3,796.9
		L1378.3,796.9z M1514.8,791.4c-2.1,19.9-11.7-8.1-3-7.6C1515.6,783.9,1514.8,788.4,1514.8,791.4L1514.8,791.4z M1606.6,905.7
		c-10.8-1.3,3.5-15.9,3.7-4.6C1610.4,903.6,1609.4,905.4,1606.6,905.7L1606.6,905.7z M1284.2,1097c-29.4,0-8.7-12.1,5.9-7
		c4.5,1.6,13.8-2.7,19-3.4c41.6-5.1,117.4-27.9,123.7-28.3c5.6-0.4-0.5,4.2-2.7,4.9C1384.5,1076.7,1332.5,1095,1284.2,1097
		L1284.2,1097z M1270.9,1154.9c-4,7.2-9.6-15.3-34.7-28.7c-28.6-15.4-18.7-17.5-16.8-15.9
		C1239.4,1125.7,1264.1,1124.5,1270.9,1154.9L1270.9,1154.9z M1378.6,1149c-11.8,1-26.9-31.1-8.1-13.1
		C1374.8,1139.9,1392.1,1148.1,1378.6,1149L1378.6,1149z M1228.9,1132.8c-14.4,32.6-20.5,13.3-5.1-2.2
		C1226,1128.4,1228.4,1129.7,1228.9,1132.8L1228.9,1132.8z M1419.5,1080.9c-34.4-1.5,10.9-11.6,7-0.7
		C1425.7,1082.5,1421.1,1081.1,1419.5,1080.9L1419.5,1080.9z M1363.2,1088.9c3,0.5,11.5-0.3,11.4,4.2
		C1374.4,1102.3,1345.9,1089.8,1363.2,1088.9L1363.2,1088.9z M1358.1,1149.3c-8.8,0.8-18.3-19.3-9.4-13.4
		c1.9,1.3,13.2,10.4,12.2,12.5C1360.3,1149.9,1358.8,1148.9,1358.1,1149.3L1358.1,1149.3z M1397.4,1047.5c0.9,9.5-24.5,33.1-3.9,0.3
		C1394.5,1046.2,1397.4,1047.5,1397.4,1047.5L1397.4,1047.5z M1338.9,1096.2c23.8,2.9,19.3,13.1-0.8,3.3
		C1334.6,1097.8,1337.4,1096.8,1338.9,1096.2L1338.9,1096.2z M1436.9,1064.7c6.8-0.1,12,9.1-2.4,6.1
		C1428,1069.4,1430.6,1064.9,1436.9,1064.7L1436.9,1064.7z M1252.5,1155.6c-3.7,8.8-12.7,13.1-6.9,2.1
		C1247,1154.9,1253.4,1142.4,1252.5,1155.6L1252.5,1155.6z M1239.3,1142.7c0.2,4.8-6.6,10.7-7.2,4.9
		C1231.6,1143.1,1239,1136.1,1239.3,1142.7L1239.3,1142.7z M1405,1057.6c-7.6-1.7,6.3-17.6,5-5.5
		C1409.7,1055.6,1407.6,1057.9,1405,1057.6L1405,1057.6z M1455.6,1139.8c5.5-1.3,13.2-1.8,17.1,2.6
		C1468,1144.2,1460.5,1140.9,1455.6,1139.8L1455.6,1139.8z M1207.9,1131.5c-5.6-2.4,12.4-15.5,5.3-4.5
		C1211.9,1129,1210.8,1131.4,1207.9,1131.5L1207.9,1131.5z M721.2,1058.7c3.2,0,17.1-2.2,17.6,2.4c0.8,6.8-37.2,9-37.1,0.7
		C701.7,1056.2,717.7,1058.7,721.2,1058.7C721.2,1058.7,721.2,1058.7,721.2,1058.7L721.2,1058.7z M715.7,1051.1
		c-23.7,1.4-29.7-18.6-15.7-10.8c9,5,28.2,4,28.6,6.2C729.5,1051.4,718.3,1051,715.7,1051.1L715.7,1051.1z M722.7,1012.7
		c0.1,2.8-24.3,12.9-26.3,7C694.5,1013.9,720.5,1006.6,722.7,1012.7L722.7,1012.7z M691.3,1054.7c-1.1,13.5-26.2-13.7-12.5-9.5
		C682.8,1046.5,690.1,1050.3,691.3,1054.7L691.3,1054.7z M733.9,1010c-16.4-0.2,10.6-13,13-6.4
		C748.4,1007.7,735.8,1009.4,733.9,1010L733.9,1010z M903.1,994.7c-27.3-2.6,9.7-11.1,7.5-1.2C910,996.3,905,994.9,903.1,994.7
		C903.1,994.7,903.1,994.7,903.1,994.7L903.1,994.7z M837.1,1047.6c-15-0.7,9.3-14.4,10.1-4.9
		C847.5,1046.8,839.5,1047.1,837.1,1047.6L837.1,1047.6z M815.9,1039c0,0,4.7-0.2,4.9,2.5c0.3,7.3-22.9,2.8-13.4-1.1
		C809.9,1039.3,812.6,1039.2,815.9,1039L815.9,1039z M762.3,1001.1c-17.6-1.8,14-10.8,12.1-4.7
		C773.5,999.5,764.3,1000.5,762.3,1001.1L762.3,1001.1z M710.5,1029.7c1.9,0.8,6.2-1,5.9,3C715.7,1042.1,691.9,1029.7,710.5,1029.7
		L710.5,1029.7z M689.1,1027.9c-4.2,22-13.2-9.1-1.1-3.8C689.8,1024.8,689.4,1026.4,689.1,1027.9L689.1,1027.9z M927.4,1000.8
		c12.7,1.6,8.8,15.5-2,3.4C923.8,1002.4,925.5,1001.1,927.4,1000.8L927.4,1000.8z M744.2,1043.4c11.7,1.4-3.9,10.6-5.9,3.6
		C737.4,1043.8,742.1,1043.6,744.2,1043.4L744.2,1043.4z M863.1,1047.6c15.2,2.7-6.8,9-6.5,2.5
		C856.7,1047.4,861.1,1047.8,863.1,1047.6L863.1,1047.6z M864.4,1040.9c-11.5-2.4,3.6-8.7,5.7-3.1
		C870.9,1040,865.3,1040.6,864.4,1040.9L864.4,1040.9z M1554.9,1001c-80.4-2.8-105-18.1-91.1-16.3c66.8,8.4,64.2,13.6,127.4,6
		C1606.6,988.8,1599.4,1002.7,1554.9,1001L1554.9,1001z M1574.9,988.4c-8.7-0.9-14.8-6.4-3.3-6.7c17.9-0.6,39.9-17.2,42.6-13.2
		C1621.3,979,1579.6,987.9,1574.9,988.4L1574.9,988.4z M1536,988.5c-40.1-1-47.6-11.9-36.4-10.2l53.3,4.9c3.7,0.3,4,3.7,0.5,4.8
		C1547.8,989.6,1541.6,988.7,1536,988.5L1536,988.5z M1430.6,946.6c-3,0.2-23.6,4.7-23.7-2.3c-0.2-8,42.7-5.4,41.6,0
		C1447.8,948.4,1434,946.6,1430.6,946.6L1430.6,946.6z M1481.6,980.9c-4-0.5-21.9,0.4-21.2-6.1c0.6-6.4,28.7-1.8,28.5,3.2
		C1488.7,981.5,1484.1,980.9,1481.6,980.9L1481.6,980.9z M1564.2,934.6c-3.4-1.1-26.5-2.8-26.4-6.7c0.2-5.5,32.6-1.9,30.6,5.2
		C1567.8,935,1566.1,934.7,1564.2,934.6L1564.2,934.6z M1445.9,920.5c1.7,0.1,9.7-0.9,10.2,2.3c0.7,4.8-26,7.9-27.1,3.4
		C1427.5,919.8,1442,921,1445.9,920.5L1445.9,920.5z M1516.9,925.9c-2.3-0.3-16.6,1.3-16.9-3.4
		C1499.4,912.3,1555.8,928.4,1516.9,925.9L1516.9,925.9z M1599,947c-1.8,7.7-23.7-7.7-22.6-10.5C1578.3,931.2,1598.7,940.9,1599,947
		L1599,947z M1440.1,955.2c3.3,0.6,15.4-0.4,14.1,5.5c-1.9,8.7-35.9-3.3-16.8-5.5C1438.4,955.1,1439.4,955.2,1440.1,955.2
		L1440.1,955.2z M1473.9,935.5c-28.8,0-10.5-9.4,10.5-3.1c2.5,0.8,1.6,3.6-0.8,3.6c-3.2,0.1-6.5,0-9.7,0
		C1473.9,935.9,1473.9,935.7,1473.9,935.5L1473.9,935.5z M1446.6,987.2c-11.6-2.7-19.3-15.8,1.9-6.7
		C1453.9,982.8,1452.5,987.6,1446.6,987.2L1446.6,987.2z M1620.3,982.9c0.7,9.9-31.6,13-4.8-2.3
		C1617.8,979.3,1620.1,980.4,1620.3,982.9L1620.3,982.9z M1599,957.7c13.5-0.2-10,17.4-11.9,7.2
		C1586.4,960.7,1596.2,958.2,1599,957.7L1599,957.7z M1507.8,967.6c2.2,0.3,12.4,0.2,11.8,4.1
		C1518.7,977.9,1482.6,967.6,1507.8,967.6L1507.8,967.6z M1584.2,957.2c-2.2-0.6-6.4,0.7-6.5-2.9c0-4.7,12.7-5.1,13.9-0.4
		C1592.1,956.4,1589.5,957.5,1584.2,957.2L1584.2,957.2z M1474.9,958.3c-2.8-0.8-7.5,0.2-7.1-3.7
		C1468.3,948.4,1491.3,954.5,1474.9,958.3L1474.9,958.3z M1465.8,940.8c25.1,5.6-16,7.2-5.2,0.5
		C1462,940.4,1463.5,940.6,1465.8,940.8L1465.8,940.8z M1577.3,964.9c9.8-0.2,0.3,11.6-5.3,5.9
		C1568.6,967.5,1575.6,965.3,1577.3,964.9L1577.3,964.9z M1477.9,922.6c-2-0.6-6.5,1.2-6.5-2.2
		C1471.6,912.3,1495.6,922.6,1477.9,922.6L1477.9,922.6z M1482.6,967.4c-9.8-1.6,4.6-9.6,3.5-2.1
		C1485.9,966.9,1484.3,967.4,1482.6,967.4L1482.6,967.4z M1609.4,954.4c0.7,8.6-12.1-2.7-4.1-3
		C1607.6,951.3,1608.7,952.9,1609.4,954.4L1609.4,954.4z M983.9,1048.9c-7.6-3.6-35.4,30.4-53.6,23.7c-14.3-5.3,41.4-12.7,55.5-47.8
		c2.3-5.8,6.2,3.8,3.9,7.8c-9.3,16.4-5.5,10.6,10.6,8.2C1011.1,1039.1,995.9,1049.6,983.9,1048.9L983.9,1048.9z M900.3,1090.7
		c-38.8-8.6-68.9-0.1-109.7-15.4c-5.5-2.1-0.3-5.6,3.7-3.6c27,13.9,113.7,4.5,110.4,17.4C904.1,1091.4,901.7,1090.2,900.3,1090.7
		L900.3,1090.7z M960.1,1077c2.7,0.1,18.4-1,18.3,2.9c-0.1,3.5-36.4,3.8-34.8-2.1c1-3.6,13.4-0.8,16.5-0.7
		C960.1,1077,960.1,1077,960.1,1077L960.1,1077z M980.9,1070.9c-24.8,0-14-4.9-13.1-4.9c3.6,0,30-1.6,30.1,1.9
		C997.9,1072.3,983.5,1070.9,980.9,1070.9L980.9,1070.9z M870.1,1093.1c0.4,0.2,1,0.4,1.7,0.7c-1.9,3.6-27.9,14.2-28.9,8.8
		C841.8,1097.7,866.1,1093.6,870.1,1093.1L870.1,1093.1z M865.3,1117.7c-16.6-2.4,27.5-18.6,19.4-11.4
		C878.8,1111.5,871,1113.5,865.3,1117.7L865.3,1117.7z M846,1089.6c13-0.1-17,11.4-18.8,7.2C825.2,1092.1,843,1090,846,1089.6
		L846,1089.6z M937.3,1089.9c-36.8-6.7,5.6-11.3,3.7-2.1C940.5,1090.1,938.6,1090.1,937.3,1089.9L937.3,1089.9z M930.8,1051.2
		c-2.4-23.1,13.5,10.3,1.1,7.3C929.1,1057.8,930.6,1052.7,930.8,1051.2L930.8,1051.2z M804.3,1087.3c17.4,0-7.5,11.3-8.2,3.2
		C795.8,1087,802.4,1087.6,804.3,1087.3L804.3,1087.3z M917,1060.5c1.2-15.9,11.2,5.5,2.2,4.9C916.4,1065.2,916.7,1062.9,917,1060.5
		L917,1060.5z M917.1,1042.7c0.5-7.3,9.5,3.9,3.3,4C917.8,1046.7,917.5,1044.6,917.1,1042.7L917.1,1042.7z M1181.8,1036.8
		c0.4,7.1-9.8,36.3-18.4,30.3c-5.1-3.6,8.4-15.5,12.6-31.3C1177.2,1031.3,1182.3,1028.9,1181.8,1036.8L1181.8,1036.8z
		 M1088.4,1033.3l-30.9,25.1c-2.7,0.7-4.8-3-2.7-4.9c8.8-8.1,19.2-21.5,32.4-22.1C1088,1031.4,1088.9,1031.6,1088.4,1033.3
		L1088.4,1033.3z M1154,1061.4c-1.1,5.2-20.5,29.1-25.9,18.9c-1.6-3.1,12.5-13.4,15.1-16.3C1144.8,1062.1,1153.6,1054.7,1154,1061.4
		L1154,1061.4z M1087.4,1017.7c-3.6,3.2-14.8,6.2-20.9,10.9c-2,1.5-6.9,0.5-5.6-2.8C1062.3,1022.1,1088.4,1009.6,1087.4,1017.7
		L1087.4,1017.7z M1213.7,1078.5c-2.7-0.3-24.5,6.2-17.4-1.3C1206.9,1065.9,1233.1,1077.6,1213.7,1078.5L1213.7,1078.5z
		 M1183.6,1012.6c5.8,0,18.1,16,8.2,17.2c-4.5,0.5-7.4-9-9.8-12.7C1180.5,1014.7,1181.4,1012.6,1183.6,1012.6L1183.6,1012.6z
		 M1121.3,1002.9c14,1.8-13.6,13.2-16.1,7.9C1102.6,1005.3,1118.4,1003.3,1121.3,1002.9L1121.3,1002.9z M1197.4,1039.9
		c-1.1,16.4-16,24.6-5.7-1C1193.3,1034.8,1196.9,1036,1197.4,1039.9L1197.4,1039.9z M1171,1038.9c-3,12.1-16.3,17.2-5.1-2.3
		C1167.8,1033.2,1171.2,1035.2,1171,1038.9L1171,1038.9z M1045.1,1078.3c-9.9,0.1,3.2-16.5,8.4-10.1
		C1056.1,1071.4,1047.5,1077.9,1045.1,1078.3L1045.1,1078.3z M1145.7,1005.5c-21.5-0.2,7.8-12,7.1-2.2
		C1152.5,1006.4,1147.7,1005.5,1145.7,1005.5L1145.7,1005.5z M1058.4,1037.6c0.5,3.9-11.8,13.8-11.6,6.4
		C1046.9,1040.7,1057.4,1031.4,1058.4,1037.6L1058.4,1037.6z M1177.6,1090.3c-19,0,8-11.4,7-1.8
		C1184.2,1091.6,1179.7,1090.4,1177.6,1090.3C1177.6,1090.3,1177.6,1090.3,1177.6,1090.3L1177.6,1090.3z M1120,1070
		c-7.1,15.6-17.1,8.1-2.7-1.5L1120,1070L1120,1070z M1158.9,1091.4c-3.5,4.8-8.5-1.6-0.9-0.8
		C1158.3,1090.6,1158.6,1091.1,1158.9,1091.4L1158.9,1091.4z M1102.4,1071.7c-1,3.5-5.8-2.1-2.4-2
		C1101.3,1069.7,1102.2,1070.3,1102.4,1071.7L1102.4,1071.7z M991.8,1281.7c-23.1,0-17.2-6.3-5.7-7.1c4.7-0.3,42.7-4.9,43.4-0.3
		C1030.4,1280.7,996.1,1281.4,991.8,1281.7L991.8,1281.7z M1066.7,1289.3c-5.5,0-11.8-4.8-3.5-5.9c4.4-0.6,40.8-7.5,41.9-3.1
		C1106.4,1285,1069.3,1289.1,1066.7,1289.3L1066.7,1289.3z M992.6,1258.1c11.9,2.2,1.3,4.1-19.6,12.7c-6.3,2.6-17.7,0.1-10.4-2.9
		C972.4,1264,981.5,1258,992.6,1258.1L992.6,1258.1z M1031.2,1291c-14.8,0.3-22.6-6.7-7.3-6.5c0,0,34.5-3.2,24.5,3.1
		C1043.9,1290.5,1035.9,1290.5,1031.2,1291L1031.2,1291z M1147.2,1273.1c-10.7-3.2,9.1-7,14.7-17.4c2.7-5,7.1-3.1,5.8,2.3
		C1165.8,1265.5,1155.5,1273.4,1147.2,1273.1L1147.2,1273.1z M989.6,1299.5c-20.4-1.4-25.5-9.4-9.1-7.2c3.1,0.4,20.5,0.6,20.5,4.8
		C1001.1,1300.9,992.1,1299.5,989.6,1299.5L989.6,1299.5z M1097.6,1299.3c-18.6-1.8,19.6-15.2,21.8-10.2
		C1122.2,1295.4,1100.7,1298.6,1097.6,1299.3L1097.6,1299.3z M1043.2,1257.8c2.9,0.9,7.9-1.1,8.2,3c0.3,3.9-25.7,8.1-26.7,3
		C1023.6,1257.8,1039.8,1258.2,1043.2,1257.8L1043.2,1257.8z M1045,1249.3c-20.4-0.8,18-15.6,18.5-7
		C1063.9,1247.7,1048.1,1248.5,1045,1249.3L1045,1249.3z M1028.4,1303.8c-11.7-0.3-16.7-6.2-8-6.5c3.4-0.1,19.2-2.9,20.2,1.8
		C1041.4,1303.6,1030.3,1304,1028.4,1303.8L1028.4,1303.8z M1063.4,1303.9c-23.1,0,10.8-14.3,11.8-4.9
		C1075.7,1303.1,1065,1303.7,1063.4,1303.9L1063.4,1303.9z M955.6,1288.9c-16.2-1.7-12.3-15.4,4.4-5.2
		C963.9,1286.1,957.8,1288.9,955.6,1288.9L955.6,1288.9z M1074.1,1238.9c-18.6-2.2,11.1-13.1,11.5-4.5
		C1085.7,1238.5,1076.5,1238.5,1074.1,1238.9L1074.1,1238.9z M1016.4,1257.2c-11.4,0-0.3-9.5,10-6.6
		C1033.7,1252.6,1017.9,1257,1016.4,1257.2L1016.4,1257.2z M806.1,1280.6c4.3-0.4,45.1,0.7,43.5,7.8c-0.7,3.1-8.3,2-10.5,1.5
		c-13.9-3.2-59.3-1.6-59.5-4.8C779.4,1280.5,802.7,1280.8,806.1,1280.6L806.1,1280.6z M885.7,1300.7c5.4,0.3,40.9,8.7,40.4,13.5
		C925.1,1323.9,857,1300.7,885.7,1300.7L885.7,1300.7z M903.7,1293.4c32.3,4.2,37.2,22.4,24.2,15.7
		C922.5,1306.4,881.9,1294.9,903.7,1293.4L903.7,1293.4z M874.9,1316.9c-3.9-0.4-23,0.4-23.2-5.2c-0.5-11.5,45.1,3.3,24.7,5.4
		c-0.5,0.1-1,0-1.5,0C874.9,1317.1,874.9,1317,874.9,1316.9L874.9,1316.9z M826.1,1305.6c19.6,0.3,16.5,7.6,11.5,7.3
		c-3.8-0.2-25.5,1-26.3-3.6C810.6,1304.7,823.8,1305.7,826.1,1305.6L826.1,1305.6z M859.2,1303.9c-36-5.5,11.4-14.6,7.2-2.2
		C865.4,1304.5,862.8,1304,859.2,1303.9L859.2,1303.9z M874.1,1285.7c11.3,1.5,21.2,11.7,10.6,10.7
		C876.3,1295.5,858.7,1286,874.1,1285.7L874.1,1285.7z M815.5,1292.3c16.5-0.3,10.4,9.6-5.4,4.2
		C802.3,1293.8,813.5,1292.3,815.5,1292.3L815.5,1292.3z M727.6,1129.2c-44.8-3.3-40.1-17.9-32.6-14.1c16,8,53.4,9.8,42.3,12.8
		C734.1,1128.8,730.9,1129.3,727.6,1129.2L727.6,1129.2z M760.6,1134.6c57.5,0-11,11-23.6,6.9c-7.6-2.5,5.2-5.4,7.8-5.4
		c5.3,0,10.5,0,15.8,0C760.6,1135.5,760.6,1135.1,760.6,1134.6L760.6,1134.6z M709.7,1140.3c-28.9-2.9-21.7-9.9-16-9.1
		c3.8,0.6,25.5,1.1,24.6,6.9C717.8,1141.3,712.7,1140.3,709.7,1140.3L709.7,1140.3z M818.1,1126.9c19.5,0-17.7,16-19.4,6.6
		C797.5,1127,814.4,1127.4,818.1,1126.9L818.1,1126.9z M736.2,1090.6c13.7-0.6,1.8,9.8-9.5,5.8
		C717.8,1093.3,735.2,1090.7,736.2,1090.6L736.2,1090.6z M753.8,1098.1c12.3,0,7.1,9-2.4,7.4
		C744.3,1104.3,748.4,1098.1,753.8,1098.1L753.8,1098.1z M677.3,1104.7c-13.1-3.8,10.1-22.7,4.1-4.9
		C680.7,1101.7,680.5,1104.3,677.3,1104.7L677.3,1104.7z M683.1,1129c-13.6,1.1-5.5-23.4,2.2-3.5
		C686.2,1127.9,684.3,1128.5,683.1,1129L683.1,1129z M807.5,1122.6c-9.8,0.2-0.1-10.6,7.3-5.7C819.6,1120,808.6,1122.4,807.5,1122.6
		L807.5,1122.6z M705.9,1110.5c-19.6-2.5,6.8-12.2,4.4-2.1C709.8,1110.6,707.7,1110.3,705.9,1110.5L705.9,1110.5z M696.9,1095.3
		c-19-3.4,7.1-11.3,4.3-2C700.6,1095.4,698.7,1095.4,696.9,1095.3L696.9,1095.3z M767.9,1113.1c-9.2-0.4-2.7-9.7,5.1-4.3
		C776.5,1111.2,769.4,1113.1,767.9,1113.1L767.9,1113.1z M709.8,1090.4c10.2,0.6-2.4,10.3-3.1,2.4
		C706.5,1090.7,708.3,1090.6,709.8,1090.4L709.8,1090.4z M794.3,1115.2c-10.8-1.1,3.7-8.9,3.7-2.5
		C798,1115,795.6,1114.8,794.3,1115.2L794.3,1115.2z M688.3,1100.3c8-0.8-1.2,9.2-1.8,2.4C686.3,1101.2,687.4,1100.7,688.3,1100.3
		L688.3,1100.3z M913.1,1189.3c10.7,0,12.5,4.8,2.5,5c-3.5,0.1-22.9,4.8-24.3,1.9C888.8,1190.9,911.4,1189.4,913.1,1189.3
		L913.1,1189.3z M940.2,1178.1c-18.9,0.1,7.1-11.9,6.7-2.7C946.9,1178.8,942.5,1178.1,940.2,1178.1L940.2,1178.1z M941.3,1187.6
		c16.3,2-8.2,10.6-7.2,2.1C934.4,1187.1,939.1,1187.6,941.3,1187.6L941.3,1187.6z M923.2,1184c-19.1,0,5.1-9.7,6.1-3
		C929.7,1184.3,924.8,1183.9,923.2,1184L923.2,1184z M948.5,1185.1c-10.7-1.9,2.6-8.5,2.8-2.6
		C951.4,1184.6,949.5,1184.5,948.5,1185.1L948.5,1185.1z M276.1,1147.7c6.6,0,10,3.1,1.7,4.8c-3.1,0.6-22.7,7.9-24,2.5
		C252.5,1149.7,272.8,1147.7,276.1,1147.7L276.1,1147.7z M1402.1,889c13.7,0.6-15,13.2-16.5,7.3
		C1384.4,891.6,1399.6,889.4,1402.1,889L1402.1,889z M1422.2,887.6c11.6,1.5,17.7,10.2-1,5C1416.6,891.3,1417.8,888,1422.2,887.6
		L1422.2,887.6z M1429.5,901.9c-4.2,5.1-15.3-1.7-11-3.5C1422.3,896.8,1428.4,898.6,1429.5,901.9L1429.5,901.9z M1361.8,867.8
		c16.5,1.1,19.6,13.2-4.9,8.1C1347.9,874.1,1350.5,867.8,1361.8,867.8L1361.8,867.8z M646.6,1300.6c-17-0.2-8.1-12,5.5-7.3
		C659.7,1295.9,652.6,1300.6,646.6,1300.6L646.6,1300.6z M1335,922.5c23.8,5.7,25,16.3,19.1,12.2
		C1350.4,932.2,1323.2,922.2,1335,922.5L1335,922.5z M285.7,1081.1c-17.9,0.6-35.1,3.5-46.4-13.2c-1.6-2.3,1.9-5.8,3.8-3.8
		c15.4,15.5,68.4,8,66.3,15.8C308.5,1083.1,288.9,1081.1,285.7,1081.1L285.7,1081.1z M266.8,1066.4c-23.8-2.1-21.7-19.5-9.7-11.7
		c3.1,2.1,16.1,4.1,15.6,8.7C272.2,1066.9,269.2,1066.3,266.8,1066.4L266.8,1066.4z M279.3,1023.2c-28.1,2.2-2.4-11.2,18.1-4.3
		c3.4,1.2,2.9,5.1-0.8,4.9l-17.2-0.9C279.3,1023,279.3,1023.1,279.3,1023.2L279.3,1023.2z M270.4,1050.4c-24.6-3.7-12.1-12,7.1-4.7
		C282.5,1047.5,272.3,1050.4,270.4,1050.4L270.4,1050.4z M419.3,1056c-6.2,0-10.2-4.8-2.3-6.1C443.1,1045.7,437,1054.8,419.3,1056
		L419.3,1056z M292.9,1061.4c26.6,1.3-11.9,13.8-9.9,2.9c0.7-4,7-2.5,9.9-2.5C292.9,1061.6,292.9,1061.5,292.9,1061.4L292.9,1061.4z
		 M382.5,1060.3c-20.1-0.9,9.9-13,10.6-4.3C393.4,1060.3,385.1,1060,382.5,1060.3L382.5,1060.3z M329.2,1064.6c-17-1,5.5-11.6,5.7-3
		C335,1064.8,331.4,1064.3,329.2,1064.6L329.2,1064.6z M243.3,1039.3c-11.3-0.5,3.7-13.4,3.8-3.7
		C247.2,1037.9,245.5,1039,243.3,1039.3L243.3,1039.3z M390.9,995.8c14,0.7-8.7,8.5-13.3,13.6C371.3,1016.3,367.1,996.9,390.9,995.8
		L390.9,995.8z M451,974c5.9-0.1,14.2,5.5,7.7,5.8c-4.1,0.2-19.2,3.9-20.7,0.6C435.4,974.6,448.2,974,451,974L451,974z M425.2,984.1
		c10.2,1.6-9.3,9.1-11.3,10.9C408,1000.6,405.1,983.9,425.2,984.1L425.2,984.1z M373.8,1090.8c-19.4,0,10.1-13.5,12.6-6.9
		C388.9,1090.2,376.3,1090.4,373.8,1090.8L373.8,1090.8z M346.3,1084.6c8,0.3-4.3,7.7-3.8,2.4
		C342.7,1084.8,344.7,1084.7,346.3,1084.6L346.3,1084.6z M757.6,880c-2.5,7.4-17.8,8.2-11.6,2.1C747.8,880.4,756.9,874.2,757.6,880
		L757.6,880z M535.3,1119.1c46.1,2,54,28,40.7,21c-36.4-19.1-27.5-9.9-42-15.4C532.8,1124.3,527.5,1119.4,535.3,1119.1L535.3,1119.1
		z M503.7,1127.1c-15.5,0.3-12.3-9.5,8.3-7.5c4.3,0.4,3.6,5.7-0.1,6.5C509.3,1126.7,506.5,1126.8,503.7,1127.1L503.7,1127.1z
		 M516.2,1098.4c14,0.5,7.3,9.9-6.9,4.7C504.9,1101.5,513,1098.3,516.2,1098.4L516.2,1098.4z M509.6,1114.4
		c-9.5,0.6-1.4-10.4,5.3-5.1C518.4,1112,512.9,1114.4,509.6,1114.4L509.6,1114.4z M557.1,1232.6c1.4-11.3,10.3-11.9,8.2-7.1
		c-1.4,3.1-0.6,12.5-5.8,11.7C556.8,1236.8,557.3,1234.3,557.1,1232.6L557.1,1232.6z M574.4,1222.6c9.5,0.8-3.9,17.7-4.4,7.1
		C569.9,1226.7,572.2,1222.9,574.4,1222.6L574.4,1222.6z"/>
</g>
</svg>
