<svg id="Calque_1" data-name="Calque 1" xmlns="http://www.w3.org/2000/svg" viewBox="0 0 2000 2000"><defs><style>.cls-1{fill:#428630;}.cls-2{opacity:0.8;}.cls-3{fill:#428630;}</style></defs><path class="cls-1" d="M1946.46,929.32c-9.27-200.21-79.64-367.93-235.27-560.83-69-85.47-141.87-148.57-216.63-187.55-17.92-9.34-37.85-22.38-58.94-36.18-33.89-22.19-68.92-45.14-94.9-51.84-6.7-1.73-14.83-3.71-24-6-24.48-6-58-14.2-90.43-23.94C1168.06,41,1104.92,37.61,990.07,37.61l-21.29,0c-169.95.46-219.41,2.81-340.64,56.53-152.34,67-267.95,153.61-343.67,257.31l-1.13,1.32C237.13,399,160,547.88,130.87,613.62,94.59,696.51,66.75,824.46,58.21,947.5,33.11,1231,104,1442.41,295.28,1654.8c82.61,91.83,217.21,194.25,300,228.32,110.82,45.59,236.27,89.17,440.94,77.46a1394.88,1394.88,0,0,0,263.86-41c162.26-47.9,350.86-206.87,439.23-332.83l1.26-1.49c28.2-28.22,77.94-121.84,107.65-177.77,8-15,14.87-28,20-37.29C1930.51,1243.48,1956.66,1149.57,1946.46,929.32Zm-21.58,109.87c-6,224.25-111,447.93-295.53,629.78-169.85,167.65-367.59,254.84-587.68,259.15-5.42.1-10.85.15-16.32.15-132.25,0-276.77-31.22-453-97.72l-2.25-1.15c-22.93-15.25-44.87-28.54-66.07-41.4-76.56-46.42-142.68-86.51-210.7-189.26C120.24,1337.31,60.63,1121.38,94,876.72,133.43,587.61,249.1,380.38,437.78,260.8,644.66,129.68,893,57.07,1070.64,76c237.13,25.16,439.24,118.06,569.1,261.57C1828.31,546,1932.23,801.73,1924.88,1039.19Z"/><g class="cls-2"><path class="cls-3" d="M1466.58,577.49c-.56-.14-.48-.11,0,0Z"/><path class="cls-3" d="M1085,1345.38c4.75-.38,3.1-2.3-2.75-36.09-7.52-43-7.51-42.77-11.1-42.46-5.48.44-2.29,3.21,4.42,42.43C1081.25,1342.2,1080.73,1345.74,1085,1345.38Z"/><path class="cls-3" d="M1105,1098.13c3.91-1.41,1.65-5.3-1-14.88-11.14-40.63-10.27-43.37-15-41.66-4,1.44-2.8,1.83,8.67,43.79C1100.14,1094.48,1100.65,1099.68,1105,1098.13Z"/><path class="cls-3" d="M1138.62,1116.31c.2,1,.28,1.29,0,0Z"/><path class="cls-3" d="M1139.53,995.15c1.53-1.87.64-1.47-2.88-20-.9-4.88-7.36-3.26-6.65.57C1131.84,985.37,1133.58,1002.33,1139.53,995.15Z"/><path class="cls-3" d="M1160.76,997.46c0,.14,0-.07.06.26C1160.74,997.38,1160.7,997.15,1160.76,997.46Z"/><path class="cls-3" d="M1157.34,981.85c0-.1,0-.12,0,0Z"/><path class="cls-3" d="M1150.77,982.76v0C1150.73,982.59,1150.74,982.62,1150.77,982.76Z"/><path class="cls-3" d="M1157.39,982.09a0,0,0,0,0,0,0,.09.09,0,0,1,0,.05Z"/><path class="cls-3" d="M1157.19,981.18h0C1157.25,981.47,1157.26,981.5,1157.19,981.18Z"/><path class="cls-3" d="M1157.47,982.44c.1.45-.11-.51,0,0Z"/><path class="cls-3" d="M1157.57,982.9c-.09-.4-.08-.34,0,0Z"/><path class="cls-3" d="M1157.29,981.61c0,.25-.09-.22,0,0S1157.29,981.27,1157.29,981.61Z"/><path class="cls-3" d="M1194.45,928.62a3.37,3.37,0,0,0,2-4.32c-7-24.65-6.82-28.51-11.36-26.89-3.82,1.37-2.21,3.86,3.07,22.59C1189.5,924.59,1190.17,930.16,1194.45,928.62Z"/><path class="cls-3" d="M1200.09,873.48a.56.56,0,0,1,0-.07Z"/><path class="cls-3" d="M1319.69,774.11c.29,4.28,7,4,6.68-.57-.26-3.95,1.65-23.19,2.57-33.66.45-4.92-6.23-5-6.57-1.14C1322.62,738.75,1319.32,768.56,1319.69,774.11Z"/><path class="cls-3" d="M1028.79,1151.47l0,.16C1028.88,1151.87,1028.84,1151.71,1028.79,1151.47Z"/><path class="cls-3" d="M1019.07,1090.37c-.19-6,.85-11.27-3.77-10.88-11.22,1,10.87,91.31,14.88,111.84,1,5.07,7.47,3.19,6.75-.59C1029.12,1150.71,1019.78,1115.76,1019.07,1090.37Zm4.66,37.6Z"/><path class="cls-3" d="M1017.48,1060.11c1.84,2.6,5.86,1.31,6.09-1.38,1.77-19.6,3.7-22.87-.65-23.63-2.85-.5-4.29,2.75-3.91,2.76C1016.51,1059.83,1016.64,1058.91,1017.48,1060.11Z"/><path class="cls-3" d="M1042.14,1211.13c-7.06-.05-1.15,9.27,2.88,19,1.83,4.45,8,1.55,6.4-2.3C1045.09,1212.59,1045,1211.15,1042.14,1211.13Z"/><path class="cls-3" d="M1065.45,937c-2.81-.49-4.19,2.73-3.88,2.73-1.89,10.15-4.13,22.59-3.7,28.78.32,4.33,7.05,4,6.72-.58C1063.71,955.2,1071.85,938,1065.45,937Z"/><path class="cls-3" d="M1074.5,934.78c6.85,1.17,4.1-16,3.93-16.28a3.4,3.4,0,0,0-4.72-.82c-1.92,1.37-1.21,1.75-2,13.19A3.39,3.39,0,0,0,1074.5,934.78Z"/><path class="cls-3" d="M1239.14,748.31c3.86-.34,2.54-3.61,4.43-11.79,1.23-5.28,4.76-13-.84-13.08C1238.18,723.41,1231.58,748.94,1239.14,748.31Zm3.12-4.47c0,.45,0,.4,0,0Z"/><path class="cls-3" d="M1254.64,732.88c1.09-9.61,8.76-19,1.31-19-4.55,0-7.81,16.12-8,17.89C1247.37,736.57,1254.16,736.94,1254.64,732.88Z"/><path class="cls-3" d="M1270.06,712.34c4.91,2.23,10.57-11.48,3.72-11.53C1270,700.78,1265.83,710.41,1270.06,712.34Z"/><path class="cls-3" d="M1406.66,976c.72-.53.57-.43,0,0Z"/><path class="cls-3" d="M1406.66,976l0,0C1406.4,976.17,1406.44,976.14,1406.66,976Z"/><path class="cls-3" d="M1416,960.58Z"/><path class="cls-3" d="M1394.09,995.54Z"/><path class="cls-3" d="M1270.87,1178.05Z"/><path class="cls-3" d="M1252.72,1117.06c0,4.08,6.16,4.12,6.19,0S1252.75,1113,1252.72,1117.06Z"/><path class="cls-3" d="M1474.28,655.54c-.18.42-.14.34,0,0Z"/><path class="cls-3" d="M1485.73,610.91c-4.87-1.38-4,5.42-7.08,17.26-3.44,13.35-12.68,27-11.85,30C1471,674.15,1494.11,613.26,1485.73,610.91Zm-18,43.43c-.16.36-.14.3,0,0Z"/><path class="cls-3" d="M1477.32,676.7c6.91,4.12,23.92-43.81,23.71-44.59a3.36,3.36,0,0,0-4-2.34c-2.81.73-2.88,3.73-10.37,21.81C1477.48,671.81,1473,674.15,1477.32,676.7Z"/><path class="cls-3" d="M1203.27,1186.54c4-2.68-.07-7.88-3.29-5.72,3,0-33.39,18.68-30.18,24.29C1172.22,1209.32,1173.12,1206.9,1203.27,1186.54Z"/><path class="cls-3" d="M1202.24,1193.5c-51.12,32.79-52.09,31.7-49.78,35.64,2.17,3.78,1.78,2.86,43.45-23.78,7.24-4.61,13-6.82,10.82-10.64A3.3,3.3,0,0,0,1202.24,1193.5Z"/><path class="cls-3" d="M1316.32,1154.56h0C1316.09,1154.72,1316.07,1154.73,1316.32,1154.56Z"/><path class="cls-3" d="M1530.24,610.93c-15.14-36.41-47.4-47-72.91-59.53-3.87-1.9-7.36.24-9.15,2-8.76,2-19.72,7.78-27,13.08-35.11,13-62.78,48.19-96.12,71-30,20.49-109.68,65.09-183.13,142.32-108.68,114.71-152.5,256.85-153.15,325.35-.38,40.22,13.27,62.26,26.19,120.84-.05-.25.52,12.33,19.22,55.24,43.11,98.75,4.52,159.25,39.61,236.32,4.29,9.52,11.87,11,17.18,6.66,7.61-5.75,1.54-11.08-1.35-19.2,6.74-4.89-.18-22-2.58-55.23-10.6-143.75,423.26-286.51,461.5-721.09C1550.17,725.71,1557.87,677.62,1530.24,610.93Zm-15.88,117c-4.53-.14-38.73,37.78-60,56.29,6-6.87,69.4-79,60.67-81.92a223.29,223.29,0,0,0,16.91-20C1534.83,708.44,1534.91,705.82,1514.36,727.91Zm-57.34-150c1.43.06,1.28.07,0,0ZM1079.34,887.8c-.82,1.31-.92,1.45,0,0Zm-64.88,335.9Zm15.39-16.52c-12.09-49.41-30.63-82.21-20.12-136.61,54.77-278.79,283.89-387,331-422.64,49.39-37.09,92.64-100.49,156.12-55.52-1.12,23.15-14.11,33.11-6.73,35.52,6.33,2.08,12.41-23.54,13-30.17a61,61,0,0,1,12.67,20.3c-15.7,38.25-30.22,47.3-22,50.06-8,15.42-15.91,21.28-10.83,24.29,3.79,2.25,5.62-2.77,10.39-10.43,3.88-6.15,15.29-25.05,14.08-31.76,15-26.19,10.08-29.31,16.31-5.65-29,57.8-49.32,61.93-43.43,67.9,3.38,3.4,5.72-1,14.83-11.85,11.41-13.51,3.59.6,13.23-14.49,22.38-35,17.07-35,19.17-27.36,2.78,10.1,8.26,11.64-21.19,42.91,15.09-22.35-.83-13.69,1.43-13.67-32.24,48.93-88.77,98.19-83.42,103.62,3.57,3.61,3.17,1.1,35.48-34.25,11.07-12.11,19.92-22.19,27-30.58,2.84,2.51,5.67-1.2,14.11-9.87-48.71,69.05-95.76,99.91-89.58,106.18,3.4,3.45,21.07-14.17,40.35-35.87-.46,2,1.6,6.79,7.36,1.77-2.11,3.2,2.43,7,5.18,4.14.24-.25,68.33-75.45,68.53-75.7-1.39,25.31.77,20.12-23.14,42.35a3.25,3.25,0,0,0-.87-3c-4.11-4.13-7,3.11-25.65,24-48.48,39.16-48,36.84-45.72,40.44,2.78,4.32,4.34,1.35,36.24-24.12a3.18,3.18,0,0,0,4.2-.19c24-20.37,40.33-35.12,51.25-45.78-4.78,30.31-1.65,22.89-25.38,40.85.18-1.88-2-4.25-2.29-4.49-3.1-2.85-2.21-1.42-43.56,32.7,17.62-16.6-2.32-11.44,1.79-11.41-15,15.06-23.44,21.41-17.27,24.11-21.27,17.38-20.22,16.33-18.62,18.83,2.16,3.38,3,3.46,29.65-18.9a2,2,0,0,0,2.3,1.89c-54.36,55.3-67.31,55.45-61.83,61,2.42,2.44,13.17-5.72,27-18.36,3.61-1.77,11.76-7.94,32.25-23.86-29.38,30.83-49.94,43.25-69.8,63.94-3.16,3.33,1.79,7.73,4.66,4.72,1.76-1.86,27.17-23.93,51.74-46.84,3.79,8,24.33-15.15,1.46,7.77-32.6,28.13-49.79,35-46.6,40,2.19,3.45,14.81-5.15,28.86-16.42,4.73,0,15.35-5.52,19.54-7.74,1.61,6.83,11.64-4,16.28-9.28,51.61-31,49.49-43.25,39.38-13.34-4.11,1.07,7.26-1.83-29.36,23.55.51-1.34.42-2.13-1.21-2.69,3.48-3.61,3.51-5.68-1.26-5.71-.94,0,5.31-4.39-58.7,39.28-1-1.13-2.81-1.58-4.74-.08,3.19,0-40.83,27.35-35.24,33,2.93,3,.8,1.36,39.7-24.41-2,1.89-4.47,9.68,12.25.18-58.43,43.69,5.22-1-56.22,43.18-3.88,2.8.34,8,3.59,5.62,95.39-68.9,91.7-64.59,89.35-68.27-4.11-6.36-23,15-27.93,14.18,6-3.74,50.72-32.49,65-44.22-10,27.29-5.37,24.65-45.57,51.52,15.72-15.67.16-9.6,1.34-9.59-47.37,45.59-87.56,65.19-135.86,93.15-3.82,2.22-.45,8,3.32,5.76,74.8-43.58,47.43-27.22,33.91-17.4-3.9,2.79.34,7.94,3.59,5.62,25.07-17.92,53.89-35.25,72-47.41-24,18.3-37.62,26-34.57,29.4-8.06,4.72-13.77,8.06-16.91,10.66a3.39,3.39,0,0,0-4.4-1c-16.4,10.63-16.57,11.45-16.58,13.29,0,7.86,11-1.25,18.72-6.69,1.52,2.72,3.59,2.17,33.43-16.78-82.31,59.6-97,57.21-90.72,63.8-29.57,16.46-45.27,21.57-46.13,24.59-3.4,11.82,39.14-11.29,79.22-37,3.61.06,10.93-2.74,19.72-6.9-59.27,42-78.75,49-74.21,53.56-20.72,13.18-22.79,12.72-21.32,16.38-5.46,2.48-5.63,2.49-7.32,3.44-3.8,2.15-.56,8,3.36,5.83,10.39-5.88,21.56-7.25,17-12.6,39.63-24.71,8.94-7.37,25.09-13.34,15.32-5.84,15-6.89,8.71-2.22-56.5,34.52-66.71,36.88-58.91,41.1l-16,10.51c-4,2.67,0,8,3.33,5.79,36.47-24.09,29.83-19.71,30.25-17.78.65,3-51.36,25.68-36.81,29.09.45.11,4.71-2.08-28.67,18.65-3.92,2.44-.2,7.92,3.3,5.73q8.55-5.33,16.11-10.09c-1.31,8.54,10.3,1.28,24-5.21-57.59,43-66.74,42.67-66.29,42.67-62.53,45.23-62.48,43.07-60.28,46.9,3.65,6.5,8.52-5.38,80.85-50.16,6.23-1.95,14.89-5.31,24.75-9.5-43,29.05-37.09,25.19-48.86,30.17-20.63,8.69-25,8.72-22.75,13.17.29.56,2,.43,4.8-.25-30.07,23-43.22,26-38.08,31.26,1.58,1.62,10.58-3.76,20.32-10.41,4.73-.33,10.75-2.48,15.84-4.12-14,9.25-48.41,32.49-53.69,36.45,2.77-15.49,6.08-35,10.56-61C1155.5,1049.68,1293.22,918,1376.61,791c92.88-141.15,98.61-211.19,75.91-188.27.13,0-2.48,13.15-9.81,34.36,1.66-22,1.4-21,.71-22-9.71-13.87-4.7,34.07-12.13,51.47-1.63-36,3.75-40.53-1.84-41.52-2.82-.48-4.19,2.69-3.82,2.69-4.08,41.54.26,46.12,3.3,44.24-13.28,30-5.82,22.23-8.6-22.29-.79-13.33,0-18.33-4.51-17.94-7.49.65,1.8,25.81-1.68,54.46-2.77,23.52,10.92-2.74-7.81,30.42,5.83-76.73-5.84-74.07-5.25-74.06-7.07.59,1,16.83-.42,55.88-1.25,26.64-2.41,29.64-1.82,31.21-8.31,14.15-6.9,11.87-7,10.14-2.48-75.53-9.54-65.41-9.29-65.4-7.52.63,3.05,21.32,2.68,69-.71,11.8,9.45-5.44-10.47,25,.27-12.63-.11-32.69-.22-41.08-.08-7.38,1.14-14.63-3.78-14.22-6.49.6-.59,10.63-2.73,59.65a2.88,2.88,0,0,0,2,2.78c-13.24,19.84-9.4,18.33-9.14-1.2,2.5,1.59,7.5-2,3.78-5.08a2.75,2.75,0,0,0-3.75-.07c-.09-79.51-9.37-69.31-7.13-69.29-8.18.68,5.35,51.52-1,100.67-12.16,17.16-10,15.24-9.48,9.82,4.91-16.43,9.33-32.12,8.64-33.1-2.44-3.43-4.15-2.49-6.65,4,1.64-37,.33-76-5-75.58-10.09.86,9.53,61.08-10.45,126.35-12.53,16.81-10.58,16-7.5,4.25,3.78-.06,3.67-3.51,4.63-16.76,4.66-16.18,7-23.56,2.65-24.32-2.74-.48-3.09,1.36-4,4a1.87,1.87,0,0,0-3.21-.33c-3.66,2.59,1.94,2.37-7,38.31-.52-9.94-1.9-21.77-2.88-30.78-1.13-10.45-.51-16.92-5.13-16.52-7.89.68,4.75,40.17,1.13,61.2-1.43,8.55,10.86-5.35-8.34,20.17,6.07-44.88,6.53-49,1.93-49-4,0-3.39,3.69-4.43,12.8-1.8-26.28-5.79-53.59-10.06-53.24-6.58.6-.23,4.18,3.41,55.6.82,11.29,1.38,38.62.4,45.58-11.29,15.15-7.3,14.75-8-8.11,4.18-39,5.85-40.25,1.48-41a3.61,3.61,0,0,0-3.79,2.19c-3.78-46.13-3.27-47.31-7.51-46.93-7.61.63,3.43,45,3.72,80.25-5.34,46.52-.41,33-15,53.1,16.31-101.37,3.43-73.8,3.67-73.8-3.63,24.72-.47-29.22-9.08-28.48-4.63.4-3.37,2.37,1.69,40.9.67,5.26.81,7.69,4.33,8.34-8.73,59-2.09,26.65-7.91,25.64-3.31-.57-2.94,6.34.11-28.9.45-4.87-6.23-5-6.57-1.14.8,0-1.68,20.51-4,42.62-.72-6.88-1.59-14.88-2.61-24.26a3.39,3.39,0,0,0-3.62-3.05c-6.18.53-1.14,6.78,1.93,55.25,1.25,19.59,3.19,12.94-8.18,29.16.27-11-.59-26-1.89-41.24,2-16,2.91-18.17-.89-18.83-2.32-.4.78,4.29-5.82-39.22a3.32,3.32,0,0,0-3.6-3c-4.76.39-2.85.64,2.55,48.29,2.72,24.07-5.23,52-3.7,73.31-2.36,3.45.39-54.24-13.16-115.9-.67-3-4.69-2-4.31-2-5.3,1.91,8,46.68,9.52,97.52-5.35,19-3.86,37.79-11.58,49.73.31-2.86.65-6,1-9.61,6.86.19.9-8.66,2.94-28.86a3.27,3.27,0,0,0-3.27-3.85c-2.2-13.72-5.06-27.06-7.78-26.83-5,.42.5,24.21,3.37,43-1.56,11.62-4,28.21-4.49,39-9.3,14.79-7.59,15.1-6.06,2.09,6.85,3.11,4.27-18.33,3.4-26.29,1.42-10.3,4.17-22.31-2.59-19.36-1.71-11.21-3.47-20.78-3.94-23.44-.66-3.78-4.57-3-3.63-3-9,.76,6.37,21.51,1.24,63.11-4.44-36.11-14.47-85.14-19.38-85.17-7.41-.05,1.87,16.64,9.38,61.87-6.61-2.29-4.68,8.27-5.08,30.8-10.64-75.48-14.65-67.66-19.93-112.36a3.38,3.38,0,0,0-3.61-3c-8.54.73,13.48,89.26,13.34,87.54.3,1.46-2.39.61-2.62,3.46.17,0-3.2,48.76-2.84,79.48-4.35-25.54,3.06-50.42-4.7-49.79-2.43.23-3.4,1.29-3.66,12-1.86-5.63-3.77-9.3-5.6-9.31-9.56-.06,5.3,11.76,6,62-4.26-17.08-11-42.45-21.09-79.88-.78-2.88-4.62-2-4.23-2-4.29,1.56-2.44,1.73,11.33,53.59-2.83.72-1.4,4.26,1.2,30.65,1.08,11.22,2.17,1.67-25.46-79.84-1-3-4.7-2-4.23-2-8.58,3.13,28.44,70.49,31.5,136-2,6.51.65,5.79-8.11-18-1.37-39.18-7.06-33.49-6.09-33.49-3.83.33-3.12,3.68-2,17.21a2.26,2.26,0,0,0-1.39-.71c-5.16,0-3.81,1.94,2.6,19.31.76,17.35.49,32,0,48.35-23.56-114.14-33.14-95.65-29.83-95.63-6.63,2.39,5.81,17.5,19.66,79.65-2.53.36-2.84,2.31-2.45,14.5-19-60.93-23.16-51-22.16-51-6.28,2.28,2.29,7.38,19.06,63.54,2.46,8.18,3.92-16.62,4.71,49.52-5.12-23.51-6.18-23.24-8.45-23.25-6.49,0-2.06,6.5,5.62,41.87,1.85,9.08,5.11-8.76-.58,21.18-19.22-108.65-24.65-94-24.4-94-6,2.16,1.24,1.16,18.78,100.92,2.44,13.72,2.89,8.53-1.07,27.49-.48-25-23.53-110-25.67-118.34-.73-2.9-4.48-2-4.23-2-7,2.56,14.46,52.32,23.69,118.69.14,1,.33,10.75,4.75,8.41a574.27,574.27,0,0,1-15.82,57.45C1076.26,1305.22,1048.93,1285.56,1029.85,1207.18Zm485.57-390.62c-1.19,5.24-45.69,34.84-46.2,35.47-40.31,27.78-1.37,1.14,14.64-22.51l7.32-5.68a3.34,3.34,0,0,0-1.81-6.16c-1.53,0-2.18.83-5.23,3.19-3-.53-2.88.29-7.25,5.61-27.31,21.1-24,20.23,2.69-7.89,10.37-7.72,25.48-19,42.85-33.07C1520.11,796.22,1517.68,806.63,1515.42,816.56Zm-7.55,29.68c-9.55,10.25-23.57,19.49-38.22,29-.29-2.64-4.08-4-5.71-1.93-3.66,4.66-6.79,8.34-9.46,11.36-37.84,22.46,25.63-20.28,19.59-27.41C1518.63,827,1514.57,822.39,1507.87,846.24ZM1480,844.83Zm-11.46,104.39c-.38.15-14.31,11.95-39.19,28.56,12.15-9.25,14.88-11,11.89-14a3,3,0,0,0-2.64-.89c10.88-8.76,2.91-9,1.13-7.92C1485.46,925.79,1484.46,916.62,1468.49,949.22Zm-147.48,202a406.32,406.32,0,0,1-38.25,23.19c-.7-1.85-2.92-3.23-5.46-1.29,1.11,0-5.5,8.63-40.45,22.3,16.54-11.66,34.13-24.78,50.16-36.94C1350.79,1125.53,1366.66,1104.22,1321,1151.22Zm-8.94,6.25Zm4.53-3.09c-1,.72-1.23.82-.18.12Zm26.74-36.3c.12,0-7.08,5.11-22.21,14,2-2.17,1.65-3.18.33-4.53-2.36-2.35-16.43,8.61-37.17,24.69-95.74,49.4-7.84,2,20.86-23.07,69.54-31.51,96.17-65.41,42.61-6.38C1349.48,1120,1346.16,1116.31,1343.34,1118.08Zm-57.72,11.82Zm.57-.2Zm91.39-48.47Zm.26-.17Zm12.82-9c-22.38,15.63-59.29,40.2-30.26,18.51,1.88-1.42,2-3.19,1.24-4.61-4.35-7.48-12.52,10-61.47,37.88-41,17,5.85-2.55,2-9.25,5.07,0,59.19-39.85,59.48-40.07C1416.24,1044.15,1433.75,1017,1390.66,1072Zm24.21-40.65c2.14,0-47.53,34.65-86.31,52.17,59.7-40.35,56.87-39.7,56-42.28,13.3-9.74,12.88-9.83,12.65-11.64,16.35-9.2,27.93-16.1,40.4-24.7C1410.57,1048.73,1424,1024.44,1414.87,1031.39Zm-35.4-.31c27.06-19,43.85-35.68,44.06-36.57,3.24-13.65-18.13,12.13,37.73-31C1448.93,987.13,1452,995,1379.47,1031.08ZM1406.62,976c10.09-7.75-.66,0,26-16.59C1403.06,978.44,1395.16,984.59,1406.62,976Zm16.61-47c33-21.7,28.69-19.49,19.94-12.22C1435.84,921.33,1429,925.48,1423.23,929Zm-202.3,297.36c-30.46,21.53-32.64,23.76-55.7,30.79C1183.32,1243.79,1200.43,1235.4,1220.93,1226.35Zm-110.68,9.07c-1.72-73-.8-31.37,3.47-17.3Q1112,1226.54,1110.25,1235.42Zm11.82-77.5c1.06,3.16,1.44,6.12,4.75,5.58C1119.59,1188.71,1121.89,1191.78,1122.07,1157.92Zm35.21-140.13c7.88,60.62,6.22,55.18-1.31,70.45C1156.34,1072.16,1155.63,1046.72,1157.28,1017.79Zm12,45.16c-.7-5.67,1.8-36.34,2.35-53.4C1178.26,1057.49,1176.6,1049.81,1169.28,1063Zm-33.44,72.48c-1-42.55-4.07-53.87,4.32-11.49C1138.65,1127.78,1137.22,1131.61,1135.84,1135.43Zm76.34-141.75c.1.06.16,0-.06.33Zm37.94-67.57c4.78,3.66,5.42-6.69,3.25,8.92C1247,943.85,1248.39,945.46,1250.12,926.11Zm-95.91,72.31v0C1154.29,998.83,1154.28,998.76,1154.21,998.42Zm.1.46v0S1154.25,998.61,1154.31,998.88Zm-1-34Zm-2.4,18.49c.25,0,.32,1.39,0,0Zm-.14-.65c.08.36,0,.06-.06-.26Zm-50,280.74c.08.37.06.31,0,0Zm52.32,47.56a3.32,3.32,0,0,0-3-4.58c-1.15,0-2.59.94-2.32,1-28.79,24.74-30.5,26.32-27.63,29.26,3.43,3.44,4.49-.56,30.29-22.91-90.2,92.49-62.59,124.73-38.13-11.09,2.11,4.39,5.81.6,13.25-4.23,0,6.86,7.72,1.44,10.44-.09-19.77,14.53-24.45,15.81-25.15,18.3a3.34,3.34,0,0,0,4.86,3.79c27.29-18.42,82.78-51.76,79.13-58.85-3.28-6.43-64.69,34.49-39.68,17.65,8.49-4,25.13-15.45,41.25-27.15,11.45-5.17,24.9-12.25,43.85-23.42a3.36,3.36,0,0,0-1.58-6.35c-.91,0-3.22,1.19-6.67,3.15,5-3.83,6.63-4.38,6-6.9C1295.27,1191.93,1267.76,1194.57,1153.07,1311.07Zm21.52-20.26Zm94.81-65Zm15.68-38.93c-3.32.91-11.94,7.71-50.1,25.44,8.47-5.84,18.77-13.25,32-23.14C1306.84,1170.05,1308,1164.83,1285.08,1186.9Z"/><path class="cls-3" d="M1022.42,1406.13c-89.25-239,15.19-397.24-201.33-652.81C771.81,695.23,588.91,494.15,512.55,498.9c-19.75,1.25-23.08,16.43-40,24.85-4.94,2.46-5.68,6.88-4.2,10.38-12.29,19.42-4.73,50-5.93,107.59-4.73,224.29,6.76,321.14,48,434.68,48.79,134.39,176.27,261.36,275.45,306,26.91,12.12,112.92,36.45,141.63,52.69,35.33,21.29,69.82,57.24,74.24,61.5,78.82,75.7,104.51,45.68,85.49,25.53C1099.14,1506.52,1057.63,1500.5,1022.42,1406.13Zm-102.5-373.76c0,.28,0,.38,0,0Zm4.1-14.06c-11-3.29.67,97.1-8.51-10,1.14-16.59.82-28.25-2.21-28.74-1.51-.27-1.16-16.35-8.12-57.07C915.55,946.1,922,994.66,924,1018.31Zm1,46.45v0s0,0,0,0Zm0,.12v0Zm0-.09a0,0,0,0,0,0,0A0,0,0,0,1,925,1064.79Zm0,0h0C925,1064.92,925,1064.75,925,1064.77Zm0-.23a.75.75,0,0,1,0,.15ZM877.88,888.4c-4.46-3.55-4,12.09-4.51,20.57-6.53-40-1.19-10.35-2.91-44.74A238.92,238.92,0,0,1,877.88,888.4ZM855,832.74c12.5,18.29,7,10.22,10.17,18.2C858.84,854.43,871.18,883.14,855,832.74ZM688.15,651.92c-4.66,2.49,6.35,19.9-3.43,4.7-37.71-58.62-48.47-65-15.33-33.93C671.33,626.46,677.05,634,688.15,651.92Zm-94.67-93.28c.31.32.26.28,0,0ZM480.09,712.48c0,2,0,2.14,0,0ZM951,1421.89c-47.87-31.8-122.36-42-180.81-73.1-342.93-207.93-280-561.24-291.16-767.06-3-55.1,14.54-40.06,14.66-52.82,15.19-12.81,11.07-21,53.17.11.91,3.18,8.31,8,23.78,26,1,8.35,30,46.57,37.64,70,.22.69,17.51,13.75-9.7-33.73,11.43,16.18,14.2,23.8,18.1,18.3,21.67,37.57,22.21,46,25,47.32a3.3,3.3,0,0,0,4.44-4.12c-40.57-89.59-49.26-77.07-45.87-70.5-28.86-39.94-56.57-60.15-8.18-24.78,33.36,32.73,38.19,46.82,72.15,124.68,1.87,4.25,7.84,1.46,6.2-2.27-9.14-20.75-16-36.37-21.29-48.09,8,9.08,13.88,1.89-29.19-52.66,39.28,32.21,44.81,90.75,52.49,87.93,6-2.1-14.81-48.94,13.66,23,1.68,4.21,7.64,1.56,6.13-2.23-9-22.69-10.18-23.34,1.38-4.17C717.91,786.39,710.45,785.55,716.6,785c8.56-.79-11.75-83.63-13.82-91.86,3-1.85,3-3-3.24-13.23-5-20.37-7.36-22.13,6.51,2.28,21.41,67.58,19.3,93.65,26.85,84.24,2.16-2.61-12.1-56.32-12.58-58.09,15.26,29.16,19.38,34.74,22.71,64.5.47,4.39,6.9,3.52,6.44-.57-2.38-20.65-18.51-87.46-23.68-67.89-33.4-65.45-50-77-13.26-39.43-4,6.3,32.87,33.39,41.62,107.82.53,4.5,7,3.51,6.52-.58-2.26-19.09-7.35-27.83,5.7,3.06,12.26,83,2,113.72,10.9,112.92,7.17-.62-1.61-155.18-14.73-148.1-4.5,2.43,5.67,19.21-13.73-21.88-18.69-39.32-30.23-48.42,8.61-5.6-1.06,11.69,4.74,10.07,22.38,55.16-10.57-2.66,11,22.67,11.12,110.74,0,2.58,3.82,4.21,5.82,1.77,2.9-3.56-1.22-54.24-7.51-86.37,23.55,70.56,13.48,88.5,21.7,87.74,4.6-.41,2.78-6.72,1.74-14.38-.83-6.08-10.49-78.66-16.6-78.09-4.1.33-10.56-29.75-28.15-64.9,16.11,18.1,31.19,35.8,44.66,52.38-1,4.6,26.64,52.84,27.52,82.24a3,3,0,0,0,2.28,2.85c8.78,35.59-.39,61.21,9.18,54.42a2.59,2.59,0,0,0,.56-1.31c.64,5.82.92,6.53,3.82,6.23,9-.89-8.13-67.44-11.13-75.14-14.72-51.32-25.32-61.44-7.61-37.93,26.6,68.81,32.84,56.18,13.35,199.07-.62,4.58,6,5.21,6.54,1.11,17.26-129.43,6.19-79.38,14.11-68.26-4.5,59.08-6.67,55.09-3.46,56.54,4.87,2.21,5.53-5.64,6-10.89,3.66-38.79,7.06-72.88,6.2-88.48,9.56,42.23,7,38.74.79,82.78-.65,4.45,5.88,5.2,6.46,1.09,7.48-52.84-.27,23.83,7.33,25.31-4.6,81.86-19.77,99.34-11.89,100.67,12.28,2.15,24.54-150,19.8-150.79-9.68-1.61-2.18,38.92-8.44-19.1,1-6.21,2.46-12.76-1.63-13.14-6.29-43.88-22.06-71.38-.58-29.49,30.05,117.87,10.27,169.34,1.43,233.59-.64,4.5,5.91,5.14,6.45,1.08,20.29-150.83,5.68-44.07,18.87-62.75-2.92,43.44-11.73,75.91-9,79.7,1.8,2.55,5.67,1.19,5.86-1.34,2.18-26.77,8.1-44.34,10.17-90,0,50.5-7.15,56.84-.71,57.85,10,1.56,7.89-79.2,1.45-133.13,7.28,23.74,9.26,26.74,11.78,87.68-2.85-1.46-5.69,3.2-4.7,2.67-4.1,48.54-5.58,49.1-1.34,49.81,4.58.77,4.22-3.28,5.86-23.33,2.92-35.64,1.12,40.91-3.08,54.57-1.17,4.19,2.06,6,4.48,4.68-10.23,79.63-14.84,83.26-9.14,84.23s14.63-75.49,18.1-102.78a3.29,3.29,0,0,0-3.79-3.77c1.38-18.29,1.3-45.48.08-72.88,3.19,27.77,8.53,122.14,2.47,125.41-1.61.87-2,3.38-1.75,3.23,1.42,47.46-10,81.44-3,82.63,5.48.94,8.14-32.22,9.17-57.42,2.92-8.52,4.47-31.19,4.82-57,2.79,32-4.75,132.84.79,133.75,5.33.92,4.46-5.64,7-49.26,6.37,57.06,7.39,34.93,1,38.39-2.56,1.39-2.89,3.91,2.43,36.48.79,4.7,7.29,3.29,6.65-.68-10.65-63.91,2.28,17.11,18.42,67.82-35.7-56.64-89.64-132.23-152.66-248.73-67.67-125-127-398.54-280.73-541.07-16.31-15.13-57.64-43.11-66.4-38.38a6.63,6.63,0,0,0-2.64,2.57c-8.79,15.07,15.52-.77,81.46,67.36,5.78,6,1.54.42-54.9-34.89-2.49-1.56-4.75,1.69-4.39,1.49-3,6.12,69.18,43.31,82.43,60-4.9,7.06,38.68,29.85-69.27-42-4.6-3.26-8.23-7.28-10.95-4.16-5.55,6.29,29.3,22.35,73.32,54.81-2.18,1.42-1.85,2.87-.5,4.63-18.14-12-38.74-25-41.07-23.7-12.93,7,40.34,18.53,90.93,75.07-5.53-4.1-12.73-8.84-20.53-13.7-16.56-17.66-18.78-20.6-21.86-17.86-1.48,1.3-2.19,1.88.31,5-18.78-10.86-35.5-19.63-36.12-19.29-11.58,6.25,39.77,23.3,64,47.66,26.88,27,9.9,8.15-41.82-18.37-2.79-1.44-4.65,1.62-4.42,1.5-2.68,5.48,47.89,26.85,76.47,50.46a3.28,3.28,0,0,0,2.55.82c2.66,2.69,5,5,7.09,6.69,5.66,10.72,8.09,10.45-9.59.58-21.25-22-24.09-16.19-22.35-12.49-34.49-19.33-32-18.17-34-17.14-7.22,3.91,3.93,8,50.52,33.85,6.22,5.91,14.09,13.69,23.57,24.17-87.92-53.59-117.57-55.48-29.91-9.4,3.72,4.49,11.32,10.16,41.63,40.4C638.72,787.78,573.52,755.55,572,756.39c-10.42,5.63,29.65,19.35,75.8,47.32-.75,3.77,3.34,3.34,35.73,34.49-37-23.61-92.63-52.72-95.59-46.68-3.42,6.94,10.33,3.19,75.34,41.53-6.28,3.42,2.46,7,35.34,39.13,48.53,47.51-8.42-7.41-13.94,3.79-3.13,6.35,9.33,4.14,40.62,29.38a3.13,3.13,0,0,0,4.17.12c7.68,19,11.61,10.34-42.26-13.27a3.4,3.4,0,0,0-4.43,1.52c-2.43,5,6.9,6.22,24.45,14.55-.36,5.46,16.52,18.77,28.1,30.58-7-5.1-66.62-40.93-70.09-39.05-8.36,4.51,16.52,14.37,43.67,30.19,52.69,60.47,46.21,34.94-23.85.31-26.17-12.84-34.06-15.56-53.71-25.14a3.4,3.4,0,0,0-4.45,1.52c-3.57,7.24,34.17,15.6,79.58,43,1.43,3.63,11.36,10.87,38.65,36.31-3.24-1.75-7.62-4.06-13.33-7.35-10.07-10.67-11.72-15-15.23-11.93a2.74,2.74,0,0,0-1.13,2.5c-103.09-58.91-99.8-45.11-98.59-45.76-3.74,7.61,28.33,10.93,109.92,59.63,99.55,103.35,21.37,24.54,11.16,30.06-9.11,4.91,11.61,9.78,34.91,28.83,3.13,2.59,6.63-1.16,5.29-3.93,1.32,1.42,2.47,2.64,3.49,3.69,7.56,20.09,13.57,18-27.37-3.71-5.25-5.14-7-6.32-9-4.68-29.7-15-25.57-8.23-25.4-8.32-2.51,5,4.63,4.93,29.9,18.14,5.68,5.71,25.68,24.45,32.78,31.32C666.4,1004.68,670.9,1021.74,673,1020.62c-3.48,7.12,10.95,3.6,103.83,58.62,18.92,11.21,20.07,14.27,22.68,11.54,3.1,2.56,1.1-.29,5.53,9.2,1.2,2.57,3.53,1.64-31.06-16.13-6.13-5.16-10.26-8.45-10.56-8.47-13.78-.91,22.21,12.11-59.41-25.27-68.27-30.26-60-21.55-60-21.56-3.21,6.62,24,10.74,57.9,27.94,83.26,42.32,61,25.24,103,63.53,21.79,19.86,20.08,20.55,26.2,32.08-19.06-15.18-14-9.25-11.37-12.27,3.21-3.69-3.42-7.58-8.84-11.94-3.53-2.84-39.23-32-43.2-29.89-2.71,1.47-2.79,2.91-.68,5.07l-2.63-2c-2.48-1.81-5,1.13-4.62.93-3.1,4.66,3,4.64,41.28,34.89,59.71,47.35,6.58,3.73-61.8-32.88-2.67-1.44-4.74,1.67-4.44,1.51-3.67,7.49,8-1.5,99,71.75-43.36-27.5-118.85-66.88-125.36-63.36-11.41,6.16,30.94,15.12,89.37,49.24-3.45,4.89.65,3.7,54.17,47.4-7.6-3.77-15.19-7.16-16.92-6.54-10.08,3.54,7.8,8.94,41.26,27.51,13.08,21.66,14,19.06,2,12.18-56.92-49-44-27.9-43.31-27.34l11,9.58c-38.93-20.22-36-12.73-35.8-12.83-3,6.23,10.74,6.18,59.65,33.56,38.24,33.15,32.45,26.88,34.92,30.77-62.52-39.12-131.52-68.41-134.15-67-12,6.48,23.76,11.41,93.46,50.39,24.35,21.95,20.24,11.76,63,55.67-4.45-3.07-10.67-6.89-19-11.46-24.56-19.9-47.87-36.77-50.37-35.41-11,5.92,43.51,30.42,2.83,12.06a2.67,2.67,0,0,0-3.51,1.2c-2.29,4.65,8.33,4.86,42.41,23.65,40.18,31.54,6.94,5.34-48.45-19.39-62.84-28.2-58.94-22-58.72-22.07-3.23,6.55,117.45,43.92,158.37,86.29-41.49-25.86-124.24-66-128.16-63.84-7.76,4.19,27.29,14.34,80.64,42.63.91,1.9,4.88,4.74,15.05,12.76-4.68-2.16-50.1-28.74-53.18-22.46-3.46,7,40.35,17.47,89.36,53.06,30.68,28.61,20.86,18,25.6,20.61,65.79,107.75,45.93,91.48,52.42,98.78C1065.9,1530.57,988.34,1446.57,951,1421.89ZM862.51,896.56c0,.38,0,.32,0,0Zm100,331.07c1.38,13.47,1.46,8.67-.41,7.58C962.27,1232.94,962.41,1230.43,962.53,1227.63ZM936.34,1349c17.41,10.49,17.27,11.07,26.06,17.19C975.55,1386.64,969.69,1376.78,936.34,1349Zm-59.7-97.23c1.45,1.26,1.17,1,0,0ZM747,994.74c10.8,4.63-3.86-11.23,22.38,14.32C777.7,1031.36,782.47,1032.27,747,994.74Zm-25.32-43.07.05,0C721.47,951.53,721.49,951.55,721.67,951.67Zm24.73-2.4c.46,0-.37-2,7.15,17.78-15.58-16.69-27.62-28.15-11.66-14C743.62,954.54,749.31,954.26,746.4,949.27Zm-24.33-33c13.71,9.18,12.7,11.48,16.22,11.34C742.69,938.79,746.66,940.81,722.07,916.3ZM672.54,778.24c4,7.84,4.85,7.85-4.42-2.25A19.5,19.5,0,0,0,672.54,778.24Zm-1.81-.82c.32.2.36.24,0,0ZM600.55,668.73c5.57-1.44-3.16-10.25,14.68,11C629.48,700.44,624.45,691.58,600.55,668.73Zm44.87,60.45c.93-.08,0-1.54,6.61,10.29C626.32,713.73,641.89,729.48,645.42,729.18Zm40.34,76.1c9,19,16.11,25.33-23.63-14.93C671.82,795.77,680.28,800.91,685.76,805.28Zm14.44,31.3c11.44,25.56,13,19.66-23.47-13.68C695.31,836.45,697.23,841.37,700.2,836.58Zm14.69,33.74c8.65,20.4,12,20.43-13-4-29-28.35-45.71-42.38,5.82-3.32C711.34,867,713.4,869.31,714.89,870.32Zm44.77,112.86c6.44,17.08,9.46,15.91-16.58-8.29C762.3,989.34,754,977.46,759.66,983.18Zm35.74,94.29c-5.32-5-12.77-12-23.19-22C794.71,1068.11,790.25,1064.65,795.4,1077.47Zm19.43,42.9c-28.2-27.21-26.92-21-6.69-13.85Q811.43,1113.45,814.83,1120.37Zm29.37,55.91c-.7-.55-.63-.4-.37-.68Zm20.93,36.57c-40.84-32.86-35.43-28.55-44.69-36C863.57,1203.77,858.86,1202.19,865.13,1212.85Zm51.9,83.84c-11.87-12.33-17.46-14.51-4-6.23C914.36,1292.55,915.7,1294.61,917,1296.69Zm19.24,29.6c5.72,8.72,6.33,8.09-3.57-.54C934.38,1326.35,935.63,1326.54,936.27,1326.29ZM802.85,1130.16c-35.19-26.93-27.65-21.92-8-6.46C797.93,1126.16,800.55,1128.28,802.85,1130.16ZM872,1238.92l0,0Zm.14.12c.36.31.3.27,0,0Z"/><path class="cls-3" d="M676.47,1279.29Z"/><path class="cls-3" d="M989.29,1484.44Z"/><path class="cls-3" d="M816.6,1264.94a3.33,3.33,0,0,0,2-4.24c-.77-2.13,0-1-23.77-10.68-31.05-12.63-33.56-16-35.68-11.72-2,4.07.3,4.52,45.51,22.86C814.57,1265.16,815.24,1265.43,816.6,1264.94Z"/><path class="cls-3" d="M849.65,1263.5c1.92-3.89-3-6-16.26-11.59-20.4-8.62-19.77-8-21-7.57s-2.1,1.79-1.88,1.68c-2.18,4.41,2.39,4.49,19.6,11.78C844.17,1263.74,847.46,1268,849.65,1263.5Z"/><path class="cls-3" d="M749.43,1163.2c.8-4-5.31-5.16-6.07-1.15S748.66,1167.19,749.43,1163.2Z"/><path class="cls-3" d="M992,1418.56c-2.91-2.11-5.61-4-8.2-5.87,21-2.26-81.73-60.08-84.22-58.73-9.81,5.29,17.53,12.1,70.44,49.19-32.15-21.59-28.58-13.72-28.4-13.82-2.32,4.72,1.19,1.83,46,34.27C991.74,1426.58,995.09,1420.78,992,1418.56Z"/><path class="cls-3" d="M706.27,1092.32c-.72-2-1-1.49-11.91-6-32.21-13.26-32.89-15.43-35.66-13.94-8.31,4.49,9.16,9.94,23.64,16.08C692.42,1092.69,709.64,1102.06,706.27,1092.32Z"/><path class="cls-3" d="M749.41,1098.69c3.93-8-100.42-54.13-103.42-52.51-11.61,6.27,30.88,15.24,85.12,46.09C743.93,1099.57,747.34,1102.93,749.41,1098.69Z"/><path class="cls-3" d="M670.43,973.15c-8.41-3.52-18.67-6.87-38.6-13.66-3.32-1.13-4.68,1.63-4.46,1.51-3.14,6.48,9.84,5.47,40.11,18.13C671.93,981,674.1,974.68,670.43,973.15Z"/><path class="cls-3" d="M717.06,948.58Z"/><path class="cls-3" d="M717.06,948.58l-.13-.08Z"/><path class="cls-3" d="M634.67,851.85c-7.4,4,4.46,8,36.35,25.35,3.58,1.93,7-3.71,2.91-5.91C635,850.27,636.85,850.67,634.67,851.85Z"/><path class="cls-3" d="M662.23,845.27c1.84-3.71-.91-4.34-21.31-14.76-39.41-20-39.39-21.35-41.4-17.3s-.4,3.33,49,28.64C656.13,845.77,660.17,849.44,662.23,845.27Z"/><path class="cls-3" d="M716.77,1300.36c-2.28-1.33-30.43-1.64,95.74,60.16,4,1.94,6.88-4.06,3-6C780.39,1337.5,764.18,1328.25,716.77,1300.36Z"/><path class="cls-3" d="M705.15,1286.44c3.59,2,7-3.72,2.92-5.94-16.08-8.83-31.57-21.85-34.46-21.59a3.19,3.19,0,0,0-2.23,1.12c-3.18,3.63,1,5.21,17.88,16.51C688.83,1276.29,697.63,1282.37,705.15,1286.44Zm-5.67-11c-.16-.11-.15-.1,0,0Zm-6.33,3.67Zm-4.23-2.82Z"/><path class="cls-3" d="M694.44,1272.1Z"/><path class="cls-3" d="M693.79,1271.66Z"/><path class="cls-3" d="M694.93,1272.43Z"/><path class="cls-3" d="M768.92,1079.37c.77.69.61.52,0,0Z"/><path class="cls-3" d="M732.59,997c-1.87-3.71-7.33-.79-5.52,2.79S734.39,1000.56,732.59,997Z"/><path class="cls-3" d="M670.53,1245.22a3.36,3.36,0,0,0,2.07-5.82c-74-57.51-64.58-61.45-70.12-58.46C592.5,1186.33,666.67,1245.39,670.53,1245.22Z"/><path class="cls-3" d="M645.15,1205.47c2.41-4.64-.57.49-38.3-35.21-25-23.78-25.86-26.56-29-23.06-3,3.3,1.3,6,11.95,16.07C619.55,1191.39,641.37,1212.76,645.15,1205.47Z"/><path class="cls-3" d="M604.13,1153.39c-36.39-31.87-35-33.67-38.51-31.77-5.32,2.87-.22,6.69,34.08,36.69C603.06,1161.26,607.35,1156.18,604.13,1153.39Z"/><path class="cls-3" d="M511.46,702c1.78-3.41-1.7-4.4-8.29-9.72s-7.81-8.11-10.81-6.49c-5.66,3.06,3.33,9,6.58,11.65C504.38,701.79,509.13,706.43,511.46,702Z"/><path class="cls-3" d="M521.15,690.51c-25.52-20.94-21.29-18.31-31.6-25.81-2.84-2.06-4.93.36-4.7.23-3,3.31-2.24,2.66,31.84,30.51C520.35,698.45,524.29,693.06,521.15,690.51Z"/><path class="cls-3" d="M514.9,664.16c3-3.33-1-5-10.35-13.43-10.82-9.77-11.25-11.64-14.17-10.06-5.53,3,2.79,8.76,9.47,14.77C508.32,663.09,512,667.4,514.9,664.16Z"/><path class="cls-3" d="M509.53,640.21a3.34,3.34,0,0,0,4-2.54c.48-2.12-1.11-3.67-4.42-7.28-6.31-6.79-11.83-13.88-15.27-10.1-3.24,3.6,1.85,5.37,11.32,15.63C507.54,638.82,508.08,639.89,509.53,640.21Z"/><path class="cls-3" d="M876,1025.88c4.28.71,3.66-2,8.36-27.45a3.33,3.33,0,0,0-4.84-3.49c-1.34.72-2,2.5-1.73,2.38C873.21,1022.14,871.55,1025.11,876,1025.88Z"/><path class="cls-3" d="M926.9,1183.11c1.79-1.24.92-1.16,2.44-13.25,3.11-24.41,7.56-40.86-.25-36.64-1.34.72-1.88,2.41-1.65,2.28C923.05,1167,918.18,1189.33,926.9,1183.11Z"/><path class="cls-3" d="M707.88,713.89c.23.93.19.71,0,0Z"/><path class="cls-3" d="M731,752.06c-.14-.62-.12-.55,0,0Z"/><path class="cls-3" d="M730.71,750.64c0,.1,0,.11,0,0A.06.06,0,0,1,730.71,750.64Z"/><path class="cls-3" d="M730.25,748.58c.11.47-.34-1.58,0,0Z"/><path class="cls-3" d="M730.44,749.45c0,.21,0-.08-.06-.29Z"/><path class="cls-3" d="M729.91,747.06c.1.4.08.34,0,0A.09.09,0,0,1,729.91,747.06Z"/><path class="cls-3" d="M729.85,746.81c.1.41.09.35,0,0Z"/><path class="cls-3" d="M730.69,750.55v0Z"/><path class="cls-3" d="M759.84,809c4.58-.41,2.86-5.18,1.42-20a3.34,3.34,0,0,0-4.88-2.64c-1.7.92-2,3.35-1.76,3.23C756.17,805.29,755.46,809.39,759.84,809Z"/><path class="cls-3" d="M828,879.73c-2.88-22.33-2.39-5.62,3.41-7.82,7.4-2.83-39.56-130.34-47.58-127.28-11,4.16,24.68,30.83,37.75,135.67C822.16,884.89,828.52,883.63,828,879.73Z"/><path class="cls-3" d="M827.22,831c5.08,33.76,4.33,36.35,8.53,35.93,4.67-.41,2.73-4.81.62-19.08-2.54-17.23-2.09-20.78-6.17-20.42C827.28,827.72,827,831.16,827.22,831Z"/><path class="cls-3" d="M828.81,899c.47-4.72-6.09-5-6.48-1.1,1.61-.86-6.66,34.27-.53,35.31C826.49,934.05,825.57,931,828.81,899Z"/><path class="cls-3" d="M833.34,975c2.38-1.69,9.09-87-.63-86.13-2.86.24-3.17,3.62-2.93,3.49C835.85,942.38,821.7,983.33,833.34,975Z"/><path class="cls-3" d="M848.65,926.33c-4,.32-3.51,10.26-3.22,10.1-1.38,31.48-3.22,32.88,1,33.61s4.28-1.2,5.55-33.49C852,936.84,854.25,925.84,848.65,926.33Zm-3.18,9.09c0,.55,0,.43,0,0Z"/><path class="cls-3" d="M554.46,560c-18.78-23.64-6.15-9.26,7.61,5.21,18.78,30.32,17.68,43.42,23.73,41.18,5.08-1.83-2.88-18-12.45-34.16,2.59-2.68-1-3.68-21.55-33.57a3.22,3.22,0,0,0-5.66.76c-8.66-7.34-10.88-5.08-11.2-4.39-1.12-.74-2-.53-3.23.33-3.31,2.36-2,4.2,17.28,28.53C552,567.65,557,563.18,554.46,560Zm12.31.19c-.41-.42-.52-.55,0,0Zm-12.57-3.53Zm-.68-.7c.34.35.26.28,0,0Z"/><path class="cls-3" d="M630.4,620.3c-.43-.86-.58-1.1,0,0Z"/><path class="cls-3" d="M934.84,1150.81Z"/><path class="cls-3" d="M847.45,854.58c-.09-.34,0,.09,0,0Z"/><path class="cls-3" d="M847.48,854.71v0Z"/><path class="cls-3" d="M596.74,562c-.18-.19-.67-.71-.5-.52Z"/><path class="cls-3" d="M567,560.43l0-.06Z"/><path class="cls-3" d="M567.31,560.75Z"/><path class="cls-3" d="M567.63,561.09h0C567.94,561.46,568.1,561.61,567.63,561.09Z"/><path class="cls-3" d="M567.31,560.77l.32.32h0Z"/><path class="cls-3" d="M908.21,1181.27c4.38.68,4.22-4.19,5.84-15.68,1.09-7.88,2.93-16.47-2.57-15.86-4,.39-2.51,3.84-4.15,15.1C905.8,1175.82,903.65,1180.56,908.21,1181.27Z"/><path class="cls-3" d="M586.16,1105.35c3.74-4.51-4.17-5.56-32.24-33.72-22.27-22.4-21.17-23.05-24.21-21.41-6.31,3.4,26.57,32.87,35.63,41.16C580.73,1105.48,583.31,1108.8,586.16,1105.35Z"/><path class="cls-3" d="M525,1030.74c5.85,6.3,56.55,60.62,62.05,53.91,3.46-4.18-1.73-3.73-31.19-31.26-24.52-22.68-27.33-32-31.86-29.53C519.16,1026.49,527.54,1033.48,525,1030.74Z"/><path class="cls-3" d="M540.22,1016.9c-19.64-22.63-20.38-25.37-23.66-23-5.25,3.75,50.21,62.62,53.59,62.3C580.3,1055,563.77,1044.1,540.22,1016.9Z"/><path class="cls-3" d="M546.37,1011.72c2.9,2.68,7.52-1.84,4.12-5-4.4-4.07-3.73-3.57-31.08-31.29-2.6-2.61-7.53,1.46-4.1,5C518.21,983.36,543.37,1008.94,546.37,1011.72Z"/><path class="cls-3" d="M538.93,988.32c3.65-2.61.47-5.23-12.44-21.52-15.72-19.84-16.84-22.63-20.1-20.31-3.79,2.72-.67,4.42,14.85,24.06C535.06,988.05,535.57,990.7,538.93,988.32Z"/><path class="cls-3" d="M530.67,964.94c3.07.47,4.85-3.24,3.19-5.18-5.34-6.25-4.71-5.61-23.45-28.81a3.3,3.3,0,0,0-4.59-.78c-3.45,2.46-1.07,4.43,11.74,20.1C528.89,964.1,528.85,964.64,530.67,964.94Z"/><path class="cls-3" d="M518.88,928.63c2.2-.24,4.84-2.54.56-7-8.25-9-10.12-13.72-13.61-11.23-3.82,2.71.88,6.49,4.29,10.51C516.11,927.94,516.88,928.84,518.88,928.63Z"/><path class="cls-3" d="M504.52,821.49c-6.9-9.19-9.06-14.48-12.77-11.8s.12,6.13,7.31,15.7C501.82,829.08,507.1,824.89,504.52,821.49Z"/><path class="cls-3" d="M505.15,804.82c.28-1.81-.6-2.12-5.23-10-2.63-4.46-5-10.91-8.77-8.16-3.11,2.22-.88,4.72,8.25,19.53C500.76,808.41,504.71,807.75,505.15,804.82Z"/></g></svg>