<?xml version="1.0" encoding="utf-8"?>
<!-- Generator: Adobe Illustrator 25.2.0, SVG Export Plug-In . SVG Version: 6.00 Build 0)  -->
<svg version="1.1" id="Calque_1" xmlns="http://www.w3.org/2000/svg" xmlns:xlink="http://www.w3.org/1999/xlink" x="0px" y="0px"
	 viewBox="0 0 2000 2000" style="enable-background:new 0 0 2000 2000;" xml:space="preserve">
<style type="text/css">
	.st0{fill:#000;}
	.st1{opacity:0.8;}
	.st2{fill:none;}
	.st3{fill-rule:evenodd;clip-rule:evenodd;fill:#000;}
</style>
<g class="st1">
	<g>
		<g>
			<path class="st0" d="M1664.1,361C1663.3,360.8,1663.4,360.9,1664.1,361L1664.1,361z"/>
			<path class="st0" d="M1113.9,1468.1c6.8-0.5,4.5-3.3-4-52c-10.9-61.9-10.8-61.7-16-61.2c-7.9,0.6-3.3,4.6,6.4,61.2
				C1108.5,1463.6,1107.8,1468.7,1113.9,1468.1z"/>
			<path class="st0" d="M1142.7,1111.7c5.6-2,2.4-7.6-1.4-21.5c-16.1-58.6-14.8-62.5-21.7-60.1c-5.8,2.1-4,2.6,12.5,63.1
				C1135.8,1106.4,1136.5,1113.9,1142.7,1111.7z"/>
			<path class="st0" d="M1191.2,1137.9C1191.5,1139.4,1191.6,1139.7,1191.2,1137.9L1191.2,1137.9z"/>
			<path class="st0" d="M1192.5,963.2c2.2-2.7,0.9-2.1-4.2-28.9c-1.3-7-10.6-4.7-9.6,0.8C1181.5,949.1,1184,973.6,1192.5,963.2z"/>
			<path class="st0" d="M1223.2,966.5c0,0.2,0-0.1,0.1,0.4C1223.1,966.4,1223.1,966.1,1223.2,966.5z"/>
			<path class="st0" d="M1218.2,944C1218.2,943.9,1218.2,943.9,1218.2,944L1218.2,944z"/>
			<path class="st0" d="M1208.8,945.3C1208.8,945.3,1208.8,945.4,1208.8,945.3C1208.7,945.1,1208.7,945.1,1208.8,945.3z"/>
			<path class="st0" d="M1218.3,944.4C1218.3,944.4,1218.3,944.3,1218.3,944.4C1218.3,944.4,1218.3,944.4,1218.3,944.4
				C1218.3,944.4,1218.3,944.4,1218.3,944.4z"/>
			<path class="st0" d="M1218,943.1L1218,943.1C1218.1,943.5,1218.1,943.5,1218,943.1z"/>
			<path class="st0" d="M1218.4,944.9C1218.6,945.5,1218.3,944.1,1218.4,944.9L1218.4,944.9z"/>
			<path class="st0" d="M1218.6,945.5C1218.4,945,1218.4,945,1218.6,945.5L1218.6,945.5z"/>
			<path class="st0" d="M1218.2,943.7C1218.2,944,1218,943.4,1218.2,943.7C1218.3,944.3,1218.2,943.2,1218.2,943.7z"/>
			<path class="st0" d="M1271.7,867.3c2.3-0.8,3.8-3.2,2.9-6.2c-10-35.5-9.8-41.1-16.4-38.8c-5.5,2-3.2,5.6,4.4,32.6
				C1264.6,861.5,1265.6,869.5,1271.7,867.3z"/>
			<path class="st0" d="M1279.9,787.8c0,0,0-0.1,0-0.1C1279.9,787.7,1279.9,787.7,1279.9,787.8z"/>
			<path class="st0" d="M1452.3,644.5c0.4,6.2,10.1,5.7,9.6-0.8c-0.4-5.7,2.4-33.4,3.7-48.5c0.6-7.1-9-7.3-9.5-1.6
				C1456.5,593.5,1451.8,636.5,1452.3,644.5z"/>
			<path class="st0" d="M1032.9,1188.6c0,0.1,0,0.2,0,0.2C1033,1189.2,1033,1188.9,1032.9,1188.6z"/>
			<path class="st0" d="M1018.9,1100.5c-0.3-8.7,1.2-16.2-5.4-15.7c-16.2,1.4,15.7,131.6,21.4,161.2c1.4,7.3,10.8,4.6,9.7-0.8
				C1033.4,1187.5,1019.9,1137.1,1018.9,1100.5z M1025.6,1154.7C1025.8,1155.5,1025.8,1155.7,1025.6,1154.7L1025.6,1154.7z"/>
			<path class="st0" d="M1016.6,1056.9c2.7,3.7,8.5,1.9,8.8-2c2.5-28.3,5.3-33-0.9-34.1c-4.1-0.7-6.2,4-5.6,4
				C1015.2,1056.5,1015.4,1055.1,1016.6,1056.9z"/>
			<path class="st0" d="M1052.1,1274.6c-10.2-0.1-1.7,13.4,4.1,27.5c2.6,6.4,11.5,2.2,9.2-3.3
				C1056.4,1276.7,1056.3,1274.6,1052.1,1274.6z"/>
			<path class="st0" d="M1085.8,879.3c-4.1-0.7-6,3.9-5.6,3.9c-2.7,14.6-6,32.6-5.3,41.5c0.5,6.2,10.2,5.7,9.7-0.8
				C1083.2,905.6,1095,880.9,1085.8,879.3z"/>
			<path class="st0" d="M1098.8,876.2c9.9,1.7,5.9-23.1,5.7-23.5c-2.7-3.8-7.2-1.2-6.8-1.2c-2.8,2-1.7,2.5-2.8,19
				C1094.6,873.9,1096.5,875.8,1098.8,876.2z"/>
			<path class="st0" d="M1336.2,607.3c5.6-0.5,3.7-5.2,6.4-17c1.8-7.6,6.9-18.8-1.2-18.9C1334.8,571.4,1325.3,608.2,1336.2,607.3z
				 M1340.7,600.9C1340.6,601.5,1340.6,601.5,1340.7,600.9L1340.7,600.9z"/>
			<path class="st0" d="M1358.5,585.1c1.6-13.9,12.6-27.4,1.9-27.5c-6.6,0-11.3,23.2-11.6,25.8
				C1348,590.4,1357.8,590.9,1358.5,585.1z"/>
			<path class="st0" d="M1380.7,555.4c7.1,3.2,15.2-16.5,5.4-16.6C1380.7,538.8,1374.6,552.7,1380.7,555.4z"/>
			<path class="st0" d="M1577.7,935.5C1578.7,934.8,1578.5,934.9,1577.7,935.5L1577.7,935.5z"/>
			<path class="st0" d="M1577.7,935.5C1577.7,935.6,1577.6,935.6,1577.7,935.5C1577.3,935.8,1577.4,935.8,1577.7,935.5z"/>
			<path class="st0" d="M1591.2,913.4C1590.1,914.2,1589.8,914.4,1591.2,913.4L1591.2,913.4z"/>
			<path class="st0" d="M1559.6,963.8C1560.3,963.2,1560.2,963.3,1559.6,963.8L1559.6,963.8z"/>
			<path class="st0" d="M1381.9,1226.9C1382.6,1226.4,1382.5,1226.4,1381.9,1226.9L1381.9,1226.9z"/>
			<path class="st0" d="M1355.7,1139c0,5.9,8.9,5.9,8.9,0.1C1364.7,1133.1,1355.8,1133.1,1355.7,1139z"/>
			<path class="st0" d="M1675.2,473.6C1674.9,474.2,1675,474.1,1675.2,473.6L1675.2,473.6z"/>
			<path class="st0" d="M1691.7,409.2c-7-2-5.8,7.8-10.2,24.9c-5,19.3-18.3,38.9-17.1,43.3C1670.5,500.4,1703.8,412.6,1691.7,409.2z
				 M1665.7,471.8C1665.5,472.3,1665.6,472.3,1665.7,471.8L1665.7,471.8z"/>
			<path class="st0" d="M1679.6,504.1c10,5.9,34.5-63.2,34.2-64.3c-1.3-4.6-6.5-3.4-5.8-3.4c-4.1,1.1-4.1,5.4-14.9,31.4
				C1679.8,497,1673.4,500.4,1679.6,504.1z"/>
			<path class="st0" d="M1284.5,1239.1c5.8-3.9-0.1-11.4-4.8-8.2c4.3,0-48.1,26.9-43.5,35C1239.7,1272,1241,1268.5,1284.5,1239.1z"
				/>
			<path class="st0" d="M1283,1249.2c-73.7,47.3-75.1,45.7-71.8,51.4c3.1,5.5,2.6,4.1,62.6-34.3c10.4-6.7,18.8-9.8,15.6-15.3
				C1287.2,1246.9,1282.4,1249.2,1283,1249.2z"/>
			<path class="st0" d="M1447.4,1193C1447.4,1193,1447.4,1193,1447.4,1193C1447.1,1193.3,1447.1,1193.3,1447.4,1193z"/>
			<path class="st0" d="M1755.9,409.3c-21.8-52.5-68.3-67.8-105.1-85.8c-5.6-2.7-10.6,0.3-13.2,2.9c-12.6,2.9-28.4,11.2-38.9,18.9
				c-50.6,18.7-90.5,69.5-138.6,102.4c-43.2,29.5-158.1,93.8-264,205.2c-156.7,165.4-219.9,370.3-220.8,469.1
				c-0.6,58,19.1,89.8,37.8,174.2c-0.1-0.4,0.7,17.8,27.7,79.6c62.1,142.4,6.5,229.6,57.1,340.7c6.2,13.7,17.1,15.9,24.8,9.6
				c11-8.3,2.2-16-1.9-27.7c9.7-7-0.2-31.7-3.7-79.6c-15.3-207.3,610.2-413.1,665.4-1039.6C1784.6,574.7,1795.7,505.4,1755.9,409.3z
				 M1733,577.9c-6.5-0.2-55.8,54.5-86.6,81.1c8.7-9.9,100.1-113.9,87.5-118.1c11.1-11.9,19-21.4,24.4-28.9
				C1762.5,549.8,1762.6,546.1,1733,577.9z M1650.3,361.7C1652.4,361.8,1652.1,361.8,1650.3,361.7L1650.3,361.7z M1105.8,808.4
				C1104.6,810.3,1104.5,810.5,1105.8,808.4L1105.8,808.4z M1012.2,1292.7C1012.7,1294.9,1012.7,1294.7,1012.2,1292.7L1012.2,1292.7
				z M1034.4,1268.9c-17.4-71.2-44.2-118.5-29-197c79-401.9,409.3-558,477.2-609.3c71.2-53.5,133.6-144.9,225.1-80
				c-1.6,33.4-20.4,47.7-9.7,51.2c9.1,3,17.9-33.9,18.7-43.5c8.5,9.2,13.9,18.3,18.3,29.3c-22.6,55.1-43.6,68.2-31.7,72.2
				c-11.6,22.2-22.9,30.7-15.6,35c5.5,3.2,8.1-4,15-15c5.6-8.9,22-36.1,20.3-45.8c21.7-37.8,14.5-42.3,23.5-8.1
				c-41.9,83.3-71.1,89.3-62.6,97.9c4.9,4.9,8.2-1.5,21.4-17.1c16.4-19.5,5.2,0.9,19.1-20.9c32.3-50.5,24.6-50.4,27.6-39.4
				c4,14.6,11.9,16.8-30.6,61.9c21.8-32.2-1.2-19.7,2.1-19.7c-46.5,70.5-128,141.6-120.3,149.4c5.1,5.2,4.6,1.6,51.2-49.4
				c16-17.5,28.7-32,38.9-44.1c4.1,3.6,8.2-1.7,20.3-14.2c-70.2,99.5-138.1,144-129.1,153.1c4.9,5,30.4-20.4,58.2-51.7
				c-0.7,2.9,2.3,9.8,10.6,2.5c-3,4.6,3.5,10.1,7.5,6c0.3-0.4,98.5-108.8,98.8-109.1c-2,36.5,1.1,29-33.4,61
				c0.4-1.7-0.1-3.3-1.3-4.4c-5.9-6-10.2,4.5-37,34.6c-69.9,56.5-69.3,53.1-65.9,58.3c4,6.2,6.2,1.9,52.2-34.8
				c1.6,1.2,3.9,1.5,6.1-0.3c34.6-29.4,58.1-50.6,73.9-66c-6.9,43.7-2.4,33-36.6,58.9c0.3-2.7-3-6.1-3.3-6.5
				c-4.5-4.1-3.2-2-62.8,47.1c25.4-23.9-3.3-16.5,2.6-16.4c-21.5,21.7-33.8,30.9-24.9,34.8c-30.7,25.1-29.2,23.5-26.8,27.1
				c3.1,4.9,4.3,5,42.7-27.2c0.4,2.1,1.6,2.8,3.3,2.7c-78.4,79.7-97.1,79.9-89.1,88c3.5,3.5,19-8.2,39-26.5
				c5.2-2.6,17-11.5,46.5-34.4c-42.4,44.4-72,62.4-100.6,92.2c-4.6,4.8,2.6,11.1,6.7,6.8c2.5-2.7,39.2-34.5,74.6-67.5
				c5.5,11.6,35.1-21.9,2.1,11.2c-47,40.6-71.8,50.5-67.2,57.6c3.2,5,21.3-7.4,41.6-23.7c6.8,0,22.1-8,28.2-11.2
				c2.3,9.9,16.8-5.8,23.5-13.4c74.4-44.7,71.3-62.4,56.8-19.2c-5.9,1.5,10.5-2.6-42.3,33.9c0.7-1.9,0.6-3.1-1.7-3.9
				c5-5.2,5.1-8.2-1.8-8.2c-1.4,0,7.7-6.3-84.6,56.6c-1.5-1.6-4-2.3-6.8-0.1c4.6,0-58.9,39.4-50.8,47.6c4.2,4.3,1.1,2,57.2-35.2
				c-2.9,2.7-6.4,14,17.7,0.3c-84.2,63,7.5-1.5-81.1,62.3c-5.6,4,0.5,11.5,5.2,8.1c137.5-99.3,132.2-93.1,128.8-98.4
				c-5.9-9.2-33.2,21.7-40.3,20.4c8.6-5.4,73.1-46.8,93.7-63.8c-14.4,39.4-7.7,35.5-65.7,74.3c22.7-22.6,0.2-13.8,1.9-13.8
				c-68.3,65.7-126.2,94-195.9,134.3c-5.5,3.2-0.6,11.5,4.8,8.3c107.8-62.8,68.4-39.2,48.9-25.1c-5.6,4,0.5,11.4,5.2,8.1
				c36.1-25.8,77.7-50.8,103.8-68.4c-34.5,26.4-54.2,37.5-49.8,42.4c-11.6,6.8-19.9,11.6-24.4,15.4c-2.4-3.5-6.9-1.5-6.3-1.4
				c-23.6,15.3-23.9,16.5-23.9,19.2c-0.1,11.3,15.9-1.8,27-9.6c2.2,3.9,5.2,3.1,48.2-24.2c-118.7,85.9-139.8,82.5-130.8,92
				c-42.6,23.7-65.3,31.1-66.5,35.5c-4.9,17,56.4-16.3,114.2-53.3c5.2,0.1,15.8-4,28.4-10c-85.4,60.5-113.5,70.6-107,77.2
				c-29.9,19-32.9,18.3-30.7,23.6c-7.9,3.6-8.1,3.6-10.6,5c-5.5,3.1-0.8,11.6,4.8,8.4c15-8.5,31.1-10.5,24.4-18.2
				c57.1-35.6,12.9-10.6,36.2-19.2c22.1-8.4,21.6-9.9,12.6-3.2c-81.5,49.8-96.2,53.2-84.9,59.3c-6.8,4.5-14.5,9.5-23.1,15.1
				c-5.8,3.8,0,11.5,4.8,8.3c52.6-34.7,43-28.4,43.6-25.6c0.9,4.4-74,37-53.1,41.9c0.7,0.2,6.8-3-41.3,26.9
				c-5.6,3.5-0.3,11.4,4.8,8.3c8.2-5.1,15.9-10,23.2-14.6c-1.9,12.3,14.8,1.8,34.6-7.5c-83,61.9-96.2,61.5-95.6,61.5
				c-90.2,65.2-90.1,62.1-86.9,67.6c5.3,9.4,12.3-7.8,116.6-72.3c9-2.8,21.5-7.7,35.7-13.7c-62.1,41.9-53.5,36.3-70.5,43.5
				c-29.7,12.5-36.1,12.6-32.8,19c0.4,0.8,2.9,0.6,6.9-0.4c-43.4,33.2-62.3,37.6-54.9,45.1c2.3,2.3,15.3-5.4,29.3-15
				c6.8-0.5,15.5-3.6,22.8-5.9c-20.2,13.3-69.8,46.8-77.4,52.6c4-22.3,8.8-50.4,15.2-88c46.4-272.8,244.9-462.6,365.1-645.8
				c133.9-203.5,142.2-304.5,109.4-271.4c0.2,0-3.6,19-14.1,49.5c2.4-31.7,2-30.3,1-31.7c-14-20-6.8,49.1-17.5,74.2
				c-2.3-51.9,5.4-58.4-2.6-59.9c-4.1-0.7-6,3.9-5.5,3.9c-5.9,59.9,0.4,66.5,4.7,63.8c-19.2,43.3-8.4,32-12.4-32.1
				c-1.1-19.2,0-26.4-6.5-25.9c-10.8,0.9,2.6,37.2-2.4,78.5c-4,33.9,15.7-4-11.3,43.9c8.4-110.6-8.4-106.8-7.6-106.8
				c-10.2,0.8,1.4,24.3-0.6,80.6c-1.8,38.4-3.5,42.7-2.6,45c-12,20.4-9.9,17.1-10,14.6c-3.6-108.9-13.8-94.3-13.4-94.3
				c-10.8,0.9,4.4,30.7,3.9,99.5c-1,17,13.6-7.9-15.1,36c0.4-18.2-0.2-47.1-0.3-59.2c-0.1-10.6,1.6-21.1-5.4-20.5
				c-9.4,0.9-0.9,15.3-3.9,86c-0.1,1.9,1.2,3.4,2.9,4c-19.1,28.6-13.5,26.4-13.2-1.7c3.6,2.3,10.8-2.9,5.5-7.3
				c-2.1-1.7-4-1.2-5.4-0.1c-0.1-114.6-13.5-99.9-10.3-99.9c-11.8,1,7.7,74.3-1.4,145.1c-17.5,24.8-14.4,22-13.7,14.2
				c7.1-23.7,13.5-46.3,12.5-47.7c-3.5-5-6-3.6-9.6,5.7c2.4-53.4,0.5-109.6-7.2-109c-14.6,1.2,13.7,88.1-15.1,182.2
				c-18.1,24.2-15.3,23.1-10.8,6.1c5.5-0.1,5.3-5.1,6.7-24.2c6.7-23.3,10.1-34,3.8-35.1c-4-0.7-4.5,2-5.7,5.8
				c-2.1-3.3-4.8-0.5-4.6-0.5c-5.3,3.7,2.8,3.4-10,55.2c-0.8-14.3-2.7-31.4-4.2-44.4c-1.6-15.1-0.7-24.4-7.4-23.8
				c-11.4,1,6.8,57.9,1.6,88.2c-2.1,12.3,15.7-7.7-12,29.1c8.7-64.7,9.4-70.7,2.8-70.7c-5.7,0-4.9,5.3-6.4,18.5
				c-2.6-37.9-8.3-77.3-14.5-76.7c-9.5,0.9-0.3,6,4.9,80.2c1.2,16.3,2,55.7,0.6,65.7c-16.3,21.8-10.5,21.3-11.5-11.7
				c6-56.2,8.4-58,2.1-59.1c-3-0.5-4.9,1.9-5.5,3.2c-5.5-66.5-4.7-68.2-10.8-67.7c-11,0.9,4.9,64.9,5.4,115.7
				c-7.7,67.1-0.6,47.6-21.7,76.6c23.5-146.1,4.9-106.4,5.3-106.4c-5.2,35.6-0.7-42.1-13.1-41.1c-6.7,0.6-4.9,3.4,2.4,59
				c1,7.6,1.2,11.1,6.2,12c-12.6,85-3,38.4-11.4,37c-4.8-0.8-4.2,9.1,0.2-41.7c0.6-7-9-7.3-9.5-1.6c1.2,0-2.4,29.6-5.8,61.4
				c-1-9.9-2.3-21.4-3.8-35c-0.6-5.2-6.5-4.4-5.2-4.4c-8.9,0.8-1.6,9.8,2.8,79.7c1.8,28.2,4.6,18.7-11.8,42
				c0.4-15.9-0.9-37.5-2.7-59.5c3-23,4.2-26.2-1.3-27.2c-3.3-0.6,1.1,6.2-8.4-56.5c-0.8-5.3-6.4-4.4-5.2-4.4
				c-6.9,0.6-4.1,0.9,3.7,69.6c3.9,34.7-7.5,75-5.3,105.7c-3.4,5,0.6-78.2-19-167.1c-1-4.3-6.8-2.9-6.2-2.9
				c-7.6,2.8,11.6,67.3,13.7,140.6c-7.7,27.4-5.6,54.5-16.7,71.7c0.5-4.1,0.9-8.7,1.5-13.9c9.9,0.3,1.3-12.5,4.2-41.6
				c0.3-3.7-2.2-5.5-4.7-5.6c-3.2-19.8-7.3-39-11.2-38.7c-7.2,0.6,0.7,34.9,4.9,61.9c-2.2,16.8-5.7,40.7-6.5,56.3
				c-13.4,21.3-10.9,21.8-8.7,3c9.9,4.5,6.2-26.4,4.9-37.9c2.1-14.9,6-32.2-3.7-27.9c-2.5-16.2-5-30-5.7-33.8
				c-0.9-5.5-6.6-4.4-5.2-4.4c-12.9,1.1,9.2,31,1.8,91c-6.4-52.1-20.9-122.7-27.9-122.8c-10.7-0.1,2.7,24,13.5,89.2
				c-9.5-3.3-6.7,11.9-7.3,44.4c-15.3-108.8-21.1-97.5-28.7-162c-0.6-5.2-6.5-4.4-5.2-4.4c-12.3,1.1,19.4,128.7,19.2,126.2
				c0.4,2.1-3.4,0.9-3.8,5c0.2,0-4.6,70.3-4.1,114.6c-6.3-36.8,4.4-72.7-6.8-71.8c-3.5,0.3-4.9,1.9-5.3,17.3
				c-2.7-8.1-5.4-13.4-8.1-13.4c-13.8-0.1,7.6,17,8.7,89.4c-6.1-24.6-15.9-61.2-30.4-115.2c-1.1-4.2-6.7-2.9-6.1-2.9
				c-6.2,2.3-3.5,2.5,16.3,77.3c-4.1,1-2,6.1,1.7,44.2c1.6,16.2,3.1,2.4-36.7-115.1c-1.5-4.3-6.8-2.9-6.1-2.9
				c-12.4,4.5,41,101.6,45.4,196c-2.9,9.4,0.9,8.4-11.7-25.9c-2-56.5-10.2-48.3-8.8-48.3c-5.5,0.5-4.5,5.3-2.8,24.8
				c-0.7-0.6-1.4-1-2-1c-7.4,0-5.5,2.8,3.7,27.8c1.1,25,0.7,46.2,0,69.7c-34-164.6-47.8-137.9-43-137.9
				c-9.6,3.4,8.4,25.2,28.3,114.8c-3.6,0.5-4.1,3.3-3.5,20.9c-27.4-87.8-33.4-73.5-31.9-73.4c-9.1,3.3,3.3,10.6,27.5,91.6
				c3.5,11.8,5.7-24,6.8,71.4c-7.4-33.9-8.9-33.5-12.2-33.5c-9.4-0.1-3,9.4,8.1,60.4c2.7,13.1,7.4-12.6-0.8,30.5
				c-27.7-156.7-35.5-135.6-35.2-135.6c-8.7,3.1,1.8,1.7,27.1,145.5c3.5,19.8,4.2,12.3-1.5,39.6c-0.7-36.1-33.9-158.5-37-170.6
				c-1.1-4.2-6.5-2.9-6.1-2.9c-10,3.7,20.8,75.4,34.2,171.1c0.2,1.5,0.5,15.5,6.8,12.1c-7.4,33.5-15.5,60.8-22.8,82.8
				C1101.3,1410.2,1061.9,1381.9,1034.4,1268.9z M1734.5,705.7c-1.7,7.5-65.9,50.2-66.6,51.1c-58.1,40-2,1.6,21.1-32.5
				c3.4-2.6,6.9-5.4,10.5-8.2c4.4-3.4,1.7-8.9-2.6-8.9c-2.2,0-3.1,1.2-7.5,4.6c-4.3-0.8-4.2,0.4-10.5,8.1
				c-39.4,30.4-34.6,29.2,3.9-11.4c14.9-11.1,36.7-27.4,61.8-47.7C1741.3,676.4,1737.7,691.4,1734.5,705.7z M1723.6,748.5
				c-13.8,14.8-34,28.1-55.1,41.7c-0.4-3.8-5.9-5.7-8.2-2.8c-5.3,6.7-9.8,12-13.6,16.4c-54.5,32.4,37-29.2,28.2-39.5
				C1739.1,720.8,1733.3,714.1,1723.6,748.5z M1683.3,746.5C1682.8,746.8,1682.9,746.8,1683.3,746.5L1683.3,746.5z M1666.8,897
				c-0.6,0.2-20.6,17.2-56.5,41.2c17.5-13.3,21.5-15.9,17.1-20.2c-1.2-1.2-2.6-1.4-3.8-1.3c15.7-12.6,4.2-12.9,1.6-11.4
				C1691.3,863.2,1689.9,850,1666.8,897z M1454.2,1188.2c-19.3,13.2-37.8,24.2-55.1,33.4c-1-2.7-4.2-4.7-7.9-1.9
				c1.6,0-7.9,12.4-58.3,32.2c23.9-16.8,49.2-35.7,72.3-53.3C1497.1,1151.2,1520,1120.4,1454.2,1188.2z M1441.3,1197.2
				C1440.1,1198.1,1440.3,1197.9,1441.3,1197.2L1441.3,1197.2z M1447.8,1192.8c-1.5,1-1.8,1.2-0.3,0.2
				C1447.3,1193.1,1447.5,1193,1447.8,1192.8z M1486.4,1140.4c0.2,0-10.2,7.4-32,20.1c2.9-3.1,2.4-4.6,0.5-6.5
				c-3.4-3.4-23.7,12.4-53.6,35.6c-138,71.2-11.3,2.9,30.1-33.3c100.3-45.4,138.7-94.3,61.4-9.2
				C1495.2,1143.2,1490.5,1137.9,1486.4,1140.4z M1403.2,1157.5C1402.7,1157.7,1402.7,1157.6,1403.2,1157.5L1403.2,1157.5z
				 M1404,1157.2C1403.2,1157.5,1403.2,1157.5,1404,1157.2L1404,1157.2z M1535.8,1087.3C1534.8,1088,1535,1087.8,1535.8,1087.3
				L1535.8,1087.3z M1536.1,1087.1C1535.6,1087.4,1535.8,1087.3,1536.1,1087.1L1536.1,1087.1z M1554.6,1074
				c-32.3,22.5-85.5,58-43.6,26.7c2.7-2,3-4.6,1.8-6.6c-6.3-10.8-18,14.4-88.6,54.6c-59.2,24.6,8.4-3.7,2.9-13.3
				c7.3,0,85.3-57.5,85.8-57.8C1591.5,1033.8,1616.7,994.7,1554.6,1074z M1589.5,1015.4c3.1,0-68.5,50-124.4,75.2
				c86.1-58.2,82-57.3,80.8-61c19.2-14,18.6-14.2,18.2-16.8c23.6-13.3,40.3-23.2,58.2-35.6
				C1583.3,1040.5,1602.7,1005.4,1589.5,1015.4z M1538.5,1015c39-27.4,63.2-51.4,63.5-52.7c4.7-19.7-26.1,17.5,54.4-44.7
				C1638.6,951.6,1643,962.9,1538.5,1015z M1577.6,935.6c14.6-11.2-0.9,0,37.4-23.9C1572.5,939.1,1561.1,948,1577.6,935.6z
				 M1601.6,867.8c47.6-31.3,41.4-28.1,28.7-17.6C1619.8,856.8,1609.9,862.8,1601.6,867.8z M1309.9,1296.5
				c-43.9,31-47.1,34.2-80.3,44.4C1255.7,1321.7,1280.4,1309.6,1309.9,1296.5z M1150.3,1309.6c-2.5-105.3-1.2-45.2,5-24.9
				C1153.7,1292.8,1152,1301.1,1150.3,1309.6z M1167.4,1197.9c1.5,4.6,2.1,8.8,6.9,8C1163.8,1242.3,1167.1,1246.7,1167.4,1197.9z
				 M1218.1,995.8c11.4,87.4,9,79.6-1.9,101.6C1216.8,1074.2,1215.8,1037.6,1218.1,995.8z M1235.4,1061c-1-8.2,2.6-52.4,3.4-77
				C1248.4,1053.1,1246,1042,1235.4,1061z M1187.2,1165.4c-1.4-61.3-5.9-77.7,6.2-16.6C1191.3,1154.4,1189.2,1159.9,1187.2,1165.4z
				 M1297.3,961.1c0.1,0.1,0.2,0-0.1,0.5C1297.2,961.4,1297.3,961.2,1297.3,961.1z M1352,863.7c6.9,5.3,7.8-9.7,4.7,12.9
				C1347.5,889.2,1349.5,891.6,1352,863.7z M1213.7,967.9C1213.7,967.9,1213.7,967.9,1213.7,967.9
				C1213.8,968.5,1213.8,968.4,1213.7,967.9z M1213.9,968.6C1213.9,968.6,1213.9,968.6,1213.9,968.6
				C1213.9,968.7,1213.8,968.2,1213.9,968.6z M1212.4,919.6C1212.5,920.1,1212.5,920.2,1212.4,919.6L1212.4,919.6z M1209,946.3
				C1209.3,946.3,1209.4,948.3,1209,946.3L1209,946.3z M1208.8,945.4c0.1,0.5,0,0.1-0.1-0.4C1208.7,945.2,1208.8,945.3,1208.8,945.4
				z M1136.6,1350.1C1136.8,1350.6,1136.7,1350.6,1136.6,1350.1L1136.6,1350.1z M1212.1,1418.7c1.1-2.7-0.6-6.6-4.3-6.6
				c-1.7,0-3.7,1.4-3.4,1.4c-41.5,35.7-44,38-39.8,42.2c4.9,5,6.5-0.8,43.7-33c-130,133.3-90.2,179.8-55-16c3,6.3,8.4,0.9,19.1-6.1
				c0.1,9.9,11.1,2.1,15.1-0.1c-28.5,20.9-35.3,22.8-36.3,26.4c-1.3,4.4,3.8,7.6,7,5.5c39.3-26.6,119.4-74.6,114.1-84.8
				c-4.7-9.3-93.3,49.7-57.2,25.4c12.2-5.8,36.2-22.3,59.5-39.1c16.5-7.5,35.9-17.7,63.2-33.8c4.7-2.7,2.6-9.1-2.3-9.2
				c-1.3,0-4.7,1.7-9.6,4.5c7.2-5.5,9.6-6.3,8.7-10C1417.1,1246.9,1377.4,1250.7,1212.1,1418.7z M1243.1,1389.5
				C1242,1390.4,1242.1,1390.3,1243.1,1389.5L1243.1,1389.5z M1379.8,1295.8C1377.4,1298,1377.2,1298.2,1379.8,1295.8L1379.8,1295.8
				z M1402.4,1239.7c-4.8,1.3-17.2,11.1-72.2,36.7c12.2-8.4,27.1-19.1,46.1-33.4C1433.8,1215.4,1435.5,1207.8,1402.4,1239.7z"/>
		</g>
		<g>
			<path class="st0" d="M1023.7,1555.7C895,1211.2,1045.6,983,733.4,614.5c-71-83.8-334.8-373.7-444.8-366.8
				c-28.5,1.8-33.3,23.7-57.7,35.8c-7.1,3.5-8.2,9.9-6.1,15c-17.7,28-6.8,72.1-8.6,155.1c-6.8,323.4,9.7,463,69.2,626.7
				c70.3,193.8,254.1,376.8,397.1,441.2c38.8,17.5,162.8,52.5,204.2,76c50.9,30.7,100.7,82.5,107,88.7
				c113.6,109.1,150.7,65.9,123.3,36.8C1134.3,1700.5,1074.5,1691.8,1023.7,1555.7z M875.9,1016.9
				C875.9,1017.3,875.9,1017.4,875.9,1016.9L875.9,1016.9z M881.8,996.6c-15.9-4.7,1,140-12.3-14.4c1.6-23.9,1.2-40.7-3.2-41.4
				c-2.2-0.4-1.7-23.6-11.7-82.3C869.6,892.5,879,962.5,881.8,996.6z M883.3,1063.6C883.3,1063.6,883.3,1063.6,883.3,1063.6
				C883.3,1063.6,883.3,1063.6,883.3,1063.6C883.3,1063.6,883.3,1063.6,883.3,1063.6z M883.3,1063.7
				C883.3,1063.7,883.3,1063.7,883.3,1063.7C883.3,1063.7,883.3,1063.7,883.3,1063.7z M883.3,1063.6
				C883.3,1063.6,883.3,1063.6,883.3,1063.6C883.3,1063.6,883.3,1063.6,883.3,1063.6z M883.3,1063.6L883.3,1063.6
				C883.3,1063.8,883.3,1063.5,883.3,1063.6z M883.3,1063.2c0,0,0,0.2,0,0.2C883.3,1063.4,883.3,1063.3,883.3,1063.2z M815.3,809.3
				c-6.4-5.1-5.7,17.4-6.5,29.7c-9.4-57.7-1.7-14.9-4.2-64.5C807.8,783.1,811.5,794.4,815.3,809.3z M782.3,729
				c18,26.4,10.1,14.7,14.7,26.2C787.9,760.3,805.7,801.7,782.3,729z M541.8,468.3c-6.7,3.6,9.1,28.7-5,6.8
				c-54.4-84.5-69.9-93.7-22.1-48.9C517.5,431.6,525.8,442.5,541.8,468.3z M405.3,333.9C405.7,334.3,405.7,334.3,405.3,333.9
				L405.3,333.9z M241.8,555.7C241.8,558.5,241.8,558.7,241.8,555.7L241.8,555.7z M920.8,1578.5c-69-45.8-176.4-60.5-260.7-105.4
				C165.7,1173.3,256.4,663.9,240.3,367.1c-4.3-79.4,21-57.7,21.1-76.2c21.9-18.5,16-30.3,76.7,0.2c1.3,4.6,12,11.5,34.3,37.4
				c1.4,12,43.2,67.1,54.3,100.9c0.3,1,25.2,19.8-14-48.6c16.5,23.3,20.5,34.3,26.1,26.4c31.3,54.2,32,66.4,36.1,68.2
				c4,1.8,7.9-2.6,6.4-5.9c-58.5-129.2-71-111.1-66.1-101.6c-41.6-57.6-81.6-86.7-11.8-35.7c48.1,47.2,55,67.5,104,179.8
				c2.7,6.1,11.3,2.1,8.9-3.3c-13.2-29.9-23.1-52.4-30.7-69.3c11.6,13.1,20,2.7-42.1-75.9c56.6,46.4,64.6,130.8,75.7,126.8
				c8.6-3-21.4-70.6,19.7,33.2c2.4,6.1,11,2.2,8.8-3.2c-13-32.7-14.7-33.7,2-6c34.9,148.1,24.2,146.9,33.1,146.1
				c12.3-1.1-16.9-120.6-19.9-132.4c4.3-2.7,4.4-4.3-4.7-19.1c-7.2-29.4-10.6-31.9,9.4,3.3c30.9,97.4,27.8,135,38.7,121.5
				c3.1-3.8-17.4-81.2-18.1-83.8c22,42,28,50.1,32.7,93c0.7,6.3,10,5.1,9.3-0.8c-3.4-29.8-26.7-126.1-34.1-97.9
				c-48.1-94.4-72.2-111-19.1-56.8c-5.8,9.1,47.4,48.1,60,155.4c0.8,6.5,10.1,5.1,9.4-0.8c-3.3-27.5-10.6-40.1,8.2,4.4
				c17.7,119.6,2.8,164,15.7,162.8c10.3-0.9-2.3-223.7-21.2-213.5c-6.5,3.5,8.2,27.7-19.8-31.5c-27-56.7-43.6-69.8,12.4-8.1
				c-1.5,16.9,6.8,14.5,32.3,79.5c-15.2-3.8,15.8,32.7,16,159.7c0,3.7,5.5,6.1,8.4,2.6c4.2-5.1-1.8-78.2-10.8-124.5
				c33.9,101.7,19.4,127.6,31.3,126.5c6.6-0.6,4-9.7,2.5-20.7c-1.2-8.8-15.1-113.4-23.9-112.6c-5.9,0.5-15.2-42.9-40.6-93.6
				c23.2,26.1,45,51.6,64.4,75.5c-1.5,6.6,38.4,76.2,39.7,118.6c0.1,2.2,1.5,3.6,3.3,4.1c12.7,51.3-0.6,88.2,13.2,78.5
				c0.3-0.2,0.6-0.9,0.8-1.9c0.9,8.4,1.3,9.4,5.5,9c13-1.3-11.7-97.2-16-108.3c-21.2-74-36.5-88.6-11-54.7
				c38.3,99.2,47.3,81,19.2,287c-0.9,6.6,8.6,7.5,9.4,1.6c24.9-186.6,8.9-114.4,20.3-98.4c-6.5,85.2-9.6,79.4-5,81.5
				c7,3.2,8-8.1,8.7-15.7c5.3-55.9,10.2-105.1,8.9-127.6c13.8,60.9,10.2,55.8,1.1,119.3c-0.9,6.4,8.5,7.5,9.3,1.6
				c10.8-76.2-0.4,34.4,10.6,36.5c-6.6,118-28.5,143.2-17.1,145.1c17.7,3.1,35.4-216.2,28.5-217.4c-14-2.3-3.1,56.1-12.2-27.5
				c1.4-9,3.5-18.4-2.4-18.9c-9.1-63.3-31.8-102.9-0.8-42.5c43.3,169.9,14.8,244.1,2.1,336.8c-0.9,6.5,8.5,7.4,9.3,1.6
				c29.2-217.5,8.2-63.5,27.2-90.5c-4.2,62.6-16.9,109.4-13,114.9c2.6,3.7,8.2,1.7,8.5-1.9c3.1-38.6,11.7-63.9,14.7-129.8
				c0,72.8-10.3,82-1,83.4c14.5,2.2,11.4-114.2,2.1-191.9c10.5,34.2,13.4,38.5,17,126.4c-4.1-2.1-8.2,4.6-6.8,3.8
				c-5.9,70-8,70.8-1.9,71.8c6.6,1.1,6.1-4.7,8.4-33.6c4.2-51.4,1.6,59-4.4,78.7c-1.7,6,3,8.7,6.5,6.7
				c-14.8,114.8-21.4,120-13.2,121.4c8.2,1.4,21.1-108.8,26.1-148.2c0.4-3.4-2.4-6-5.5-5.4c2-26.4,1.9-65.6,0.1-105.1
				c4.6,40,12.3,176.1,3.6,180.8c-2.3,1.3-2.9,4.9-2.5,4.7c2,68.4-14.4,117.4-4.4,119.1c7.9,1.4,11.7-46.5,13.2-82.8
				c4.2-12.3,6.4-45,6.9-82.1c4,46.2-6.9,191.5,1.1,192.8c7.7,1.3,6.4-8.1,10.1-71c9.2,82.3,10.7,50.4,1.4,55.4
				c-3.7,2-4.2,5.6,3.5,52.6c1.1,6.8,10.5,4.7,9.6-1c-15.4-92.1,3.3,24.7,26.6,97.8c-51.5-81.7-129.2-190.6-220.1-358.6
				C663,984.6,577.4,590.2,355.8,384.7c-23.5-21.8-83.1-62.2-95.7-55.3c-2.3,1.2-4.2,3.9-3.8,3.7c-12.7,21.7,22.4-1.1,117.4,97.1
				c8.3,8.6,2.2,0.6-79.1-50.3c-3.6-2.3-6.8,2.4-6.3,2.1c-4.4,8.8,99.7,62.4,118.8,86.5c-7.1,10.2,55.8,43-99.9-60.6
				c-6.6-4.7-11.9-10.5-15.8-6c-8,9.1,42.3,32.2,105.7,79c-3.1,2-2.7,4.1-0.7,6.7c-26.2-17.3-55.9-36-59.2-34.2
				c-18.6,10.1,58.2,26.7,131.1,108.2c-8-5.9-18.4-12.7-29.6-19.7c-23.9-25.5-27.1-29.7-31.5-25.8c-2.1,1.9-3.2,2.7,0.4,7.2
				c-27.1-15.6-51.2-28.3-52.1-27.8c-16.7,9,57.3,33.6,92.3,68.7c38.8,39,14.3,11.7-60.3-26.5c-4-2.1-6.7,2.3-6.4,2.2
				c-3.9,7.9,69,38.7,110.2,72.8c1.2,1,2.5,1.3,3.7,1.2c3.8,3.9,7.3,7.2,10.2,9.6c8.2,15.5,11.7,15.1-13.8,0.8
				c-30.6-31.8-34.7-23.3-32.2-18c-49.7-27.9-46.2-26.2-49-24.7c-10.4,5.6,5.7,11.5,72.8,48.8c9,8.5,20.3,19.7,34,34.8
				c-126.7-77.3-169.5-80-43.1-13.5c5.4,6.5,16.3,14.6,60,58.3c-63.5-45.7-157.5-92.1-159.8-90.9c-15,8.1,42.8,27.9,109.3,68.2
				c-1.1,5.4,4.8,4.8,51.5,49.7c-53.3-34-133.5-76-137.8-67.3c-4.9,10,14.9,4.6,108.6,59.9c-9.1,4.9,3.5,10,50.9,56.4
				c70,68.5-12.1-10.7-20.1,5.5c-4.5,9.2,13.4,6,58.6,42.4c2.2,1.8,4.5,1.4,6,0.2c11.1,27.4,16.7,14.9-60.9-19.1
				c-4.2-1.8-6.7,2.4-6.4,2.2c-3.5,7.2,9.9,9,35.2,21c-0.5,7.9,23.8,27.1,40.5,44.1c-10.1-7.3-96.1-59-101.1-56.3
				c-12,6.5,23.8,20.7,63,43.5c76,87.2,66.6,50.4-34.4,0.4c-37.7-18.5-49.1-22.4-77.4-36.2c-4.1-2-6.7,2.4-6.4,2.2
				c-5.1,10.4,49.3,22.5,114.7,62c2.1,5.2,16.4,15.7,55.7,52.4c-4.7-2.5-11-5.9-19.2-10.6c-14.5-15.4-16.9-21.7-22-17.2
				c-1.2,1.1-1.8,2.2-1.6,3.6c-148.6-84.9-143.9-65-142.2-66c-5.4,11,40.9,15.8,158.5,86c143.5,149,30.8,35.4,16.1,43.3
				c-13.1,7.1,16.7,14.1,50.3,41.6c4.5,3.7,9.6-1.7,7.6-5.7c1.9,2,3.6,3.8,5,5.3c10.9,29,19.6,25.9-39.5-5.4
				c-7.6-7.4-10.1-9.1-13-6.7c-42.8-21.6-36.9-11.9-36.6-12c-3.6,7.2,6.7,7.1,43.1,26.2c8.2,8.2,37,35.2,47.3,45.1
				c-167.3-100.6-160.9-76-157.9-77.6c-5,10.3,15.8,5.2,149.7,84.5c27.3,16.2,28.9,20.6,32.7,16.6c4.5,3.7,1.6-0.4,8,13.3
				c1.7,3.7,5.1,2.4-44.8-23.3c-8.8-7.4-14.8-12.2-15.2-12.2c-19.9-1.3,32,17.5-85.7-36.4c-98.4-43.6-86.5-31.1-86.5-31.1
				c-4.6,9.5,34.6,15.5,83.5,40.3c120,61,88,36.4,148.5,91.6c31.4,28.6,28.9,29.6,37.8,46.3c-27.5-21.9-20.2-13.3-16.4-17.7
				c4.6-5.3-4.9-10.9-12.7-17.2c-5.1-4.1-56.6-46.2-62.3-43.1c-3.9,2.1-4,4.2-1,7.3c-1.6-1.2-2.9-2.1-3.8-2.8
				c-3.6-2.6-7.2,1.6-6.7,1.3c-4.5,6.7,4.3,6.7,59.5,50.3c86.1,68.3,9.5,5.4-89.1-47.4c-3.8-2.1-6.8,2.4-6.4,2.2
				c-5.3,10.8,11.5-2.2,142.8,103.5c-62.5-39.6-171.3-96.4-180.7-91.4c-16.4,8.9,44.6,21.8,128.9,71c-5,7,0.9,5.3,78.1,68.3
				c-11-5.4-21.9-10.3-24.4-9.4c-14.5,5.1,11.3,12.9,59.5,39.7c18.9,31.2,20.1,27.5,2.8,17.5c-82.1-70.7-63.4-40.2-62.4-39.4
				c4.2,3.6,9.7,8.4,15.9,13.8c-56.1-29.2-51.9-18.3-51.6-18.5c-4.4,9,15.5,8.9,86,48.4c55.1,47.8,46.8,38.8,50.3,44.4
				c-90.1-56.4-189.6-98.6-193.4-96.6c-17.3,9.3,34.3,16.4,134.7,72.6c35.1,31.6,29.2,17,90.9,80.3c-6.4-4.4-15.4-9.9-27.4-16.5
				c-35.4-28.7-69-53-72.6-51.1c-15.8,8.5,62.7,43.9,4.1,17.4c-3.3-1.5-5.4,1.9-5,1.7c-3.3,6.7,12,7,61.1,34.1
				c57.9,45.5,10,7.7-69.9-28c-90.6-40.7-85-31.6-84.7-31.8c-4.6,9.4,169.3,63.3,228.3,124.4c-59.8-37.3-179.1-95.1-184.8-92
				c-11.2,6,39.3,20.7,116.3,61.5c1.3,2.7,7,6.8,21.7,18.4c-6.7-3.1-72.2-41.4-76.7-32.4c-5,10.1,58.2,25.2,128.8,76.5
				c44.2,41.2,30.1,26,36.9,29.7c94.9,155.3,66.2,131.9,75.6,142.4C1086.4,1735.1,974.6,1614,920.8,1578.5z M793.2,821.1
				C793.1,821.6,793.1,821.5,793.2,821.1L793.2,821.1z M937.4,1298.4c2,19.4,2.1,12.5-0.6,10.9C937,1306,937.2,1302.4,937.4,1298.4z
				 M899.6,1473.3c25.1,15.1,24.9,16,37.6,24.8C956.1,1527.6,947.7,1513.4,899.6,1473.3z M813.5,1333.2
				C815.6,1335,815.2,1334.6,813.5,1333.2L813.5,1333.2z M626.6,962.6c15.6,6.7-5.6-16.2,32.3,20.6
				C670.9,1015.4,677.8,1016.7,626.6,962.6z M590.1,900.5C590.1,900.5,590.1,900.5,590.1,900.5C589.8,900.3,589.8,900.3,590.1,900.5
				z M625.7,897.1c0.7,0-0.5-2.9,10.3,25.6c-22.5-24.1-39.8-40.6-16.8-20.2C621.7,904.6,630,904.2,625.7,897.1z M590.7,849.5
				c19.8,13.2,18.3,16.5,23.4,16.3C620.4,881.9,626.1,884.9,590.7,849.5z M519.3,650.5c5.7,11.3,7,11.3-6.4-3.3
				C515.5,648.8,517.6,650,519.3,650.5z M516.7,649.3C517.1,649.6,517.2,649.6,516.7,649.3L516.7,649.3z M415.5,492.6
				c8-2.1-4.6-14.8,21.2,15.9C457.2,538.3,449.9,525.5,415.5,492.6z M480.2,579.7c1.4-0.1,0-2.2,9.5,14.8
				C452.6,557.5,475.1,580.2,480.2,579.7z M538.3,689.4c13,27.4,23.2,36.5-34.1-21.5C518.2,675.7,530.4,683.2,538.3,689.4z
				 M559.1,734.6c16.5,36.9,18.8,28.3-33.8-19.7C552.1,734.4,554.9,741.5,559.1,734.6z M580.3,783.2c12.5,29.4,17.2,29.5-18.8-5.7
				c-41.8-40.9-65.9-61.1,8.4-4.8C575.2,778.5,578.2,781.8,580.3,783.2z M644.9,945.9c9.3,24.6,13.6,22.9-23.9-12
				C648.7,954.8,636.7,937.7,644.9,945.9z M696.4,1081.9c-7.7-7.2-18.4-17.3-33.4-31.7C695.4,1068.4,689,1063.4,696.4,1081.9z
				 M724.4,1143.7c-40.6-39.2-38.8-30.2-9.6-20C717.9,1130.4,721.1,1137.1,724.4,1143.7z M766.8,1224.3c-1-0.8-0.9-0.6-0.5-1
				C766.4,1223.7,766.6,1224,766.8,1224.3z M796.9,1277.1c-58.9-47.4-51.1-41.2-64.4-51.9C794.7,1264,787.9,1261.7,796.9,1277.1z
				 M871.8,1397.9c-17.1-17.8-25.2-20.9-5.8-9C867.9,1392,869.8,1394.9,871.8,1397.9z M899.5,1440.6c8.2,12.6,9.1,11.7-5.2-0.8
				C896.8,1440.7,898.6,1441,899.5,1440.6z M707.1,1157.8c-50.7-38.8-39.9-31.6-11.6-9.3C700.1,1152.1,703.8,1155.1,707.1,1157.8z
				 M806.9,1314.7C806.9,1314.7,806.9,1314.7,806.9,1314.7C806.9,1314.7,806.9,1314.7,806.9,1314.7z M807.1,1314.8
				C807.6,1315.3,807.5,1315.2,807.1,1314.8L807.1,1314.8z"/>
			<path class="st0" d="M524.9,1372.9C526.2,1374.1,526.1,1374,524.9,1372.9L524.9,1372.9z"/>
			<path class="st0" d="M976,1668.6C974.3,1666.9,974.3,1666.9,976,1668.6L976,1668.6z"/>
			<path class="st0" d="M727,1352.2c2.6-0.9,3.8-3.7,2.9-6.1c-1.1-3.1,0-1.5-34.3-15.4c-44.8-18.2-48.4-23.1-51.4-16.9
				c-2.9,5.9,0.4,6.5,65.6,33C724,1352.5,725,1352.9,727,1352.2z"/>
			<path class="st0" d="M774.6,1350.1c2.8-5.6-4.3-8.6-23.5-16.7c-29.4-12.4-28.5-11.5-30.3-10.9c-1.8,0.6-3,2.6-2.7,2.4
				c-3.1,6.4,3.5,6.5,28.3,17C766.7,1350.4,771.5,1356.5,774.6,1350.1z"/>
			<path class="st0" d="M630.1,1205.5c1.2-5.8-7.6-7.5-8.8-1.7C620.2,1209.6,629,1211.2,630.1,1205.5z"/>
			<path class="st0" d="M979.9,1573.6c-4.2-3-8.1-5.8-11.8-8.5c30.3-3.3-117.8-86.6-121.4-84.7c-14.1,7.6,25.3,17.5,101.6,70.9
				c-46.4-31.1-41.2-19.8-40.9-19.9c-3.4,6.8,1.7,2.6,66.3,49.4C979.5,1585.2,984.3,1576.9,979.9,1573.6z"/>
			<path class="st0" d="M567.9,1103.3c-1-2.8-1.4-2.2-17.2-8.7c-46.4-19.1-47.4-22.3-51.4-20.1c-12,6.5,13.2,14.3,34.1,23.2
				C547.9,1103.8,572.8,1117.3,567.9,1103.3z"/>
			<path class="st0" d="M630.1,1112.5c5.7-11.5-144.8-78-149.1-75.7c-16.7,9,44.5,22,122.7,66.5
				C622.2,1113.7,627.1,1118.6,630.1,1112.5z"/>
			<path class="st0" d="M516.2,931.5c-12.1-5.1-26.9-9.9-55.7-19.7c-4.8-1.6-6.7,2.4-6.4,2.2c-4.5,9.3,14.2,7.9,57.8,26.1
				C518.4,942.8,521.5,933.7,516.2,931.5z"/>
			<path class="st0" d="M583.5,896.1C583.5,896.1,583.5,896.1,583.5,896.1L583.5,896.1z"/>
			<path class="st0" d="M583.5,896.1c0,0-0.1,0-0.2-0.1C583.2,895.9,583.4,896,583.5,896.1z"/>
			<path class="st0" d="M464.7,756.6c-10.7,5.8,6.4,11.6,52.4,36.6c5.2,2.8,10.1-5.4,4.2-8.5C465.1,754.3,467.8,754.9,464.7,756.6z"
				/>
			<path class="st0" d="M504.4,747.1c2.7-5.3-1.3-6.2-30.7-21.3C416.9,697,416.9,695,414,700.9c-2.9,5.9-0.6,4.8,70.6,41.3
				C495.6,747.8,501.4,753.1,504.4,747.1z"/>
			<path class="st0" d="M583,1403.2c-3.3-1.9-43.9-2.4,138,86.7c5.7,2.8,9.9-5.8,4.2-8.6C674.8,1456.8,651.4,1443.4,583,1403.2z"/>
			<path class="st0" d="M566.3,1383.2c5.2,2.8,10.1-5.4,4.2-8.6c-23.2-12.7-45.5-31.5-49.7-31.1c-2,0.2-3.5,1.8-3.2,1.6
				c-4.6,5.2,1.4,7.5,25.8,23.8C542.8,1368.5,555.4,1377.3,566.3,1383.2z M558.1,1367.3C557.9,1367.2,557.9,1367.2,558.1,1367.3
				C558.1,1367.3,558.1,1367.3,558.1,1367.3z M549,1372.6C550.2,1373.5,550.4,1373.6,549,1372.6L549,1372.6z M542.9,1368.6
				C543.6,1369,543.5,1369,542.9,1368.6L542.9,1368.6z"/>
			<path class="st0" d="M550.8,1362.5L550.8,1362.5C550.4,1362.3,553.2,1363.6,550.8,1362.5z"/>
			<path class="st0" d="M549.9,1361.9C549.1,1361.3,549,1361.2,549.9,1361.9L549.9,1361.9z"/>
			<path class="st0" d="M551.6,1363C552.1,1363.3,552,1363.2,551.6,1363L551.6,1363z"/>
			<path class="st0" d="M658.2,1084.6C659.3,1085.6,659.1,1085.4,658.2,1084.6L658.2,1084.6z"/>
			<path class="st0" d="M605.8,965.8c-2.7-5.3-10.6-1.1-8,4C600.6,975.2,608.4,971,605.8,965.8z"/>
			<path class="st0" d="M516.4,1323.7c4.6-0.3,6-6.1,3-8.4c-106.7-82.9-93.1-88.6-101.1-84.3C403.9,1238.8,510.8,1324,516.4,1323.7z
				"/>
			<path class="st0" d="M479.8,1266.4c3.5-6.7-0.8,0.7-55.2-50.8c-36.1-34.3-37.3-38.3-41.9-33.2c-4.3,4.7,1.9,8.6,17.2,23.2
				C442.9,1246.1,474.3,1276.9,479.8,1266.4z"/>
			<path class="st0" d="M420.6,1191.3c-52.5-45.9-50.5-48.5-55.5-45.8c-7.7,4.1-0.3,9.6,49.1,52.9
				C419.1,1202.7,425.3,1195.4,420.6,1191.3z"/>
			<path class="st0" d="M287,540.5c2.6-4.9-2.4-6.3-11.9-14c-9.7-7.8-11.3-11.7-15.6-9.4c-8.2,4.4,4.8,13,9.5,16.8
				C276.8,540.3,283.7,546.9,287,540.5z"/>
			<path class="st0" d="M301,524c-36.8-30.2-30.7-26.4-45.6-37.2c-4.1-3-7.1,0.5-6.8,0.3c-4.3,4.8-3.2,3.8,45.9,44
				C299.9,535.4,305.5,527.7,301,524z"/>
			<path class="st0" d="M292,486c4.4-4.8-1.5-7.2-14.9-19.4c-15.6-14.1-16.2-16.8-20.4-14.5c-8,4.3,4,12.6,13.7,21.3
				C282.5,484.5,287.8,490.7,292,486z"/>
			<path class="st0" d="M284.3,451.5c2.6,0.6,5.2-1.1,5.7-3.7c0.7-3.1-1.6-5.3-6.4-10.5c-9.1-9.8-17.1-20-22-14.6
				c-4.7,5.2,2.7,7.7,16.3,22.5C281.4,449.5,282.2,451,284.3,451.5z"/>
			<path class="st0" d="M812.6,1007.5c6.2,1,5.3-2.8,12-39.6c0.7-3.8-3.4-6.9-7-5c-1.9,1-2.8,3.6-2.5,3.4
				C808.6,1002.1,806.2,1006.4,812.6,1007.5z"/>
			<path class="st0" d="M886,1234.2c2.6-1.8,1.3-1.7,3.5-19.1c4.5-35.2,10.9-58.9-0.4-52.8c-1.9,1-2.7,3.5-2.4,3.3
				C880.4,1211,873.4,1243.2,886,1234.2z"/>
			<path class="st0" d="M570.2,557.7C570.6,559,570.5,558.7,570.2,557.7L570.2,557.7z"/>
			<path class="st0" d="M603.6,612.7C603.4,611.8,603.4,611.9,603.6,612.7L603.6,612.7z"/>
			<path class="st0" d="M603.1,610.7C603.2,610.8,603.2,610.8,603.1,610.7C603.1,610.6,603.1,610.7,603.1,610.7z"/>
			<path class="st0" d="M602.5,607.7C602.6,608.4,602,605.4,602.5,607.7L602.5,607.7z"/>
			<path class="st0" d="M602.8,609c0.1,0.3,0-0.1-0.1-0.4C602.7,608.7,602.7,608.8,602.8,609z"/>
			<path class="st0" d="M602,605.5C602.1,606.1,602.1,606,602,605.5C602,605.5,602,605.5,602,605.5z"/>
			<path class="st0" d="M601.9,605.1C602,605.8,602,605.7,601.9,605.1L601.9,605.1z"/>
			<path class="st0" d="M603.1,610.5C603.1,610.5,603.1,610.4,603.1,610.5C603.1,610.6,603.1,610.5,603.1,610.5z"/>
			<path class="st0" d="M645.1,694.8c6.6-0.6,4.1-7.5,2-28.9c-0.3-3.4-4-5.4-7-3.8c-2.5,1.3-2.9,4.8-2.5,4.7
				C639.8,689.5,638.8,695.4,645.1,694.8z"/>
			<path class="st0" d="M743.4,796.8c-4.2-32.2-3.4-8.1,4.9-11.3c10.7-4.1-57-187.9-68.6-183.5c-15.9,6,35.6,44.4,54.4,195.6
				C735,804.2,744.2,802.4,743.4,796.8z"/>
			<path class="st0" d="M742.3,726.6c7.3,48.7,6.2,52.4,12.3,51.8c6.7-0.6,3.9-6.9,0.9-27.5c-3.7-24.8-3-30-8.9-29.4
				C742.4,721.8,741.9,726.8,742.3,726.6z"/>
			<path class="st0" d="M744.6,824.6c0.7-6.8-8.8-7.3-9.3-1.6c2.3-1.2-9.6,49.4-0.8,50.9C741.2,875.1,739.9,870.8,744.6,824.6z"/>
			<path class="st0" d="M751.1,934.2c3.4-2.4,13.1-125.4-0.9-124.2c-4.1,0.3-4.6,5.2-4.2,5C754.7,887.1,734.3,946.2,751.1,934.2z"/>
			<path class="st0" d="M773.2,864c-5.7,0.5-5.1,14.8-4.6,14.6c-2,45.4-4.6,47.4,1.4,48.5c6.2,1.1,6.2-1.7,8-48.3
				C777.9,879.1,781.3,863.3,773.2,864z M768.6,877.1C768.6,877.9,768.6,877.7,768.6,877.1L768.6,877.1z"/>
			<path class="st0" d="M349,335.8c-27.1-34.1-8.9-13.4,11,7.5c27.1,43.7,25.5,62.6,34.2,59.4c7.3-2.7-4.2-25.9-18-49.3
				c3.7-3.9-1.5-5.3-31.1-48.4c-2.4-3.5-7.3-1.9-8.2,1.1c-12.5-10.6-15.7-7.3-16.2-6.3c-1.6-1.1-2.9-0.8-4.7,0.5
				c-4.8,3.4-2.9,6.1,24.9,41.1C345.4,346.9,352.7,340.4,349,335.8z M366.8,336.1C366.2,335.5,366,335.3,366.8,336.1L366.8,336.1z
				 M348.6,331C349,331.3,348.8,331.2,348.6,331L348.6,331z M347.7,330C348.2,330.5,348.1,330.4,347.7,330L347.7,330z"/>
			<path class="st0" d="M458.5,422.8C457.9,421.5,457.7,421.2,458.5,422.8L458.5,422.8z"/>
			<path class="st0" d="M897.4,1187.6C897.4,1187.6,897.4,1187.6,897.4,1187.6C897.4,1187.8,897.4,1187.8,897.4,1187.6z"/>
			<path class="st0" d="M771.4,760.5C771.3,760,771.5,760.7,771.4,760.5C771.5,760.6,771.5,760.6,771.4,760.5z"/>
			<path class="st0" d="M771.5,760.7C771.5,760.7,771.5,760.7,771.5,760.7C771.5,760.7,771.5,760.7,771.5,760.7L771.5,760.7z"/>
			<path class="st0" d="M410,338.7c-0.3-0.3-1-1-0.7-0.7C409.7,338.5,410,338.8,410,338.7z"/>
			<path class="st0" d="M367.1,336.4C367.1,336.4,367,336.4,367.1,336.4C367,336.4,367.1,336.4,367.1,336.4z"/>
			<path class="st0" d="M367.5,336.9C367,336.4,367,336.3,367.5,336.9L367.5,336.9z"/>
			<path class="st0" d="M368,337.4L368,337.4C368.5,337.9,368.7,338.1,368,337.4z"/>
			<path class="st0" d="M367.6,336.9c0.2,0.2,0.4,0.4,0.5,0.5l0,0C368.3,337.6,368,337.4,367.6,336.9z"/>
			<path class="st0" d="M859,1231.5c6.3,1,6.1-6,8.4-22.6c1.6-11.3,4.2-23.7-3.7-22.9c-5.7,0.6-3.6,5.5-6,21.8
				C855.6,1223.7,852.5,1230.5,859,1231.5z"/>
			<path class="st0" d="M394.7,1122.1c5.4-6.5-6-8-46.5-48.6c-32.1-32.3-30.5-33.2-34.9-30.9c-9.1,4.9,38.3,47.4,51.4,59.4
				C386.9,1122.3,390.6,1127.1,394.7,1122.1z"/>
			<path class="st0" d="M306.6,1014.5c8.4,9.1,81.5,87.4,89.5,77.7c5-6-2.5-5.4-45-45.1c-35.4-32.7-39.4-46.1-45.9-42.6
				C298.1,1008.4,310.2,1018.5,306.6,1014.5z"/>
			<path class="st0" d="M328.5,994.6c-28.3-32.6-29.4-36.6-34.1-33.2c-7.6,5.4,72.4,90.3,77.3,89.8
				C386.3,1049.5,362.4,1033.8,328.5,994.6z"/>
			<path class="st0" d="M337.4,987.1c4.2,3.9,10.8-2.7,5.9-7.2c-6.3-5.9-5.4-5.2-44.8-45.1c-3.7-3.8-10.9,2.1-5.9,7.2
				C296.8,946.2,333,983.1,337.4,987.1z"/>
			<path class="st0" d="M326.6,953.4c5.3-3.8,0.7-7.5-17.9-31c-22.7-28.6-24.3-32.6-29-29.3c-5.5,3.9-1,6.4,21.4,34.7
				C321.1,953,321.8,956.8,326.6,953.4z"/>
			<path class="st0" d="M314.7,919.6c4.4,0.7,7-4.7,4.6-7.5c-7.7-9-6.8-8.1-33.8-41.5c-3.3-4.1-7.7-0.5-6.6-1.1
				c-5,3.5-1.5,6.4,16.9,29C312.2,918.4,312.1,919.2,314.7,919.6z"/>
			<path class="st0" d="M297.7,867.3c3.2-0.3,7-3.7,0.8-10.1c-11.9-13-14.6-19.8-19.6-16.2c-5.5,3.9,1.3,9.4,6.2,15.1
				C293.7,866.3,294.8,867.6,297.7,867.3z"/>
			<path class="st0" d="M277,712.8c-9.9-13.2-13.1-20.9-18.4-17c-5.3,3.8,0.2,8.8,10.5,22.6C273.1,723.8,280.7,717.7,277,712.8z"/>
			<path class="st0" d="M277.9,688.8c0.4-2.6-0.9-3-7.5-14.4c-3.8-6.4-7.2-15.7-12.6-11.8c-4.5,3.2-1.3,6.8,11.9,28.2
				C271.6,694,277.3,693,277.9,688.8z"/>
		</g>
	</g>
</g>
</svg>
