<svg xmlns="http://www.w3.org/2000/svg" viewBox="0 0 35.24 35.24"><defs><style>.cls-1{fill:#fff;}.cls-2{fill:none;stroke:#000;stroke-linecap:round;stroke-miterlimit:10;stroke-width:0.75px;}.cls-3{fill:#000;}</style></defs><title>no-gluten</title><g id="Calque_2" data-name="Calque 2"><g id="contenu"><circle class="cls-1" cx="17.62" cy="17.62" r="17.62"/><line class="cls-2" x1="27.82" y1="7.4" x2="7.4" y2="27.82"/><path class="cls-3" d="M23.17,14c1.71,1.91.92,5.73-1.48,6.64-2.08-2.12-.46-5.35,1.48-6.64"/><path class="cls-3" d="M7.74,16.35c.59-2,3.62-2.87,5.33-1.72,1.07.9-1.23,2.25-2.25,2.68A5.29,5.29,0,0,1,7.74,16.35Z"/><path class="cls-3" d="M11.35,9.18c.72.3,2.28,4.07.56,3.47-2.31.47-4-2-4.24-4C6.66,6.75,10.84,8.43,11.35,9.18Z"/><path class="cls-3" d="M21,21.34a4.28,4.28,0,0,1-3.08,2.54c-1.31,0-4.75-.76-2.76-2a4.86,4.86,0,0,0,.79-.63A3.72,3.72,0,0,1,21,21.34Z"/><path class="cls-3" d="M24.75,24.79c-1.28,2.49-3.09,3.29-5.68,2.2a.77.77,0,0,1-.34-1.13,10.53,10.53,0,0,1,2.68-1.95l0,0c1.19-.34,2.19.31,3.23.71A.13.13,0,0,1,24.75,24.79Z"/><path class="cls-3" d="M25.39,18.94c.31-.48.89-.89,1.22-1.48,3.21,3.23-1.2,9-2.11,5.1a2.73,2.73,0,0,0-.24-.64.25.25,0,0,1,0-.22,2.13,2.13,0,0,1,0-.9,2.31,2.31,0,0,1,.36-.76c.15-.22.21-.52.36-.67A3.73,3.73,0,0,0,25.39,18.94Z"/><path class="cls-3" d="M17.33,17.84c-1,3.68-7.22,2.7-5.89,1,1.31-1.38,4.34-2.77,5.82-1"/><path class="cls-3" d="M19.48,10.91c1.76,2,1.27,5.51-1.5,6.1C16.08,15,17.54,12.31,19.48,10.91Z"/><path class="cls-3" d="M14,11.87c-.27-1.64.89-2.92,1.94-4,.36-.41,1.1,1.28,1,1.58.76,1.63-.38,3.35-1.92,4.06C14.29,13.46,14.3,12.33,14,11.87Z"/></g></g></svg>