<svg xmlns="http://www.w3.org/2000/svg" viewBox="0 0 35.24 35.24"><defs><style>.cls-1{fill:#fff;}.cls-2{fill:none;stroke:#000;stroke-linecap:round;stroke-miterlimit:10;stroke-width:0.75px;}.cls-3{fill:#000;}</style></defs><title>vegan_1</title><g id="Calque_2" data-name="Calque 2"><g id="contenu"><circle class="cls-1" cx="17.62" cy="17.62" r="17.62"/><line class="cls-2" x1="27.87" y1="7.37" x2="7.45" y2="27.79"/><path class="cls-3" d="M18.65,9.39C16.8,6.86,14.82,7.21,14,7.49a3.67,3.67,0,0,0-2.44,3.42c.05.9-1,1.57-2.06,2.29-1.39.94-3.13,2.09-1.9,3.95l.51.78a3,3,0,0,0,.68.74h0c3,3,7.31,4.25,11,2.86C24.28,18.53,20.9,11,18.65,9.39ZM8.26,16.74c-.81-1.22.07-1.88,1.66-2.95,1.16-.77,2.47-1.65,2.4-3a2.87,2.87,0,0,1,1.32-2.37,2.47,2.47,0,0,1,.61-.3c1.38-.51,2.84.21,4,2s-.88,4.54-3.42,6.22A8.75,8.75,0,0,1,11,17.85,2.7,2.7,0,0,1,8.26,16.74Z"/><path class="cls-3" d="M11.09,16.85a7.45,7.45,0,0,0,3.24-1.3c2.06-1.36,3.81-3.59,3-4.81s-2-1.94-2.91-1.61a2.4,2.4,0,0,0-.39.2,1.9,1.9,0,0,0-.88,1.54c.09,1.7-1.44,2.71-2.65,3.53-1.71,1.14-1.62,1.28-1.33,1.72A1.86,1.86,0,0,0,11.09,16.85Zm3.62-6.27a1,1,0,0,1,1.32.23,1,1,0,0,1-1.63,1.08A1,1,0,0,1,14.71,10.58Z"/><path class="cls-3" d="M24.33,23.1a.7.7,0,0,0,.57.21.73.73,0,0,0,.55-.27l.08-.11A1.47,1.47,0,0,1,27.61,25a1.4,1.4,0,0,1-1.25.41c-1-.12-.93.38-.87.86A1.46,1.46,0,0,1,23,27.52a1.44,1.44,0,0,1,0-2.07h0l.08-.07a.86.86,0,0,0,.28-.55.8.8,0,0,0-.22-.57l-2.61-2.21a2.88,2.88,0,0,0,.88-.69,7.23,7.23,0,0,0,.51-.65Z"/><path class="cls-1" d="M21.56,14.22c-.08-.27-.18-.54-.27-.8l-8.06,8.07c.26.09.53.18.8.25Z"/></g></g></svg>