<svg id="Calque_1" data-name="Calque 1" xmlns="http://www.w3.org/2000/svg" viewBox="0 0 2000 2000"><defs><style>.cls-1{fill:#1a428a;fill-rule:evenodd;}</style></defs><path class="cls-1" d="M1601.11,516.53c-2.74,13.53-35.07,79.89-35.88,108.49,5.49-1.94,10.4-10.45,16.4-7.78.44,4.88-3,8.17-3.59,13.16-.19,1.51-36.47,174.64-36.4,175.07.95,3.21,7.08,3,8,6.25-5.8,53.06-22.07,109-85.44,206.8,4.43.58,7.56,3.43,9.59,7.5.84,7.2-6.76,8.26-8.58,14.93,0,0-75.66,86.45-120.13,131.25-8.45,8.52-18.29,15.91-27.11,24.14,5.74,4.48,11.51-2.19,18,2.72-.21,6.72-5.63,8.12-9.46,10.12-3.61,1.88-8.52,4.68-13,4.77-8.14,6.46-17.09,10.75-25.68,17-71.73,52.48-99.17,78.93-244.15,112.61-.92,4.55-7.05,7.81-10,12.78-94,17.48-382.79,8.22-454.86-54.19-17.31,8.2-40.15,49.39-46.61,60.94-52.48,93.69-46.91,78.15-68.54,141.7-.9,2.64-11.12,38.16-17.81,74.18-7.34,39.54-10,55.3-45.48,37.1-3.69-7.56.57-15.14,2.38-25.45,3.06-17.56-5-76.27,50.24-161.15,8.38-12.87,15.5-27.59,24-40.52,23.38-35.79,60.55-101.8,71.66-111.44-7.33-46.29-12.28-280.78,2.71-296.73,4.1-11.28,3.1-25.8,4.54-36.13C576,800,721.48,690.59,709.54,702.62c1-1,.75-3,1.78-4.27,2-2.32,6-3.54,8.75-6.56,3.95.19,4.67,2.54,6.57,4.11C848.07,576,905.25,566.57,959.65,556c2.11-2.27,7.5-2.67,11.94-4.07s7.41-4.11,10.69-2.46c3.86,1.94,2.53,4.32,4.6,9.26,6.77-2.16,12.36-6.11,17.82-10.27,30.66-7.47,49.61-12.88,101.69-17.37,27.46-2.38,123.76-16.6,123.76-16.6,3.07,2.16.54,7.31.86,9.44,106.66-16.4,176.74,3.4,245.14-7.76,3.81-2,1.69,5.15,5.32,5.72,31.7,2.19,65.89-2.82,94.9-6.71C1584.61,514.12,1594,508.51,1601.11,516.53Zm-99.34,74.33c2.48-2.31,35.43-39.7,45.83-34.23L1500,604.39c-43.92,51.18-118,129.75-270.11,240.7-27,19.69-53.31,39.18-82.37,54.62-245.83,130.54-244.86,128.93-402.28,237-23.74,16.3-86.09,76.18-113.19,99.35-29.53,25.24-.54-2.68-33,25.73-5.43,4.76-13.9,9.71-14.8,13.67-1.7,7.44,7.31,14.81,12.77,19.26,28.06,22.88,20.16,23.88,128.77,40.91C811.13,1349,827.66,1349.8,837.67,1350c39.51.78,92.84,17.4,174.28-5.44,2-4.18-2.53-4-2.29-6.94,8.14-4.36,19.44-4,27.61-8.3,113.54-6.12,243.56-104.74,258.23-118.08,1.66-4.44-2.89-4.76-1.94-8.73,24.33-23.4,56.1-45.61,96.55-97.13l45.69-51.86c4.78-5.1,11.87-8.74,14.47-16.52-4-.9-9.38-1-9.24-4.65.78-4.45,1.47-9.48,3.59-13.17,2.8-4.86,8.62-8,11.78-12.43,5.17-7.21,7.26-15.56,14.29-20.25,8.68-20.69,65.24-135.09,65.73-159.87-1.42-2.9-4.74-4.55-6.92-7,.29-5.22-1.3-9.08-.86-14.06.59-6.58,4-12.41,4.68-18.5,3.62-34.78-13.7,40.32,21.07-99.45,3.11-12.49,6.1-25,10.43-37.71-.09-3-2.63-4.42-3.2-7.14.88-.64,5.43-4.06,1.79-4.26-4.28-.86-8.67,3.15-12.27,1.22-7.84-4.23-2.67-22,1.15-33.11.9-2.65,31-74.78,37.59-85-12.43,1.61-87.4,14.33-116.09,10.75-4.15-.52-8.16-3-12.27-3.42s-9,1.67-13.36,1.93c-33,2-142.32-11-208.1,3.21-6.56,1.43-13.81,4.48-20.65,1.37-2.33-2-1.36-6.28-2.83-8.9-.75,0-95.16,14.88-120,16.43-42.72,2.67-74.22,10.74-82.45,13.86-13.55,5.1-22.46,16.17-35.29,18.77-4.85-2.18-3.62-8.38-6.92-11.58-6.12.67-11.69,2.51-17.46,3.87-67.65,15.86-83.35,24-153.82,78.11-27.12,20.84,1.43-4.66-38.7,31.06-8.44,7.51-15.34,14.36-23,22.19-6.51,6.65-10.38,15.42-18.2,16.69-3.42-.14-5.16-3.42-8-1.62-26.5,17.68-79.37,74.17-86.56,89-1.28,2.64-.52,5.55-1.62,8S593,862.23,584.82,888.5c-27.79,88.92-12.08,44.43-24.11,100.69-9.26,7.62-8.86,118.53-8.85,121.38,0,23-4.5,25.86-2.3,66.21.75,13.85.56,28.55,2,40.24,2.32,18.51,9.2,37.52,10.75,42.92,4.24,14.84-3.93,15.18-14,32.37-5.65,9.66-11.53,17.6-16.08,24.52-31.37,47.65-102.16,163.9-114.3,216.7-2.15,9.38-6.26,76.48-6.24,76.53,3.31,2.73,8.4,6.09,13.16,3.59,2.76-25.57,4.65-51.66,10.88-76.51,12.62-50.41,49.69-121.94,69.82-161.81,50.34-99.67,93-127.79,110.91-145.15,192.82-187.18,521.06-336.76,524-337.44,14.39-11.16,30.13-20.79,44.23-30.85,10.19-7.29,20-14.61,29.43-21.83,7.37-5.65,14.79-11.16,21.75-16C1355.86,741.35,1430.57,657.45,1501.77,590.86Z"/><path class="cls-1" d="M1566.32,546.53c-1.59,4.19-4.68,6.1-5.9,10.83l-5.34-1.07C1555.67,548.78,1561.78,540.76,1566.32,546.53Z"/><path class="cls-1" d="M1425.87,544.92c-3.43,3.1-10.49,1.76-16.2,2.28s-11.55.51-16.91,1.2c-32.34,4.16-61.76,16.72-94,20.77,4.74-5.06,12-6.11,18.35-8.32,18.1-6.32,38.87-12,59-16.76,11.41,1.62,23.92-4.73,37-4.54C1417.76,539.62,1426.32,539.07,1425.87,544.92Z"/><path class="cls-1" d="M1347.57,538.32c-4.21,7.21-15.4,3.87-21.21,8.67-9.46-.34-15.12,5.06-24.22,5.28-3.27.11-4.18,3.75-8,3,.16-.87-.95-.91-1.59-1.24,1.17-7.45,12.21-8.45,19.78-10.82,5.47-1.7,11.38-4,17.82-5.64,4.45-1.14,8.67-.73,14.24-1.75C1345.59,536.55,1346.35,537.59,1347.57,538.32Z"/><path class="cls-1" d="M1545.22,582.07c-6.93,17-17.07,29.23-25.56,43.91-6,2.18-7.24,11.52-14.45,11.89-.22-.56,33-58.22,33.26-59C1542,579.11,1544.1,580.26,1545.22,582.07Z"/><path class="cls-1" d="M1441.66,567.57c-4,3.1-8.08,1-12.46,2.11-5,1.2-9.1,6.21-15,5.3,0-5.39,15.13-13.1,20.15-12.59C1436.94,562.65,1442.31,563,1441.66,567.57Z"/><path class="cls-1" d="M1112.74,838c-3-3-.67-9.72.39-15.66,5.87-33,25.46-79.34,40.68-109.38,2.63-13,51.74-83.54,61.31-96.86,1.77-2.47,34.28-45.45,40.71-50.09,4.85-6.62,8.53-15,17.13-16,.71.55,1.43,1.1,1.42,2.14-3.15,7.79-9.72,13.91-15.19,20.07-57.42,64.7-110.76,156.94-139.65,250.47C1118.05,827.56,1119.23,835.81,1112.74,838Z"/><path class="cls-1" d="M1214.94,543.86s-87.25,18.27-103.49,26.26c-2.71,1.33-5.85,6.9-10,3.54,1.28-8.93,9.77-6.94,13.56-12.07C1135.23,558.81,1206.69,530.27,1214.94,543.86Z"/><path class="cls-1" d="M1234.66,560.82c-4.77,4-13.52,4.2-20.49,5.11-40.74,5.32-82.22,18.3-90.48,21.49-5.54,2.14-10.86,5.6-16.92,5.83,1-10.48,94.25-36.76,119.53-36.9C1229.12,556.34,1236,553.1,1234.66,560.82Z"/><path class="cls-1" d="M1307.59,580.23c-5.2,5.56-90.57,19.62-57.17,12.49C1258.75,585.75,1299.57,571,1307.59,580.23Z"/><path class="cls-1" d="M1303.1,597.84c-3,2.51-55,16.43-57,16.24-.72-10.58,25.05-13.09,45.8-20.37A29.4,29.4,0,0,1,1303.1,597.84Z"/><path class="cls-1" d="M1543.44,654.87c-4.43,32.32-33.53,60.4-43.06,61.67,3-10.65,27.1-31.13,32.7-47.1,1.53-4.36.7-9.83,3.06-15.12,0-1.49,1.15-1.36,1.44-2.49C1540.87,652,1541.67,653.74,1543.44,654.87Z"/><path class="cls-1" d="M1067.32,564c-1.59,4.33-9.6,6.72-13.54,7.44-.8.15-1.9-.76-2.67-.54-82.55,23.63-145.85,60.19-152.72,63.52,3.8-9.89,15.63-13.76,24.08-18.27,76.3-40.72,119.31-46.29,139.16-56.08C1065.55,560,1066.47,562,1067.32,564Z"/><path class="cls-1" d="M1510.86,655.68c-3.18,4.5-6.95,8.1-9.29,13.86-4.71-.21-4.63-3.6-5.15-6.6C1500.85,660.41,1506.53,647.5,1510.86,655.68Z"/><path class="cls-1" d="M1089.71,581.46l1.77.36S945.86,761.39,907.84,843.74c-10.32,12.77-19.23,28.41-28.42,44.26-33.49,57.74-20.95,45.87-50.35,129.64-1.84,5.22-2.67,11.35-7.51,14.22-5-3.91-.21-10.19,1.11-14.6,34.25-114.5,30.64-102.92,77.34-176,7-10.94,14.88-27.66,23.06-40.7,31.76-50.61,126.31-180,126.31-180,13.15-11.51,23.62-27.09,37.3-37.82A6.42,6.42,0,0,1,1089.71,581.46Z"/><path class="cls-1" d="M1268.5,622.32c-6.36,5.33-15.38,5.88-23.16,9.2-7.52,3.2-14.64,10.75-23,8.31,1.91-5.94,9.54-9.07,15.52-12.6,7-4.14,14.14-6.86,21.39-9.56C1263.67,618.33,1266.9,619.79,1268.5,622.32Z"/><path class="cls-1" d="M1132.37,604c-3.81,2.68-8.57,3.06-12.83,3.88-19.19,3.71-56.83,20-56.83,20,7-15.28,41.13-24.74,57.58-28.16C1123.13,599.1,1129.14,601.54,1132.37,604Z"/><path class="cls-1" d="M1512.21,685.59c-9.51,18.95-40.59,49.72-43.74,51.34-2,1-5.54,2.05-8.36.15.47-1.47,17.83-19.14,18.92-20.24,21.59-22,28.21-34.11,28.21-34.11C1510.12,682.87,1510.45,684.7,1512.21,685.59Z"/><path class="cls-1" d="M1039.11,598.07c-3.37,6.53-12.47,4.42-16.76,9.57-1.85.07-52,19.09-52,19.09C969.12,619.41,1028.24,592.67,1039.11,598.07Z"/><path class="cls-1" d="M1547.76,706.68c-3.37,8-10.75,13.56-14.65,22-3.37,7.33-4.15,16.55-9.14,22.23-.88,2.64,2.93,2.16,2.84,4.28-11.78,22.48-25,42.77-38.6,62.56-3.64,1.14-4.82,2.38-41.42,44.39-2.39,2.76-3.49,9.05-9.62,6.39,0,0,43.2-53.86,83.41-114.6,1.45-3.53-3.92-2.54-2.47-6.06a7.4,7.4,0,0,1,3.75-4.8c2.33-15.19,11.46-29.84,20-39.47C1545.19,703.77,1546,705.55,1547.76,706.68Z"/><path class="cls-1" d="M1303.29,660.86c-6.67,5.72-10.6,6.1-31.55,18.61-3.11,1.85-7.86,4.89-11.94,4.06C1261,679.63,1291.23,655.63,1303.29,660.86Z"/><path class="cls-1" d="M1112.56,624.06c-7.88,6-45.44,18.67-50.25,19.46-.53-2-3.65-2.21-2.65-5.17,1.08-.11,2.57-1.11,1.24-1.6C1081.86,630.67,1100.56,617.36,1112.56,624.06Z"/><path class="cls-1" d="M897.38,612a522.91,522.91,0,0,0-84.31,45.9c-9.94,6.69-19.53,11.94-27.29,20.4-9.62,1.36-13.52,11.35-23,12.93,1-7.3,8.86-10.58,14.1-14.74,54.42-43.31,115.83-73.51,142.25-80.46C924.84,594.49,938.35,594.29,897.38,612Z"/><path class="cls-1" d="M1470.31,714.14c-11.3,10.07-24.08,17.89-35.32,28-3.12-.24-2.13-3.2-3.73-4.46,10.52-10.87,22-20.34,35.14-27.14C1469,710.88,1469.13,712.87,1470.31,714.14Z"/><path class="cls-1" d="M1019.82,624.72c-1.94,3.72-5.89,2.07-8.91,2.83-11.33,2.83-51.84,18.2-51.84,18.2-1.12-7.92,9-5.65,11.59-11.54C976.25,635.76,1008,612.6,1019.82,624.72Z"/><path class="cls-1" d="M1519.94,725.13c-7.09,10.4-20.13,16.51-31.38,22.35a205,205,0,0,1-54.7,18.55c3.24-4.95,9.58-5.9,14.62-8.15,21.92-9.77,46.41-20.11,66.31-34.72C1517,723.49,1519.1,723.89,1519.94,725.13Z"/><path class="cls-1" d="M1084.2,649.8c-1,1.77-31.56,8.4-33.14,8.1-.84-2.59.18-2.73,1.79-4.26C1055.31,651.32,1068.65,643.3,1084.2,649.8Z"/><path class="cls-1" d="M1513.1,754.3c-2.1,5.07-8.48,10-15,14.56-4.1,2.86-9.07,6.45-12.83,3.88,2.06-7,9-6.51,11.07-13.49,4.1-2,8.37-3.65,11.59-6.92C1510.05,752.74,1510.26,754.4,1513.1,754.3Z"/><path class="cls-1" d="M877.72,645c-2.2,5.54,2.5,1.27-84.86,48.56-1.83-7.45,6.48-7.46,8.93-12.08C805.28,680.3,872.17,636.87,877.72,645Z"/><path class="cls-1" d="M1480.83,776.48c-1.1,7-7.9,10.6-10.71,16.34-1.88,3.83-.64,8.37-4.13,11.21-3.16-.48-2.32-3.6-4.62-4.64.3-4.42,2.45-6.06,1.8-8.9C1468.87,787.11,1471.29,776.89,1480.83,776.48Z"/><path class="cls-1" d="M883.73,661.05s-46.56,24-56.15,30.29c-2.19,2.89-4.17,6.11-9.27,4.61a6,6,0,0,0,0-4.63c16.82-16.44,38.31-25.83,61.31-33C881.87,658.68,884,659.07,883.73,661.05Z"/><path class="cls-1" d="M1208.05,733.24c-5.81,7.39-14.63,11.7-22.64,15.79-8.32,4.24-16.8,7.89-24.78,12.57-1.78-.61.59-4-2-4.1,13.17-12.27,30.77-17.87,44.76-28.9C1205.57,729.76,1207.43,731.09,1208.05,733.24Z"/><path class="cls-1" d="M912,672.33s-43.22,20.56-77.72,40.75c-2.67,1-3.8,1.35-5.34-1.08-21.86,18.43-37.66,43.55-54.64,68.57-30.28,44.6-85,136-112.84,205-6.26,15.53-12.72,31.06-17,47.48-2.05,7.8-13.24,73.15-14.46,85.06,5.81-3.33,44.07-51.21,46.07-53.65,3.93-4.8,9.46-13.47,16.92-5.83-19.14,18-34.58,41.52-53.73,59.5a29.14,29.14,0,0,1-3.58,8.53c-2.44,2-5.79-1.87-7.3-.55,0,1.07-3.17,51.14-3,55.89.22,5.7,4,13.39-1.29,15.48-3,.39-2.86-3.87-3.37-6.24-8.56-40,.52-158.55,72.12-291.93,0,0,51.15-87.94,88.64-140.4C792.81,743,802.11,724,818.27,714.46c1.29-3.86,4-5.57,6.24-8,2.9-2.22,5.74.74,8.37-.16,54.56-34.83,76.81-36.3,76.81-36.3C910.8,670.56,910.78,671.86,912,672.33Z"/><path class="cls-1" d="M1445.19,792.41c-26.13,61.65-87.21,117.7-93.93,116.17-2.51-6,22.31-25.28,28.75-32.14,25.12-26.8,38.91-50,59.66-84.23C1442.26,793.41,1442.59,791.21,1445.19,792.41Z"/><path class="cls-1" d="M1421.87,793.23c-4.54,29.75-69,93.46-90.71,114.06-4,.11-4.74-2-6.76-3.22,47.5-43,75.85-82,83.19-95.21,2.31-4.17,5.77-10.63,9.47-14.75.42-.92,1.89-.24,2.14-1.42Z"/><path class="cls-1" d="M1068,999.37c-5.11.62-13.14-.44-20.29-.4-2.81,0-27.84,1.19-35.76-6.33,0-11,8.78-5.34,13-4.77,53,7.12,229.4-29.22,317.9-65.24,1.3-.53,69.55-31.72,104.44-49.22,6.39-3.21,13.65-8.81,21-12.42,5.59-4.72,11.11-9.56,17.48-13.13.6-3-3.1-3.07-3.55-5.34a17,17,0,0,1,9.46-10.12c2.68-4.86,6.19-8.46,9.82-11.91,1.9-4.37,6.57-9.85,12.12-4.94-6,13-16.55,19.16-25.17,28.23a13.1,13.1,0,0,1,9.43,3.76c-1.76,3.55-4.93,5-8.57,5.68-10.2,10.73-22.22,18.59-35.84,26.07C1314.66,955.65,1189.45,984.56,1068,999.37Z"/><path class="cls-1" d="M1401,795.49c-2.46,13.43-12.48,24-20,34.85-9.69,13.92-20.15,26.18-30.89,38.19-10.17,11.39-21.61,22.08-33.55,33-3.66,3.36-8.53,12-15.32,7.08,2.37-10,11.29-10,14.11-19.37,13.68,2.73,68.26-73.11,79.8-92.18,0-1.49,1.15-1.37,1.43-2.49Z"/><path class="cls-1" d="M1520.06,820.54c8.76,8-7.38,18.84-11.63,25.43-2.85-.94-3.4-3.4-5.51-4.83C1509.24,835.2,1512.1,824,1520.06,820.54Z"/><path class="cls-1" d="M1460.27,814c-9.86,25.07-53.42,67.66-49.12,64.14-2.61,2.13-6.15,6.08-10,3.54-.84-3.68,3.94-7.64,7.32-8.71,15.6-20.22,31.42-40.1,46.61-60.94C1457.33,812.34,1459.42,812.74,1460.27,814Z"/><path class="cls-1" d="M1174.31,771.79a104.24,104.24,0,0,1-10.88,8c-3.28,2-7.82,6.25-12.46,2.1C1155.59,774.84,1165.27,764.59,1174.31,771.79Z"/><path class="cls-1" d="M864.52,723.83c-13.6,2.32-24.33,9-35.46,15,.61,2.15,5.86,1.25,5.69,3.93-6.52,6-17.33,8.67-26,14.17-5.35,3.38-10.68,12.48-18,6.54,4-6.51,16.81-8.87,14.64-17.41,14.76-11.8,30.58-22,49.91-26.92C857.29,719.28,865.11,718.51,864.52,723.83Z"/><path class="cls-1" d="M1520.69,854c-7.62,12.44-16.14,26-22.34,37.15-3.21-1.44-4.78,2.1-6.41-.37.32-4.19,3.62-7,5.9-10.85,3.63-6.2,5.17-14.1,11.26-19C1508.5,855,1515.31,850.33,1520.69,854Z"/><path class="cls-1" d="M773.79,705.45c-27.48,18.23-43.52,22.42-47.78,30.14-34,13.23-76.11,60.22-90.79,73.29-1.64,1.46-4.59,4.44-7.32,4.07-2.58-3.82,1.21-5.67,4.66-9.24.9-.94,2-2.67,2.49-3.2,5.47-5.49,48.31-50.39,60.84-53.42,7.63-6.84,62.1-41.63,64.19-42.56C763.81,702.86,769.63,700.7,773.79,705.45Z"/><path class="cls-1" d="M1228.86,813.4c.61,2.9-2.71,2.13-4.46,3.72-.83.77-1,3.1-.55,2.68-1.21,1.08-2.4,0-3.91,1.05s-6,6.43-8.21,8.52c-5.11,4.88-7.88,10.69-15.33,11.71-2.17-4.25.62-7.18,2.33-11.56,9.92-4,14.92-15.45,25.15-19C1227.1,810.46,1227.43,812.29,1228.86,813.4Z"/><path class="cls-1" d="M1487.84,892.73c-10.67,57-113.7,144.54-115.9,146.92-4,4.37-7.1,11.47-13.2,10.3,0,0,82.2-94.49,124.84-159A5.91,5.91,0,0,1,1487.84,892.73Z"/><path class="cls-1" d="M1465.59,892.85c1.66,16.71-80.69,104.92-82.87,107.31-2.53-.42-4.46,2.59-6.41-.37-4.37,2.32-6,8.74-11.24,9.76-8.38,11.19-52.12,63.78-61.55,57l65-69.26c4.75,2,7-2.1,8.89,1.8,3.54-4.09,6.37-8.57,10-12.79,10.94-12.72,62.78-70.81,70.9-94,.87-.62,2.54,0,3-1.24C1463.53,891.13,1462.92,893.08,1465.59,892.85Z"/><path class="cls-1" d="M1283.92,861.6c-15.82,24.43-92.61,82.65-106.68,92.3-24.88,17.05-24.53,7.09-3.2-2.5,3.49-2.95,6-7.28,9.46-10.13,3.63-3,7.62-5.56,12-8.69,34.79-25.1,80.87-71.56,83.49-73.84A20.11,20.11,0,0,1,1283.92,861.6Z"/><path class="cls-1" d="M1496.52,909.31c-5.39,12-13.44,20-20,30.2a5.94,5.94,0,0,0-4.27-1.78c2.68-12,12.85-22.3,20.19-31.1C1495.42,906.44,1494.9,908.58,1496.52,909.31Z"/><path class="cls-1" d="M1169,848.49A181.09,181.09,0,0,1,1119,880.05c-6.32,4.88-14.28,13.2-23.35,10.09,3.76-6.33,9.81-9.21,16.94-10.46,1-3.07,3.83-3.51,5-6.39,16.6-7.1,31.29-17.09,45.46-27.84C1165.87,845.92,1167.12,847.4,1169,848.49Z"/><path class="cls-1" d="M722.73,760.86c3.38,1.77-2.84,3.37-4.64,4.61-39.16,27.15-105.58,82.33-105.58,82.33-1.2-4.16,3.32-6.64,5.54-9.06,5.13-5.57,9.61-10.94,15.35-16.33,19.75-18.56,41.26-35.79,68.49-54.66C708.45,763.21,714.57,757.08,722.73,760.86Z"/><path class="cls-1" d="M1288,878.16c-8.78,17.08-24.12,30.06-37.31,42.45-9.83,9.25-19.78,17.82-30.51,27.16-12.55,10.94-20,7.63-1-8.54,30.25-25.87,64.41-62,64.41-62Z"/><path class="cls-1" d="M1308.24,887.83c-9.69,10.17-18.26,22-30,29.12-3.73,6.3-9.73,11-14.46,16.52-2.22,2.61-5.53,7.25-10.52,6.2-.61-.87,0-2.54-1.24-3-.68-3.13,4.64-5.79,7.14-7.81,13.37-16.25,28.52-29.78,43.9-43C1305.3,886.18,1307.4,886.59,1308.24,887.83Z"/><path class="cls-1" d="M951.67,823.92c.71.55,1.44,1.1,1.42,2.13-1.86,4.77-7.72,4.37-11.41,6-3.09,1.39-14.35,12.1-26.72,8.48C925.79,832.89,936.63,825.24,951.67,823.92Z"/><path class="cls-1" d="M1104.15,857.59c-6.22,12.69-20.75,12.84-29.44,21.82-10,1.91-15.72,10.35-27.08,10.26,6.54-10.14,36.86-19.84,49.75-35.3C1100.87,854.62,1103,855.77,1104.15,857.59Z"/><path class="cls-1" d="M1409.59,931.52c-11.27,20.15-22.61,40.22-37.87,54.37-3-5.63,3-11,5.91-15.47l26.1-41.94A6.8,6.8,0,0,1,1409.59,931.52Z"/><path class="cls-1" d="M1469.9,949.29c-.76,13-17,28.92-20.91,30-1,3.91-5.55,7.3-9.09,3.72-1-2.62,3.42-5.16,5.89-6.22,6.33-9,12.82-17.83,17.88-28.79C1467,948.5,1467.32,947.5,1469.9,949.29Z"/><path class="cls-1" d="M705.37,800.87C696.91,813.66,614.3,859.65,603,885.7a22.14,22.14,0,0,1-4.44-5.53c6.6-18.84,95.71-79.63,88.31-74.72C691.37,802.45,699.38,796.31,705.37,800.87Z"/><path class="cls-1" d="M1088.24,881.22c-4.7,6.39-14,7.21-19.44,13.66-8.62,3.41-17.63,9.22-26.91,14-6.84,3.52-14,9.12-21.92,7.6.75-4.3,5.6-2.4,6.07-7.11,3,2.18,1.52-.24,4.64,0,6.14-5.67,13.53-8.1,21-12.41.89-.51.61-1.94,1.42-2.48l28.17-15.6C1083.29,881.48,1086.71,878.34,1088.24,881.22Z"/><path class="cls-1" d="M809.26,827.47c-13,10.54-29,16.72-41.73,27.67C767.35,845.83,795.47,822.35,809.26,827.47Z"/><path class="cls-1" d="M940.89,868c-10.08,7-57.3,37.45-51.87,22.83,15.48-9.18,29.48-20.58,47.78-25.52C938.66,866.77,939.21,865.65,940.89,868Z"/><path class="cls-1" d="M1334.25,951.44c3,.07,4,1.45,6,2.16.12,5.26-4.27,9.5-10.17,9C1330.73,957.77,1332,953.79,1334.25,951.44Z"/><path class="cls-1" d="M1073.58,907.89c-5.25,6.8-12.25,11-20.33,13.48a5.05,5.05,0,0,0-1.61,3.37c-7.81-.8-11.85,9.84-20.31,4.22,10.1-10.71,25.26-13.78,35.49-24.3C1070.3,904.93,1072.45,906.07,1073.58,907.89Z"/><path class="cls-1" d="M938.52,888.86c-1.94,3.81-6.17,5.17-9.81,7.27-2.22,1.28-55.93,32.93-58.47,32.61,26.53-28.72,36.1-26.25,60.45-42.4C933,887.38,938,886.64,938.52,888.86Z"/><path class="cls-1" d="M1167.31,938.92c-5,8.43-13.54,13.44-21.41,18.81-4,2.74-9,6.66-14.25,6.37-.76-6.49,5.33-10.78,10.7-11.72,6.74-6.1,13.86-11.61,20.34-18.11A17.6,17.6,0,0,1,1167.31,938.92Z"/><path class="cls-1" d="M1146,934.59c-3.82,8.95-11.23,12.48-18.91,15.62-6.63,5.48-13.2,11.06-22.81,12-2-1-.48-4.31-2.66-5.17,14.83-5.12,26.83-14.51,38.33-24.64,1.42.2,3.31,1.11,3.74-.18C1144.75,932.82,1144.73,934.12,1146,934.59Z"/><path class="cls-1" d="M1439.86,1001.55c-3.57,4.68-6.38,10.51-11.78,12.43-6.14,7.4-11.13,16.51-21.23,17.93-.89-8.18,2.31-2.72,25-32,.87-.62,2.54,0,3-1.24C1435.77,1000.16,1439,1000.09,1439.86,1001.55Z"/><path class="cls-1" d="M1359.61,986.22c7.61,4.82-65.68,72.78-68,75.12-4.83,4.88-10.56,9.89-17.47,13.13-2.39,1.13-4.74,5.13-7.67,1.23-1.06-3.69,4.34-6.25,7.86-6.74,2.42-2.94,5.08-5.5,8.74-6.57,3.4-8.3,58.93-56.19,71.93-76.18.87-.62,2.54,0,3-1.24C1359.07,985,1359.55,985.48,1359.61,986.22Z"/><path class="cls-1" d="M1334.88,984.91c-2.71,17.83-64.44,74.55-77.48,85.25-6.37,5.24-11.9,14-21.39,14.19,5.19-13.46,17.86-15.66,24.8-26.46,2.1-.73,4-1.77,6.07-2.49l64.62-72.1C1333.11,983.51,1333.15,984.77,1334.88,984.91Z"/><path class="cls-1" d="M659.32,849.88s-12.65,8.53-43.71,37.45c-1,1-33,33-34.43,32.84,3.06-.94-2-3.35-1.77-5C580.06,909.57,662.35,830.68,659.32,849.88Z"/><path class="cls-1" d="M1010.87,924.82c-3.61,5.51-29.61,21.77-38.32,20C973.24,939.74,1000.17,921.4,1010.87,924.82Z"/><path class="cls-1" d="M926.69,919.8c-1.29,5.41-6.8,4.45-10.52,6.2-16.42,8.53-31.77,18.67-47.41,28.37-3.1,1.86-7.14,7.39-11,4.25,1.58-5.76,5.52-7.94,10.16-9.06,1.14-6.1,41.81-30.77,49-31.74A16.28,16.28,0,0,1,926.69,919.8Z"/><path class="cls-1" d="M1022.93,943c-10.73,9-26.23,10.75-36.54,20.38-6.83,1.71-12.26,5.51-17.65,9.39-7.48.36-10.48,6.8-18.34,3.69,5.16-8.08,14.84-9.36,22.28-14,14.69-9.62,30.46-17.55,46.7-24.8C1021,939.16,1023.61,940,1022.93,943Z"/><path class="cls-1" d="M628.78,890.93c-14.41,9.23-25.92,22.84-38.54,34.79-2.3,5-5.16,9.26-9.64,11-5-6.4,20.16-36.44,30.18-39.27,2.81-6.59,8.77-8.46,15-9.93C626.76,888.67,628.9,889,628.78,890.93Z"/><path class="cls-1" d="M949.92,956c-1.46,2-89.15,50-91.44,49.08C855.46,995.44,946.45,950.22,949.92,956Z"/><path class="cls-1" d="M1245.07,1021.35c-46.41,48.67-82.08,76-82.08,76a62.9,62.9,0,0,1-5.35,3.54c-2,1.11-4.54,2.73-6.76,1.41,3.43-9.72,84.37-70.57,86.72-85.23C1241.94,1017.27,1243.19,1019.52,1245.07,1021.35Z"/><path class="cls-1" d="M895.62,958.88c-4.35,6.45-18,12.07-25.86,17.92-5,3.77-9,12.28-14.43,7.26C865.72,971.1,875.68,957.46,895.62,958.88Z"/><path class="cls-1" d="M1405.5,1070.53c-2.55,9.85-10.69,17.19-16.78,23.46-6.26,6.42-12.42,12.55-20.34,18.1-4.33,3-10.37,9.31-16,6,2.2-5.2,6.65-7,11.05-8.87,10.18-11,21.44-20.33,30.71-32.67,1.52-2.15-.65-5.59,1.08-5.34A5.5,5.5,0,0,1,1405.5,1070.53Z"/><path class="cls-1" d="M934.91,979.81s-69.82,35.14-96.26,54.58c-2,4.58-2.25,4.93-5.37,8.18-3.74-.6-3.8-3.64-6.39-5a146.53,146.53,0,0,1,28.89-23.78l74.51-38.62C933.72,975.46,934,977.87,934.91,979.81Z"/><path class="cls-1" d="M1206.93,1040.48c-3.49,7.5-10.3,0-10-5.72C1201,1033.46,1206.82,1036.7,1206.93,1040.48Z"/><path class="cls-1" d="M1263.51,1049.17c-4.69,12.12-12.61,12.25-18.39,22.2-8.47,3.07-15,10.06-23.36,14.72-2.74,1.53-6.68,5.28-9.8,2.64-.2-6.71,8.24-9.88,13.56-12.07,10.55-10.42,22.43-18.83,32.12-30.53C1260.42,1046.59,1261.67,1048.08,1263.51,1049.17Z"/><path class="cls-1" d="M1084.33,1019.35c-1.28,5.39-7,7.52-10.52,10.83a661.76,661.76,0,0,1-66.72,55c-3.69,2.64-7.54,6.34-12.48,6.74,5-13,16.7-15.85,24.45-24.69,9.35-6,18.17-12.85,25.69-21.64,1.57.43,2.1-.72,3.74-.18,8.28-10,18.88-16.44,26.77-27A8.83,8.83,0,0,1,1084.33,1019.35Z"/><path class="cls-1" d="M1380.73,1083.11c-1.06,3.82-3.73,5.21-6.07,7.11-2.21-.07-1.61-2-4.27-1.8C1370.56,1081,1378.26,1077,1380.73,1083.11Z"/><path class="cls-1" d="M722.06,956.14a8.13,8.13,0,0,1,2.85,4.27c-2,2.42-53.42,48.05-58,48.45C664.27,999,717.94,959.61,722.06,956.14Z"/><path class="cls-1" d="M1354.89,1096.39c-4-.41-8.48,3.39-10.86-1.27,2.34-6.32,14.81-12.49,15.86-5.12C1360.13,1091.7,1353.83,1093.44,1354.89,1096.39Z"/><path class="cls-1" d="M1273.53,1173.45a26.25,26.25,0,0,1,12.66-12.26c.33-.75,51.12-44.53,51.74-45.08,6.34-5.65,12.78-9.76,19.09-16.51,3.86-4.13,6.67-8.7,11.41-10.65,3.13.24,2.14,3.2,3.73,4.46-7.35,9.43-15.35,17.88-25.16,23.61-7.45,8.13-43.38,40.26-52.09,42.24-.69,3.6-3.92,3.37-5,6.39C1284.12,1167.13,1278.74,1174.92,1273.53,1173.45Z"/><path class="cls-1" d="M819.32,1001.77c-1.68,2.65,2.74,1.26,1.06,3.92-2.5,3.65-9.87,5.4-13.18,1C810.44,1003.85,813.51,1000.74,819.32,1001.77Z"/><path class="cls-1" d="M1324.43,1105c-.72,6.12-6.45,10.38-10.36,14.57-5.72,6.11-86.24,79.47-95.61,74.17,0-.17,76.47-63.19,99.92-90.9C1320.74,1103.38,1323.53,1103.58,1324.43,1105Z"/><path class="cls-1" d="M1302.17,1105.16c-28.77,37.89-66.28,62.61-103.11,88.39-7.48-7.4,8.66-13,13.57-16.7C1215.85,1174.45,1299.91,1104.38,1302.17,1105.16Z"/><path class="cls-1" d="M706.84,994.72c.53,6.56-5.62,10.91-9.47,14.75-12,12-26.25,23.56-37.3,37.82-2.6-1.19-2.93,1-5.52-.19-.66-1.36-.17-3.48-1.95-4.1,2.21-3.48,5-1.55,7.84-2.12-1-7.06,29-34,26.78-31.61C695.27,1000.77,699,993.14,706.84,994.72Z"/><path class="cls-1" d="M594.92,975.75c1.2,4.47-3.95,5.39-6.25,8-6,9.16-11.7,18.73-18.41,26.84-7-2-1.81-6.7.39-11,2.46-4.86,5.18-10,7.51-14.22,5.29-2.48,7.86-9.06,13.38-11.18C593.48,974.14,593.78,975.23,594.92,975.75Z"/><path class="cls-1" d="M1140.24,1086.24c-1,3.8-35,30.84-38.19,33-3.52-.74-2.94-4.2-3.18-7.13,14.23-9.11,24.58-22.38,31.93-25,1.84-.67,3.92,1.76,4.28-2.84C1137.93,1084.18,1138.14,1085.84,1140.24,1086.24Z"/><path class="cls-1" d="M936.34,1045.85c-9.16,12.52-24.24,16.09-35,26.26-7.79,2.16-15.86,8.5-23.89,12.76-7.07,3.74-13.92,8.6-20.86,11.51-7.1,3-15.37,2.8-21.2,8.67-3.11-1.28-4.26-3.85-6.21-5.88,13.44-5.28,28-8.87,38.84-18.06,6.1,1.06,7.3-5.26,13.72-3.71-1-3.54,3-3.62,6.78-6,12.29-7.95,29.24-19.43,41.72-27.67C932.65,1044.19,935.44,1044.39,936.34,1045.85Z"/><path class="cls-1" d="M754.85,1013.71A183.36,183.36,0,0,0,711,1047.42c-1.48-1.32-4-2-5.87-3,2-4,1.63-3.42,6.08-7.1,2.72-2.27,29.81-25.87,36.72-25.9C750.56,1011.36,752.77,1014.94,754.85,1013.71Z"/><path class="cls-1" d="M1044.48,1078.88c-.26,5.56-7.32,8.34-11.6,11.54-4.53,3.39-8.72,7.88-13.9,9.22a32.16,32.16,0,0,1-8.21,8.53c2.86,2,11.72-.72,15.3,2.17a22.52,22.52,0,0,1-3.94,10.31c-30.41,1.14-122.66,2.77-123.73,2.72-2-.1-64.78-7.43-67.61-9.07,1.25-2.36-.79-2.56,0-4.62,3.89-2.52,7.94.29,11.93.55,39.32,2.57,126.24,6.86,165.9-.64.23-2.73-3.92-2.55-1.4-6.77,4.07-8.36,14.65-12.24,22.11-17.75,4.34-3.21,6.56-6.38,12.65-7.62C1043.48,1077.48,1043.36,1078.6,1044.48,1078.88Z"/><path class="cls-1" d="M1253.71,1125c-14.4,21.79-93.78,71.69-96.49,74-1.62,7.24-5.94,10.39-10.89,12.61-4.7-.21-1.51-5.66-3-8,26.56-15.62,103-80.91,105.76-83.21C1252.35,1120.74,1250.79,1124.34,1253.71,1125Z"/><path class="cls-1" d="M1065.11,1086.76c-6.56,7.14-17.47,7.71-22.11,17.75-3,1.44-6.56-1.92-6.4-5C1043.85,1092.56,1053.38,1083.07,1065.11,1086.76Z"/><path class="cls-1" d="M1085.92,1093.76c-2.55,4.66-6.86,6.68-11.77,7.8C1070.72,1092.18,1080,1086,1085.92,1093.76Z"/><path class="cls-1" d="M759.27,1028.5c-.08.36-61.69,43.57-63.13,41.84C699,1063.78,742.74,1021.28,759.27,1028.5Z"/><path class="cls-1" d="M782.22,1034.07l-81.67,55.69c-1.81-5.15,4.2-7.24,5.19-11.91C737.51,1060.18,769.27,1024.57,782.22,1034.07Z"/><path class="cls-1" d="M801.07,1041.6c-8.16,5.62-78.08,51.91-81,52.13-3.48,4.2-8.82,11.23-13.89,9.22.71-7.09,6.35-9.1,11.06-13.5l78.1-51.78A13,13,0,0,1,801.07,1041.6Z"/><path class="cls-1" d="M701.78,1024.26c-6.84,13-47.93,47.71-57.12,62.51-8.09-7.45,5.89-13.81,7.18-21.7,12-7.59,30.33-34.45,45.67-42.6A5.88,5.88,0,0,1,701.78,1024.26Z"/><path class="cls-1" d="M604.8,1009.24c-15.7,13.88-28.58,32-40.89,51-6-1.5-.75-11.32,2.52-12.45-.66-3.1,2.35-9.24,5.73-10,4.47-13.52,17.6-23.7,27.13-33.4C603.35,1004.55,602.36,1008,604.8,1009.24Z"/><path class="cls-1" d="M931.46,1074.5c-6.2,5.49-14.67,7.18-21.74,11.33-13,7.66-28.94,16.49-45.09,21.43-1.53-1.3-.42-4.35-1.59-5.87a291.29,291.29,0,0,0,50.62-25.87C920.66,1077.36,925.08,1069.79,931.46,1074.5Z"/><path class="cls-1" d="M1182.12,1135.47c-3.24,7.1-9.07,12.88-13.93,18.49-2.38,2.75-4.72,9.14-10,8.16,1.34-12.83,11.79-19.51,17.17-29.87C1178.85,1132.51,1181,1133.66,1182.12,1135.47Z"/><path class="cls-1" d="M938.19,1087c-4,6.43-11.72,8.09-18,11.17s-12,7.82-18.72,10.1c-2.77-2.36-3.17-5.57-.86-9.44C915.37,1099,922.75,1081.93,938.19,1087Z"/><path class="cls-1" d="M1099.92,1120.67c-3.64,5.21-11.49,1.79-17.09,2.1-11.66.63-30.66,2.89-42.55-.29,5.19-8.14,16.28-4.15,24.93-4.21,3.13,0,6.57-.94,9.44-.86A117.79,117.79,0,0,1,1099.92,1120.67Z"/><path class="cls-1" d="M953.49,1093.78c-2.57,5.08-9,4.65-13.37,6.55-4,1.7-7.64,6.49-13,4.78-1.12-.8.56-3.45-1.06-3.92C931.68,1094,946.65,1088.35,953.49,1093.78Z"/><path class="cls-1" d="M782.14,1066.47c-4.2,6-11.33,8.84-17.31,12.24s-12.69,5.67-17.11,11.35c-12.74,5.08-23.16,13.94-34.23,22.69-4.47,3.54-8,9.18-14.1,10.12-.16-7.17,10.69-10.32,11.62-16.17,4.68-1.83,8.18-5.47,11.24-9.76,19-10.06,35.85-23.36,54.19-34.4,1.49.3,3,.61,4.46.9A2.47,2.47,0,0,0,782.14,1066.47Z"/><path class="cls-1" d="M1278.65,1184.67c-7.5,10.75-19.84,14.2-30.13,20.75-2.32-1.68-3.47-1.73-6.75-3.22.9-2.16,3.24-.9,5.16-2.65,1.15-1,.26-2.5,1.62-3.38,3-2,9.38-3.54,14.25-6.37C1268.36,1186.55,1271.07,1180.61,1278.65,1184.67Z"/><path class="cls-1" d="M595.62,1050c-1.18,4.41-4.73,5.24-7.84,6.75-8.11,10.62-18.81,23.51-23.06,36.07-1.2,1.29-4,.2-5.7.7-.68-9.76,6.8-17.54,10.21-27.56C579,1062.53,581.35,1042.78,595.62,1050Z"/><path class="cls-1" d="M1274.36,1192.14c2.19,1.12,5.09,1.76,5.69,3.93-2,6.22-11.81,6.94-11.78,12.43-1.93.32-6.27.23-7.82-2.51C1264.38,1200.31,1269.79,1196.85,1274.36,1192.14Z"/><path class="cls-1" d="M691.13,1086c-.48,2-25.08,31.55-27,32.51a51.32,51.32,0,0,1-11.62,16.17,2.48,2.48,0,0,0,1.24,3c-3.17-.13-3.86,3.47-7.13,3.18.2-1.67-2.9-1.15-3.2-2.5,7.18-15,34.57-53,45.18-53.82C690.12,1084.61,690,1085.72,691.13,1086Z"/><path class="cls-1" d="M1262.21,1211c2.49,2.24,3.78.52,6.94,2.32-4.14,7.32-10.71,11-18.36,13C1247.37,1218.48,1259,1216.25,1262.21,1211Z"/><path class="cls-1" d="M1145.65,1196.62c-9.87,12.2-24.88,16.66-35.31,28-2.78-1.09-4.27-.23-6.41-.37,7.78-16.91,25-19.66,36-31.59C1143.06,1193.2,1143.81,1195.27,1145.65,1196.62Z"/><path class="cls-1" d="M1086.59,1186.5c-6.59,11.75-19.73,13.64-27.13,24.14l-4.45-.9c-3.21-5.75,3.92-8.07,7.87-11.37,5.67-4.74,10.62-10.91,17.66-14C1082.9,1184.83,1085.68,1185,1086.59,1186.5Z"/><path class="cls-1" d="M588.24,1086.45c2.2,6-8.28,8.17-6.45,13.51-9,2.35-7.68,20.18-19.44,18.29.7-9,13-30.27,19.48-32.17C584,1085.46,586.48,1087,588.24,1086.45Z"/><path class="cls-1" d="M1239.58,1222.13c-7.48,14.28-22.15,17.7-33.17,26.62-2.83-.78-4.09.81-7.31-.55,3.44-8.75,11.55-10.46,18.55-13.84,4.29-6.7,12.11-8.07,15.35-16.34,1.25.34,2.49.66,2.85-.35C1237.44,1218.93,1239.34,1220,1239.58,1222.13Z"/><path class="cls-1" d="M914.52,1158.12c2.29,5.83-5.06,10-9.11,13-38.2,27.59-115.63,66.3-129.06,70.16-1.81-8.64,103.66-54,118.92-75,7.54-.64,11.52-6.62,17.66-9.39C914,1156.94,914.46,1157.39,914.52,1158.12Z"/><path class="cls-1" d="M647.86,1157.81c-3.94-7,5.72-9.7,6.28-17.26,3.83,0,3.73-6,7.67-5.85,5.1-10.5,12.85-17,21.24-22.55l2.67.54c.62.87,0,2.54,1.23,3-9.93,12.5-24.46,24.26-30.89,38.19C653.47,1155.42,651.27,1157.52,647.86,1157.81Z"/><path class="cls-1" d="M1249.17,1229.63c-3.71,11-13.41,13.07-22.65,15.79-.19-1.41-.86-2.51-1.06-3.92,6.3-4.83,14-7.52,18.73-14.73C1247.08,1226.91,1247.42,1228.75,1249.17,1229.63Z"/><path class="cls-1" d="M1024.28,1187.77c1.5,11.8-52,47.18-62.44,52.18-2.54-.37-1.72-3-2.84-4.29,1.2-3.61,4.38-4.24,7.49-5l54.23-43.66Z"/><path class="cls-1" d="M1170.6,1256.32c-.23-.88-.46-1.75-1.41-2.15a23,23,0,0,1,14.26-11,76.05,76.05,0,0,1,13.93-13.85c5.58,3.35,1.47,9.56-2.71,13.35C1188.7,1248.07,1175.89,1255.38,1170.6,1256.32Z"/><path class="cls-1" d="M1040.26,1200.27c-.5,7.11-41.83,46.64-56.35,40.44C984.42,1239.68,1036.93,1200.05,1040.26,1200.27Z"/><path class="cls-1" d="M988.31,1191.59c-1.69,13.26-53.88,43.48-62.08,50.4-2.92.5-42.8,13.27-7.46-4.29,5.05-2.51,10.86-6.6,16.94-10.46,20.42-13,43.3-32.34,47.44-37.62C986,1189.53,986.2,1191.19,988.31,1191.59Z"/><path class="cls-1" d="M923,1184.84c-4.81,9.78-16.94,8.53-22.12,17.75C714.88,1288.93,920.23,1184.59,923,1184.84Z"/><path class="cls-1" d="M1229.18,1250.59c-1.89,5.27-7.35,5.17-11.59,6.91,0-2.28-3.06-2.59-1.58-5.88C1221.22,1251.92,1223.83,1246.84,1229.18,1250.59Z"/><path class="cls-1" d="M603.45,1125.65c-1.4,4.11-4.34,5.86-7.15,7.81-5.35,9-12.41,18-18.58,27.73-5.47,8.6-10.81,21.65-22.13,22.37,4.4-11.94,13.72-16.47,17.17-29.86C584.12,1146.75,586.82,1120.84,603.45,1125.65Z"/><path class="cls-1" d="M582.8,1122.39c-8.89,10.59-14.76,25.74-22.52,38-7.19-6.73,3.89-18.44,5.4-26.68,5-1.71,5.27-10.63,10-12.79C579.36,1121.91,580.18,1120.36,582.8,1122.39Z"/><path class="cls-1" d="M1202.82,1257.29c-7.46,13.13-21.23,16.76-30.51,27.15-2.72-1-3.46,1-6.4-.37-4-5.71-10.26,3.46-11.78,7.8-9.44-5.56-1.35-9.41,5-15.64,12.58-12.29,17.08-17.26,26.21-15.07,1.12,2.07-.32,1.11-.73,3.56C1191.44,1264.12,1197.83,1246.12,1202.82,1257.29Zm-25.3,10.61"/><path class="cls-1" d="M756.43,1165.91c-1.82,8.64-12.86,15-20.71,19.89-8.58,5.36-19.34,9.18-30.46,13.27-5.26,1.93-9.78,4-17.28,3,2.27-7.43,11.49-4.36,15-9.94,19.94-4,34.74-15.73,49.2-28A5.88,5.88,0,0,1,756.43,1165.91Z"/><path class="cls-1" d="M929.71,1206.58c-2.8,9.71-12.91,8.4-17.84,14.91-5.64,1-11.45,4.4-17.11,6.71-5.15,2.12-11,6.24-16.2,2.28,4.4-6.16,13.8-8.2,21.92-12.22,7.62-3.79,15.29-10.33,21.93-12.23C924.48,1205.43,926.34,1206.19,929.71,1206.58Z"/><path class="cls-1" d="M826.87,1188.52c-6.22,11.36-22,17.37-34.77,20.74-.65-1.89-.28-4.43-.52-6.59a82.91,82.91,0,0,0,29.23-16.31C823.18,1186.85,826,1187.06,826.87,1188.52Z"/><path class="cls-1" d="M767.41,1189.43c-4.11,6.61-11.65,8-18.9,11s-16.2,9.43-26,9.54c-2.52-6.21,5-7,9.27-9.24a170.47,170.47,0,0,1,16.41-7.78C755,1190.27,760,1185.5,767.41,1189.43Z"/><path class="cls-1" d="M1144.41,1266.75c-2.71,6.92-9.57,11.66-15.35,16.34-11,8.9-22.19,18-35.66,25.19-3.05,1.62-7,2.67-10.17,4.42-5.88,3.21-8.31,7-16.92,5.83.66-2,.46-3.39-1.06-3.91a257.43,257.43,0,0,0,74.18-50.73C1142.31,1264,1142.65,1265.86,1144.41,1266.75Z"/><path class="cls-1" d="M1110.77,1263.63c-5.43,15.25-50.16,44-64.21,51.82-7.78,4.35-15.94,11.93-26,9.56,1-6.22,8.28-6.25,12.84-8.52,25.76-12.84,74.91-54.28,74.91-54.28A4.15,4.15,0,0,0,1110.77,1263.63Z"/><path class="cls-1" d="M778.22,1204.59c-10.61,9.55-26.87,10.57-40.27,15.92-2.76-4.63,1.3-10.62,7.33-8.7,9.22-4.68,19.54-7.69,29.22-11.67C776.09,1201.39,778,1202.44,778.22,1204.59Z"/><path class="cls-1" d="M1071.61,1265c.69,5.5-5.41,8.8-8.75,11.19-3.12,2.24-54.26,42.17-71.49,42,2.4-6.35,74.36-52.09,77.57-53.75Z"/><path class="cls-1" d="M789.4,1218c-4,3.29-11.12,6.55-16.56,4C773.16,1213.18,787.6,1210.39,789.4,1218Z"/><path class="cls-1" d="M995,1291.12c.64,11.35-11.08,13.25-15.36,21-10.48,3.33-68.13,32-77.87,32.38-4.14-10.67,80.06-33.2,84.15-54.25C988,1289.11,993,1288.65,995,1291.12Z"/><path class="cls-1" d="M919,1286.83c-8.73,16-66,41.39-82.89,48-4.34,1.7-7.75,3.18-13,4.78s-8.8-1.33,9.28-9.23c3.57-1.57,49.82-23.73,81.47-45.55C916.06,1285.19,918.16,1285.59,919,1286.83Z"/><path class="cls-1" d="M877.69,1289.57c-3.08,5.54-10,8-15.16,10.82-3.17,1.76-59.2,30.17-68.61,32.41-4.71,1.12-11.59,5-13.34-2.7,0,0,57.89-22.3,90.18-42.86C873.3,1287.87,876.69,1287.94,877.69,1289.57Z"/><path class="cls-1" d="M675.75,1253.29c-2.77,5.11-9.53,4.21-12.13,9.58-6.5,1.76-12.35,5.69-18.36,8.32-6.18,2.7-12.59,3.76-18.17,7.43-4.75-5.87,3.21-8,6.61-9.77,12-6.15,27-12.91,38.14-19.13C674.73,1249.87,675.25,1251.56,675.75,1253.29Z"/><path class="cls-1" d="M733.75,1264.11c1.48,2.83-1.76,2.25-3.39,3-40.41,19.25-68.09,32.86-75.71,26.33,25.3-9.45,48.32-22.35,73.23-32.38C730.37,1261.74,734.14,1261.55,733.75,1264.11Z"/><path class="cls-1" d="M933.73,1305.56C926.44,1319,865.89,1343.48,863,1344c-.21-1.92-4.05-1.43-3.91-3.57,0,0,56.67-28.11,70.58-37.57C931.89,1303.19,932.11,1304.83,933.73,1305.56Z"/><path class="cls-1" d="M1015,1324.81c-4.94,9.21-17,7.63-23.35,14.72-1.41-1.12-2.17-2.68-3.92-3.58-6.8,1.35-9.6,8.75-18.88,6.37-1.06-9.41,10.19-9.08,14.81-13.67,2.35-.18,3.83-.14,5.16,2C997.35,1329.44,1005.89,1317.47,1015,1324.81Z"/><path class="cls-1" d="M694.78,1259.92c-9.1,10-24,13.88-37.07,18.42-6.72,2.34-13.25,4.75-20,7.07-6.26,2.17-12.85,6.76-19.59,5.29,8.85-9.34,21.91-13.4,34.21-18.07s26-6,35.47-15C690.39,1258.22,693.77,1258.28,694.78,1259.92Z"/><path class="cls-1" d="M782.13,1281.33c-1.37,10.67-88.77,46.66-94.8,38.21,0,0,70.7-25.42,89.11-42.14C780.05,1277.57,780.79,1279.64,782.13,1281.33Z"/><path class="cls-1" d="M815.57,1290c-2.46,4.53-8.44,6.47-12.84,8.51-82.46,38.38-84.61,24.53-84.61,24.53,2.21-2.79,5.8-1.31,8.72-1.93C738.28,1318.63,805.43,1286.31,815.57,1290Z"/><path class="cls-1" d="M725.32,1287.42c-7.79,11.94-37.94,22.15-51.15,23.89-1.95.54-4.1.77-5.16,2.66-.87-1.22-1.1-2.86-4.09-2.68,8.14-10.93,41-11.64,51.87-27.46C721,1283.12,724.33,1283,725.32,1287.42Z"/><path class="cls-1" d="M821.4,1306.88c-2.1,7.43-40.11,18.59-47.76,20.88-5.63,1.69-12.42,5.13-18,1.92,0-5,4.53-3.23,7.31-4.08,2.07-1.91,4.32-3.55,8-3,13.26-7.5,29.44-10.59,42.6-18.23C815.88,1305.41,820.87,1304.67,821.4,1306.88Z"/><path class="cls-1" d="M1156.69,1123.84c-3.23.57-6.7-1.21-10-1.09-5.15.19-13.53,5.57-17.27-1.65,6.73-4.81,17.13-5,26.19-5.8,25.5-2.25,76.08-14.69,79.07-15.47,7.61-2,15.14-5.39,22.81-7.42,30.78-8.19,88-27.63,91-28.79s42.92-16.8,48.81-12.34c-.5,7-8.16,5.52-12.48,6.74C1327.52,1074.25,1303.61,1098.05,1156.69,1123.84Z"/><path class="cls-1" d="M1299.89,1162.12c.38-1,1-.31.89.18,5.71.48,6.85-5.93,12.3-5.85a120,120,0,0,1,17.84-14.91c.88-4.08,3.7-5.26,5.36-8.17,2.36.49,5.15.7,6,2.15-.36,1-.13,1.63.53,2-11.33,15.44-26.13,25.63-42.81,33C1296.27,1167.27,1301.11,1165.57,1299.89,1162.12Z"/><path class="cls-1" d="M693.77,1237.49c3.86-4.18,10.35-1.21,15-.67,141.59,16.37,172.11,23.28,261.11,14,117.64-12.25,117.34-19.14,159.73-25,94.51-31.24,91.16-31.84,94-25.4-1.16,8-68.19,24.89-82.85,29.53-6,1.88-11.08,2.56-17.45,3.86C865,1286.9,705.55,1245.64,693.77,1237.49Z"/><path class="cls-1" d="M929.9,1342.76c.93-6.13,41.17-22.35,46.69-20.18C974.09,1328,937.51,1352.27,929.9,1342.76Z"/><path class="cls-1" d="M1526.43,624.57c2.37.47,4.74,1,7.11,1.44.81,1.26.38,3.35-.18,5.52,0,1.21,5,1.15,6.75,3.22-.68,4.4-3.36,5.78-6.07,7.11-4.62,6.59-9.14,13.31-14.82,18.29-5.4-2.37-1.11-9.07.74-12.81-.76-2.83-5.69.87-6.93-2.33C1515.19,634.72,1524.5,635.21,1526.43,624.57Z"/><path class="cls-1" d="M590,1178.48c4.34-5.45,10.35-8.38,12.68-16.87,2.85-.73,4-4,8.72-1.94-1.24,14.83-15.88,19.37-21.25,31.81,6.68-1.92,6.74-13.83,16.93-10.46a2.48,2.48,0,0,0,1.24,3c-4,6-10.7,7.87-13.39,15.81-4.77-.59-1.94,5-6.24,3.36-3.84,9.7-15.87,13.22-16.79,23.46-4.37,1.15-4.87,2.94-10.33.69,8.33-12.22,17.93-22.52,27.14-33.4-6.2.38-9.14,10.37-16,6,.08-3.36,1.56-4.61,3-5.87-2.55.64-6.54,3.24-9.25,0,.24-.32,38.74-49.56,38.74-49.56,3.7-.16,6.71.07,8.72,2.69C605.25,1156.64,596.19,1165.43,590,1178.48Z"/></svg>