<svg id="Calque_1" data-name="Calque 1" xmlns="http://www.w3.org/2000/svg" viewBox="0 0 2000 2000"><defs><style>.cls-1{fill:#1a428a;}</style></defs><path class="cls-1" d="M736,530.58l28.33,2.95c6,.62,12,1,17.85,2,10.5,1.74,21,3.47,31.39,5.91,8.14,1.92,16,4.94,24,7.4,3.93,1.21,7.93,2.19,11.86,3.39,11.33,3.46,21.51,9.33,31.77,15,3.57,2,7.58,3.19,11.14,5.2,7.94,4.48,15.73,9.25,23.58,13.9,5.92,3.5,12,6.8,17.72,10.57,5.45,3.58,10.45,7.86,15.89,11.45,6.52,4.3,13.32,8.18,20,12.28a62.66,62.66,0,0,1,6.05,3.93c7.19,5.64,14.4,11.25,21.37,17.15,2.17,1.83,3.91,2,5.95.44,3.42-2.59,6.9-5.13,10.11-8,7.67-6.8,15.3-13.64,24.1-19a26.47,26.47,0,0,0,4.91-4.57c6.91-7.26,15.29-12.5,24-17.15a214,214,0,0,0,25.74-16.68c6.58-4.82,13.82-8.74,20.91-12.83,4.51-2.6,9.22-4.86,13.92-7.1q6.57-3.12,13.31-5.83c5.36-2.17,10.82-4.08,16.2-6.2,3.64-1.43,7.15-3.23,10.84-4.51,7.92-2.74,15.91-5.25,23.88-7.86a9.28,9.28,0,0,1,1.62-.45c14.34-1.65,28-6.3,42.13-9.07a86.2,86.2,0,0,1,13.37-1c7.65-.27,15.3-.35,23-.52a45.77,45.77,0,0,1,5.6-.19c12.46,1.23,25.06,1.07,37.35,4,3.25.78,6.68.82,10,1.46,4.75.91,9.45,2.05,14.16,3.1a16.27,16.27,0,0,0,3.27.76c8.76.12,16.86,3.06,25,5.87a81.51,81.51,0,0,1,11.22,5c10.37,5.48,20.67,11.09,31,16.72,14.86,8.12,27,19.9,40.07,30.39,7.09,5.69,13.25,12.6,19.45,19.3,8.87,9.58,17.32,19.55,26.09,29.22,6.45,7.12,11.39,15.18,16,23.52,4.25,7.66,9.29,14.91,13.11,22.77,4.71,9.68,10.43,18.94,12.9,29.68,1.62,7.09,4.27,13.93,6.36,20.91A48,48,0,0,1,1544,741c.73,5,1.52,9.91,4,14.5,1.09,2.05,1.27,4.66,1.55,7,1.08,9.27,2.13,18.54,3,27.83.91,9.49,2.28,19,2.25,28.5,0,17.39-.37,34.82-1.73,52.14-1.15,14.51-3.6,29-6.14,43.31-1.55,8.79-4.23,17.4-6.68,26-.8,2.81-2.52,5.35-3.76,8-.85,1.86-2,3.7-2.33,5.65-1,7.51-3.67,14.45-6.91,21.22a8.64,8.64,0,0,0-1,3.18c-.29,6.72-3.08,12.71-5.6,18.7-1.94,4.61-4.75,8.85-7.1,13.28a11.58,11.58,0,0,0-1.68,4.12c-.47,5.66-2.78,10.77-4.23,16.12-1.53,5.64-4.32,10.21-7.41,14.85a13.31,13.31,0,0,0-2.31,4.4c-1.31,6.59-4.86,12-8.22,17.67-1.72,2.85-2.64,6.18-4.27,9.09-5,8.95-10.19,17.78-15.27,26.68-3.6,6.31-6.86,12.85-10.8,18.94-5.36,8.29-11.58,16-16.81,24.41-8,12.77-18.53,23.4-27.77,35.11-9.48,12-18.91,24-28,36.37a79.93,79.93,0,0,1-12.06,13c-6.71,5.86-13.5,11.77-18.69,19.21a29,29,0,0,1-4.39,4.25c-10.29,9.5-20.53,19.07-30.94,28.45-2.46,2.21-5.62,3.64-8.24,5.71-5.56,4.4-10.73,9.34-16.52,13.4-6.43,4.51-12.16,9.81-18.28,14.65-13.85,11-28.4,21-42.64,31.5-6.75,5-13.35,10.15-20.16,15-5.74,4.13-11.77,7.87-17.5,12-12.39,9-24.59,18.18-37,27.09-11.35,8.15-22.7,16.36-34.42,24-9,5.85-18.52,11.07-28,16.08-11.35,6-22.8,11.79-34.52,17-10.54,4.66-21.14,9.31-32.64,11.52a37.93,37.93,0,0,0-13.58,5c-6.85,4.51-13.66,2.5-20.59,1.5-4.78-.68-9.49-1.94-14.28-2.45-6.73-.7-12.33-4.24-18.36-6.69-1.56-.63-3-1.7-4.6-2-10.39-2-19.87-6.32-29.36-10.69-6.93-3.19-13.95-6.19-20.73-9.66-6.46-3.31-12.61-7.21-19-10.68-4.74-2.58-9.64-4.87-14.43-7.34-2.46-1.27-4.9-2.6-7.27-4-5.9-3.55-11.77-7.12-17.6-10.78-2.21-1.38-4.21-3.11-6.41-4.5-10.24-6.43-20.56-12.72-30.75-19.23-5.18-3.32-10-7.23-15.21-10.44-7.74-4.73-15.73-9-23.58-13.59a36.22,36.22,0,0,1-4.63-3.14c-6.52-5.27-13-10.65-19.5-15.89-7.25-5.81-14.67-11.41-21.85-17.3-8.63-7.07-18.41-12.76-25.51-21.69-1.57-2-4.1-3.17-6.11-4.83-5.75-4.75-11-10.29-17.29-14.15-9.62-5.92-16.8-14.08-24-22.41-3.42-3.94-7.42-7.39-11.18-11-6-5.84-12.3-11.45-18.09-17.53-8.89-9.34-17.47-19-26.16-28.51-5.4-5.9-11-11.63-16.07-17.81-4.24-5.18-7.8-10.91-11.69-16.39q-3.89-5.44-7.83-10.83c-2-2.7-4.15-5.27-6-8-4.1-6-8-12.13-12.11-18.11-3.91-5.69-8-11.24-12-16.86a74.52,74.52,0,0,0-4.52-6.37c-6-6.78-10.08-14.67-14-22.72-3.8-7.68-8.15-15.1-12.25-22.64-2.92-5.39-6.43-10.45-8.08-16.53-.76-2.79-2.93-5.16-4.23-7.84-4.08-8.38-8.2-16.75-12-25.25-2.06-4.58-3.57-9.41-5.24-14.16-2.23-6.34-4.5-12.67-6.53-19.08-2.43-7.65-4.93-15.29-6.82-23.07-2.72-11.21-7.09-22.1-6.79-33.93a16.75,16.75,0,0,0-.8-5.54c-4-12.3-3.6-25.12-4.8-37.76-.75-8-1.77-16-2.68-24a24.32,24.32,0,0,1-.4-2.77c-.1-15.89-1.42-31.8,1-47.64.78-5.17,1.21-10.42,2.31-15.52,2.41-11.13,5.15-22.2,7.76-33.29.42-1.82,1.26-3.63,1.27-5.44,0-9,2.84-17.4,5.85-25.55,2.68-7.29,4.28-14.93,8.19-21.9,5.83-10.37,10.26-21.52,16-32,6-11.12,12.46-22.11,19.48-32.65a197.82,197.82,0,0,1,26.37-31.86,163.74,163.74,0,0,1,26-21.08c8-5.12,16.24-9.84,24.26-14.91,5.35-3.38,10.34-7.35,15.8-10.52,8.85-5.15,17.79-10.08,28-12.41,5.75-1.31,11-4.56,16.71-6.3,14.44-4.4,28.35-10.31,43.24-13.6C702.33,531.52,716.79,531.2,736,530.58Zm615.61,695.15c2.25-1.87,4.64-3.59,6.72-5.63,8.48-8.37,17.23-16.52,25.19-25.36,9.69-10.78,19-22,27.91-33.38,8-10.22,15.38-21,23-31.51.92-1.27,1.38-2.67-.66-4.11-2.21,2.27-4.59,4.44-6.66,6.88-4.8,5.64-9.49,11.38-14.14,17.14a46.47,46.47,0,0,0-5.16,7.15,58.86,58.86,0,0,1-12.92,16.26c-.22-1.92-.8-3.23-.37-3.94,2.17-3.64,4.61-7.13,7-10.67,1.85-2.78,3.66-5.59,5.57-8.33,4.13-6,7.83-12.29,12.57-17.71,7.9-9,14.07-19.16,20.14-29.42,5.48-9.28,11.27-18.37,16.92-27.55,3.89-6.32,8.27-12.4,11.53-19,4.09-8.32,7.26-17.09,10.84-25.66a18.65,18.65,0,0,1,1-2c3.4-6,7.49-11.61,8.22-18.76a9,9,0,0,1,1-2.6c3-6.39,6.16-12.72,9-19.18,1.88-4.24,3.35-8.66,5-13,2.42-6.44,5.24-12.75,7.15-19.34,3.49-12,6.49-24.11,9.6-36.21,4.41-17.22,6.91-34.81,9.72-52.32,1.06-6.63,1.19-13.41,1.8-20.12.19-2.06-.19-4.43,2.79-6.16.45,3.09,1.16,5.63,1.12,8.17-.16,11.22-.52,22.45-.87,33.67a11.47,11.47,0,0,1-.8,4.38c-3.45,7.23-2.76,15-3.11,22.61-.07,1.46.57,3,1.13,5.58,1.16-1.75,1.75-2.28,1.89-2.91,1.57-7.3,3.74-14.54,4.44-21.93,1-10.22.74-20.55,1.23-30.82.25-5.39.33-10.91,1.64-16.08a30,30,0,0,0,.9-12.12,66,66,0,0,1-.65-7.82c-.37-12.72-.6-25.44-1-38.15-.66-19.39-3.87-38.29-10.9-56.47-2.87-7.45-5.21-15.12-8.2-22.52a126.24,126.24,0,0,0-7.77-16c-5.16-8.85-10.67-17.5-16.2-26.13-4.33-6.74-8.62-13.55-13.48-19.91-4.28-5.61-9.56-10.45-14-16a261.06,261.06,0,0,0-30.38-31.28c-14.67-13-31.4-23.16-48.75-32.25-3.29-1.73-6.54-3.58-10-5-6.69-2.85-13.46-5.49-20.23-8.14q-9.1-3.57-18.27-7c-8.82-3.28-18.06-4.76-27.32-6.12-14.42-2.11-28.78-4.72-43.24-6.43-15.85-1.88-31.15,3.07-46.71,4.87a10.7,10.7,0,0,0-1.59.55c-3.24.9-6.47,1.82-9.71,2.67-8.32,2.19-16.79,3.91-24.92,6.65-6.3,2.13-13.16,3-18.71,7.19a3.39,3.39,0,0,1-1.61.44c-6.35.64-11.57,4.12-17,7-7.24,3.81-14.29,8-21.32,12.21-6.72,4-13.31,8.23-20,12.34-5.87,3.62-11.66,7.36-17.66,10.76s-12.41,6.05-18.2,9.73c-8.63,5.5-17,11.47-25.27,17.5-6.48,4.72-12.67,9.84-19,14.77-7.47,5.82-15.95,10.28-22.51,17.32-3.56,3.83-7.94,4.06-12.08,1.11-4.55-3.23-9.08-6.49-13.52-9.87-9.8-7.45-19.45-15.1-29.33-22.45-5.52-4.11-11.32-7.85-17.09-11.62-8.88-5.8-17.84-11.46-26.76-17.2-3.61-2.32-7.08-4.87-10.8-7-6.63-3.76-13.31-7.49-20.16-10.83-4.84-2.36-10.06-3.94-15-6.06-9.41-4-18.66-8.45-28.17-12.23-8-3.17-16.14-5.9-24.36-8.37a162.46,162.46,0,0,0-22.29-5.46c-11.82-1.76-23.76-2.77-35.67-3.87-10.4-1-20.85-2.47-31.07,1.43-1.71.65-3.68.64-5.53.93-5.35.85-10.71,1.74-16.07,2.53-6.67,1-13.32,2.24-20,2.7-6.91.49-13.46,1-20.08,4-9.14,4.09-19,6.48-28.52,9.82a95.41,95.41,0,0,0-10.66,4.86,111.7,111.7,0,0,0-11.86,6.27c-8.72,5.7-17.24,11.72-25.85,17.6-4.45,3-9,6-13.35,9.13-2.25,1.64-4.1,3.79-6.27,5.54-4.66,3.74-9.62,7.12-14.06,11.08a197.64,197.64,0,0,0-26,27.65,259.78,259.78,0,0,0-20.67,31.21c-6,10.73-13.23,20.82-17.48,32.5-1.91,5.24-5.39,10.35-5.69,15.66-.53,9.33-4.28,17.49-7.65,25.62-6,14.51-9.5,29.48-11.6,44.91-2,14.77-1.53,29.87-5.73,44.37a5.57,5.57,0,0,0,.07,2.22c.68,5,1.44,10,2.08,15,.83,6.47,1.86,12.94,2.31,19.45.79,11.37.72,22.77,3.78,33.94a193.85,193.85,0,0,1,5.16,25.25c1.1,8.19,2.36,16.22,5.62,23.89,5.39,12.71,8,26.42,13.9,38.95,1.43,3,3,6,4.62,8.93,4.22,7.45,8.45,14.9,12.85,22.25,3.44,5.76,7.16,11.34,10.69,17,4,6.41,7.89,12.87,11.87,19.28.11.18.68.07,1,.09,1.34-3.79,1.28-4.73-.48-7.66a31.12,31.12,0,0,1-2.26-3.84c-2.74-6.48-5.39-13-8.06-19.5-.82-2-1.75-4.06.85-6.51,3.81,6.38,7.54,12.32,11,18.42,4.82,8.61,9.38,17.36,14.12,26,1.69,3.1,3.53,6.11,5.35,9.14,2.1,3.49,4.06,7.08,6.41,10.39,7.23,10.17,14.74,20.13,21.89,30.36,6,8.52,11.51,17.33,17.33,26,4,5.86,8.1,11.6,12.09,17.44,3,4.42,5.87,9,8.93,13.35a63.49,63.49,0,0,0,4.39,5c4.16,4.8,8.16,9.74,12.48,14.38,10,10.79,20,21.69,30.49,32,6.44,6.36,12.44,13.37,20.48,18,.49.29.66,1.14,1.61,2.91-2.57-.44-4.27-.32-5.51-1a54.75,54.75,0,0,1-7.23-5q-7.38-5.87-14.57-12a31.61,31.61,0,0,1-5.48-5.61c-5.77-8.23-13.59-14.46-20.64-21.45-.31-.3-1.29.06-2.08.12.1.88,0,1.57.25,1.92,4,4.88,7.89,9.87,12.15,14.51,3.51,3.81,7.82,6.91,11.16,10.84a250.81,250.81,0,0,0,27.64,27.39c11,9.5,22.76,18.27,32.9,28.61,20.51,20.93,43.7,38.54,66.86,56.22,8.75,6.67,18,12.72,26.88,19.16a194.24,194.24,0,0,0,24.68,15.34c6,3.08,11.69,6.58,17.51,9.92,6.78,3.9,13.46,8,20.33,11.71,10.15,5.5,20.73,10.25,30.59,16.21,13.27,8,27.25,14.64,41.06,21.57,3.67,1.84,7.54,3.25,11.29,4.91,9,4,18.24,7.65,27,12.16,10,5.17,20.4,8.31,31.7,7.65a18,18,0,0,0,7.36-2.26c6.51-3.59,12.73-7.72,19.27-11.25,9.32-5,18.85-9.71,28.27-14.57,3.3-1.71,6.51-3.6,9.84-5.27,7.48-3.76,15-7.34,21.89-12.28,6.47-4.65,12.74-9.83,20.79-11.83,1.37-.34,2.5-1.59,3.77-2.35,3.36-2,6.51-4.77,10.16-5.81,4.9-1.4,8.64-4.28,12.55-7.12,1.8-1.31,3.62-2.63,5.53-3.77,6.1-3.6,12.3-7,18.37-10.68,10-6.06,20-12.22,30-18.39,3-1.87,6-3.85,8.84-5.93,11-8,21.45-16.67,32.8-24.22,8.49-5.65,16.25-12.41,24.22-18.83,4.65-3.74,9-7.87,13.63-11.62s9.51-6.67,13.75-10.56c8.67-7.95,17.19-16.1,25.38-24.54,9.11-9.37,17.86-19.09,26.6-28.81,2.84-3.15,5.15-6.78,7.7-10.2Zm166.8-271.63c-1.28,5.4-2.78,10.5-5.93,14.95-.4.57-.3,1.46-.52,2.17-1.75,5.82-5.69,10.87-6,17.21,0,.31-.46.59-.6.92a46,46,0,0,0-2.6,6.63c-.57,2.39-.82,4.76-3.06,6.35a4.71,4.71,0,0,0-1.65,2.19c-1.68,4.87-6.11,8.51-6.19,14.13,0,.93-1.21,1.81-1.75,2.77a22.72,22.72,0,0,0-2,3.93c-1.86,5.61-5.07,10.62-6.72,16.4-.88,3.1-2.79,6-3.13,9.42a6.48,6.48,0,0,1-1,2.58q-3.82,6.35-7.75,12.64c-2.63,4.21-5.23,8.43-8,12.53-1.56,2.29-2.25,4.47-.64,8.11,2.87-4.06,5.43-7.32,7.58-10.84,4-6.46,7.79-13,11.42-19.64,2.66-4.86,5-9.9,7.3-14.93,1.39-3,2.44-6.19,3.72-9.25,2-4.79,4.12-9.52,6-14.34,1.86-4.63,3.54-9.34,5.34-14a2.9,2.9,0,0,1,.93-1.37c4.8-3.27,5.86-8.95,8.11-13.64,3.6-7.52,6-15.63,8.78-23.51C1521.52,961.57,1522.24,957.64,1518.39,954.1ZM613.32,1205.37c.1-1.69.48-2.7.16-3.38-1.92-4.08-49.22-67.25-53.67-70.23-.94,3-1,3-.3,4.5,3.8,8,9.14,14.88,14.55,21.74,5.75,7.29,11.91,14.3,17.23,21.88C597.57,1188.83,603.94,1197.6,613.32,1205.37Zm-76.71-128.16-1.35.18c.06,1.36-.33,3,.27,4,1.9,3.34,4.19,6.46,6.29,9.7,2.4,3.7,4.66,7.5,7.17,11.13,2.11,3.06,4.48,5.94,7,9.26,2.33-3.23,1-5.36-.3-7.34-2.46-3.87-5-7.7-7.65-11.43C544.31,1087.5,540.43,1082.37,536.61,1077.21Zm22.44,35.3-.86.79c3.45,8.74,10.3,15.51,14.83,23.64,1.54,2.78,4.46,4.79,7.2,7.62.31-1.42.8-2.29.55-2.73-2-3.5-4-7-6.21-10.34-4.18-6.2-9.93-11.24-13.31-18.06C561,1112.89,559.81,1112.8,559.05,1112.51Zm894.58-18.46c-1.07.6-1.88.78-2.21,1.27-3.07,4.77-6.12,9.57-9.05,14.42-1,1.72-1.81,3.63.33,5.45,2.3-3.37,5.37-6.25,6.33-9.71C1450.1,1101.59,1455.41,1099.78,1453.63,1094.05ZM668.31,1262.33c.56,3.65,3.92,6.43,8.4,7.23C674.9,1266.12,673,1263.11,668.31,1262.33ZM554.12,1123.41c-.2,2.45-1.22,5.32,3,6C557.7,1126.5,557.2,1124.41,554.12,1123.41ZM1527.2,928.62c2.41-4.75,2.41-4.75,0-8.57Zm-4.88,16.74,1.65,0v-6.82l-1.32,0Zm-82.6,173.39-1.91-.38-.58,3.92,1.43.31C1439,1121.32,1439.37,1120,1439.72,1118.75Zm-907.3-48.22-1.53.34.9,3,1.12-.29C532.75,1072.55,532.58,1071.54,532.42,1070.53Zm-9.89,3.64c-.64,1-1.27,1.56-1.21,2s.72,1,1.12,1.55c.42-.44,1.13-.86,1.17-1.34S523.11,1075.28,522.53,1074.17Zm933.66,17.38,1.56.21c.08-1,.15-2,.22-3l-1.21-.13ZM618.82,1209.09c-.79-1.06-1.08-1.72-1.59-2a1.79,1.79,0,0,0-1.35.37,2.68,2.68,0,0,0,.48,1.85C616.67,1209.56,617.53,1209.22,618.82,1209.09Z"/><path class="cls-1" d="M1480.54,864.76c-1.5,9.8-2.85,18.82-4.29,27.82-.3,1.84-1.25,3.59-1.4,5.42-.76,9.41-3.32,18.48-6.42,27.22-2.52,7.11-4.2,14.58-8.24,21.28-2.62,4.33-3.11,9.9-5,14.73-2.37,6.06-5.06,12-7.87,17.86-3.62,7.56-7.5,15-11.27,22.49-2,4-4,8-6.07,12-2.66,4.92-5.44,9.78-8.23,14.63-.74,1.28-1.79,2.37-2.55,3.63-.94,1.55-2.39,3.17-2.44,4.8-.15,5-2.58,9-5.12,12.84-6.39,9.63-13.06,19.08-19.69,28.56q-6.09,8.7-12.38,17.27c-9.29,12.62-18.34,25.43-28.08,37.69-6.15,7.73-13.4,14.59-20.09,21.9-10.57,11.57-20.93,23.34-31.71,34.71-4.73,5-10.36,9.1-15.47,13.73-9.68,8.75-19.08,17.84-29,26.31A141.39,141.39,0,0,1,1236.6,1243c-10.44,6.31-19.69,14.08-29,21.81-5.88,4.87-11.74,9.79-17.91,14.28-8.12,5.9-16.55,11.36-24.79,17.09-5.5,3.81-10.86,7.82-16.35,11.64a72.44,72.44,0,0,1-9,5.61c-1.59.78-3.69.53-6.67.87,1-1.9,1.26-2.93,1.88-3.32,11.11-6.84,20.9-15.44,31.25-23.28,10.7-8.1,21.47-16.1,32-24.37,6.76-5.29,13-11.19,19.82-16.45,7.51-5.83,15.33-11.25,23-16.84a51.05,51.05,0,0,0,4.53-3.26c15.33-14,30.88-27.67,45.83-42,10.64-10.21,20.49-21.24,30.64-32,5.52-5.81,11.19-11.52,16.34-17.65,7.67-9.12,15-18.55,22.36-27.92,3.23-4.1,6.27-8.36,9.33-12.6,7.73-10.73,15.56-21.39,23.08-32.27,5.28-7.64,9.56-16,15.32-23.29,4.6-5.78,7-12.11,9.12-18.92.86-2.8,2.75-5.27,4.13-7.91,4.13-7.91,8.36-15.77,12.34-23.76s7.57-16.2,11.58-24.19c2.31-4.62,5.16-9,7.63-13.54a12.15,12.15,0,0,0,1.8-5.07,28.4,28.4,0,0,1,3-11.24,124.26,124.26,0,0,0,5.37-15.3c1.72-5.51,3.41-11.06,4.7-16.69,2.3-10,4.3-20,6.42-30.06a42.56,42.56,0,0,1,1-4.37C1476,866.13,1476.05,866.17,1480.54,864.76Z"/><path class="cls-1" d="M1519.24,854.83a27.56,27.56,0,0,1,.63,5.22c-.24,3.54-.73,7.07-1.26,10.58-.81,5.33-1.88,10.63-2.59,16-.66,5-1.2,9.92-3,14.76-1.41,3.76-1.14,8.11-1.91,12.14-.79,4.2-1.91,8.33-2.91,12.49-.43,1.81-.87,3.62-1.38,5.42-1.83,6.45-3.53,12.94-5.62,19.31a59.43,59.43,0,0,1-4.27,9.07c-4.56,8.7-7,18.45-13,26.44a11.55,11.55,0,0,0-1.66,4.11c-1.37,5.24-2.3,10.62-4,15.74a101.68,101.68,0,0,1-5.9,13.26c-2.52,5-4.92,10.08-8.15,14.57-6.5,9-9.46,19.76-14.62,29.41-7.55,14.14-15.4,28-25.36,40.72-5.85,7.45-10.63,15.75-15.9,23.65-3.93,5.89-7.7,11.9-11.88,17.61-7.15,9.79-14.49,19.45-21.92,29a106.39,106.39,0,0,1-9,9.92c-8,8-16.14,16-24.35,23.84-10.14,9.68-20.17,19.49-30.71,28.71-8.41,7.36-17.48,14-26.33,20.8-9.14,7.07-18.28,14.15-27.61,21-5.86,4.27-12.06,8.08-18.13,12.06-6.37,4.17-12.71,8.4-19.18,12.41-3.45,2.14-7.14,3.91-10.77,5.75-.56.28-1.38,0-2.21,0,0-.78-.22-1.58,0-1.77,13.85-10.61,27.17-21.9,41.88-31.39,6.4-4.11,12-9.49,18-14.18,7.81-6.07,15.84-11.85,23.53-18.07,8.26-6.68,16.32-13.61,24.28-20.65q10.92-9.65,21.4-19.77c8.32-8.07,16.11-16.7,24.64-24.54,9.75-9,16.75-20,24.51-30.48,3-4,6.29-7.86,9.15-12,4.67-6.75,9-13.71,13.62-20.48,5.45-8,11.15-15.84,16.55-23.88,3.94-5.88,7.5-12,11.37-18,6.38-9.81,10.64-20.86,18.35-30,2.63-3.1,3.38-7.77,5.09-11.69,1.85-4.26,3.83-8.46,5.73-12.69,3.43-7.64,6.68-15.37,10.33-22.9,1.93-4,4.64-7.6,6.84-11.46a9.71,9.71,0,0,0,1.64-4.63c-.14-7.06,3.47-13,5.77-19.21,1.93-5.22,4.63-10.16,7-15.23a2.57,2.57,0,0,0,.21-.52c3.27-14,9.67-27.11,10.9-41.62a13.94,13.94,0,0,1,1-4.93c3-6.05,2.9-12.69,4-19.11,1.33-7.54,2.94-15,4.49-22.53a11.13,11.13,0,0,1,1.11-2.38Z"/><path class="cls-1" d="M1453.22,1019.57c-4,6.61-8,13.26-12.07,19.82-.87,1.4-2.29,2.45-3.26,3.79-.84,1.16-2.05,2.54-2,3.78.31,6.74-3.82,11.69-7,16.72-7.94,12.38-16.57,24.32-24.84,36.49-4.61,6.78-8.79,13.87-13.65,20.46-5.2,7-11,13.64-16.51,20.49-6.64,8.29-13,16.8-19.88,24.91-7.47,8.82-15.39,17.27-23.08,25.91-4.59,5.15-9,10.46-13.74,15.47a77.56,77.56,0,0,1-8.45,7.29c-8.65,6.78-17.43,13.4-26.06,20.22-4,3.11-7.54,6.67-11.48,9.8-7.42,5.88-15,11.6-22.47,17.38a21.65,21.65,0,0,0-3.07,2.44c-8.52,9.39-19.15,15.92-29.71,22.67-13,8.33-25.42,17.6-38.46,25.88-11.37,7.21-21.66,15.85-32.64,23.54-6.08,4.26-12.78,7.63-19.19,11.41s-12.75,7.68-19.22,11.34c-4.67,2.65-9.52,5-14.27,7.49-1.48.78-2.89,1.69-4.37,2.47-1.81,1-3.66,1.8-6.11.08,3-2.43,5.64-4.84,8.55-6.84,4.9-3.36,9.94-6.51,15-9.63,6.16-3.81,12.47-7.37,18.59-11.25s12.15-7.94,18.1-12.1c5.49-3.85,10.79-8,16.22-11.91,11.62-8.42,23.1-17.06,35-25.12,8.77-6,18.35-10.75,27-16.81,6.85-4.77,12.8-10.82,19.32-16.08,10.6-8.54,21.37-16.88,32-25.36,3.93-3.13,7.69-6.47,11.59-9.63,9.13-7.4,18.49-14.53,27.38-22.2,4.34-3.75,7.85-8.46,11.69-12.77,1.74-2,3.07-4.4,5.1-5.92,9.46-7.07,15.14-17.43,22.92-26,5.28-5.78,10.26-11.84,15.16-17.95,6.65-8.28,13.1-16.72,19.63-25.1,3.43-4.41,7.06-8.69,10.22-13.3,7.68-11.2,15.13-22.56,22.69-33.84q7.77-11.58,15.57-23.12c.62-.92,1.69-1.82,1.74-2.78.52-9,7.63-14.22,11.88-21,.86-1.38,3.25-1.81,4.93-2.68Z"/><path class="cls-1" d="M1410.53,923.78c2.31,4.38,1.08,7.76-.44,11.18-1,2.18-1.78,4.44-2.66,6.66-1.72,4.32-3.2,8.75-5.22,12.92s-4.7,8-6.89,12.1c-1.66,3.11-2.9,6.44-4.52,9.58q-8.31,16.13-16.79,32.19c-1.13,2.14-2.53,4.12-3.8,6.19-3.32,5.38-6.42,10.89-10,16.09-2.51,3.65-5.84,6.73-8.47,10.31-3,4-5.32,8.51-8.31,12.52-5.68,7.61-11.48,15.15-17.49,22.5-10.28,12.56-20.55,25.13-31.23,37.34-5.76,6.57-12.43,12.32-18.56,18.56-6.92,7-13.67,14.26-20.52,21.37a310,310,0,0,1-22.87,21.35c-11,9.27-21.13,19.49-31.8,29.13-9.8,8.85-19.06,18.29-29.85,26.07-6.63,4.79-12.36,10.81-18.87,15.77-10.06,7.67-20.48,14.86-30.67,22.36-6.9,5.07-13.57,10.45-20.52,15.46-6.44,4.64-12.64,9.71-20.19,12.63-2.13.82-4.11,2-6.17,3l-.7-1c1.76-1.94,3.29-4.16,5.31-5.78,10-8.06,20-16.1,30.22-23.87,6.66-5.06,13.8-9.48,20.51-14.48,7-5.23,13.87-10.69,20.62-16.26q16.17-13.31,32.1-26.93c5.93-5.09,11.58-10.51,17.25-15.89,6.74-6.41,13-13.36,20.12-19.34,19.31-16.26,36.9-34.22,54-52.76,8.47-9.21,17.69-17.73,26.3-26.82,4.34-4.6,8.08-9.78,12.08-14.69q11.14-13.66,22.26-27.33c4-4.92,7.41-10.41,12-14.7s7.71-8.74,9.31-14.78c.88-3.32,3.35-6.19,5-9.32,4.53-8.54,8.9-17.17,13.55-25.65,3.93-7.17,8.19-14.16,12.26-21.26,1.76-3.07,3.32-6.25,5.11-9.3,3.19-5.45,6.71-10.72,9.65-16.3,2.57-4.88,4.51-10.09,6.78-15.13C1408.88,926.42,1409.59,925.41,1410.53,923.78Z"/><path class="cls-1" d="M1050.39,1332.51c.53-1.15.6-1.68.85-1.79,10.41-4.55,19.33-11.64,29.22-17.12,8.77-4.86,16.91-10.84,25.4-16.22,6.3-4,12.81-7.62,19-11.7,3.88-2.55,7.34-5.72,11.12-8.44,4.23-3,8.69-5.74,12.87-8.83,10-7.42,19.95-15,30-22.48,7-5.23,14.4-10,21.1-15.6,9-7.52,17.51-15.64,26.23-23.51,7.19-6.5,14.48-12.89,21.54-19.52q16.71-15.71,33.17-31.67c8.71-8.41,17.4-16.84,25.93-25.44,3.14-3.16,5.65-6.93,8.67-10.22,11-11.94,22.35-23.59,33.09-35.77,5.88-6.67,10.83-14.17,16.17-21.33,3.89-5.21,7.68-10.5,11.59-15.71,2-2.67,4.45-5.06,6.2-7.88,3.53-5.66,8.57-9.71,13.61-14.31,1.89,2.3,1,3.92-.24,5.65q-6.48,8.72-12.83,17.52c-5.64,7.87-11.39,15.66-16.74,23.72-6,9.06-13.46,16.87-20.67,24.9-9,10-17.8,20.11-26.83,30q-12.61,13.86-25.56,27.41-7.33,7.71-15.11,15c-9.52,8.92-19.21,17.66-28.79,26.5-7.69,7.1-15.29,14.28-23,21.35-8.8,8.06-17.41,16.36-26.6,23.94-7.17,5.91-15.18,10.78-22.7,16.28-7.83,5.73-15.4,11.8-23.29,17.44s-16.29,11.14-24.49,16.63c-7.88,5.29-15.73,10.65-23.76,15.72-7.07,4.48-14.2,8.9-21.59,12.82-8.18,4.34-16.65,8.13-25,12.06A11.57,11.57,0,0,1,1050.39,1332.51Z"/><path class="cls-1" d="M1391.09,749.19c3,.35,3.11,2.2,3.14,3.83.18,12.9.59,25.83-3.61,38.33a34.09,34.09,0,0,0-1.15,4.33,180.9,180.9,0,0,1-8.91,30c-2.43,6.44-4.15,13.15-6.52,19.61-2.12,5.76-4.65,11.38-7.09,17-1.92,4.44-3.76,8.94-6,13.22-5.27,10-10.74,20-16.17,29.91-2.23,4.08-4.75,8-6.84,12.16a323.46,323.46,0,0,1-18.73,32.37c-4,6.05-7,12.72-10.6,19-2.4,4.19-4.92,8.26-9,11.3a16.51,16.51,0,0,0-5.48,8.26,30.91,30.91,0,0,1-5.08,9.19c-9.47,12-18.7,24.27-29,35.53-5,5.5-9.27,11.5-14,17-10.26,11.83-21.84,22.54-33.14,33.43-4.5,4.35-9.65,8-14.62,11.86-.84.66-2.23.6-3.84,0,2.06-2.23,4-4.52,6.17-6.67,9.66-9.76,19.44-19.4,29-29.26,3.36-3.46,5.85-7.8,9.39-11,6.53-6,11.19-13.24,16.32-20.27,7.37-10.1,15.59-19.56,23.07-29.56,4.37-5.84,8.33-11.94,14-16.66a6.5,6.5,0,0,0,1.91-3.33c1.14-4.91,4.19-8.69,7-12.66,2-2.89,4-5.85,5.75-8.92,7.07-12.46,14-25,21.08-37.45,5.37-9.38,11-18.58,16.44-27.92,1.86-3.21,3.52-6.56,5.11-9.92,4.84-10.28,9.79-20.5,14.3-30.91,2.44-5.63,4-11.63,6.09-17.41,2.39-6.66,5.13-13.2,7.33-19.92,2.48-7.61,4.54-15.36,6.74-23.06.51-1.79.82-3.64,1.22-5.47,1.13-5.27,2.52-10.5,3.31-15.83s.94-10.8,1.46-16.2A26.4,26.4,0,0,1,1391.09,749.19Z"/><path class="cls-1" d="M1013.72,1448.68c2.33-2.2,4-4.25,6.07-5.62,3.1-2,6.58-3.48,9.81-5.32,10.48-6,20.91-12.08,31.38-18.1,2.75-1.58,5.6-3,8.37-4.54,11.2-6.24,22.08-13.17,33.68-18.54,10-4.65,18.91-11.14,28.59-16.3,5.89-3.14,11.08-7.53,16.7-11.2,6.23-4.07,12.55-8,18.91-11.89,8.4-5.14,17.22-9.51,25.21-15.42,8.81-6.53,18.48-11.9,27.53-18.13,4.89-3.36,9.07-7.74,13.91-11.18,6.21-4.41,12.82-8.26,19.15-12.51a75.78,75.78,0,0,0,7.87-6.2c1.34-1.19,2.78-2.68,4.2-1.12.81.89.48,3,.28,4.55a4.19,4.19,0,0,1-1.59,2.21c-10.29,8.57-20.4,17.35-31,25.54-6.73,5.2-13,11.24-21.52,13.82-1.86.56-3.37,2.28-5,3.5-5.54,4.1-11,8.37-16.63,12.27a88,88,0,0,1-10.68,6,236.18,236.18,0,0,0-30.94,19c-9.58,6.74-19.64,12.83-29.73,18.81-4.44,2.64-9.49,4.25-14.22,6.44-3.2,1.49-6.39,3-9.45,4.79-6.93,4-13.75,8.09-20.67,12s-14,7.79-20.94,11.72-13.83,8-20.85,11.85a107.49,107.49,0,0,1-11.18,5.12C1018.58,1451.21,1018.25,1451,1013.72,1448.68Z"/><path class="cls-1" d="M706.66,1268.71c3.89,2.94,7.78,5.9,11.69,8.83,5.79,4.34,11.67,8.57,17.37,13,8.65,6.79,17.12,13.83,25.79,20.6,5.28,4.12,10.79,7.94,16.2,11.89,5.57,4.07,11.11,8.16,16.69,12.19,11.62,8.39,23.17,16.88,34.94,25,5.65,3.92,11.79,7.12,17.61,10.8,3,1.89,5.64,4.31,8.65,6.17,7.1,4.38,14.26,8.69,21.53,12.8,10.36,5.85,21.43,10.34,31.42,16.94,4.16,2.75,8.94,4.55,13.4,6.86,3.95,2.05,7.84,4.23,11.77,6.32a27.07,27.07,0,0,0,4,1.93c6.17,2.09,12.45,3.87,18.53,6.18a51,51,0,0,1,9.31,5.08,3.62,3.62,0,0,1,1.3,3.16,3.46,3.46,0,0,1-3,1.54,90.36,90.36,0,0,1-9.62-2.81c-1.23-.41-2.33-1.53-3.54-1.61-6.93-.41-12.73-4.15-19.07-6.29-3.3-1.11-6.3-3.15-9.38-4.88-7.28-4.09-14.44-8.39-21.79-12.33s-15-7.39-22.31-11.38c-6.67-3.64-13.12-7.68-19.61-11.64-5.56-3.4-11.13-6.8-16.52-10.46-10.46-7.11-20.78-14.44-31.19-21.63-8.27-5.7-16.6-11.3-24.88-17-5.38-3.69-10.65-7.55-16.11-11.12-12.54-8.23-22.85-19-33.84-29a85.28,85.28,0,0,0-9-6.59c-6.13-4.26-12.11-8.7-16.76-14.63-1.73-2.21-3.11-4.72-4.64-7.1Z"/><path class="cls-1" d="M1325.92,1037c1.62,3.14.8,5.4-.45,7.76-8.52,16-21,28.85-33.62,41.57-10.25,10.33-20,21.16-30.22,31.51-9.13,9.24-17.37,19.34-27.5,27.64-5.15,4.22-9.55,9.4-14.06,14.35-7.84,8.62-17.17,15.46-26.3,22.53-13.83,10.7-27.64,21.43-41.74,31.78-10,7.35-19.75,15.11-30.86,20.89-2.71,1.4-4.63,4.58-8.45,2.4.15-.48.14-1.18.46-1.41,3.48-2.45,7.13-4.66,10.5-7.24q18.36-14.07,36.57-28.34c10.25-8,20.12-16.56,30.65-24.21,12.3-8.94,22.57-19.93,33.24-30.58,8-8,16.59-15.49,24.64-23.49,7.25-7.21,14.07-14.84,21.16-22.22s13.9-14.54,21.1-21.55c6.55-6.36,13.06-12.67,18.21-20.31,3.1-4.61,6.88-8.77,10.31-13.17,1.36-1.75,2.53-3.64,3.87-5.41A28.77,28.77,0,0,1,1325.92,1037Z"/><path class="cls-1" d="M743.54,1240.9c3.9,3.06,7.79,6.13,11.71,9.17,2.78,2.16,5.62,4.23,8.38,6.41,6.71,5.3,13.37,10.65,20.07,16q8.29,6.57,16.63,13.11c7.34,5.74,14.55,11.67,22.12,17.1,6,4.34,12.5,8,18.76,12.07,2.35,1.5,4.58,3.2,7,4.61,4.63,2.71,9.48,5.06,14,8,5.32,3.4,10.31,7.31,15.57,10.82,4.32,2.88,8.82,5.5,13.24,8.23,4.75,2.94,9.43,6,14.27,8.75,3.38,2,6.94,3.61,10.5,5.24,4.72,2.15,9.59,4,14.28,6.25,3.67,1.76,7.22,3.8,10.7,5.92,5.2,3.16,9.84,7.1,15.89,9,3.65,1.15,6.72,4.16,10.4,6.55-2.78,2.29-5.32,1.86-7.69.75-4.87-2.27-9.66-4.69-14.41-7.19s-9.41-5.24-14.15-7.78c-1.8-1-3.72-1.68-5.59-2.5-6.28-2.73-12.75-5.1-18.8-8.29-9.68-5.11-19.15-10.63-28.56-16.25-5.1-3-9.83-6.73-14.8-10a133.17,133.17,0,0,0-11.85-7.34A258.08,258.08,0,0,1,819,1309.54c-8.76-6.29-17-13.35-25.32-20.22-8.64-7.1-17.21-14.28-25.65-21.62-6.18-5.37-12.06-11.07-18.14-16.56a36.5,36.5,0,0,0-4.86-3.71c-2.4-1.55-2.57-3.73-2.7-6Z"/><path class="cls-1" d="M736.12,1211.87c1,.07,2.2-.21,2.88.28,7.54,5.35,15,10.82,22.48,16.27,4.22,3.06,8.47,6.08,12.62,9.25,5.45,4.17,10.74,8.55,16.22,12.67,7.59,5.72,15.26,11.32,22.95,16.91,8,5.79,15.85,11.7,24,17.19,6.16,4.13,12.75,7.63,19.1,11.49,1.74,1,3.29,2.41,5,3.56,10,6.78,20.07,13.48,30,20.34,4.75,3.27,9.29,6.84,14,10.21,3.16,2.27,6.29,4.64,9.64,6.6,6.87,4,13.94,7.71,20.81,11.74,3.36,2,6.4,4.47,9.7,6.54,3.91,2.45,8,4.67,11.91,7.06a33.41,33.41,0,0,1,3.16,2.53c-3.09,2.26-5.47,1.11-7.74-.07-8.23-4.26-16.58-8.31-24.57-13-13.95-8.15-28.34-15.57-40.64-26.36-4.7-4.12-10.5-7-15.77-10.44-5.59-3.68-11.14-7.43-16.72-11.12-3.57-2.36-7-5-10.8-6.92-9.65-5-18.31-11.36-27-17.74-11.25-8.28-22.37-16.72-33.46-25.21-4.87-3.73-9.48-7.79-14.26-11.63-5.24-4.19-10.7-8.12-15.77-12.5-6.24-5.4-12.18-11.15-18.25-16.75Z"/><path class="cls-1" d="M1405.5,705.19c3.74,5.72,6.24,11.52,6.41,18.21.21,7.67.53,15.34.63,23,.11,8.24-.08,16.47,0,24.71.16,13.79-3.21,27.09-5.77,40.48a132.15,132.15,0,0,1-4.65,17.24c-2.2,6.5-5,12.8-7.47,19.21-1.41,3.64-2.67,7.35-4.14,11-5.46,13.45-10.92,26.9-16.5,40.31-1.78,4.29-3.92,8.45-5.92,12.65q-3.94,8.31-7.92,16.6a9.35,9.35,0,0,1-1.27,2.48c-1.79,1.85-3.73,3.54-5.6,5.3-2.13-1.07-1.38-2.56-.83-3.89,3.81-9.09,7.72-18.15,11.49-27.25,3.7-8.94,7.23-18,10.94-26.88,2.29-5.51,4.82-10.91,7.13-16.4,1.73-4.12,3.37-8.28,4.87-12.49,2.43-6.84,4.86-13.68,7-20.61,2.49-8,4.71-16.12,7-24.2.65-2.34,1.09-4.74,1.51-7.13q1.71-9.64,3.31-19.31a40.81,40.81,0,0,0,.69-6.12q.24-19.65.31-39.3c0-6.93-.23-13.83-2.34-20.55C1403.69,710.08,1402.63,707.58,1405.5,705.19Z"/><path class="cls-1" d="M758.51,1177.92c1.47.54,3.22.75,4.35,1.69a129.46,129.46,0,0,0,12.91,9.37c8.39,5.48,16.46,11.43,24.59,17.29,5.11,3.69,9.91,7.81,15.14,11.31,6.32,4.23,13,7.94,19.42,12,9,5.64,17.8,11.46,26.76,17.09,6.29,3.95,12.81,7.53,19,11.58a149.05,149.05,0,0,1,14.46,10.48A157.45,157.45,0,0,0,923.09,1287c10.5,5.51,20.46,12.07,30.63,18.21,2.67,1.61,4,4.09,4,7.8-2.9-1.32-5.88-2.49-8.68-4-3.92-2.1-7.65-4.56-11.56-6.68-7.49-4.07-15.1-7.92-22.58-12-8.16-4.47-16.13-9.34-23.17-15.45A187,187,0,0,0,859,1252.57c-2.11-1.16-3.92-2.84-6-4.11-13.12-8.07-26.46-15.81-39.34-24.25a210.8,210.8,0,0,1-25.5-19.87c-7.25-6.53-15.29-12.2-23-18.29-2.65-2.11-5.18-4.36-7.77-6.54Z"/><path class="cls-1" d="M1072,1232c2.79-2,5.49-4.18,8.37-6.06,5.9-3.85,12.08-7.29,17.81-11.36,14.09-10,28-20.25,42-30.45,9.33-6.83,18.7-13.59,27.81-20.69,6.45-5,12.6-10.45,18.7-15.89,15.86-14.13,31.58-28.39,47.44-42.52a74.77,74.77,0,0,1,8.54-6.32c.74-.48,2-.16,3-.21-.12,1.14.21,2.7-.41,3.35-4.62,4.82-9.31,9.58-14.2,14.11q-19.5,18.06-39.21,35.89a352.23,352.23,0,0,1-33,26.67c-9.28,6.5-18,13.82-27.17,20.48-8,5.78-16.12,11.36-24.43,16.65-7,4.48-14.36,8.47-21.61,12.57a100.64,100.64,0,0,1-9.41,4.7c-1.18.51-2.68.29-4,.4C1072.19,1232.9,1072.11,1232.46,1072,1232Z"/><path class="cls-1" d="M823,570.26a14.89,14.89,0,0,1,10.17,1,21.39,21.39,0,0,0,5.72,2.11c6.63.87,12.2,4.5,18.28,6.77a164.3,164.3,0,0,1,17.85,7.93c6.61,3.41,13,7.22,19.37,11.09,12.08,7.37,24.18,14.73,36,22.42,6.72,4.36,13,9.44,19.49,14.1q9.54,6.82,19.21,13.47c6.62,4.55,12.65,9.67,17.05,16.66-2,2.76-4.2,1.5-5.93.29-9-6.29-17.81-12.86-26.85-19.1-10.86-7.5-21.11-15.95-33.1-21.77-2.49-1.21-4.66-3.07-7-4.59-9.06-5.85-17.88-12.13-27.26-17.42-12-6.76-24.33-12.91-36.71-18.93-6-2.93-12-5.85-17.28-10-1.09-.84-2.79-.91-4.21-1.3-1.71-.45-3.43-.87-5.14-1.3Z"/><path class="cls-1" d="M1274.53,978.15c-1,2.3-1.33,3.9-2.26,5-7.34,8.64-14.56,17.41-22.28,25.7s-16.08,16.13-24.09,24.23c-5,5-9.61,10.4-14.78,15.21-6,5.58-12.25,10.89-18.65,16-5.51,4.4-11.34,8.42-17.12,12.49a87.19,87.19,0,0,1-9,5.61c-.89.47-2.35-.13-3.55-.25.3-1.11.25-2.64,1-3.25,4.81-4.07,10-7.76,14.65-11.93,6.28-5.56,12.25-11.46,18.36-17.2,9.78-9.18,19.69-18.24,29.34-27.56,12.21-11.8,24.13-23.9,36.37-35.67C1265.62,983.51,1268.09,979.43,1274.53,978.15Z"/><path class="cls-1" d="M967.8,1341c-2.42,2.76-5.33,1.64-7.7.66-5.29-2.2-10.42-4.81-15.54-7.41-4-2-7.83-4.23-11.69-6.44-4.18-2.39-8.1-5.34-12.49-7.24-10.88-4.72-19.91-12.25-29.71-18.61-5.91-3.84-12.17-7.15-18.06-11-10.25-6.75-20.42-13.62-30.45-20.7-8.2-5.78-16.19-11.86-24.17-18-4.4-3.35-8.59-7-12.85-10.52-.18-.15,0-.7,0-1.5.75,0,1.75-.45,2.31-.11,6.33,3.85,12.72,7.62,18.84,11.79,12.13,8.26,24.14,16.72,36.13,25.19,5.76,4.06,11.17,8.63,17.09,12.4,6.41,4.09,13.24,7.5,19.88,11.22a25.63,25.63,0,0,1,2.83,1.75c6.58,4.86,13.13,9.68,20.95,12.58,3.62,1.34,6.92,3.59,10.27,5.58,3.84,2.26,7.41,5.06,11.41,7,7.54,3.58,13.81,9.45,21.94,11.92C967.17,1339.63,967.39,1340.36,967.8,1341Z"/><path class="cls-1" d="M984.09,1420.51c-5.66-2.9-12.09-2.11-18-5.16s-12.13-5.66-19-6.31c-3.22-.3-6.33-1.9-9.48-3-1.59-.53-3.17-1.11-4.71-1.76q-9.21-3.88-18.4-7.85c-3.76-1.61-7.58-3.12-11.21-5-7.43-3.8-14.94-7.52-22.09-11.8-9-5.42-17.71-11.48-26.65-17.07-6.12-3.81-12.45-7.27-18.66-10.95-5.22-3.09-10.2-6.48-14-11.63,2.12-2.1,3.9-1.32,5.71-.15,8.26,5.31,16.47,10.69,24.81,15.88,6.3,3.91,12.72,7.62,19.16,11.31,10,5.7,19.88,11.48,30,16.86,4.73,2.51,10,4.09,14.91,6.19,4.78,2,9.48,4.24,14.27,6.21,2.92,1.2,5.95,2.09,8.93,3.14,1.93.68,3.85,1.37,5.76,2.11,1.56.61,3,1.44,4.63,1.94,6.21,1.93,12.85,3,18.57,5.86C974.24,1412.18,980.79,1414.07,984.09,1420.51Z"/><path class="cls-1" d="M612,673.21c2.68,1.5,2,3.41,1.08,5.3-3.87,8.21-8.4,16.18-11.5,24.66-4.9,13.42-11,26.61-11.31,41.34,0,2.2-.91,4.37-1.33,6.57-1,4.95-2.1,9.87-2.76,14.86-1.36,10.18-3,20.37-3.51,30.6-.7,14-2.63,28,0,41.93.3,1.63.9,3.41-1.71,4.22-2.4-1.08-2.28-3.59-2.47-5.64-1.7-18.26-2.89-36.56-1-54.86,1.17-11.51,2.6-23,4.83-34.37,2.46-12.6,5.75-25.06,9.13-37.45,1.15-4.24,3.52-8.17,5.56-12.12,2.3-4.44,5.33-8.55,7.14-13.16,1.54-3.92,3.89-7.14,6.24-10.44A9.72,9.72,0,0,1,612,673.21Z"/><path class="cls-1" d="M559.25,969.84c1.22,1,1.83,1.31,2,1.76,2.25,5.49,4.37,11,6.66,16.52,1.57,3.76,3.17,7.55,5.09,11.14,5.45,10.13,11.08,20.17,16.62,30.25,1.79,3.26,3.42,6.6,5.27,9.82,4.51,7.88,9.16,15.7,13.66,23.59,2.21,3.87,4,8,6.38,11.75,3.09,4.84,6.61,9.4,9.92,14.1q3.69,5.24,7.32,10.51c2.84,4.13,5.73,8.22,8.43,12.44.55.86.36,2.2.51,3.32-1-.24-2.33-.14-2.9-.76-4.64-5-9.41-10-13.6-15.39-4.42-5.72-8.38-11.81-12.28-17.9-4.3-6.72-8.36-13.6-12.44-20.45q-6.27-10.53-12.37-21.17c-5.42-9.52-10.94-19-16-28.69A259.15,259.15,0,0,1,560.31,987c-1.61-4-1.78-8.67-2.35-13.06C557.82,972.86,558.65,971.64,559.25,969.84Z"/><path class="cls-1" d="M630.78,1060.76c5,6.31,10.85,12.17,15,19,8.6,14.38,20.53,25.94,31.11,38.62,3.19,3.82,7.58,6.61,11,10.23,8.62,9,16.94,18.37,25.52,27.44,5.49,5.8,11.26,11.34,16.85,17,4,4.08,7.94,8.25,11.94,12.35,1.48,1.52,3.06,2.94,4.77,4.56-2.07,2.19-3.67,1.46-5.19.19-8-6.67-15.88-13.49-24-20s-13.83-15-20.68-22.58c-8.14-9-17-17.37-25.23-26.24-7.86-8.45-15.84-16.86-23-25.92-5.35-6.83-9.48-14.64-14-22.08a101.53,101.53,0,0,1-4.86-9.31c-.42-.88-.2-2.06-.28-3.11Z"/><path class="cls-1" d="M1004.8,683.8c.33-5.76,4.65-8,7.51-10.83a279.46,279.46,0,0,1,24-21.64c7.42-5.85,15.68-10.65,23.6-15.86,6.2-4.08,12.49-8.05,18.68-12.14,10.24-6.76,20.34-13.74,30.7-20.3,5.29-3.34,11-6,16.6-8.87.91-.46,2.24-.07,3.38-.07.17.44.35.87.53,1.31-4.35,3.56-8.55,7.31-13.08,10.62-5.69,4.17-11.64,8-17.49,12-8.61,5.83-17.13,11.79-25.85,17.45-17,11-34.11,21.92-49.35,35.44-4.45,3.94-9.38,7.36-14.2,10.85C1008.53,682.67,1006.79,683,1004.8,683.8Z"/><path class="cls-1" d="M593.39,915c4.23.45,4.93,3.58,5.44,6.42.8,4.4.61,9,1.77,13.32,2,7.5,4.76,14.82,7.23,22.2a28.34,28.34,0,0,1,1.36,3.06c1.35,6.54,5.13,11.91,8.24,17.61,2.31,4.24,4.27,8.66,6.56,12.9,4.16,7.67,8.55,15.22,12.66,22.92,2.27,4.26,4.21,8.69,6.23,13.08,1.92,4.2,3.69,8.47,5.67,12.65a14.82,14.82,0,0,0,2.86,4.13c7.76,7.61,11.56,18,18.4,26.25.76.92.63,2.57.91,3.88l-1.06.65a13.17,13.17,0,0,1-2.82-2c-3-3.56-5.72-7.29-8.7-10.83-3.25-3.87-6.54-7.66-7.83-12.73s-5.48-7.85-8.1-11.86-5.46-7.55-7.65-11.62c-3.89-7.18-7.25-14.64-11-21.89-3.87-7.41-8.09-14.64-11.91-22.07-2.47-4.79-4.69-9.72-6.68-14.72-2.53-6.39-4.93-12.84-7-19.4-1.2-3.88-1.55-8-2.33-12-.82-4.19-1.62-8.38-2.58-12.53C592.54,920,591.68,917.72,593.39,915Z"/><path class="cls-1" d="M1333.34,663.37c6.78.21,9.47,4.47,12.31,7.85,8,9.47,13,20.77,18.17,31.85,2.57,5.49,3.81,11.72,4.91,17.75,2.15,11.9,5.75,23.69,4.49,36-1.1,10.74-2.37,21.49-6.8,31.54a16.78,16.78,0,0,0-1.19,4.29c-.6,3.91-1.42,7.63-3.75,11-1.1,1.6-1.17,3.89-1.74,5.86-.5,1.7-1.06,3.39-1.75,5.6a13.66,13.66,0,0,1-.67-13.17c2.22-4.11,2.61-8.47,3.43-12.86,1.32-7.15,3.7-14.14,4.58-21.32,1.77-14.37,1.35-28.71-3.19-42.67a28.88,28.88,0,0,1-1.28-4.87c-1.81-12.94-7.12-24.46-13.5-35.74a109.58,109.58,0,0,0-12.28-17.13C1334.37,666.53,1334.15,665.28,1333.34,663.37Z"/><path class="cls-1" d="M1415.4,840a28.41,28.41,0,0,1-1,15.24,37.61,37.61,0,0,0-2.06,8.59,50.33,50.33,0,0,1-3,14.16c-2.34,5.85-3.76,12.07-5.89,18-2,5.59-4.24,11.11-6.65,16.54s-4.75,11-7.88,16-4.42,11.48-9.48,15.53a6.55,6.55,0,0,0-1.75,4c-1.29,10.06-6.18,18.63-11,27.27-2.23,4-4.22,8.21-6.41,12.28a15.88,15.88,0,0,1-2,2.51c-2.62-3-2.72-5.45-1.08-9.11,2.9-6.42,5.32-13.07,8.48-19.35,2.22-4.4,3.13-9.65,7.72-12.74a5,5,0,0,0,1.88-3.8c-.46-5.85,3.33-10.2,5.16-15.18,1.71-4.66,4.88-8.76,6.94-13.32,4-8.8,7.69-17.71,11.32-26.66,2.72-6.7,5.19-13.51,7.62-20.32.81-2.27,1-4.76,1.73-7.06.91-2.8,2.22-5.47,3.15-8.27a46.86,46.86,0,0,0,1.58-6.41c.49-2.68.79-5.39,1.18-8.09Z"/><path class="cls-1" d="M651,647.94c-.61,1.59-.86,3.47-1.89,4.73-7.28,9-13.17,18.91-19.19,28.72-2.9,4.71-4.6,10.12-6.82,15.17-3.51,8-4.79,16.47-7.1,24.67-3,10.55-4.59,21.5-6.56,32.31-.84,4.59-1.52,9.07-3.52,13.44-1.49,3.25-1.41,7.25-1.88,10.93-.29,2.33-.3,4.7-.43,7.05l-1.39.16a15.59,15.59,0,0,1-.8-3.72c.22-6.72.45-13.45.93-20.16.39-5.4.9-10.81,1.79-16.15,1.92-11.59,3.44-23.31,6.36-34.66,4.64-18,12.61-34.56,25.1-48.67,2.21-2.5,3.9-5.45,6.15-7.89s5-4.68,7.53-7Z"/><path class="cls-1" d="M763.59,1292.89c-6.85-.58-10.27-4.7-14-7.84-7.71-6.42-14.9-13.45-22.41-20.1-8-7-16.07-13.92-24-20.94-4.32-3.81-8.11-8.33-12.81-11.56-12.64-8.7-21.59-21-32.12-31.77-2.06-2.1-3.37-5-5.06-7.51,2.62-1.71,3.88-.24,5,.8,4.67,4.29,9.18,8.76,13.88,13,8.56,7.77,17.25,15.38,25.8,23.15,5.36,4.87,10.43,10.06,15.84,14.87,8.64,7.66,17.53,15,26.17,22.7q10.63,9.42,20.88,19.27C762,1288.23,762.43,1290.42,763.59,1292.89Z"/><path class="cls-1" d="M701.55,1048.26c7.9,8.35,16,16.49,23.65,25.08,13.69,15.41,29.18,29,43.92,43.27,7.08,6.87,14,14,21.26,20.57,6.2,5.61,12.53,11.26,19.53,15.75,3.5,2.24,7.58,3.76,10.78,6.63a8.65,8.65,0,0,1,1.07,1.46c-1.36,2.46-3.49,2-5.24,1.12-4.14-2.07-8.06-4.56-12.18-6.66-6.74-3.44-12.06-8.71-17.38-13.82-19-18.23-37.88-36.58-56.44-55.24-6.27-6.3-11.45-13.67-17.12-20.56-3.38-4.12-6.8-8.2-10.09-12.39a39.26,39.26,0,0,1-2.73-4.56Z"/><path class="cls-1" d="M593.18,992.72c-2-3-4.13-5.55-5.55-8.45-2.36-4.82-4.34-9.84-6.35-14.83-2.42-6-4.68-12.14-7-18.2a33.49,33.49,0,0,1-1.41-3c-2.12-7.7-4.25-15.4-6.24-23.14-2.37-9.19-5-18.34-6.76-27.65-1.63-8.6-2.27-17.38-3.33-26.08a3.47,3.47,0,0,1,.08-1.67c.52-1.27.95-3.27,1.85-3.55,2-.63,3,1.31,3.26,3,.64,3.67.88,7.41,1.48,11.09s1.42,7.28,2.18,10.91c.46,2.18,1,4.37,1.5,6.53,1.28,5.06,2.59,10.1,3.89,15.15.09.36.26.7.36,1.06,2,7.72,3.89,15.51,6.19,23.16,2.35,7.82,5.1,15.52,7.73,23.26,2.15,6.33,4.32,12.65,6.58,18.95.62,1.74,1.65,3.33,2.33,5.06C595,987,596.1,989.77,593.18,992.72Z"/><path class="cls-1" d="M1025.92,1227.7c.29-.58.37-1.09.62-1.2,5-2.32,10.1-4.55,15.1-6.9,3.18-1.5,6.33-3.09,9.4-4.82q12.84-7.23,25.59-14.65c4.48-2.62,8.75-5.6,13.25-8.18,9-5.17,18.27-10,27.17-15.32,5.54-3.34,10.53-7.58,15.91-11.2a153.86,153.86,0,0,1,16.55-9.75c-1.54,2.91-2.92,5.56-5.78,7.48-5.37,3.61-10.25,8-15.52,11.74q-9.27,6.66-18.88,12.83c-9.07,5.81-18.18,11.58-27.46,17-6.87,4-14,7.59-21.09,11.28-4.76,2.48-9.55,4.89-14.4,7.18a107.92,107.92,0,0,1-12.28,5.29C1031.5,1229.37,1028.37,1230.39,1025.92,1227.7Z"/><path class="cls-1" d="M1022.67,1421c20.77-11.37,40.65-22.23,60.52-33.13,19.66-10.8,37.55-24.67,58.73-34-.56,3.55-3,5.36-5,6.76-8,5.62-16.41,10.76-24.56,16.23-5.7,3.83-11.16,8-16.88,11.81a111.29,111.29,0,0,1-9.75,5.39c-6.9,3.63-13.86,7.15-20.72,10.85-4.08,2.2-7.9,4.88-12,7-5,2.48-10.12,4.56-15.21,6.78-1.87.81-3.8,1.5-5.7,2.27C1029.37,1422,1026.65,1422.84,1022.67,1421Z"/><path class="cls-1" d="M630,1131.84c2.47,2.27,5,4.45,7.41,6.8,10.78,10.6,21.48,21.28,32.28,31.86,11.56,11.33,23,22.79,34.9,33.77,4.08,3.76,8.62,7,11.92,11.57.56.76.54,1.94.78,2.93-1.17.11-2.74.76-3.46.24-4.4-3.14-8.73-6.4-12.84-9.91-5.93-5.06-11.73-10.29-17.42-15.61-6-5.6-11.68-11.52-17.71-17.07a159.57,159.57,0,0,1-19.35-20.9c-3.11-4.1-7.23-7.42-10.49-11.43a72.07,72.07,0,0,1-7.22-11.31Z"/><path class="cls-1" d="M1305,869.82a12.73,12.73,0,0,1,.75-3.15c2.62-4.84,5.38-9.6,8-14.42,1.61-2.91,3.24-5.82,4.67-8.83,4.07-8.55,8.28-17.06,12-25.77,2.56-6,4.49-12.25,6.52-18.44,2.73-8.32,5.5-16.63,7.81-25.06,1-3.73,1-7.76,1.39-11.66s.86-8,1.3-12l1.31-.23c.63.94,1.68,1.82,1.81,2.83a73.2,73.2,0,0,1,1.12,12.23c-.24,7.29-.87,14.59-4.06,21.37a10,10,0,0,0-.75,2.69c-1.51,9.49-5,18.29-9,27-3.67,7.93-7.11,16-10.88,23.84a63.18,63.18,0,0,1-5.33,8.49c-5,7.23-10.12,14.4-15.19,21.6Z"/><path class="cls-1" d="M745.7,558a24.16,24.16,0,0,1-4.39,1.61c-9.37,1.58-18.78,3-28.16,4.55-5.13.85-10.24,1.89-15.35,2.88-1.65.32-3.27,1.06-4.91,1.07-9.14,0-17.63,2.81-26,6.08-5.33,2.09-10.5,4.61-15.71,7-4,1.84-7.9,3.9-11.94,5.64-1.39.6-3.27,1.39-4.38-1.16,3.24-2.3,6.42-4.76,9.8-6.89A142.42,142.42,0,0,1,658.1,571c4.83-2.35,9.78-4.88,15-6q24.36-5.14,49-9.14c6-1,12.29-.69,18.44-.79a25.48,25.48,0,0,1,5.17,1Z"/><path class="cls-1" d="M1484.88,928.57c-.86-2.44-1.7-3.61-1.58-4.67.54-4.42,1.24-8.83,2.12-13.19.58-2.91,1.62-5.73,2.34-8.61,1-4,1.85-8,2.78-12a12.32,12.32,0,0,0,.44-1.63c1.61-16.88,7.47-33.14,7-50.39-.19-7.4,1.25-14.86,2.2-22.27.23-1.8,1.41-3.48,2.66-6.41,1.27,2.28,2.32,3.31,2.32,4.34,0,4.46-.13,8.93-.46,13.38-.31,4.07-1.14,8.11-1.37,12.19-.48,8.39-.38,16.83-1.15,25.19-.52,5.52-2.13,10.94-3.28,16.4-.46,2.19-.92,4.39-1.49,6.55-1,3.77-2.12,7.51-3.16,11.26q-.75,2.7-1.4,5.41a21.89,21.89,0,0,1-.64,3.3c-2.51,6-5.1,11.9-5.61,18.49C1486.58,926.41,1486,926.85,1484.88,928.57Z"/><path class="cls-1" d="M1468.18,825.24c.39,1.88,1.17,3.78,1.11,5.64-.31,9.15.57,18.66-1.67,27.34-2.4,9.34-2.87,19.16-7.09,28.17-2.89,6.15-3.69,13.24-5.9,19.75-2.32,6.84-4.81,13.69-9.38,19.47a10.82,10.82,0,0,1-2,1.58c-2.39-1.25-1.65-2.82-1.06-4.44,1.14-3.13,2.17-6.3,3.29-9.43.69-1.92,1.45-3.82,2.23-5.71.28-.69.83-1.28,1-2,2.15-7.11,4.41-14.2,6.34-21.37,2.38-8.82,4.5-17.72,6.69-26.59a64.23,64.23,0,0,0,1.33-6.57c1.11-7.78,2.13-15.57,3.22-23.35a15.67,15.67,0,0,1,.77-2.44Z"/><path class="cls-1" d="M1149.31,576.52c26.9-15.89,54.41-26.89,85-28.81-5.39,1.89-9.34,6.72-15.63,7-3.18.13-6.29,1.94-9.41,3-.88.31-1.69.8-2.57,1.1-6,2-12,3.84-17.93,6-3.45,1.28-6.68,3.17-10.08,4.62-6,2.55-12,5-18,7.41C1157.33,578.17,1153.81,579.64,1149.31,576.52Z"/><path class="cls-1" d="M580.39,693c1.67,4.86.68,9-.83,13.29-2.77,7.87-6.39,15.48-7.82,23.79a10.33,10.33,0,0,1-1,3.77c-3.85,6-3.38,12.87-4.17,19.5-1.3,11-2.72,21.88-4.18,32.8a13.15,13.15,0,0,1-1.44,3.31l-1.22,0c-.47-1.64-1.29-3.27-1.35-4.93-.39-9.73-.15-19.38,2.63-28.89,1.34-4.61,1.37-9.58,2.2-14.35.66-3.83,1.62-7.61,2.49-11.4.46-2,.91-4,1.53-6,.95-3,2-6,3.08-8.94.49-1.41,1-2.82,1.53-4.2q3.42-8.49,6.92-16.95C578.84,693.58,579.35,693.5,580.39,693Z"/><path class="cls-1" d="M896.62,1254c3.11-.83,5.75,0,8.39,1.85a86.07,86.07,0,0,0,9.5,5.64c7,3.77,14.11,7.38,21.12,11.17,4.08,2.2,8,4.69,12.06,6.9s8.24,4.25,12.37,6.36c5.28,2.68,10.53,5.42,15.86,8a53.25,53.25,0,0,0,5.27,1.73c2,.73,3.89,1.57,5.83,2.36l-.08,1.26c-1,.49-2.1,1.4-3.14,1.38-2.59-.07-5.37-.05-7.72-1-5-2-9.74-4.52-14.57-6.89q-6.74-3.33-13.4-6.79c-4.43-2.3-8.83-4.67-13.21-7-3.58-1.94-7-4.13-10.69-5.87-7.77-3.7-14.25-9.25-21.1-14.27-2.16-1.59-5.62-1.54-6.35-5Z"/><path class="cls-1" d="M1403.41,624.76c4.5,3.86,9.34,7.39,13.42,11.64a194.56,194.56,0,0,1,16.69,19.29c4.49,6.1,8,12.91,11.71,19.58,4.35,7.93,8.37,16.05,12.52,24.1,1,2,2.37,4-.44,6.29-2.15-2.56-4.65-4.77-6.22-7.52-3.85-6.75-7.23-13.76-10.89-20.62-1.66-3.11-3.53-6.1-5.33-9.14a173.21,173.21,0,0,0-21.22-28.59c-3.23-3.54-6.39-7.16-9.31-10.95-.78-1-.55-2.8-.78-4.23Z"/><path class="cls-1" d="M1072.18,650.27c-2.19,6.81-7.21,9.23-11.39,11.9-9.48,6.07-17.6,13.66-26,20.94s-17,14.39-25.51,21.55c-.22.17-.71,0-1.52,0,.12-.89-.08-2,.36-2.43,11.87-12.72,22.91-26.31,36.73-37,6-4.61,12.94-7.92,19.45-11.84a37.82,37.82,0,0,1,3.75-2.35A20.43,20.43,0,0,1,1072.18,650.27Z"/><path class="cls-1" d="M1408.09,585.32c1.47-2,2.68-1.33,4-.41a272.35,272.35,0,0,1,27.46,21.7c7.5,6.63,14.81,13.48,22.16,20.29a7.58,7.58,0,0,1,1.87,2.71c1.67,4.24,4.86,7.32,7.79,10.63a54.3,54.3,0,0,1,5.6,6.84c1.12,1.77,2.1,4,.28,6.62-.81-.46-1.75-.69-2.22-1.29-4.36-5.56-8.73-11.12-12.91-16.81a105.51,105.51,0,0,0-15.8-17.11c-2.21-1.94-4.51-3.8-6.77-5.68-8.25-6.89-16.56-13.73-24.74-20.7C1412.51,590.12,1410.49,587.76,1408.09,585.32Z"/><path class="cls-1" d="M813.22,1189.57c-6.76-1.07-11.64-4.94-16.67-8.26-5.87-3.87-11.4-8.26-17-12.56-8.42-6.47-15.47-14.34-22.44-22.29-3.89-4.44-8.29-8.42-12.32-12.74a23.79,23.79,0,0,1-4.25-6.68,23.26,23.26,0,0,1,3.5,2c5.9,5.06,11.8,10.14,17.56,15.35,4.12,3.73,8,7.76,12.06,11.52,10,9.17,20.33,17.87,31.74,25.17C808.72,1183.24,812.63,1184.31,813.22,1189.57Z"/><path class="cls-1" d="M647.54,687.68c0-4,1.42-7.41,3-11.1,3.07-7.11,7.51-13.28,11.67-19.63a69.55,69.55,0,0,1,10.5-12.24c7.95-7.47,16.27-14.54,24.81-22.11,1.8,2.95.69,4.88-1.07,6.66-4.56,4.65-9.1,9.31-13.72,13.89a173.72,173.72,0,0,0-21.43,26.43c-3.53,5.21-6.75,10.62-10.32,15.79-.72,1-2.38,1.46-3.61,2.16Z"/><path class="cls-1" d="M927.13,1211a14.61,14.61,0,0,1-7.55-3.15c-7.85-5.9-15.94-11.49-24.1-17-9.52-6.38-19.33-12.32-28.76-18.81-4.23-2.92-7.89-6.68-11.75-10.13s-7.57-6.91-12.38-11.32c2.32.4,3.66.24,4.46.82,4.15,3,8.16,6.25,12.23,9.38,2.93,2.26,5.82,4.58,8.85,6.69,6.51,4.55,13.06,9,19.7,13.41a52.31,52.31,0,0,0,9.21,5.13c7.12,2.83,11.84,8.88,18,12.94,3.22,2.12,6,4.91,9.17,7.1,1.91,1.31,3,2.75,2.74,5.05Z"/><path class="cls-1" d="M504.54,995.76c-.83-.31-1.38-.35-1.47-.58-2.23-5.25-4.56-10.46-6.57-15.79-2.43-6.44-4.62-13-6.83-19.47-1.07-3.16-2.08-6.35-2.85-9.59-.94-4-1.78-8-2.32-12.09-.52-3.81-.6-7.68-.87-11.53l1.24-.35a19.06,19.06,0,0,1,1.17,1.93c1.21,2.69,2.37,5.4,3.54,8.1.44,1,.94,2,1.3,3.09,1.64,4.94,3.35,9.87,4.83,14.86,1.69,5.71,3.12,11.5,4.76,17.23,1.32,4.64,2.87,9.23,4.15,13.88a35,35,0,0,1,1.22,7.11C505.91,993.61,505,994.72,504.54,995.76Z"/><path class="cls-1" d="M1321.25,599.51c3.66-2.17,5.86-.9,8.19.25a41.82,41.82,0,0,0,6.61,2.6,58,58,0,0,1,19.85,9.84c8.91,7,17.55,14.44,26.14,21.88a32.54,32.54,0,0,1,5.17,6.55c.35.51,0,1.75-.46,2.41-.18.3-1.45.24-2-.08a38.58,38.58,0,0,1-4-3c-8.81-7.16-17.54-14.42-26.43-21.48a96.25,96.25,0,0,0-10.2-6.81c-5.2-3.12-10.5-6.09-15.81-9C1326.33,601.59,1324.18,600.81,1321.25,599.51Z"/><path class="cls-1" d="M513.15,687.39a8.1,8.1,0,0,1,.28,9.37c-1,1.78-2,3.6-2.94,5.41-4.73,8.9-7.51,18.46-10.19,28.13-1.79,6.47-4.07,12.77-4.72,19.52-.06.64-.66,1.23-1,1.77-2.59-.09-2.95-1.88-3-3.51-.19-7.47-.28-14.9,2.82-22a171.79,171.79,0,0,0,6.05-16.18c1.91-5.93,5.16-11,8.72-16C510.67,691.81,511.85,689.55,513.15,687.39Z"/><path class="cls-1" d="M972.63,1265.25c-3.64,0-25-10.63-33.32-15.54-10.37-6.11-21.16-11.51-31.94-17.31,1.49-2.88,3.34-2.44,4.42-1.27,2.45,2.67,5.55,3.4,8.83,4.31,3,.84,5.66,2.62,8.48,4,5,2.39,10,4.75,15,7.16q5.52,2.65,11,5.39c4,2,8,4,11.9,6.08A11.85,11.85,0,0,1,972.63,1265.25Z"/><path class="cls-1" d="M1213.22,577c-1.9.39-3.84.68-5.71,1.2-3.56,1-7.1,2.09-10.63,3.18-.88.28-1.69.85-2.58,1-8.22,1.8-15.68,5.5-23.28,8.92-3.5,1.58-7.28,2.39-10.57,4.69-1.33.93-3.68.39-5.64.52,0-1.18-.06-1.75.1-1.85,3.64-2.08,7.3-4.12,11-6.16,4.51-2.51,8.91-5.25,13.58-7.45,9.84-4.64,20.06-7.89,31.19-6.51a12.55,12.55,0,0,1,2.49.88C1213.17,576,1213.2,576.49,1213.22,577Z"/><path class="cls-1" d="M537,791.32c3.7,6,3.72,32.79-.26,65.76-.25-1.5-.52-3-.75-4.5a201.82,201.82,0,0,1-.83-55.65,38.48,38.48,0,0,1,.8-4.39C536.07,792.09,536.62,791.74,537,791.32Z"/><path class="cls-1" d="M1119.67,1156.77c-1.71,1.85-3.12,4.18-5.18,5.45-6.46,4-13.14,7.55-19.78,11.2-4.51,2.48-9.08,4.85-13.66,7.22-1,.51-2.07.79-3.09,1.21-2.53,1.06-5.08,2.09-7.58,3.23-1.83.83-3.6,1.86-5.91,0a98.48,98.48,0,0,1,8-5.89c3.64-2.16,7.56-3.84,11.29-5.85,4.88-2.61,9.69-5.35,14.53-8,6-3.31,12-6.65,18-9.87.67-.36,1.68,0,2.54,0Z"/><path class="cls-1" d="M621,933.77c-2-6.21-4.08-12.39-5.86-18.66-1.22-4.29-1.69-8.8-3-13.05-1.86-5.88-1.61-11.79-1-17.74.11-1,1.35-2.59,2.16-2.66,1-.07,2.23,1.05,3,1.94a5.23,5.23,0,0,1,.81,2.62c.66,4.24,1.65,8.48,1.78,12.74.29,9.53.77,19,3.21,28.27.52,2,.08,4.21.08,6.32Z"/><path class="cls-1" d="M1509.25,700c2.35,4.28,4.24,8.91,7.17,12.74,3.35,4.38,3.41,9.85,5.69,14.27,4.6,8.91,3.15,18.62,5.39,27.76,0,.13-.16.31-.43.8-2.47.94-4.08,0-4.58-2.77-.71-3.86-1.11-7.78-1.93-11.61-.65-3.07-1.74-6-2.62-9.06-.58-2-1.07-4-1.71-5.9-.81-2.46-1.75-4.87-2.6-7.32-.67-1.93-1.23-3.89-1.94-5.81-.88-2.4-2-4.73-2.77-7.15-.6-1.79-.91-3.68-1.35-5.53Z"/><path class="cls-1" d="M1345.92,946c1.46,6.66-2.68,11.29-6,16.18-4.25,6.31-8.51,12.64-13,18.75-2.85,3.84-6.2,7.3-9.39,10.87-.38.43-1.2.47-2.24.85,1.69-7,5.76-12.06,9-17.55,4.15-7,8.27-14.13,13-20.79,2.26-3.2,5.84-5.47,8.82-8.16Z"/><path class="cls-1" d="M542.1,692.15c1.42,4.55,1,7.62-.51,10.72a23.12,23.12,0,0,0-2.41,6.17c-.76,4.62-1.17,9.28-4,13.24a4.38,4.38,0,0,0-.52,1.59c-1.6,7.64-3.24,15.27-4.77,22.93-.92,4.56-1.86,6-4,5.65-2.3-.4-2.86-2.05-1.72-6.48,2.17-8.43,4.41-16.85,6.78-25.23,1.26-4.45,2.83-8.81,4.28-13.2a5,5,0,0,1,.91-2c2.59-2.5,3.29-5.73,3.86-9.09C540.17,695.33,541,694.33,542.1,692.15Z"/><path class="cls-1" d="M485.07,793.29a6.49,6.49,0,0,1,.7,1.88q.57,19,1,38a12,12,0,0,1-.42,3.31c-.46,1.8-1.6,3-3.6,2.8a3.64,3.64,0,0,1-3.59-3.59c-.08-.91.27-1.84.28-2.76,0-2.94-.1-5.88-.08-8.81,0-4.07-.34-8.21.31-12.18,1-6,2.73-11.95,4.19-17.91C483.93,793.76,484.45,793.64,485.07,793.29Z"/><path class="cls-1" d="M980.45,1218c-3.36,2.68-6.57,3-10.22.63-8-5.29-15.89-10.87-23.92-16.18-3.66-2.42-7.56-4.48-11.32-6.76a37.06,37.06,0,0,1-3.18-2.47c3.18-1.69,5.26-.75,7.25.73a19.32,19.32,0,0,0,3,2.39c4.15,2,8.57,3.44,12.57,5.68,8.41,4.7,16.63,9.77,24.91,14.71C979.85,1216.94,980,1217.36,980.45,1218Z"/><path class="cls-1" d="M927.17,649.79c1.63.43,3.48.5,4.84,1.35,9.06,5.66,18.09,11.36,27,17.31a113.74,113.74,0,0,1,12.67,10c1.46,1.31,1.9,3.75,2.69,5.43-2.36,2.35-3.85,1.44-5.4.12-5.07-4.32-10.12-8.68-15.32-12.84-3.73-3-7.72-5.66-11.55-8.52-3.1-2.31-6.1-4.74-9.22-7-2-1.47-4.15-2.76-6.24-4.13Z"/><path class="cls-1" d="M1330.23,558.79a31,31,0,0,1-16-1.6,32.29,32.29,0,0,0-6.3-2.08c-5.16-.81-10.37-1.05-14.91-4.28-1.35-1-3.58-.88-5.41-.93-4.49-.11-9,.08-13.46-.07a35.18,35.18,0,0,1-5.58-1.07l0-1.4c1.31-.4,2.62-1.15,3.93-1.15,5.79,0,12-1.14,17.28.61,9.23,3.08,19.32,2.36,28.12,7,2.05,1.08,4.72,1,7.09,1.49,1.88.42,3.74.95,5.61,1.43Z"/><path class="cls-1" d="M597.64,1121c2.5,2.77,4.85,5.26,7.05,7.86,2.87,3.4,5.55,7,8.47,10.32,4.38,5,8.87,10,13.38,14.91,1.09,1.19,2.14,2.37.8,3.83s-2.72.25-3.91-.61c-7.17-5.25-12.58-12.17-17.89-19.13-2.91-3.81-5.45-7.91-8.11-11.91C596.53,1124.93,595.28,1123.54,597.64,1121Z"/><path class="cls-1" d="M471.29,804a52,52,0,0,1,.87,5.89c.25,7.28,1.36,14.72.32,21.83-2,13.61-.63,27.2-1.31,40.78,0,.54-.23,1.07-.64,3-.64-2.2-1.17-3.24-1.2-4.29-.16-6.72-.11-13.46-.35-20.18-.18-5-.76-10-1.05-15a62.58,62.58,0,0,1,.05-6.71c.33-6.54.68-13.07,1.12-19.6.13-1.91.58-3.81.88-5.71Z"/><path class="cls-1" d="M1314.52,1255.39c-2.66,5.71-8.15,7.95-12.18,11.67a97.2,97.2,0,0,1-11.12,8.24,9.94,9.94,0,0,1-4.55,1.89c-1.2.1-2.49-1-3.74-1.51.63-1,1-2.35,2-3,4.28-3.21,8.79-6.14,13-9.4,3.53-2.7,6.8-5.73,10.21-8.6C1310.48,1252.67,1310.83,1252.71,1314.52,1255.39Z"/><path class="cls-1" d="M677.53,595.89c.33-.92.35-1.21.46-1.25,7.11-2.59,13.18-7.22,20-10.24,5.19-2.29,11-3.06,16.64-4.41.56-.14,1.28.42,2.37.81a13.85,13.85,0,0,1-8,6.53c-7.65,2.7-15.2,5.67-22.81,8.46C683.41,596.8,680.59,597.6,677.53,595.89Z"/><path class="cls-1" d="M1478.94,701.92c1.24.35,1.81.35,1.89.55,2.15,5.09,6.12,9.27,7.16,14.93.4,2.16,1.62,4.15,2.23,6.28,1.11,3.93,2.18,7.87,3,11.87a5.06,5.06,0,0,1-1,3.57c-.36.49-1.92.38-2.8.1-.51-.17-.85-1.17-1.07-1.86-1.51-4.58-2.94-9.18-4.45-13.75-1.39-4.22-2.79-8.44-4.3-12.62A17,17,0,0,1,1478.94,701.92Z"/><path class="cls-1" d="M1443.38,801.94c2.36,1.77,2.31,3.95,2.14,5.85-.51,5.74-1.08,11.48-2,17.16-.87,5.28-2.23,10.49-3.43,15.72-.43,1.87-.1,4.81-2.93,4.55s-2.11-3.09-1.87-5c.75-5.87.85-11.89,4.31-17.15.83-1.26.59-3.23.78-4.88.48-4.25.86-8.51,1.45-12.74C1442,804.36,1442.75,803.32,1443.38,801.94Z"/><path class="cls-1" d="M498.64,787.79c-2.3-1.65-2-3.92-1.91-6.13.15-4.1.38-8.2.39-12.31s.48-8.09,3-11.71c1.1-1.6,1.21-3.87,1.76-5.84s1-3.77,1.55-5.65l1.11,0c.38.89,1.12,1.8,1.07,2.66-.27,4.46-.61,8.93-1.18,13.36-.84,6.46-1.93,12.88-2.84,19.32C501.23,783.9,501.21,786.36,498.64,787.79Z"/><path class="cls-1" d="M937.54,677.6c1.5.51,3.3.66,4.45,1.6q11.14,9.15,22,18.63a15.61,15.61,0,0,1,3.35,4.44,2.07,2.07,0,0,1-2.42,3.05,13.14,13.14,0,0,1-4.68-2.85c-7.75-7.22-15.4-14.54-23-21.88-.42-.41-.41-1.28-.61-1.93Z"/><path class="cls-1" d="M858.62,607a13.26,13.26,0,0,1,8.83,2.72c3.58,2.54,7.74,4.26,11.4,6.72,4.27,2.87,8.33,6.06,12.33,9.31.79.64,1.52,2.54,1.14,3.2-1,1.72-2.51.84-3.79-.09-5.38-3.9-10.69-7.9-16.18-11.63-3.48-2.36-7.33-4.17-10.81-6.53-1.23-.83-1.87-2.54-2.78-3.85Z"/><path class="cls-1" d="M1058.76,684a271.65,271.65,0,0,1-31.19,27.23l-1.2-.91c.13-.95-.1-2.29.45-2.78,6.55-6,13.16-11.92,19.89-17.71a85.4,85.4,0,0,1,8.52-6.2C1055.74,683.26,1056.78,683.73,1058.76,684Z"/><path class="cls-1" d="M555,1012.82a82.36,82.36,0,0,1,5.61,7.88c2.5,4.51,4.63,9.23,6.85,13.9a4.86,4.86,0,0,1,.58,2.7c-.17,1-.85,2.52-1.42,2.56-1.05.09-2.74-.42-3.18-1.22-3.26-6-6.46-12.1-9.28-18.34-.9-2-.6-4.55-.85-6.85Z"/><path class="cls-1" d="M1351.75,1225.57c-1.26.26-2.86.11-3.71.84-4,3.4-7.92,6.91-11.61,10.64-1.87,1.9-3.37,1.77-5.68.22a14.41,14.41,0,0,1,2-3.23c6-5.56,12.07-11,18.13-16.53.28-.25.57-.67.86-.68,1,0,2,.1,3,.17-.17.84-.06,2.15-.55,2.43-2.58,1.48-2.71,3.8-2.55,6.3Z"/><path class="cls-1" d="M618.29,582.08c-.5,2.25-.41,3.55-.92,3.84-8.48,5-15.5,12.24-25.46,16.59.14-1.8-.12-3,.32-3.37C599.69,592.44,606.93,585.35,618.29,582.08Z"/><path class="cls-1" d="M712.8,1190c-4,.66-6-1.29-7.7-3-4.82-4.82-9.34-10-13.89-15-.48-.54-.36-1.64-.52-2.47.85-.15,2.08-.72,2.48-.36,5.74,5.2,11.44,10.46,17,15.87C711.26,1186.08,711.69,1187.83,712.8,1190Z"/><path class="cls-1" d="M1531.64,790.14c.89,1.28,1.95,2.12,2,3q.69,9.15.92,18.33c0,.76-1.23,1.55-1.89,2.32-.77-.69-2.17-1.34-2.21-2.07-.33-6.63-.45-13.28-.55-19.93C1529.93,791.45,1530.65,791.08,1531.64,790.14Z"/><path class="cls-1" d="M1197.84,600.1c.25,3.72-1.55,5.11-4.32,6-3.3,1.09-6.55,2.38-9.75,3.76s-6.7,1.6-11.5,0c4.57-2.2,8.41-4.36,12.48-5.92S1193.16,601.46,1197.84,600.1Z"/><path class="cls-1" d="M1282.23,566.53a5.19,5.19,0,0,1-5.64,3.3c-6.83-.45-13.64-1.14-20.45-1.79-.25,0-.46-.51-.68-.79C1260.18,564.22,1276.9,563.64,1282.23,566.53Z"/><path class="cls-1" d="M989.62,1373.88c5,2.23,10,1.41,15,1.47,2.37,0,5-.39,6.42,3-.93.6-1.91,1.75-2.92,1.78a116.84,116.84,0,0,1-12.83-.21C991.94,1379.7,990.15,1377.4,989.62,1373.88Z"/><path class="cls-1" d="M1035.37,1317.68c0-.46,0-.75.08-.82,4.53-3,8.77-6.57,14.28-7.79,1.84-.41,3.67,0,3.88,2,.11,1-1.09,2.58-2.12,3.24a37.15,37.15,0,0,1-7,3.42C1041.51,1318.86,1038.34,1320.25,1035.37,1317.68Z"/><path class="cls-1" d="M592.4,1078c4.35,5.23,7.92,9.39,11.3,13.71a4.84,4.84,0,0,1,.94,3.59c-.17.71-2.59,1.67-2.74,1.49-3.91-4.83-8.61-9.17-10.51-15.36C591.22,1080.91,591.75,1080.15,592.4,1078Z"/><path class="cls-1" d="M1419.56,981.62c2.5,5.32-1.12,16.46-6.1,19.58-2.24-1.88-2-4.5-1-6.56C1414.48,990.25,1417.06,986.12,1419.56,981.62Z"/><path class="cls-1" d="M1029.2,1255.4c2.55-1.29,5.08-2.61,7.64-3.85s5.24-2.63,8-3.65c.74-.28,1.89.5,2.85.8-.38,1.11-.45,2.9-1.18,3.23a133.18,133.18,0,0,1-12.81,5.07c-1.22.41-2.78-.15-4.18-.27C1029.39,1256.29,1029.3,1255.84,1029.2,1255.4Z"/><path class="cls-1" d="M1462.56,986.31c2.37,2.52,1.3,5.09.15,7.57a51,51,0,0,1-3.59,6.78c-.56.85-1.95,1.15-3,1.7-.54-1-1.1-2.08-1.61-3.13-.07-.13.07-.35.1-.53C1455.07,996.33,1459.9,988.67,1462.56,986.31Z"/><path class="cls-1" d="M1381.29,695.49c7,7.46,9.24,16.7,5.23,22.44-.68-1.25-1.57-2.21-1.74-3.29a52.93,52.93,0,0,1-.62-7.75c0-3,0-5.9-2.25-8.33C1381.42,698,1381.55,696.92,1381.29,695.49Z"/><path class="cls-1" d="M986.55,1444.1c1.18-2.44,3.51-2.62,5.65-2.57a35.06,35.06,0,0,1,7.63,1c.59.14,1.36,2.06,1.06,2.7a5,5,0,0,1-2.77,2.33C996.19,1448.21,989.49,1446,986.55,1444.1Z"/><path class="cls-1" d="M1019.68,1402.41a24.64,24.64,0,0,1-2.94,1.4c-4,1.32-8,1.74-12,0a2.79,2.79,0,0,1-1.42-2.07,2.57,2.57,0,0,1,1.66-1.83c4.55-.59,9.12-.84,13.53.61Z"/><path class="cls-1" d="M1258.75,1081.32c-1.54-4.75,1.1-8.34,9.59-13C1269.57,1072.51,1266,1077.42,1258.75,1081.32Z"/><path class="cls-1" d="M646.17,951.22c1.83,5.4,7.93,9.56,3.53,16.94-1.86-4.24-3.83-8.43-5.48-12.75-.43-1.13.13-2.64.23-4Z"/><path class="cls-1" d="M518.52,793.89c1,6.13,3.21,12.34-.3,18.83C515.1,808.74,515.15,802.73,518.52,793.89Z"/><path class="cls-1" d="M1133.74,1104.5l11.83-10.27c2.07,2.32,1,4.1-.23,5.3a70,70,0,0,1-7.66,6.51C1136.36,1107,1134.85,1106.92,1133.74,1104.5Z"/><path class="cls-1" d="M1438.77,709.43c-3.8-2.76-7.37-11.62-6.23-15.63,2.57.49,2.4,2.93,3.34,4.53a61.5,61.5,0,0,1,3.46,5.59C1440.13,705.69,1440.79,707.79,1438.77,709.43Z"/><path class="cls-1" d="M1148.3,1133.71c5.17-4.08,9.43-7.41,13.64-10.79,1.49-1.19,2.83-1.58,4.78.66-5.16,3.64-10.1,7.18-15.13,10.58C1151.09,1134.5,1150,1134,1148.3,1133.71Z"/><path class="cls-1" d="M1421.34,619.34c-2.35-1.56-4.07-2.61-5.7-3.8a76.75,76.75,0,0,1-6.88-5.4c-.51-.47-.36-2,0-2.9.17-.4,1.71-.58,2.4-.3C1413.35,607.8,1420.17,615.91,1421.34,619.34Z"/><path class="cls-1" d="M527,1000.06a13.1,13.1,0,0,1,1.18,2.94c.41,3,1.11,5.59,3.47,7.88,2,1.93,2.42,4.85,1.93,7.68-.6.07-1.17.23-1.22.13-2.08-4-4.3-8-6.06-12.19-.78-1.86-.62-4.12-.88-6.19Z"/><path class="cls-1" d="M1032.16,1397.83c.73-.89,1-1.48,1.4-1.66q6-2.55,12.06-5c.21-.09.61.32.92.5C1044.47,1396.62,1038.66,1399.26,1032.16,1397.83Z"/><path class="cls-1" d="M1091.62,1255.41c-4.68,2.8-7,8.13-14,6.2,3.1-3.8,7.18-5.07,10.42-7.38C1088.48,1253.9,1089.81,1254.78,1091.62,1255.41Z"/><path class="cls-1" d="M1085.43,1345c-2.8,6.48-5.33,7.77-11.12,5.7C1076.25,1348.3,1083.09,1344.78,1085.43,1345Z"/><path class="cls-1" d="M790.94,562.31c-4,2.11-7.25,2-10.29-.87C783.66,557.27,786.85,557.45,790.94,562.31Z"/><path class="cls-1" d="M484.87,853.65c.84,5.76.45,11.55.63,18.62C483.5,867.47,483.24,857.9,484.87,853.65Z"/><path class="cls-1" d="M541.87,1032.3c.46,4.41,5.91,6.55,4.94,11.61C542.13,1040.86,539.71,1035.46,541.87,1032.3Z"/><path class="cls-1" d="M740,1159.69c-5.42-3.07-6-3.87-6.33-8.19C738.79,1153.47,740.63,1155.69,740,1159.69Z"/><path class="cls-1" d="M1461.25,671.5l-4.72-8.76,1-.72c2.13,1.82,5.31,2.63,5.68,6.18a10.61,10.61,0,0,1-.68,3.14Z"/><path class="cls-1" d="M1425.64,880.93c.87,3.82,1.12,6.73-1.53,9.22C1421,887,1421.26,884.74,1425.64,880.93Z"/><path class="cls-1" d="M541.79,885.81c-2.58-5.29-2-9.56-.48-13.86C541.86,876.2,543.49,880.42,541.79,885.81Z"/><path class="cls-1" d="M1179.12,1331.11c-3,1.86-4.56,6.54-10.59,4.6C1173,1334.24,1174.26,1329.26,1179.12,1331.11Z"/><path class="cls-1" d="M583.72,871.92c2.68,4.1,2.08,7,.83,11C581.59,879.16,582,876.23,583.72,871.92Z"/><path class="cls-1" d="M564,655.9a29.25,29.25,0,0,1-2,5.15c-.42.67-1.74,1-2.65,1-.29,0-1-1.55-.84-2.22C559.08,657.44,560.2,655.41,564,655.9Z"/><path class="cls-1" d="M886.61,649.71c6.21-.25,6.21-.25,8.46,5.5-3.42-1.52-7.38-1.16-8.31-5.64Z"/><path class="cls-1" d="M554.47,824.26c3.43,2.56,3.21,4.7,2.55,6.82a2.06,2.06,0,0,1-1.69,1c-.56,0-1.51-.79-1.51-1.22C553.84,829,554.15,827.13,554.47,824.26Z"/><path class="cls-1" d="M1292.2,894.31a31.6,31.6,0,0,1-3.53,4.25c-.42.37-1.8-.34-2.74-.55.26-.79.28-1.92.83-2.32a32.31,32.31,0,0,1,4.32-2.29Z"/><path class="cls-1" d="M806.63,585.48a14.74,14.74,0,0,1,10.67-.28C813,588.57,809.83,585.51,806.63,585.48Z"/><path class="cls-1" d="M1049.35,1334.31c-2.51,3.35-4.87,3.59-8.17,2.57C1043.19,1333.76,1045.65,1333.71,1049.35,1334.31Z"/><path class="cls-1" d="M610.85,1027.91c.89,0,1.11-.07,1.24,0,2.15,1.35,2.57,3.41,2,5.67a2,2,0,0,1-1.81.64C609.89,1032.66,610,1030.43,610.85,1027.91Z"/><path class="cls-1" d="M1338.19,854.71c1.41-2,2.75-4,4.27-5.9a2.4,2.4,0,0,1,1.94-.19c.31.73.63,2,.25,2.38-1.59,1.7-3.43,3.15-5.18,4.7Z"/><path class="cls-1" d="M647.39,687.53c-.18,3,.08,6.15-2,8.94-2.33-4.49-1.85-6.27,2.17-8.79Z"/><path class="cls-1" d="M699.84,1104.53c-4,.3-4.54-2-4.46-5.32C699.23,1099.3,698.66,1102.65,699.84,1104.53Z"/><path class="cls-1" d="M544.79,760.39v-7c2.63,2.33,3.34,4.7,1.33,7.17Z"/><path class="cls-1" d="M522.32,887.79c1.29,3.38,2,6.78.59,10.3C521.29,894.73,521.52,891.28,522.32,887.79Z"/><path class="cls-1" d="M1376.89,567.17l6.39,3.85C1379.7,573.53,1379.31,573.31,1376.89,567.17Z"/><path class="cls-1" d="M1043.76,1283.5c-2.81,1.85-2.81,1.85-6.69,1C1039.56,1281.55,1040.12,1281.47,1043.76,1283.5Z"/><path class="cls-1" d="M1423.75,804.11c-2.26-3.19-.94-5.86.06-8.53C1424.59,798.23,1426.27,800.89,1423.75,804.11Z"/><path class="cls-1" d="M601.64,816.59v-6.47C605.19,812.13,605.26,812.85,601.64,816.59Z"/><path class="cls-1" d="M858.76,606.82c-5.66-1.08-5.66-1.08-7.88-2.87,4.23-2,5.63-1.46,7.74,3Z"/><path class="cls-1" d="M986.89,1321.84c-2.34,2.29-4.53,1.61-7,.18C983,1319.34,983.34,1319.33,986.89,1321.84Z"/><path class="cls-1" d="M517,983.22q-.33-3.16-.68-6.33l1.18-.15C518.64,978.75,520.12,980.7,517,983.22Z"/><path class="cls-1" d="M1346.07,946.12c.19-2.68.7-5.22,3-7.54,1,5.39.84,5.72-3.2,7.39Z"/><path class="cls-1" d="M626.86,958.06c4.62.05,4.63.07,3.7,5.28C629.21,961.4,628.15,959.89,626.86,958.06Z"/><path class="cls-1" d="M523.27,989l.66,6.78-1.55.23c-.4-2.22-.79-4.44-1.19-6.66Z"/><path class="cls-1" d="M896.76,1253.84l-6.33-2.87c4.53-2.35,5.33-1.86,6.19,3Z"/><path class="cls-1" d="M592.87,670c-.74-3.06-.74-3.06,1.33-5.15C596.1,667.58,594.31,668.73,592.87,670Z"/><path class="cls-1" d="M544.46,688.65c.14-1.77.28-3.54.48-6,2.61,3,2.61,3,.72,6.21Z"/><path class="cls-1" d="M536.28,1028c-.41-2-.81-4-1.22-6,3.08,1.33,3.26,3.42,2.86,5.68Z"/><path class="cls-1" d="M1357.67,569.5c2.53-.64,4.09,0,5.57,2.22C1360.48,572.87,1358.77,572.63,1357.67,569.5Z"/><path class="cls-1" d="M674.81,599c-1.88,2.25-3.71,2.19-6.41,1.22C670.55,598.37,672.26,597.82,674.81,599Z"/><path class="cls-1" d="M876.74,643.63l-6.17-1c3.06-2.65,4.8-2.25,6.47-.62Z"/><path class="cls-1" d="M886.76,649.57l-7.3-2.66c5.17-1.69,5.58-1.46,7.15,2.8Z"/><path class="cls-1" d="M1003.94,1420.39a6.16,6.16,0,0,1-.21,1.3,2.85,2.85,0,0,1-4.29.81,1.55,1.55,0,0,1-.44-1.43C1000.32,1418.88,1002,1419.89,1003.94,1420.39Z"/><path class="cls-1" d="M471.71,890.68v6.22c-2-2-1.68-4.09-1.23-6.24Z"/><path class="cls-1" d="M1006.53,1270.25h-5.83c1.85-2.38,3.81-2.74,5.89-1.33Z"/><path class="cls-1" d="M1071.17,1355.06l-4.67.65c1-2.82,2.58-3.07,4.38-2.47C1071,1353.85,1071.07,1354.45,1071.17,1355.06Z"/><path class="cls-1" d="M1080.29,1372.65c-1.49,2.3-3,2.55-5.51,1.39C1076.39,1372,1077.86,1371.36,1080.29,1372.65Z"/><path class="cls-1" d="M1075.68,1265.8l-5.84,1C1071.69,1263.36,1071.69,1263.36,1075.68,1265.8Z"/><path class="cls-1" d="M791.58,1227.74c-2,.46-2.94,1-3.6.75-.85-.33-2.12-1.4-2-2,.3-1.87,1.77-1.44,3-.84A21.71,21.71,0,0,1,791.58,1227.74Z"/><path class="cls-1" d="M678.91,1014.15c.25,1.49.51,3,.76,4.45l-1.6.37c-.43-1.46-.87-2.91-1.3-4.36Z"/><path class="cls-1" d="M1147.52,599.76c1.23-1.59,2.56-2.39,4.52-1C1150,601.24,1150,601.24,1147.52,599.76Z"/><path class="cls-1" d="M1352.78,822.43c-1.23-1.95-.13-3.49,2-4.93l-.42,5.09Z"/><path class="cls-1" d="M1381.45,1022.12c-.67-1.24-1.53-2.14-1.34-2.62.33-.83,1.31-1.39,2-2.07.48.64,1.46,1.4,1.35,1.91C1383.29,1020.2,1382.4,1020.9,1381.45,1022.12Z"/><path class="cls-1" d="M1499.72,766.21l.89,5.5c-3.39-1.81-3.17-3.44-2.46-5.21Z"/><path class="cls-1" d="M986.92,1349.77c2.65-2.35,4.2-2.21,5.72,0C990.83,1352.1,989.23,1351.71,986.92,1349.77Z"/><path class="cls-1" d="M880.7,1210.7a11.16,11.16,0,0,1,2.11,2.57c.11.26-1.31,1.63-1.71,1.5a8.49,8.49,0,0,1-2.37-1.86Z"/><path class="cls-1" d="M1307.05,1004.36c.26,1.42.6,2.14.44,2.74a13.18,13.18,0,0,1-1.5,2.71C1304.43,1007.62,1304.42,1006.25,1307.05,1004.36Z"/><path class="cls-1" d="M683.52,1021.83l1.16,4.36c-3.57-.72-3.26-2.28-2.83-3.88Z"/><path class="cls-1" d="M847.32,601.17,841.86,600c2.94-2.12,4.35-1.4,5.72-.3C847.49,600.19,847.41,600.68,847.32,601.17Z"/><path class="cls-1" d="M1393.16,615.93c1.84.53,4,.67,4.07,3.77-3.45.49-3.52-1.88-3.92-3.93Z"/><path class="cls-1" d="M925.35,1189.08c2.39-1.62,3.9-1.26,5.56.86C928.51,1191.61,927,1191.07,925.35,1189.08Z"/><path class="cls-1" d="M1476.94,693.72l.3,5c-2.48-1.43-2.43-3.15-1.82-5Z"/><path class="cls-1" d="M498.35,879.06v-5.92l.8-.07c.22,2,.43,4,.64,6Z"/><path class="cls-1" d="M1403.56,624.61c-1.64.19-3.42.69-4.22-1.42a1.47,1.47,0,0,1,.71-1.26c2.34-.58,2.56,1.49,3.36,2.84Z"/><path class="cls-1" d="M887.41,1247.55l-3.87-1.32C885.87,1244.37,887,1244.78,887.41,1247.55Z"/><path class="cls-1" d="M1021.7,1297.58c-1.57,1.6-2.83,1.81-4.53.26C1018.71,1296,1020,1296.17,1021.7,1297.58Z"/><path class="cls-1" d="M1393.31,615.77l-4.4-1.29c3-2.09,3-2.09,4.25,1.45Z"/><path class="cls-1" d="M950.46,713.19c.9-.78,1.49-1.61,1.82-1.51a7.74,7.74,0,0,1,2.05,1.37c-.41.48-.85,1.39-1.21,1.36A9.81,9.81,0,0,1,950.46,713.19Z"/><path class="cls-1" d="M1415.35,915.2c-.15,1.93-.25,3.22-.36,4.66-.75-.3-1.28-.37-1.33-.56C1413.3,917.91,1413,916.5,1415.35,915.2Z"/><path class="cls-1" d="M1470.19,793.2v-3l.88-.08.42,2.9Z"/><path class="cls-1" d="M1192.51,1099.44l-3,1.3-.48-.73a8.52,8.52,0,0,1,1.39-1.24,5.41,5.41,0,0,1,1.55-.35C1192.17,1098.76,1192.34,1099.1,1192.51,1099.44Z"/><path class="cls-1" d="M550.46,1009.56l-.24-3.39.94-.14.63,3.46Z"/><path class="cls-1" d="M1495.22,673.67a7.21,7.21,0,0,1,.8,2.18c0,.36-.67.71-1,1.07a6.27,6.27,0,0,1-1-1.7C1493.86,674.93,1494.53,674.46,1495.22,673.67Z"/><path class="cls-1" d="M1448.12,751.63l.48,3.93-1,.12c-.09-1.32-.18-2.64-.26-3.95Z"/><path class="cls-1" d="M1046.52,1367.17c-1.16-1.83-1.74-2.51-1.64-2.63a4,4,0,0,1,1.61-1.18c.16-.06.92.72.91,1.09A12.34,12.34,0,0,1,1046.52,1367.17Z"/><path class="cls-1" d="M674.85,1076.27l-1.1,1.54-1.88-1.46c.34-.36.73-1.06,1-1A7.32,7.32,0,0,1,674.85,1076.27Z"/><path class="cls-1" d="M927,1211.14l3.6,1c-2.56,2.23-3.09.67-3.45-1.17Z"/><path class="cls-1" d="M586.68,604c.86-.39,1.41-.87,1.83-.77s.94.72,1.4,1.11c-.39.34-.76.91-1.19,1S587.89,604.85,586.68,604Z"/><path class="cls-1" d="M983.85,1391.35l1.64.93a5.2,5.2,0,0,1-1,1.53c-.19.15-1.26-.34-1.26-.55A6.42,6.42,0,0,1,983.85,1391.35Z"/><path class="cls-1" d="M1204.47,1311.56c-1.21.84-1.74,1.5-2.25,1.48s-1-.73-1.45-1.14c.39-.36.74-1,1.16-1A9,9,0,0,1,1204.47,1311.56Z"/><path class="cls-1" d="M516.49,684l.59-2.38.81.11-.13,2.55Z"/><path class="cls-1" d="M1288.76,1033.5a6.43,6.43,0,0,1-1.84.84c-.27,0-.89-.94-.82-1a3.7,3.7,0,0,1,1.43-1.12C1287.68,1032.14,1288.14,1032.83,1288.76,1033.5Z"/><path class="cls-1" d="M582.43,632.33c-.25.44-.38.92-.57.95a5.71,5.71,0,0,1-1.47-.16c.19-.37.31-1,.59-1.07S581.9,632.21,582.43,632.33Z"/><path class="cls-1" d="M1023.34,711.53c.55.68,1.17,1.2,1.08,1.38a3.83,3.83,0,0,1-1.27,1.36c-.08.05-1-.68-.94-.91A7.45,7.45,0,0,1,1023.34,711.53Z"/><path class="cls-1" d="M856.8,1226l1.09,1.77c-.47.17-1,.55-1.39.45s-.73-.66-1.09-1Z"/><path class="cls-1" d="M619.11,599.89c-.75.54-1.32,1.14-1.5,1a2.85,2.85,0,0,1-1.15-1.32c-.07-.13.73-1,1-.89C618,598.85,618.41,599.37,619.11,599.89Z"/><path class="cls-1" d="M594.66,1118.42c-.57.27-1.18.73-1.36.6a1.74,1.74,0,0,1-.65-1.3c0-.28.67-.53,1.05-.79C594,1117.36,594.25,1117.79,594.66,1118.42Z"/><path class="cls-1" d="M1132,1316.43c-.73.48-1.14.94-1.52.92s-.62-.59-.92-.92c.27-.21.54-.6.8-.59A6.5,6.5,0,0,1,1132,1316.43Z"/><path class="cls-1" d="M868.3,638a5.14,5.14,0,0,1-1.51.53c-.25,0-.75-.53-.7-.62.18-.38.56-1,.79-1C867.29,637,867.64,637.44,868.3,638Z"/><path class="cls-1" d="M499.34,820.32l-1.14,1.06a4.36,4.36,0,0,1-.63-1.18c-.05-.21.45-.76.53-.72A7.53,7.53,0,0,1,499.34,820.32Z"/><path class="cls-1" d="M1448.09,785.43c0,1.06-.09,2.11-.14,3.17h-.6c0-1.09-.1-2.19-.14-3.28Z"/><path class="cls-1" d="M590.43,1076.47c-.73.48-1.35,1-1.47.94a3.89,3.89,0,0,1-1.17-1.49c-.06-.12.81-.92,1-.84A8.59,8.59,0,0,1,590.43,1076.47Z"/><path class="cls-1" d="M470.92,881.12v3h-.46V881Z"/><path class="cls-1" d="M668.15,1147.73l-.63-.66,1-.69c.13.28.41.6.35.82S668.4,1147.56,668.15,1147.73Z"/><path class="cls-1" d="M934,675.2l-.45.81-1-.74c.23-.21.46-.57.7-.57S933.68,675,934,675.2Z"/><path class="cls-1" d="M838.68,1147.57l-.46-.86c.3-.11.66-.39.87-.31s.32.53.47.81Z"/><path class="cls-1" d="M923.25,646.71a6.6,6.6,0,0,1,.46.82s-.31.32-.39.29a5.65,5.65,0,0,1-.78-.53Z"/><path class="cls-1" d="M626.8,1058.22c-.4-.73-.81-1.16-.79-1.57,0-.23.69-.53,1.1-.62.14,0,.61.54.56.76A5.94,5.94,0,0,1,626.8,1058.22Z"/><path class="cls-1" d="M1042,1369.07l-.65-.71,1.16-.71c.12.3.41.67.33.9S1042.33,1368.9,1042,1369.07Z"/><path class="cls-1" d="M513.63,965.08v2.43l-.6.06-.29-2.52Z"/><path class="cls-1" d="M1329.7,1034.08l-.64.68a3.74,3.74,0,0,1-.38-.84c0-.09.28-.38.31-.37A6.9,6.9,0,0,1,1329.7,1034.08Z"/><path class="cls-1" d="M583.92,1067.21c.08.52.16,1,.24,1.43-.27,0-.65.12-.77,0a1.22,1.22,0,0,1-.28-.89C583.15,1067.56,583.55,1067.44,583.92,1067.21Z"/><path class="cls-1" d="M1071.19,1377.77c-.2.5-.33,1.07-.45,1.07a5.49,5.49,0,0,1-1.35-.31c.12-.31.2-.84.37-.87A5.56,5.56,0,0,1,1071.19,1377.77Z"/><path class="cls-1" d="M1169.8,613.83l-1,.3-.28-.91,1-.29Z"/><path class="cls-1" d="M626.16,1127.82l.7.61-.9.84c-.16-.28-.45-.57-.43-.83S625.94,1128,626.16,1127.82Z"/><path class="cls-1" d="M816.5,1128.35c-.71.37-1.24.85-1.51.73s-.58-.75-.72-1.21c0-.1.57-.61.75-.55A7.61,7.61,0,0,1,816.5,1128.35Z"/><path class="cls-1" d="M476.52,925.16l-1.48.77a4.29,4.29,0,0,1-.55-1.22c0-.15.56-.61.73-.54A6.09,6.09,0,0,1,476.52,925.16Z"/><path class="cls-1" d="M835.2,1143a4.75,4.75,0,0,1-1.43.09c-.18,0-.24-.59-.36-.91a7.07,7.07,0,0,1,1.4-.32C834.91,1141.85,835,1142.45,835.2,1143Z"/><path class="cls-1" d="M731.1,1207.17a6.89,6.89,0,0,1,.67,1.25c0,.09-.69.56-.76.5a6.78,6.78,0,0,1-.9-1.09Z"/></svg>