<svg xmlns="http://www.w3.org/2000/svg" viewBox="0 0 1369.47 1075.97"><defs><style>.cls-1{fill:#fbf9f6;}</style></defs><g id="Calque_2" data-name="Calque 2"><g id="contenu"><path class="cls-1" d="M1157.68,14c-46.9-3.92-81.53-1.45-122.49,3.5-86.74,10.41-177.45,7.66-264.51,5.31C689,17.17,608-3.81,520.25,9.39,367.77,32.32,139.15-14.12,2.55,4.53c-.47.22-.94.41-1.42.61v688.1H0v374c7.76.9,16.33,1.52,21.86-.83,8.4-5,96.06-2.83,147.36-4.61,49.41-1.71,94.4,19.44,141.21,10.72,42.06-6.78,91.76-.42,133.93.77,103.81,2.16,166-17.71,279.85-11.31,168.76,34.73,253-7.51,396.81,3.3,17.63,2.12,200,7.36,225.14,8.62a50.53,50.53,0,0,0,23.31-4.17V9.37C1302.9,3.83,1207.06,28.48,1157.68,14Z"/></g></g></svg>