<svg width="21" height="12" viewBox="0 0 21 12" fill="none" xmlns="http://www.w3.org/2000/svg">
<path d="M2.19999 8.1C5.79999 4.6 6.29999 1.1 7.89999 0.8C9.39999 0.5 8.09999 0 10.7 0C14.6 0 12.9 0.6 16.2 4.3C18.9 7.3 20.7 9.9 20.3 10.2C19.7 10.7 18.1 10.9 17.2 10.6C16.3 10.3 14 7.8 13.7 6.7C13.5 6 11.6 3.7 11 3.3C10.7 3.2 10.5 3.3 10.4 3.4C9.39999 5.5 6.69999 9.1 5.69999 9.8C5.29999 10.1 4.79999 10.5 4.69999 10.7C4.39999 11.2 2.39999 11.2 1.49999 10.7C0.599991 10.3 0.899991 9.5 2.19999 8.1Z" fill="#000"/>
</svg>
