<svg width="11" height="8" viewBox="0 0 11 8" fill="none" xmlns="http://www.w3.org/2000/svg">
<path d="M9.59999 2.7C7.89999 4.7 7.69999 6.7 6.89999 6.9C6.19999 7.1 6.79999 7.4 5.59999 7.4C3.69999 7.4 4.49999 7 2.99999 4.9C1.69999 3.2 0.799991 1.7 0.999991 1.5C1.29999 1.2 1.99999 1.1 2.49999 1.3C2.89999 1.5 3.99999 2.9 4.19999 3.5C4.29999 3.9 5.19999 5.2 5.49999 5.4C5.59999 5.5 5.69999 5.4 5.69999 5.3C6.19999 4.1 7.39999 2 7.89999 1.6C8.09999 1.4 8.29999 1.2 8.39999 1.1C8.49999 0.8 9.49999 0.8 9.89999 1.1C10.3 1.5 10.2 1.9 9.59999 2.7Z" fill="white"/>
</svg>
