<svg width="84" height="84" viewBox="0 0 84 84" fill="none" xmlns="http://www.w3.org/2000/svg">
<path d="M4.39996 49.4C3.39996 47.3 2.49996 44.7 1.79996 42C1.29996 40 0.79996 38 0.39996 35.9C-0.10004 33.6 -3.9801e-05 31.3 0.0999602 29C0.19996 26 0.69996 23.1 1.39996 20.2C1.99996 17.8 3.09996 15.6 4.29996 13.5C5.49996 11.4 6.99996 9.50001 8.69996 7.80001C10.2 6.30001 11.9 5.10001 13.8 4.00001C17.7 1.90001 22 0.900013 26.5 1.00001C29.7 1.10001 32.6 1.80001 35.4 3.30001C36.2 3.70001 36.9 4.30001 37.6 4.90001C38.1 5.30001 38.6 5.50001 39.2 5.70001C43.4 6.60001 48.5 10.4 48.8 16.4C48.9 17.6 48.7 18.9 48.5 20.2C47.9 23.5 46.8 26.6 45.4 29.5C44.6 31.2 43.8 32.9 43.2 34.8C42.8 36 42.9 37.3 43 38.5C43 39.1 43.5 39.7 43.8 40.3C44.8 41.9 46 43.2 47.5 44.3C50.6 46.5 54 47.7 57.7 48.5C60.4 49.1 63.1 49.5 65.8 50.2C67.8 50.7 69.7 51.2 71.6 51.9C74.6 53 77.2 54.8 79.5 57.1C80.6 58.3 81.7 59.5 82.4 61C83.9 64.3 84.1 67.6 82.4 70.9C81.9 71.9 81.3 72.9 80.4 73.7C79.9 74.1 79.5 74.6 78.8 74.6C78.4 74.7 78.2 75 78 75.3C77.2 77.1 75.9 78.4 74.1 79.2C71.3 80.5 68.4 81.7 65.4 82.4C61.9 83.2 58.2 83.7 54.6 83.3C50.9 82.9 47.2 82.6 43.6 81.7C40.5 81 37.4 80.1 34.5 78.7C31.7 77.3 28.9 75.9 26.3 74.3C23.7 72.7 21.4 70.7 19.2 68.6C15.7 65.4 12.4 61.9 9.49996 58.1C7.59996 55.4 5.89996 52.7 4.39996 49.4ZM40.7 24.1C40.9 23.9 41.1 23.7 41.2 23.4C41.7 22.1 42.2 20.9 42.7 19.6C42.8 19.2 42.9 18.8 42.9 18.4C42.9 17.2 42.9 16 42.9 14.8C42.9 13.8 42.8 12.7 42.4 11.7C42.3 11.5 42.3 11.2 42.3 10.9C42.6 11.1 42.8 11.2 42.9 11.3L43 11.2L41.6 10C41.6 10.5 41.7 10.8 41.8 11.2C41.8 11.4 41.9 11.5 42 11.6C42.9 14.3 42.9 17.1 42 19.8C41.5 21.2 41.2 22.7 40.7 24.1C40.2 25.4 39.7 26.6 39.3 27.9C38.9 29.1 38.5 30.4 38.1 31.6C38.1 31.8 38 31.9 37.9 32.1C37.8 31.5 37.9 31 38 30.4C38.1 29.8 38.3 29.3 38.4 28.7C38.6 28.1 38.7 27.5 38.9 27C39.1 26.5 39.2 26 39.4 25.5C37.5 28.5 36.8 31.8 36.3 35.2C36.2 34.7 36.1 34.3 36.1 33.8C36.1 30.1 37.4 26.7 38.7 23.3C39.2 22 39.8 20.7 40.1 19.3C40.7 16.9 40.6 14.5 39.8 12.2C39 9.60001 37.5 7.50001 35.2 6.00001C33.6 5.00001 32 4.30001 30.2 3.80001C29 3.40001 27.7 3.20001 26.5 3.20001C25.1 3.30001 23.7 3.30001 22.3 3.50001C19.7 3.70001 17.3 4.60001 15.1 5.90001C12 7.70001 9.49996 10.1 7.19996 13C5.99996 14.6 4.99996 16.3 4.19996 18.1C3.69996 19.1 3.29996 20.1 3.09996 21.2C2.39996 23.6 2.09996 26 1.99996 28.5C1.69996 33.1 2.29996 37.5 3.89996 41.7C4.89996 44.4 6.09996 47 7.19996 49.6C7.59996 50.6 8.09996 51.5 8.59996 52.4C10.7 55.7 13.1 58.9 15.7 61.9C18 64.5 20.4 67 23.2 69.1C26.2 71.3 29.3 73.5 32.6 75.3C35.3 76.9 38.2 78.2 41.2 78.9C43.9 79.5 46.5 80 49.2 80.5C50.1 80.7 51 80.8 51.9 80.8C54.2 80.9 56.4 80.8 58.7 80.7C61.1 80.5 63.4 80.4 65.7 79.7C66.8 79.4 67.8 78.9 68.9 78.6C70.8 78.1 72.6 77.2 74.3 76.3C75.5 75.7 76.5 74.8 77.1 73.7C78.2 71.6 78.7 69.3 78.4 67C78.1 65.2 77.9 63.3 76.7 61.7C76.7 61.7 76.7 61.6 76.7 61.4C77.4 61.8 77.8 62.4 78.1 63C79 64.7 79.3 66.5 79.4 68.3C79.4 69.3 79.3 70.4 79.2 71.5C80.7 69.4 81.4 67.2 81.1 64.7C80.7 61.5 79.1 58.8 76.5 56.9C72.7 54.1 68.3 52.3 63.6 51.3C61 50.8 58.4 50.3 55.9 49.8C52.8 49.1 49.8 48.1 47.2 46.2C44.8 44.4 43.1 42.1 42 39.3C41.4 37.6 41.3 35.9 41.9 34.2C42.5 32.6 43 31 43.7 29.4C44.8 26.8 45.7 24.1 46.3 21.3C46.7 19.8 47 18.3 46.9 16.7C46.9 13.4 45.4 10.9 43 9.00001C42.2 8.40001 41.3 8.10001 40.3 7.90001C40.5 8.40001 40.7 8.80001 41.1 9.00001C42.2 9.40001 42.9 10.2 43.6 11.1C43.8 11.3 44 11.6 44.2 11.8C44.9 12.3 45.2 12.9 45.5 13.6C45.8 14.4 46 15.2 46.2 16C46.3 16.5 46.3 17.1 46.3 17.6C46.3 18 46.2 18.3 45.8 18.6C45.7 17.5 45.6 16.5 45.3 15.7C45.2 17 45 18.3 44.8 19.7C44.7 20.3 44.6 21 43.9 21.4C43.8 21.5 43.7 21.7 43.7 21.9C43.5 22.2 43.4 22.6 43.2 22.9C42.9 23.5 42.6 24.1 42.5 24.7C42.4 25.2 42.2 25.8 41.8 26.2C41.9 25.4 41.9 24.5 42.2 23.7C42.6 22.5 43.1 21.3 43.6 20.1C43.7 19.8 44 19.5 44.2 19.1C44.1 15.6 44 15.4 43.6 14.7C43.5 15.5 43.4 16.4 43.4 17.4C43.3 19.8 42.6 22.1 41.4 24.2C41.2 24.6 41 24.9 40.9 25.3C40.3 27.2 39.8 29.1 39.2 31.1C39.1 31.6 39 32.1 38.6 32.5C38.3 32 38.5 31.6 38.5 31.1C38.8 29.1 39.4 27.2 40.1 25.3C40.7 25 40.7 24.5 40.7 24.1Z" fill="#6F7FB5"/>
<path d="M71.4 56.4C73.2 57.5 75.1 58.6 76.2 60.4C76.2 60.5 76.1 60.5 76.1 60.6C75.9 60.5 75.7 60.5 75.6 60.4C73.3 58.9 71.1 57.3 68.4 56.3C68.2 56.2 67.9 56.1 67.7 56C64.8 55.2 62 54.2 59 53.5C56.8 53 54.5 52.7 52.3 52.3C51.3 52.1 50.3 51.8 49.4 51.5C49 51.4 48.7 51.2 48.4 50.7C48.6 50.7 48.7 50.7 48.8 50.7C51.3 51.4 53.8 51.7 56.4 52.1C57.6 52.3 58.8 52.6 59.9 52.8C61.6 53.2 63.4 53.5 65.1 53.9C66.4 54.2 67.7 54.5 69 54.9C68.7 54.7 68.4 54.5 67.9 54.3C68.7 54.2 69.2 54.3 69.7 54.5C71.8 55.2 73.9 56.2 75.6 57.7C75.8 57.9 76 58.2 76.3 58.5C75.8 58.8 75.5 58.5 75.3 58.3C74.3 57.7 73.4 57.1 72.4 56.5C72.1 56.3 71.8 56.2 71.5 56.1C71.5 56.2 71.4 56.3 71.4 56.4Z" fill="#6F7FB5"/>
<path d="M74.2 65.1C75.1 65.4 75.4 66.1 75.6 66.7C75.9 67.5 76.1 68.4 76.1 69.3C76.1 69.9 76 70.4 75.7 70.9C75.4 71.5 75.1 72.2 75.1 73C75.2 72.9 75.4 72.8 75.5 72.7C76.6 70.6 77.2 68.4 76.1 66.1C75.7 65.2 75.2 64.3 74.8 63.3C76.2 63.9 77.3 66.7 77.5 69.5C77.5 69.2 77.6 68.8 77.6 68.5C77.6 68.1 77.6 67.7 77.5 67.4C77.5 67 77.4 66.7 77.3 66.1C77.7 66.5 77.9 66.9 77.9 67.2C78.3 69.1 78.2 70.8 77.1 72.5C76.8 72.9 76.6 73.4 76 73.6C75.8 73.7 75.6 74 75.4 74.2C74.7 75 73.8 75.5 72.9 76.1C72.8 76.2 72.6 76.2 72.4 76.2C72.3 76.1 72.3 76 72.2 75.8C69.7 77.7 66.8 78.8 63.4 79C63.9 78.4 64.5 78.3 64.9 78.2C66.2 77.7 67.6 77.4 68.9 76.8C70.3 76.2 71.6 75.5 72.8 74.4C73.3 74 73.5 73.4 73.6 72.8C73.7 72.4 73.7 72.1 73.8 71.7C74.1 70.9 74.2 70.2 73.7 69.4C73.4 69 73.3 68.4 73.1 67.9C73.2 67.9 73.2 67.8 73.3 67.8C73.7 68.1 74 68.4 74.6 68.8C74.7 69.6 74.7 70.4 74.8 71.3C75.2 70.7 75.4 69.7 75.1 68.4C75 67.2 74.6 66.3 74.2 65.1Z" fill="#6F7FB5"/>
<path d="M3.79996 26.5C3.79996 27 3.89996 27.4 3.89996 27.9C3.99996 29.4 4.09996 30.9 4.19996 32.4C4.49996 35.3 5.29996 38.1 6.19996 40.9C7.19996 43.9 8.39996 46.8 9.89996 49.5C10.6 50.8 11.4 52.1 12.2 53.3C13.8 55.7 15.5 58 17.1 60.4C17.2 60.6 17.3 60.8 17.3 61.2C17 61 16.8 60.7 16.5 60.5C14.6 58.4 12.9 56.1 11.4 53.8C9.79996 51.4 8.49996 48.8 7.09996 46.2C5.89996 43.8 4.99996 41.3 4.29996 38.8C3.69996 36.3 3.29996 33.8 3.29996 31.3C3.29996 30.2 3.29996 29 3.29996 27.9C3.29996 27.4 3.39996 27 3.39996 26.5C3.59996 26.5 3.69996 26.5 3.79996 26.5Z" fill="#6F7FB5"/>
<path d="M19.9 63.3C20.2 63.5 20.4 63.7 20.7 63.9C23.6 66.6 26.8 68.9 30.2 71C32.6 72.5 35 74.1 37.6 75.4C40.7 76.9 43.9 77.9 47.3 78.6C47.9 78.7 48.5 78.7 49 79.2C48.7 79.5 48.3 79.4 47.9 79.4C46.3 79.3 44.8 78.9 43.3 78.4C40.1 77.4 37.1 76 34.2 74.4C30.3 72.1 26.6 69.7 23.2 66.9C22.3 66.2 21.5 65.4 20.7 64.6C20.4 64.3 20.1 63.9 19.8 63.5C19.8 63.4 19.8 63.4 19.9 63.3Z" fill="#6F7FB5"/>
<path d="M30.1 5.20001C28.9 5.00001 27.8 4.80001 26.7 4.80001C25.3 4.70001 24 4.70001 22.6 4.90001C21.7 5.00001 20.8 5.50001 20 5.90001C18.4 6.70001 16.8 7.70001 15.5 9.00001C14.1 10.4 12.9 12 12 13.8C11.5 14.8 11 15.9 10.5 16.9C10.4 17.1 10.2 17.4 9.99996 17.5C10.4 15.9 10.7 14.2 11.5 12.8C13.2 9.80001 15.5 7.40001 18.6 5.80001C20.1 5.00001 21.6 4.20001 23.3 4.10001C24.9 3.90001 26.6 4.00001 28.2 4.30001C28.9 4.30001 29.6 4.40001 30.1 5.20001Z" fill="#6F7FB5"/>
<path d="M5.79996 34.3C5.89996 34.2 5.99996 34 6.19996 33.7C6.29996 34.2 6.39996 34.5 6.39996 34.8C6.59996 37.2 7.39996 39.5 8.29996 41.7C8.69996 42.8 9.19996 43.9 9.59996 44.9C11.4 48.8 13.4 52.5 15.8 56.1C16 56.4 16.1 56.7 16.2 57.1C16 57 15.8 56.9 15.7 56.7C14.8 55.5 13.9 54.4 13.2 53.1C12.1 51.3 11 49.4 9.99996 47.5C9.49996 46.5 8.99996 45.5 8.59996 44.5C7.59996 42.1 6.49996 39.7 6.09996 37.1C5.99996 36.2 5.89996 35.3 5.79996 34.4C5.79996 34.4 5.79996 34.3 5.79996 34.3Z" fill="#6F7FB5"/>
<path d="M45.2 77.5C44.1 77.5 43.2 77.1 42.2 76.8C38.7 75.6 35.3 73.9 32.2 71.9C30.4 70.7 28.7 69.4 27 68.1C26.4 67.6 25.8 67 25.3 66.4C25.1 66.2 25 66 25 65.7C25.3 65.9 25.7 66.2 26 66.4C30.1 69.8 34.5 72.7 39.3 74.9C40.8 75.6 42.4 76.1 43.9 76.7C44.4 76.9 44.9 77.1 45.4 77.3C45.3 77.3 45.2 77.4 45.2 77.5Z" fill="#6F7FB5"/>
<path d="M51.5 54.3C50.9 54.5 50.3 54.4 49.8 54.2C48.9 53.9 48.1 53.6 47.3 53.2C44.4 51.8 41.7 50.2 39.3 48C38.7 47.4 38.1 46.8 37.6 46C42 49.2 46.5 52.2 51.5 54.3Z" fill="#6F7FB5"/>
<path d="M46.8 50.4C46 50 45.2 49.6 44.5 49.1C42.2 47.5 40.3 45.5 38.8 43.2C37.8 41.7 37.1 39.9 36.8 38.1C36.7 37.6 36.7 37.2 37 36.7C37.5 38.1 37.9 39.4 38.5 40.7C39 42.1 39.9 43.3 40.8 44.4C41.7 45.5 42.7 46.6 43.7 47.6C44.7 48.6 45.8 49.4 46.9 50.3C46.8 50.3 46.8 50.4 46.8 50.4Z" fill="#6F7FB5"/>
<path d="M25.4 63.3C25.9 63.2 26.2 63.5 26.5 63.7C28.7 65.4 30.8 67 33 68.7C34 69.5 35.2 70.1 36.3 70.8C36.7 71.1 37.1 71.3 37.5 71.6C37.2 71.9 36.9 71.8 36.6 71.7C35.8 71.4 34.9 71.1 34.2 70.6C31.4 68.9 28.7 66.9 26.3 64.6C25.9 64.2 25.5 63.9 25.4 63.3Z" fill="#6F7FB5"/>
<path d="M35.6 22.3C35.7 22.5 35.7 22.5 35.7 22.6C35.7 22.7 35.7 22.8 35.7 22.9C34.4 26.3 34 29.8 33.2 33.3C33.2 33.4 33.1 33.4 32.9 33.7C32.8 33.2 32.8 32.9 32.8 32.6C32.8 29.9 33.3 27.2 34.1 24.6C34.3 24 34.7 23.4 35 22.8C35.2 22.6 35.4 22.5 35.6 22.3Z" fill="#6F7FB5"/>
<path d="M8.39996 20C7.99996 21.9 7.59996 23.7 7.39996 25.5C7.19996 27.3 7.09996 29.1 6.99996 31C6.79996 30.8 6.59996 30.7 6.59996 30.6C6.49996 30.2 6.39996 29.7 6.39996 29.3C6.29996 27.2 6.49996 25.1 6.99996 23C7.19996 22.1 7.59996 21.3 7.99996 20.5C7.89996 20.3 8.09996 20.2 8.39996 20Z" fill="#6F7FB5"/>
<path d="M47.9 74.2C47.4 74.2 47 74.3 46.7 74.2C46.2 74.2 45.8 74.1 45.3 73.9C42.8 73.2 40.4 72.1 38.2 70.8C37.9 70.6 37.4 70.5 37.4 69.8C37.8 69.9 38.1 70 38.4 70.1C39.2 70.5 40 70.9 40.8 71.2C42.7 72.1 44.7 72.9 46.7 73.4C46.9 73.5 47.1 73.5 47.3 73.6C47.5 73.9 47.6 74 47.9 74.2Z" fill="#6F7FB5"/>
<path d="M15.5 11C17.9 7.00001 24 4.20001 27.2 5.30001C27 5.30001 27 5.40001 26.9 5.40001C24.8 5.50001 22.8 6.10001 21 7.00001C19.8 7.60001 18.7 8.50001 17.5 9.30001C16.8 9.90001 16.1 10.5 15.5 11Z" fill="#6F7FB5"/>
<path d="M50.4 77.4C47.3 77 44.3 76.1 41.5 74.7C40.3 74.1 40.2 74 39.9 73.4H40C40.1 73.4 40.2 73.4 40.3 73.4C43.6 74.9 47 76 50.4 77.1L50.5 77.2C50.5 77.2 50.4 77.3 50.4 77.4Z" fill="#6F7FB5"/>
<path d="M13.2 9.00001C11 11.6 10.1 14.8 8.89996 17.8C8.79996 17.8 8.59996 17.8 8.49996 17.8C8.39996 17.9 8.29996 18.1 8.19996 18.2C8.09996 18.2 8.09996 18.1 8.09996 18.1C8.19996 17.7 8.19996 17.2 8.39996 16.8C9.09996 14.6 10.3 12.6 11.5 10.6C11.9 9.90001 12.6 9.40001 13.1 8.80001C13 8.90001 13.1 8.90001 13.2 9.00001Z" fill="#6F7FB5"/>
<path d="M17.5 11.2C17.3 11.4 17.2 11.6 17 11.8C14.7 13.9 13.4 16.5 12.5 19.4C12.2 20.3 11.9 21.2 11.5 22.1C11.5 22 11.4 21.8 11.4 21.7C12 18.5 12.8 15.5 15 13C15.7 12.2 16.4 11.5 17.4 11C17.4 11 17.5 11.1 17.5 11.2Z" fill="#6F7FB5"/>
<path d="M32.7 7.80001C32.2 7.00001 31.8 6.30001 31.2 5.30001C31.5 5.40001 31.7 5.40001 31.8 5.50001C32.3 6.00001 32.9 6.50001 33.3 7.10001C34.5 8.70001 35.6 10.4 36.1 12.3C36.2 12.7 36.2 13.2 36.3 13.7C36.2 13.7 36.2 13.7 36.1 13.8C36 13.6 35.8 13.3 35.7 13.1C34.9 11.3 33.9 9.60001 32.8 8.00001C32.8 7.90001 32.7 7.80001 32.7 7.80001Z" fill="#6F7FB5"/>
<path d="M11.2 44.1C10.9 43.6 10.5 43 10.3 42.5C8.89996 39.2 7.89996 35.8 7.69996 32.3C7.59996 31.5 7.69996 31.5 7.99996 30.8C8.09996 31.2 8.19996 31.5 8.19996 31.7C8.39996 35.4 9.39996 38.9 10.9 42.2C11.2 42.8 11.4 43.4 11.6 44C11.4 44 11.3 44.1 11.2 44.1Z" fill="#6F7FB5"/>
<path d="M32.6 7.80001C33.1 8.90001 33.7 9.90001 34 11.1C34.2 11.9 34.2 12.7 34 13.4C34 13.5 33.8 13.6 33.7 13.8C33.6 13 33.6 12.4 33.4 11.7C33 10 32 8.50001 30.9 7.10001C30.6 6.60001 30.2 6.20001 30 5.60001C30.7 5.70001 31.6 6.50001 32.1 7.20001C32.3 7.40001 32.5 7.60001 32.6 7.80001Z" fill="#6F7FB5"/>
<path d="M23.6 60.9C20.1 58.9 17.8 55.8 16.2 52C16.4 52.2 16.6 52.4 16.7 52.6C17.5 53.6 18.2 54.7 19 55.8C20 57.2 21.1 58.4 22.4 59.5C22.9 59.9 23.3 60.3 23.7 60.7C23.7 60.8 23.7 60.8 23.6 60.9Z" fill="#6F7FB5"/>
<path d="M14.3 12.7C14.1 13.1 13.9 13.3 13.8 13.5C13 14.8 12.3 16.1 11.9 17.6C11.6 18.5 11.3 19.4 11 20.3C10.9 20.6 10.8 20.9 10.4 21.1C10.4 20.8 10.3 20.6 10.4 20.4C10.8 18.3 11.4 16.1 12.6 14.3C12.9 13.9 13.1 13.5 13.4 13.1C13.5 13 13.7 12.7 14.3 12.7Z" fill="#6F7FB5"/>
<path d="M47.1 72.2C45.3 72.2 43.7 71.7 42.1 71C39.8 69.9 37.7 68.6 35.7 67C35.4 66.7 35.1 66.4 34.8 66.1C35.3 66.2 35.7 66.5 36.1 66.8C37.9 68 39.6 69.2 41.6 70.2C43.2 71 44.8 71.5 46.5 71.9C46.7 72 47 72 47.2 72.1C47.2 72.1 47.3 72.1 47.3 72.2C47.2 72.1 47.1 72.1 47.1 72.2Z" fill="#6F7FB5"/>
<path d="M64.6 56.1C61 55.3 57.4 54.4 53.7 53.4C55.5 53 63.2 54.9 64.6 56.1Z" fill="#6F7FB5"/>
<path d="M38.2 48.8C38.3 48.8 38.4 48.8 38.5 48.9C40.8 50.8 43.4 52.3 46 53.8C46 53.8 46 53.9 46.1 54C45.4 54.1 44.4 53.8 42.8 52.8C41.1 51.8 39.4 50.7 38.2 49.1C38.1 48.9 38.2 48.8 38.2 48.8Z" fill="#6F7FB5"/>
<path d="M38.8 39.1C39.9 40.6 40.8 42.1 42 43.5C43.2 44.9 44.5 46.1 45.8 47.5C43.5 46.8 39.6 42.1 38.8 39.1Z" fill="#6F7FB5"/>
<path d="M51.4 69.9C53.2 70.2 54.8 70.5 56.5 70.7C58.1 70.9 59.8 70.9 61.5 71C61.3 71.1 61.2 71.3 61 71.3C60.7 71.4 60.3 71.4 60 71.4C57.6 71.4 55.2 71.1 52.9 70.6C52 70.6 52 70.5 51.4 69.9Z" fill="#6F7FB5"/>
<path d="M31.7 30.8C31.6 30.5 31.4 30.2 31.4 29.9C31.4 28.1 31.9 26.5 32.6 24.9C32.7 24.7 32.9 24.5 33.2 24.2C33.3 25 33.1 25.5 33 26C32.7 27.1 32.4 28.2 32.1 29.3C32 29.8 32 30.3 31.9 30.8C31.8 30.8 31.8 30.8 31.7 30.8Z" fill="#6F7FB5"/>
<path d="M18.1 57.6C19.9 59.5 21.8 61.4 23.8 63.5C23.1 63.5 22.7 63.1 22.3 62.8C20.6 61.3 18.9 59.8 18.1 57.6Z" fill="#6F7FB5"/>
<path d="M51.7 78.7C53.3 78.7 54.9 78.8 56.5 78.7C58.1 78.6 59.6 78.4 61.2 78.3C60.9 78.4 60.7 78.6 60.4 78.7C57.7 79.4 55 79.4 52.3 79.1C52.1 79.1 51.8 79 51.6 78.9C51.7 78.8 51.7 78.7 51.7 78.7Z" fill="#6F7FB5"/>
<path d="M34.6 32.8C34.4 30.2 35.6 25 36.6 23.8C36.6 24 36.6 24.1 36.6 24.2C35.9 27 35.3 29.8 34.6 32.8Z" fill="#6F7FB5"/>
<path d="M41.7 27.8C41.5 30.1 40.9 32.3 40.2 34.5C39.9 34 40 33.4 40.1 32.9C40.5 31.2 40.8 29.4 41.7 27.8Z" fill="#6F7FB5"/>
<path d="M34.8 35.6C35 36.1 35.9 40.9 35.9 42.3C35.7 41.9 35.5 41.7 35.4 41.5C34.7 39.8 34.4 38.1 34.4 36.3C34.4 36 34.4 35.7 34.8 35.6Z" fill="#6F7FB5"/>
<path d="M8.29996 13.5C8.09996 14.8 6.49996 18.9 6.09996 19.5C5.99996 19.3 5.89996 19.1 5.89996 19C6.29996 17.3 6.69996 15.6 7.69996 14.2C7.79996 13.9 7.89996 13.8 8.29996 13.5Z" fill="#6F7FB5"/>
<path d="M66.7 76.9C66.8 76.8 66.9 76.7 67 76.6C68.8 75.7 70.3 74.5 72 73.2C71.8 74.8 68.7 76.9 66.7 76.9Z" fill="#6F7FB5"/>
<path d="M5.29996 26.9C4.89996 26.5 4.99996 26.1 4.99996 25.7C5.19996 24 5.49996 22.2 6.39996 20.6C6.59996 21.3 6.29996 22 6.19996 22.6C6.09996 23.3 5.99996 24 5.79996 24.6C5.69996 25.4 5.69996 26.2 5.29996 26.9Z" fill="#6F7FB5"/>
<path d="M34.4 7.30001C35.5 8.00001 37.6 11.9 37.7 13.4C37 12.7 34.6 8.30001 34.4 7.30001Z" fill="#6F7FB5"/>
<path d="M57.4 74.2C56.5 74.7 55.5 74.7 54.5 74.6C53.1 74.5 52.3 74.2 51.7 73.6C52.2 73.4 52.6 73.7 53.1 73.7C53.6 73.8 54.1 73.9 54.6 73.9C55.1 73.9 55.5 73.9 56 73.9C56.5 73.9 56.9 73.9 57.4 73.9C57.4 74 57.4 74.1 57.4 74.2Z" fill="#6F7FB5"/>
<path d="M9.49996 21.6C9.59996 22.8 9.09996 28.2 8.89996 28.7C8.39996 27.5 8.69996 23.3 9.49996 21.6Z" fill="#6F7FB5"/>
<path d="M36.6 8.90001C37.8 9.80001 38.3 11.1 38.8 12.4C39.2 13.4 39.1 13.9 38.8 14.8C38.5 12.5 37.4 10.8 36.6 8.90001Z" fill="#6F7FB5"/>
<path d="M5.79996 34.3C5.79996 34.4 5.79996 34.4 5.79996 34.5C5.69996 34.5 5.59996 34.6 5.39996 34.7C4.99996 33 4.89996 31.4 4.99996 29.8C4.99996 29.6 5.19996 29.4 5.29996 29.2C5.79996 29.4 5.59996 29.7 5.59996 29.9C5.69996 31.3 5.79996 32.8 5.79996 34.3Z" fill="#6F7FB5"/>
<path d="M19.5 10.7C18.3 12.1 17.2 13.6 15.9 15.1C15.7 14.5 15.9 14.1 16.2 13.8C17.1 12.5 17.8 11 19.5 10.7Z" fill="#6F7FB5"/>
<path d="M17.3 17.4C17.2 16 18.8 13.5 20 13.1C19.2 14.5 18.4 15.8 17.6 17.1C17.6 17.2 17.4 17.2 17.3 17.4Z" fill="#6F7FB5"/>
<path d="M9.79996 30.3C9.99996 32.1 10.3 33.8 10.5 35.6C9.49996 34.7 9.09996 31.7 9.79996 30.3Z" fill="#6F7FB5"/>
<path d="M42.3 54.1C40.9 53.9 38.5 52.2 37.9 51C38.8 51.4 39.5 52 40.2 52.5C40.9 53 41.8 53.4 42.3 54.1Z" fill="#6F7FB5"/>
<path d="M20.6 54.2C22 55.9 23.4 57.5 24.8 59.2C23.7 58.8 21.2 55.9 20.6 54.2Z" fill="#6F7FB5"/>
<path d="M54.4 55.2C55.5 54.9 58 55.2 59.1 55.8C58.9 55.9 58.8 55.9 58.6 55.9C57.4 55.8 56.3 55.8 55.1 55.7C54.9 55.7 54.6 55.6 54.4 55.2Z" fill="#6F7FB5"/>
<path d="M20.9 14.4C20.6 15.7 19.4 18.1 18.8 18.6C18.7 17.5 19.7 15.4 20.9 14.4Z" fill="#6F7FB5"/>
<path d="M33 39C32.2 37.9 32.2 36.6 32.4 35.2C32.8 35.4 32.9 35.7 33 36C33 37.1 33.3 38 33 39Z" fill="#6F7FB5"/>
<path d="M12.2 28.8C12.5 29.6 12.5 32.4 12.2 34C11.8 33 11.8 32.2 11.8 31.3C11.8 30.5 11.7 29.7 12.2 28.8Z" fill="#6F7FB5"/>
<path d="M3.89996 24.4C3.69996 23 3.99996 21.8 4.69996 20.5C5.09996 21.4 4.69996 23.5 3.89996 24.4Z" fill="#6F7FB5"/>
<path d="M14.9 39.2C15.1 39.4 15.2 39.4 15.2 39.5C15.9 41.3 16.5 43 17.2 44.9C17.1 44.8 16.9 44.8 16.9 44.7C16.1 43.2 15.4 41.6 15 40C14.9 39.7 14.9 39.5 14.9 39.2Z" fill="#6F7FB5"/>
<path d="M64.5 59.6C63.3 59.3 62.1 59 60.9 58.7C59.7 58.5 58.5 58.4 57.3 58.2C58.4 57.8 62.9 58.7 64.5 59.6Z" fill="#6F7FB5"/>
<path d="M62 52.4C62.9 52.1 65.3 52.6 66.9 53.3C65.9 53.6 65.2 53.1 64.4 53C63.7 52.8 62.9 52.6 62 52.4Z" fill="#6F7FB5"/>
<path d="M55.1 56.5C56 56.1 58.3 56.4 59.2 57C58.4 57.2 56.1 56.9 55.1 56.5Z" fill="#6F7FB5"/>
<path d="M26.3 6.70001C24.6 7.20001 23 7.70001 21.5 8.10001C21.8 7.60001 21.8 7.60001 23.6 7.00001C24.4 6.70001 25.3 6.40001 26.3 6.70001Z" fill="#6F7FB5"/>
<path d="M34.4 41.3C33.8 40.5 33.5 38.7 33.7 37.5C34.1 38.2 34.6 40.6 34.4 41.3Z" fill="#6F7FB5"/>
<path d="M70.3 72.8C70.4 73.5 69.9 73.7 69.6 74C68.9 74.5 68.2 74.7 67.5 74.6C67.5 74.5 67.6 74.4 67.6 74.4C67.7 74.3 67.9 74.2 68.1 74.1C68.8 73.7 69.5 73.3 70.3 72.8Z" fill="#6F7FB5"/>
<path d="M29.4 5.80001C30.3 6.60001 30.8 7.60001 31.2 8.70001C30.5 8.60001 29.5 6.90001 29.4 5.80001Z" fill="#6F7FB5"/>
<path d="M35.6 69.3C34.2 68.7 32.9 67.9 31.7 66.9L31.8 66.7C33.1 67.5 34.4 68.3 35.7 69.1C35.6 69.2 35.6 69.2 35.6 69.3Z" fill="#6F7FB5"/>
<path d="M73.3 70.4C73.7 70.9 73.5 71.4 73.2 71.9C73 72.3 72.8 72.6 72.3 72.6C72.4 72 72.9 70.9 73.3 70.4Z" fill="#6F7FB5"/>
<path d="M35.3 62.1C36.5 62.6 37.6 63.2 38.8 63.7C37.4 63.6 36.3 63.1 35.2 62.3C35.2 62.2 35.2 62.2 35.3 62.1Z" fill="#6F7FB5"/>
<path d="M14.6 19.3C14.6 20.3 14.4 21.3 13.7 22.1C13.7 21.1 14.1 20.2 14.6 19.3Z" fill="#6F7FB5"/>
<path d="M29.8 27.8C29.6 26.7 29.9 25.7 30.7 24.8C30.6 25.8 30.2 26.8 29.8 27.8Z" fill="#6F7FB5"/>
<path d="M23.3 54.7C22.5 54.4 22 53.7 21.5 52.3C22.4 53.1 23 54 23.3 54.7Z" fill="#6F7FB5"/>
<path d="M13.5 46.4C12.9 45.6 12.5 44.8 12.2 43.8C12.9 44.2 13.5 45.4 13.5 46.4Z" fill="#6F7FB5"/>
<path d="M18.3 37.3C17.9 36.7 17.8 36 18 35C18.3 35.9 18.3 36.6 18.3 37.3Z" fill="#6F7FB5"/>
<path d="M38.9 35.9C38.9 35.4 39 34.8 39 34.3C39.3 34.9 39.2 35.4 38.9 35.9Z" fill="#6F7FB5"/>
</svg>
