<svg width="72" height="87" viewBox="0 0 72 87" fill="none" xmlns="http://www.w3.org/2000/svg">
<g clip-path="url(#clip0)">
<path d="M24.5999 46.7C25.0999 45.1 25.2999 43.5 25.7999 41.9C26.4999 39.5 26.4999 37 26.2999 34.5C26.2999 33.7 25.9999 32.9 25.7999 32.2C25.2999 30.4 24.6999 28.5 24.1999 26.7C23.5999 24.1 23.3999 21.4 23.1999 18.7C22.9999 14.9 24.2999 11.6 26.1999 8.29999C26.1999 8.29999 26.1999 8.19999 26.2999 8.19999C27.5999 6.79999 28.6999 5.29999 30.2999 4.19999C30.9999 3.69999 31.6999 3.29999 32.4999 2.79999C34.6999 1.29999 37.0999 0.599986 39.5999 0.299986C40.7999 0.0999864 42.0999 0.199986 43.3999 0.0999864C43.4999 0.0999864 43.6999 0.0999864 43.7999 0.0999864C44.2999 0.0999864 44.8999 -1.35638e-05 45.3999 0.0999864C46.1999 0.199986 46.8999 0.499986 47.6999 0.699986C48.9999 1.09999 50.3999 1.49999 51.5999 2.09999C53.7999 3.19999 55.9999 4.49999 57.9999 6.29999C58.5999 6.89999 59.1999 7.49999 59.8999 7.99999C61.5999 9.19999 62.7999 10.8 63.9999 12.4C65.3999 14.2 66.4999 16.2 67.6999 18.1C68.7999 19.9 69.6999 21.9 70.2999 24C71.1999 27.2 71.6999 30.4 71.4999 33.6C71.2999 37 70.8999 40.4 70.0999 43.6C69.5999 45.7 68.8999 47.7 68.1999 49.8C67.1999 52.8 66.0999 55.7 64.5999 58.6C63.6999 60.3 62.6999 61.9 61.7999 63.5C60.0999 66.5 58.0999 69.2 55.5999 71.5C53.7999 73.1 51.9999 74.6 50.1999 76.2C48.0999 78.1 45.6999 79.7 43.2999 81C38.3999 83.6 33.1999 85.2 27.6999 85.8C26.0999 86 24.3999 86.2 22.6999 86.2C19.8999 86.1 17.1999 85.5 14.5999 84.8C13.2999 84.4 11.9999 83.8 10.7999 83.1C9.49988 82.3 8.29988 81.4 7.09988 80.5C4.89988 78.8 3.39988 76.6 2.19988 74.2C1.39988 72.6 0.899879 71 0.399879 69.3C-0.300121 66.6 -0.100121 64 0.699879 61.4C1.29988 59.5 2.29988 57.7 3.49988 56C4.49988 54.7 5.59988 53.5 6.99988 52.6C8.99988 51.4 11.1999 50.6 13.4999 50.3C14.9999 50.2 16.3999 50.1 17.8999 50C19.2999 49.9 20.6999 50.1 21.9999 50.5C22.2999 50.6 22.6999 50.6 23.1999 50.7C23.6999 49.3 24.1999 48 24.5999 46.7ZM60.6999 60.5C61.8999 58.5 63.0999 56.4 64.1999 54.3C64.8999 52.9 65.3999 51.5 65.9999 50C66.6999 48.1 67.3999 46.1 67.9999 44.2C68.6999 41.5 69.2999 38.9 69.5999 36.1C69.8999 34.1 69.9999 32.1 69.7999 30.1C69.5999 28.1 69.1999 26 68.4999 24.1C67.1999 20.2 65.0999 16.7 62.7999 13.4C61.8999 12.1 60.7999 11 59.7999 9.89999C58.9999 8.89999 57.9999 8.09999 57.1999 7.29999C55.4999 5.59999 53.4999 4.39999 51.2999 3.39999C49.3999 2.49999 47.4999 1.59999 45.4999 1.19999C44.5999 0.999986 43.6999 0.899986 42.8999 0.799986C41.1999 0.799986 39.3999 0.599986 37.7999 1.29999C36.5999 1.79999 35.3999 2.29999 34.1999 2.99999C32.9999 3.59999 31.8999 4.39999 30.8999 5.19999C30.1999 5.69999 29.6999 6.29999 29.0999 6.89999C26.8999 9.19999 25.6999 11.9 25.3999 15C25.2999 16.3 25.0999 17.5 25.0999 18.8C25.0999 20.1 25.1999 21.3 25.4999 22.5C25.9999 24.7 26.6999 26.9 27.1999 29.1C27.6999 31.2 28.2999 33.3 28.3999 35.4C28.4999 36.8 28.2999 38.3 28.0999 39.8C27.5999 43 26.8999 46.1 25.7999 49.1C25.5999 49.7 25.3999 50.2 25.0999 50.8C24.6999 51.7 23.8999 52.2 22.8999 52.3C22.0999 52.4 21.1999 52.4 20.3999 52.3C18.7999 52.1 17.1999 52.1 15.4999 52.4C14.2999 52.6 12.9999 52.8 11.7999 53C9.89988 53.4 8.09988 54.3 6.59988 55.6C5.79988 56.3 4.99988 57 4.39988 57.9C3.59988 59.1 3.19988 60.5 2.79988 62C2.29988 64 2.59988 66.1 2.99988 68.1C3.19988 69.3 3.59988 70.5 4.09988 71.7C4.99988 74.1 6.39988 76.2 8.29988 77.8C9.19988 78.6 10.1999 79.4 11.0999 80.2C11.9999 80.9 12.9999 81.2 14.0999 81.6C18.9999 83.4 24.0999 83.6 29.1999 83.1C31.0999 82.9 32.8999 82.4 34.6999 81.8C36.7999 81.1 38.8999 80.3 40.8999 79.4C43.0999 78.4 45.0999 77.1 46.9999 75.5C48.4999 74.3 49.9999 73.2 51.3999 71.9C52.3999 71 53.2999 69.9 54.2999 68.9C56.8999 66.4 58.8999 63.5 60.6999 60.5Z" fill="#000"/>
<path d="M11.0999 57.9C8.69994 60 6.29994 62 5.29994 65.2C4.29994 61.7 7.49994 56.9 11.9999 56C11.7999 55.5 11.3999 55.6 10.9999 55.6C10.0999 55.8 9.29994 56.2 8.59994 56.7C6.79994 57.9 5.49994 59.5 4.69994 61.5C4.09994 63.2 3.99994 64.9 4.89994 66.5C4.99994 66.7 5.09994 66.9 5.09994 67.1C5.19994 69.9 6.49994 72.2 8.19994 74.4C8.49994 74.8 8.89994 75 9.59994 75C9.49994 74.8 9.49994 74.6 9.39994 74.4C8.99994 74 8.59994 73.6 8.29994 73.1C7.99994 72.5 7.59994 72 7.59994 71.3C7.59994 70.7 7.19994 70.1 6.99994 69.5C6.39994 67.5 6.69994 65.7 7.69994 64C8.59994 62.4 9.89994 61.1 11.2999 59.9C11.6999 59.6 12.0999 59.3 12.5999 59.1C14.0999 58.5 15.4999 57.9 16.9999 57.2C18.6999 56.4 20.5999 56 22.3999 55.8C23.2999 55.7 24.2999 55.4 25.1999 55.2C25.4999 55.1 25.7999 55 26.1999 55C28.1999 54.8 29.8999 53.9 31.5999 52.8C32.4999 52.2 32.8999 51.2 33.4999 50.4C33.0999 50.7 32.5999 51 32.2999 51.4C30.9999 52.7 29.2999 53.2 27.5999 53.6C25.2999 54.2 22.9999 54.3 20.6999 54.4C19.8999 54.4 19.0999 54.6 18.3999 54.9C17.5999 55.1 16.7999 55.5 16.0999 55.7C14.9999 56.1 13.8999 56.5 12.6999 56.8C10.3999 57.3 8.59994 58.7 7.09994 60.6C6.79994 61 6.39994 61.5 5.99994 62.1C7.09994 61.5 7.69994 60.8 8.39994 60.1C9.19994 59.3 9.99994 58.6 10.9999 58.2C10.8999 57.9 10.9999 57.9 11.0999 57.9Z" fill="#000"/>
<path d="M37.6998 15.5C37.8998 15.4 37.9998 15.4 38.1998 15.3C39.0998 15.1 39.5998 14.5 39.6998 13.5C39.6998 13.1 39.7998 12.8 40.1998 12.6C40.5998 12.4 40.7998 12 40.7998 11.6C40.8998 10.4 40.6998 9.29999 39.6998 8.59999C39.0998 8.19999 38.4998 7.99999 37.5998 8.29999C37.8998 8.49999 38.0998 8.59999 38.2998 8.69999C39.9998 9.39999 40.2998 9.99999 39.9998 11.8C39.9998 12 39.8998 12.2 39.8998 12.4C39.3998 12.9 38.8998 12.8 38.2998 12.5C37.6998 12.2 37.1998 12 36.4998 11.8C36.6998 12.7 37.1998 13.2 37.7998 13.6C37.4998 13.6 37.0998 13.7 36.8998 13.5C35.9998 13.1 35.1998 12.7 34.3998 12.3C34.1998 12.2 34.0998 11.9 33.9998 11.7C33.8998 11.4 33.7998 11.1 33.7998 10.7C32.9998 11.2 32.6998 12 33.1998 12.9C33.6998 13.8 34.2998 14.6 35.2998 15C35.4998 15.1 35.6998 15.2 35.8998 15.3C35.8998 16.9 35.9998 18.5 36.3998 20.1C36.9998 22.4 37.4998 24.8 38.0998 27C39.1998 30.8 39.2998 34.5 38.5998 38.4C37.8998 42.3 36.3998 45.7 34.1998 48.9C34.1998 48.9 34.1998 49 34.0998 49.2C34.5998 48.7 34.9998 48.3 35.3998 47.8C36.9998 45.7 38.1998 43.4 38.8998 40.8C39.8998 36.5 40.6998 32.2 39.8998 27.7C39.5998 25.8 39.2998 23.9 38.9998 22C38.7998 20.8 38.3998 19.7 38.0998 18.5C37.8998 17.5 37.6998 16.6 37.7998 15.5C37.5998 15.8 37.6998 15.7 37.6998 15.5Z" fill="#000"/>
<path d="M34.2 79C33.9 79 33.6 78.9 33.4 79C30.2 79.4 27 79.2 23.8 78.7C21 78.3 18.3 77.7 15.7 76.7C14 76 12.4 75.1 10.9 74C10.7 73.9 10.5 73.8 10.2 73.5C10.3 74.3 10.8 74.8 11.3 75.2C12.2 75.8 13.1 76.4 14.1 76.9C16 77.9 18 78.4 20 78.9C23.1 79.6 26.3 79.9 29.5 79.8C30.7 79.8 31.8999 79.6 33.0999 79.5C33.4999 79.5 33.9 79.4 34.2 79Z" fill="#000"/>
<path d="M37.2999 76.4C34.7999 77.4 32.2999 77.5 29.7999 77.4C23.9999 77 18.4 75.7 13 73.5C12.6 73.4 12.3 73.2 11.7 73C12.1 73.6 12.4 73.9 12.9 74.1C14.2 74.7 15.6 75.3 16.9 75.7C20.7 76.9 24.6 77.7 28.6 78C31.1 78.2 33.5 78 35.9 77.3C36.5 77.3 36.9999 77.1 37.2999 76.4Z" fill="#000"/>
<path d="M34.4999 23.2C34.1999 23.8 34.2999 24.3 34.4999 24.8C34.8999 26 35.3999 27.1 35.6999 28.3C36.2999 30.1 36.3999 32 35.9999 33.9C35.6999 35.7 35.2999 37.5 34.8999 39.3C34.5999 40.5 34.0999 41.6 33.6999 42.8C33.5999 43.2 33.3999 43.5 33.3999 44C33.8999 43.7 34.0999 43.3 34.2999 42.9C35.3999 41.1 36.0999 39.1 36.4999 37.1C36.5999 36.3 36.7999 35.5 36.8999 34.7C37.2999 32.7 37.1999 30.7 36.5999 28.8C36.3999 28.1 36.0999 27.5 35.7999 26.9C35.4999 25.5 34.9999 24.3 34.4999 23.2Z" fill="#000"/>
<path d="M38.6998 73.7C38.2998 73.5 37.9998 73.7 37.7998 73.8C36.5998 74.4 35.2998 74.6 33.8998 74.7C29.8998 75 25.9998 74.6 22.0998 73.6C20.3998 73.2 18.6998 72.6 16.9998 72.1C16.7998 72 16.5998 72 16.2998 71.9C16.3998 72.4 16.6998 72.5 16.8998 72.7C18.0998 73.4 19.4998 73.9 20.7998 74.3C24.0998 75.2 27.3998 75.7 30.7998 75.7C32.5998 75.7 34.2998 75.6 35.9998 75.1C37.1998 74.8 37.9998 74.4 38.6998 73.7Z" fill="#000"/>
<path d="M10.5999 75.9C10.6999 76.1 10.6999 76.2 10.7999 76.3C11.4999 77 12.1999 77.9 13.0999 78.5C14.6999 79.7 16.3999 80.7 18.4999 81C20.6999 81.4 22.9999 81.4 25.1999 81.2C25.4999 81.2 25.8999 81.2 26.2999 80.8C26.0999 80.7 25.8999 80.7 25.7999 80.7C24.8999 80.7 24.0999 80.7 23.1999 80.6C22.6999 80.6 22.2999 80.5 21.7999 80.5C18.1999 79.9 14.9999 78.5 11.8999 76.6C11.5999 76.4 11.2999 76.2 10.8999 76.1C10.7999 75.9 10.7999 75.9 10.5999 75.9Z" fill="#000"/>
<path d="M44.2998 73.6C44.7998 73.7 45.0998 73.4 45.3998 73.3C47.2998 72.4 48.8998 71.1 50.5998 69.8C52.6998 68.1 54.6998 66.3 56.3998 64.2C57.7998 62.6 58.9998 60.9 59.8998 59C59.9998 58.7 60.0998 58.3 60.0998 58C59.2998 59.1 58.4998 60.3 57.6998 61.4C56.6998 62.7 55.5998 63.9 54.4998 65.1C51.8998 67.9 48.8998 70.2 45.7998 72.4C45.1998 72.7 44.5998 73 44.2998 73.6Z" fill="#000"/>
<path d="M19.5 71.1C19.7 71.4 20.1 71.5 20.5 71.7C23.2 72.7 26 73.3 28.8 73.4C31.1 73.5 33.4 73.4 35.6 72.9C36.1 72.8 36.7 72.6 37.2 72.3C37.5 72.1 37.8 71.8 38 71.4C37.9 71.4 37.7 71.4 37.6 71.4C36 72.1 34.2 72.4 32.5 72.5C29.3 72.7 26.1 72.4 23 71.6C22.2 71.4 21.3 71.2 20.5 71C20.2 70.9 19.9 70.9 19.6 70.9C19.6 70.9 19.6 71 19.5 71.1Z" fill="#000"/>
<path d="M62.2 51.7C62.7 51.6 62.6999 51.2 62.7999 50.9C64.0999 48.4 64.9999 45.8 65.6999 43.2C66.3999 40.6 66.9999 37.9 67.1999 35.2C67.2999 33.3 67.2999 31.4 67.0999 29.4C67.0999 29.1 66.9999 28.8 66.6999 28.4C66.6999 28.6 66.5999 28.7 66.5999 28.9C67.0999 35.6 65.6999 42 63.2999 48.2C62.9999 49.1 62.5999 50 62.2999 50.9C62.2999 51.1 62.3 51.4 62.2 51.7Z" fill="#000"/>
<path d="M51.3 59.9C50.1 60.8 49 61.7 47.9 62.5C46.7 63.3 45.6 64.1 44.4 64.9C43.2 65.6 42 66.3 40.8 67C39.6 67.7 38.3 68.1 37 69C37.5 69.2 37.8 69.1 38.2 69C39.2 68.6 40.1 68.2 41 67.8C43.7 66.5 46 64.9 48.4 63.1C49.1 62.5 49.8 61.9 50.5 61.3C50.9 61 51.2 60.6 51.3 59.9Z" fill="#000"/>
<path d="M64.0999 35.1C64.0999 35.7 63.9999 36.4 63.9999 37C63.8999 39.9 62.9999 42.6 62.0999 45.3C61.3999 47.3 60.5999 49.2 59.8999 51.2C59.7999 51.5 59.6999 51.8 59.5999 52.1C59.6999 52.1 59.6999 52.2 59.7999 52.2C59.9999 51.9 60.1999 51.6 60.3999 51.2C62.0999 47.5 63.6999 43.7 64.3999 39.7C64.5999 38.5 64.5999 37.3 64.5999 36C64.5999 35.7 64.4999 35.4 64.3999 35.1C64.2999 35.1 64.1999 35.1 64.0999 35.1Z" fill="#000"/>
<path d="M25.2999 59.7C25.0999 59.7 24.8999 59.6 24.6999 59.6C21.3999 59.7 18.1999 60.6 15.3999 62.4C14.8999 62.7 14.3999 63.1 13.9999 63.5C13.8999 63.6 13.7999 63.9 13.5999 64.2C13.9999 64 14.1999 63.9 14.3999 63.8C15.9999 62.7 17.7999 62 19.5999 61.5C21.1999 61 22.7999 60.6 24.4999 60.1C24.7999 60 24.9999 59.9 25.1999 59.9C25.2999 59.8 25.2999 59.7 25.2999 59.7Z" fill="#000"/>
<path d="M34.4998 31C34.0998 33.5 33.7998 35.9 33.2998 38.2C32.7998 40.5 31.7998 42.6 30.7998 44.9C33.2998 42.8 35.4998 34.6 34.4998 31Z" fill="#000"/>
<path d="M55.0999 52.9C54.3999 53.8 53.6999 54.7 52.8999 55.6C52.6999 55.9 52.3999 56.2 52.0999 56.5C49.8999 58.7 47.5999 60.7 45.1999 62.6C44.3999 63.2 43.5999 63.7 42.8999 64.6C45.8999 63.7 53.8999 56.6 55.0999 52.9Z" fill="#000"/>
<path d="M29.3 45.3C29.5 45 29.8 44.7 30 44.4C31.7 41.3 32.7 37.9 32.9 34.4C33 33.5 32.9 33.2 32.6 32.3C32.5 32.8 32.5 33 32.5 33.3C32.1 37.1 31.1 40.8 29.4 44.2C29.3 44.5 29.1 44.9 29 45.2C29.1 45.2 29.2 45.3 29.3 45.3Z" fill="#000"/>
<path d="M27.1 17.4C26.7 17.6 26.6 18 26.6 18.4C26.5 19 26.5 19.5 26.5 20.1C26.5 23.2 27.3 26.1 29.1 28.6C29.2 28.8 29.4 29 29.8 29.1C29.6 28.7 29.5 28.2 29.3 27.8C28.7 26.6 28.2 25.3 27.8 24C27.3 21.9 27.1 19.8 27.3 17.7C27.2 17.5 27.2 17.5 27.1 17.4Z" fill="#000"/>
<path d="M48.6998 68.8C49.3998 68.2 49.9998 67.7 50.4998 67.2C51.9998 65.7 53.3998 64.1 54.8998 62.6C55.8998 61.5 56.7998 60.3 57.4998 59C57.6998 58.7 57.7998 58.3 57.7998 57.8C57.5998 58 57.3998 58.2 57.1998 58.4C56.0998 60.2 54.5998 61.8 53.1998 63.4C51.8998 64.9 50.4998 66.3 49.0998 67.8C48.8998 67.9 48.5998 68.1 48.6998 68.8Z" fill="#000"/>
<path d="M48 72.1C46.8 72.7 45.8 73.6 44.7 74.3C43.5 75 42.3 75.7 41.1 76.4C39.9 77.1 38.8 77.7 37.5 78.5C37.7 78.6 37.9 78.7 38 78.7C38.4 78.6 38.8 78.5 39.2 78.3C41.2 77.2 43.3 76.3 45.1 74.9C45.8 74.4 46.5 73.8 47.2 73.3C47.5 73 47.8 72.7 48.1 72.4C48.1 72.2 48 72.2 48 72.1Z" fill="#000"/>
<path d="M32.8999 66.2C33.3999 66.4 33.7999 66.2 34.1999 66.1C36.1999 65.6 38.0999 64.7 39.8999 63.6C40.8999 63 41.7999 62.4 42.6999 61.7C43.2999 61.2 43.7999 60.7 44.1999 60.1C42.3999 61.2 40.5999 62.5 38.6999 63.5C36.8999 64.5 34.8999 65.3 32.8999 66.2Z" fill="#000"/>
<path d="M23.2998 62.1C25.3998 62.4 33.0998 59 34.5998 57.2C32.6998 58.1 30.7998 59 28.9998 59.8C27.1998 60.6 25.2998 61.3 23.2998 62.1Z" fill="#000"/>
<path d="M47.2999 48C49.0999 43.9 50.3999 39.7 49.7999 35.1C49.4999 35.9 49.5999 36.8 49.4999 37.6C49.3999 38.5 49.2999 39.4 49.1999 40.3C49.0999 41.1 48.8999 42 48.5999 42.8C48.3999 43.7 48.0999 44.5 47.8999 45.4C47.5999 46.3 47.3999 47.1 47.0999 48C47.0999 48 47.1999 48 47.2999 48Z" fill="#000"/>
<path d="M30.8998 34.8C30.7998 35.5 30.6998 36.2 30.4998 36.8C29.8998 39 29.1998 41.2 28.5998 43.4C28.4998 43.7 28.3998 44.1 28.2998 44.5C28.7998 44.4 28.8998 44 29.0998 43.8C30.0998 41.8 30.5998 39.7 30.9998 37.5C31.0998 36.8 31.0998 36 31.1998 35.2C31.1998 35.1 31.0998 34.9 31.0998 34.7C30.9998 34.8 30.8998 34.8 30.8998 34.8Z" fill="#000"/>
<path d="M39.3999 69.4C41.7999 69.1 47.3999 65.6 48.8999 63.4C47.8999 64.1 46.8999 64.9 45.8999 65.6C44.8999 66.3 43.7999 66.9 42.6999 67.5C41.5999 68.1 40.3999 68.6 39.3999 69.4Z" fill="#000"/>
<path d="M55.5999 57.6C53.9999 60.7 51.4999 63 49.5999 65.8C49.6999 65.8 49.7999 65.7 49.8999 65.7C51.9999 63.7 53.9999 61.5 55.4999 59C55.7999 58.6 55.9999 58.2 55.5999 57.6Z" fill="#000"/>
<path d="M27.9998 18.1C26.8998 20.2 27.9998 25.3 29.6998 26.7C29.2998 25.3 28.7998 23.9 28.4998 22.5C28.1998 21 28.0998 19.6 27.9998 18.1Z" fill="#000"/>
<path d="M8.69995 66.5C8.59995 67.6 9.19995 68.4 9.79995 69.2C10.7999 70.6 11.9999 71.8 13.8999 71.9C13.1999 71.4 12.4999 71 11.8999 70.4C11.2999 69.8 10.7999 69.2 10.2999 68.5C9.79995 67.8 9.39995 67.1 8.99995 66.4C8.89995 66.4 8.79995 66.5 8.69995 66.5Z" fill="#000"/>
<path d="M58.5 51.7C60.3 48.5 61.6999 45 62.0999 41.3C61.4999 43 60.9999 44.8 60.2999 46.5C59.5999 48.2 58.9 49.9 58.2 51.6C58.3 51.7 58.4 51.7 58.5 51.7Z" fill="#000"/>
<path d="M30.5 27C30.7 26.5 30.5 26.3 30.4 26C30.1 24.8 29.7 23.6 29.5 22.5C29.3 21.7 29.4 20.8 29.4 19.9C29.4 19.6 29.4 19.3 29.4 18.9C28.8 19.2 28.8 19.6 28.8 20C28.6 22 29 24 29.8 25.8C30 26.1 30.2 26.5 30.5 27Z" fill="#000"/>
<path d="M40 70.9C41.4 70.9 46.6 67.5 47.4 66.3C47.2 66.4 47 66.4 46.9 66.5C44.6 67.9 42.3 69.4 40 70.9Z" fill="#000"/>
<path d="M60.5999 21.6C60.1999 19.3 56.7999 14.3 54.8999 13.5C57.3999 16.1 58.8999 18.9 60.5999 21.6Z" fill="#000"/>
<path d="M33.5 70.6C32.1 70.8 30.7 71 29.3 71.1C27.9 71.2 26.5 71.1 25 71C25.8 71.6 27 71.7 29.3 71.6C31.6 71.5 32.8 71.2 33.5 70.6Z" fill="#000"/>
<path d="M31.2 60.9C33 60.8 36.4999 58.6 37.5999 57C37.3999 57 37.1999 57 37.0999 57.1C35.3999 58.4 33.6999 59.4 31.7999 60.4C31.5999 60.5 31.5 60.6 31.2 60.9Z" fill="#000"/>
<path d="M61.5 16.3C60.2 14.1 55.1 9.79999 53.2 9.29999C54.6 10.4 56.1 11.4 57.5 12.6C58.9 13.7 60.2 15 61.5 16.3Z" fill="#000"/>
<path d="M47.9 40.7C47 43.4 46.1 46.1 45.2 48.8C46.4 47.6 48 42.8 47.9 40.7Z" fill="#000"/>
<path d="M40.8999 72.5C42.3999 72.3 45.9999 69.9 46.5999 68.7C46.3999 68.8 46.1999 68.8 46.0999 68.9C44.6999 69.8 43.1999 70.7 41.7999 71.7C41.3999 71.9 40.9999 72.1 40.8999 72.5Z" fill="#000"/>
<path d="M57.5 19.8C58 21 58.5 22 58.9 23.1C59.3 24.2 59.5 25.3 59.9 26.5C60.2 25.7 60.2 25.3 59.6 23.2C59.1 22 58.7 20.7 57.5 19.8Z" fill="#000"/>
<path d="M41.5999 29C41.5999 31.5 41.5999 34.1 41.5999 36.7C42.1999 35.4 42.2999 30.7 41.5999 29Z" fill="#000"/>
<path d="M59.4999 44.5C59.2999 45.3 59.0999 46.1 58.7999 46.9C58.4999 47.7 58.1999 48.5 57.8999 49.2C57.5999 50 57.0999 50.7 56.8999 51.7C58.0999 50.6 59.6999 46.2 59.4999 44.5Z" fill="#000"/>
<path d="M47.5 19.1C48.2 21.2 49.1 23.2 49.4 25.5C49.8 24.7 49.8 24.5 49.5 23.3C49.3 22.5 49 21.8 48.7 21.1C48.4 20.3 48.1 19.6 47.5 19.1Z" fill="#000"/>
<path d="M30.4 47.6C29.1 48.9 27.9 50.1 26.6 51.4C26.5 51.5 26.6 51.6 26.5 51.8C28.4 50.9 29.6 49.4 30.5 47.7C30.5 47.7 30.5 47.6 30.4 47.6Z" fill="#000"/>
<path d="M31 66C33 65.7 34.7 64.8 36.2 63.5C35.2 63.6 34.4 64.2 33.5 64.6C32.7 65 31.7 65.2 31 66Z" fill="#000"/>
<path d="M30.4999 20.2C29.8999 21.6 30.2999 24.6 31.2999 26.1C30.9999 24.1 30.6999 22.1 30.4999 20.2Z" fill="#000"/>
<path d="M29.3998 36.9C30.2998 35.2 30.2998 31.6 29.3998 30.3C29.2998 30.9 29.4998 31.4 29.5998 31.9C29.5998 32.5 29.5998 33 29.5998 33.6C29.5998 34.1 29.4998 34.7 29.4998 35.2C29.3998 35.6 29.3998 36.1 29.3998 36.9Z" fill="#000"/>
<path d="M27 15.3C27.6 14.6 28.1 13.9 28.8 13.4C29.4 12.9 30.2 12.5 30.9 11.9C29.6 12 28.6 12.7 27.8 13.6C27.3 14.1 26.8 14.5 27 15.3Z" fill="#000"/>
<path d="M11.7 67C12.7 68.8 14.8 70.1 16.2 69.9C15.9 69.7 15.7 69.6 15.5 69.5C14.5 69 13.5 68.4 12.7 67.7C12.4 67.5 12 67.3 11.7 67Z" fill="#000"/>
<path d="M31.3999 48.3C30.0999 49.7 28.8999 51 27.5999 52.3C28.1999 52.2 28.7999 51.8 29.8999 50.7C30.8999 49.7 31.1999 49.2 31.3999 48.3Z" fill="#000"/>
<path d="M10.0998 64.8C10.2998 64.6 10.4998 64.4 10.5998 64.2C10.9998 63.2 11.5998 62.3 11.8998 61.2C11.2998 61.3 11.0998 61.6 10.8998 62C10.4998 62.9 9.8998 63.7 9.7998 64.7C9.8998 64.7 9.9998 64.8 10.0998 64.8Z" fill="#000"/>
<path d="M12.2 54.7C13.1 54.8 13.9 54.5 14.7 54.4C15.5 54.3 16.3 54.2 17.1 54.1C15.9 53.5 13.1 53.9 12.2 54.7Z" fill="#000"/>
<path d="M28.5 11.9C29.5 11.4 30.4 10.9 31.4 10.4C31.4 10.4 31.4 10.3 31.5 10.2C30.7 9.89999 30.1 10.4 29.5 10.7C29.1 11 28.5 11.2 28.5 11.9Z" fill="#000"/>
<path d="M11.3998 65C11.9998 63.9 12.4998 63 13.0998 62C12.4998 61.9 12.2998 62.2 12.0998 62.5C11.5998 63.2 11.1998 63.9 11.3998 65Z" fill="#000"/>
<path d="M39.8998 56.3C38.6998 57.3 37.4998 58.3 36.2998 59.3C36.2998 59.4 36.3998 59.4 36.3998 59.5C37.6998 58.6 39.0998 57.8 39.9998 56.5C39.8998 56.4 39.8998 56.4 39.8998 56.3Z" fill="#000"/>
<path d="M9.5998 71.2C8.8998 70.3 8.4998 69.4 7.7998 68.9C7.4998 69.2 7.6998 69.4 7.7998 69.6C8.0998 70.3 8.6998 70.8 9.5998 71.2Z" fill="#000"/>
<path d="M49.8999 20.9C49.8999 21.6 50.2999 23.4 50.5999 24C50.8999 23.1 50.5999 21.9 49.8999 20.9Z" fill="#000"/>
<path d="M42.3999 28.8C42.4999 30 42.6999 31.2 42.8999 32.4C43.1999 31.6 43.0999 30 42.3999 28.8Z" fill="#000"/>
<path d="M14 53.6C12.9 53.4 11.6 53.8 10.7 54.6C11 54.5 11.2 54.5 11.4 54.5C12.3 54.2 13.1 53.9 14 53.6Z" fill="#000"/>
<path d="M18 66.9C17.2 66.6 16.4 66.2 15.2 66.4C16.3 66.8 17.1 67.1 18 66.9Z" fill="#000"/>
<path d="M51.8999 21.9C51.9999 22.4 51.9999 22.9 52.0999 23.5C52.1999 23.5 52.1999 23.5 52.2999 23.5C52.3999 23 52.3999 22.5 52.1999 22L51.8999 21.9Z" fill="#000"/>
</g>
<defs>
<clipPath id="clip0">
<rect width="71.6" height="86.2" fill="white"/>
</clipPath>
</defs>
</svg>
