<svg width="13" height="19" viewBox="0 0 13 19" fill="none" xmlns="http://www.w3.org/2000/svg">
<path d="M9.3 17C5.3 13.6 1.3 13.2 0.9 11.7C0.5 10.3 0 11.5 0 9.10001C0 5.40001 0.7 7.10001 4.9 3.90001C8.3 1.40001 11.3 -0.299994 11.7 0.100006C12.3 0.700006 12.5 2.10001 12.1 3.00001C11.7 3.90001 8.9 6.00001 7.6 6.30001C6.8 6.50001 4.1 8.30001 3.7 8.90001C3.7 9.10001 3.8 9.20001 3.9 9.30001C6.3 10.2 10.5 12.7 11.3 13.7C11.6 14.1 12.1 14.5 12.3 14.6C12.8 14.9 12.8 16.7 12.3 17.6C11.8 18.5 10.8 18.3 9.3 17Z" fill="#000"/>
</svg>
