<svg width="864" height="910" viewBox="0 0 864 910" fill="none" xmlns="http://www.w3.org/2000/svg">
<path opacity="0.4" d="M555 222.1L543.7 160.5C526.1 65.3 449 -3.09998 360.8 0.100016C360.3 0.100016 359.7 0.100016 359.2 0.200016C277.4 3.40002 194.3 26.7 126 77.7C93.7999 101.7 65.2999 131.8 43.9999 167.7C20.9999 206.6 7.4999 251.3 2.3999 297.2C-3.2001 347.4 1.3999 398.4 12.8999 447.2C19.0999 473.4 27.1999 499 36.7999 523.9C45.7999 547.5 55.7999 571.1 67.7999 593C78.2999 612.1 142.8 693 159.4 705.9C160.9 707.1 227.7 772.1 293.8 817.5C330.8 842.9 372.3 865.3 412.2 884.6C453.7 904.6 494 907.8 539.6 909.8C587 911.9 633.9 899.7 677.9 880.9C700.2 871.3 721.9 860 743 847.5C762.9 835.7 782.3 822.4 799.2 805.8C831.9 773.9 851.1 730 862.5 684.2C863.6 679.7 863 671.2 861.3 660.3C850.2 586.9 810.6 522.4 753.5 482.5L690 438.1C620.2 389.3 571.4 311.3 555 222.1Z" fill="#FDC600"/>
</svg>
