<svg width="926" height="1210" viewBox="0 0 926 1210" fill="none" xmlns="http://www.w3.org/2000/svg">
<path opacity="0.4" d="M196.7 435.8C189.7 454.7 184.8 474.8 182.8 496.3C179.2 534.7 184.8 575.2 177.7 612.6C156.8 722.5 47.2999 750 9.99992 843.8C-23.7001 928.6 34.4999 1060.5 88.0999 1135.6C120 1180.4 245.1 1209.1 293.7 1209.1C459.9 1209.1 708.3 1191.2 749.5 1103.1C765.7 1068.5 830.7 1212.8 863.9 1197C939 1161.1 637 919.1 653.7 818.8C660.9 775.4 655.9 728 660.2 684C661.8 667.6 656.5 649.6 659.3 632.7C664.8 599 674.5 566 688.8 536.5C716.1 480 781.1 444.1 828.6 408.7C883.6 367.7 930.2 294.7 924.9 214C920.8 150.4 885.9 92.8 835.9 53C784.4 12 710.8 -6.59999 653 3.80001C588.3 15.4 569.6 102.9 538 154.4C513.4 194.3 477.2 224.7 434.8 240.8C370.1 265.3 317 272.9 268 325.9C238.8 357.6 212.4 393.6 196.7 435.8Z" fill="#61BB70"/>
</svg>
