<svg xmlns="http://www.w3.org/2000/svg" viewBox="0 0 251.11 279.25"><defs><style>.cls-1{fill:#fdc600;}</style></defs><title>yellow-small</title><g id="Calque_2" data-name="Calque 2"><g id="contenu"><path class="cls-1" d="M108.42,55c16,23.32,29.11,48.63,46.29,71.11,8.59-29.7-9.08-61.72-2.86-92,1.2-5.81,4.08-12.23,9.83-13.71,4.57-1.18,9.46,1.4,12.33,5.15s4.09,8.47,5.1,13.08c2.36,10.79,3.82,21.78,6.65,32.45,14.42,54.49,63.16,98.11,65.33,154.43.07,1.95,0,4.08-1.26,5.54-1.89,2.16-5.33,1.71-8.07.84-23-7.33-38.88-30.24-62.31-36.11-4,14.06,2.92,28.58,7.83,42.36s7.06,31.27-3.72,41.15c-34.86-26.7-48.9-72.37-77.42-105.75C79.37,142.16,40.45,122.4,16.3,89,4.51,72.7-3.43,52,1.47,32.48,6.45,12.67,31.09-4.59,51.71,1.1,75,7.54,95.53,36.2,108.42,55Z"/></g></g></svg>