<svg xmlns="http://www.w3.org/2000/svg" viewBox="0 0 572.92 530.23"><defs><style>.cls-1{isolation:isolate;}.cls-2{fill:#61bb70;opacity:0.58;mix-blend-mode:multiply;}</style></defs><title>green-wave-deco</title><g class="cls-1"><g id="Calque_2" data-name="Calque 2"><g id="contenu"><path class="cls-2" d="M216.61,62a111,111,0,0,0-20.5,20.68c-10.92,14.41-18.69,32-30.74,45.09-35.5,38.66-85.95,22.58-124,50.76C7,204-2.35,270.94.47,314.09c1.68,25.73,44.43,68.09,63.79,80.08,66.25,41,169.69,95.24,207.88,70.31,15-9.81,5.28,63.78,22.42,65.67,38.77,4.28-21.82-166.77,9.62-202.64,13.6-15.53,23.31-35.64,35.86-52.15,4.68-6.15,7-14.64,12.31-20.68a165.87,165.87,0,0,1,35.52-31.07c24.84-15.75,59.62-14,87.29-16.44,32.06-2.78,68.63-20.35,86.47-53.8,14.08-26.38,14.38-58,4.27-86.14-10.41-29-35.15-54.6-60.77-64.73-28.67-11.34-57.69,18.9-83,31.61a97.84,97.84,0,0,1-62.44,9c-31.87-6.21-54.9-16.29-87.51-7.24C252.66,41.23,233.27,49.05,216.61,62Z"/></g></g></g></svg>