<svg xmlns="http://www.w3.org/2000/svg" viewBox="0 0 61.84 74.5"><defs><style>.cls-1{isolation:isolate;}.cls-2{mix-blend-mode:multiply;}.cls-3{fill:#000;}</style></defs><title>nut-3</title><g class="cls-1"><g id="Calque_2" data-name="Calque 2"><g id="contenu"><g class="cls-2"><path class="cls-3" d="M21.24,40.39c.39-1.38.64-2.8,1-4.17a18.92,18.92,0,0,0,.45-6.4,9.36,9.36,0,0,0-.43-2c-.45-1.6-1-3.17-1.39-4.79A37,37,0,0,1,20,16.13a16,16,0,0,1,2.55-8.95l.05-.07a21.78,21.78,0,0,1,3.44-3.48c.6-.43,1.24-.81,1.86-1.23A14.28,14.28,0,0,1,34.12.2C35.19.06,36.28.11,37.36.07c.12,0,.23,0,.35,0a7.6,7.6,0,0,1,1.35,0,14.27,14.27,0,0,1,2,.53,24.78,24.78,0,0,1,3.39,1.2A23.47,23.47,0,0,1,50.1,5.46,15.61,15.61,0,0,0,51.76,7a16.72,16.72,0,0,1,3.58,3.79,52.51,52.51,0,0,1,3.21,5,21.91,21.91,0,0,1,2.22,5.11,23.74,23.74,0,0,1,1,8.32,52.82,52.82,0,0,1-1.18,8.68c-.43,1.81-1.06,3.57-1.67,5.34a56.19,56.19,0,0,1-3.07,7.56c-.74,1.45-1.65,2.81-2.45,4.23a27.23,27.23,0,0,1-5.37,6.88c-1.52,1.4-3.13,2.69-4.66,4.07a29,29,0,0,1-6,4.13,36.89,36.89,0,0,1-13.48,4.16,34.09,34.09,0,0,1-4.28.31,29,29,0,0,1-7-1.23,13,13,0,0,1-3.26-1.5,36.57,36.57,0,0,1-3.21-2.29,16.08,16.08,0,0,1-4.28-5.41A19.54,19.54,0,0,1,.36,59.8,12.24,12.24,0,0,1,.63,53,15,15,0,0,1,3,48.38a10.94,10.94,0,0,1,3-2.92,13.16,13.16,0,0,1,5.64-2c1.26-.13,2.52-.15,3.78-.23a10.49,10.49,0,0,1,3.57.39,9,9,0,0,0,1,.15c.43-1.22.88-2.31,1.2-3.43M52.49,52.28c1.07-1.75,2.09-3.55,3-5.38a32.71,32.71,0,0,0,1.54-3.72c.61-1.66,1.24-3.33,1.7-5a56.94,56.94,0,0,0,1.42-7,23.39,23.39,0,0,0,.2-5.22,22.48,22.48,0,0,0-1.13-5.19,36.86,36.86,0,0,0-5-9.28,29.08,29.08,0,0,0-2.63-3C51,7.67,50.16,7,49.43,6.28a17.19,17.19,0,0,0-5.06-3.34,25.21,25.21,0,0,0-5-1.93A11.79,11.79,0,0,0,37,.7a10.31,10.31,0,0,0-4.41.44,32.34,32.34,0,0,0-3.1,1.45,29,29,0,0,0-2.89,1.86,12.74,12.74,0,0,0-1.55,1.48,11.4,11.4,0,0,0-3.16,7,29.62,29.62,0,0,0-.25,3.25,16.62,16.62,0,0,0,.3,3.24c.42,1.93,1,3.82,1.45,5.75a29.24,29.24,0,0,1,1,5.48,19,19,0,0,1-.26,3.76,40.31,40.31,0,0,1-2,8.08c-.18.48-.36,1-.58,1.43a2.26,2.26,0,0,1-1.89,1.3,8.6,8.6,0,0,1-2.15,0,14.34,14.34,0,0,0-4.19.07c-1.08.16-2.16.32-3.22.55a10.48,10.48,0,0,0-4.48,2.27A8.79,8.79,0,0,0,3.83,50a11.67,11.67,0,0,0-1.26,8.86,18.1,18.1,0,0,0,1,3.12,13,13,0,0,0,3.64,5.31c.81.68,1.6,1.38,2.43,2a8.67,8.67,0,0,0,2.57,1.17,29.24,29.24,0,0,0,13.06,1.31A23.77,23.77,0,0,0,30,70.72a50,50,0,0,0,5.36-2.1,23.87,23.87,0,0,0,5.27-3.35c1.26-1,2.56-2,3.77-3.12.89-.8,1.67-1.74,2.49-2.62a33.19,33.19,0,0,0,5.61-7.25"/><path class="cls-3" d="M9.58,50c-2,1.87-4.18,3.59-5,6.37-.81-3,1.92-7.19,5.86-8-.19-.42-.53-.36-.85-.3A5.88,5.88,0,0,0,7.43,49a8.42,8.42,0,0,0-3.36,4.12,4.7,4.7,0,0,0,.2,4.3,1.22,1.22,0,0,1,.17.56,11.11,11.11,0,0,0,2.64,6.31,1.39,1.39,0,0,0,1.18.55,2.14,2.14,0,0,0-.2-.49c-.29-.42-.65-.8-.91-1.24a3.22,3.22,0,0,1-.62-1.56A6.22,6.22,0,0,0,6,60a5.74,5.74,0,0,1,.62-4.79,13.85,13.85,0,0,1,3.12-3.53A4.68,4.68,0,0,1,10.83,51c1.26-.56,2.55-1.06,3.79-1.63a15.81,15.81,0,0,1,4.71-1.26c.82-.1,1.62-.36,2.43-.54a6.25,6.25,0,0,1,.84-.17,10.59,10.59,0,0,0,4.63-1.92,6.23,6.23,0,0,0,1.63-2.1c-.35.29-.74.54-1.06.86a8.08,8.08,0,0,1-4.06,1.93,29.23,29.23,0,0,1-6,.71,9.37,9.37,0,0,0-2,.39c-.69.2-1.34.49-2,.73a30.45,30.45,0,0,1-3,.91A8.51,8.51,0,0,0,6,52.2L5,53.47A8.16,8.16,0,0,0,7.1,51.71,8.08,8.08,0,0,1,9.37,50a1.69,1.69,0,0,1,.21,0"/><path class="cls-3" d="M32.58,13.44A3.31,3.31,0,0,1,33,13.3a1.54,1.54,0,0,0,1.28-1.52.74.74,0,0,1,.44-.74,1,1,0,0,0,.52-.85,2.58,2.58,0,0,0-1-2.6,1.8,1.8,0,0,0-1.8-.26,6,6,0,0,0,.57.35c1.49.62,1.76,1.11,1.48,2.72,0,.17-.07.33-.1.48a1.09,1.09,0,0,1-1.35.12c-.49-.22-1-.4-1.6-.65a2.3,2.3,0,0,0,1.14,1.57,2.39,2.39,0,0,1-.81-.05,21.51,21.51,0,0,1-2.16-1,1,1,0,0,1-.37-.54,6,6,0,0,1-.19-.84,1.35,1.35,0,0,0-.54,1.92,3.34,3.34,0,0,0,1.85,1.82,4.85,4.85,0,0,1,.51.24,16.06,16.06,0,0,0,.41,4.12c.5,2,.93,4,1.5,6a21.49,21.49,0,0,1,.48,9.86,21.88,21.88,0,0,1-3.83,9.1s0,.11-.06.29a14.59,14.59,0,0,0,1.11-1.2,16.27,16.27,0,0,0,3-6c.9-3.72,1.54-7.47.83-11.32-.3-1.63-.5-3.28-.81-4.91-.19-1-.52-2-.75-3a7.09,7.09,0,0,1-.26-2.55c0-.11,0-.22.08-.34"/><path class="cls-3" d="M29.58,68.25a4.38,4.38,0,0,0-.71,0A32.18,32.18,0,0,1,20.55,68a31.4,31.4,0,0,1-7-1.71A16.09,16.09,0,0,1,9.46,64l-.58-.39a2.06,2.06,0,0,0,1,1.46,23.91,23.91,0,0,0,2.4,1.49,21.47,21.47,0,0,0,5.13,1.7,33.76,33.76,0,0,0,8.2.79c1,0,2.06-.18,3.09-.27a1.11,1.11,0,0,0,.92-.48"/><path class="cls-3" d="M32.2,66.06a13.84,13.84,0,0,1-6.44.84,48,48,0,0,1-14.51-3.38l-1.09-.39a2.06,2.06,0,0,0,1,1,36.43,36.43,0,0,0,3.49,1.42,47.06,47.06,0,0,0,10.1,2,17.26,17.26,0,0,0,6.31-.59,1.48,1.48,0,0,0,1.11-.87"/><path class="cls-3" d="M29.85,20a1.52,1.52,0,0,0,0,1.42c.36,1,.74,2,1.05,3a10.75,10.75,0,0,1,.3,4.85c-.26,1.55-.57,3.1-.95,4.63-.26,1-.67,2-1,3A2.26,2.26,0,0,0,29,38a2.36,2.36,0,0,0,.79-1,14.94,14.94,0,0,0,1.89-5c.12-.71.24-1.42.38-2.12a10.61,10.61,0,0,0-.26-5.1,14.84,14.84,0,0,0-.68-1.66c-.44-1-.87-2.05-1.31-3.07"/><path class="cls-3" d="M33.44,63.67a.85.85,0,0,0-.81.11,8.89,8.89,0,0,1-3.33.76,30.86,30.86,0,0,1-10.22-.92c-1.5-.37-3-.89-4.44-1.33-.18-.06-.37-.1-.62-.16,0,.41.31.52.54.66A13.15,13.15,0,0,0,18,64.18a32.46,32.46,0,0,0,8.65,1.24,17.69,17.69,0,0,0,4.52-.48,4.55,4.55,0,0,0,2.3-1.27"/><path class="cls-3" d="M9.18,65.58c.07.18.08.27.14.33a23.42,23.42,0,0,0,1.95,1.91A10.07,10.07,0,0,0,15.9,70a23.62,23.62,0,0,0,5.82.15,1.15,1.15,0,0,0,.92-.37,2.35,2.35,0,0,0-.45-.12c-.74,0-1.49,0-2.23-.07a11.69,11.69,0,0,1-1.19-.12,25.17,25.17,0,0,1-8.59-3.36l-.82-.46s-.06,0-.18,0"/><path class="cls-3" d="M38.26,63.6a1.38,1.38,0,0,0,.92-.28,26.59,26.59,0,0,0,4.46-3,35.7,35.7,0,0,0,5-4.8,20.06,20.06,0,0,0,3-4.46,2,2,0,0,0,.21-.9c-.7,1-1.36,2-2.11,2.89-.87,1.1-1.77,2.18-2.73,3.2a49.27,49.27,0,0,1-7.56,6.33,3.48,3.48,0,0,0-1.25,1.06"/><path class="cls-3" d="M16.9,61.45a1.64,1.64,0,0,0,.85.5A23.09,23.09,0,0,0,25,63.46a20.52,20.52,0,0,0,5.9-.47,6,6,0,0,0,1.36-.5,1.64,1.64,0,0,0,.69-.77,1.05,1.05,0,0,0-.36,0,12.8,12.8,0,0,1-4.43,1,25.35,25.35,0,0,1-8.18-.81l-2.17-.55c-.26-.06-.54-.08-.8-.12l-.06.22"/><path class="cls-3" d="M53.76,44.64c.41-.09.44-.42.56-.65a34.61,34.61,0,0,0,2.51-6.67,36.22,36.22,0,0,0,1.31-6.93,25.13,25.13,0,0,0-.1-5,1.7,1.7,0,0,0-.31-.83,1.2,1.2,0,0,0-.11.4A38,38,0,0,1,54.8,41.63c-.3.78-.6,1.55-.88,2.33a5.68,5.68,0,0,0-.16.68"/><path class="cls-3" d="M44.34,51.8c-1,.8-2,1.56-2.93,2.25s-2,1.42-3,2.07-2.07,1.23-3.13,1.81A26.16,26.16,0,0,0,32,59.63a1.17,1.17,0,0,0,1,0c.83-.33,1.65-.67,2.45-1a38.13,38.13,0,0,0,6.37-4c.64-.48,1.25-1,1.86-1.53a1.75,1.75,0,0,0,.69-1.17"/><path class="cls-3" d="M55.42,30.33c0,.54-.1,1.08-.12,1.62a23.88,23.88,0,0,1-1.68,7.17c-.62,1.7-1.28,3.38-1.92,5.07-.09.26-.16.53-.25.8l.15.07a8,8,0,0,0,.5-.83,41.54,41.54,0,0,0,3.5-10,22.21,22.21,0,0,0,.2-3.17,4,4,0,0,0-.17-.8l-.21,0"/><path class="cls-3" d="M21.84,51.56a4.07,4.07,0,0,0-.49-.05,16.23,16.23,0,0,0-8,2.4,9.91,9.91,0,0,0-1.21,1,2.34,2.34,0,0,0-.31.64,5.59,5.59,0,0,0,.68-.35,16.31,16.31,0,0,1,4.53-2c1.4-.41,2.8-.79,4.2-1.19.22-.06.44-.14.65-.21v-.17"/><path class="cls-3" d="M29.82,26.76C29.45,29,29.17,31,28.76,33a29.64,29.64,0,0,1-2.18,5.83c2.21-1.79,4.12-8.94,3.24-12"/><path class="cls-3" d="M47.63,45.74l-1.86,2.35c-.22.27-.42.55-.66.8a55.48,55.48,0,0,1-6,5.28,9.14,9.14,0,0,0-2,1.73c2.48-.8,9.4-7,10.47-10.16"/><path class="cls-3" d="M25.31,39.18a7.7,7.7,0,0,0,.6-.81,21.55,21.55,0,0,0,2.55-8.66,3.39,3.39,0,0,0-.26-1.79c-.06.4-.1.62-.13.85a29.48,29.48,0,0,1-2.65,9.46c-.13.27-.22.56-.33.84l.22.11"/><path class="cls-3" d="M23.45,15a1,1,0,0,0-.47.87,10.11,10.11,0,0,0-.11,1.45,12.48,12.48,0,0,0,2.24,7.36,1,1,0,0,0,.58.4c-.15-.39-.28-.79-.45-1.16A19.15,19.15,0,0,1,24,20.67a17.31,17.31,0,0,1-.47-5.46s0-.1-.06-.18"/><path class="cls-3" d="M42.05,59.44c.61-.53,1.14-.93,1.59-1.4,1.27-1.31,2.54-2.64,3.76-4a14.81,14.81,0,0,0,2.25-3.13,2,2,0,0,0,.25-1,3.74,3.74,0,0,0-.47.51A32.91,32.91,0,0,1,46,54.71c-1.13,1.29-2.34,2.51-3.5,3.78a1.1,1.1,0,0,0-.45.95"/><path class="cls-3" d="M41.46,62.3a33.39,33.39,0,0,0-2.88,1.91c-1,.61-2.06,1.22-3.1,1.82s-2,1.15-3.13,1.78c.19.06.34.17.46.14a5.39,5.39,0,0,0,1-.38A44.83,44.83,0,0,0,39,64.67c.62-.45,1.24-.91,1.84-1.4a8.24,8.24,0,0,0,.76-.8l-.13-.17"/><path class="cls-3" d="M28.42,57.24a1.68,1.68,0,0,0,1.08-.06A17.68,17.68,0,0,0,34.43,55c.83-.52,1.64-1.06,2.41-1.65a6.41,6.41,0,0,0,1.33-1.42c-1.56,1-3.09,2.06-4.72,3s-3.28,1.54-5,2.35"/><path class="cls-3" d="M20.12,53.71c1.78.26,8.46-2.64,9.79-4.26-1.67.78-3.24,1.55-4.84,2.25s-3.22,1.31-4.95,2"/><path class="cls-3" d="M40.86,41.48c1.59-3.55,2.66-7.2,2.12-11.17a10.9,10.9,0,0,0-.24,2.2c-.11.77-.16,1.54-.28,2.3S42.16,36.27,42,37s-.41,1.49-.63,2.23-.46,1.48-.69,2.21l.21,0"/><path class="cls-3" d="M26.68,30.08c-.11.58-.18,1.17-.33,1.74-.53,1.91-1.09,3.8-1.63,5.71-.08.29-.15.58-.24.95.47-.1.53-.4.65-.64a19,19,0,0,0,1.64-5.42c.1-.64.12-1.3.16-2a1.36,1.36,0,0,0-.08-.39h-.17"/><path class="cls-3" d="M34.06,60c2.09-.25,6.94-3.31,8.18-5.19-.86.62-1.71,1.28-2.6,1.87s-1.85,1.14-2.79,1.68A20,20,0,0,0,34.06,60"/><path class="cls-3" d="M48.09,49.75c-1.4,2.7-3.58,4.67-5.17,7.12a.84.84,0,0,0,.27-.13A26.57,26.57,0,0,0,48,50.94a1.08,1.08,0,0,0,.08-1.19"/><path class="cls-3" d="M24.18,15.65c-.94,1.85,0,6.25,1.47,7.41-.36-1.22-.82-2.42-1.07-3.67s-.28-2.49-.4-3.74"/><path class="cls-3" d="M7.52,57.46a3.34,3.34,0,0,0,.92,2.36A4.6,4.6,0,0,0,12,62.14a19.41,19.41,0,0,1-1.71-1.27,10.81,10.81,0,0,1-1.38-1.63c-.42-.59-.76-1.24-1.14-1.86l-.22.08"/><path class="cls-3" d="M50.58,44.7a23.68,23.68,0,0,0,3.11-9c-.51,1.49-1,3-1.54,4.47s-1.2,3-1.81,4.44l.24.07"/><path class="cls-3" d="M26.37,23.35c.18-.4,0-.63-.08-.89-.27-1-.59-2-.78-3.07a16.2,16.2,0,0,1-.11-2.21c0-.28,0-.56,0-.9-.49.22-.48.61-.52,1a9.51,9.51,0,0,0,.89,5c.16.35.37.68.6,1.1"/><path class="cls-3" d="M34.59,61.24c1.21,0,5.72-3,6.36-4a2,2,0,0,0-.44.15q-3,1.92-5.92,3.86"/><path class="cls-3" d="M52.41,18.71c-.31-2-3.3-6.31-4.92-7a39.25,39.25,0,0,1,4.92,7"/><path class="cls-3" d="M29,61c-1.25.15-2.43.36-3.62.41s-2.4,0-3.68-.07c.71.48,1.76.62,3.68.55S28.38,61.56,29,61"/><path class="cls-3" d="M26.93,52.64a10,10,0,0,0,5.49-3.38c-.17,0-.32,0-.4.07a32.42,32.42,0,0,1-4.57,2.87,4,4,0,0,0-.52.44"/><path class="cls-3" d="M53.14,14.05C52,12.15,47.61,8.45,46,8c1.24.94,2.52,1.82,3.7,2.82S52,13,53.14,14.05"/><path class="cls-3" d="M41.41,35.13c-.77,2.33-1.53,4.65-2.31,7,1-1,2.37-5.15,2.31-7"/><path class="cls-3" d="M35.32,62.7a10.81,10.81,0,0,0,5-3.27,1.47,1.47,0,0,0-.43.13L36.09,62a1.6,1.6,0,0,0-.77.75"/><path class="cls-3" d="M49.65,17.13c.44,1,.87,1.92,1.2,2.85s.56,1.91.86,3c.29-.66.26-1.07-.28-2.8a5.31,5.31,0,0,0-1.78-3"/><path class="cls-3" d="M36,25c0,2.19,0,4.37,0,6.66A13.38,13.38,0,0,0,36,25"/><path class="cls-3" d="M51.43,38.45c-.2.7-.38,1.41-.61,2.1s-.49,1.34-.75,2a11.07,11.07,0,0,0-.84,2.15,11.27,11.27,0,0,0,2.2-6.25"/><path class="cls-3" d="M41,16.49A25.28,25.28,0,0,1,42.64,22c.34-.65.37-.85.1-1.93a12,12,0,0,0-.67-1.94,3.77,3.77,0,0,0-1-1.63"/><path class="cls-3" d="M26.27,41.12Q24.64,42.76,23,44.4c-.05.05,0,.15-.06.37a7.94,7.94,0,0,0,3.46-3.52l-.15-.13"/><path class="cls-3" d="M26.81,57a9,9,0,0,0,4.53-2.12,7.73,7.73,0,0,0-2.31.93A7,7,0,0,0,26.81,57"/><path class="cls-3" d="M26.35,17.42A6.81,6.81,0,0,0,27,22.53c-.24-1.73-.46-3.42-.69-5.11"/><path class="cls-3" d="M25.4,31.86c.74-1.46.75-4.55,0-5.72a7.17,7.17,0,0,0,.13,1.4c0,.48,0,1,0,1.45s-.07.9-.1,1.36,0,.88-.06,1.51"/><path class="cls-3" d="M23.36,13.21a18.74,18.74,0,0,1,1.51-1.65c.55-.47,1.21-.82,1.78-1.29a4.08,4.08,0,0,0-2.71,1.51c-.33.38-.76.77-.58,1.43"/><path class="cls-3" d="M10.08,57.93c.87,1.55,2.64,2.68,3.89,2.52l-.59-.31A10.5,10.5,0,0,1,11,58.55a8,8,0,0,0-.87-.62"/><path class="cls-3" d="M27.16,41.74l-3.27,3.47c.53-.07,1-.4,1.95-1.39a4.3,4.3,0,0,0,1.32-2.08"/><path class="cls-3" d="M8.7,56a2.72,2.72,0,0,0,.4-.51,25.66,25.66,0,0,0,1.16-2.63,1,1,0,0,0-.85.68,6.82,6.82,0,0,0-.93,2.33L8.7,56"/><path class="cls-3" d="M10.58,47.3A9.11,9.11,0,0,0,12.7,47c.68-.07,1.36-.17,2.08-.26a5.07,5.07,0,0,0-4.2.53"/><path class="cls-3" d="M24.66,10.3c.85-.43,1.69-.84,2.52-1.27,0,0,0-.1.05-.2-.67-.26-1.19.16-1.7.45s-.93.37-.87,1"/><path class="cls-3" d="M9.84,56.14c.56-.92.92-1.75,1.46-2.57a.75.75,0,0,0-.88.42,2.74,2.74,0,0,0-.58,2.15"/><path class="cls-3" d="M34.44,48.68l-3.13,2.56.12.15a11.5,11.5,0,0,0,3.14-2.59l-.13-.12"/><path class="cls-3" d="M28.13,6.92a2.09,2.09,0,0,0-2.37.78,13.72,13.72,0,0,0,2.37-.78"/><path class="cls-3" d="M8.29,61.54a8.05,8.05,0,0,0-1.59-2c-.25.24-.09.45,0,.64a2.74,2.74,0,0,0,1.58,1.36"/><path class="cls-3" d="M43.12,18a8.41,8.41,0,0,0,.6,2.65,3.19,3.19,0,0,0-.6-2.65"/><path class="cls-3" d="M36.61,24.92q.2,1.54.39,3.12a3.85,3.85,0,0,0-.39-3.12"/><path class="cls-3" d="M12.09,46.35a3.56,3.56,0,0,0-2.82.84,5.49,5.49,0,0,0,.64-.13l2.18-.71"/><path class="cls-3" d="M30,4.78a2.35,2.35,0,0,0-1.95.57c1,.14,1.54,0,1.95-.57"/><path class="cls-3" d="M15.58,57.81a4.54,4.54,0,0,0-2.39-.41,4.06,4.06,0,0,0,2.39.41"/><path class="cls-3" d="M44.85,19c0,.45.09.9.14,1.35l.18,0A2.1,2.1,0,0,0,45,19Z"/></g></g></g></g></svg>