<svg xmlns="http://www.w3.org/2000/svg" viewBox="0 0 71.15 68.62"><defs><style>.cls-1{isolation:isolate;}.cls-2{mix-blend-mode:multiply;}.cls-3{fill:#000;}</style></defs><title>nut-4</title><g class="cls-1"><g id="Calque_2" data-name="Calque 2"><g id="contenu"><g class="cls-2"><path class="cls-3" d="M24.93,68.61c-.73,0-1.46,0-2.19,0a33.66,33.66,0,0,1-5.66-.6A9.3,9.3,0,0,1,13,66a2.69,2.69,0,0,0-1.38-.55,10.69,10.69,0,0,1-2.55-.69,7.58,7.58,0,0,1-1.81-1.05C6.18,62.88,5.15,62,4.13,61.12a8,8,0,0,1-1.8-2.28A21.24,21.24,0,0,1,.46,53.72,14.91,14.91,0,0,1,0,49.52,26,26,0,0,1,.64,44.1,20.18,20.18,0,0,1,3,38.44a15.17,15.17,0,0,1,4.7-4.9,41.45,41.45,0,0,1,3.53-2.19,8.4,8.4,0,0,1,4.55-1.08c.65,0,1.3.13,1.95.18.46,0,.91,0,1.37.05l1.09.05a1,1,0,0,0,.39,0c.81-.42,1.61-.86,2.42-1.27a17.5,17.5,0,0,0,3.29-2.58A24.2,24.2,0,0,0,30,22.4c.29-.41.6-.81.86-1.24a11.73,11.73,0,0,0,.74-1.51c.24-.59.41-1.21.62-1.81.15-.43.34-.85.48-1.28.34-1.09.66-2.18,1-3.27a19.54,19.54,0,0,1,.86-2.4A18.73,18.73,0,0,1,36.19,8a25.37,25.37,0,0,1,3.19-3.68A12,12,0,0,1,41.3,2.86c.35-.2.67-.47,1-.67a7.81,7.81,0,0,1,1.37-.72,32.52,32.52,0,0,1,3.58-1A30.19,30.19,0,0,1,50.58.05,15.26,15.26,0,0,1,55.2.41,18.52,18.52,0,0,1,57,.84a21.82,21.82,0,0,1,6.59,3.64,19.73,19.73,0,0,1,3,3,11.54,11.54,0,0,1,2,3.51c.32.91.66,1.82,1,2.73a19.25,19.25,0,0,1,1.07,4.09,21.92,21.92,0,0,1,.42,3.11c0,.9,0,1.8-.05,2.69,0,.5,0,1,0,1.51a15.7,15.7,0,0,1-.49,3.47,29.37,29.37,0,0,1-2,6,26.8,26.8,0,0,1-1.74,3.15c-1.27,2-2.62,3.92-3.92,5.89-.52.78-1,1.58-1.52,2.38a23.81,23.81,0,0,1-2.28,3.08c-1,1.22-2.06,2.45-3.18,3.59a44.35,44.35,0,0,1-4.28,4.17c-1.14.88-2.34,1.68-3.55,2.48A45.45,45.45,0,0,1,43.36,62c-.35.18-.71.36-1,.56a25,25,0,0,1-3,1.45c-1.24.55-2.46,1.14-3.71,1.65q-2.39,1-4.82,1.83a22.75,22.75,0,0,1-5.36,1.07l-.45,0ZM7.1,60.26a1.55,1.55,0,0,0,.61.5.35.35,0,0,1,0-.08l-.66-.42S7,60.14,7,60.09L5.44,58.74l-.17-.11-.06.08L6.8,60.09a2.14,2.14,0,0,0,.3.17M59,42.66l.07.05-.12.18c-.82,1.11-1.6,2.26-2.47,3.33a44.36,44.36,0,0,1-7,7.26c-1.58,1.22-3.22,2.34-4.91,3.4s-3.44,2-5.23,3l-3.12,1.6-.38.23a.5.5,0,0,0,.33,0c1.3-.63,2.63-1.21,3.9-1.9,1.6-.86,3.18-1.78,4.74-2.72a42.16,42.16,0,0,0,4.85-3.34,55.33,55.33,0,0,0,5.7-5.45c.63-.68,1.2-1.41,1.79-2.13.77-1,1.54-1.92,2.3-2.89a2.11,2.11,0,0,0,.44-.67c-.34.14-.44.48-.84.59.16-.23.27-.37.38-.52,1-1.35,2-2.68,3-4,.75-1.07,1.44-2.19,2.16-3.28.11-.16.18-.36.4-.43a2,2,0,0,1-.2.55c-.63,1.06-1.25,2.13-1.88,3.18a17.15,17.15,0,0,0-1.23,2,15.61,15.61,0,0,1-1.13,1.88c-.2.31-.4.61-.59.92l.08.05c.11-.14.22-.28.32-.43.23-.32.44-.66.66-1,.92-1.37,1.94-2.68,2.77-4.12s1.92-2.93,2.65-4.52a.61.61,0,0,1,.09-.16,2.09,2.09,0,0,1,.26-.13c0,.08,0,.11,0,.13-.12.27-.25.53-.37.79a46.73,46.73,0,0,1-3.07,5.65c-.9,1.4-1.84,2.79-2.79,4.16-.51.74-1.12,1.41-1.65,2.13a57.47,57.47,0,0,1-5.2,5.93,32,32,0,0,1-3.78,3.3,70.15,70.15,0,0,1-10.4,6.23A54.25,54.25,0,0,1,33.29,64a33.07,33.07,0,0,1-7.07,1.74c-.7.08-1.39.16-2.09.2S23,66,22.35,66a19,19,0,0,1-2-.09,22.67,22.67,0,0,1-3.92-.61,3.51,3.51,0,0,0-1.44,0,.69.69,0,0,0,.29.2,15.32,15.32,0,0,0,1.74.56c.86.17,1.73.29,2.61.39a26,26,0,0,0,12.64-1.51c1.43-.56,2.87-1.08,4.3-1.64.54-.21,1-.49,1.57-.74,1.1-.52,2.19-1.05,3.28-1.59.53-.26,1-.56,1.58-.83.84-.44,1.72-.84,2.55-1.32,1-.59,2-1.24,3-1.88a22,22,0,0,0,3.11-2.31Q53.52,52.86,55.3,51c.84-.88,1.64-1.8,2.42-2.73s1.73-2.12,2.55-3.21c.6-.79,1.12-1.64,1.68-2.45,1.35-2,2.74-3.87,4-5.85a20.42,20.42,0,0,0,1.94-3.56,35.16,35.16,0,0,0,1.72-5.57A14.55,14.55,0,0,0,70,24.58c0-1.34,0-2.68,0-4a1.68,1.68,0,0,1,0-.45A1.94,1.94,0,0,0,70,19a1.1,1.1,0,0,1-.06-.26,14.6,14.6,0,0,0-.8-3.41c-.49-1.39-1-2.77-1.55-4.15a9.87,9.87,0,0,0-1.85-3.06,21.82,21.82,0,0,0-2.36-2.35,20.71,20.71,0,0,0-6.83-3.85c-.52-.16-1.06-.25-1.6-.36a13.4,13.4,0,0,0-3.21-.37c-1.3.06-2.61.18-3.91.31a4.7,4.7,0,0,0-1.11.25c-.71.23-1.41.48-2.11.74a13.19,13.19,0,0,0-5,3.21c-.73.76-1.38,1.58-2.05,2.39a13.79,13.79,0,0,0-2.5,4.41c-.33,1-.56,2-.9,3-.54,1.5-1.1,3-1.71,4.47A17.61,17.61,0,0,1,31.34,22a10.42,10.42,0,0,1-.69.95,32.62,32.62,0,0,1-2.07,2.62c-.9.93-1.86,1.79-2.83,2.64a11.51,11.51,0,0,1-2.4,1.65c-1.06.53-2.15,1-3.23,1.5a1.65,1.65,0,0,1-.67.1c-.65,0-1.3-.07-1.94-.15a8.06,8.06,0,0,0-4.34.55c-.62.28-1.23.59-1.83.91s-1.15.68-1.75,1a18.8,18.8,0,0,0-4,3.16,1.21,1.21,0,0,0-.21.24c-.56.89-1.16,1.75-1.65,2.68a12.81,12.81,0,0,0-1.39,3.6c-.19,1-.44,2-.66,3-.09.39-.17.77-.23,1.17a6.67,6.67,0,0,0-.15,1.26c.06,1.17.13,2.34.26,3.5a4.39,4.39,0,0,0,.94,2.43c.45.54.85,1.11,1.28,1.66.15.19.32.35.52.56.07-.3-.13-.42-.25-.55a20.24,20.24,0,0,1-1.82-2.43c-.1-.16-.24-.31-.16-.56l1.37,1.85A15.92,15.92,0,0,1,2,50a12.45,12.45,0,0,1,.8-5.48,1.08,1.08,0,0,1,0,.43A3.93,3.93,0,0,0,3,46.78a11.86,11.86,0,0,0,1.21,2.75c.12.2.23.41.35.62l-.09.05A9.48,9.48,0,0,1,3,47.67a5.59,5.59,0,0,0,.4,1.61c.21.51.5,1,.76,1.5a2.63,2.63,0,0,1-.71-.7c-.25-.38-.44-.79-.67-1.19a1.6,1.6,0,0,0-.16-.23,3,3,0,0,0,0,.84.28.28,0,0,0,0,.18c.11.13.24.26.37.39l.11.15A12.89,12.89,0,0,0,5,52.31c.23.2.46.4.68.61a1,1,0,0,1,.15.28c-.6-.13-.79-.3-2.8-2.32a2.41,2.41,0,0,0,.57.94,23.72,23.72,0,0,0,2.78,2.43c.14.11.27.23.45.39-.92,0-2.26-1-4-3,.09.54.1.61.31.83A16.17,16.17,0,0,0,6.5,55.15c.08,0,.21.11.24.09.27-.23.4,0,.57.14l1.12.78c.09.06.22.1.25.18.11.25.34.34.55.46l1.73,1a9.58,9.58,0,0,0,1.67.82c.56.2,1.11.43,1.67.62a1.58,1.58,0,0,0,1.2-.14c-.26-.07-.41-.12-.57-.15a13.41,13.41,0,0,1-3.32-1.24c-.93-.45-1.8-1-2.68-1.56A13.34,13.34,0,0,1,7.8,55.3c-.12-.09-.24-.19-.09-.37l.39.28A19.76,19.76,0,0,0,13.22,58a26.11,26.11,0,0,0,3.11.87,1.82,1.82,0,0,0,1.16-.15c-.07,0-.1-.08-.14-.09a21.41,21.41,0,0,1-3.88-1,18.84,18.84,0,0,1-3.35-1.55c-.47-.28-.93-.57-1.39-.87a.54.54,0,0,1-.31-.45,1.73,1.73,0,0,1,.47.21,5.22,5.22,0,0,0,1.1.63,18.4,18.4,0,0,0,2.26,1.14,25.12,25.12,0,0,0,3.28,1.07,24,24,0,0,0,3,.47A2.61,2.61,0,0,0,19.84,58c-.29,0-.6-.09-.91-.12-.7-.07-1.43-.06-2.12-.2a19.73,19.73,0,0,1-3.36-.86,17.42,17.42,0,0,1-3.23-1.47c-.17-.11-.34-.2-.5-.32s-.1-.24,0-.33c-.16-.2-.51-.26-.48-.64a12.53,12.53,0,0,0,3.77,1c-.36-.23-.81-.26-1.08-.64a2.06,2.06,0,0,1,.56.11c.67.2,1.33.45,2,.62a21.27,21.27,0,0,0,6.56.57c.59,0,1.17,0,1.76-.12a25.92,25.92,0,0,0,3.52-.76,29.34,29.34,0,0,0,5.42-2.13,3.07,3.07,0,0,0,.43-.26c.35-.26.69-.54,1.05-.79a63.64,63.64,0,0,0,7.56-5.73.84.84,0,0,1,.43-.27,7.63,7.63,0,0,1-1.05,1.47,8.84,8.84,0,0,0,1-.81l3.31-3.2a.61.61,0,0,1,.2-.09,7.17,7.17,0,0,1-.56.74,22.6,22.6,0,0,1-2.86,3,37.54,37.54,0,0,1-5.08,3.86,41.4,41.4,0,0,1-7.51,3.81c-.88.33-1.77.64-2.68.89s-1.72.39-2.58.56c-.36.07-.73.06-1.09.11a17.43,17.43,0,0,1-3.46.13,17.05,17.05,0,0,1-4.14-.61,3.92,3.92,0,0,0-1.63,0c.18.07.27.09.35.13a20.75,20.75,0,0,0,2.82.7,11.44,11.44,0,0,0,3.3.34,23.44,23.44,0,0,0,3.55-.16A24.52,24.52,0,0,0,27,55.69a35.2,35.2,0,0,0,6.24-2.54l.28-.17-.19-.09c.4-.23.81-.43,1.19-.67a48.63,48.63,0,0,0,5.08-3.72c.55-.46,1.11-.9,1.67-1.35a.56.56,0,0,1,.54-.17c-.18.2-.32.38-.48.54-.41.38-.84.75-1.26,1.12l-.7.61a.41.41,0,0,0,.26-.09l1.67-1.35a33.14,33.14,0,0,0,3.3-3.08c1.1-1.2,2.15-2.44,3.23-3.67l1.27-1.46a2.7,2.7,0,0,1-.36.72c-.59.82-1.16,1.67-1.82,2.45a46.41,46.41,0,0,1-5,5.11c-.13.11-.24.24-.36.36l-2,2-.62.57a1.09,1.09,0,0,0,.22-.07A40.93,40.93,0,0,0,43.83,47a40.24,40.24,0,0,0,3.46-3.57c1.13-1.32,2.24-2.64,3.24-4.06.55-.78,1.14-1.53,1.73-2.33a.89.89,0,0,1-.1.67,12.68,12.68,0,0,1-1.69,2.59,57.14,57.14,0,0,1-6.18,6.83c-1.1,1-2.24,2-3.41,2.88C40,50.71,39,51.35,38,52a41.59,41.59,0,0,1-9.83,4.72c-.32.1-.62.25-.94.34s-.86.18-1.28.28-.76.23-1.14.29c-.6.1-1.21.15-1.81.22a5.19,5.19,0,0,1-1.12.08,2.24,2.24,0,0,0-1.81.52,12.23,12.23,0,0,0,1.73-.05,12.65,12.65,0,0,0,1.67-.48l-.24.4c.65-.09,1.26-.14,1.85-.26a34.56,34.56,0,0,0,7.65-2.55,48.19,48.19,0,0,0,4.55-2.41c.93-.56,1.83-1.15,2.73-1.75A51.22,51.22,0,0,0,44.3,48c.31-.26.6-.55.89-.83-.13-.22-.14-.23,0-.32s.39-.43.59-.63a48.82,48.82,0,0,0,4.72-5.44c.51-.67,1-1.36,1.48-2a.89.89,0,0,1,.47-.41,2.43,2.43,0,0,1-.41.92c-.79,1.09-1.6,2.18-2.4,3.27l-.19.26.17.19c-.39.51-.77,1-1.19,1.5-.69.78-1.42,1.54-2.15,2.3a29.48,29.48,0,0,1-4.43,3.85c-1.43,1-2.71,2.16-4.1,3.21,0,0,0,.06-.11.16a1.51,1.51,0,0,0,.26-.11c.46-.3.92-.59,1.38-.9s.8-.75,1.38-.82a.75.75,0,0,0,.12-.07,42.32,42.32,0,0,0,5.48-4.32c.89-.83,1.76-1.68,2.64-2.52a2.53,2.53,0,0,1,.27-.18.4.4,0,0,1-.12.27c-.7.76-1.4,1.52-2.12,2.27a29.2,29.2,0,0,1-4.16,3.61c-2,1.37-4,2.69-6,4-.06,0-.15.1-.2.08-.24-.1-.4.07-.59.16l-1.18.58a38.1,38.1,0,0,1-7.35,2.83,18.82,18.82,0,0,1-2.32.5,2.82,2.82,0,0,0-1.2.66,14.11,14.11,0,0,0,1.86-.22,35.09,35.09,0,0,0,5.42-1.59A51.33,51.33,0,0,0,40,53.83c1.58-1,3.14-2,4.61-3.2,1.27-1,2.52-2.07,3.71-3.18.21-.2.45-.38.67-.57L49,47l-.84.95a.52.52,0,0,0,.32-.16c1.3-1.47,2.67-2.88,3.89-4.41,1.42-1.79,2.72-3.67,4-5.53.56-.78,1-1.62,1.53-2.44s.88-1.6,1.34-2.38a46.77,46.77,0,0,0,3.07-6.67c.5-1.24.93-2.51,1.32-3.79.23-.74.51-1.46.77-2.19s.5-1.43.73-2.16a4.54,4.54,0,0,0,.26-1,29.41,29.41,0,0,0,.5-5.12c0-.13,0-.27.13-.35a3.15,3.15,0,0,1,.36,1.72c-.12,1-.27,2-.39,3.08a10.55,10.55,0,0,1-.39,1.92c-.4,1.24-.76,2.49-1.12,3.75-.21.75-.33,1.52-.56,2.26-.32,1-.68,2-1.07,3A49,49,0,0,1,59.78,34a41.85,41.85,0,0,1-3.17,4.9c-.87,1.12-1.7,2.26-2.58,3.37a44.25,44.25,0,0,1-3.17,3.54c-1.25,1.26-2.49,2.54-3.74,3.8-.28.28-.59.54-.89.8a.25.25,0,0,0,.22-.07c.59-.53,1.19-1,1.77-1.58s1.3-1.19,1.93-1.81,1.18-1.26,1.78-1.9a1.7,1.7,0,0,1,.19-.19s.1,0,.22,0l-.25.31c-.39.45-.81.88-1.18,1.34A30,30,0,0,1,47.47,50a32.1,32.1,0,0,1-3.71,3c-1.27.86-2.52,1.76-3.77,2.64l-2.22,1.53-.3.2a.82.82,0,0,0,.35-.09c1.14-.66,2.31-1.29,3.43-2,1.43-.9,2.87-1.79,4.22-2.81a52.67,52.67,0,0,0,6.71-6.22,38.21,38.21,0,0,0,2.5-2.9c.65-.86,1.33-1.71,2-2.55.15-.2.31-.38.46-.56a.6.6,0,0,1-.1.41A55.63,55.63,0,0,1,43.88,54.45a1,1,0,0,0,.36-.17,45.26,45.26,0,0,0,6-5c.35-.35.74-.67,1.11-1l.8-.68c.17-.16.33-.35.5-.53l2.17-2.4.21-.19a.33.33,0,0,1-.08.24c-.44.54-.88,1.09-1.33,1.61-.69.8-1.37,1.6-2.08,2.37a33.47,33.47,0,0,1-4.83,4.38,62.35,62.35,0,0,1-9,5.51c-1.65.84-3.29,1.69-4.94,2.55a.57.57,0,0,0-.13.08.35.35,0,0,0,.27,0c1.11-.47,2.22-.92,3.31-1.43a65.92,65.92,0,0,0,8-4.44c1-.62,1.9-1.27,2.81-1.95a34.66,34.66,0,0,0,4.48-4.08,6.59,6.59,0,0,1,.69-.6c.17-.15.37-.27.52-.43C53.88,47,55,45.83,56,44.5c.62-.85,1.31-1.64,1.91-2.5a67.11,67.11,0,0,0,4.23-6.88c.28-.52.67-1,.94-1.5.7-1.3,1.35-2.62,2-3.93.09-.19.21-.36.31-.53l.11,0a2.71,2.71,0,0,1-.09.41c-.13.38-.26.75-.42,1.11-.58,1.23-1.13,2.47-1.76,3.66-.78,1.48-1.6,2.94-2.47,4.36C60,40,59.21,41.16,58.36,42.33a64.19,64.19,0,0,1-4.91,6c-.14.14-.31.25-.46.38l.14.08c0,.08.07.19,0,.25a5.34,5.34,0,0,1-.35.48c-.1.13-.2.25-.31.37a27,27,0,0,0,3.38-3.47c1-1.24,2-2.51,3.07-3.76M38.32,50.75l-.08-.09-.42.26a49.24,49.24,0,0,1-5.19,3,39.08,39.08,0,0,1-5.81,2.27,21.58,21.58,0,0,1-2.62.6,23.5,23.5,0,0,1-3.45.29,20.54,20.54,0,0,1-4.36-.35,15.74,15.74,0,0,0-2.16-.27l-.64,0v.11c.64.16,1.29.34,1.93.49a14.88,14.88,0,0,0,1.83.38,21.63,21.63,0,0,0,4.18.14c.68-.07,1.36,0,2-.14a26,26,0,0,0,4-.88,30.74,30.74,0,0,0,4.22-1.6c1.17-.54,2.3-1.16,3.45-1.74a1.65,1.65,0,0,0,.23-.18c-.14-.21.06-.23.15-.3s.37-.22.54-.35l2.17-1.56m-28.53,8c.2.11.39.23.59.33a2.16,2.16,0,0,0,.43.14c.06,0,.17,0,.19.09.12.3.41.37.66.48.64.28,1.29.54,1.94.8a20.32,20.32,0,0,0,3.91,1,25.84,25.84,0,0,0,6,.3,8.19,8.19,0,0,0,2.84-.59,15.33,15.33,0,0,1,1.78-.56.73.73,0,0,1,.36,0c.08,0,.13.14.21.23l.11,0c1.2-.4,2.4-.79,3.58-1.22a10.46,10.46,0,0,0,1.7-.78c1-.57,2-1.19,2.92-1.78l.26-.19a.9.9,0,0,0-.35.11c-1.07.51-2.14,1-3.22,1.52a34.86,34.86,0,0,1-5.36,1.91,23.73,23.73,0,0,1-3.75.76c-.54.05-1.08.13-1.63.15-.82,0-1.64,0-2.46,0a3.46,3.46,0,0,1-.45,0l-2.35-.31a5,5,0,0,1-.76-.1c-.84-.21-1.67-.45-2.5-.67a4,4,0,0,1-.52-.14c-.34-.14-.66-.3-1-.45l-2.06-.94a1.58,1.58,0,0,0-1-.14m34.55-7.38-.89.62a57.49,57.49,0,0,1-7.59,4.61,42.3,42.3,0,0,1-8.43,3.27,26.17,26.17,0,0,1-4.22.7,4,4,0,0,0-1.32.38.58.58,0,0,0,.17.06h.41a24.51,24.51,0,0,0,6.36-1.09,38.42,38.42,0,0,0,5.5-2.09,67.65,67.65,0,0,0,6.38-3.45,18.45,18.45,0,0,0,3.63-3M52,50l-.09-.07-.39.37-.38.4a41.49,41.49,0,0,1-6.71,5.17,72,72,0,0,1-9.84,5.26c-.74.32-1.43.74-2.14,1.11a.49.49,0,0,0,.36,0c1.16-.47,2.34-.89,3.46-1.42a64.11,64.11,0,0,0,6.8-3.62c1.43-.9,2.84-1.83,4.26-2.74a13.4,13.4,0,0,0,2.13-1.85l2.22-2.23c.12-.11.21-.25.32-.37M36.54,54.13c-1.46.75-2.9,1.47-4.37,2.11a31.77,31.77,0,0,1-7.25,2.26,1.67,1.67,0,0,0-1.05.66A36.38,36.38,0,0,0,36,55l-.32-.08.88-.74m-25.27,9.4v-.05c-1.06-.65-2.13-1.28-3.17-2a17.72,17.72,0,0,1-2.83-2.36c-.85-.88-1.64-1.82-2.46-2.73.15.37.33.72.5,1.07a6.8,6.8,0,0,0,1.92,2.34c.78.65,1.57,1.3,2.33,2a8.16,8.16,0,0,0,3.18,1.63,4.76,4.76,0,0,0,.52.1m7.64,1.16c.77.07,1.54.18,2.31.2,1,0,2.09,0,3.14,0l.18,0a40.8,40.8,0,0,0,4.4-.74,19,19,0,0,0,3.53-1.18c.09,0,.18-.1.27-.15a.43.43,0,0,0-.28,0,30.06,30.06,0,0,1-7.3,1.71l-2,.13c-.26,0-.52,0-.77,0a12.61,12.61,0,0,1-2.68-.12.84.84,0,0,0-.76.16M13.3,61.11a7.82,7.82,0,0,0,2.74.78c.1,0,.26,0,.3,0,.27.34.68.32,1,.37a24.41,24.41,0,0,0,5.26.34,2.61,2.61,0,0,0,1.14-.28l-.87,0c-.83,0-1.67.07-2.5,0a24.87,24.87,0,0,1-6.55-1.29.51.51,0,0,0-.54,0m7.24,3.13c1.46,0,2.89.05,4.32-.13.93-.11,1.86-.24,2.79-.42a10.06,10.06,0,0,0,2.63-1,.69.69,0,0,0-.25,0c-1.15.3-2.29.61-3.44.89a4.8,4.8,0,0,1-1.3.18,2.9,2.9,0,0,0-.93.06c-.35.1-.71.18-1.07.25a4.68,4.68,0,0,1-.59,0l.19-.26a4.18,4.18,0,0,0-2.35.36m12.75-4.18a.3.3,0,0,0,0,.08l.17,0a36.69,36.69,0,0,0,7-3.71l.42-.3a.35.35,0,0,1-.05-.08l-.55.3a67.47,67.47,0,0,1-6,3.11,7.35,7.35,0,0,0-1,.64m-18.23,2.4a19.56,19.56,0,0,0,4.84.88,2.61,2.61,0,0,0,1.26-.25c-.39,0-.73-.05-1.07-.09a22.86,22.86,0,0,1-4-.64,1.26,1.26,0,0,0-1,.1m3.49,1.21c-.63-.12-1.23-.22-1.82-.36-.85-.2-1.7-.44-2.55-.67a.9.9,0,0,0-.7.06,5.13,5.13,0,0,0,1,.39l2.55.67a2.27,2.27,0,0,0,1.54-.09m.1-3.18-1.39-.17-.81-.06c-.27,0-.54,0-.71-.29a3.58,3.58,0,0,0-2-.18l.42.17,3.19.77a1.64,1.64,0,0,0,1.26-.24m6.81,1.78a.5.5,0,0,1,0,.12,15,15,0,0,0,5.27-1.53.21.21,0,0,0-.17,0A43.42,43.42,0,0,1,26.14,62c-.23.06-.45.16-.68.24M11,62.19l0-.07c-.76-.47-1.52-.94-2.27-1.42A6.59,6.59,0,0,1,7.2,59.58a8.78,8.78,0,0,0-1.18-1,3.33,3.33,0,0,0-.68-.45,2.48,2.48,0,0,0,.13.22l.16.16A24.31,24.31,0,0,0,10.5,62a3,3,0,0,0,.53.19M9.74,57.72l-.06.12.67.38A14,14,0,0,0,12.7,59.4a1.26,1.26,0,0,0,.86,0c-.28-.14-.47-.26-.67-.34a17.37,17.37,0,0,1-2.48-1.14,2.76,2.76,0,0,0-.67-.21m2.12,4.86a14.3,14.3,0,0,0,4,1.5,3.3,3.3,0,0,0,.63,0,.48.48,0,0,0-.24-.13,18.67,18.67,0,0,1-3.66-1.2,4.7,4.7,0,0,0-.74-.18m11.11.8a5.6,5.6,0,0,0,3.26-.66c-1.05.24-2.18.1-3.26.66m-2-4.11a3.9,3.9,0,0,0,2.74-.55,5.38,5.38,0,0,0-2.74.55M5.09,54.76,5,54.85a4.88,4.88,0,0,0,2.53,1.84L5.09,54.76m16.07,5a10,10,0,0,1-1.4.06,4.43,4.43,0,0,0-1.54.24,4,4,0,0,0,2.94-.3m-8.19,1-2.45-1.19a1.05,1.05,0,0,0-.36,0A5.12,5.12,0,0,0,13,60.76m8.43-.09a4.16,4.16,0,0,0-2.13.25,7.65,7.65,0,0,0,2.06.09c0-.12.05-.22.07-.34M10.9,60.5c-.7-.38-1.26-1-2.15-1,.68.4,1.27,1,2.15,1M4.66,54.93c0-.14.07-.26.11-.39l-.09.08L3.4,53.47c0,.38.28.67,1.26,1.46m15.59,4c-.75,0-1.52-.3-2.27.16a3.27,3.27,0,0,0,2.27-.16m-10-4a3.56,3.56,0,0,0,2.42.88l0-.1-2.45-.78m-6.49,0c.12.48.5.7.77,1a2.43,2.43,0,0,0,1.06.8A9.44,9.44,0,0,0,3.8,54.87m3.59,1.32c.67.47,1.19,1.19,2.15,1.28a7.75,7.75,0,0,0-2.15-1.28M11.17,61a4.37,4.37,0,0,0,2.35.63A4.36,4.36,0,0,0,11.17,61m4.56-1.45c1.21.35,1.38.35,2.13,0a4.94,4.94,0,0,0-2.13,0m5.77.68a3.52,3.52,0,0,0,2.26-.58,5,5,0,0,0-2.26.58M7.15,59.1c.86.82,1.36,1.09,2,1.06-.72-.31-1.2-.95-2-1.06M4.42,56.5a5.22,5.22,0,0,0,1.94,1.64A12.12,12.12,0,0,0,4.42,56.5m3.73,2.29A3.49,3.49,0,0,0,6.4,57.71c.55.41,1,1,1.75,1.08m21.79,3.12a10.69,10.69,0,0,0-2.82,1,14.52,14.52,0,0,0,2.82-1m9.82-14.49-2.73,2,.06.08a18.35,18.35,0,0,0,2.67-2.13m16.84.37-.09-.08L54.3,50.17l0,0,2.27-2.4M4.87,58.29c0-.09,0-.12,0-.14L2.93,55.93h0s0,0,0,.06a18.88,18.88,0,0,0,2,2.31m4.56,2.42c.71.52,1.1.67,1.52.59a2.2,2.2,0,0,0-1.52-.59m.23-1.6a3,3,0,0,0-1.51-.76,2.63,2.63,0,0,0,1.51.76m-.24-1a2.83,2.83,0,0,0-1.5-.62,2.56,2.56,0,0,0,1.5.62m2.15,3.8a1.87,1.87,0,0,0,1.51.32,3,3,0,0,0-1.51-.32m1.93,0a1.26,1.26,0,0,0,1.27.09c-.44-.08-.8-.36-1.27-.09M6.3,56.72l-.07.09a1.86,1.86,0,0,0,1.15.59Zm15.24,8.71a0,0,0,0,0,0,0l1.21-.06v0l-1.22.06M57.61,46.5l-.09,0a1.28,1.28,0,0,0-.36.59l.45-.56M2.45,55.21l-.1.06.33.5.07-.05-.3-.51m55.67-9.37c-.33.23-.33.23-.37.49l.37-.49M24.77,65.38v0l-.67,0v0l.67,0"/><path class="cls-3" d="M15.77,54.34l1,.07a33.33,33.33,0,0,0,4.69-.09A33,33,0,0,0,25,53.68a22.82,22.82,0,0,0,4.2-1.42,35.83,35.83,0,0,0,8.85-5.45c1.12-.94,2.21-1.91,3.3-2.88.22-.21.43-.43.64-.65a1,1,0,0,1,.39-.25,2.68,2.68,0,0,1-.18.28c-.67.72-1.33,1.46-2,2.15a41,41,0,0,1-5.81,4.71,16.11,16.11,0,0,1-3.12,1.6c-1.07.42-2.11.93-3.19,1.34a24.05,24.05,0,0,1-7.54,1.67,23.28,23.28,0,0,1-3.64-.13c-.39,0-.76-.15-1.15-.22,0,0,0-.06,0-.09"/><path class="cls-3" d="M16.62,53.46a2.73,2.73,0,0,1,.39-.07c.59,0,1.19,0,1.78,0,1.18-.11,2.36-.22,3.53-.38.77-.11,1.51-.35,2.28-.49a7.32,7.32,0,0,0,1.45-.36l2.29-.95c.4-.17.83-.29,1.22-.48a36.42,36.42,0,0,0,6.09-3.83,36.27,36.27,0,0,0,3.76-3.24l1.39-1.38.63-.58.07.06-.29.43a26.41,26.41,0,0,1-4.72,4.67A34.82,34.82,0,0,1,29.86,51a29.15,29.15,0,0,1-6.66,2.29,22.72,22.72,0,0,1-6,.38.75.75,0,0,1-.59-.19"/><path class="cls-3" d="M18.33,52.47c.32,0,.63-.09,1-.11a21.17,21.17,0,0,0,4.09-.68c.39-.1.8-.16,1.2-.26s.54-.2.81-.3c.92-.36,1.85-.68,2.76-1.07.6-.26,1.16-.61,1.74-.9A30.78,30.78,0,0,0,34.76,46c.73-.55,1.39-1.18,2.08-1.78l1.1-1,.37-.25c.13.16,0,.26-.05.34-.32.36-.65.72-1,1.06a31.2,31.2,0,0,1-5.38,4.14c-1,.63-2.11,1.15-3.17,1.71a5.78,5.78,0,0,1-.94.45,8.48,8.48,0,0,0-1.51.6c-.35.18-.78.21-1.16.36a16.59,16.59,0,0,1-2.69.69,15.43,15.43,0,0,1-2.8.35c-.37,0-.73,0-1.09,0a.83.83,0,0,1-.21-.06s0-.07,0-.1"/><path class="cls-3" d="M6.25,47.9c.34.57,1,.89,1.33,1.53A1.11,1.11,0,0,1,7,49.11,8.1,8.1,0,0,1,5.16,47a2.53,2.53,0,0,0-.55-.68l.23.43a22.21,22.21,0,0,0,1.78,2.91,4,4,0,0,1,.26.45l-.08.07a3.45,3.45,0,0,1-.28-.26,15.19,15.19,0,0,1-2.87-4.73,7.08,7.08,0,0,1-.45-2.32c0-.19,0-.38.06-.6.26.11.19.28.22.41.11.58.21,1.17.33,1.75a1,1,0,0,0,.31.53,7.3,7.3,0,0,1,.6.75,1.07,1.07,0,0,0,.39.33c-.14-.24-.3-.49-.43-.74a8.93,8.93,0,0,1-.39-.83A4.81,4.81,0,0,1,4,43.61c.45.7.86,1.42,1.36,2.09A22.68,22.68,0,0,0,7,47.6c.57.63,1.17,1.22,1.75,1.85a14.06,14.06,0,0,1-2.5-1.55"/><path class="cls-3" d="M52.49,41.75c.82-1.13,1.67-2.23,2.46-3.38s1.56-2.32,2.27-3.53,1.39-2.46,2-3.72S60.44,28.59,61,27.3s.86-2.64,1.38-3.93l.11,0c0,.23-.06.46-.11.69a26.15,26.15,0,0,1-2,5.7,56.53,56.53,0,0,1-5.41,9.08c-.58.78-1.19,1.54-1.8,2.3-.18.22-.41.41-.61.61l0,0"/><path class="cls-3" d="M23.17,50.64l1.31-.51L27.23,49c.14-.06.27-.15.4-.22l2.6-1.41c.2-.12.4-.27.6-.4.86-.61,1.74-1.21,2.6-1.84.41-.31.77-.68,1.18-1s.79-.56,1.23-.87a.51.51,0,0,1-.21.49c-.63.59-1.24,1.2-1.92,1.74a28.38,28.38,0,0,1-2.37,1.7c-.82.52-1.68,1-2.54,1.43a14.26,14.26,0,0,1-2.31,1.16c-.63.2-1.25.45-1.89.63a13.14,13.14,0,0,1-1.42.24.43.43,0,0,0,0,0"/><path class="cls-3" d="M61.12,24.22A5.27,5.27,0,0,1,61,25c-.3.79-.59,1.59-.93,2.37a64,64,0,0,1-4.12,8,2.61,2.61,0,0,1-.52.64c1-2,2-3.89,3-5.85s1.73-4,2.6-6l.18.07"/><path class="cls-3" d="M62.26,33.24c.5-1.11,1-2.21,1.49-3.33a37.07,37.07,0,0,0,2-5.92c.06-.26.14-.53.22-.79s.12-.27.18-.4h.1a1.54,1.54,0,0,1,0,.37c-.1.5-.19,1-.32,1.51A33,33,0,0,1,63,32.25a5.58,5.58,0,0,1-.46.73,3.83,3.83,0,0,1-.28.29l0,0"/><path class="cls-3" d="M49.57,34.86A48.43,48.43,0,0,0,53,30c1-1.71,2-3.44,3-5.14-.08.21-.13.43-.22.63-.51,1-1,2-1.53,3a31,31,0,0,1-2.55,4.21c-.48.64-1,1.25-1.54,1.86a3.83,3.83,0,0,1-.48.41l-.09-.07"/><path class="cls-3" d="M59.54,40.94l4.61-7a.46.46,0,0,1,0,.5,14.92,14.92,0,0,1-.88,1.74c-.76,1.18-1.56,2.33-2.36,3.47A7.8,7.8,0,0,1,59.61,41Z"/><path class="cls-3" d="M61.29,32.69c.07-.14.1-.22.14-.28A25,25,0,0,0,63.63,28a57.07,57.07,0,0,0,1.93-5.56,4.73,4.73,0,0,1,.26-.68.69.69,0,0,1,.13-.17,2.67,2.67,0,0,1-.18,1.12c-.65,1.87-1.27,3.74-2,5.59-.4,1.06-.93,2.08-1.41,3.11a4.13,4.13,0,0,1-1.1,1.33"/><path class="cls-3" d="M17.16,40a4,4,0,0,1-.43.12,7.6,7.6,0,0,1-5.38-1.25,4.32,4.32,0,0,1-1.59-1.94c0-.1-.07-.2-.13-.39a1,1,0,0,1,.18.14A6,6,0,0,0,13,39.23a12.18,12.18,0,0,0,3.88.68h.27Z"/><path class="cls-3" d="M46.19,2.77a15.67,15.67,0,0,0-6.48,5l-.09-.06c.06-.1.1-.22.16-.31A13.31,13.31,0,0,1,44.47,3.1a3.8,3.8,0,0,1,1.43-.45l.26,0,0,.09"/><path class="cls-3" d="M69.14,23.9c.32,1.36-1,7-1.75,7.69a3.15,3.15,0,0,1,.08-.53A60.13,60.13,0,0,0,69,24.58a6.19,6.19,0,0,1,.19-.68"/><path class="cls-3" d="M51.93,26.78a7.34,7.34,0,0,1,.63-1.35c.21-.44.43-.87.62-1.32s.37-.93.53-1.4.3-.92.45-1.38.31-.92.47-1.37h.1a3.25,3.25,0,0,1,0,.54,15.76,15.76,0,0,1-2,5.47,2.16,2.16,0,0,1-.75.8"/><path class="cls-3" d="M56.2,5.17a1.85,1.85,0,0,1,.08,1c-.15,1.14-.3,2.29-.47,3.43-.13.83-.31,1.64-.47,2.46a4.78,4.78,0,0,1-.19.58A37.87,37.87,0,0,1,56.2,5.17"/><path class="cls-3" d="M7.55,46.49l.56.32a11.71,11.71,0,0,0,2.6,1.3,14.05,14.05,0,0,0,2.73.47c.14,0,.28,0,.52.08-2,.77-5.82-.72-6.41-2.17"/><path class="cls-3" d="M57.84,26.32c-.08.32-.14.65-.24,1a20.5,20.5,0,0,1-2.05,4.21c-.32.5-.66,1-1,1.46a5,5,0,0,1-.57.56l-.07-.06c.19-.31.39-.63.59-.93A25.87,25.87,0,0,0,57.38,27c.09-.23.22-.46.33-.68l.13.05"/><path class="cls-3" d="M55.28,22.14a1.17,1.17,0,0,1-.11.88c-.3.68-.6,1.36-.93,2a17.7,17.7,0,0,1-2,3.29l-.24.27a1.19,1.19,0,0,1-.16.1.88.88,0,0,1,0-.26c.11-.22.23-.43.36-.64A30.81,30.81,0,0,0,54.75,23a2.73,2.73,0,0,1,.53-.9"/><path class="cls-3" d="M54.05,31.78a29.53,29.53,0,0,0,2.1-3.92c.58-1.35,1.12-2.72,1.68-4.07l.12,0a2.23,2.23,0,0,1-.05.36c-.33.92-.63,1.86-1,2.78a19.31,19.31,0,0,1-2.31,4.32c-.14.2-.29.38-.44.57l-.09-.07"/><path class="cls-3" d="M45,4.83A13.92,13.92,0,0,0,42.4,7.39c-.7,1-1.35,1.94-2,3,0-1.53,3-5.09,4.68-5.51"/><path class="cls-3" d="M45.3,4.12c-1.9,1.12-2.33,1-5.22,4.77a2.41,2.41,0,0,1,.16-.45,9.74,9.74,0,0,1,3.74-4,5.74,5.74,0,0,1,.84-.36A2.32,2.32,0,0,1,45.28,4a.3.3,0,0,1,0,.1"/><path class="cls-3" d="M10.62,49.73a25.23,25.23,0,0,0,3.52.71c1.18.12,2.36.2,3.56.3-.06.16-.22.12-.34.14a11.89,11.89,0,0,1-6.48-1c-.09,0-.17-.11-.26-.16"/><path class="cls-3" d="M56.25,11.1a8,8,0,0,1,0,1,23.46,23.46,0,0,1-1.8,5.85c0,.11-.11.22-.17.33a1.77,1.77,0,0,1-.14.21,1.34,1.34,0,0,1,.12-.75c.22-.62.45-1.22.67-1.84A34,34,0,0,0,56,11.65c0-.16.07-.33.11-.49l.06-.06Z"/><path class="cls-3" d="M68.89,17.05c.47.95,0,5.51-.63,6.23a.93.93,0,0,1,0-.27c.31-2,.32-3.94.67-6"/><path class="cls-3" d="M68.46,15.49a1.83,1.83,0,0,1,.24,1.13,24.84,24.84,0,0,1-.39,3.75c-.07.4-.14.81-.23,1.21a3.09,3.09,0,0,1-.15.41,44.47,44.47,0,0,1,.53-6.5"/><path class="cls-3" d="M63.32,16.34a24.33,24.33,0,0,0,.37-7.06.4.4,0,0,1,.29.41,13.77,13.77,0,0,1-.23,5.82,1.38,1.38,0,0,1-.43.83"/><path class="cls-3" d="M64.41,17.81a44.4,44.4,0,0,0,.69-7c.52.86.19,5.53-.69,7"/><path class="cls-3" d="M30.84,27.76C30.26,29,26.55,32,25.17,32.38a68.59,68.59,0,0,0,5.67-4.62"/><path class="cls-3" d="M29.61,35.49A29.47,29.47,0,0,0,35,30.69,2,2,0,0,1,35,31a7.55,7.55,0,0,1-1.24,1.63,16.44,16.44,0,0,1-3.26,2.62c-.25.14-.52.25-.77.37l-.07-.08"/><path class="cls-3" d="M57.85,28.92a23.61,23.61,0,0,1-3.76,6.63.05.05,0,0,1,0,0,0,0,0,0,1,0,0l.09-.21,3.69-6.34"/><path class="cls-3" d="M36.35,47.46c-.58,1-3.8,3.14-4.89,3.19.07-.07.11-.13.16-.17l3.95-2.61a3,3,0,0,1,.78-.41"/><path class="cls-3" d="M16.12,48.77c1-.08,1.95-.13,2.92-.26S21,48.18,22,48c-.94.9-4.47,1.34-5.86.76"/><path class="cls-3" d="M34.82,18.69c0-.15.08-.31.14-.45.46-1.11.94-2.22,1.39-3.33.27-.63.5-1.27.75-1.91l.24-.62.08,0,0,0a1.55,1.55,0,0,1-.06.31,25.1,25.1,0,0,1-1.64,4.54c-.22.43-.47.85-.7,1.28a2,2,0,0,0-.1.21l-.12-.08"/><path class="cls-3" d="M61.61,6.17a15,15,0,0,1,.58,6.09,55.66,55.66,0,0,1-.58-6.09"/><path class="cls-3" d="M67.17,12.66a.83.83,0,0,1,.34.75,14.65,14.65,0,0,1-.12,3c-.07.57-.15,1.14-.27,1.71a1,1,0,0,1-.15-.73c0-.56,0-1.12.07-1.68l.09-2.46c0-.16,0-.33,0-.55"/><path class="cls-3" d="M66.54,29.44c-.05.28-.09.57-.16.84A12.87,12.87,0,0,1,65,33.49c-.11.19-.21.41-.53.31a.6.6,0,0,1,0-.19q1-2.09,2-4.19l.11,0"/><path class="cls-3" d="M39.13,32.86c.07-.12.12-.26.2-.37l2.53-3.39c.1-.13.22-.24.33-.36l.09,0a2.23,2.23,0,0,1-.19.51c-.35.57-.69,1.14-1.08,1.68s-.89,1.11-1.35,1.66a3.19,3.19,0,0,1-.4.33l-.13-.1"/><path class="cls-3" d="M43.45,28c0,.81-2.72,4.62-3.48,5a.53.53,0,0,1,.15-.5c.24-.33.49-.65.75-1a28.73,28.73,0,0,0,2.28-3.18c.09-.14.2-.26.3-.39"/><path class="cls-3" d="M59.92,37.81a21,21,0,0,1-3.8,5.49c.56-1,1.21-1.86,1.82-2.79l1.89-2.78.09.08"/><path class="cls-3" d="M40.59,15.54a24.49,24.49,0,0,1,1.3-4c.32-.69.67-1.36,1-2a1,1,0,0,1,.39-.38,4.83,4.83,0,0,1-.16.5q-1.23,2.89-2.47,5.78c0,.06-.06.11-.08.16"/><path class="cls-3" d="M4.68,40.08c-.4,1.73.26,3.28.88,4.9-1.31-.91-1.83-3.88-.88-4.9"/><path class="cls-3" d="M53,34.69c-.06.91-2.37,4.2-3.41,4.86C50.63,38,51.65,36.49,52.68,35a4.08,4.08,0,0,1,.3-.31"/><path class="cls-3" d="M44.14,6.54a14.16,14.16,0,0,0-2,2.92c-.3.58-.61,1.16-.93,1.72a5.62,5.62,0,0,1-.4.57c0-1.22,2.19-4.61,3.31-5.21"/><path class="cls-3" d="M43.1,12.06c-.87,2.33-1.5,4.77-3.09,6.77a18.92,18.92,0,0,1,1-2.24c.34-.76.67-1.53,1-2.3s.64-1.53,1-2.3Z"/><path class="cls-3" d="M7.92,52.19a38,38,0,0,0,4.37,1.87c-.85.37-4-1-4.37-1.87"/><path class="cls-3" d="M10.39,39.55c.14.05.28.08.42.14a5.12,5.12,0,0,1,.52.27A8.23,8.23,0,0,0,14.08,41l.44.12s0,0,.06.07a1.17,1.17,0,0,1-.71.12A7.06,7.06,0,0,1,10.61,40a1.5,1.5,0,0,1-.31-.35l.09-.12"/><path class="cls-3" d="M46,21c.14.74-1.4,3.06-2.28,3.5a1.61,1.61,0,0,1,.07-.31,5.76,5.76,0,0,1,.37-.63l1.47-2.14c.1-.14.23-.26.37-.42"/><path class="cls-3" d="M67.71,14a1.09,1.09,0,0,1,.28.83c0,.86,0,1.72-.08,2.58,0,.46-.1.91-.17,1.35a5.73,5.73,0,0,1-.14.56h-.11a4.36,4.36,0,0,1,0-.51c0-.66.07-1.33.11-2l.12-2.59c0-.06,0-.11,0-.22"/><path class="cls-3" d="M62.66,13.57c0-.05,0-.09,0-.13a32,32,0,0,0,.08-5.27s0,0,0-.06c.57,1.21.51,4.69-.1,5.46"/><path class="cls-3" d="M57.09,7.79c0-1.64-.06-3.27-.08-4.9,0-.05.06-.1.14-.2a2.27,2.27,0,0,1,.12.38,14.38,14.38,0,0,1-.05,4.72h-.13"/><path class="cls-3" d="M11.17,50.46c.84.16,1.68.37,2.53.48s1.72.13,2.62.19a.49.49,0,0,1-.5.28,9.47,9.47,0,0,1-1.77,0c-.88-.16-1.74-.44-2.6-.68a1.3,1.3,0,0,1-.31-.16l0-.08"/><path class="cls-3" d="M6.29,50.09c.65.47,1.22.94,1.84,1.33s1.27.69,1.93,1a4.46,4.46,0,0,1-2.84-1.1c-.8-.63-.92-.78-.93-1.27"/><path class="cls-3" d="M61.17,10.31a21.29,21.29,0,0,1-.82-5.45,20.15,20.15,0,0,1,.82,5.45"/><path class="cls-3" d="M55.39,23.91A3,3,0,0,1,55,25.13a27.79,27.79,0,0,1-1.94,3.5c-.22.34-.47.66-.75,1.06a.55.55,0,0,1,.11-.47c.42-.71.86-1.41,1.25-2.13.51-.94,1-1.91,1.49-2.86,0-.08.09-.15.2-.32"/><path class="cls-3" d="M60.76,14.08a7.5,7.5,0,0,1,.11.81,19.33,19.33,0,0,1-.42,4.74c-.06.26-.11.52-.15.74.11-2.08.22-4.19.33-6.3h.13"/><path class="cls-3" d="M28.66,31.07l.54-.47a13.88,13.88,0,0,0,2.3-2.71,3,3,0,0,1,.79-.91,1.5,1.5,0,0,1-.07.35,16.13,16.13,0,0,1-.88,1.43A8.72,8.72,0,0,1,29,31l-.2.11h-.18"/><path class="cls-3" d="M16.78,43.76c-.73.77-4,1.34-4.84.85a7.4,7.4,0,0,1,1.21-.12c.4-.07.81-.13,1.21-.21s.77-.18,1.15-.27l1.27-.25"/><path class="cls-3" d="M67,29.41a43,43,0,0,1,1.18-4.64A8.92,8.92,0,0,1,67,29.41"/><path class="cls-3" d="M27.93,41.33a5.06,5.06,0,0,1-2.18,2.1c-.49.29-.51.29-.87.2.23-.39.65-.54,1-.79s.68-.55,1-.81a3,3,0,0,1,1.05-.7"/><path class="cls-3" d="M6.61,46.59c1.29.66,2.35,1.67,3.66,2.29-.1.18-.23.16-.37.12a5.52,5.52,0,0,1-.67-.27,8,8,0,0,1-2.51-2,1.71,1.71,0,0,1-.11-.14"/><path class="cls-3" d="M44.62,24.45c0-.07,0-.13,0-.15A32,32,0,0,0,46.52,21c0-.06.1-.1.24-.22a2.85,2.85,0,0,1-.07.53,8.51,8.51,0,0,1-1.83,3.07.41.41,0,0,1-.11.07h-.13"/><path class="cls-3" d="M42.32,25.08A20.8,20.8,0,0,1,45,21.58c.1.14,0,.27,0,.37a9.68,9.68,0,0,1-.74,1.14c-.43.55-.9,1.06-1.36,1.58a4.29,4.29,0,0,1-.51.41"/><path class="cls-3" d="M36.25,38.4c-.19-.11-.14-.23-.06-.33l2-2.5a1.12,1.12,0,0,1,.17-.09,1,1,0,0,1,0,.31,6.16,6.16,0,0,1-.43.8,7.73,7.73,0,0,1-1.44,1.63,1.41,1.41,0,0,1-.27.18"/><path class="cls-3" d="M12.36,49.62c1,.15,2.09.36,3.15.44s2.12,0,3.22,0a11.47,11.47,0,0,1-6.37-.47"/><path class="cls-3" d="M58,38.51l2.15-3.82c.11-.19.26-.36.42-.58.05.73-1.8,3.87-2.57,4.4"/><path class="cls-3" d="M25.46,31.35c.25-.28,3.88-3,4.13-3.07a11.32,11.32,0,0,1-4.13,3.07"/><path class="cls-3" d="M6.73,45.29A3.67,3.67,0,0,1,6.35,45a4.38,4.38,0,0,1-1.26-2.23.65.65,0,0,1,.24-.74,4.84,4.84,0,0,0,.57,1.68,17.33,17.33,0,0,1,.9,1.49l-.07.07"/><path class="cls-3" d="M47.05,5.14C47.36,3.76,49,2.05,49.9,2c-.17.36-.55.46-.79.71s-.5.49-.73.75-.46.56-.68.84l-.65.82"/><path class="cls-3" d="M3.56,45.46c.25.78.44,1.55.73,2.28s.69,1.4,1.06,2.12c-1-.89-2.28-3.53-1.79-4.4"/><path class="cls-3" d="M36.27,17.31a16,16,0,0,1-2.44,4.27,6.68,6.68,0,0,1,.72-1.47c.26-.47.53-1,.8-1.43a5.67,5.67,0,0,1,.92-1.37"/><path class="cls-3" d="M6.48,37.4A8.5,8.5,0,0,0,7.86,42l-.09,0a1.9,1.9,0,0,1-.21-.19A6.37,6.37,0,0,1,6.25,38a.71.71,0,0,1,.23-.64"/><path class="cls-3" d="M47.19,6a10.4,10.4,0,0,1,2.46-3.28.48.48,0,0,1,.51-.13c-.37.39-.72.73-1,1.11s-.62.78-.93,1.18l-.89,1.2L47.19,6"/><path class="cls-3" d="M28.38,42c0,.32-.21.46-.39.63a3.48,3.48,0,0,1-2,1.13,2.51,2.51,0,0,1,.3-.37c.47-.41.94-.81,1.42-1.2.18-.15.37-.33.66-.19"/><path class="cls-3" d="M30.22,41a15.08,15.08,0,0,1,2.55-2.15,1.62,1.62,0,0,1-.11.3,7.74,7.74,0,0,1-1.9,1.8.43.43,0,0,1-.54,0"/><path class="cls-3" d="M46.36,23.25c0-.1.06-.22.1-.32L48,19.8c0,.14.09.21.08.27a2.93,2.93,0,0,1-.11.53,10.17,10.17,0,0,1-1.15,2.31,3.34,3.34,0,0,1-.35.4l-.1-.06"/><path class="cls-3" d="M54.14,10.79a36.08,36.08,0,0,1,.75-4.54,11.41,11.41,0,0,1-.75,4.54"/><path class="cls-3" d="M40.75,29.64a2.17,2.17,0,0,1-.19.49,7.35,7.35,0,0,1-1.92,2.05.94.94,0,0,1,.1-.26c.51-.7,1-1.39,1.54-2.08a.39.39,0,0,1,.47-.2"/><path class="cls-3" d="M61.7,21.11a13.58,13.58,0,0,1,.79-3.9,8.74,8.74,0,0,1-.79,3.9"/><path class="cls-3" d="M4.93,51.06,8,53.41a.65.65,0,0,1-.6-.11c-.74-.55-1.48-1.11-2.2-1.68a2.62,2.62,0,0,1-.37-.49.46.46,0,0,1,.07-.07"/><path class="cls-3" d="M59.64,16.73c0-1.3,0-2.59,0-4a2.46,2.46,0,0,1,.34,1.48,6,6,0,0,1-.19,2.49h-.11"/><path class="cls-3" d="M34.15,32.77l2.64-3.26a7.17,7.17,0,0,1-2.64,3.26"/><path class="cls-3" d="M48.94,12.58a30.73,30.73,0,0,0,1.4-4.36,8,8,0,0,1-1.4,4.36"/><path class="cls-3" d="M13.8,33.94c.54.14,1.07.33,1.61.43s1.05.12,1.66.18a3,3,0,0,1-3.27-.61"/><path class="cls-3" d="M61.79,17.94c.12-1.09.23-2.13.35-3.24a.84.84,0,0,1,.29.63,4.88,4.88,0,0,1-.64,2.61"/><path class="cls-3" d="M6.42,43.59c.39.47.68.89,1,1.25a14.64,14.64,0,0,0,1.19,1,2.58,2.58,0,0,1-2.23-2.21"/><path class="cls-3" d="M66.68,31.05a5.8,5.8,0,0,1-1,2.93,7.57,7.57,0,0,1,1-2.93"/><path class="cls-3" d="M14.63,45l2.95-1a3.48,3.48,0,0,1-2.95,1"/><path class="cls-3" d="M37.47,35.64a3.57,3.57,0,0,1-1.79,2.13,1.09,1.09,0,0,1,.1-.26l1.49-1.77c0-.05.12-.06.2-.1"/><path class="cls-3" d="M18.07,33.77a3.59,3.59,0,0,1-3.34-.24c.6.08,1.13.18,1.67.22s1.08,0,1.67,0"/><path class="cls-3" d="M15.53,35.18a2.8,2.8,0,0,1-2.86-.61c.3.1.6.22.91.3s.65.13,1,.18l1,.13"/><path class="cls-3" d="M63.32,18.18a5.45,5.45,0,0,1-.8,3.14,20.42,20.42,0,0,1,.8-3.14"/><path class="cls-3" d="M36.7,38.5l2-2.29a5.39,5.39,0,0,1-2,2.36l-.09-.07"/><path class="cls-3" d="M29,45.26c-.19-.14-.17-.27-.05-.37.31-.27.63-.54,1-.79a.36.36,0,0,1,.5,0A3.38,3.38,0,0,1,29,45.26"/><path class="cls-3" d="M60.51,36.41a4.16,4.16,0,0,1,1.17-2,3.09,3.09,0,0,1-1.17,2"/><path class="cls-3" d="M30.1,43.28a2.41,2.41,0,0,1-1.6,1.34c0-.25.16-.38.31-.51a3.46,3.46,0,0,1,1.29-.83"/><path class="cls-3" d="M55.9,2.39a1.66,1.66,0,0,1-.13,2.07c-.13-.38.07-.71.08-1.06s0-.67,0-1"/><path class="cls-3" d="M31.55,41a3.89,3.89,0,0,1,1.05-1.06A2.63,2.63,0,0,1,33,39.7,1.92,1.92,0,0,1,31.55,41"/><path class="cls-3" d="M48.51,5.48a5.93,5.93,0,0,1-1.26,2,4,4,0,0,1,1.26-2"/><path class="cls-3" d="M59.68,5.43a5,5,0,0,1,.42,2.46,7.35,7.35,0,0,1-.42-2.46"/><path class="cls-3" d="M54.12,4.43a5.67,5.67,0,0,1,.49-2.09,2.75,2.75,0,0,1-.49,2.09"/><path class="cls-3" d="M56.67,4.79a10.3,10.3,0,0,1-.09-2.22,2.84,2.84,0,0,1,.09,2.22"/><path class="cls-3" d="M7.57,54a2.13,2.13,0,0,1-1.49-1.23A5.53,5.53,0,0,1,7.57,54"/><path class="cls-3" d="M67.28,25.29a7.77,7.77,0,0,1-.58,2.42c-.1-.22-.1-.22,0-.83l.18-.8c.06-.27.13-.54.2-.82l.15,0"/><path class="cls-3" d="M35.05,37.16A.69.69,0,0,1,35.1,37q.48-.5,1-1s.1,0,.16,0a1.48,1.48,0,0,1-1.2,1.2"/><path class="cls-3" d="M66.64,24.84a10.49,10.49,0,0,1,.72-2.13,3.31,3.31,0,0,1-.72,2.13"/><path class="cls-3" d="M29.08,42.41a2.67,2.67,0,0,1-1.35,1.25,2.49,2.49,0,0,1,1.35-1.25"/><path class="cls-3" d="M49.58,6A6.2,6.2,0,0,1,49,8.58l-.11,0c.22-.87.43-1.74.65-2.61"/><path class="cls-3" d="M55.16,4.15a3.56,3.56,0,0,1,.23-1.78,2.15,2.15,0,0,1-.23,1.78"/><path class="cls-3" d="M38.58,31.33a1.4,1.4,0,0,1-.76,1,.25.25,0,0,1-.17,0s-.06-.13,0-.16a1.67,1.67,0,0,1,1-.77"/><path class="cls-3" d="M13.24,41.86a2,2,0,0,1-1.91-.74c.31.14.62.29.94.41s.64.22,1,.33"/><path class="cls-3" d="M54,2.44a2.43,2.43,0,0,1-.45,1.4A1.7,1.7,0,0,1,54,2.44"/><path class="cls-3" d="M35.3,20.53a6.58,6.58,0,0,1-1.53,1.83l1.53-1.83"/><path class="cls-3" d="M49.92,11.61c.13-.51.25-1,.39-1.59a2.15,2.15,0,0,1-.39,1.59"/><path class="cls-3" d="M49.23,9.65a4.64,4.64,0,0,1,.51-1.45,3.41,3.41,0,0,1-.51,1.45"/></g></g></g></g></svg>