<svg xmlns="http://www.w3.org/2000/svg" viewBox="0 0 72.25 71.14"><defs><style>.cls-1{isolation:isolate;}.cls-2{mix-blend-mode:multiply;}.cls-3{fill:#000;}</style></defs><title>nut-2</title><g class="cls-1"><g id="Calque_2" data-name="Calque 2"><g id="contenu"><g class="cls-2"><path class="cls-3" d="M3.76,41.79a39.66,39.66,0,0,1-2.23-6.41C1.07,33.65.66,31.89.3,30.13a25.25,25.25,0,0,1-.25-5.89,37.08,37.08,0,0,1,1.11-7.62,22,22,0,0,1,2.53-5.76A23.3,23.3,0,0,1,7.51,6,21.15,21.15,0,0,1,22.94,0a16.27,16.27,0,0,1,7.69,2,13.18,13.18,0,0,1,1.93,1.4,3.11,3.11,0,0,0,1.37.65c3.65.81,8,4.07,8.28,9.23a14.94,14.94,0,0,1-.3,3.26,32.35,32.35,0,0,1-2.7,8.07,33.42,33.42,0,0,0-1.89,4.54,8.71,8.71,0,0,0-.19,3.17,3.88,3.88,0,0,0,.69,1.56,11.6,11.6,0,0,0,3.24,3.42A22.82,22.82,0,0,0,49.88,41c2.33.48,4.67.9,7,1.44a47.83,47.83,0,0,1,5,1.48,18.27,18.27,0,0,1,6.81,4.47,11.54,11.54,0,0,1,2.48,3.33,9.33,9.33,0,0,1,0,8.54,7.46,7.46,0,0,1-1.7,2.38,2.62,2.62,0,0,1-1.38.82.93.93,0,0,0-.69.64,6.24,6.24,0,0,1-3.36,3.41,38.05,38.05,0,0,1-7.53,2.77,30.36,30.36,0,0,1-9.36.82,69.1,69.1,0,0,1-9.49-1.37,38.54,38.54,0,0,1-7.85-2.63,72.86,72.86,0,0,1-7.07-3.81,44,44,0,0,1-6.15-4.91,71.52,71.52,0,0,1-8.4-9.08,40.53,40.53,0,0,1-4.49-7.46M35.2,20a3.69,3.69,0,0,0,.42-.58c.45-1.09.88-2.17,1.29-3.27a3.13,3.13,0,0,0,.18-1.05c0-1,0-2.07,0-3.11a7.08,7.08,0,0,0-.47-2.64,2.57,2.57,0,0,1-.08-.71L37,9l.1-.12L36,7.75a3.51,3.51,0,0,0,.17,1c0,.13.09.26.14.39a11.35,11.35,0,0,1,0,7.08c-.39,1.25-.7,2.51-1.05,3.77-.42,1.1-.86,2.18-1.24,3.29s-.67,2.14-1,3.21c0,.14-.13.27-.19.4a4,4,0,0,1,.07-1.46c.1-.48.24-.95.37-1.43s.3-1,.45-1.49l.39-1.32c-1.68,2.56-2.21,5.46-2.65,8.41a4.52,4.52,0,0,1-.14-1.2,26.56,26.56,0,0,1,2.24-9.11,27.61,27.61,0,0,0,1.24-3.47,11,11,0,0,0-.27-6.16,9.9,9.9,0,0,0-4.08-5.37,17,17,0,0,0-4.33-1.94,9.35,9.35,0,0,0-3.23-.48c-1.2,0-2.4.12-3.6.23A15.73,15.73,0,0,0,13,4.2,23.4,23.4,0,0,0,3.59,14.73a14.44,14.44,0,0,0-1,2.69,38.49,38.49,0,0,0-.92,6.33A27.12,27.12,0,0,0,3.32,35.19C4.17,37.5,5.21,39.74,6.19,42a18.22,18.22,0,0,0,1.25,2.4,65.39,65.39,0,0,0,6.13,8.21,40.4,40.4,0,0,0,6.53,6.21,88.13,88.13,0,0,0,8.13,5.4,27.23,27.23,0,0,0,7.48,3.11c2.29.51,4.61.93,6.92,1.35A15.67,15.67,0,0,0,45,69a50.31,50.31,0,0,0,5.89-.12A26.38,26.38,0,0,0,57,68c.94-.29,1.84-.73,2.79-1a23.41,23.41,0,0,0,4.68-2,5.41,5.41,0,0,0,2.43-2.25A9.19,9.19,0,0,0,67.93,57a9.25,9.25,0,0,0-1.44-4.55s0-.13,0-.26a2.87,2.87,0,0,1,1.23,1.36,10.85,10.85,0,0,1,1.13,4.57c0,.89-.1,1.78-.16,2.76A8.21,8.21,0,0,0,70.33,55a9.57,9.57,0,0,0-4-6.75,27.93,27.93,0,0,0-11.12-4.85c-2.22-.46-4.47-.83-6.68-1.34a19.56,19.56,0,0,1-7.51-3.14A12.72,12.72,0,0,1,36.61,33a6.48,6.48,0,0,1-.11-4.43c.47-1.39,1-2.79,1.52-4.16a45.49,45.49,0,0,0,2.27-7,13.09,13.09,0,0,0,.49-4,8.9,8.9,0,0,0-3.65-6.53,6.31,6.31,0,0,0-2.31-1,1.41,1.41,0,0,0,.74.91,5.54,5.54,0,0,1,2.17,1.82,2.43,2.43,0,0,0,.55.6,3,3,0,0,1,1.11,1.59,17.79,17.79,0,0,1,.62,2,5.76,5.76,0,0,1,.11,1.38,1,1,0,0,1-.4.9,9.93,9.93,0,0,0-.43-2.53c-.12,1.08-.23,2.28-.4,3.46a1.78,1.78,0,0,1-.74,1.49c-.11.06-.14.28-.21.43a9.1,9.1,0,0,1-.4.9,5.29,5.29,0,0,0-.61,1.59,2.23,2.23,0,0,1-.59,1.29,10.16,10.16,0,0,1,.35-2.15c.35-1.07.8-2.1,1.23-3.13a5.1,5.1,0,0,1,.54-.85c-.11-3-.14-3.23-.49-3.84-.06.7-.14,1.51-.19,2.33A13.6,13.6,0,0,1,36.08,20a4.72,4.72,0,0,0-.41,1c-.48,1.65-1,3.31-1.43,5a2.48,2.48,0,0,1-.51,1.23A1.71,1.71,0,0,1,33.66,26,26,26,0,0,1,35,21a6.78,6.78,0,0,0,.17-1"/><path class="cls-3" d="M61.7,47.85a11.92,11.92,0,0,1,4.18,3.47l-.11.16a1.89,1.89,0,0,1-.46-.2,28.64,28.64,0,0,0-6.19-3.51c-.2-.07-.4-.17-.61-.23C56,46.81,53.55,46,51,45.39c-1.91-.46-3.88-.66-5.81-1-.86-.16-1.7-.41-2.54-.65a1.44,1.44,0,0,1-.88-.65,3.53,3.53,0,0,1,.39,0,49.63,49.63,0,0,0,6.53,1.18c1,.16,2,.41,3.05.62,1.5.31,3,.6,4.49.93,1.14.25,2.27.55,3.41.84l-1-.56a3.42,3.42,0,0,1,1.6.19A14.37,14.37,0,0,1,65.38,49a5,5,0,0,1,.56.68c-.44.26-.65,0-.88-.16L62.54,48a7,7,0,0,0-.74-.33.86.86,0,0,0-.1.16"/><path class="cls-3" d="M64.11,55.43a2.14,2.14,0,0,1,1.23,1.35A5.18,5.18,0,0,1,65.79,59a2.9,2.9,0,0,1-.33,1.41A3.69,3.69,0,0,0,65,62.24c.11-.1.25-.18.31-.3a6.15,6.15,0,0,0,.54-5.72c-.35-.79-.74-1.58-1.15-2.46,1.2.5,2.17,3,2.31,5.34,0-.29.07-.57.08-.86a7.94,7.94,0,0,0,0-1c0-.32-.11-.64-.2-1.12a1.67,1.67,0,0,1,.55,1,5.58,5.58,0,0,1-.67,4.57c-.25.38-.44.81-1,.94-.2,0-.35.33-.5.52a8.2,8.2,0,0,1-2.12,1.64,1.49,1.49,0,0,1-.42.12c-.07-.12-.12-.21-.18-.33a13.35,13.35,0,0,1-7.56,2.74,2.39,2.39,0,0,1,1.32-.73c1.15-.42,2.35-.72,3.47-1.21a11.28,11.28,0,0,0,3.34-2,2.42,2.42,0,0,0,.7-1.35A7.6,7.6,0,0,1,64,61a2.08,2.08,0,0,0-.09-2,6.19,6.19,0,0,1-.54-1.32.71.71,0,0,0,.14-.1l1.09.85c0,.66.12,1.42.18,2.12A3.08,3.08,0,0,0,65,58.11c-.22-.87-.57-1.71-.89-2.68"/><path class="cls-3" d="M3.32,22.08c0,.4.05.8.08,1.2.09,1.31.16,2.62.29,3.93a33,33,0,0,0,1.7,7.32A44.61,44.61,0,0,0,8.57,42c.62,1.13,1.3,2.22,2,3.28,1.38,2.07,2.81,4.11,4.21,6.16a1.12,1.12,0,0,1,.19.66c-.22-.2-.45-.4-.66-.62a54,54,0,0,1-4.43-5.78,58.81,58.81,0,0,1-3.68-6.58,33.19,33.19,0,0,1-2.42-6.42A23.26,23.26,0,0,1,3,26.2c0-1,0-2,0-2.95a11.76,11.76,0,0,1,.11-1.18h.27"/><path class="cls-3" d="M17.19,53.85c.23.19.47.36.69.56a58.3,58.3,0,0,0,8.18,6.15,62.5,62.5,0,0,0,6.43,3.77,37,37,0,0,0,8.39,2.77,2.43,2.43,0,0,1,1.45.54c-.3.27-.63.17-.95.14a17.52,17.52,0,0,1-4-.85,36.29,36.29,0,0,1-7.85-3.49A65.8,65.8,0,0,1,20,56.92c-.75-.63-1.48-1.3-2.19-2a11.51,11.51,0,0,1-.77-.93l.14-.16"/><path class="cls-3" d="M26,3.62c-1.07-.14-2-.33-3-.37a19.48,19.48,0,0,0-3.5.07,7.24,7.24,0,0,0-2.29.86,15.81,15.81,0,0,0-3.89,2.69,13.74,13.74,0,0,0-3,4.16c-.4.9-.83,1.78-1.25,2.67a1.62,1.62,0,0,1-.43.55A15.78,15.78,0,0,1,10,10.15a14.9,14.9,0,0,1,6.12-6.09,11.26,11.26,0,0,1,4-1.51,13.41,13.41,0,0,1,4.24.16A2.27,2.27,0,0,1,26,3.62"/><path class="cls-3" d="M5,28.77l.33-.48c.08.43.16.68.18.93a22.5,22.5,0,0,0,1.65,6c.37.94.73,1.89,1.16,2.8a70.09,70.09,0,0,0,5.37,9.66,1.93,1.93,0,0,1,.33.87,2.44,2.44,0,0,1-.43-.35c-.73-1-1.51-2-2.17-3.08-1-1.58-1.87-3.2-2.76-4.83a27.85,27.85,0,0,1-1.23-2.59,28.25,28.25,0,0,1-2.17-6.42c-.13-.78-.18-1.58-.27-2.36a.15.15,0,0,0,0-.13"/><path class="cls-3" d="M39.08,66.08a9.45,9.45,0,0,1-2.62-.62,40.78,40.78,0,0,1-8.66-4.27c-1.56-1-3.05-2.13-4.53-3.26a12.58,12.58,0,0,1-1.51-1.5.89.89,0,0,1-.24-.63c.3.21.61.4.88.63a47.32,47.32,0,0,0,11.53,7.32c1.3.57,2.64,1,4,1.59.43.17.84.37,1.26.55,0,.06,0,.12-.07.19"/><path class="cls-3" d="M44.54,46A2.08,2.08,0,0,1,43.06,46a22,22,0,0,1-2.2-.89A28.23,28.23,0,0,1,34,40.54a6.32,6.32,0,0,1-1.44-1.76,53.1,53.1,0,0,0,12,7.26"/><path class="cls-3" d="M40.43,42.7c-.65-.37-1.34-.7-2-1.13a19.18,19.18,0,0,1-4.94-5.1,11.09,11.09,0,0,1-1.71-4.4,1.48,1.48,0,0,1,.18-1.2c.42,1.17.8,2.31,1.25,3.43a12.18,12.18,0,0,0,2,3.2,35.5,35.5,0,0,0,2.49,2.72c.87.84,1.85,1.58,2.78,2.36l-.08.12"/><path class="cls-3" d="M22,53.83c.44-.07.67.19.92.39,1.87,1.43,3.72,2.88,5.62,4.28.9.66,1.88,1.21,2.83,1.81l1,.69a.6.6,0,0,1-.74.1,15.11,15.11,0,0,1-2.08-1,41.7,41.7,0,0,1-6.86-5.2A1.75,1.75,0,0,1,22,53.83"/><path class="cls-3" d="M30.8,18.42a1.43,1.43,0,0,1,.08.26.48.48,0,0,1,0,.24c-1.14,2.9-1.47,6-2.13,9,0,.07-.09.12-.23.32a9.12,9.12,0,0,1-.11-1,23.24,23.24,0,0,1,1.15-6.93,8.81,8.81,0,0,1,.78-1.53c.1-.16.31-.24.49-.39"/><path class="cls-3" d="M7.23,16.42c-.31,1.68-.66,3.22-.86,4.78S6.14,24.3,6,26c-.19-.18-.34-.26-.37-.37a5.45,5.45,0,0,1-.19-1.13A20.81,20.81,0,0,1,5.93,19a13.74,13.74,0,0,1,.86-2.2c.07-.14.25-.23.44-.41"/><path class="cls-3" d="M41.43,63.27a8.52,8.52,0,0,1-1,0,7,7,0,0,1-1.21-.22A27,27,0,0,1,33,60.42c-.29-.17-.65-.3-.68-.86a6.93,6.93,0,0,1,.87.27c.7.32,1.38.66,2.07,1a30.19,30.19,0,0,0,5.13,1.93A3.39,3.39,0,0,1,41,63a5.31,5.31,0,0,1,.48.32"/><path class="cls-3" d="M13.36,8.66c2.09-3.43,7.39-5.84,10.09-5-.09,0-.15.12-.22.12a11.87,11.87,0,0,0-5.09,1.42,23.6,23.6,0,0,0-3,2c-.62.44-1.19.94-1.79,1.42"/><path class="cls-3" d="M43.57,66a22.64,22.64,0,0,1-7.69-2.34c-1.08-.55-1.11-.6-1.43-1.11,0,0,0,0,.07,0a.93.93,0,0,1,.24,0,77.67,77.67,0,0,0,8.76,3.19s.07.08.1.12,0,.1,0,.15"/><path class="cls-3" d="M11.37,6.9c-1.86,2.24-2.63,5-3.74,7.64l-.32,0L7,14.88s-.12-.07-.11-.09a8.38,8.38,0,0,1,.22-1.11A23.1,23.1,0,0,1,9.81,8.35a13.7,13.7,0,0,1,1.37-1.59l.19.14"/><path class="cls-3" d="M15.14,8.78a6.06,6.06,0,0,1-.47.54,13.72,13.72,0,0,0-3.89,6.54,15.74,15.74,0,0,1-.87,2.33.93.93,0,0,1-.05-.32c.51-2.74,1.21-5.4,3.13-7.55a7.73,7.73,0,0,1,2-1.71l.12.17"/><path class="cls-3" d="M28.22,5.89,26.9,3.74c.29.09.46.08.54.17a11.13,11.13,0,0,1,1.28,1.38A13.92,13.92,0,0,1,31.16,9.8,11.77,11.77,0,0,1,31.34,11l-.15,0c-.11-.19-.24-.39-.33-.59A28.73,28.73,0,0,0,28.39,6c0-.06-.13-.08-.2-.13Z"/><path class="cls-3" d="M9.72,37.24a13.17,13.17,0,0,1-.81-1.41A28,28,0,0,1,6.63,27a1.76,1.76,0,0,1,.24-1.29,6.31,6.31,0,0,1,.15.81,26.1,26.1,0,0,0,2.31,9.09c.22.52.4,1.07.6,1.6l-.21.06"/><path class="cls-3" d="M28.2,5.87a13,13,0,0,1,1.18,2.87,3.52,3.52,0,0,1,0,2,2.05,2.05,0,0,1-.23.35,18.3,18.3,0,0,0-.24-1.82,11.3,11.3,0,0,0-2.15-4A4.78,4.78,0,0,1,25.92,4a3.73,3.73,0,0,1,1.85,1.38c.14.19.3.37.45.56Z"/><path class="cls-3" d="M20.42,51.77a15,15,0,0,1-6.36-7.65c.16.17.32.34.46.52.65.91,1.31,1.82,1.95,2.73a17.8,17.8,0,0,0,2.94,3.19c.39.33.74.71,1.11,1.06l-.1.15"/><path class="cls-3" d="M12.34,10.13c-.19.32-.31.54-.44.74a12.2,12.2,0,0,0-1.66,3.54c-.21.79-.52,1.56-.79,2.33a1,1,0,0,1-.54.68,3.07,3.07,0,0,1,0-.59,14.09,14.09,0,0,1,1.9-5.28c.23-.34.47-.67.71-1a1,1,0,0,1,.84-.42"/><path class="cls-3" d="M40.7,61.51a9.94,9.94,0,0,1-4.31-1.06A32.61,32.61,0,0,1,30.81,57a4.34,4.34,0,0,1-.79-.81,2.88,2.88,0,0,1,1.08.57,32.28,32.28,0,0,0,4.73,2.91,19.93,19.93,0,0,0,4.24,1.48q.32.07.63.18a.06.06,0,0,1,0,0s0,.05,0,.1"/><path class="cls-3" d="M55.86,47.62c-3.11-.69-6.2-1.46-9.45-2.34,1.55-.32,8.24,1.34,9.45,2.34"/><path class="cls-3" d="M33,41.3a.78.78,0,0,1,.23.07,45.55,45.55,0,0,0,6.52,4.2s0,.09,0,.14c-.61.07-1.45-.21-2.9-1.05a12.54,12.54,0,0,1-4-3.22L33,41.3"/><path class="cls-3" d="M33.5,33c.92,1.27,1.77,2.6,2.77,3.8s2.16,2.28,3.29,3.44c-1.92-.65-5.35-4.69-6.06-7.24"/><path class="cls-3" d="M44.43,59.58c1.54.26,3,.55,4.38.71s2.81.2,4.29.3a2.14,2.14,0,0,1-.45.26,3.82,3.82,0,0,1-.89.12,23.61,23.61,0,0,1-6.15-.7,1.84,1.84,0,0,1-1.18-.69"/><path class="cls-3" d="M27.37,25.77a2.52,2.52,0,0,1-.25-.81,10.23,10.23,0,0,1,1.08-4.34,3.5,3.5,0,0,1,.51-.58,3.63,3.63,0,0,1-.19,1.58c-.26.95-.53,1.89-.76,2.85-.1.41-.12.84-.18,1.26l-.21,0"/><path class="cls-3" d="M15.62,49,20.53,54a1.72,1.72,0,0,1-1.26-.59c-1.43-1.33-2.95-2.59-3.65-4.48"/><path class="cls-3" d="M44.69,67.14c1.39,0,2.78.09,4.17,0s2.68-.29,4.06-.36a4.77,4.77,0,0,1-.69.32,19.33,19.33,0,0,1-7,.34,4.62,4.62,0,0,1-.6-.19s0-.1,0-.14"/><path class="cls-3" d="M29.88,27.49c-.21-2.23.82-6.77,1.74-7.77a2,2,0,0,1,0,.35c-.56,2.41-1.13,4.83-1.74,7.42"/><path class="cls-3" d="M36.06,23.19A27.84,27.84,0,0,1,34.79,29a2.05,2.05,0,0,1-.09-1.4,12.54,12.54,0,0,1,1.36-4.39"/><path class="cls-3" d="M30.05,29.88a37,37,0,0,1,1,5.78,7.57,7.57,0,0,1-.42-.69,11.1,11.1,0,0,1-.82-4.48c0-.23,0-.51.28-.61"/><path class="cls-3" d="M7.14,10.79A23.67,23.67,0,0,1,5.2,15.94c-.06-.17-.17-.32-.15-.44a10.87,10.87,0,0,1,1.56-4.18,6.37,6.37,0,0,1,.53-.53"/><path class="cls-3" d="M57.66,65.6c.09-.1.14-.21.23-.25a27.35,27.35,0,0,0,4.31-2.9c-.18,1.34-2.86,3.15-4.54,3.15"/><path class="cls-3" d="M4.55,22.35a1.08,1.08,0,0,1-.21-1A12.13,12.13,0,0,1,5.51,17a3.91,3.91,0,0,1-.15,1.77c-.07.59-.18,1.19-.3,1.77a5,5,0,0,1-.51,1.82"/><path class="cls-3" d="M29.74,5.47a11.39,11.39,0,0,1,2.88,5.24,21.29,21.29,0,0,1-2.88-5.24"/><path class="cls-3" d="M49.6,63.28a4.26,4.26,0,0,1-2.54.36,3.12,3.12,0,0,1-2.38-.88c.44-.16.81.06,1.2.11s.86.13,1.29.16.81,0,1.22,0l1.19,0,0,.27"/><path class="cls-3" d="M8.22,17.81a44.48,44.48,0,0,1-.49,6.12c-.46-1-.2-4.68.49-6.12"/><path class="cls-3" d="M31.6,6.84a6,6,0,0,1,1.91,3,2.19,2.19,0,0,1,0,2A17.08,17.08,0,0,0,31.6,6.84"/><path class="cls-3" d="M5,28.77a.15.15,0,0,1,0,.13L4.65,29a13.59,13.59,0,0,1-.31-4.15,1.63,1.63,0,0,1,.24-.54c.4.13.27.39.28.58.06,1.28.12,2.56.17,3.85"/><path class="cls-3" d="M16.84,8.34l-3.08,3.81A1.17,1.17,0,0,1,14,11c.8-1,1.39-2.32,2.83-2.66"/><path class="cls-3" d="M14.92,14.13a4.83,4.83,0,0,1,2.37-3.75c-.71,1.22-1.37,2.36-2,3.5-.05.1-.19.15-.32.25"/><path class="cls-3" d="M8.51,25.32c.16,1.6.44,3,.58,4.61-.86-.8-1.18-3.38-.58-4.61"/><path class="cls-3" d="M36.56,45.91a6.73,6.73,0,0,1-3.81-2.69,10.36,10.36,0,0,1,2,1.28,6.19,6.19,0,0,1,1.81,1.41"/><path class="cls-3" d="M17.84,45.94l3.6,4.32c-1-.34-3.1-2.79-3.6-4.32"/><path class="cls-3" d="M47,46.88a8.3,8.3,0,0,1,4.07.48,1.35,1.35,0,0,1-.4.1c-1-.06-2-.12-3-.2a.73.73,0,0,1-.67-.38"/><path class="cls-3" d="M18,11.62a9.63,9.63,0,0,1-1.86,3.63A5.68,5.68,0,0,1,18,11.62"/><path class="cls-3" d="M28.5,32.87A4.15,4.15,0,0,1,28,29.61a.83.83,0,0,1,.5.71,6.43,6.43,0,0,1,.05,2.55"/><path class="cls-3" d="M68.83,55.55a19.5,19.5,0,0,0-.59-1.87A18.56,18.56,0,0,0,67.33,52c1.19.1,2.07,2.26,1.5,3.55"/><path class="cls-3" d="M10.51,24.06a14.59,14.59,0,0,1,0,4.49,5.86,5.86,0,0,1-.35-2.32,4.1,4.1,0,0,1,.31-2.17"/><path class="cls-3" d="M3.41,20.24a5.4,5.4,0,0,1,.68-3.37,4.66,4.66,0,0,1-.68,3.37"/><path class="cls-3" d="M12.89,33c.17.18.22.21.24.26l1.72,4.65c-.13-.07-.24-.09-.28-.16a17.55,17.55,0,0,1-1.65-4.07,3.15,3.15,0,0,1,0-.68"/><path class="cls-3" d="M55.75,50.61c-1-.25-2-.54-3.08-.74s-2-.3-3.15-.45c1-.3,4.87.41,6.23,1.19"/><path class="cls-3" d="M53.62,44.44c.74-.26,2.84.19,4.28.79A4,4,0,0,1,55.74,45c-.71-.15-1.41-.34-2.12-.51"/><path class="cls-3" d="M47.62,48a5.51,5.51,0,0,1,3.55.4,8.5,8.5,0,0,1-3.55-.4"/><path class="cls-3" d="M22.72,4.89l-4.13,1.2c.25-.4.25-.42,1.82-.94a3.84,3.84,0,0,1,2.31-.26"/><path class="cls-3" d="M29.71,34.82a5,5,0,0,1-.62-3.26,6.26,6.26,0,0,1,.62,3.26"/><path class="cls-3" d="M60.76,62.06c.05.61-.34.81-.64,1a2.37,2.37,0,0,1-1.8.56.66.66,0,0,1,.12-.22,2.11,2.11,0,0,1,.4-.26c.61-.37,1.23-.73,1.92-1.13"/><path class="cls-3" d="M25.4,4.18A6.12,6.12,0,0,1,27,6.73,3.89,3.89,0,0,1,25.4,4.18"/><path class="cls-3" d="M30.75,59A15.12,15.12,0,0,1,27.35,57l.09-.15,3.37,2-.06.17"/><path class="cls-3" d="M63.39,60a1.24,1.24,0,0,1,0,1.29c-.14.32-.33.62-.76.59A4,4,0,0,1,63.39,60"/><path class="cls-3" d="M30.47,52.8l3,1.41A5.44,5.44,0,0,1,30.4,53l.07-.16"/><path class="cls-3" d="M12.6,15.83a3.64,3.64,0,0,1-.75,2.42,4.43,4.43,0,0,1,.75-2.42"/><path class="cls-3" d="M25.75,23.12a3,3,0,0,1,.76-2.55,8.08,8.08,0,0,1-.76,2.55"/><path class="cls-3" d="M20.11,46.41c-.7-.25-1.16-.87-1.53-2a4.82,4.82,0,0,1,1.53,2"/><path class="cls-3" d="M11.67,39.23A9.52,9.52,0,0,1,10.51,37a3.05,3.05,0,0,1,1.16,2.27"/><path class="cls-3" d="M15.78,31.36a2.48,2.48,0,0,1-.28-1.95,4,4,0,0,1,.28,1.95"/><path class="cls-3" d="M33.64,30.2l.12-1.4a1.55,1.55,0,0,1-.12,1.4"/></g></g></g></g></svg>