<svg xmlns="http://www.w3.org/2000/svg" viewBox="0 0 72.15 72.9"><defs><style>.cls-1{isolation:isolate;}.cls-2{mix-blend-mode:multiply;}.cls-3{fill:#6f7fb5;}</style></defs><title>nut-5</title><g class="cls-1"><g id="Calque_2" data-name="Calque 2"><g id="contenu"><g class="cls-2"><path class="cls-3" d="M49.06,42l1.68-1.14a8.46,8.46,0,0,1,2.84-1.23,19.57,19.57,0,0,1,4.5-.66c1.09,0,2.18-.11,3.26-.08a9.86,9.86,0,0,1,5.06,1.47,10.37,10.37,0,0,1,3.73,3.8,12.66,12.66,0,0,1,1,2.4A17.28,17.28,0,0,1,72,50.73a21.62,21.62,0,0,1,0,4.62,8.93,8.93,0,0,0-.08,1,6.6,6.6,0,0,1-.47,1.91A14.21,14.21,0,0,1,70,61.59c-.48.79-.94,1.58-1.48,2.32a14.1,14.1,0,0,1-2.43,2.85,7.21,7.21,0,0,1-.62.47c-.74.46-1.48.93-2.24,1.37a30.47,30.47,0,0,1-4.16,2.08,28.55,28.55,0,0,1-5.74,1.65c-.89.15-1.77.33-2.66.46a11.87,11.87,0,0,1-1.58.1c-.91,0-1.81-.09-2.71-.12-.26,0-.52,0-.77,0-.74-.06-1.47-.15-2.2-.23-.48-.06-1-.13-1.43-.17a20.27,20.27,0,0,1-4-.78c-1.26-.37-2.51-.78-3.74-1.23s-2.5-1-3.72-1.51S27.86,67.66,26.6,67C25,66.08,23.47,65.17,22,64.18a48.07,48.07,0,0,1-7.85-6.61A51.65,51.65,0,0,1,8.73,51c-1-1.49-2.07-3-3.06-4.52a29.18,29.18,0,0,1-1.5-2.68c-.65-1.3-1.31-2.59-1.87-3.94A33,33,0,0,1,.85,35.57a20.14,20.14,0,0,1-.56-2.65c-.08-.66-.12-1.31-.18-2,0-.43-.08-.85-.09-1.28s0-1,0-1.55c.06-.9.12-1.81.23-2.71.08-.61.22-1.22.35-1.82a56.47,56.47,0,0,1,1.76-5.82c.29-.85.69-1.67,1.06-2.49.71-1.56,1.6-3,2.45-4.54A20.77,20.77,0,0,1,8,7.74c.35-.43.76-.8,1.14-1.21S10.05,5.45,10.56,5a11.18,11.18,0,0,1,1.3-1c.63-.44,1.27-.85,1.89-1.28A13.28,13.28,0,0,1,17.57.86,21.36,21.36,0,0,1,21,.18c.22,0,.44.06.65,0,.38,0,.75-.08,1.12-.14a6.27,6.27,0,0,1,2.48.1,39.51,39.51,0,0,1,4.49,1.28,11.9,11.9,0,0,1,3.49,2c.37.3.78.56,1.16.85a5.87,5.87,0,0,1,.61.48,16.2,16.2,0,0,1,2.63,3.36c.67,1.2,1.26,2.44,1.86,3.68A5.56,5.56,0,0,1,40,13.38a19,19,0,0,1,.4,3.52c0,1.24-.08,2.49-.11,3.74,0,.85-.07,1.71,0,2.56s.19,1.61.21,2.41A11.68,11.68,0,0,0,41,28.73a19.19,19.19,0,0,0,.9,2.32c.43,1,.87,1.95,1.37,2.88s1.15,2,1.76,3a32.73,32.73,0,0,0,2.36,3.48A14.79,14.79,0,0,0,49.06,42m-1.4,1.76h0a2.55,2.55,0,0,0,.41-.3c.24-.27.44-.57.68-.87a6,6,0,0,1-1.55-1.42,29.92,29.92,0,0,1-3.47-5,50.28,50.28,0,0,1-2.64-5.17,15.77,15.77,0,0,1-1.23-4.76c-.08-.93-.16-1.86-.2-2.8-.11-2.1-.24-4.2-.28-6.3a14.8,14.8,0,0,0-.52-3.87,26.08,26.08,0,0,0-3.19-7.15,5,5,0,0,0-1-1.2c-.87-.68-1.78-1.3-2.7-1.9a11.54,11.54,0,0,0-3-1.3A33.08,33.08,0,0,0,23.86.58a7.66,7.66,0,0,0-3.62.18c-.79.27-1.61.47-2.4.75a14.86,14.86,0,0,0-3.57,1.93c-.78.54-1.57,1.07-2.35,1.62a8.28,8.28,0,0,0-1,.84c-.31.31-.56.67-.84,1s-.51.65-.78,1c-.38.46-.78.89-1.15,1.35a19.22,19.22,0,0,0-1.92,3C5.63,13.23,5,14.28,4.5,15.35a21.47,21.47,0,0,0-1.15,2.54c-.6,1.71-1.12,3.44-1.68,5.17a17,17,0,0,0-.61,3.15,21.52,21.52,0,0,0,.08,4.88c.09.8.19,1.59.32,2.38a21.17,21.17,0,0,0,1.8,5.86c.17.35.36.69.5,1.05a19.67,19.67,0,0,0,1.33,2.73c.31.52.58,1.07.88,1.6.41.71.78,1.44,1.24,2.12,1,1.43,2,2.84,3,4.23.71,1,1.49,1.87,2.27,2.77a29.11,29.11,0,0,0,2,2.24c1.52,1.44,3.07,2.83,4.64,4.22.69.62,1.46,1.16,2.19,1.74a33.53,33.53,0,0,0,4.74,3.18l.58.31c.61.34,1.19.72,1.82,1,1.29.61,2.59,1.21,3.9,1.77,1,.42,2,.82,3,1.15s2.13.63,3.2.92c.62.17,1.25.31,1.89.43s1.53.25,2.29.37,1.56.25,2.35.32c1.15.09,2.3.14,3.46.19a10.14,10.14,0,0,0,1.35,0c.62-.07,1.23-.15,1.84-.27,1.18-.21,2.36-.42,3.52-.69a28.84,28.84,0,0,0,4.41-1.55c.62-.26,1.22-.58,1.81-.9.85-.48,1.7-1,2.54-1.48a15,15,0,0,0,1.3-.9,6.28,6.28,0,0,0,1.37-1.25c.56-.81,1.21-1.55,1.69-2.41a7.85,7.85,0,0,1,.44-.73,15.26,15.26,0,0,0,1.46-2.77,16,16,0,0,0,.82-2.82,11.28,11.28,0,0,0,.28-3.23,5.08,5.08,0,0,1,0-.78,9.7,9.7,0,0,0-.3-3.08,14.83,14.83,0,0,0-.82-2.76,14.76,14.76,0,0,0-1.65-2.64,8,8,0,0,0-1.16-1.25,11.62,11.62,0,0,0-4.87-2.22,10.12,10.12,0,0,0-3.72-.2c-.87.09-1.74.26-2.62.37a14.7,14.7,0,0,0-3.87.94,8.54,8.54,0,0,0-1.6.8,22.29,22.29,0,0,0-2.64,2.6l1.78-.39a13.52,13.52,0,0,1,3.85-.49,3.49,3.49,0,0,1,1.76.39.92.92,0,0,0,.38.08,4.39,4.39,0,0,1,1.47.31c.26.12.51.26.78.36a2.49,2.49,0,0,1,1.49,1.78,1.55,1.55,0,0,1,0,.38,2.19,2.19,0,0,1-.44-.77,1.53,1.53,0,0,0-.91-.85c-.22-.09-.44-.14-.66-.24a8.69,8.69,0,0,0-2.83-.77,11,11,0,0,0-3.49.15,20.44,20.44,0,0,1-2.92.48,2.73,2.73,0,0,0-.8.13,4.34,4.34,0,0,1-1.56.27,15.52,15.52,0,0,1-2.62-.33,7.48,7.48,0,0,1-3.16-1.35,2.67,2.67,0,0,1-.82-.82,11.2,11.2,0,0,0,5.41,1.71,10.91,10.91,0,0,1-5.56-2.28c.1,0,.14,0,.17,0l.31.16a14.16,14.16,0,0,0,6.38,1.82,3.29,3.29,0,0,0,.54,0,12.64,12.64,0,0,1-2.54-.35,10.52,10.52,0,0,1-3.73-1.61c-.15-.11-.28-.23-.42-.35l.06-.06,1.1.55A15.07,15.07,0,0,0,46,43.81a1.64,1.64,0,0,1,.86.21s.12,0,.18,0l.61-.23"/><path class="cls-3" d="M47.66,43.79a11.58,11.58,0,0,1-5.4-1.4,5.88,5.88,0,0,1-.72-.46.55.55,0,0,1-.21-.31c.14.07.28.12.42.2a18.66,18.66,0,0,0,5.34,1.73c.2,0,.46,0,.56.25Z"/><path class="cls-3" d="M17.18,51.17a1.79,1.79,0,0,0-.12-.24,31,31,0,0,1-2.19-3c-.49-.77-1.08-1.46-1.6-2.21A32.47,32.47,0,0,1,10.47,41a.2.2,0,0,1,0-.17,3.29,3.29,0,0,1,.28.44A44.88,44.88,0,0,0,15.3,48a49,49,0,0,0,7.39,7.3,50.06,50.06,0,0,0,6.54,4.43,43.31,43.31,0,0,0,9.32,4,32.58,32.58,0,0,0,6.19,1.21,23.3,23.3,0,0,0,5.9-.07,21.3,21.3,0,0,0,4-.89,20.5,20.5,0,0,0,3.73-1.76,17.79,17.79,0,0,0,3-2.37c.52-.52,1-1.07,1.54-1.6l.14-.11.07,0a2.87,2.87,0,0,1-.28.48c-.44.51-.88,1-1.36,1.49a17.17,17.17,0,0,1-3.4,2.59.11.11,0,0,0-.06.11l.8-.36c.26-.12.51-.27.77-.36a7.51,7.51,0,0,0,2.89-2.19,5.24,5.24,0,0,1,.54-.51,3.47,3.47,0,0,1-.77,1.15c-.33.35-.67.69-1,1s-.75.6-1.1.94a2.58,2.58,0,0,0,.26-.08c.59-.3,1.19-.58,1.77-.9a2.8,2.8,0,0,0,.66-.53,20.73,20.73,0,0,0,2.49-3.19c.18-.28.35-.57.53-.86l.14-.18c.18.11.11.23,0,.34-.36.58-.7,1.18-1.08,1.76a17.2,17.2,0,0,1-1.91,2.35,2.2,2.2,0,0,0-.2.23s0,.07-.07.15A2.54,2.54,0,0,0,64,60.78l1.49-2c0-.07.12-.13.24-.26a2.18,2.18,0,0,1-.38,1c-.26.36-.52.71-.8,1.05a23.37,23.37,0,0,1-2.76,2.87l.88-.42,0,.08c-.14.1-.26.22-.4.31L59.74,64.9a23.73,23.73,0,0,1-3.3,1.57,22.49,22.49,0,0,1-6.73,1.39c-.71,0-1.43,0-2.14,0a1.58,1.58,0,0,0-.38,0,6.48,6.48,0,0,1-2.63.1c-.75-.08-1.5-.18-2.23-.33s-1.34-.33-2-.51a.73.73,0,0,1-.23-.12l.27-.09a51.89,51.89,0,0,1-22.1-12l.24.32a19.28,19.28,0,0,0,3.07,2.92,53,53,0,0,0,13,7.47c.13,0,.3.23.45,0,0,0,.12,0,.18,0l2.1.72.23.12-.36.06v0c1,.28,2,.58,3.07.83a31.31,31.31,0,0,0,7,1,26.12,26.12,0,0,0,3.18-.21A30.17,30.17,0,0,0,56.14,67a19.83,19.83,0,0,0,4.09-1.79,16.63,16.63,0,0,0,3-2.31c.42-.42.83-.86,1.24-1.29a.37.37,0,0,1,.16-.1c-.44,1.15-1.45,1.81-2.35,2.68l.72-.27L63,64a2.72,2.72,0,0,1-.38.31c-.6.36-1.2.73-1.81,1.07a35,35,0,0,1-3.75,1.82.48.48,0,0,0-.22.16,1.87,1.87,0,0,0,.32-.08c1.2-.48,2.41-1,3.61-1.46a10.77,10.77,0,0,0,1.14-.65c.1-.06.19-.19.34,0s.19,0,.28-.08l1-.46c.11,0,.24-.08.39-.13a11.29,11.29,0,0,1-2,2.15l1-.4c0,.06,0,.09,0,.1a14.79,14.79,0,0,0-1.38,1.13,8,8,0,0,1-1.59,1,24.39,24.39,0,0,1-10.89,2.6,31.78,31.78,0,0,1-4.78-.26,43.78,43.78,0,0,1-9.17-2.27,52.31,52.31,0,0,1-5.43-2.35c-1.64-.83-3.23-1.72-4.78-2.7a58,58,0,0,1-5.79-4.15,57.42,57.42,0,0,1-6-5.65,52.68,52.68,0,0,1-5.44-7,46.36,46.36,0,0,1-3.52-6.5,38,38,0,0,1-1.95-5.71,34.74,34.74,0,0,1-.86-4.94,8.6,8.6,0,0,1,0-1.52,13.15,13.15,0,0,1,.16-1.39c.18-1.05.36-2.09.58-3.13a28.6,28.6,0,0,1,2-5.68,12.67,12.67,0,0,1,1.6-2.44l.08-.08c.19-.18.25-.15.34.17L6.55,15a15.23,15.23,0,0,1,4.14-3.26,4.44,4.44,0,0,1,.49-.24.48.48,0,0,1,.26,0,18.13,18.13,0,0,0-4.1,3.17,13.4,13.4,0,0,0-3,4.18l.06.05c.06-.08.13-.16.19-.25A27.26,27.26,0,0,1,8.06,14.5a7.64,7.64,0,0,1,1.63-1.26,1.46,1.46,0,0,1,.39-.16c.05,0,.13,0,.24.08a3.73,3.73,0,0,0-.64.38,14.59,14.59,0,0,0-1.26,1.1,28.2,28.2,0,0,0-4.35,5.67A29.76,29.76,0,0,0,2.76,23a3,3,0,0,0-.16,1.05.31.31,0,0,0,0-.1A22.1,22.1,0,0,1,6,18.14a10.68,10.68,0,0,1,1.89-1.85,3.61,3.61,0,0,1,.41-.24c-.16.18-.33.39-.52.57a19.68,19.68,0,0,0-3.08,4c-.48.83-.93,1.68-1.34,2.55a11.43,11.43,0,0,0-.48,1.43.7.7,0,0,0,0,.32c.36-.38.31-1,.68-1.33a19.24,19.24,0,0,0-.45,2.61,13.53,13.53,0,0,1,1.82-4.84c1.12-2,2.71-3.8,3.35-3.91,0,.07,0,.14-.07.17-.33.35-.69.66-1,1A20.9,20.9,0,0,0,4.45,23a6.44,6.44,0,0,0-.18.85,8.47,8.47,0,0,0-.25.86,3.72,3.72,0,0,0-.09.68,15,15,0,0,1,2.24-4.25,3.47,3.47,0,0,1,.25-.29l.15-.06a2.21,2.21,0,0,1-.1.24,18.55,18.55,0,0,0-2.34,4.77c-.13.35-.28.7-.4,1.05a2.15,2.15,0,0,0-.07.5c0,.55-.06,1.09-.05,1.64,0-.24.05-.49.11-.73A20.11,20.11,0,0,1,4.84,25a14.17,14.17,0,0,1,.9-1.5c0-.07.09-.13.13-.19L6,23.4l-.16.32A16,16,0,0,0,4.57,26.6a7.6,7.6,0,0,0-.31,2.12c0,1,0,2,0,3a5.8,5.8,0,0,0,.18,1.08c.13.62.29,1.24.44,1.85a.33.33,0,0,0,.07.13L5,34.7s0,0,0,0a36,36,0,0,0,3.13,8,40.62,40.62,0,0,0,3.6,5.65,53.53,53.53,0,0,0,5.88,6.53.62.62,0,0,0,.21.13,9.18,9.18,0,0,0-1-1.49c-.21-.19-.39-.41-.61-.6s-.37-.24-.5-.4c-.85-1-1.69-2-2.52-3a43.39,43.39,0,0,1-4.81-7.22A30.69,30.69,0,0,1,6.56,38a.25.25,0,0,1,0-.21,3.65,3.65,0,0,1,.18.34,41.28,41.28,0,0,0,3,5.92c.63,1,1.31,2,2,3l.09-.05c-.21-.35-.42-.69-.61-1-1-1.78-2-3.55-2.86-5.36a32.62,32.62,0,0,1-3-9.34,9.45,9.45,0,0,1-.06-2.76c0-.28.12-.56.18-.85l.08,0c0,.36,0,.73,0,1.1a19.78,19.78,0,0,0,.66,5.08c.17.62.26,1.27.45,1.89a28.92,28.92,0,0,0,2,4.9,43.74,43.74,0,0,0,4.63,7.38c.21.25.41.5.61.76a.17.17,0,0,0,.16.07l-.47-.72a29.11,29.11,0,0,1-1.9-3.3c-.4-.81-.93-1.56-1.37-2.35A26.85,26.85,0,0,1,8.5,38.65,2,2,0,0,1,8.33,38c.06.14.13.27.2.41.66,1.29,1.27,2.61,2,3.88a41.71,41.71,0,0,0,5.63,7.77c.34.38.7.73,1.05,1.1a1.18,1.18,0,0,0,.13.18c.64.63,1.25,1.28,1.91,1.9a53,53,0,0,0,6.61,5.24,50.73,50.73,0,0,0,5.39,3.13,42.78,42.78,0,0,0,7.16,2.82,34.18,34.18,0,0,0,7.15,1.35,25.5,25.5,0,0,0,3.81,0A19.07,19.07,0,0,0,53,65.26c-.28,0-.56,0-.84,0h-.81A19.49,19.49,0,0,0,59,62.79c-.34.11-.67.26-1,.4a20.87,20.87,0,0,1-4.53,1.54c-1.18.21-2.38.36-3.58.48A27.1,27.1,0,0,1,43,65a4.61,4.61,0,0,0-1-.13,2.58,2.58,0,0,1-.84-.1c-.66-.18-1.32-.38-2-.58s-1.3-.36-1.94-.58a46.28,46.28,0,0,1-12.44-6.35,48.4,48.4,0,0,1-7-6c-.2-.21-.41-.4-.62-.61a1,1,0,0,0,.13.33c.05.1.09.2.16.36l-.39-.18m-.12,5.67.45.41a2.88,2.88,0,0,0,1,.91.8.8,0,0,0,.15.21c.45.38.91.75,1.37,1.11.13.1.28.18.42.27a4.38,4.38,0,0,0,.87.73.61.61,0,0,1,.07-.1l-1-.62a1.06,1.06,0,0,0-.16-.21l-1.22-1c-.18-.14-.37-.26-.56-.39l-1.05-.91-.45-.41a2.62,2.62,0,0,0-.89-.83,1.22,1.22,0,0,0-.12-.19l-2.36-2.4a.64.64,0,0,0-.14-.08l0,.06c.72.74,1.44,1.47,2.17,2.2.16.15.34.27.51.41a2.34,2.34,0,0,0,.89.82m-5.49-5.72s0-.09,0-.12l-1.38-1.73s0,0-.06,0c-.13-.21-.26-.41-.4-.61a52.63,52.63,0,0,1-3-4.59c-.08-.13-.19-.24-.28-.36s-.18-.47-.3-.69c-.19-.37-.41-.72-.62-1.08a1.1,1.1,0,0,0-.06-.26c-.42-1-.86-2-1.28-3A24.1,24.1,0,0,1,3,34.88c-.29-1.24-.55-2.49-.76-3.74a11.83,11.83,0,0,1-.16-2.91c.07-1,.2-2,.3-3a1.12,1.12,0,0,0-.17.37,24.68,24.68,0,0,0-.35,3.83,5.11,5.11,0,0,0,0,.78,33.32,33.32,0,0,0,1.37,6.15,38.61,38.61,0,0,0,2,5.06,4.8,4.8,0,0,0,.3.48,2.17,2.17,0,0,0,.12.36c.17.35.35.69.54,1a3.09,3.09,0,0,0,.26.37c.3.57.58,1.16.93,1.7.65,1,1.33,2,2,3,.2.29.46.55.68.82s.23.4.37.58c.36.44.73.86,1.1,1.3a.93.93,0,0,0,.09.2c.44.51.88,1,1.33,1.52a.69.69,0,0,0,.13.11.15.15,0,0,0,0-.15c-.46-.52-.91-1-1.38-1.57a.78.78,0,0,0-.15-.1M25.63,63.29l-.3-.24,0,.07.35.16a3.33,3.33,0,0,0,.28.25,39.08,39.08,0,0,0,4.14,2.32,49.88,49.88,0,0,0,10,3.68,34.09,34.09,0,0,0,8.4,1c.64,0,1.27-.08,1.9-.12a.84.84,0,0,0-.38-.06c-.49,0-1,0-1.48,0a36,36,0,0,1-5.08-.39,40.76,40.76,0,0,1-4.64-1,48.24,48.24,0,0,1-9.33-3.67c-1.17-.63-2.33-1.29-3.5-1.94-.1-.06-.21-.1-.31-.15m-2.11-4.64c.06.19.22.23.36.31l0-.06-.41-.24c-.08-.09-.16-.19-.25-.28s-.43-.31-.52-.52a1.48,1.48,0,0,0-.51-.54c-.55-.46-1.12-.89-1.66-1.35A50.19,50.19,0,0,1,14,49.35c-.3-.35-.59-.71-.88-1.06A17.07,17.07,0,0,0,15,51.07c.81.9,1.65,1.76,2.5,2.62a50.44,50.44,0,0,0,5.7,4.82,2.92,2.92,0,0,0,.31.14M15.24,53l0,0,.06.09a37.57,37.57,0,0,0,6.55,6.3,53.82,53.82,0,0,0,9.8,5.88,12.7,12.7,0,0,0,2.66,1,22.82,22.82,0,0,1,2.3.74c.09,0,.23.08.26.15s.19.2.31.24a39.82,39.82,0,0,0,8.07,1.69,16.78,16.78,0,0,0,3.88,0c1.15-.16,2.3-.36,3.45-.58.73-.15,1.45-.36,2.18-.54a.73.73,0,0,0-.39,0,23.46,23.46,0,0,1-5.78.71c-1.27,0-2.54-.09-3.81-.14A20,20,0,0,1,41,68.12c-.92-.22-1.81-.53-2.72-.82-1.92-.62-3.84-1.29-5.7-2.09-.05,0-.12-.08-.18-.07a1.48,1.48,0,0,1-.87-.25,58.66,58.66,0,0,1-6.88-4,59.21,59.21,0,0,1-8.08-6.66L15.24,53M58.48,64.33l0-.09-.44.19a24.52,24.52,0,0,1-6.09,1.86,6.82,6.82,0,0,1-3.08-.07,1.36,1.36,0,0,0-.35,0c-.61,0-1.22,0-1.83,0a33.3,33.3,0,0,1-5.44-.68,41.73,41.73,0,0,1-8.9-3A47.87,47.87,0,0,1,27,59.63a1.74,1.74,0,0,0-.27-.14l0,.07c.38.27.75.55,1.15.79,1,.63,2,1.23,3.07,1.84l.31.22,0,.06-.32-.08s0,0,0,.07l2.08,1,0-.06L32.63,63a.16.16,0,0,0,0-.07c.14.07.27.13.4.21a15.62,15.62,0,0,0,3.15,1.34c.74.22,1.5.42,2.23.67a8,8,0,0,1,2.46.89s.08,0,.12,0a29.42,29.42,0,0,0,4.58.68c.71,0,1.42,0,2.13,0,.48,0,1,.07,1.43,0s1.14-.07,1.71-.13A21.17,21.17,0,0,0,57.21,65c.43-.19.84-.42,1.27-.63M14.34,52.63a.15.15,0,0,0,.06-.05l-.15-.22c-1.35-1.88-2.72-3.73-4.05-5.63A39.67,39.67,0,0,1,6.45,40.1,34.39,34.39,0,0,1,3.8,31.53,4.11,4.11,0,0,0,3.63,31l-.09,0a5.74,5.74,0,0,1-.07.93,1.14,1.14,0,0,0,0,.52,36.33,36.33,0,0,0,3.48,9.76,47.23,47.23,0,0,0,2.54,4.28,44.83,44.83,0,0,0,3.12,4.14c.58.68,1.17,1.35,1.75,2m-.21-4.43-.07.06c0,.07.07.14.11.2L16,51.22a2.2,2.2,0,0,0,.2.23,52.42,52.42,0,0,0,4.73,4.46,54.78,54.78,0,0,0,6.62,4.71l.4.22a.8.8,0,0,0-.25-.29c-.41-.36-.84-.69-1.22-1.09a3.68,3.68,0,0,0-.61-.57,52.45,52.45,0,0,1-4.73-3.54,49.13,49.13,0,0,1-6.47-6.51l-.54-.64M48.94,67.53l-.27,0-.24,0a.19.19,0,0,0,0-.07A12.85,12.85,0,0,0,51.54,67H51.2c-.44.05-.88.11-1.32.13-.92,0-1.84.09-2.76.1s-2,0-2.95,0a15.1,15.1,0,0,1-1.77-.26c-.11,0-.3-.07-.31-.12,0-.27-.24-.25-.4-.28a43.07,43.07,0,0,1-10.92-3.82,49.19,49.19,0,0,1-6.92-4.19l-.24-.15a.74.74,0,0,0,.26.29c1.22.82,2.43,1.65,3.65,2.45a38.71,38.71,0,0,0,5,2.82,39.32,39.32,0,0,0,12,3.44,26.43,26.43,0,0,0,4.45.16M23.48,61.27a71.35,71.35,0,0,1-11-10.21,45.05,45.05,0,0,0,11,10.21M63,61.83l-.18,0c-.65.43-1.32.83-1.94,1.29a19.61,19.61,0,0,1-4.16,2.35c-.61.25-1.23.46-1.85.69A14.75,14.75,0,0,0,63,61.83M2.78,30.94a4.73,4.73,0,0,0-.1.73,2.65,2.65,0,0,0,.09.62A37.18,37.18,0,0,0,6,41.57c0,.11.12.21.17.32l.08,0A43.33,43.33,0,0,1,2.78,30.94M31.9,66.12a10.38,10.38,0,0,0,2.51.89l.15,0c.4.14.81.26,1.21.41.24.08.46.18.72.29l-.19.1,1,.32c.1,0,.23.08.29,0s.35,0,.52,0,.6.13.9.19a57.23,57.23,0,0,1-7-2.62c0,.11,0,.19-.09.32m20,3.64c1.86,0,7.32-1.71,8.23-2.6-1.28.48-2.62,1-4,1.47s-2.82.76-4.23,1.13m3.95-4.91v0l.21,0,.91-.35a34.66,34.66,0,0,0,4.18-2c.14-.08.28-.19.42-.28a.21.21,0,0,1,0-.06L55.8,64.85M8.9,46.54l-.06.07a45.81,45.81,0,0,0,2.75,3.74,1.73,1.73,0,0,0-.42-1c-.44-.61-.88-1.22-1.33-1.82a3,3,0,0,0-.23-.27c-.14-.14-.3-.27-.44-.42a4.15,4.15,0,0,1-.27-.32M3.58,25.22C3,26.08,2.8,30,3.29,31.37a23,23,0,0,1,.29-6.15M41.74,69.29a20.14,20.14,0,0,0,3.11.35c1,0,2.06.06,3.1.09v0l-6.21-.4M55,69.82a15.82,15.82,0,0,0,4.33-1.58L55,69.82m6.15-3.72a.93.93,0,0,1,0,.1,8.86,8.86,0,0,0,1.53-.79l0-.07-1.55.76m-8.79-.24V65.8l-.89.14s0,0,0,.06l.89-.14M53,67l0,0,.65-.14s0,0,0,0ZM2.76,25.88h0c0,.14,0,.27,0,.4h0l0-.4M53.38,65.57s0,0,0,.05l.32-.09v0l-.34.08m-12,3.65s0,0,0,0l-.31,0h0l.29,0"/><path class="cls-3" d="M29,7.62a1.8,1.8,0,0,1,.26.3,4.16,4.16,0,0,1,.46,3,1.65,1.65,0,0,1-1,1.24.57.57,0,0,0-.15.12c-.19.17-.38.35-.59.56a3.18,3.18,0,0,0,.11.33A6.18,6.18,0,0,1,28.5,16c0,.34,0,.68,0,1,0,.56-.07,1.12-.08,1.67s0,1.3,0,1.95a25.06,25.06,0,0,0,1.08,7.94,23.65,23.65,0,0,0,1.26,3.14c.56,1.24,1.18,2.46,1.81,3.67A10.71,10.71,0,0,0,33.6,37c.76,1,1.53,1.9,2.36,2.8.64.68,1.36,1.27,2.06,1.9.3.27.62.52.93.79l0,.07c-.14-.07-.28-.12-.41-.2a13.71,13.71,0,0,1-3.17-2.56c-.81-.89-1.6-1.8-2.39-2.72a10.61,10.61,0,0,1-1.36-2.26c-.77-1.55-1.49-3.12-2.21-4.69a16,16,0,0,1-1.07-3.85c-.24-1.39-.41-2.8-.58-4.2-.13-1-.26-2-.34-3.05-.06-.66,0-1.33-.05-2A12.09,12.09,0,0,0,27,14a14.3,14.3,0,0,0-.61-1.41l-.4.1c-.29,0-.43,0-.53-.33a2.18,2.18,0,0,0-.17-.36,1.89,1.89,0,0,1,.35-.13,1.1,1.1,0,0,0,.63-.26c.16-.14.45-.14.62-.27.52-.39,1-.81,1.52-1.22.1-.08.17-.2.27-.28A1.27,1.27,0,0,0,29,8.43c0-.13-.09-.27-.11-.41a2.2,2.2,0,0,1,0-.36l.09,0"/><path class="cls-3" d="M60.54,58.2a6.34,6.34,0,0,1-1.25,1.23c-.45.38-.94.71-1.4,1.11l1.25-.36a.63.63,0,0,1-.38.4,13.17,13.17,0,0,1-1.39.59c-1.76.54-3.45,1.29-5.25,1.71a20.76,20.76,0,0,1-4.9.56A32.25,32.25,0,0,1,35.27,61a43.52,43.52,0,0,1-7.12-3.58A48.78,48.78,0,0,1,22,52.92a45.65,45.65,0,0,1-6.33-6.7,38.82,38.82,0,0,1-3.08-4.67,28.26,28.26,0,0,1-2.36-5.34c0-.16-.09-.32-.14-.48a.16.16,0,0,1,0-.14c.17.42.35.84.51,1.26a40.16,40.16,0,0,0,1.83,3.87,39.67,39.67,0,0,0,4.7,6.81,46,46,0,0,0,8.41,7.78,44.28,44.28,0,0,0,10.28,5.57,34,34,0,0,0,8.06,2,25.54,25.54,0,0,0,6,0,18.63,18.63,0,0,0,5.74-1.61A17.46,17.46,0,0,0,60,58.44c.14-.12.3-.23.45-.34l.09.1"/><path class="cls-3" d="M61.8,58a.29.29,0,0,1-.08.44c-.68.65-1.36,1.3-2.07,1.93-.36.33-.78.6-1.15.93l1.26-.42a.2.2,0,0,1,0,.08,5.4,5.4,0,0,1-.47.3,25.88,25.88,0,0,1-6,2.36,26.87,26.87,0,0,1-5,.73A27.79,27.79,0,0,1,42.87,64a39.27,39.27,0,0,1-12.14-4.16,48,48,0,0,1-9.11-6.23,47.24,47.24,0,0,1-6.52-6.89,37.41,37.41,0,0,1-3.31-5c-.47-.89-.89-1.8-1.34-2.71l.09,0c.15.29.31.57.46.87a42.64,42.64,0,0,0,5.57,8.33,45.86,45.86,0,0,0,6.69,6.45,49.94,49.94,0,0,0,5.24,3.64,43.46,43.46,0,0,0,9.23,4.21,34.35,34.35,0,0,0,5.57,1.29,24.72,24.72,0,0,0,8.45-.13,18.48,18.48,0,0,0,6-2.24,16.72,16.72,0,0,0,3.7-3c.1-.11.22-.2.36-.33"/><path class="cls-3" d="M9.93,30.77c0,.14.1.28.13.42a29.31,29.31,0,0,0,1.7,5.9,33.92,33.92,0,0,0,3,5.77,42.76,42.76,0,0,0,8.64,9.71,45.74,45.74,0,0,0,6.88,4.75,39.45,39.45,0,0,0,8.43,3.61,31.93,31.93,0,0,0,5.11,1,24.19,24.19,0,0,0,5.83.05,17.39,17.39,0,0,0,7-2.29c.63-.37,1.21-.81,1.81-1.22a.94.94,0,0,1,.34-.14c-.14.37-.49.54-.81.85l1-.19,0,.09a2.14,2.14,0,0,1-.4.2c-.4.12-.8.21-1.2.32a1.08,1.08,0,0,0-.24.12,17.52,17.52,0,0,1-4.22,1.87,19.91,19.91,0,0,1-4.52.78,28.33,28.33,0,0,1-9.81-1.25,41.22,41.22,0,0,1-9.81-4.42,46.75,46.75,0,0,1-7.34-5.56,43.79,43.79,0,0,1-5.1-5.62,37.71,37.71,0,0,1-3.5-5.51,29.54,29.54,0,0,1-2.74-7.6c-.1-.47-.16-1-.24-1.42a1.77,1.77,0,0,1,0-.23l.11,0"/><path class="cls-3" d="M11,32c0,.13.1.26.13.39a31,31,0,0,0,3.37,8.52,39,39,0,0,0,6,7.89,45.44,45.44,0,0,0,3.91,3.57A43.79,43.79,0,0,0,31.5,57a38.48,38.48,0,0,0,7.15,3,28.73,28.73,0,0,0,8.13,1.25,18.64,18.64,0,0,0,8.37-1.85c.47-.22.91-.51,1.36-.76a2.28,2.28,0,0,1,.38-.2s.13,0,.2,0,0,.15-.09.18a18.14,18.14,0,0,1-10.13,2.84,29.35,29.35,0,0,1-9.77-1.73,41.43,41.43,0,0,1-10.67-5.57,43.16,43.16,0,0,1-5.53-4.66A40.69,40.69,0,0,1,16.17,44a34.62,34.62,0,0,1-2.62-4.33,27.93,27.93,0,0,1-2.39-6.53c-.07-.31-.12-.63-.17-1A.45.45,0,0,1,11,32h0"/><path class="cls-3" d="M54.32,58.8a9.11,9.11,0,0,1-1.83.74,19.66,19.66,0,0,1-7.31.85,30.28,30.28,0,0,1-9.37-2.15A41,41,0,0,1,26,52.71a42.28,42.28,0,0,1-5.2-4.63,38.46,38.46,0,0,1-4.76-6,23.88,23.88,0,0,1-2.11-4,.37.37,0,0,1,0-.28l.44.82c.63,1.11,1.22,2.23,1.88,3.32a35.13,35.13,0,0,0,3.31,4.47,42,42,0,0,0,7.18,6.6,41.09,41.09,0,0,0,9.39,5.16A30.78,30.78,0,0,0,43,59.92a22,22,0,0,0,8.28-.31c.57-.14,1.12-.34,1.68-.51l1.33-.4s0,.07,0,.1"/><path class="cls-3" d="M47.67,57.64a3.5,3.5,0,0,1-.55.09c-1,0-2,0-3-.07a24.55,24.55,0,0,1-5.3-1,33.15,33.15,0,0,1-5.7-2.3,37,37,0,0,1-4.79-2.9,38.86,38.86,0,0,1-5.06-4.25A34.17,34.17,0,0,1,18,40.61a24,24,0,0,1-2-4l-.15-.39.07,0c.08.16.18.31.25.47a33.08,33.08,0,0,0,3.5,6A37.51,37.51,0,0,0,28.07,51a36.13,36.13,0,0,0,8.38,4.59,27.38,27.38,0,0,0,9.29,1.93l1.6,0h.32v.1"/><path class="cls-3" d="M48.57,58.74a18.41,18.41,0,0,1-7.17-.21,33.07,33.07,0,0,1-7.83-2.67,40.17,40.17,0,0,1-8.7-5.64,38.65,38.65,0,0,1-6.28-6.69,28.81,28.81,0,0,1-2.65-4.31,2.93,2.93,0,0,1-.23-.63c.12.2.24.4.35.6a37.89,37.89,0,0,0,7.1,9.17,40.67,40.67,0,0,0,7.13,5.47A35.3,35.3,0,0,0,40,58a24.79,24.79,0,0,0,5.42.78c1,0,2,0,3,0h.15"/><path class="cls-3" d="M44.69,56.5a27,27,0,0,1-11-3,36.91,36.91,0,0,1-8.73-6,33.77,33.77,0,0,1-5-5.74,21.75,21.75,0,0,1-1.77-3c-.08-.17-.15-.33-.22-.5l.08,0,.34.56a38.83,38.83,0,0,0,2.79,4.17,35.89,35.89,0,0,0,5.23,5.44,37.47,37.47,0,0,0,5.81,4,33.46,33.46,0,0,0,7.39,3.08,25.86,25.86,0,0,0,4.09.77l1.06.15a.29.29,0,0,1,0,.09"/><path class="cls-3" d="M5.75,14.62c.06-.18.1-.37.17-.54a10.25,10.25,0,0,1,1.23-2.25A15.28,15.28,0,0,1,9.33,9.25a4.81,4.81,0,0,1,1.38-.85,4.51,4.51,0,0,1,.95-.15l-.35.41L12,8.45l0,.06-.87.54a9.13,9.13,0,0,1,2.51-.52s0,.06,0,.09l-.51.14A8,8,0,0,0,11,9.44a4.83,4.83,0,0,0-1.33,1,6.52,6.52,0,0,1,2.53-1l0,.1L12,9.62A14.24,14.24,0,0,0,7.13,12.8a5.9,5.9,0,0,0-1.06,1.48,3.85,3.85,0,0,1-.23.38l-.09,0m3.18-3.78-.06-.05L8.71,11l.06,0,.16-.18"/><path class="cls-3" d="M20.13,39.63A36.61,36.61,0,0,0,35.8,53.08a.4.4,0,0,1-.11,0,.45.45,0,0,1-.11,0,29.82,29.82,0,0,1-6.23-3.44,35.45,35.45,0,0,1-4.48-3.73,30.38,30.38,0,0,1-4-4.77c-.3-.45-.57-.92-.85-1.38a.52.52,0,0,1,.11-.1"/><path class="cls-3" d="M21,7.83a4.81,4.81,0,0,1,1.69.4l.22-.45L20.8,6.52s0,0,0-.08a1.13,1.13,0,0,1,.26,0,3.8,3.8,0,0,1,1.49.74c.16.11.3.24.45.36.19-.1.16-.2,0-.3l-1.24-.93A1.65,1.65,0,0,1,21.47,6a1.37,1.37,0,0,1,.88.39c.26.19.5.4.76.59-.25-.46-.72-.7-1-1.12l.35.07-.09-.32A3.49,3.49,0,0,1,23.88,6.9c.31-.09.6-.18.91-.25s.36,0,.54,0a2.38,2.38,0,0,1,.56,0c-.05.06-.09.14-.15.17-.29.14-.59.26-.89.39s-.61.27-.91.43a1.65,1.65,0,0,0-.72.69.45.45,0,0,1-.55.25c-.55-.17-1.08-.37-1.62-.55,0,0,0,0-.09-.13"/><path class="cls-3" d="M30.18,6.69a1.23,1.23,0,0,1,.25.26,4.79,4.79,0,0,1,.72,2.7,3.15,3.15,0,0,1-.09.42c0,.19-.16.25-.35.2-.11.22-.16.45-.42.57-.1.05-.11.28-.16.42s-.17.44-.49.46c.07-.28.15-.53.21-.78a4.43,4.43,0,0,0-.06-2.08,6.57,6.57,0,0,0-.23-.79.91.91,0,0,1,.09-.94,4.12,4.12,0,0,1,1.07,2.46,1.48,1.48,0,0,0,0-.95c-.08-.32-.2-.64-.29-1a2.11,2.11,0,0,1-.22-1"/><path class="cls-3" d="M30.19,15c.08.52.18,1,.22,1.57.11,1.26.16,2.54.3,3.8.2,1.69.45,3.39.69,5.08.08.52.17,1,.26,1.56l-.07,0a2.11,2.11,0,0,1-.16-.34c-.17-.69-.36-1.38-.49-2.08a43.22,43.22,0,0,1-.66-5.2c-.08-1.12-.11-2.25-.16-3.38,0-.35,0-.69-.05-1Z"/><path class="cls-3" d="M30.44,12.71l.15.42a25.31,25.31,0,0,1,.78,4.31c.16,1.55.27,3.1.38,4.65a4.32,4.32,0,0,1-.1,1.06.58.58,0,0,1-.08-.22c-.11-1-.23-2-.3-3.05-.14-1.85-.39-3.68-.7-5.51-.08-.41-.14-.82-.2-1.23,0-.14,0-.28,0-.41l.09,0"/><path class="cls-3" d="M38.35,20c0,.62.06,1.25,0,1.87a22.17,22.17,0,0,0,1.55,8.48c.09.24.17.49.25.73a1.2,1.2,0,0,1,0,.14c-.13-.23-.24-.41-.33-.6a17.9,17.9,0,0,1-1.52-5.17,20.24,20.24,0,0,1-.16-4.73c0-.13,0-.26,0-.39s.06-.22.09-.33Z"/><path class="cls-3" d="M32.1,22.4c0-.39,0-.77-.05-1.15-.12-1.36-.24-2.71-.39-4.06s-.3-2.55-.44-3.82a.72.72,0,0,1,.07-.42,3.79,3.79,0,0,1,.14.48c.2,1.25.41,2.5.59,3.75.12.9.21,1.8.29,2.7q.07.86.09,1.71a2.82,2.82,0,0,1-.08.65c0,.07-.09.13-.13.2Z"/><path class="cls-3" d="M19.79,21.44a22.18,22.18,0,0,0-1.06,5.4,24.87,24.87,0,0,0,.3,5.45l-.1,0c0-.14-.1-.28-.14-.42a14.82,14.82,0,0,1-.43-4.2,21.17,21.17,0,0,1,.33-3.17,11.58,11.58,0,0,1,.9-2.72c.06-.12.13-.24.2-.36"/><path class="cls-3" d="M28.83,18.32c.06,1,.1,2,.18,2.95a33.67,33.67,0,0,0,1.14,7.05c.08.25.17.51.26.76l-.07.06a2.17,2.17,0,0,1-.24-.29,7.22,7.22,0,0,1-.29-.72,21.76,21.76,0,0,1-.91-4.72c-.11-1.23-.15-2.46-.19-3.69a13.26,13.26,0,0,1,.07-1.4h0"/><path class="cls-3" d="M7.49,20.5A2.55,2.55,0,0,1,8,19.27c-.32.1-.36.41-.66.57a6.86,6.86,0,0,1,.36-.72,11.74,11.74,0,0,1,2.49-2.9,5.45,5.45,0,0,1,.58-.4.56.56,0,0,1,.37-.05,7.91,7.91,0,0,1-1,1,11,11,0,0,0-1,1.07l.5-.37,0,0-2.14,3"/><path class="cls-3" d="M30.52,27.58a3.37,3.37,0,0,1-.23-.6c-.17-.92-.37-1.83-.48-2.76a38.9,38.9,0,0,1-.22-5.4,4,4,0,0,1,.06-.69c.22,1.56.2,3.14.36,4.71s.37,3.15.55,4.72l0,0"/><path class="cls-3" d="M32.89,20.85a1.92,1.92,0,0,1,0-.22,14.75,14.75,0,0,0-.27-3.32c-.23-1.42-.48-2.84-.71-4.26,0-.11,0-.23,0-.35l.1,0a2.82,2.82,0,0,1,.19.48c.2.9.42,1.79.57,2.7.17,1.08.31,2.18.42,3.27a7.77,7.77,0,0,1,0,1.36,1.46,1.46,0,0,1-.12.39l-.09,0"/><path class="cls-3" d="M31.2,30.11a19.5,19.5,0,0,0,1.66,4.13,21.7,21.7,0,0,0,2.58,3.58c-1.56-.52-4.49-5.88-4.24-7.71"/><path class="cls-3" d="M9.1,30.3c-.88-1.85.15-7.24,1.57-8.36A15.74,15.74,0,0,0,9.1,30.3"/><path class="cls-3" d="M63.65,45.54l.34,0a3.1,3.1,0,0,1,1.84.63c.12.1.24.25.44.18,0,0,.09,0,.13.07a2.91,2.91,0,0,1,1.16,1.74.41.41,0,0,1,0,.15,2,2,0,0,1-.13.25.63.63,0,0,1-.19-.17A3.58,3.58,0,0,0,66.1,47a7.6,7.6,0,0,0-2.16-1.23l-.3-.14a.22.22,0,0,0,0-.08"/><path class="cls-3" d="M34.67,11c0,.12,0,.25.09.37a21.2,21.2,0,0,1,1.09,5.28,5.29,5.29,0,0,1,0,.89,2.92,2.92,0,0,1-.13.42h-.09c0-.05,0-.11,0-.15a4.44,4.44,0,0,0-.08-1.74,25.42,25.42,0,0,0-1-4.32c-.19-.54-.42-1.06-.63-1.59a.59.59,0,0,1-.07-.31l.43.4Z"/><path class="cls-3" d="M17.31,26.55a5,5,0,0,1,0-1.22A11.24,11.24,0,0,1,18.74,21l.72-1.38.2-.29a.55.55,0,0,1,0,.57c-.2.4-.4.79-.61,1.18A13.32,13.32,0,0,0,17.7,24.8c-.08.38-.11.77-.17,1.16,0,.2-.06.4-.09.6h-.13"/><path class="cls-3" d="M35.21,36.3c-1.1-.66-3.67-5.14-3.41-6.63A2.12,2.12,0,0,1,32,30a24.07,24.07,0,0,0,2.92,5.74c.1.16.19.32.32.55"/><path class="cls-3" d="M39.44,30.78c-.08-.14-.17-.27-.24-.41a20.15,20.15,0,0,1-1.83-5.92,5.59,5.59,0,0,1,.05-1.91,2.58,2.58,0,0,1,.08.26,24.53,24.53,0,0,0,1.85,7.4c.07.18.12.36.18.54l-.09,0"/><path class="cls-3" d="M21.84,29.25a.7.7,0,0,1-.3-.65c0-.82-.06-1.64,0-2.45a10.32,10.32,0,0,1,1-3.84,2,2,0,0,1,.1-.21.21.21,0,0,1,.1-.08,15.71,15.71,0,0,0-.84,3.57c-.09,1.21-.07,2.42-.1,3.66"/><path class="cls-3" d="M33.6,20.43c0-.42-.05-.85-.11-1.27-.22-1.5-.46-3-.69-4.49a9.25,9.25,0,0,1-.2-1.79.7.7,0,0,1,.21.47c.24,1.21.5,2.41.69,3.63.15.91.21,1.85.3,2.78a.75.75,0,0,1-.2.67"/><path class="cls-3" d="M5.62,25.54a13.74,13.74,0,0,0-.57,6.73l-.08,0-.12-.23c-.07-.14,0-.36-.25-.39,0,0-.06-.14-.06-.21,0-1,0-2,.09-3a7.67,7.67,0,0,1,.56-2.3c.09-.22.22-.43.32-.64l.11.05"/><path class="cls-3" d="M29,36a23.85,23.85,0,0,0,4.39,5.62,1.07,1.07,0,0,1-.71-.33A10.74,10.74,0,0,1,31,39.57a14.86,14.86,0,0,1-1.87-3,4.45,4.45,0,0,1-.19-.51A.32.32,0,0,1,29,36"/><path class="cls-3" d="M35.41,42.45a8.19,8.19,0,0,1-.74-.53,25.19,25.19,0,0,1-1.79-1.79A21,21,0,0,1,30.51,37,7.13,7.13,0,0,1,30,36a33,33,0,0,0,5.45,6.4l-.06.1"/><path class="cls-3" d="M63.22,44.54a2.82,2.82,0,0,1-.25-.25,5,5,0,0,0-1.8-1.51,12.79,12.79,0,0,0-3.23-1.19,2.24,2.24,0,0,1-.37-.1V41.4a3.83,3.83,0,0,1,.47,0,8.28,8.28,0,0,1,4.88,2.42,1.05,1.05,0,0,1,.3.75"/><path class="cls-3" d="M34.67,11l-.39-.76c-.08-.19-.18-.39-.26-.59l.07-.06a1.64,1.64,0,0,1,.29.3c.36.64.75,1.28,1.06,1.95a13.42,13.42,0,0,1,1.14,3.66c0,.15,0,.3,0,.44l-.08,0c-.07-.21-.14-.41-.19-.62a22.27,22.27,0,0,0-1.52-4.08c0-.09-.1-.17-.15-.26"/><path class="cls-3" d="M16.07,17.6a1.17,1.17,0,0,1-.23.7c-.23.39-.47.77-.69,1.17a15.28,15.28,0,0,0-1.28,3.2,7.09,7.09,0,0,1-.38,1,2.4,2.4,0,0,1,.09-1.13,11.19,11.19,0,0,1,1.79-4c.13-.18.24-.37.37-.55l.33-.41"/><path class="cls-3" d="M20.44,27.65a13.06,13.06,0,0,1,1.82-6.46l.07,0c0,.16-.11.32-.16.48-.27.74-.6,1.47-.81,2.23s-.4,1.82-.59,2.73a1.88,1.88,0,0,1-.33,1"/><path class="cls-3" d="M33.41,10c.74.92,1.81,6,1.49,7.12A59.62,59.62,0,0,0,33.41,10"/><path class="cls-3" d="M36.56,13.7c-.24-.56-.45-1.14-.72-1.69a15,15,0,0,0-.93-1.66c-.34-.51-.74-1-1.08-1.49a.72.72,0,0,1,.56.29,7.5,7.5,0,0,1,1.38,1.92,7.38,7.38,0,0,1,.85,2.28,1.83,1.83,0,0,1,0,.33l-.08,0"/><path class="cls-3" d="M56.6,41.89a4,4,0,0,1,.49,0,9.25,9.25,0,0,1,3.42,1,7.72,7.72,0,0,1,1.18.81.3.3,0,0,1,.15.38,1,1,0,0,1-.17-.07,4.5,4.5,0,0,0-2-1.09c-.91-.3-1.84-.52-2.77-.78L56.59,42a.28.28,0,0,1,0-.09"/><path class="cls-3" d="M29.34,5.47c.25-.42.69-.51,1-.77-.17.06-.34.1-.5.17s-.34.18-.51.27l-.53.3c0-.2.08-.27.17-.34a3.77,3.77,0,0,1,1.77-.75c.53-.06,1.06-.06,1.59-.09,0,0,.07,0,.12,0,0,.19-.14.24-.26.3a1.8,1.8,0,0,1-.33.1,6.79,6.79,0,0,0-2,.62.85.85,0,0,1-.6.15"/><path class="cls-3" d="M42.54,38.07c-.82-.43-3.17-4.21-3.39-5.43.58,1,1.12,1.88,1.67,2.78s1.25,1.7,1.72,2.65"/><path class="cls-3" d="M15.46,14.81c.66-1.38,3.72-2.84,5.51-2.67a3.36,3.36,0,0,1-.36.17c-.21,0-.43.11-.65.14a6.39,6.39,0,0,0-3.18,1.42l-.87.65c-.15.11-.3.19-.45.29"/><path class="cls-3" d="M18.73,16a11.17,11.17,0,0,0-1.59,2.33c-.43.81-.65,1.73-1.13,2.52-.14-1.07,1.62-4.65,2.72-4.85"/><path class="cls-3" d="M63.82,65.55A16.61,16.61,0,0,0,68,61.32l.06,0c-.05.1-.08.21-.14.31a10.59,10.59,0,0,1-3.08,3.54,2.87,2.87,0,0,1-.49.31,3,3,0,0,1-.43.12l0-.09"/><path class="cls-3" d="M64.82,44.11l.15.44c0,.11.09.23-.07.3s-.08,0-.09-.07a5,5,0,0,0-1.88-2.07,18.79,18.79,0,0,0-1.67-1l-.43-.25a.79.79,0,0,1,.58,0,7.28,7.28,0,0,1,3,2c.1.12.21.23.32.34l.14.24"/><path class="cls-3" d="M11.48,10.67c-2.08.92-3.59,2.57-5.28,4,.09-.13.18-.26.28-.38a14.57,14.57,0,0,1,3.37-3A11.18,11.18,0,0,1,11,10.7a3,3,0,0,1,.43-.12.41.41,0,0,1,.05.09"/><path class="cls-3" d="M59.3,41.4c1.56-.12,4.6,2,4.94,3.47-.19-.26-.33-.49-.51-.69a9.43,9.43,0,0,0-2.68-2c-.43-.21-.87-.4-1.31-.6l-.44-.21"/><path class="cls-3" d="M68.25,59.75a2.29,2.29,0,0,1-.09.28A12.11,12.11,0,0,1,65,64.18a.7.7,0,0,1-.6.22s0-.08,0-.08a9.21,9.21,0,0,0,2.35-2.47c.4-.56.76-1.17,1.15-1.75.08-.13.17-.25.26-.38l.07,0"/><path class="cls-3" d="M20,25.87a2.14,2.14,0,0,1,0-1.15A14.35,14.35,0,0,1,21.1,21.6l.72-1.51a3.65,3.65,0,0,1,.19-.32,1.48,1.48,0,0,1-.19.75c-.35.89-.75,1.77-1.05,2.67s-.42,1.55-.62,2.33c0,.12-.07.23-.11.35"/><path class="cls-3" d="M29.86,39.8a3.6,3.6,0,0,1-.49-.46,15.68,15.68,0,0,1-2-4,.4.4,0,0,1,0-.26,3.45,3.45,0,0,1,.2.32c.43.83.84,1.67,1.28,2.49.31.57.66,1.11,1,1.67a1.11,1.11,0,0,1,.07.16l-.06.06"/><path class="cls-3" d="M36.36,11.22a1.59,1.59,0,0,1-.15-.21A7.43,7.43,0,0,0,34,8.3c-.16-.14-.33-.29-.48-.44a.89.89,0,0,1-.13-.24c1,.09,2.92,2.39,2.93,3.6"/><path class="cls-3" d="M9.12,23.66a2.42,2.42,0,0,1,.1-.36,13,13,0,0,1,2.29-4,4.87,4.87,0,0,1,.61-.59.92.92,0,0,1,.42-.16A15.32,15.32,0,0,0,9.21,23.7l-.09,0"/><path class="cls-3" d="M41.25,34.51l3.63,5.3a18.28,18.28,0,0,1-3.63-5.3"/><path class="cls-3" d="M68,58.94a6.77,6.77,0,0,1-2.79,4,.61.61,0,0,1,.08-.21,14,14,0,0,0,2.53-3.57,2.27,2.27,0,0,1,.18-.25"/><path class="cls-3" d="M17.22,20c.14-1.5,1.87-4.44,2.84-4.83a12.91,12.91,0,0,0-1.59,2.3c-.44.83-.84,1.69-1.25,2.53"/><path class="cls-3" d="M34.33,27.37A19.52,19.52,0,0,1,33,22.32a.55.55,0,0,1,.27.43c.22.81.43,1.62.65,2.44.14.53.3,1.07.45,1.6,0,.19.08.38.12.56l-.11,0"/><path class="cls-3" d="M64.82,44.11l-.14-.24a6.76,6.76,0,0,0-2.57-2.52.19.19,0,0,0,0-.08,1.18,1.18,0,0,1,.27,0,4,4,0,0,1,.68.36,6.3,6.3,0,0,1,2.11,2.6,1.14,1.14,0,0,1,.1.53c-.15-.23-.31-.45-.47-.67"/><path class="cls-3" d="M32.6,29.39a32.61,32.61,0,0,1,2.18,4.07c-.29-.12-.65-.63-1.29-1.86a9.54,9.54,0,0,1-.89-2.21"/><path class="cls-3" d="M68.89,58.13c.24-.79.53-1.56.73-2.36s.29-1.62.45-2.49c.4.91-.35,3.9-1.18,4.85"/><path class="cls-3" d="M54.83,42.36c1-.41,4.1.33,4.89,1.12-.33,0-.54-.21-.8-.28S58.4,43,58.14,43s-.55-.15-.83-.21-.56-.12-.84-.17-.53-.08-.8-.12l-.84-.1"/><path class="cls-3" d="M56.69,48.4a16,16,0,0,1-4.28.18,11.11,11.11,0,0,1,4.28-.18"/><path class="cls-3" d="M19,6a5.34,5.34,0,0,0-2.74-1,11.09,11.09,0,0,0-1.63,0A2.67,2.67,0,0,1,14,5c.2-.06.38-.14.58-.18a6.18,6.18,0,0,1,4,.6,1.28,1.28,0,0,1,.36.29c.05,0,.06.14.1.3"/><path class="cls-3" d="M16.29,25.39c-.41-.89.68-3.77,1.41-4.36-.3.74-.62,1.44-.85,2.16s-.38,1.47-.56,2.2"/><path class="cls-3" d="M67.71,58.35a6.23,6.23,0,0,1-1.93,3.38c0-.35.29-.58.43-.85s.34-.58.5-.87l.46-.86.46-.84.08,0"/><path class="cls-3" d="M14.2,14.46c.31-.26.61-.55.94-.8a9.92,9.92,0,0,1,2.34-1.3,3,3,0,0,1,.67-.19.69.69,0,0,1,.41.08l-.09,0a8.44,8.44,0,0,0-2.92,1.42l-1,.66-.31.19a.39.39,0,0,1-.08-.1"/><path class="cls-3" d="M6.06,28.39a34.22,34.22,0,0,0,.37,4.14c-.56-.46-.84-3.51-.37-4.14"/><path class="cls-3" d="M65.87,44.39c-.45-.24-.59-.74-.83-1.15a5.18,5.18,0,0,0-1.43-1.52c-.21-.17-.42-.33-.67-.51,1-.06,2.76,1.95,2.93,3.18"/><path class="cls-3" d="M62.51,46a1,1,0,0,1,.86-.08,4.12,4.12,0,0,1,2.25,1.7.55.55,0,0,1,0,.6,4.35,4.35,0,0,0-1.33-1.46A5.57,5.57,0,0,0,62.51,46"/><path class="cls-3" d="M26.58,29.06a2.42,2.42,0,0,1-.21-.47,7.61,7.61,0,0,1,0-3.08c0-.08.05-.15.07-.23a.3.3,0,0,1,.11-.12c.11.64,0,1.29,0,1.93s.09,1.29.13,1.93l-.11,0"/><path class="cls-3" d="M12.58,17.24c-1.22.94-2,2.28-3.13,3.31l-.09-.05a1.15,1.15,0,0,1,.14-.32,16.57,16.57,0,0,1,2.32-2.56,8.29,8.29,0,0,1,.68-.48l.08.1"/><path class="cls-3" d="M11.38,15c.36-1,2.9-2.79,3.91-2.74a23.18,23.18,0,0,0-2.06,1.21c-.65.45-1.22,1-1.85,1.53"/><path class="cls-3" d="M17.37,7a11.22,11.22,0,0,0-2.48-.49,6.46,6.46,0,0,0-2.43.24.74.74,0,0,1,.46-.3,4.41,4.41,0,0,1,1.65-.2,8.09,8.09,0,0,1,2.29.39.71.71,0,0,1,.51.36"/><path class="cls-3" d="M59.07,47.39a9.26,9.26,0,0,0-1.22-.34c-.74-.1-1.49-.15-2.24-.2s-1.24,0-1.87,0l-.5,0c.9-.5,5.1,0,5.83.6"/><path class="cls-3" d="M10.25,24.4C10,26,9.72,27.54,9.46,29.13c-.32-.7.27-4.07.79-4.73"/><path class="cls-3" d="M46.67,42.75a7.83,7.83,0,0,1-4-1.65,8.31,8.31,0,0,1,1.37.56l1.29.53a9,9,0,0,1,1.37.56"/><path class="cls-3" d="M7,32.33c.57,1.71,1.11,3.35,1.65,5l-.05,0a1.6,1.6,0,0,1-.19-.29A18.51,18.51,0,0,1,7,32.67c0-.09,0-.18,0-.34"/><path class="cls-3" d="M12.93,6a1.9,1.9,0,0,1,.87-.36,8.43,8.43,0,0,1,2.79,0,8.19,8.19,0,0,1,1.09.25c.29.08.29.11.46.37A9,9,0,0,0,12.93,6"/><path class="cls-3" d="M50.66,46a10.81,10.81,0,0,1-4.42.5,1.49,1.49,0,0,1,.26-.11l1.93-.19L50.28,46h.38"/><path class="cls-3" d="M69.54,53.25a5.26,5.26,0,0,1-.88,3.63c.29-1.19.58-2.38.88-3.63"/><path class="cls-3" d="M32.75,23.75c.53,1.56,1.06,3.09,1.58,4.61a.53.53,0,0,1,0,.16,13.67,13.67,0,0,1-1.56-4.77"/><path class="cls-3" d="M15.31,25.21a4.4,4.4,0,0,1-.05-.51,7.57,7.57,0,0,1,.94-3c0-.07.09-.12.19-.26a2.6,2.6,0,0,1,0,.28,12.47,12.47,0,0,0-.82,3.06,2.49,2.49,0,0,1-.09.37s0,0,0,.06h-.09"/><path class="cls-3" d="M21.28,15.71c-.38.47-.78.92-1.13,1.41s-.6,1-.91,1.55a.44.44,0,0,1,0-.49,4.29,4.29,0,0,1,.8-1.37,4,4,0,0,1,1.1-1.08l.13-.07,0,.05"/><path class="cls-3" d="M53.17,47.6a11,11,0,0,1,4.23.19l-4.24,0a.66.66,0,0,1,0-.14"/><path class="cls-3" d="M38.3,29.93A8.49,8.49,0,0,1,37,25.73s.08.05.09.07a28.27,28.27,0,0,0,1.2,4.13"/><path class="cls-3" d="M31.26,7.22c.06.22.11.45.19.66a2.79,2.79,0,0,1,.21,1.17c0,.15-.07.29-.11.46-.16-.57-.3-1.09-.46-1.61s-.47-1-.59-1.48l.09-.06.4.4h0l.26.41a.14.14,0,0,1,0,.06"/><path class="cls-3" d="M7.33,25A18.92,18.92,0,0,0,7,29.41c-.46-.84-.21-3.87.35-4.4"/><path class="cls-3" d="M12.37,30.61a4.94,4.94,0,0,1-.31-3.89c0,.69,0,1.33,0,2s.17,1.25.27,1.92"/><path class="cls-3" d="M19.27,5.41a7.29,7.29,0,0,0-4.4-1.13,1.21,1.21,0,0,1,.91-.23A5.56,5.56,0,0,1,17,4.26c.59.18,1.17.41,1.75.64a.82.82,0,0,1,.52.51"/><path class="cls-3" d="M29,4.15c-.29.18-.59.35-.88.54s-.4.31-.6.46a.27.27,0,0,0-.08-.07,2.7,2.7,0,0,1,.22-.33,6.13,6.13,0,0,1,1-.77c.56-.28,1.17-.48,1.75-.71a1.6,1.6,0,0,1,.23,0l.13.06-.28.13L29.24,4a1,1,0,0,0-.23.18Z"/><path class="cls-3" d="M22.79,9.85a.78.78,0,0,1,.09.21c.19.7.37,1.41.55,2.13a.81.81,0,0,1-.07.14c-.38-.2-.45-.59-.56-.92a2,2,0,0,1-.11-1.55h.1"/><path class="cls-3" d="M12,7.68c.54-.72,3.18-.9,4-.26a3,3,0,0,1-.42,0,6.71,6.71,0,0,0-2.28,0c-.3.05-.6.15-.9.22L12,7.68"/><path class="cls-3" d="M67.57,46.08c-.13-.67-.24-1.27-.36-2A2.38,2.38,0,0,1,68.32,46l-.09,0c-.14-.27-.28-.55-.43-.82a1.12,1.12,0,0,1-.23.9"/><path class="cls-3" d="M31.26,7.22a.14.14,0,0,0,0-.06L31,6.75h0l-.11-.53a1.48,1.48,0,0,1,.29.22,5.24,5.24,0,0,1,1,2c0,.23,0,.31-.16.51a7.13,7.13,0,0,0-.71-1.76"/><path class="cls-3" d="M25.35,16.72a4.93,4.93,0,0,1-.57,3.66c.13-.62.28-1.21.37-1.81s.13-1.19.2-1.85"/><path class="cls-3" d="M25.83,26.81a20.87,20.87,0,0,0,.08,2.13,17.4,17.4,0,0,0,.47,2c-.56-.61-1.1-3.18-.55-4.12"/><path class="cls-3" d="M12.88,14.54a7.15,7.15,0,0,1,3.74-2.4c-.65.36-1.3.68-1.91,1.07s-1.18.85-1.83,1.33"/><path class="cls-3" d="M8.25,21.87,6.62,25a5.23,5.23,0,0,1,1.63-3.14"/><path class="cls-3" d="M62.94,54.68a12.36,12.36,0,0,0,1.44-2.53c.14.27.13.4-.09.89-.48,1.1-.82,1.54-1.35,1.64"/><path class="cls-3" d="M13.32,35.45a5.81,5.81,0,0,1-1-3.45c.33,1.13.65,2.25,1,3.45"/><path class="cls-3" d="M13.09,28.36a21,21,0,0,0,.77,4.17,7.17,7.17,0,0,1-.77-4.17"/><path class="cls-3" d="M26.94,4.92c.1-.83,1.53-1.75,2.54-1.66-.31.14-.63.26-.93.42a7.57,7.57,0,0,0-.84.55c-.27.21-.51.46-.77.69"/><path class="cls-3" d="M16.3,3.58c.8-.44,3,.45,3.41,1.43-.19-.15-.38-.31-.58-.44a5.76,5.76,0,0,0-.63-.37,5.55,5.55,0,0,0-.71-.32,4.41,4.41,0,0,0-.71-.2c-.25-.05-.51-.07-.78-.1"/><path class="cls-3" d="M36,51.74l3,.84s.07.06.11.1A5.14,5.14,0,0,1,36,51.74"/><path class="cls-3" d="M68.19,55.9c.21-1,.4-2,.6-3a4,4,0,0,1-.6,3"/><path class="cls-3" d="M13.26,19.86c-.19.76-.5,1.41-.7,2.09a1.85,1.85,0,0,1-.2.34,3.14,3.14,0,0,1,.9-2.43"/><path class="cls-3" d="M58.14,46.38l-3.42-.47s0,0-.08-.12a7.55,7.55,0,0,1,3.5.59"/><path class="cls-3" d="M17.07,2.9a4.35,4.35,0,0,1,3,1.74l-.23-.13c-.66-.43-1.31-.87-2-1.29a4.84,4.84,0,0,0-.82-.32"/><path class="cls-3" d="M39.9,35.8a3.74,3.74,0,0,1-1.39-2.36A26.53,26.53,0,0,1,39.9,35.8"/><path class="cls-3" d="M31.24,5.87a2.47,2.47,0,0,1,1.2,2.06c-.27-.14-.3-.44-.44-.65s-.27-.47-.42-.7-.28-.44-.42-.66l.08,0"/><path class="cls-3" d="M69.61,50.89A5.05,5.05,0,0,1,69,49.76l-.66-1c.13-.14.26-.05.36,0a1.4,1.4,0,0,1,.37.44c.2.49.36,1,.53,1.49,0,0,0,.09,0,.21"/><path class="cls-3" d="M26.87,46.24l3.07,2.18a8.34,8.34,0,0,1-3.07-2.18"/><path class="cls-3" d="M32.42,25.26c.31,1,.6,1.93.85,3a5.56,5.56,0,0,1-.85-3"/><path class="cls-3" d="M58.25,56.88a7,7,0,0,1,2.34-1,4,4,0,0,1-2.34,1"/><path class="cls-3" d="M7.81,32.11a7.75,7.75,0,0,1-.38-3.52c.16,1.2.32,2.37.48,3.54l-.1,0"/><path class="cls-3" d="M65.18,52.38A5.68,5.68,0,0,1,64,55.51a.4.4,0,0,1,0-.11,17.11,17.11,0,0,0,1.17-3l.06,0"/><path class="cls-3" d="M43.83,47.64l3.51.28a7,7,0,0,1-3.51-.28"/><path class="cls-3" d="M11,17.12,9,19.55l-.09-.06a2.48,2.48,0,0,1,.57-.87,7.8,7.8,0,0,1,.68-.84c.25-.26.53-.49.79-.74l.07.08"/><path class="cls-3" d="M45.17,54.94a5.55,5.55,0,0,1-3-.14l3,.06Z"/><path class="cls-3" d="M53.59,43.06a5.94,5.94,0,0,1,3.13.25v.08Z"/><path class="cls-3" d="M28.24,3.09a6.23,6.23,0,0,0-2.14,1.5,2.22,2.22,0,0,1,2.14-1.5"/><path class="cls-3" d="M9,16.84a2.63,2.63,0,0,1,1-1.26c.15-.12.3-.29.55-.19A6.71,6.71,0,0,1,9,16.84"/><path class="cls-3" d="M27.11,22.74A24.83,24.83,0,0,1,27,26.08a7.68,7.68,0,0,1,.07-3.34"/><path class="cls-3" d="M7.64,33.24c.33.88.63,1.77.89,2.68a4.68,4.68,0,0,1-.89-2.68"/><path class="cls-3" d="M11.73,13a7.19,7.19,0,0,1,2.7-1.73s0,.05,0,.05A20.32,20.32,0,0,0,11.94,13a.88.88,0,0,1-.15.05L11.73,13"/><path class="cls-3" d="M20.08,15.94l-1.55,2.8a5.45,5.45,0,0,1,1.55-2.8"/><path class="cls-3" d="M38.34,17.79c-.09-1.16-.19-2.32-.28-3.48a7.2,7.2,0,0,1,.28,3.48"/><path class="cls-3" d="M58.93,44.29a2.6,2.6,0,0,1,1.15,1.43.34.34,0,0,1-.12.42c-.16-.31-.3-.64-.49-.94a8.24,8.24,0,0,0-.63-.83l.09-.08"/><path class="cls-3" d="M22.78,12a1.27,1.27,0,0,1-.47-1.76c.16.59.3,1.14.47,1.76"/><path class="cls-3" d="M27,2.85c-.59.38-1,1-1.63,1.4A2.13,2.13,0,0,1,27,2.85"/><path class="cls-3" d="M66.37,43.54A3.16,3.16,0,0,1,67,45.72a7.48,7.48,0,0,1-.61-2.18"/><path class="cls-3" d="M8.32,27.33l0,3.18a6.23,6.23,0,0,1,0-3.18"/><path class="cls-3" d="M49.13,55.53a2.85,2.85,0,0,1-2.08.18,12.94,12.94,0,0,1,1.75-.25c.09,0,.19,0,.33.07"/><path class="cls-3" d="M62.55,46.32A1.59,1.59,0,0,1,64,47.39c-.34-.12-.52-.4-.77-.54s-.5-.3-.75-.45a.59.59,0,0,0,0-.08"/><path class="cls-3" d="M24.53,11.82a9.69,9.69,0,0,0,2-1c-.42.65-1.5,1.19-2,1"/><path class="cls-3" d="M14,19.85,13,22.3c0-.1,0-.18,0-.25a4.27,4.27,0,0,1,1-2.2"/><path class="cls-3" d="M67.85,52.21a2.1,2.1,0,0,1,.14.39,3.2,3.2,0,0,1-.28,1.54,4.34,4.34,0,0,1,.14-1.93"/><path class="cls-3" d="M46,47.15a17.45,17.45,0,0,1,2.4-.08,4.91,4.91,0,0,1-2.4.08"/><path class="cls-3" d="M26,17.07a3.22,3.22,0,0,1-.1,2.14V17.07H26"/><path class="cls-3" d="M26.53,10.21a2.92,2.92,0,0,1-1,1,.44.44,0,0,1-.54,0l1.52-1"/><path class="cls-3" d="M37.83,16.39a3.25,3.25,0,0,1,0,2.09c0-.22,0-.43,0-.65s0-.46,0-.69,0-.46,0-.75"/><path class="cls-3" d="M22.45,3.58A1.13,1.13,0,0,1,23,2.33a2,2,0,0,1-.57,1.25"/><path class="cls-3" d="M37.27,17.91c0,.69-.06,1.3-.09,1.9a2.52,2.52,0,0,1,.09-1.9"/><path class="cls-3" d="M44.22,40.83l1.91,1a3.14,3.14,0,0,1-1.91-1"/><path class="cls-3" d="M7.78,21.1c-.32.55-.65,1.09-1,1.63l-.09-.05a3.86,3.86,0,0,1,1-1.63l.1.05"/><path class="cls-3" d="M53.51,56.69a3.07,3.07,0,0,1-1.77.46,7.69,7.69,0,0,1,1.77-.46"/><path class="cls-3" d="M62.13,53.41a3.65,3.65,0,0,1,1-1.15,1.33,1.33,0,0,1-1,1.15"/><path class="cls-3" d="M29,4.16,29.55,4a1,1,0,0,1,.42,0c-.3.16-.6.3-.89.47s-.52.37-.78.56l-.07,0a3.44,3.44,0,0,1,.3-.35c.15-.15.33-.28.49-.42Z"/><path class="cls-3" d="M69.35,49.28l-.91-1.16a.26.26,0,0,1,.37,0,1.62,1.62,0,0,1,.54,1.12"/><path class="cls-3" d="M34.15,23.47c.14.64.27,1.27.41,1.91l-.08,0a4.56,4.56,0,0,1-.43-1.92h.1"/><path class="cls-3" d="M59.34,43.83A1.92,1.92,0,0,1,60.45,45c-.4-.36-.79-.73-1.18-1.1a.46.46,0,0,1,.07-.07"/><path class="cls-3" d="M62.58,47.07l-1.1-.47c.45-.27.85-.11,1.1.47"/><path class="cls-3" d="M44.29,53.66a4.24,4.24,0,0,1,1.63-.08,2.19,2.19,0,0,1-1.63.08"/><path class="cls-3" d="M23.61,3.52a1.94,1.94,0,0,1,.61-1.2,2.91,2.91,0,0,1-.61,1.2"/><path class="cls-3" d="M11.08,27.05c0-.46,0-.92,0-1.45a2.24,2.24,0,0,1,0,1.45"/><path class="cls-3" d="M9,15.89a.77.77,0,0,1,.63-.55,1.15,1.15,0,0,1-.63.55"/><path class="cls-3" d="M61.59,56.52a1.18,1.18,0,0,1-.7.5.18.18,0,0,1,0-.07l.69-.5.06.07"/><path class="cls-3" d="M68.31,47.35c.36.16.38.18.57.57-.23-.17-.45-.27-.57-.57"/><path class="cls-3" d="M26.5,16.15v.3h0c0-.1,0-.2,0-.3h0"/></g></g></g></g></svg>