<svg xmlns="http://www.w3.org/2000/svg" viewBox="0 0 63.07 61.43"><defs><style>.cls-1{isolation:isolate;}.cls-2{mix-blend-mode:multiply;}.cls-3{fill:#6f7fb5;}</style></defs><title>nut-1</title><g class="cls-1"><g id="Calque_2" data-name="Calque 2"><g id="contenu"><g class="cls-2"><path class="cls-3" d="M59.88,38.72A47.08,47.08,0,0,1,57,44.26a38.79,38.79,0,0,1-2.57,3.53,25.57,25.57,0,0,1-6,5.49c-.92.64-1.82,1.33-2.74,2a32,32,0,0,1-5.4,3c-1,.45-2,.92-2.95,1.35a24.41,24.41,0,0,1-4.42,1.32c-.42.09-.83.19-1.25.26a17.35,17.35,0,0,1-5.43.05A45,45,0,0,1,20.62,60a37.78,37.78,0,0,1-3.55-1.31c-1.23-.51-2.44-1.08-3.64-1.65A32.68,32.68,0,0,1,9.35,54.4a28.27,28.27,0,0,1-4.74-4.6A25.45,25.45,0,0,1,2.5,47.07a14.21,14.21,0,0,1-1.23-2.35A14.9,14.9,0,0,1,.07,40.2a11.56,11.56,0,0,1,.45-4.82,6.16,6.16,0,0,1,1.21-2.1,8.09,8.09,0,0,1,2.51-1.76,15.09,15.09,0,0,1,6-1.66,14.44,14.44,0,0,1,3.53.29,25.84,25.84,0,0,1,4.41,1.35c1.33.49,2.61,1.1,4,1.5a13.73,13.73,0,0,0,6,.39,2.25,2.25,0,0,0,1.23-.59,9.2,9.2,0,0,0,2.09-3.13,21.93,21.93,0,0,0,.88-3.07c.26-1,.46-2.05.69-3.08a2.2,2.2,0,0,0,0-.44,18.37,18.37,0,0,0-.07-3.23c-.2-1.18-.38-2.37-.62-3.55a14.25,14.25,0,0,1-.22-3.91,9.59,9.59,0,0,1,1.2-4.12c.53-.92,1.19-1.77,1.81-2.64.23-.33.53-.62.8-.94a12.85,12.85,0,0,1,2-1.65c.44-.33.92-.62,1.4-.91A13.6,13.6,0,0,1,43.22.67a9.28,9.28,0,0,1,4.32,0A.54.54,0,0,0,48,.62,4.56,4.56,0,0,1,50.58,0a5.88,5.88,0,0,1,3.1,1.13,22.75,22.75,0,0,1,3.21,2.51,10.33,10.33,0,0,1,1.89,2.47,36.56,36.56,0,0,1,2.72,6.06,26.58,26.58,0,0,1,1.06,4.57A31.7,31.7,0,0,1,63,24.28c-.1,1.36-.15,2.73-.31,4.09-.13,1.12-.37,2.23-.61,3.33s-.5,1.95-.75,2.92a35.88,35.88,0,0,1-1.45,4.1m-.27-21.47a2.73,2.73,0,0,0-.06-.5c-.29-1-.56-2.06-.89-3.07-.22-.69-.51-1.36-.76-2l0,0,.31.45a1.37,1.37,0,0,0-.14-.46c-.35-.73-.69-1.47-1.05-2.19-.17-.36-.39-.69-.59-1a1.15,1.15,0,0,0-.23-.21l-.07.06.09.18c.39.8.83,1.59,1.18,2.41a25.9,25.9,0,0,1,1.22,4,43.25,43.25,0,0,1,1,5.16s0,0,.07.07c0-.3,0-.58,0-.85a1.11,1.11,0,0,1,.13-.27,2.87,2.87,0,0,0-.07-.87,7.23,7.23,0,0,0-.21-.8ZM39,54.93a2.2,2.2,0,0,0-.37.06l-3,1-.19.09A13.51,13.51,0,0,0,39,54.92l.29-.07,0,0-.4.4a33.26,33.26,0,0,0,13.12-9.95c-.27.22-.52.47-.77.71-1,.95-2,1.9-3.09,2.83a34.18,34.18,0,0,1-4,3.16,32.17,32.17,0,0,1-4.85,2.66,2.1,2.1,0,0,0-.3.22m-3-.51.68-.18a1,1,0,0,1,0-.1l-.64.29h-.17l-2.3.56a22.8,22.8,0,0,1-3.5.45,21.74,21.74,0,0,1-4-.14c-.39,0-.77-.14-1.16-.22a7.58,7.58,0,0,1,1.17.05A24.74,24.74,0,0,0,31.82,55a26.34,26.34,0,0,0,5.91-1.52,29.78,29.78,0,0,0,8.13-4.76,34.09,34.09,0,0,0,7.31-8.3,34.52,34.52,0,0,0,4-8.94,30,30,0,0,0,1.17-9.14,1.07,1.07,0,0,0-.18-.75.71.71,0,0,1-.09-.34c-.28-1.57-.55-3.13-.82-4.7,0-.12,0-.25,0-.38h.06l.21.36a25.42,25.42,0,0,0-2.9-7.21c-.16.15-.26.09-.35-.06s-.3-.5-.45-.75-.27-.46-.41-.68a7.87,7.87,0,0,1,.24.85,1.16,1.16,0,0,0,.27.63,10.73,10.73,0,0,1,1,1.53c.56,1.2,1.08,2.44,1.55,3.68a22.47,22.47,0,0,1,1.2,5,28.09,28.09,0,0,1-.07,7.77,31.62,31.62,0,0,1-2.73,9.06c-.22.49-.44,1-.65,1.47-.28.68-.54,1.37-.83,2.06a2.22,2.22,0,0,1-.23.39l-.06,0c.15-.39.29-.78.44-1.16l-.07,0a36,36,0,0,1-3.83,5.35s-.09.09-.08.11c.12.27-.11.4-.23.55a4.71,4.71,0,0,1-.58.6c-.93.8-1.87,1.59-2.81,2.37a31,31,0,0,1-4.11,2.89l-1.15.66,0,.06L42.13,51l0,.07a11.69,11.69,0,0,1-1.37.87c-1.22.59-2.47,1.13-3.72,1.66a11.14,11.14,0,0,1-2.73.74,3.54,3.54,0,0,1-.46,0,23.76,23.76,0,0,0,4.23-1.55c-.71.21-1.39.46-2.09.67s-1.41.39-2.12.55a9.12,9.12,0,0,1-2.15.28,1.13,1.13,0,0,1,.24-.08l.28-.06a27.77,27.77,0,0,0,9-3.27A31.76,31.76,0,0,0,47.6,46a33.88,33.88,0,0,0,5.85-7.67,9.17,9.17,0,0,0,1.06-2.47,6.7,6.7,0,0,1,.24-.76l.07,0,.07.22a1.51,1.51,0,0,0,.13-.25c.29-.72.59-1.43.85-2.17a28,28,0,0,0,1.24-4.78,18.84,18.84,0,0,0,.29-6.22c-.18-1-.32-2.06-.49-3.09a1,1,0,0,0-.07-.25.76.76,0,0,0,0,.33,25.89,25.89,0,0,1,.31,5A29.56,29.56,0,0,1,55.73,32a33,33,0,0,1-3.95,8.25A31.11,31.11,0,0,1,45.92,47a26.54,26.54,0,0,1-8.49,5.17c-.69.24-1.38.47-2.07.68-.32.1-.66.15-1,.22a1.53,1.53,0,0,1,.46-.23,27.42,27.42,0,0,0,6.65-2.93,30,30,0,0,0,7.69-6.55,32.9,32.9,0,0,0,4.64-7.12,31.13,31.13,0,0,0,2.74-8.68,27.76,27.76,0,0,0,.14-7.83.7.7,0,0,1,0-.14l-.12,0c0,.34,0,.68,0,1h-.1c0-.11-.09-.22-.11-.33-.08-.67-.15-1.35-.21-2a.72.72,0,0,1,0-.39.83.83,0,0,0,0-.69l-.18-.71a27.75,27.75,0,0,0-3.41-7.69c0-.08-.14-.17-.13-.24a1.19,1.19,0,0,0-.26-.71c-.22-.44-.47-.87-.7-1.31a3.52,3.52,0,0,1-.18-.45,4.66,4.66,0,0,1,1.16,1.67c.12.26.35.51.2.85,0,0,0,.1.08.15.51.88,1.07,1.73,1.54,2.63a22.74,22.74,0,0,1,1.85,4.78c.07.26.08.54.37.71.09,0,.12.2.17.31s.11.25.18.4a.54.54,0,0,0,0-.08,12.92,12.92,0,0,0-1.33-4,4.22,4.22,0,0,1-.37-.87A19.29,19.29,0,0,0,54,9.8c-.5-.87-1-1.76-1.45-2.64-.05-.11-.09-.23-.14-.34l.08-.05.41.39a6.66,6.66,0,0,0-.56-1c-.22-.32-.51-.59-.73-1,.1,0,.15,0,.16,0A25.58,25.58,0,0,1,55,9.58a2.1,2.1,0,0,0-.18-.46,4,4,0,0,1-.37-.75,2.66,2.66,0,0,0-.51-1c-.23-.33-.48-.65-.71-1l-.18-.26.07,0,.64.57c0-.07,0-.12,0-.23A6.63,6.63,0,0,1,55.57,8.4c.5.69.94,1.44,1.44,2.22a11.56,11.56,0,0,0-1.18-2.33,15.31,15.31,0,0,1-1-1.43,3.73,3.73,0,0,0-.92-1.05c-.14-.12-.27-.25-.4-.38a1.29,1.29,0,0,1-.16-.17l.12-.08a2.06,2.06,0,0,1,.48.21,14.11,14.11,0,0,1,1.36,1.09,8.47,8.47,0,0,1,2.08,3,2.19,2.19,0,0,0,.74,1,1,1,0,0,0-.08-.3A12.4,12.4,0,0,0,55.25,6c-.58-.57-1.13-1.17-1.68-1.76A1.57,1.57,0,0,1,53.38,4a.38.38,0,0,1,.28.06c.26.17.51.33.75.52a13.83,13.83,0,0,1,3.84,4.92c.58,1.29,1.06,2.62,1.65,3.91A25.88,25.88,0,0,1,61.05,17a8.91,8.91,0,0,1,.19,1.26,35.3,35.3,0,0,1,.33,7.48c0,.22,0,.43,0,.65s0,.41,0,.68c0-.09.07-.11.07-.13A29.25,29.25,0,0,0,62,19.27a25.59,25.59,0,0,0-1.09-5.48c-.4-1.16-.78-2.33-1.14-3.5A9.5,9.5,0,0,0,59,8.52a19.67,19.67,0,0,0-3.55-4.9,11.54,11.54,0,0,0-3.06-2.18,4.23,4.23,0,0,0-3-.2c-.67.2-1.32.46-2,.7L47,2c.07-.33.07-.33.62-.71l-.24,0c-.67,0-1.33.09-2,.09A10.25,10.25,0,0,0,40.16,3a20,20,0,0,0-4.7,3.81,8.66,8.66,0,0,0-2,3.71,9.74,9.74,0,0,0-.17,3.14c.1,1.52.2,3,.4,4.53a17.45,17.45,0,0,1,.06,3.23,31.4,31.4,0,0,1-.6,4.1c-.16.92-.44,1.81-.62,2.73a9.2,9.2,0,0,1-1.48,3.53,8.7,8.7,0,0,1-1.39,1.58,4.24,4.24,0,0,1-1.92.92l-.19.07,0,.09a14.41,14.41,0,0,0,1.6-.26,22.45,22.45,0,0,0,5-2.05l.32-.16,0,.07a18,18,0,0,1-4.12,2.1,12.07,12.07,0,0,0,4.14-1.84c-.07.21-.07.41-.16.49a5.21,5.21,0,0,1-.86.62c-.38.23-.78.42-1.17.65a6.31,6.31,0,0,1-2.22.77,14.06,14.06,0,0,1-2.75.23,17.91,17.91,0,0,1-3.93-.41A5.32,5.32,0,0,1,22,34.05l.2,0A20.83,20.83,0,0,1,19.26,33a12.75,12.75,0,0,0-2.12-.77c-1.31-.4-2.62-.79-3.94-1.16a9.6,9.6,0,0,0-4.58-.22l-3.13.68A5.74,5.74,0,0,0,3.2,32.62a6,6,0,0,0-2.34,4A14,14,0,0,0,2.4,45a23.53,23.53,0,0,0,4.93,6.26,28.1,28.1,0,0,0,6.27,4.45,34.2,34.2,0,0,0,3.82,1.7c1,.38,2,.83,3.06,1.17,1.46.46,2.94.84,4.41,1.26a10.93,10.93,0,0,0,3.16.41,26.28,26.28,0,0,0,4.85-.44,22.16,22.16,0,0,0,4.74-1.5c1.57-.68,3.12-1.43,4.64-2.2A36.12,36.12,0,0,0,48,52.46,29.83,29.83,0,0,0,52.9,48a37.31,37.31,0,0,0,4.17-5.81,33.28,33.28,0,0,0,1.6-3.29,20.54,20.54,0,0,0,.69-2c.4-1.36.77-2.73,1.15-4.1.08-.31.15-.63.21-1s.09-.63.13-.94a.54.54,0,0,0-.12.24c-.39,1.32-.76,2.66-1.19,4-.3.93-.7,1.84-1,2.77a14.23,14.23,0,0,1-1.64,3.43c-.35.51-.75,1-1.11,1.48s-.51.82-.77,1.23a35.37,35.37,0,0,1-8.5,8.8A35.9,35.9,0,0,1,41,56.17a44.77,44.77,0,0,1-7.51,2.76c-.44.12-.9.17-1.36.25a.6.6,0,0,1-.55-.16l.64-.11.56-.12,0-.07a26.69,26.69,0,0,1-9.09-.19,25,25,0,0,1-8.41-3.32,32.42,32.42,0,0,0,9.38,3.09c.05-.24-.09-.25-.24-.29L23,57.67a.44.44,0,0,1,0-.1,30.25,30.25,0,0,0,4.14.42c-.33-.18-.77-.08-1-.43a14.32,14.32,0,0,0,3.64.1l-2.13-.06c1.17-.1,2.34-.16,3.51-.24a13.53,13.53,0,0,0,3.37-.63c-1,.11-2,.23-3,.33a29.82,29.82,0,0,1-4.43-.14,24,24,0,0,1-7.37-1.61,34.19,34.19,0,0,1-3.79-1.76c-.9-.47-1.79-1-2.65-1.51a9.87,9.87,0,0,1-1.17-1,1.45,1.45,0,0,1-.14-.28h.13a2.61,2.61,0,0,1,.28.17,30.68,30.68,0,0,0,6.87,3.56l1,.37c.08,0,.22.1.21.12-.07.3.19.27.33.32.34.12.69.22,1,.32a25.44,25.44,0,0,0,5.48.93,25,25,0,0,0,4.65-.17l1-.17a.91.91,0,0,0-.4,0c-.73,0-1.45.06-2.18.06a2.83,2.83,0,0,1-.74-.17c-.06,0-.1-.1-.17-.17l.12,0a.55.55,0,0,1,.18,0,4.69,4.69,0,0,0,2-.16l.18-.06c-.26-.11-.56,0-.81-.25.33,0,.59,0,.85,0a16.6,16.6,0,0,0,3.92-.94,1.1,1.1,0,0,0,.14-.09m12.34-7.55A13.11,13.11,0,0,0,51,44.51c.67-.86,1.35-1.72,2-2.62S54.13,40,54.68,39c.31-.55.5-1.18.76-1.77,0-.1.1-.27.18-.29s.23-.21.29-.34c.47-1.17,1-2.33,1.37-3.52a30.66,30.66,0,0,0,1.61-8.49,27.89,27.89,0,0,0-.49-6.88,27.09,27.09,0,0,0-2.7-7.54l-.37-.64c0,.31-.09.52.05.76a11.1,11.1,0,0,1,.76,1.45,27.83,27.83,0,0,1,2.21,7.63,28.85,28.85,0,0,1-.07,8.09c-.09.6-.18,1.2-.26,1.8s-.11,1.08-.2,1.62a8.31,8.31,0,0,1-.26.93l-.16-.19a35.65,35.65,0,0,1-9,15.25M58.31,31h-.09c0,.12-.08.23-.11.35a33.69,33.69,0,0,1-1.75,5c-.57,1.26-1.18,2.5-1.79,3.74-.25.51-.55,1-.83,1.49-.08.14-.18.33-.29.36s-.31.21-.41.36a35,35,0,0,1-2.83,3.6,37,37,0,0,1-3.9,3.71,31.17,31.17,0,0,1-5.75,3.74c-.24.11-.6.13-.62.52,0,.06-.12.12-.2.16l-.7.38-.21.13a.43.43,0,0,0,0,.07l.25-.13a46.17,46.17,0,0,0,5-2.91,34.32,34.32,0,0,0,6.3-5.3,37.53,37.53,0,0,0,6.23-9.57A18.06,18.06,0,0,0,58,33c.14-.67.24-1.35.36-2M56.1,10.08l.08,0a7.71,7.71,0,0,1,.53.93c.3.72.57,1.47.86,2.2a22.76,22.76,0,0,1,.76,3,29.51,29.51,0,0,1,.56,11.27,10.65,10.65,0,0,0-.21,2.38c0,.22,0,.44,0,.72,0-.08.06-.1.06-.12a30.53,30.53,0,0,0,.86-8.41,27.29,27.29,0,0,0-1-6.28,28.57,28.57,0,0,0-2.46-6.13c0-.07-.08-.17-.12-.17-.28,0-.28-.26-.38-.43a8.35,8.35,0,0,0-.47-.74c-.32-.4-.66-.79-1-1.18l0,0,2,3.2c0-.1,0-.19,0-.27m3,20.14,0,.07a34.82,34.82,0,0,1-3,8.28,6.78,6.78,0,0,0-.33.85,6.52,6.52,0,0,1-1.34,2.31,10.33,10.33,0,0,0-.84,1l-1.16,1.58-.49.65c.1,0,.13,0,.14-.06A20,20,0,0,0,54.53,42a38.56,38.56,0,0,0,3.77-7.65,15.63,15.63,0,0,0,.8-4.15m1.7-8.11a2.1,2.1,0,0,0-.26.95,30.35,30.35,0,0,1-.38,5.22A37.46,37.46,0,0,1,59,33.1c-.23.79-.41,1.59-.61,2.38a22.18,22.18,0,0,0,1.42-4.39c.18-1,.31-2.06.47-3.09a4.31,4.31,0,0,1,.11-.49,2.28,2.28,0,0,0,.18-.54c.08-1.13.16-2.27.21-3.41,0-.45,0-.91,0-1.45m-1.32,7.82h.07a30.13,30.13,0,0,0,.62-8.58,5.34,5.34,0,0,0-.09.53c0,.11,0,.25-.08.31s-.13.37-.14.58c0,1-.07,2.08-.11,3.12,0,.44-.09.89-.12,1.33l-.12,2.36,0,.34m-8,16.68.09.07c.58-.65,1.2-1.26,1.74-1.94a32.58,32.58,0,0,0,3.77-6.05,9.64,9.64,0,0,0,.82-2.33,1.34,1.34,0,0,0-.15.29c-.46.94-.91,1.88-1.36,2.82-.15.3-.3.61-.44.92s-.36.82-.6,1.2-.5.58-.73.89c-.84,1.11-1.67,2.23-2.5,3.35-.21.27-.43.52-.64.78m-3.71,1.3,0-.07a39.24,39.24,0,0,1-4.86,3.41,44.41,44.41,0,0,1-5.3,2.65,5.6,5.6,0,0,0,.66-.21l2.86-1.16a8.31,8.31,0,0,0,.87-.35,29,29,0,0,0,4.17-2.85c.57-.46,1.1-.94,1.65-1.42m11-12a38.11,38.11,0,0,1-4.58,8.41,38.86,38.86,0,0,1-6.51,7s.07,0,.09,0L48,51a34.11,34.11,0,0,0,5.16-5.31,34.93,34.93,0,0,0,3.6-5.42,20,20,0,0,0,1.95-4.44m1.75-14.93a22.27,22.27,0,0,0-.28-3.74,29.4,29.4,0,0,0-1-3.41,12.63,12.63,0,0,0,.29,1.74,28.88,28.88,0,0,1,.8,4c.06.46.11.93.17,1.39M48.75,49.68c-1.07.82-2.13,1.68-3.24,2.47s-2.26,1.54-3.44,2.33c1.44-.58,6.15-4,6.68-4.8M34.69,57.82c1.51-.09,6.86-2.16,7.48-2.88a32.79,32.79,0,0,1-7.48,2.88M59.94,14.51a41,41,0,0,1,1.18,6.79,21.44,21.44,0,0,0-1.18-6.79M35.21,57s0,.08,0,.12a16.74,16.74,0,0,0,3.58-1.4,1,1,0,0,0-.34.08c-.73.25-1.47.49-2.2.75-.36.13-.72.3-1.08.45m25-25.39a24.07,24.07,0,0,0,.91-5.46c-.3,1.82-.61,3.64-.91,5.46M29.69,58.46a31.93,31.93,0,0,1-4.88-.33,15.39,15.39,0,0,0,4.88.33M61.3,23.23h-.12c0,.78,0,1.57-.08,2.36a8.5,8.5,0,0,0,.2-2.35M35.57,55.57s0,0,0,.07l1-.28a.14.14,0,0,0,0-.07l-1,.28m3.36-3.14a.14.14,0,0,1,0-.06l-.55.25a.17.17,0,0,1,0,.05l.55-.24"/><path class="cls-3" d="M52.38,10.93a15.22,15.22,0,0,1,1.11,2l.06,0L51.69,7.7l.07,0A3.55,3.55,0,0,1,52,8.1c.55,1.45,1.32,2.8,2,4.2A24,24,0,0,1,56.33,21a27.66,27.66,0,0,1-.64,8.36,31.48,31.48,0,0,1-2.53,7,32.27,32.27,0,0,1-3.23,5.18,31.52,31.52,0,0,1-6.12,6.09,27.16,27.16,0,0,1-6.73,3.72c-.39.15-.76.33-1.13.5A15.89,15.89,0,0,1,29,53.41a5.33,5.33,0,0,1-.79-.1,22.17,22.17,0,0,0,4.86-.78l-.32-.11.86-.23a27.23,27.23,0,0,0,9.6-4.48A30.83,30.83,0,0,0,50,40.94,31.33,31.33,0,0,0,55.3,29.65a27.75,27.75,0,0,0,.81-7,26.39,26.39,0,0,0-.77-5.87A24,24,0,0,0,53.61,12a.23.23,0,0,0-.15-.14c0,.11.06.23.1.35a48.05,48.05,0,0,1,1.38,4.9,26.9,26.9,0,0,1,.53,8.9,28.65,28.65,0,0,1-1.33,5.92A31.55,31.55,0,0,1,50,40.12a30.19,30.19,0,0,1-2.82,3.56,32.91,32.91,0,0,1-5.44,4.41.23.23,0,0,0-.1.13l.61-.23c-.38.73-3.17,2.24-4.34,2.36.61-.4,1.29-.67,1.9-1.07a22.14,22.14,0,0,1-10,2.62l.65-.1.65-.08a24.54,24.54,0,0,0,4.32-1,25.33,25.33,0,0,0,6-2.83,28.4,28.4,0,0,0,7.16-6.45,15.28,15.28,0,0,0,1.89-3.22c.1-.23.19-.46.32-.75-.51.76-1,1.47-1.45,2.17a23.32,23.32,0,0,1-3.72,4.45c-.67.58-1.39,1.1-2.09,1.65a26.34,26.34,0,0,1-6.1,3.64,22.54,22.54,0,0,1-6.13,1.65,19,19,0,0,1-5.48-.1c-.61-.11-1.21-.24-1.82-.37a.7.7,0,0,1-.36-.17c.19,0,.38,0,.56.09a21,21,0,0,0,5.76.39,21.33,21.33,0,0,0,4.55-.77,25.6,25.6,0,0,0,9.66-5.22,25.32,25.32,0,0,0,5.05-5.73c.32-.51.58-1.07.87-1.6a1.4,1.4,0,0,1,.3-.4l0,.45a26.51,26.51,0,0,0,1.77-3.32,28.27,28.27,0,0,0,2.32-8.2,23.85,23.85,0,0,0-.79-10,.24.24,0,0,0-.1-.13l.12.86-.08,0-.12-.42c-.21-.86-.41-1.72-.64-2.58-.09-.31-.25-.6-.37-.91,0-.09-.14-.22.06-.29,0,0,0-.15,0-.23a2.78,2.78,0,0,1-.12-.71l.17.5c.39,1.17.78,2.35,1.16,3.52a23.61,23.61,0,0,1,1.07,5.82,27,27,0,0,1-2.1,12c-.2.49-.43,1-.65,1.46,0,.1-.09.2-.13.31-.13.43-.25.88-.41,1.31s-.35.83-.53,1.24l.09,0c.15-.25.31-.49.46-.75a29.94,29.94,0,0,0,3.41-9.44,25.17,25.17,0,0,0,.3-7.25,2.36,2.36,0,0,0-.07-.65c-.37-1-.3-2.07-.62-3.07s-.6-2-1-3-.78-1.7-1.18-2.55c0-.07-.05-.15-.08-.22l.08,0"/><path class="cls-3" d="M52.32,16.91a16.54,16.54,0,0,1,.78,3.81,23.85,23.85,0,0,1-.37,7,26.11,26.11,0,0,1-2.44,7.07c-.57,1.09-1.23,2.14-1.88,3.19a15.53,15.53,0,0,1-1.25,1.83,24.65,24.65,0,0,1-1.91,2.05c-.79.77-1.62,1.5-2.43,2.25-.16.15-.3.32-.44.48a10.18,10.18,0,0,1-1.91,1.68c-.57.41-1.15.8-1.7,1.27.14-.06.29-.12.42-.19a26,26,0,0,0,4.43-3A25.35,25.35,0,0,0,48,39.53a36,36,0,0,0,2-3,29.66,29.66,0,0,0,2.68-6.24,27.16,27.16,0,0,0,1-4.89,23.17,23.17,0,0,0-.4-7.38c-.17-.74-.4-1.47-.6-2.21a.18.18,0,0,0-.09-.15c0,.2,0,.4,0,.59l-.11,0a.78.78,0,0,0,0-.14,51.42,51.42,0,0,0-1.71-6.59s0-.06,0-.2a4.71,4.71,0,0,1,.25.45c.37,1.13.74,2.26,1.09,3.39.26.84.46,1.69.72,2.52A23.16,23.16,0,0,1,54,22a25.69,25.69,0,0,1-.64,6.71,29.09,29.09,0,0,1-2.29,6.36,28.41,28.41,0,0,1-2.58,4.26c-.51.71-1,1.44-1.51,2.14a6.79,6.79,0,0,1-1.83,1.75,12.2,12.2,0,0,0-1.34,1.17,25.54,25.54,0,0,1-6.33,4,22.24,22.24,0,0,1-5,1.57,18.19,18.19,0,0,1-5.36.22l-.18,0s0,0-.12-.07a2.16,2.16,0,0,1,.29,0c.92,0,1.84,0,2.76,0a17.06,17.06,0,0,0,3.95-.64A16.57,16.57,0,0,0,36,48.58a20.25,20.25,0,0,0,2.09-1c.66-.38,1.28-.83,1.91-1.27a13.69,13.69,0,0,0,1.13-.88A20.82,20.82,0,0,1,31.84,49l.49-.12.49-.12A25.1,25.1,0,0,0,37,47.34a.59.59,0,0,0,.39-.3c0-.09.16-.13.26-.19a21.58,21.58,0,0,0,3.25-2.12l.73-.61a1,1,0,0,1,.34-.18,3.57,3.57,0,0,1-1,1.11l0,.06c.36-.26.73-.51,1.08-.78a25.22,25.22,0,0,0,4.69-4.6c.47-.62.85-1.3,1.27-1.95.1-.15.17-.31.38-.36s.15-.15.21-.24a26.93,26.93,0,0,0,2.82-5.69,25.42,25.42,0,0,0,1.45-6.56,22.65,22.65,0,0,0-.36-6.52c0-.2-.07-.4-.1-.61s-.08-.6-.12-.89"/><path class="cls-3" d="M48.91,2.42l-.31.33c-.34,0-.77.06-1.19.12A9.12,9.12,0,0,0,43.52,4.5a6.68,6.68,0,0,0-2,2,9.69,9.69,0,0,0-1,2.25,21.54,21.54,0,0,0-.88,6A16.13,16.13,0,0,0,40,18.12a25.22,25.22,0,0,1,.59,4.32,9.85,9.85,0,0,1-1,4.65A8,8,0,0,1,38.33,29c-.4.41-.83.81-1.24,1.22L37,30.1l.24-.31c.49-.65,1-1.27,1.47-1.94a7.68,7.68,0,0,0,1.23-3.39,11.79,11.79,0,0,0-.09-3.84c-.25-1.27-.48-2.55-.65-3.83a19,19,0,0,1-.4-2.91,18,18,0,0,1,.45-3.35A10.37,10.37,0,0,1,40,7.92a8.11,8.11,0,0,1,2.69-3.46,13.18,13.18,0,0,1,4.55-2,9.45,9.45,0,0,1,1.41-.08,1.41,1.41,0,0,1,.27.09"/><path class="cls-3" d="M38.88,9.44c-.15.72-.3,1.35-.41,2a21,21,0,0,0-.06,3.88,1.79,1.79,0,0,0,.09.46A13.34,13.34,0,0,1,39,19.16a16.9,16.9,0,0,1-.07,3.26,15.33,15.33,0,0,1-1.34,4.33,1.77,1.77,0,0,1-.21.32l-.07,0c.08-.23.14-.46.22-.69a17.76,17.76,0,0,0,1-5,10.92,10.92,0,0,0-.17-2.42c-.16-.85-.38-1.68-.51-2.53s-.24-1.88-.34-2.82a1,1,0,0,1,.1-.51c.06.11.12.21.24.39a7.55,7.55,0,0,1,1-4"/><path class="cls-3" d="M51,22.9c0,.2,0,.4,0,.6a24.84,24.84,0,0,1-1,5.94,26.15,26.15,0,0,1-6,10.3,23.68,23.68,0,0,1-6.49,4.93,18.58,18.58,0,0,1-5.67,1.89,7.16,7.16,0,0,1-1.39.08c.62-.12,1.25-.23,1.87-.37a21.48,21.48,0,0,0,7.79-3.48,25.33,25.33,0,0,0,7.24-8,24.9,24.9,0,0,0,3.32-10.27c0-.48.08-1,.13-1.45,0-.06,0-.13,0-.2H51"/><path class="cls-3" d="M52,22.41c0,.82,0,1.64-.07,2.46a25.29,25.29,0,0,1-3.47,10.71,26.84,26.84,0,0,1-3.9,5.21q-.69.72-1.44,1.38c-.78.71-1.57,1.41-2.39,2.08a4.88,4.88,0,0,1-1.49.81,13.55,13.55,0,0,0-1.41.74,19.09,19.09,0,0,1-5.08,1.74.14.14,0,0,1-.12,0,24.71,24.71,0,0,0,13.82-9.31A25.85,25.85,0,0,0,51.9,22.39l.12,0"/><path class="cls-3" d="M7.63,31.36c.28-.05.56-.12.84-.16a15.14,15.14,0,0,1,4.84.27A20.91,20.91,0,0,1,18,32.93c.89.42,1.76.87,2.65,1.29.54.25,1.09.47,1.63.7a.49.49,0,0,1,0,.11c-.47-.14-1-.25-1.41-.41-1-.37-2.06-.8-3.1-1.16-1.47-.5-2.93-1-4.43-1.43a14.72,14.72,0,0,0-4.63-.53c-.35,0-.7,0-1,0,0,0,0-.09,0-.13"/><path class="cls-3" d="M32.65,45.17a22.32,22.32,0,0,0,11.52-7.43,25.09,25.09,0,0,0,5.65-12.57.59.59,0,0,1,0,.13c0,.05,0,.1,0,.15a21,21,0,0,1-1.63,6.17,24.84,24.84,0,0,1-5.3,7.9A22,22,0,0,1,36.72,44a14.52,14.52,0,0,1-3.81,1.29l-.21,0a.47.47,0,0,1-.05-.1"/><path class="cls-3" d="M38.48,7.49A12,12,0,0,0,37.27,11l.15-.08a3,3,0,0,1,0,.44A17,17,0,0,0,37.55,16,35.41,35.41,0,0,1,38,21.53,11.26,11.26,0,0,1,37.52,25a7.05,7.05,0,0,1-.5,1.08l-.06,0c.15-.62.31-1.23.45-1.85a9.38,9.38,0,0,0,.27-2.63c-.1-1.63-.23-3.27-.36-4.9-.1-1.09-.23-2.19-.33-3.28,0-.21,0-.41,0-.62,0-.58.13-1.15.07-1.75a4.83,4.83,0,0,1,.28-1.71A11.88,11.88,0,0,1,38,7.75c.07-.17.17-.36.47-.26"/><path class="cls-3" d="M34.07,43.57a22.65,22.65,0,0,0,7.3-4.45,27.57,27.57,0,0,0,5.24-6.81c-.08.2-.16.4-.25.59s-.2.42-.31.62a22.7,22.7,0,0,1-4.43,5.7,19.78,19.78,0,0,1-5.31,3.65c-.58.27-1.19.48-1.79.71a2.71,2.71,0,0,1-.41.09Z"/><path class="cls-3" d="M7.47,32.25a4.73,4.73,0,0,1,.47-.2,9,9,0,0,1,3.18-.19,14.54,14.54,0,0,1,3.67.87c.59.2,1.19.41,1.77.64a7.54,7.54,0,0,1,1.17.59,6.42,6.42,0,0,1-1.3-.36c-.78-.27-1.56-.54-2.34-.79a11,11,0,0,0-3.26-.49c-1,0-2,0-2.94.06H7.51Z"/><path class="cls-3" d="M9.6,48.72a2.61,2.61,0,0,1-.54-.24,22.73,22.73,0,0,1-5.32-5.31A9.78,9.78,0,0,1,3.12,42,3.17,3.17,0,0,1,3,41.47l.08,0,.36.63A21.39,21.39,0,0,0,7.72,47c.54.48,1.1.94,1.66,1.41l.28.27Z"/><path class="cls-3" d="M35.94,24.66a32.88,32.88,0,0,0,.13-3.43c0-1.17-.1-2.33-.19-3.49s-.29-2.27-.31-3.43a.66.66,0,0,1,.25.49c.11.77.24,1.53.33,2.3a29.65,29.65,0,0,1,.19,5.41c-.05.64-.19,1.27-.3,1.9a1.09,1.09,0,0,1-.1.25"/><path class="cls-3" d="M9.34,47.43A3.47,3.47,0,0,1,9,47.25a17.9,17.9,0,0,1-2.69-2.38,19.64,19.64,0,0,1-2.82-3.6,6.16,6.16,0,0,1-.34-.68,1.11,1.11,0,0,1-.08-.41,28.71,28.71,0,0,0,6.33,7.17.27.27,0,0,0-.07.08"/><path class="cls-3" d="M13,43.78c-2.38-.14-7.49-3.47-7.69-5l.34.33A14.53,14.53,0,0,0,8.3,41.47,16.1,16.1,0,0,0,11.08,43l1.93.83"/><path class="cls-3" d="M18.22,55.15c-.12,0-.25,0-.37-.08a23.65,23.65,0,0,1-3.52-1.58,15.56,15.56,0,0,1-2.81-1.79c-.21-.18-.39-.38-.59-.57l.05-.07.17.07A39.37,39.37,0,0,0,18.27,55l-.05.12"/><path class="cls-3" d="M15.55,33.8,15,33.65c-.65-.14-1.3-.3-1.95-.42a12.15,12.15,0,0,0-1.35-.35,20.48,20.48,0,0,0-3.23,0c-.28,0-.57,0-.85,0,0,0,0-.08,0-.12.21,0,.41-.11.62-.13a14.7,14.7,0,0,1,5.45.24c.54.15,1.07.37,1.6.57a1,1,0,0,1,.29.22Z"/><path class="cls-3" d="M4.42,38.84c.39.44.76.88,1.16,1.31a12.8,12.8,0,0,0,3.1,2.38c1,.59,2.06,1.13,3.1,1.69a.7.7,0,0,1,.28.24,4.64,4.64,0,0,1-.72-.23c-.89-.44-1.8-.88-2.67-1.38a12.86,12.86,0,0,1-3-2.23,16.11,16.11,0,0,1-1.11-1.34,2.71,2.71,0,0,1-.2-.42l.06,0"/><path class="cls-3" d="M19,47.83c-.66-.14-1.32-.25-2-.4A33.48,33.48,0,0,1,12.71,46a8.48,8.48,0,0,1-2.14-1.14.3.3,0,0,1-.12-.18l.58.25a31.17,31.17,0,0,0,6,2.19c.55.14,1.1.31,1.64.47a3.68,3.68,0,0,1,.35.15.24.24,0,0,1,0,.08"/><path class="cls-3" d="M20.14,52.89a.87.87,0,0,1-.62,0c-.48-.16-1-.32-1.44-.5a23.93,23.93,0,0,1-5.35-2.74c-.27-.19-.51-.41-.76-.62,0,0-.06-.07-.11-.14,1.37.77,2.68,1.57,4,2.25a30.24,30.24,0,0,0,4.25,1.79"/><path class="cls-3" d="M39.77,6.54c.67-1.64,5.08-4.71,6.42-4.41l-.26.14A14.05,14.05,0,0,0,40.8,5.62l-1,1a.18.18,0,0,1-.07,0"/><path class="cls-3" d="M39.74,21.59a12.93,12.93,0,0,1-.69,4.49,6.12,6.12,0,0,1-1.44,2.38l-.1,0a2,2,0,0,1,.09-.26c.22-.41.47-.8.68-1.2a11.88,11.88,0,0,0,1.06-3.65c.08-.46.15-.93.23-1.39,0-.12,0-.23.07-.35l.1,0"/><path class="cls-3" d="M18.09,55.94c-1.46-.13-6.84-3.09-7.58-4.4a27,27,0,0,0,3.68,2.4c1.28.7,2.6,1.34,3.9,2"/><path class="cls-3" d="M38,5.1a11.33,11.33,0,0,1-.78.86A6.21,6.21,0,0,0,35.89,8.2c-.25.64-.5,1.29-.82,1.94A1.72,1.72,0,0,1,35,9.7,3.78,3.78,0,0,1,35.13,9,6.58,6.58,0,0,1,37.24,5.5a3.72,3.72,0,0,1,.47-.34A1,1,0,0,1,38,5.1"/><path class="cls-3" d="M16.46,49.43l.47.16c.72.31,1.43.66,2.17.93.93.34,1.88.63,2.82.94a7.61,7.61,0,0,1,.79.31c-1.1.2-5.35-1.31-6.25-2.34"/><path class="cls-3" d="M36.5,24.55a45,45,0,0,0,0-9.14h.07c0,.14.07.28.09.43A23.22,23.22,0,0,1,37,20.39c0,1.11-.14,2.22-.23,3.33a6.45,6.45,0,0,1-.21.84H36.5"/><path class="cls-3" d="M46.47,12.12a47.2,47.2,0,0,0,0,8.15l-.08,0a3.9,3.9,0,0,1-.12-.46A23.54,23.54,0,0,1,46,16.17a17.93,17.93,0,0,1,.26-3.58c0-.16.07-.32.11-.49l.1,0"/><path class="cls-3" d="M45.94,11.84c0,2.44-.37,4.86-.14,7.33-.22-.07-.26-.26-.28-.44,0-.43-.06-.87-.07-1.31a31,31,0,0,1,.37-5.09c0-.12.06-.24.08-.36s0-.08,0-.13"/><path class="cls-3" d="M38.3,7c.05-.11.09-.23.15-.34a10.65,10.65,0,0,1,1.92-2.26A7.93,7.93,0,0,1,42.24,3a1.51,1.51,0,0,1,.95-.25c-.5.32-1,.58-1.4.9a13.75,13.75,0,0,0-1.23,1.06c-.39.37-.76.76-1.11,1.15s-.71.82-1.06,1.22L38.3,7"/><path class="cls-3" d="M8.47,49.24c-.17-.11-.35-.21-.51-.33a18.23,18.23,0,0,1-4-4.1,1.6,1.6,0,0,1-.4-1,27.75,27.75,0,0,0,5,5.38Z"/><path class="cls-3" d="M26.24,36.49c-.16,0-.33.1-.5.13a6.93,6.93,0,0,1-2.13-.08,21,21,0,0,1-3.66-.9c-.15,0-.29-.12-.51-.22.15,0,.22,0,.29,0l2.49.52a15.57,15.57,0,0,0,3.33.49l.67,0a.29.29,0,0,1,0,.09"/><path class="cls-3" d="M34.19,15.46c0,.43.05.87.07,1.3s.05,1,.07,1.49a1.17,1.17,0,0,1-.1.47.94.94,0,0,1-.06-.15c-.18-2-.37-4-.53-6a10.6,10.6,0,0,1,0-1.26h.1c0,.14,0,.28,0,.42.11,1.18.21,2.35.32,3.52a2.1,2.1,0,0,0,.06.24Z"/><path class="cls-3" d="M36.91,7.32a8.79,8.79,0,0,0-1.26,2.88,14.07,14.07,0,0,0-.4,3.09h-.1a2.15,2.15,0,0,1-.09-.44c0-.62,0-1.24.1-1.85a9,9,0,0,1,.72-2.54,5.57,5.57,0,0,1,.58-1,.37.37,0,0,1,.45-.18"/><path class="cls-3" d="M20.41,52.23a1.37,1.37,0,0,1-.9-.09,24.22,24.22,0,0,1-3.7-1.61c-.55-.3-1.07-.65-1.6-1a1.27,1.27,0,0,1-.31-.34,43.25,43.25,0,0,0,6.51,3"/><path class="cls-3" d="M34.39,20.26c.35,1.66-.4,6.31-1.17,7.31.08-.3.15-.6.24-.89a21.61,21.61,0,0,0,.66-4.3c0-.58.12-1.16.19-1.74,0-.13,0-.25.08-.38"/><path class="cls-3" d="M43.46,15.18c-.45-1,.4-5.58,1.13-6.31-.23,1-.49,2.06-.68,3.1s-.3,2.1-.45,3.21"/><path class="cls-3" d="M44.24,8.47a13.31,13.31,0,0,0-.84,2.94,13.81,13.81,0,0,0-.4,3,.53.53,0,0,1-.25-.58c.07-.73.13-1.45.26-2.16a9.41,9.41,0,0,1,.77-2.64,1.18,1.18,0,0,1,.46-.58"/><path class="cls-3" d="M8.12,34.59c1.13-.27,6,1.09,7.61,2-.14,0-.27-.05-.4-.09a39.1,39.1,0,0,0-6.86-1.86,3.58,3.58,0,0,1-.35-.09"/><path class="cls-3" d="M35.44,22.26c.09-2.32-.19-4.63-.27-6.94a17.63,17.63,0,0,1,.27,6.94"/><path class="cls-3" d="M45,9.67a57.52,57.52,0,0,0-1,6.54.89.89,0,0,1-.14-.64c.11-1.08.2-2.17.36-3.25.12-.76.35-1.5.54-2.25a3.12,3.12,0,0,1,.18-.42l.08,0"/><path class="cls-3" d="M13.75,37.24l6,2.31c-1.06.05-4.68-1.36-6-2.25l0-.06"/><path class="cls-3" d="M8.66,46c-1.6-.87-4.59-4.61-4.66-5.85A23.56,23.56,0,0,0,8.66,46"/><path class="cls-3" d="M47.17,12.55c0,1.31-.09,2.6-.07,3.88s.12,2.59.19,3.87c-.52-1.3-.61-6.61-.12-7.75"/><path class="cls-3" d="M24.09,36a22.74,22.74,0,0,1-5.75-1.69,2.33,2.33,0,0,1,1.11.16l4.34,1.34.33.12,0,.07"/><path class="cls-3" d="M50.64,10.81c.56.64,1.24,4.32,1,5.42-.33-1.8-.67-3.61-1-5.42"/><path class="cls-3" d="M21.22,37.48a18.09,18.09,0,0,0,5.56.14c-1.27.63-4.51.57-5.56-.14"/><path class="cls-3" d="M34.45,31.33a8.82,8.82,0,0,1-4.4,1.91c.7-.4,1.48-.59,2.2-.93s1.46-.65,2.2-1"/><path class="cls-3" d="M37.92,7.33a10.79,10.79,0,0,0-1.43,4.21.59.59,0,0,1-.17-.58,10.93,10.93,0,0,1,.32-1.63,11.31,11.31,0,0,1,.73-1.58.66.66,0,0,1,.55-.42"/><path class="cls-3" d="M37.18,7.54c-.26.69-.57,1.37-.78,2.08s-.32,1.43-.53,2.17a1.8,1.8,0,0,1-.08-.39,5.16,5.16,0,0,1,.38-2.13,13.19,13.19,0,0,1,.7-1.47,1.58,1.58,0,0,1,.27-.31l0,0"/><path class="cls-3" d="M13.61,33.69a.52.52,0,0,0,.16.06,7,7,0,0,1,2.48.47c.47.15.93.35,1.39.53a.47.47,0,0,1,.22.22l-4.37-1.13.13-.15Z"/><path class="cls-3" d="M16.77,40.88l5.14,1.06a13.46,13.46,0,0,1-5.17-1l0-.08"/><path class="cls-3" d="M15.6,47.6a15,15,0,0,1-5.07-2.27l5.09,2.2a.14.14,0,0,1,0,.07"/><path class="cls-3" d="M13.42,43c-1,0-4.85-2.05-5.22-2.74.86.5,1.68,1,2.52,1.46s1.75.83,2.7,1.28"/><path class="cls-3" d="M13.62,33.69l-.91-.06-3-.24-.35,0a.25.25,0,0,1,0-.08l.31-.07a10.83,10.83,0,0,1,3.5.28,2.08,2.08,0,0,1,.45.22Z"/><path class="cls-3" d="M49.25,8.72A38.52,38.52,0,0,1,49.77,14a23.49,23.49,0,0,1-.52-5.31"/><path class="cls-3" d="M23.91,58.74a15.63,15.63,0,0,0,5.57.6,9,9,0,0,1-5.57-.6"/><path class="cls-3" d="M19.73,40.46a16.68,16.68,0,0,1-4.44-1.57,22.45,22.45,0,0,1,4.44,1.57"/><path class="cls-3" d="M9.15,40.21a28.89,28.89,0,0,0,4.66,2s0,.08,0,.11a2,2,0,0,1-.34,0,13.39,13.39,0,0,1-4.3-2"/><path class="cls-3" d="M10.4,45.65c.73.44,1.37.87,2,1.24s1.39.66,2.07,1a8.1,8.1,0,0,1-4.11-2.26"/><path class="cls-3" d="M34.2,15.48c0-.13,0-.26,0-.42a12.79,12.79,0,0,1,.61,4.58c0-.17-.09-.35-.12-.53-.15-1.09-.29-2.18-.44-3.27,0-.13-.06-.25-.09-.38Z"/><path class="cls-3" d="M50.48,14.57a20.38,20.38,0,0,1-.6-4.47,23.32,23.32,0,0,1,.6,4.47"/><path class="cls-3" d="M33.74,28.24c.25-1.41.51-2.9.76-4.39a8.28,8.28,0,0,1-.76,4.39"/><path class="cls-3" d="M37.81,10.27a3.37,3.37,0,0,1,.42-2.09c.16-.34.29-.74.74-.87a24.22,24.22,0,0,0-1.16,3"/><path class="cls-3" d="M11.61,34.71l-3.38-.47a2.47,2.47,0,0,1-.43-.15,6.8,6.8,0,0,1,3.81.62"/><path class="cls-3" d="M35.29,7.34c-.46,1.18-.9,2.31-1.36,3.46a5.44,5.44,0,0,1,1.36-3.46"/><path class="cls-3" d="M20.8,43A6.68,6.68,0,0,1,17,42.11L20.8,43"/><path class="cls-3" d="M6.6,33.78a8.39,8.39,0,0,1,4.22.13l-4.22,0a.22.22,0,0,0,0-.08"/><path class="cls-3" d="M14.39,38.21l-4-1.28a7.92,7.92,0,0,1,4,1.28"/><path class="cls-3" d="M28.35,36.69a14.07,14.07,0,0,1-5.08.51l5.08-.51"/><path class="cls-3" d="M10,35.74a6.27,6.27,0,0,1,4,1.16c-.64-.22-1.27-.45-1.92-.64s-1.33-.34-2-.52"/><path class="cls-3" d="M19.36,35.83l3.66.82a6.18,6.18,0,0,1-3.66-.82"/><path class="cls-3" d="M34.41,30.54a5.07,5.07,0,0,1-3,1.53,2,2,0,0,1,.32-.26l.85-.4,1.44-.71.35-.16"/><path class="cls-3" d="M58.4,8.84a22.85,22.85,0,0,0-2.71-3.61A7.83,7.83,0,0,1,58.4,8.84"/><path class="cls-3" d="M42.85,8.75A4.26,4.26,0,0,1,45.6,6a1.58,1.58,0,0,1-.23.22A6.54,6.54,0,0,0,43,8.57a2.32,2.32,0,0,1-.16.18"/><path class="cls-3" d="M8.14,50.47a11.68,11.68,0,0,1-3.32-3.36l3.32,3.36"/><path class="cls-3" d="M12.77,34.72A17.66,17.66,0,0,1,17,36.15l-4.27-1.28s0-.1,0-.15"/><path class="cls-3" d="M46.26,4.74c-.51.31-1,.58-1.52.94s-.91.77-1.4,1.15a1.17,1.17,0,0,1,.15-.34A4.59,4.59,0,0,1,44,5.88a10.05,10.05,0,0,1,2.15-1.25l.07.11"/><path class="cls-3" d="M14,48.27a6.29,6.29,0,0,1-3.46-1.92c.61.38,1.14.74,1.71,1.06s1.16.58,1.75.86"/><path class="cls-3" d="M47.69,11.43a6.55,6.55,0,0,1,.2-3.14,13.24,13.24,0,0,1-.2,3.14"/><path class="cls-3" d="M18.18,40.59a9.64,9.64,0,0,1-3.25-1.19,17.35,17.35,0,0,1,3.25,1.19"/><path class="cls-3" d="M6.8,42.4,10,44.6a7.48,7.48,0,0,1-3.2-2.2"/><path class="cls-3" d="M36.47,11.76a9.73,9.73,0,0,1,0,2.8,4.19,4.19,0,0,1,0-2.8"/><path class="cls-3" d="M47.56,7.38c-.18,1.21-.36,2.43-.54,3.7a7.24,7.24,0,0,1,.54-3.7"/><path class="cls-3" d="M2.44,39.11c-.65-.77-.61-3.07,0-3.62a16.22,16.22,0,0,0-.2,1.77,16.09,16.09,0,0,0,.23,1.85"/><path class="cls-3" d="M13.78,38.7c-1.08-.32-2.21-.49-3.31-.9.51-.22,2.28.27,3.31.9"/><path class="cls-3" d="M22.28,39.09a5.49,5.49,0,0,1-3.38-.67l3.38.67"/><path class="cls-3" d="M46.54,8.15l.3-.71.06,0c-.27,1.11-.54,2.21-.8,3.32h-.05a1.59,1.59,0,0,1,0-.38c.06-.52.14-1.05.22-1.57.09-.23.19-.47.29-.7"/><path class="cls-3" d="M48.57,12.65a12.18,12.18,0,0,1-.22-3.46,18.29,18.29,0,0,1,.22,3.46"/><path class="cls-3" d="M34.35,27.85,35,24.64a5,5,0,0,1-.61,3.21"/><path class="cls-3" d="M46.54,8.15c-.1.23-.2.47-.29.7l-.34,1a5.28,5.28,0,0,1,1.16-3.23c-.18.42-.34.76-.47,1.12a1.47,1.47,0,0,0-.06.42"/><path class="cls-3" d="M48.39,16.09a14.44,14.44,0,0,1,.11,3.43,11.09,11.09,0,0,1-.11-3.43"/><path class="cls-3" d="M4.36,33.45a3.13,3.13,0,0,1,2.36-.76,10.53,10.53,0,0,1-2.36.76"/><path class="cls-3" d="M43.25,6.46a2.19,2.19,0,0,1,1.68-1.77,7.64,7.64,0,0,0-1.68,1.77"/><path class="cls-3" d="M34.85,28c.14-.89.27-1.71.42-2.58A3.32,3.32,0,0,1,34.85,28"/><path class="cls-3" d="M6,35.65a8.08,8.08,0,0,1,1.88,1.28A2.82,2.82,0,0,1,6,35.65"/><path class="cls-3" d="M38.54,9.37a2.56,2.56,0,0,1,.82-2.09,7,7,0,0,1-.82,2.09"/><path class="cls-3" d="M46.34,29.46a5,5,0,0,1-1,2.68l-.08,0,.57-1.33a6.43,6.43,0,0,1,.51-1.32"/><path class="cls-3" d="M34.25,12.84a4.72,4.72,0,0,1,.53-2.95c-.18,1-.36,2-.53,2.95"/><path class="cls-3" d="M40.11,39.1l2.06-2.3a5.46,5.46,0,0,1-2.06,2.3"/><path class="cls-3" d="M4.13,36l2,2a4.11,4.11,0,0,1-2-2"/><path class="cls-3" d="M49.37,17.13a6.09,6.09,0,0,1,.13,2.48,6.14,6.14,0,0,1-.13-2.48"/><path class="cls-3" d="M23.81,38.48A10.71,10.71,0,0,1,20.16,38l3.65.45"/><path class="cls-3" d="M27.21,35.53a6.12,6.12,0,0,1-2.66,0,9.94,9.94,0,0,1,2.66,0"/><path class="cls-3" d="M14.65,34.69a14.72,14.72,0,0,1,3.19,1.23,23.32,23.32,0,0,1-3.19-1.23"/><path class="cls-3" d="M48.27,27.24c.1-.95.19-1.9.3-2.92a5.53,5.53,0,0,1-.3,2.92"/><path class="cls-3" d="M48.91,16.74a9.89,9.89,0,0,1,.16,2.77,11.19,11.19,0,0,1-.16-2.77"/><path class="cls-3" d="M20.56,40.78l2.58.31v.07a9.41,9.41,0,0,1-2.59-.24l0-.14"/><path class="cls-3" d="M7,37.77A6.49,6.49,0,0,1,4.72,35.9L7,37.77"/><path class="cls-3" d="M34.32,29.86a1.48,1.48,0,0,1-1.53.81,16.29,16.29,0,0,1,1.53-.81"/><path class="cls-3" d="M49.39,23a5.74,5.74,0,0,1,0-2,3.27,3.27,0,0,1,0,2"/><path class="cls-3" d="M3.65,38.48a1.61,1.61,0,0,1-.38-1.8c.13.63.26,1.21.38,1.8"/><path class="cls-3" d="M38.75,5,37.46,6.72A2.7,2.7,0,0,1,38.75,5"/><path class="cls-3" d="M53.18,3.3l-1.63-.8c.38-.18,1.33.25,1.67.71l0,.09"/><path class="cls-3" d="M5.69,36l1.92,1.28A3.05,3.05,0,0,1,5.69,36"/><path class="cls-3" d="M4.89,33.65a2.69,2.69,0,0,1,1.76-.47l0,.08-1.73.52a.69.69,0,0,1-.05-.13"/><path class="cls-3" d="M38.15,6.21a6.29,6.29,0,0,1,1.79-2l-1.72,2-.07,0"/><path class="cls-3" d="M52.46,3.46,51,2.59l.06-.09a2.6,2.6,0,0,1,1.47.85l-.06.11"/><path class="cls-3" d="M11.3,52.86l2.41,1.58-.06.09L11.25,53a.41.41,0,0,1,.05-.09"/><path class="cls-3" d="M39.13,8.74a1.66,1.66,0,0,1,.51-1.3,2.39,2.39,0,0,1-.51,1.3"/><path class="cls-3" d="M15.52,37.33l1.83.64,0,.09a11.56,11.56,0,0,1-1.83-.61Z"/><path class="cls-3" d="M50.69,17.08A7.13,7.13,0,0,1,51,19l-.11,0c-.08-.64-.17-1.27-.26-1.91h.1"/><path class="cls-3" d="M47.58,23.3A3.34,3.34,0,0,1,47.5,25a6,6,0,0,1,.08-1.69"/><path class="cls-3" d="M13.67,41.49a3.89,3.89,0,0,1-1.59-.65,5.67,5.67,0,0,1,1.59.65"/><path class="cls-3" d="M2.81,36.91,3,38.39a2,2,0,0,1-.23-1.49h.08"/><path class="cls-3" d="M17.3,43l1.27.3,0,.12a3.14,3.14,0,0,1-1.27-.32l0-.1"/><path class="cls-3" d="M10.93,38.31a3,3,0,0,1,1.34.55l-1.38-.44,0-.11"/><path class="cls-3" d="M3.81,37l.32.76c-.39-.06-.52-.34-.32-.76"/><path class="cls-3" d="M17.93,37.57l-1.09-.36,0-.1,1.1.33a.65.65,0,0,1,0,.13"/><path class="cls-3" d="M35.82,13a1.11,1.11,0,0,1,0,.86.91.91,0,0,1,0-.86"/><path class="cls-3" d="M59.6,17.23c0,.3.06.6.09.9l-.09,0c-.14-.54-.27-1.08-.41-1.62l.1,0c.11.25.21.5.32.76Z"/></g></g></g></g></svg>