<svg xmlns="http://www.w3.org/2000/svg" viewBox="0 0 272.05 198.35"><defs><style>.cls-1{fill:#fdc600;}</style></defs><title>yellow-waves</title><g id="Calque_2" data-name="Calque 2"><g id="contenu"><path class="cls-1" d="M132,62.45c4.35,2,9.18.31,13.19-1.46a486.63,486.63,0,0,0,65.43-34.92c11-7,22-14.86,27.5-26.07-3.22,6.6-40.14,20.43-48.49,24.85A355.41,355.41,0,0,0,132,62.45Z"/><path class="cls-1" d="M0,153.71c3.92-.05,7.46-1.5,10.88-2.92,43.86-18.21,96.52-36.61,128.91-68.92-18.35-6.66-55.74,18.45-70.61,26.37A446.33,446.33,0,0,0,0,153.71Z"/><path class="cls-1" d="M211.48,62.75c-22,18.92-44.48,37.38-70.51,51.93-4.44,2.48-6.48,9.79-1.14,11.62,3.32,1.14,6.32-1.2,8.48-3.35,9.05-9,16.24-17.09,27.61-23.22,10.36-5.58,22-7.16,29.93-16.06,2.82-3.19,4.89-6.89,7.61-10.14,6.87-8.23,17.45-13.16,26.73-19.22a101.38,101.38,0,0,0,31.86-33C246.41,30.7,231.09,45.9,211.48,62.75Z"/><path class="cls-1" d="M221.85,96.4c-30.31,19-70,28.73-90.51,56.34,12.76-4.2,22.56-12.87,34.39-18.6,14.88-7.22,32.59-9.6,48-16,13.25-5.46,30.35-17.77,26.76-33C233.77,87.69,228.14,92.46,221.85,96.4Z"/><path class="cls-1" d="M50.13,173.16c-8.41,7.17-17.14,14.82-20,25.19a143.28,143.28,0,0,1,51.2-39.84c4.68-2.19,47.84-28.55,20.83-28.57C88.49,129.93,59.9,164.84,50.13,173.16Z"/></g></g></svg>