<svg width="32" height="29" viewBox="0 0 32 29" fill="none" xmlns="http://www.w3.org/2000/svg">
<path d="M31.3 26.1C31.2 26 30.8 25.7 30.8 25.7L27.3 22.4L25.3 20.7C25.5 20.4 25.6 20.1 25.5 19.8C26.2 17.5 27.1 15.5 26.5 13.2C26.3 12.3 26.7 11.3 26.5 10.3V9.99999C26.5 9.89999 25.8 8.89999 25.8 8.69999C24.5 5.59999 24.6 4.99999 20.6 2.59999C19.6 1.69999 17.1 0.899992 16.1 0.999992L11 1.69999C2.30002 3.99999 1.86563e-05 11 1.30002 16.5L1.70002 18.3C2.30002 19 2.40002 19.7 2.90002 20.4C5.30002 23.5 10.1 26 15.7 25.5C18 25.3 20.3 24.9 21.7 23.7L21.8 23.6C22.1 23.4 22.5 23.1 22.9 22.7C23.7 23.4 24.5 24.1 25.2 24.8C25.6 25.2 25.8 25.7 26.2 26.1C26.6 26.5 27.1 26.7 27.5 27.1C27.9 27.5 28.1 27.9 28.5 28.3C28.9 28.8 29.5 29 30 28.5C30.6 28.2 31.6 26.4 31.3 26.1ZM21.2 21.1C20 22.1 18.4 22.7 16.3 22.9C10.7 23.3 6.30002 20.5 5.20002 18.9L4.70002 17.5C4.20002 16 3.80002 14.4 3.70002 12.8C2.50002 9.39999 9.20002 3.99999 13.7 3.69999C19.8 3.19999 23.2 9.49999 23.8 11.3C24.3 12.7 24.5 16.1 23.1 18.8C22.6 19.6 22 20.4 21.2 21.1Z" fill="#000"/>
</svg>
