<svg width="23" height="21" viewBox="0 0 23 21" fill="none" xmlns="http://www.w3.org/2000/svg">
<path d="M22.3 18.6C22.2 18.5 22 18.3 21.9 18.3L19.5 16L18.1 14.8C18.2 14.6 18.3 14.4 18.3 14.2C18.8 12.6 19.4 11.1 19 9.50005C18.9 8.90005 19.2 8.10005 19 7.50005V7.30005C19 7.20005 18.5 6.50005 18.5 6.40005C17.6 4.20005 17.7 3.80005 14.9 2.10005C14.2 1.40005 12.4 0.900046 11.7 1.00005L8.09998 1.50005C1.89998 3.10005 0.29998 8.10005 1.19998 12L1.49998 13.3C1.89998 13.8 1.99998 14.3 2.29998 14.7C3.99998 16.9 7.29998 18.6 11.3 18.3C12.9 18.2 14.5 17.9 15.6 17.1L15.7 17C15.9 16.8 16.2 16.6 16.5 16.4C17.1 16.9 17.6 17.4 18.1 17.9C18.4 18.2 18.5 18.5 18.8 18.8C19.1 19.1 19.4 19.2 19.7 19.5C20 19.8 20.1 20.1 20.4 20.4C20.7 20.7 21.1 20.9 21.5 20.5C21.8 20.2 22.6 18.9 22.3 18.6ZM15.2 15.2C14.4 15.9 13.3 16.4 11.8 16.5C7.79998 16.8 4.79998 14.8 3.99998 13.6L3.59998 12.6C3.19998 11.5 2.99998 10.4 2.89998 9.30005C2.09998 6.90005 6.79998 3.10005 9.99998 2.90005C14.2 2.60005 16.6 7.00005 17 8.20005C17.3 9.20005 17.5 11.6 16.5 13.5C16.2 14.1 15.8 14.7 15.2 15.2Z" fill="white"/>
</svg>
