<?xml version="1.0" standalone="no"?>
<!DOCTYPE svg PUBLIC "-//W3C//DTD SVG 20010904//EN"
 "http://www.w3.org/TR/2001/REC-SVG-20010904/DTD/svg10.dtd">
<svg version="1.0" xmlns="http://www.w3.org/2000/svg"
 width="600.000000pt" height="600.000000pt" viewBox="0 0 600.000000 600.000000"
 preserveAspectRatio="xMidYMid meet">
<metadata>
Created by potrace 1.11, written by Peter Selinger 2001-2013
</metadata>
<g transform="translate(0.000000,600.000000) scale(0.100000,-0.100000)"
fill="#000000" stroke="none">
<path d="M2899 5976 c-2 -2 -44 -6 -94 -10 -49 -3 -101 -8 -115 -10 -14 -3
-47 -7 -75 -10 -27 -3 -61 -8 -75 -10 -14 -3 -47 -7 -75 -11 -121 -15 -392
-81 -470 -115 -11 -4 -51 -21 -90 -36 -220 -88 -506 -270 -736 -468 -19 -17
-66 -58 -105 -91 -73 -62 -283 -270 -322 -318 -200 -245 -346 -509 -482 -873
-49 -130 -124 -372 -135 -437 -3 -16 -14 -66 -24 -110 -60 -257 -95 -457 -95
-532 1 -92 12 -308 18 -345 3 -14 7 -56 11 -93 3 -37 8 -76 9 -85 2 -9 6 -38
10 -63 68 -467 236 -783 676 -1273 87 -96 426 -434 519 -517 46 -40 91 -81
100 -90 30 -29 155 -126 225 -173 105 -72 317 -171 447 -210 124 -37 172 -47
324 -65 100 -11 384 -4 530 14 17 2 89 6 160 10 247 11 305 14 353 20 292 36
583 121 807 237 278 143 445 270 729 554 148 148 340 372 427 499 19 28 37 52
40 55 12 10 148 228 196 315 103 184 190 385 256 590 36 113 82 283 92 345 3
19 10 58 15 85 5 28 12 69 15 92 3 23 8 57 10 75 13 92 20 245 19 443 0 244
-9 362 -34 500 -6 28 -12 68 -16 90 -3 22 -14 76 -25 120 -11 44 -22 91 -25
105 -10 49 -87 276 -121 360 -68 165 -177 353 -260 450 -12 14 -31 36 -43 50
-315 369 -872 682 -1479 835 -75 18 -154 36 -176 39 -23 4 -52 9 -65 11 -14 3
-41 8 -60 11 -19 3 -42 7 -50 9 -8 2 -46 7 -85 10 -38 4 -81 9 -95 12 -29 5
-555 14 -561 9z"/>
</g>
</svg>
