<svg width="23" height="23" viewBox="0 0 23 23" fill="none" xmlns="http://www.w3.org/2000/svg">
<g clip-path="url(#clip0)">
<path d="M15.44 13.4L12.26 11.02V6.17004C12.26 5.68004 11.87 5.29004 11.38 5.29004C10.89 5.29004 10.5 5.68004 10.5 6.17004V11.46C10.5 11.74 10.63 12 10.85 12.17L14.38 14.82C14.54 14.94 14.72 15 14.91 15C15.18 15 15.44 14.88 15.62 14.65C15.91 14.24 15.83 13.69 15.44 13.4Z" fill="white"/>
<path d="M11.39 0C5.11 0 0 5.11 0 11.39C0 17.67 5.11 22.78 11.39 22.78C17.67 22.78 22.78 17.67 22.78 11.39C22.78 5.11 17.67 0 11.39 0ZM11.39 21.01C6.08 21.01 1.77 16.69 1.77 11.39C1.77 6.09 6.09 1.77 11.39 1.77C16.7 1.77 21.01 6.09 21.01 11.39C21.01 16.69 16.69 21.01 11.39 21.01Z" fill="white"/>
</g>
<defs>
<clipPath id="clip0">
<rect width="22.77" height="22.77" fill="white"/>
</clipPath>
</defs>
</svg>
