<svg width="146" height="44" viewBox="0 0 146 44" fill="none" xmlns="http://www.w3.org/2000/svg">
<path d="M21.8 43.6H123.36C135.4 43.6 145.16 33.84 145.16 21.8C145.16 9.76 135.4 0 123.36 0H21.8C9.76 0 0 9.76 0 21.8C0 33.84 9.76 43.6 21.8 43.6Z" fill="#000"/>
<path d="M51.5703 20.6601C51.4403 16.7401 46.8703 14.5501 43.6003 16.2701C43.7003 12.7501 41.4403 9.74008 38.3103 9.38008C34.9803 9.00008 31.9303 11.7701 31.4903 15.5701C31.4603 15.8001 31.4503 16.0401 31.4403 16.2701C28.9003 14.8101 25.2803 15.5901 23.8503 18.2801C21.0203 24.5001 24.9103 26.2901 30.1303 26.6701L29.7603 32.9901C29.7203 33.6801 30.2703 34.2501 30.9503 34.2501H43.5303C44.2203 34.2501 44.7603 33.6701 44.7203 32.9901L44.3503 26.5601C47.9503 27.4101 52.0203 24.5201 51.5703 20.6601ZM34.3403 31.1301C34.3303 31.5401 34.0403 31.8801 33.6803 31.8801H33.3003C32.9503 31.8801 32.6703 31.5401 32.6803 31.1301L32.8203 27.1301C32.8303 26.7501 33.1203 26.4401 33.4603 26.4401H33.8203C34.1603 26.4401 34.4303 26.7501 34.4203 27.1301L34.3403 31.1301ZM37.4503 31.8801H37.0703C36.7103 31.8801 36.4303 31.5401 36.4303 31.1301L36.4603 27.1301C36.4603 26.7501 36.7403 26.4401 37.0803 26.4401H37.4403C37.7803 26.4401 38.0603 26.7501 38.0603 27.1301L38.0903 31.1301C38.0903 31.5501 37.8003 31.8801 37.4503 31.8801ZM41.2103 31.8801H40.8303C40.4703 31.8801 40.1803 31.5401 40.1703 31.1301L40.0903 27.1301C40.0803 26.7501 40.3503 26.4401 40.6903 26.4401H41.0503C41.3903 26.4401 41.6703 26.7501 41.6903 27.1301L41.8303 31.1301C41.8403 31.5501 41.5603 31.8801 41.2103 31.8801Z" fill="white"/>
<path d="M87.0899 20.6601C86.9599 16.7401 82.3899 14.5501 79.1199 16.2701C79.2199 12.7501 76.9599 9.74008 73.8299 9.38008C70.4999 9.00008 67.4499 11.7701 67.0099 15.5701C66.9799 15.8001 66.9699 16.0401 66.9599 16.2701C64.4199 14.8101 60.7999 15.5901 59.3699 18.2801C56.5399 24.5001 60.4299 26.2901 65.6499 26.6701L65.2799 32.9901C65.2399 33.6801 65.7899 34.2501 66.4699 34.2501H79.0499C79.7399 34.2501 80.2799 33.6701 80.2399 32.9901L79.8699 26.5601C83.4699 27.4101 87.5399 24.5201 87.0899 20.6601ZM69.8599 31.1301C69.8499 31.5401 69.5599 31.8801 69.1999 31.8801H68.8199C68.4699 31.8801 68.1899 31.5401 68.1999 31.1301L68.3399 27.1301C68.3499 26.7501 68.6399 26.4401 68.9799 26.4401H69.3399C69.6799 26.4401 69.9499 26.7501 69.9399 27.1301L69.8599 31.1301ZM72.9599 31.8801H72.5799C72.2199 31.8801 71.9399 31.5401 71.9399 31.1301L71.9699 27.1301C71.9699 26.7501 72.2499 26.4401 72.5899 26.4401H72.9499C73.2899 26.4401 73.5699 26.7501 73.5699 27.1301L73.5999 31.1301C73.5999 31.5501 73.3099 31.8801 72.9599 31.8801ZM76.7199 31.8801H76.3399C75.9799 31.8801 75.6899 31.5401 75.6799 31.1301L75.5999 27.1301C75.5899 26.7501 75.8599 26.4401 76.1999 26.4401H76.5599C76.8999 26.4401 77.1799 26.7501 77.1999 27.1301L77.3399 31.1301C77.3499 31.5501 77.0799 31.8801 76.7199 31.8801Z" fill="white"/>
<path opacity="0.7" d="M122.22 20.6601C122.09 16.7401 117.52 14.5501 114.25 16.2701C114.35 12.7501 112.09 9.74008 108.96 9.38008C105.63 9.00008 102.58 11.7701 102.14 15.5701C102.11 15.8001 102.1 16.0401 102.09 16.2701C99.5497 14.8101 95.9297 15.5901 94.4997 18.2801C91.6697 24.5001 95.5597 26.2901 100.78 26.6701L100.41 32.9901C100.37 33.6801 100.92 34.2501 101.6 34.2501H114.18C114.87 34.2501 115.41 33.6701 115.37 32.9901L115 26.5601C118.6 27.4101 122.67 24.5201 122.22 20.6601ZM104.99 31.1301C104.98 31.5401 104.69 31.8801 104.33 31.8801H103.95C103.6 31.8801 103.32 31.5401 103.33 31.1301L103.47 27.1301C103.48 26.7501 103.77 26.4401 104.11 26.4401H104.47C104.81 26.4401 105.08 26.7501 105.07 27.1301L104.99 31.1301ZM108.09 31.8801H107.71C107.35 31.8801 107.07 31.5401 107.07 31.1301L107.1 27.1301C107.1 26.7501 107.38 26.4401 107.72 26.4401H108.08C108.42 26.4401 108.7 26.7501 108.7 27.1301L108.73 31.1301C108.73 31.5501 108.44 31.8801 108.09 31.8801ZM111.85 31.8801H111.47C111.11 31.8801 110.82 31.5401 110.81 31.1301L110.73 27.1301C110.72 26.7501 110.99 26.4401 111.33 26.4401H111.69C112.03 26.4401 112.31 26.7501 112.33 27.1301L112.47 31.1301C112.48 31.5501 112.21 31.8801 111.85 31.8801Z" fill="white"/>
</svg>
