<svg width="146" height="44" viewBox="0 0 146 44" fill="none" xmlns="http://www.w3.org/2000/svg">
<g clip-path="url(#clip0)">
<path d="M21.8 43.6H123.36C135.4 43.6 145.16 33.84 145.16 21.8C145.16 9.76 135.4 0 123.36 0H21.8C9.76 0 0 9.76 0 21.8C0 33.84 9.76 43.6 21.8 43.6Z" fill="#000"/>
<path d="M51.57 20.6601C51.44 16.7401 46.87 14.5501 43.6 16.2701C43.7 12.7501 41.44 9.74008 38.31 9.38008C34.98 9.00008 31.93 11.7701 31.49 15.5701C31.46 15.8001 31.45 16.0401 31.44 16.2701C28.9 14.8101 25.28 15.5901 23.85 18.2801C21.02 24.5001 24.91 26.2901 30.13 26.6701L29.76 32.9901C29.72 33.6801 30.27 34.2501 30.95 34.2501H43.53C44.22 34.2501 44.76 33.6701 44.72 32.9901L44.35 26.5601C47.95 27.4101 52.02 24.5201 51.57 20.6601ZM34.34 31.1301C34.33 31.5401 34.04 31.8801 33.68 31.8801H33.3C32.95 31.8801 32.67 31.5401 32.68 31.1301L32.82 27.1301C32.83 26.7501 33.12 26.4401 33.46 26.4401H33.82C34.16 26.4401 34.43 26.7501 34.42 27.1301L34.34 31.1301ZM37.45 31.8801H37.07C36.71 31.8801 36.43 31.5401 36.43 31.1301L36.46 27.1301C36.46 26.7501 36.74 26.4401 37.08 26.4401H37.44C37.78 26.4401 38.06 26.7501 38.06 27.1301L38.09 31.1301C38.09 31.5501 37.8 31.8801 37.45 31.8801ZM41.21 31.8801H40.83C40.47 31.8801 40.18 31.5401 40.17 31.1301L40.09 27.1301C40.08 26.7501 40.35 26.4401 40.69 26.4401H41.05C41.39 26.4401 41.67 26.7501 41.69 27.1301L41.83 31.1301C41.84 31.5501 41.56 31.8801 41.21 31.8801Z" fill="white"/>
<path opacity="0.7" d="M87.09 20.6601C86.96 16.7401 82.39 14.5501 79.12 16.2701C79.22 12.7501 76.96 9.74008 73.83 9.38008C70.5 9.00008 67.45 11.7701 67.01 15.5701C66.98 15.8001 66.97 16.0401 66.96 16.2701C64.42 14.8101 60.8 15.5901 59.37 18.2801C56.54 24.5001 60.43 26.2901 65.65 26.6701L65.28 32.9901C65.24 33.6801 65.79 34.2501 66.47 34.2501H79.05C79.74 34.2501 80.28 33.6701 80.24 32.9901L79.87 26.5601C83.47 27.4101 87.54 24.5201 87.09 20.6601ZM69.86 31.1301C69.85 31.5401 69.56 31.8801 69.2 31.8801H68.82C68.47 31.8801 68.19 31.5401 68.2 31.1301L68.34 27.1301C68.35 26.7501 68.64 26.4401 68.98 26.4401H69.34C69.68 26.4401 69.95 26.7501 69.94 27.1301L69.86 31.1301ZM72.96 31.8801H72.58C72.22 31.8801 71.94 31.5401 71.94 31.1301L71.97 27.1301C71.97 26.7501 72.25 26.4401 72.59 26.4401H72.95C73.29 26.4401 73.57 26.7501 73.57 27.1301L73.6 31.1301C73.6 31.5501 73.31 31.8801 72.96 31.8801ZM76.72 31.8801H76.34C75.98 31.8801 75.69 31.5401 75.68 31.1301L75.6 27.1301C75.59 26.7501 75.86 26.4401 76.2 26.4401H76.56C76.9 26.4401 77.18 26.7501 77.2 27.1301L77.34 31.1301C77.35 31.5501 77.08 31.8801 76.72 31.8801Z" fill="white"/>
<path opacity="0.7" d="M122.22 20.6601C122.09 16.7401 117.52 14.5501 114.25 16.2701C114.35 12.7501 112.09 9.74008 108.96 9.38008C105.63 9.00008 102.58 11.7701 102.14 15.5701C102.11 15.8001 102.1 16.0401 102.09 16.2701C99.55 14.8101 95.93 15.5901 94.5 18.2801C91.67 24.5001 95.56 26.2901 100.78 26.6701L100.41 32.9901C100.37 33.6801 100.92 34.2501 101.6 34.2501H114.18C114.87 34.2501 115.41 33.6701 115.37 32.9901L115 26.5601C118.6 27.4101 122.67 24.5201 122.22 20.6601ZM104.99 31.1301C104.98 31.5401 104.69 31.8801 104.33 31.8801H103.95C103.6 31.8801 103.32 31.5401 103.33 31.1301L103.47 27.1301C103.48 26.7501 103.77 26.4401 104.11 26.4401H104.47C104.81 26.4401 105.08 26.7501 105.07 27.1301L104.99 31.1301ZM108.09 31.8801H107.71C107.35 31.8801 107.07 31.5401 107.07 31.1301L107.1 27.1301C107.1 26.7501 107.38 26.4401 107.72 26.4401H108.08C108.42 26.4401 108.7 26.7501 108.7 27.1301L108.73 31.1301C108.73 31.5501 108.44 31.8801 108.09 31.8801ZM111.85 31.8801H111.47C111.11 31.8801 110.82 31.5401 110.81 31.1301L110.73 27.1301C110.72 26.7501 110.99 26.4401 111.33 26.4401H111.69C112.03 26.4401 112.31 26.7501 112.33 27.1301L112.47 31.1301C112.48 31.5501 112.21 31.8801 111.85 31.8801Z" fill="white"/>
</g>
<defs>
<clipPath id="clip0">
<rect width="145.16" height="43.6" fill="white"/>
</clipPath>
</defs>
</svg>
