<svg width="44" height="44" viewBox="0 0 44 44" fill="none" xmlns="http://www.w3.org/2000/svg">
<g clip-path="url(#clip0)">
<path d="M21.8 43.6C33.8398 43.6 43.6 33.8398 43.6 21.8C43.6 9.76019 33.8398 0 21.8 0C9.76019 0 0 9.76019 0 21.8C0 33.8398 9.76019 43.6 21.8 43.6Z" fill="#000"/>
<path d="M9.15998 35.1701C8.96998 35.1701 8.77998 35.1001 8.62998 34.9501C8.33998 34.6601 8.33998 34.1901 8.62998 33.9001L33.9 8.6301C34.19 8.3401 34.66 8.3401 34.95 8.6301C35.24 8.9201 35.24 9.3901 34.95 9.6801L9.67998 34.9501C9.53998 35.0901 9.34998 35.1701 9.15998 35.1701Z" fill="white"/>
<path d="M28.6699 17.3C30.7799 19.66 29.7999 24.4001 26.8399 25.5201C24.2599 22.9001 26.2599 18.9 28.6699 17.3Z" fill="white"/>
<path d="M9.56995 20.2301C10.3099 17.8101 14.0499 16.6701 16.1699 18.1001C17.4999 19.2101 14.6499 20.8701 13.3899 21.4201C12.1399 21.3801 10.6199 21.0701 9.56995 20.2301Z" fill="white"/>
<path d="M14.0399 11.36C14.9299 11.72 16.8599 16.4 14.7399 15.64C11.8799 16.22 9.81995 13.17 9.48995 10.74C8.22995 8.35 13.4099 10.44 14.0399 11.36Z" fill="white"/>
<path d="M26.0099 26.4001C25.2399 27.9901 23.9599 29.2401 22.1999 29.5401C20.5799 29.6001 16.3199 28.6001 18.7799 27.0401C19.1299 26.8201 19.4599 26.5501 19.7599 26.2601C21.3799 24.7101 24.4299 24.7001 26.0099 26.4001Z" fill="white"/>
<path d="M30.62 30.67C29.03 33.75 26.79 34.75 23.6 33.39C23.06 33.16 22.84 32.49 23.17 32C23.84 31 25.79 30.08 26.48 29.59C26.5 29.58 26.51 29.57 26.53 29.57C28.01 29.15 29.25 29.96 30.53 30.45C30.63 30.47 30.67 30.58 30.62 30.67Z" fill="white"/>
<path d="M31.41 23.4301C31.8 22.8301 32.51 22.3301 32.93 21.6001C36.89 25.6001 31.44 32.6701 30.31 27.9001C30.24 27.6201 30.13 27.3701 30.01 27.1101C29.98 27.0401 29.98 26.9601 30.03 26.8401C29.96 26.4901 29.99 26.1101 30.08 25.7201C30.16 25.3801 30.33 25.0701 30.52 24.7801C30.7 24.5101 30.77 24.1401 30.96 23.9501C31.12 23.7901 31.28 23.6301 31.41 23.4301Z" fill="white"/>
<path d="M21.44 22.0801C20.17 26.6301 12.4999 25.4201 14.1499 23.3001C15.7799 21.6001 19.52 19.8801 21.36 22.0001" fill="white"/>
<path d="M24.0999 13.5C26.2799 15.96 25.6699 20.32 22.2499 21.05C19.8899 18.53 21.6999 15.23 24.0999 13.5Z" fill="white"/>
<path d="M17.2699 14.6801C16.9499 12.6601 18.3799 11.0701 19.6799 9.70006C20.1199 9.19006 21.0399 11.2801 20.9399 11.6501C21.8699 13.6701 20.4599 15.8101 18.5599 16.6801C17.6799 16.6501 17.6899 15.2601 17.2699 14.6801Z" fill="white"/>
</g>
<defs>
<clipPath id="clip0">
<rect width="43.6" height="43.6" fill="white"/>
</clipPath>
</defs>
</svg>
