<svg xmlns="http://www.w3.org/2000/svg" viewBox="0 0 828 3.94"><defs><style>.cls-1{fill:#000;}</style></defs><title>faq-questions-filters-divider-l</title><g id="Calque_2" data-name="Calque 2"><g id="contenu"><path class="cls-1" d="M825.53,1.48l-1.59-.37c-.12-.34-1.34-.6-2.86-.62C812.79.41,802.54.13,795,.25c-.6.13-15.08-.13-21.67,0-4.59.15-53.77-.37-80.51.13-28,.48-56.2-.76-83.93-.2L594.16.14c-3.81,0-7.7-.15-10.67-.14-4,0-6.08,0-7,.07-25-.08-72.11.25-98.76.42-1.21,0-2.42,0-3.63,0-20.54,0-59-.24-75.54-.08-3,0-5.95,0-8.92,0-39-.5-110.29-.48-120.92-.22C262.75.32,225.18,0,216,.4h-.08c-3.6.16-9.94.15-13.65.15L184.3.44c-.76,0-1.52,0-2.25,0C170.49,0,156.68-.06,129.59.5,121.44.67,98,.1,84.44.18,62.92.31,21.33-.08,6.23.56H6.15C1.64.75.06,1.16,0,1.82l1.05.49C1,3,5.14,2.93,9.89,3.1c16.9.59,47.87.32,78.86.29,9.21,0,28.26-.21,33.48-.2,28.55,0,68.3.6,77.31.33l1.39-.06c3.51-.16,40-.26,43.61-.28L320,3.07h2.93c18.53,0,52.13.21,70.66.12,2.81,0,5.62,0,8.41.06,32.31.69,116.45.38,126.67.14,2.77-.07,15.19-.09,28.81-.13,14.18,0,63.11.67,89.14.67l141.2-.24H788c7.25-.13,15.86-.21,21.91,0,5.63.16,9.73.14,14.09.29,1.67.06,3.24-.18,3.51-.55l.43-.59a.14.14,0,0,0,0-.1l-.57-.63S825.54,1.5,825.53,1.48Z"/></g></g></svg>