<svg xmlns="http://www.w3.org/2000/svg" viewBox="0 0 611.34 3.94"><defs><style>.cls-1{fill:#000;}</style></defs><title>faq-questions-filters-divider-t</title><g id="Calque_2" data-name="Calque 2"><g id="contenu"><path class="cls-1" d="M609.52,1.48l-1.18-.37c-.08-.34-1-.6-2.11-.62C600.11.41,592.55.13,587,.25c-.44.13-11.13-.13-16,0-3.39.15-39.7-.37-59.44.13-20.69.48-41.5-.76-62-.2L438.69.14C435.88.14,433,0,430.82,0c-2.93,0-4.49,0-5.21.07C407.16,0,372.38.32,352.7.49c-.9,0-1.79,0-2.68,0-15.17,0-43.55-.24-55.78-.08-2.19,0-4.39,0-6.58,0-28.78-.5-81.43-.48-89.28-.22C194,.32,166.26,0,159.46.4h-.05c-2.66.16-7.34.15-10.08.15L136.07.44c-.56,0-1.11,0-1.66,0C125.88,0,115.68-.06,95.68.5,89.66.67,72.39.1,62.35.18,46.46.31,15.75-.08,4.6.56H4.54C1.21.75,0,1.16,0,1.82l.77.49c0,.69,3,.62,6.53.79,12.48.59,35.34.32,58.23.29,6.8,0,20.86-.21,24.71-.2,21.08,0,50.43.6,57.09.33l1-.06c2.6-.16,29.52-.26,32.2-.28l55.68-.11h2.17c13.68,0,38.48.21,52.17.12,2.07,0,4.15,0,6.21.06,23.85.69,86,.38,93.52.14,2-.07,11.22-.09,21.27-.13,10.47,0,46.6.67,65.82.67l104.25-.24h.19c5.35-.13,11.7-.21,16.17,0,4.16.16,7.19.14,10.4.29,1.24.06,2.4-.18,2.6-.55l.32-.59a.36.36,0,0,0,0-.1l-.42-.63S609.52,1.5,609.52,1.48Z"/></g></g></svg>