<svg xmlns="http://www.w3.org/2000/svg" viewBox="0 0 1163.61 3.94"><defs><style>.cls-1{fill:#000;}</style></defs><title>faq-questions-filters-divider-d</title><g id="Calque_2" data-name="Calque 2"><g id="contenu"><path class="cls-1" d="M1160.14,1.48l-2.24-.37c-.16-.34-1.88-.6-4-.62-11.64-.08-26.05-.36-36.66-.24-.84.13-21.19-.13-30.45,0-6.46.15-75.57-.37-113.15.13-39.37.48-79-.76-117.94-.2L835,.14C829.64.14,824.17,0,820,0c-5.57,0-8.55,0-9.9.07C775,0,708.77.32,671.31.49c-1.7,0-3.4,0-5.1,0C637.34.44,583.32.25,560.05.41c-4.18,0-8.37,0-12.53,0-54.77-.5-155-.48-169.93-.22C369.24.32,316.45,0,303.52.4h-.11c-5.06.16-14,.15-19.19.15L259,.44c-1.07,0-2.13,0-3.17,0C239.59,0,220.19-.06,182.12.5,170.66.67,137.78.1,118.67.18,88.43.31,30-.08,8.75.56H8.64C2.3.75.08,1.16,0,1.82l1.47.49c-.08.69,5.75.62,12.43.79,23.74.59,67.27.32,110.82.29,12.95,0,39.72-.21,47.05-.2,40.12,0,96,.6,108.65.33l1.95-.06c4.94-.16,56.18-.26,61.28-.28l106-.11h4.12c26,0,73.25.21,99.3.12q5.93,0,11.81.06c45.4.69,163.65.38,178,.14,3.89-.07,21.36-.09,40.5-.13,19.92,0,88.69.67,125.26.67l198.44-.24h.35c10.18-.13,22.28-.21,30.79,0,7.91.16,13.68.14,19.8.29,2.34.06,4.56-.18,4.93-.55l.61-.59a.16.16,0,0,0,0-.1l-.81-.63S1160.15,1.5,1160.14,1.48Z"/></g></g></svg>