<svg xmlns="http://www.w3.org/2000/svg" viewBox="0 0 242 3.94"><defs><style>.cls-1{fill:#000;}</style></defs><title>faq-questions-filters-divider-m</title><g id="Calque_2" data-name="Calque 2"><g id="contenu"><path class="cls-1" d="M241.28,1.48l-.47-.37A.8.8,0,0,0,240,.49c-2.43-.08-5.42-.36-7.63-.24-.17.13-4.41-.13-6.33,0C224.68.42,210.3-.1,202.49.4,194.3.88,186.06-.36,178,.2L173.65.14c-1.11,0-2.24-.15-3.11-.14-1.16,0-1.78,0-2.06.07-7.3-.08-21.07.25-28.87.42-.35,0-.7,0-1.06,0-6,0-17.24-.24-22.08-.08-.86,0-1.73,0-2.6,0C102.48-.1,81.63-.08,78.53.18,76.79.32,65.81,0,63.12.4h0a33,33,0,0,1-4,.15L53.86.44c-.22,0-.44,0-.65,0C49.83,0,45.79-.06,37.88.5,35.49.67,28.66.1,24.68.18,18.39.31,6.24-.08,1.82.56h0C.48.75,0,1.16,0,1.82l.31.49c0,.69,1.19.62,2.58.79,4.94.59,14,.32,23.05.29,2.69,0,8.26-.21,9.78-.2,8.35,0,20,.6,22.6.33l.41-.06c1-.16,11.68-.26,12.74-.28l22-.11h.86c5.41,0,15.23.21,20.65.12q1.23,0,2.46.06c9.44.69,34,.38,37,.14.81-.07,4.44-.09,8.42-.13,4.14,0,18.45.67,26.05.67l41.27-.24h.08a47.5,47.5,0,0,1,6.4,0c1.65.16,2.84.14,4.12.29a.88.88,0,0,0,1-.55l.13-.59a.34.34,0,0,0,0-.1l-.17-.63S241.28,1.5,241.28,1.48Z"/></g></g></svg>