<svg width="11" height="9" viewBox="0 0 11 9" fill="none" xmlns="http://www.w3.org/2000/svg">
<path d="M9.89993 3.00001C7.89993 5.30001 7.69993 7.60001 6.79993 7.80001C5.99993 8.10001 6.69993 8.40001 5.29993 8.40001C3.19993 8.40001 4.09993 8.00001 2.29993 5.50001C0.799926 3.50001 -0.100074 1.80001 0.0999262 1.50001C0.399926 1.10001 1.29993 1.00001 1.79993 1.30001C2.29993 1.50001 3.49993 3.20001 3.69993 3.90001C3.79993 4.30001 4.89993 5.90001 5.19993 6.10001C5.29993 6.20001 5.39993 6.10001 5.39993 6.00001C5.99993 4.70001 7.39993 2.30001 7.99993 1.80001C8.19993 1.60001 8.49993 1.40001 8.49993 1.20001C8.69993 0.900006 9.69993 0.900006 10.1999 1.20001C10.7999 1.50001 10.5999 2.10001 9.89993 3.00001Z" fill="#000"/>
</svg>
