<svg width="17" height="17" viewBox="0 0 17 17" fill="none" xmlns="http://www.w3.org/2000/svg">
<path d="M11.7 6.1C12.2 5.6 12.6 5.2 12.7 5.1C12.9 4.9 13.2 4.5 13.5 4.2C14 3.7 14.1 3.5 14.2 3.5C14.5 3.2 14.8 2.9 15.1 2.6C15.6 2.2 16 1.8 16.4 1.3C16.6 1.1 16.7 0.8 16.6 0.6C16.6 0.5 16.5 0.4 16.4 0.3C15.7 -0.1 15 0.6 14.4 1.2C14.2 1.4 14 1.6 13.8 1.8L9 6.5L8.3 7.3L8.2 7.2L1.6 0.3L1.5 0.2C1.3 0 1 0 0.8 0C0.7 0 0.6 0.1 0.6 0.2L0.3 0.6C-0.1 1.4 1.3 2.5 1.5 2.7C2.5 3.6 3.4 4.5 4.3 5.4C5.1 6.3 6 7.2 6.9 8C7 8.2 7.2 8.3 7.3 8.4L7.2 8.5L0.3 15.1L0.2 15.2C0 15.5 0 15.8 0 15.9C0 16 0.1 16.1 0.2 16.1L0.7 16.4C0.8 16.5 0.9 16.5 1 16.5C1.7 16.5 2.6 15.4 2.8 15.2C3.7 14.2 4.6 13.3 5.5 12.4C6.4 11.5 7.3 10.7 8.1 9.8C8.2 9.7 8.3 9.6 8.4 9.4C9.2 10.2 10 11 10.6 11.6C11.1 12.1 11.5 12.5 11.6 12.6C11.8 12.8 12.2 13.1 12.5 13.5C13 14 13.1 14.1 13.2 14.2C13.5 14.5 13.8 14.8 14.1 15.1C14.5 15.6 14.9 16 15.4 16.4C15.6 16.5 15.8 16.6 16 16.6H16.1C16.2 16.6 16.3 16.5 16.4 16.4C16.8 15.7 16.1 15 15.5 14.4C15.3 14.2 15.1 14 14.9 13.8L10.2 9L9.5 8.3C10.2 7.5 11.1 6.7 11.7 6.1Z" fill="white"/>
</svg>
