<svg width="197" height="41" viewBox="0 0 197 41" fill="none" xmlns="http://www.w3.org/2000/svg">
<path d="M196 3.8C195.9 2.6 194.9 1.7 193.7 1.7C187.1 1.4 178.9 0.4 172.9 0.9C172.4 1.4 160.9 0.5 155.6 1C151.9 1.5 112.7 -0.3 91.3 1.5C68.9 3.2 46.4 -1.1 24.3 0.8C24.2 0.8 12.7 0.6 12.5 0.6C9.50003 0.5 6.40003 0.1 4.00003 0C2.80003 0 1.70003 0.9 1.50003 2.1C1.30003 3.7 0.50003 6.1 0.50003 6.9C1.00003 18.1 0.30003 27.4 3.0058e-05 35.4C-0.0999699 36.7 1.00003 37.8 2.40003 37.8C13.7 37.6 30.3 40.2 51 40.1L163.7 39.3C163.8 39.3 163.8 39.3 163.9 39.3C169.7 38.8 176.6 38.6 181.4 39.1C185.9 39.6 189.2 39.6 192.6 40.1C193.9 40.3 195.2 39.5 195.4 38.2L195.7 36.1C195.7 36 195.7 35.9 195.7 35.8L196.1 8.5C196.1 8.4 196.1 8.4 196.1 8.3L196 3.8Z" fill="white"/>
</svg>
